<svg width="382" height="190" viewBox="0 0 382 190" fill="none" xmlns="http://www.w3.org/2000/svg">
<g clip-path="url(#clip0_36048_13516)">
<rect width="382" height="190" rx="95" fill="url(#paint0_radial_36048_13516)" fill-opacity="0.5"/>
<g clip-path="url(#clip1_36048_13516)">
<mask id="mask0_36048_13516" style="mask-type:luminance" maskUnits="userSpaceOnUse" x="-322" y="-646" width="1145" height="839">
<path d="M-321.008 192.785L822.992 192.785L822.992 -645.081L-321.008 -645.081V192.785Z" fill="white"/>
</mask>
<g mask="url(#mask0_36048_13516)">
<path opacity="0.65" d="M11.2359 182.966H3.71094V190.5H11.2359V182.966Z" fill="#E7EFF7"/>
<path opacity="0.65" d="M36.2144 182.966H28.6895V190.5H36.2144V182.966Z" fill="#E7EFF7"/>
<path opacity="0.65" d="M61.191 182.966H53.666V190.5H61.191V182.966Z" fill="#E7EFF7"/>
<path opacity="0.65" d="M86.1695 182.966H78.6445V190.5H86.1695V182.966Z" fill="#E7EFF7"/>
<path opacity="0.65" d="M98.6578 182.966H91.1328V190.5H98.6578V182.966Z" fill="#E7EFF7"/>
<path opacity="0.65" d="M148.619 182.966H141.094V190.5H148.619V182.966Z" fill="#E7EFF7"/>
<path opacity="0.65" d="M161.107 182.966H153.582V190.5H161.107V182.966Z" fill="#E7EFF7"/>
<path opacity="0.65" d="M173.595 182.966H166.07V190.5H173.595V182.966Z" fill="#E7EFF7"/>
<path opacity="0.65" d="M186.084 182.966H178.559V190.5H186.084V182.966Z" fill="#E7EFF7"/>
<path opacity="0.65" d="M198.572 182.966H191.047V190.5H198.572V182.966Z" fill="#E7EFF7"/>
<path opacity="0.65" d="M211.062 182.966H203.537V190.5H211.062V182.966Z" fill="#E7EFF7"/>
<path opacity="0.65" d="M223.55 182.966H216.025V190.5H223.55V182.966Z" fill="#E7EFF7"/>
<path opacity="0.65" d="M23.7262 170.499H16.2012V178.033H23.7262V170.499Z" fill="#E7EFF7"/>
<path opacity="0.65" d="M36.2144 170.499H28.6895V178.033H36.2144V170.499Z" fill="#E7EFF7"/>
<path opacity="0.65" d="M48.7027 170.499H41.1777V178.033H48.7027V170.499Z" fill="#E7EFF7"/>
<path opacity="0.65" d="M86.1695 170.499H78.6445V178.033H86.1695V170.499Z" fill="#E7EFF7"/>
<path opacity="0.65" d="M148.619 170.499H141.094V178.033H148.619V170.499Z" fill="#E7EFF7"/>
<path opacity="0.65" d="M161.107 170.499H153.582V178.033H161.107V170.499Z" fill="#E7EFF7"/>
<path opacity="0.65" d="M173.595 170.499H166.07V178.033H173.595V170.499Z" fill="#E7EFF7"/>
<path opacity="0.65" d="M186.084 170.499H178.559V178.033H186.084V170.499Z" fill="#E7EFF7"/>
<path opacity="0.65" d="M223.55 170.499H216.025V178.033H223.55V170.499Z" fill="#E7EFF7"/>
<path opacity="0.5" d="M11.2359 158.033H3.71094V165.568H11.2359V158.033Z" fill="#E7EFF7"/>
<path opacity="0.5" d="M48.7027 158.033H41.1777V165.568H48.7027V158.033Z" fill="#E7EFF7"/>
<path opacity="0.5" d="M61.191 158.033H53.666V165.568H61.191V158.033Z" fill="#E7EFF7"/>
<path opacity="0.5" d="M86.1695 158.033H78.6445V165.568H86.1695V158.033Z" fill="#E7EFF7"/>
<path opacity="0.5" d="M98.6578 158.033H91.1328V165.568H98.6578V158.033Z" fill="#E7EFF7"/>
<path opacity="0.5" d="M111.146 158.033H103.621V165.568H111.146V158.033Z" fill="#E7EFF7"/>
<path opacity="0.5" d="M136.123 158.033H128.598V165.568H136.123V158.033Z" fill="#E7EFF7"/>
<path opacity="0.5" d="M148.619 158.033H141.094V165.568H148.619V158.033Z" fill="#E7EFF7"/>
<path opacity="0.5" d="M173.595 158.033H166.07V165.568H173.595V158.033Z" fill="#E7EFF7"/>
<path opacity="0.5" d="M186.084 158.033H178.559V165.568H186.084V158.033Z" fill="#E7EFF7"/>
<path opacity="0.5" d="M211.062 158.033H203.537V165.568H211.062V158.033Z" fill="#E7EFF7"/>
<path opacity="0.5" d="M248.529 158.033H241.004V165.568H248.529V158.033Z" fill="#E7EFF7"/>
<path opacity="0.5" d="M11.2359 145.566H3.71094V153.101H11.2359V145.566Z" fill="#E7EFF7"/>
<path opacity="0.5" d="M23.7262 145.566H16.2012V153.101H23.7262V145.566Z" fill="#E7EFF7"/>
<path opacity="0.5" d="M48.7027 145.566H41.1777V153.101H48.7027V145.566Z" fill="#E7EFF7"/>
<path opacity="0.5" d="M61.191 145.566H53.666V153.101H61.191V145.566Z" fill="#E7EFF7"/>
<path opacity="0.5" d="M86.1695 145.566H78.6445V153.101H86.1695V145.566Z" fill="#E7EFF7"/>
<path opacity="0.5" d="M98.6578 145.566H91.1328V153.101H98.6578V145.566Z" fill="#E7EFF7"/>
<path opacity="0.5" d="M111.146 145.566H103.621V153.101H111.146V145.566Z" fill="#E7EFF7"/>
<path opacity="0.5" d="M123.634 145.566H116.109V153.101H123.634V145.566Z" fill="#E7EFF7"/>
<path opacity="0.5" d="M148.619 145.566H141.094V153.101H148.619V145.566Z" fill="#E7EFF7"/>
<path opacity="0.5" d="M161.107 145.566H153.582V153.101H161.107V145.566Z" fill="#E7EFF7"/>
<path opacity="0.5" d="M173.595 145.566H166.07V153.101H173.595V145.566Z" fill="#E7EFF7"/>
<path opacity="0.5" d="M186.084 145.566H178.559V153.101H186.084V145.566Z" fill="#E7EFF7"/>
<path opacity="0.5" d="M211.062 145.566H203.537V153.101H211.062V145.566Z" fill="#E7EFF7"/>
<path opacity="0.5" d="M223.55 145.566H216.025V153.101H223.55V145.566Z" fill="#E7EFF7"/>
<path opacity="0.5" d="M236.039 145.566H228.514V153.101H236.039V145.566Z" fill="#E7EFF7"/>
<path opacity="0.5" d="M23.7242 133.1H16.1992V140.634H23.7242V133.1Z" fill="#E7EFF7"/>
<path opacity="0.5" d="M36.2144 133.1H28.6895V140.634H36.2144V133.1Z" fill="#E7EFF7"/>
<path opacity="0.5" d="M48.7027 133.1H41.1777V140.634H48.7027V133.1Z" fill="#E7EFF7"/>
<path opacity="0.5" d="M61.191 133.1H53.666V140.634H61.191V133.1Z" fill="#E7EFF7"/>
<path opacity="0.5" d="M86.1695 133.1H78.6445V140.634H86.1695V133.1Z" fill="#E7EFF7"/>
<path opacity="0.5" d="M98.6578 133.1H91.1328V140.634H98.6578V133.1Z" fill="#E7EFF7"/>
<path opacity="0.5" d="M111.146 133.1H103.621V140.634H111.146V133.1Z" fill="#E7EFF7"/>
<path opacity="0.5" d="M136.123 133.1H128.598V140.634H136.123V133.1Z" fill="#E7EFF7"/>
<path opacity="0.5" d="M161.107 133.1H153.582V140.634H161.107V133.1Z" fill="#E7EFF7"/>
<path opacity="0.5" d="M173.595 133.1H166.07V140.634H173.595V133.1Z" fill="#E7EFF7"/>
<path opacity="0.5" d="M198.572 133.1H191.047V140.634H198.572V133.1Z" fill="#E7EFF7"/>
<path opacity="0.5" d="M211.062 133.1H203.537V140.634H211.062V133.1Z" fill="#E7EFF7"/>
<path opacity="0.5" d="M223.55 133.1H216.025V140.634H223.55V133.1Z" fill="#E7EFF7"/>
<path opacity="0.5" d="M236.039 133.1H228.514V140.634H236.039V133.1Z" fill="#E7EFF7"/>
<path opacity="0.5" d="M248.529 133.1H241.004V140.634H248.529V133.1Z" fill="#E7EFF7"/>
<path opacity="0.45" d="M23.7242 120.621H16.1992V128.156H23.7242V120.621Z" fill="#E7EFF7"/>
<path opacity="0.45" d="M48.7027 120.621H41.1777V128.156H48.7027V120.621Z" fill="#E7EFF7"/>
<path opacity="0.45" d="M86.1695 120.621H78.6445V128.156H86.1695V120.621Z" fill="#E7EFF7"/>
<path opacity="0.45" d="M111.146 120.627H103.621V128.162H111.146V120.627Z" fill="#E7EFF7"/>
<path opacity="0.45" d="M123.634 120.627H116.109V128.161H123.634V120.627Z" fill="#E7EFF7"/>
<path opacity="0.45" d="M136.123 120.627H128.598V128.161H136.123V120.627Z" fill="#E7EFF7"/>
<path opacity="0.45" d="M148.613 120.627H141.088V128.161H148.613V120.627Z" fill="#E7EFF7"/>
<path opacity="0.45" d="M161.101 120.627H153.576V128.161H161.101V120.627Z" fill="#E7EFF7"/>
<path opacity="0.45" d="M173.589 120.627H166.064V128.162H173.589V120.627Z" fill="#E7EFF7"/>
<path opacity="0.45" d="M198.572 120.634H191.047V128.168H198.572V120.634Z" fill="#E7EFF7"/>
<path opacity="0.45" d="M211.062 120.634H203.537V128.168H211.062V120.634Z" fill="#E7EFF7"/>
<path opacity="0.45" d="M248.529 120.634H241.004V128.168H248.529V120.634Z" fill="#E7EFF7"/>
<path opacity="0.4" d="M23.7262 108.154H16.2012V115.689H23.7262V108.154Z" fill="#E7EFF7"/>
<path opacity="0.4" d="M36.2144 108.154H28.6895V115.689H36.2144V108.154Z" fill="#E7EFF7"/>
<path opacity="0.4" d="M48.7027 108.154H41.1777V115.689H48.7027V108.154Z" fill="#E7EFF7"/>
<path opacity="0.4" d="M61.191 108.154H53.666V115.689H61.191V108.154Z" fill="#E7EFF7"/>
<path opacity="0.4" d="M98.6578 108.154H91.1328V115.689H98.6578V108.154Z" fill="#E7EFF7"/>
<path opacity="0.4" d="M111.146 108.161H103.621V115.696H111.146V108.161Z" fill="#E7EFF7"/>
<path opacity="0.4" d="M123.634 108.161H116.109V115.696H123.634V108.161Z" fill="#E7EFF7"/>
<path opacity="0.4" d="M136.123 108.161H128.598V115.696H136.123V108.161Z" fill="#E7EFF7"/>
<path opacity="0.4" d="M148.619 108.161H141.094V115.696H148.619V108.161Z" fill="#E7EFF7"/>
<path opacity="0.4" d="M161.107 108.161H153.582V115.696H161.107V108.161Z" fill="#E7EFF7"/>
<path opacity="0.4" d="M198.572 108.161H191.047V115.696H198.572V108.161Z" fill="#E7EFF7"/>
<path opacity="0.4" d="M211.062 108.167H203.537V115.701H211.062V108.167Z" fill="#E7EFF7"/>
<path opacity="0.4" d="M223.55 108.167H216.025V115.701H223.55V108.167Z" fill="#E7EFF7"/>
<path opacity="0.4" d="M236.039 108.167H228.514V115.701H236.039V108.167Z" fill="#E7EFF7"/>
<path opacity="0.4" d="M248.527 108.167H241.002V115.701H248.527V108.167Z" fill="#E7EFF7"/>
<path opacity="0.4" d="M23.7242 95.6875H16.1992V103.222H23.7242V95.6875Z" fill="#E7EFF7"/>
<path opacity="0.4" d="M36.2144 95.6875H28.6895V103.222H36.2144V95.6875Z" fill="#E7EFF7"/>
<path opacity="0.4" d="M61.191 95.6875H53.666V103.222H61.191V95.6875Z" fill="#E7EFF7"/>
<path opacity="0.4" d="M86.1695 95.6875H78.6445V103.222H86.1695V95.6875Z" fill="#E7EFF7"/>
<path opacity="0.4" d="M98.6637 95.6875H91.1387V103.222H98.6637V95.6875Z" fill="#E7EFF7"/>
<path opacity="0.4" d="M123.64 95.6943H116.115V103.229H123.64V95.6943Z" fill="#E7EFF7"/>
<path opacity="0.4" d="M148.619 95.6943H141.094V103.229H148.619V95.6943Z" fill="#E7EFF7"/>
<path opacity="0.4" d="M173.595 95.6943H166.07V103.229H173.595V95.6943Z" fill="#E7EFF7"/>
<path opacity="0.4" d="M186.084 95.6943H178.559V103.229H186.084V95.6943Z" fill="#E7EFF7"/>
<path opacity="0.4" d="M211.062 95.7002H203.537V103.235H211.062V95.7002Z" fill="#E7EFF7"/>
<path opacity="0.4" d="M236.039 95.7002H228.514V103.235H236.039V95.7002Z" fill="#E7EFF7"/>
<path opacity="0.4" d="M248.529 95.7002H241.004V103.235H248.529V95.7002Z" fill="#E7EFF7"/>
<path opacity="0.3" d="M23.7262 83.2344H16.2012V90.7688H23.7262V83.2344Z" fill="#E7EFF7"/>
<path opacity="0.3" d="M48.7027 83.2341H41.1777V90.7686H48.7027V83.2341Z" fill="#E7EFF7"/>
<path opacity="0.3" d="M73.6812 83.2344H66.1562V90.7688H73.6812V83.2344Z" fill="#E7EFF7"/>
<path opacity="0.3" d="M86.1695 83.2344H78.6445V90.7688H86.1695V83.2344Z" fill="#E7EFF7"/>
<path opacity="0.3" d="M98.6578 83.2344H91.1328V90.7688H98.6578V83.2344Z" fill="#E7EFF7"/>
<path opacity="0.3" d="M123.634 83.2344H116.109V90.7688H123.634V83.2344Z" fill="#E7EFF7"/>
<path opacity="0.3" d="M148.619 83.2344H141.094V90.7688H148.619V83.2344Z" fill="#E7EFF7"/>
<path opacity="0.3" d="M161.107 83.2341H153.582V90.7686H161.107V83.2341Z" fill="#E7EFF7"/>
<path opacity="0.3" d="M211.062 83.2344H203.537V90.7688H211.062V83.2344Z" fill="#E7EFF7"/>
<path opacity="0.3" d="M11.2359 70.7676H3.71094V78.302H11.2359V70.7676Z" fill="#E7EFF7"/>
<path opacity="0.3" d="M23.7262 70.7676H16.2012V78.302H23.7262V70.7676Z" fill="#E7EFF7"/>
<path opacity="0.3" d="M48.7027 70.7678H41.1777V78.3023H48.7027V70.7678Z" fill="#E7EFF7"/>
<path opacity="0.3" d="M98.6578 70.7676H91.1328V78.302H98.6578V70.7676Z" fill="#E7EFF7"/>
<path opacity="0.3" d="M236.039 70.7676H228.514V78.302H236.039V70.7676Z" fill="#E7EFF7"/>
<path opacity="0.3" d="M248.527 70.7676H241.002V78.302H248.527V70.7676Z" fill="#E7EFF7"/>
<path opacity="0.25" d="M23.7242 58.3018H16.1992V65.8362H23.7242V58.3018Z" fill="#E7EFF7"/>
<path opacity="0.25" d="M48.7027 58.3018H41.1777V65.8362H48.7027V58.3018Z" fill="#E7EFF7"/>
<path opacity="0.25" d="M86.1695 58.3018H78.6445V65.8362H86.1695V58.3018Z" fill="#E7EFF7"/>
<path opacity="0.25" d="M98.6578 58.3018H91.1328V65.8362H98.6578V58.3018Z" fill="#E7EFF7"/>
<path opacity="0.25" d="M123.634 58.3018H116.109V65.8362H123.634V58.3018Z" fill="#E7EFF7"/>
<path opacity="0.25" d="M136.123 58.3018H128.598V65.8362H136.123V58.3018Z" fill="#E7EFF7"/>
<path opacity="0.25" d="M186.084 58.3018H178.559V65.8362H186.084V58.3018Z" fill="#E7EFF7"/>
<path opacity="0.25" d="M248.529 58.3018H241.004V65.8362H248.529V58.3018Z" fill="#E7EFF7"/>
<path opacity="0.25" d="M11.2359 45.835H3.71094V53.3694H11.2359V45.835Z" fill="#E7EFF7"/>
<path opacity="0.25" d="M23.7262 45.835H16.2012V53.3694H23.7262V45.835Z" fill="#E7EFF7"/>
<path opacity="0.25" d="M36.2144 45.835H28.6895V53.3694H36.2144V45.835Z" fill="#E7EFF7"/>
<path opacity="0.25" d="M73.6812 45.835H66.1562V53.3694H73.6812V45.835Z" fill="#E7EFF7"/>
<path opacity="0.25" d="M86.1695 45.835H78.6445V53.3694H86.1695V45.835Z" fill="#E7EFF7"/>
<path opacity="0.25" d="M123.634 45.835H116.109V53.3694H123.634V45.835Z" fill="#E7EFF7"/>
<path opacity="0.25" d="M148.619 45.835H141.094V53.3694H148.619V45.835Z" fill="#E7EFF7"/>
<path opacity="0.25" d="M198.574 45.835H191.049V53.3694H198.574V45.835Z" fill="#E7EFF7"/>
<path opacity="0.25" d="M236.039 45.835H228.514V53.3694H236.039V45.835Z" fill="#E7EFF7"/>
<path opacity="0.25" d="M23.7242 33.3682H16.1992V40.9026H23.7242V33.3682Z" fill="#E7EFF7"/>
<path opacity="0.25" d="M36.2144 33.3682H28.6895V40.9026H36.2144V33.3682Z" fill="#E7EFF7"/>
<path opacity="0.25" d="M98.6578 33.3682H91.1328V40.9026H98.6578V33.3682Z" fill="#E7EFF7"/>
<path opacity="0.25" d="M148.619 33.3682H141.094V40.9026H148.619V33.3682Z" fill="#E7EFF7"/>
<path opacity="0.25" d="M198.572 33.3682H191.047V40.9026H198.572V33.3682Z" fill="#E7EFF7"/>
<path opacity="0.2" d="M11.2359 20.9023H3.71094V28.4368H11.2359V20.9023Z" fill="#E7EFF7"/>
<path opacity="0.2" d="M61.191 20.9023H53.666V28.4368H61.191V20.9023Z" fill="#E7EFF7"/>
<path opacity="0.2" d="M86.1695 20.9023H78.6445V28.4368H86.1695V20.9023Z" fill="#E7EFF7"/>
<path opacity="0.2" d="M123.634 20.9023H116.109V28.4368H123.634V20.9023Z" fill="#E7EFF7"/>
<path opacity="0.2" d="M136.123 20.9023H128.598V28.4368H136.123V20.9023Z" fill="#E7EFF7"/>
<path opacity="0.2" d="M186.084 20.9023H178.559V28.4368H186.084V20.9023Z" fill="#E7EFF7"/>
<path opacity="0.2" d="M198.572 20.9023H191.047V28.4368H198.572V20.9023Z" fill="#E7EFF7"/>
<path opacity="0.2" d="M211.062 20.9023H203.537V28.4368H211.062V20.9023Z" fill="#E7EFF7"/>
<path opacity="0.2" d="M223.55 20.9023H216.025V28.4368H223.55V20.9023Z" fill="#E7EFF7"/>
<path opacity="0.2" d="M11.2359 8.43555H3.71094V15.97H11.2359V8.43555Z" fill="#E7EFF7"/>
<path opacity="0.2" d="M23.7262 8.43555H16.2012V15.97H23.7262V8.43555Z" fill="#E7EFF7"/>
<path opacity="0.2" d="M48.7027 8.43555H41.1777V15.97H48.7027V8.43555Z" fill="#E7EFF7"/>
<path opacity="0.2" d="M86.1695 8.43555H78.6445V15.97H86.1695V8.43555Z" fill="#E7EFF7"/>
<path opacity="0.2" d="M98.6578 8.43555H91.1328V15.97H98.6578V8.43555Z" fill="#E7EFF7"/>
<path opacity="0.2" d="M223.55 8.43555H216.025V15.97H223.55V8.43555Z" fill="#E7EFF7"/>
<path opacity="0.1" d="M236.039 8.43555H228.514V15.97H236.039V8.43555Z" fill="#E7EFF7"/>
<path opacity="0.2" d="M23.7242 -4.03125H16.1992V3.50319H23.7242V-4.03125Z" fill="#E7EFF7"/>
<path opacity="0.2" d="M36.2144 -4.03125H28.6895V3.50319H36.2144V-4.03125Z" fill="#E7EFF7"/>
<path opacity="0.2" d="M98.6578 -4.03125H91.1328V3.50319H98.6578V-4.03125Z" fill="#E7EFF7"/>
<path opacity="0.2" d="M111.146 -4.03125H103.621V3.50319H111.146V-4.03125Z" fill="#E7EFF7"/>
<path opacity="0.2" d="M136.123 -4.03125H128.598V3.50319H136.123V-4.03125Z" fill="#E7EFF7"/>
<path opacity="0.1" d="M148.619 -4.03125H141.094V3.50319H148.619V-4.03125Z" fill="#E7EFF7"/>
<path opacity="0.1" d="M186.084 -4.03125H178.559V3.50319H186.084V-4.03125Z" fill="#E7EFF7"/>
<path opacity="0.2" d="M211.062 -4.03125H203.537V3.50319H211.062V-4.03125Z" fill="#E7EFF7"/>
<path opacity="0.1" d="M236.039 -4.03125H228.514V3.50319H236.039V-4.03125Z" fill="#E7EFF7"/>
<path opacity="0.65" d="M261.003 182.966H253.479V190.5H261.003V182.966Z" fill="#E7EFF7"/>
<path opacity="0.65" d="M298.47 182.966H290.945V190.5H298.47V182.966Z" fill="#E7EFF7"/>
<path opacity="0.65" d="M310.959 182.966H303.434V190.5H310.959V182.966Z" fill="#E7EFF7"/>
<path opacity="0.65" d="M323.447 182.966H315.922V190.5H323.447V182.966Z" fill="#E7EFF7"/>
<path opacity="0.65" d="M348.423 182.966H340.898V190.5H348.423V182.966Z" fill="#E7EFF7"/>
<path opacity="0.65" d="M360.912 182.966H353.387V190.5H360.912V182.966Z" fill="#E7EFF7"/>
<path opacity="0.65" d="M261.003 170.499H253.479V178.033H261.003V170.499Z" fill="#E7EFF7"/>
<path opacity="0.65" d="M273.492 170.499H265.967V178.033H273.492V170.499Z" fill="#E7EFF7"/>
<path opacity="0.65" d="M298.47 170.499H290.945V178.033H298.47V170.499Z" fill="#E7EFF7"/>
<path opacity="0.65" d="M310.959 170.499H303.434V178.033H310.959V170.499Z" fill="#E7EFF7"/>
<path opacity="0.65" d="M323.447 170.499H315.922V178.033H323.447V170.499Z" fill="#E7EFF7"/>
<path opacity="0.65" d="M335.935 170.499H328.41V178.033H335.935V170.499Z" fill="#E7EFF7"/>
<path opacity="0.65" d="M360.912 170.499H353.387V178.033H360.912V170.499Z" fill="#E7EFF7"/>
<path opacity="0.65" d="M373.402 170.499H365.877V178.033H373.402V170.499Z" fill="#E7EFF7"/>
<path opacity="0.5" d="M261.003 158.033H253.479V165.568H261.003V158.033Z" fill="#E7EFF7"/>
<path opacity="0.5" d="M273.492 158.033H265.967V165.568H273.492V158.033Z" fill="#E7EFF7"/>
<path opacity="0.5" d="M285.982 158.033H278.457V165.568H285.982V158.033Z" fill="#E7EFF7"/>
<path opacity="0.5" d="M310.959 158.033H303.434V165.568H310.959V158.033Z" fill="#E7EFF7"/>
<path opacity="0.5" d="M323.447 158.033H315.922V165.568H323.447V158.033Z" fill="#E7EFF7"/>
<path opacity="0.5" d="M335.935 158.033H328.41V165.568H335.935V158.033Z" fill="#E7EFF7"/>
<path opacity="0.5" d="M360.912 158.033H353.387V165.568H360.912V158.033Z" fill="#E7EFF7"/>
<path opacity="0.5" d="M273.492 145.566H265.967V153.101H273.492V145.566Z" fill="#E7EFF7"/>
<path opacity="0.5" d="M310.959 145.566H303.434V153.101H310.959V145.566Z" fill="#E7EFF7"/>
<path opacity="0.5" d="M323.447 145.566H315.922V153.101H323.447V145.566Z" fill="#E7EFF7"/>
<path opacity="0.5" d="M335.935 145.566H328.41V153.101H335.935V145.566Z" fill="#E7EFF7"/>
<path opacity="0.5" d="M360.912 145.566H353.387V153.101H360.912V145.566Z" fill="#E7EFF7"/>
<path opacity="0.5" d="M373.402 145.566H365.877V153.101H373.402V145.566Z" fill="#E7EFF7"/>
<path opacity="0.5" d="M261.003 133.1H253.479V140.634H261.003V133.1Z" fill="#E7EFF7"/>
<path opacity="0.5" d="M273.492 133.1H265.967V140.634H273.492V133.1Z" fill="#E7EFF7"/>
<path opacity="0.5" d="M323.447 133.1H315.922V140.634H323.447V133.1Z" fill="#E7EFF7"/>
<path opacity="0.5" d="M360.912 133.1H353.387V140.634H360.912V133.1Z" fill="#E7EFF7"/>
<path opacity="0.5" d="M373.402 133.1H365.877V140.634H373.402V133.1Z" fill="#E7EFF7"/>
<path opacity="0.45" d="M310.959 120.64H303.434V128.174H310.959V120.64Z" fill="#E7EFF7"/>
<path opacity="0.45" d="M323.447 120.64H315.922V128.174H323.447V120.64Z" fill="#E7EFF7"/>
<path opacity="0.45" d="M360.912 120.64H353.387V128.174H360.912V120.64Z" fill="#E7EFF7"/>
<path opacity="0.4" d="M261.003 108.167H253.479V115.701H261.003V108.167Z" fill="#E7EFF7"/>
<path opacity="0.4" d="M273.492 108.167H265.967V115.701H273.492V108.167Z" fill="#E7EFF7"/>
<path opacity="0.4" d="M310.959 108.174H303.434V115.708H310.959V108.174Z" fill="#E7EFF7"/>
<path opacity="0.4" d="M323.447 108.174H315.922V115.708H323.447V108.174Z" fill="#E7EFF7"/>
<path opacity="0.4" d="M335.935 108.174H328.41V115.708H335.935V108.174Z" fill="#E7EFF7"/>
<path opacity="0.4" d="M360.912 108.174H353.387V115.708H360.912V108.174Z" fill="#E7EFF7"/>
<path opacity="0.4" d="M373.402 108.174H365.877V115.708H373.402V108.174Z" fill="#E7EFF7"/>
<path opacity="0.4" d="M261.003 95.7002H253.479V103.235H261.003V95.7002Z" fill="#E7EFF7"/>
<path opacity="0.4" d="M285.982 95.7002H278.457V103.235H285.982V95.7002Z" fill="#E7EFF7"/>
<path opacity="0.4" d="M310.959 95.707H303.434V103.241H310.959V95.707Z" fill="#E7EFF7"/>
<path opacity="0.4" d="M335.935 95.707H328.41V103.241H335.935V95.707Z" fill="#E7EFF7"/>
<path opacity="0.4" d="M360.912 95.707H353.387V103.241H360.912V95.707Z" fill="#E7EFF7"/>
<path opacity="0.4" d="M373.402 95.707H365.877V103.241H373.402V95.707Z" fill="#E7EFF7"/>
<path opacity="0.4" d="M385.89 95.7129H378.365V103.247H385.89V95.7129Z" fill="#E7EFF7"/>
<path opacity="0.3" d="M261.003 83.2341H253.479V90.7686H261.003V83.2341Z" fill="#E7EFF7"/>
<path opacity="0.3" d="M298.47 83.2344H290.945V90.7688H298.47V83.2344Z" fill="#E7EFF7"/>
<path opacity="0.3" d="M310.959 83.2344H303.434V90.7688H310.959V83.2344Z" fill="#E7EFF7"/>
<path opacity="0.3" d="M335.935 83.2344H328.41V90.7688H335.935V83.2344Z" fill="#E7EFF7"/>
<path opacity="0.3" d="M385.89 83.2341H378.365V90.7686H385.89V83.2341Z" fill="#E7EFF7"/>
<path opacity="0.3" d="M285.98 70.7676H278.455V78.302H285.98V70.7676Z" fill="#E7EFF7"/>
<path opacity="0.3" d="M310.959 70.7676H303.434V78.302H310.959V70.7676Z" fill="#E7EFF7"/>
<path opacity="0.3" d="M323.447 70.7678H315.922V78.3023H323.447V70.7678Z" fill="#E7EFF7"/>
<path opacity="0.3" d="M335.935 70.7676H328.41V78.302H335.935V70.7676Z" fill="#E7EFF7"/>
<path opacity="0.3" d="M360.912 70.7676H353.387V78.302H360.912V70.7676Z" fill="#E7EFF7"/>
<path opacity="0.3" d="M373.402 70.7676H365.877V78.302H373.402V70.7676Z" fill="#E7EFF7"/>
<path opacity="0.3" d="M385.89 70.7678H378.365V78.3023H385.89V70.7678Z" fill="#E7EFF7"/>
<path opacity="0.25" d="M261.003 58.3018H253.479V65.8362H261.003V58.3018Z" fill="#E7EFF7"/>
<path opacity="0.25" d="M285.982 58.3018H278.457V65.8362H285.982V58.3018Z" fill="#E7EFF7"/>
<path opacity="0.25" d="M298.47 58.3018H290.945V65.8362H298.47V58.3018Z" fill="#E7EFF7"/>
<path opacity="0.25" d="M310.959 58.3018H303.434V65.8362H310.959V58.3018Z" fill="#E7EFF7"/>
<path opacity="0.25" d="M323.447 58.3018H315.922V65.8362H323.447V58.3018Z" fill="#E7EFF7"/>
<path opacity="0.25" d="M348.423 58.3018H340.898V65.8362H348.423V58.3018Z" fill="#E7EFF7"/>
<path opacity="0.25" d="M385.89 58.3018H378.365V65.8362H385.89V58.3018Z" fill="#E7EFF7"/>
<path opacity="0.25" d="M261.003 45.835H253.479V53.3694H261.003V45.835Z" fill="#E7EFF7"/>
<path opacity="0.25" d="M285.98 45.835H278.455V53.3694H285.98V45.835Z" fill="#E7EFF7"/>
<path opacity="0.25" d="M323.447 45.835H315.922V53.3694H323.447V45.835Z" fill="#E7EFF7"/>
<path opacity="0.25" d="M348.423 45.835H340.898V53.3694H348.423V45.835Z" fill="#E7EFF7"/>
<path opacity="0.25" d="M360.912 45.835H353.387V53.3694H360.912V45.835Z" fill="#E7EFF7"/>
<path opacity="0.25" d="M261.003 33.3682H253.479V40.9026H261.003V33.3682Z" fill="#E7EFF7"/>
<path opacity="0.25" d="M298.47 33.3682H290.945V40.9026H298.47V33.3682Z" fill="#E7EFF7"/>
<path opacity="0.25" d="M310.959 33.3682H303.434V40.9026H310.959V33.3682Z" fill="#E7EFF7"/>
<path opacity="0.25" d="M385.89 33.3682H378.365V40.9026H385.89V33.3682Z" fill="#E7EFF7"/>
<path opacity="0.2" d="M298.47 20.9023H290.945V28.4368H298.47V20.9023Z" fill="#E7EFF7"/>
<path opacity="0.2" d="M310.959 20.9023H303.434V28.4368H310.959V20.9023Z" fill="#E7EFF7"/>
<path opacity="0.2" d="M323.447 20.9023H315.922V28.4368H323.447V20.9023Z" fill="#E7EFF7"/>
<path opacity="0.2" d="M348.423 20.9023H340.898V28.4368H348.423V20.9023Z" fill="#E7EFF7"/>
<path opacity="0.2" d="M385.89 20.9023H378.365V28.4368H385.89V20.9023Z" fill="#E7EFF7"/>
<path opacity="0.2" d="M261.003 8.43555H253.479V15.97H261.003V8.43555Z" fill="#E7EFF7"/>
<path opacity="0.2" d="M335.935 8.43555H328.41V15.97H335.935V8.43555Z" fill="#E7EFF7"/>
<path opacity="0.2" d="M360.912 8.43555H353.387V15.97H360.912V8.43555Z" fill="#E7EFF7"/>
<path opacity="0.2" d="M373.402 8.43555H365.877V15.97H373.402V8.43555Z" fill="#E7EFF7"/>
<path opacity="0.1" d="M298.47 -4.03125H290.945V3.50319H298.47V-4.03125Z" fill="#E7EFF7"/>
<path opacity="0.2" d="M310.959 -4.03125H303.434V3.50319H310.959V-4.03125Z" fill="#E7EFF7"/>
<path opacity="0.2" d="M323.447 -4.03125H315.922V3.50319H323.447V-4.03125Z" fill="#E7EFF7"/>
<path opacity="0.2" d="M360.912 -4.03125H353.387V3.50319H360.912V-4.03125Z" fill="#E7EFF7"/>
</g>
</g>
</g>
<rect x="0.5" y="0.5" width="381" height="189" rx="94.5" stroke="url(#paint1_linear_36048_13516)"/>
<defs>
<radialGradient id="paint0_radial_36048_13516" cx="0" cy="0" r="1" gradientUnits="userSpaceOnUse" gradientTransform="translate(190.501 190) rotate(-90) scale(95 177.799)">
<stop stop-color="#F5F8FF"/>
<stop offset="1" stop-color="white"/>
</radialGradient>
<linearGradient id="paint1_linear_36048_13516" x1="0" y1="190" x2="312.615" y2="-80.259" gradientUnits="userSpaceOnUse">
<stop stop-color="#DFE8F6"/>
<stop offset="1" stop-color="#D8E7FF"/>
</linearGradient>
<clipPath id="clip0_36048_13516">
<rect width="382" height="190" rx="95" fill="white"/>
</clipPath>
<clipPath id="clip1_36048_13516">
<rect width="1144" height="394" fill="white" transform="translate(-321 -203.5)"/>
</clipPath>
</defs>
</svg>
