<svg width="244" height="189" viewBox="0 0 244 189" fill="none" xmlns="http://www.w3.org/2000/svg">
<g clip-path="url(#clip0_36814_4535)">
<rect width="244" height="189" rx="94.5" fill="url(#paint0_radial_36814_4535)" fill-opacity="0.5"/>
<g clip-path="url(#clip1_36814_4535)">
<mask id="mask0_36814_4535" style="mask-type:luminance" maskUnits="userSpaceOnUse" x="-322" y="-647" width="1145" height="839">
<path d="M-321.008 191.285L822.992 191.285L822.992 -646.581L-321.008 -646.581V191.285Z" fill="white"/>
</mask>
<g mask="url(#mask0_36814_4535)">
<path opacity="0.65" d="M11.2359 181.466H3.71094V189H11.2359V181.466Z" fill="#E7EFF7" fill-opacity="0.3"/>
<path opacity="0.65" d="M36.2125 181.466H28.6875V189H36.2125V181.466Z" fill="#E7EFF7" fill-opacity="0.3"/>
<path opacity="0.65" d="M61.189 181.466H53.6641V189H61.189V181.466Z" fill="#E7EFF7" fill-opacity="0.3"/>
<path opacity="0.65" d="M86.1695 181.466H78.6445V189H86.1695V181.466Z" fill="#E7EFF7" fill-opacity="0.3"/>
<path opacity="0.65" d="M98.6578 181.466H91.1328V189H98.6578V181.466Z" fill="#E7EFF7" fill-opacity="0.3"/>
<path opacity="0.65" d="M148.619 181.466H141.094V189H148.619V181.466Z" fill="#E7EFF7" fill-opacity="0.3"/>
<path opacity="0.65" d="M161.107 181.466H153.582V189H161.107V181.466Z" fill="#E7EFF7" fill-opacity="0.3"/>
<path opacity="0.65" d="M173.595 181.466H166.07V189H173.595V181.466Z" fill="#E7EFF7" fill-opacity="0.3"/>
<path opacity="0.65" d="M186.084 181.466H178.559V189H186.084V181.466Z" fill="#E7EFF7" fill-opacity="0.3"/>
<path opacity="0.65" d="M198.572 181.466H191.047V189H198.572V181.466Z" fill="#E7EFF7" fill-opacity="0.3"/>
<path opacity="0.65" d="M211.064 181.466H203.539V189H211.064V181.466Z" fill="#E7EFF7" fill-opacity="0.3"/>
<path opacity="0.65" d="M223.548 181.466H216.023V189H223.548V181.466Z" fill="#E7EFF7" fill-opacity="0.3"/>
<path opacity="0.65" d="M23.7242 168.999H16.1992V176.533H23.7242V168.999Z" fill="#E7EFF7" fill-opacity="0.3"/>
<path opacity="0.65" d="M36.2125 168.999H28.6875V176.533H36.2125V168.999Z" fill="#E7EFF7" fill-opacity="0.3"/>
<path opacity="0.65" d="M48.7008 168.999H41.1758V176.533H48.7008V168.999Z" fill="#E7EFF7" fill-opacity="0.3"/>
<path opacity="0.65" d="M86.1695 168.999H78.6445V176.533H86.1695V168.999Z" fill="#E7EFF7" fill-opacity="0.3"/>
<path opacity="0.65" d="M148.619 168.999H141.094V176.533H148.619V168.999Z" fill="#E7EFF7" fill-opacity="0.3"/>
<path opacity="0.65" d="M161.107 168.999H153.582V176.533H161.107V168.999Z" fill="#E7EFF7" fill-opacity="0.3"/>
<path opacity="0.65" d="M173.595 168.999H166.07V176.533H173.595V168.999Z" fill="#E7EFF7" fill-opacity="0.3"/>
<path opacity="0.65" d="M186.084 168.999H178.559V176.533H186.084V168.999Z" fill="#E7EFF7" fill-opacity="0.3"/>
<path opacity="0.65" d="M223.548 168.999H216.023V176.533H223.548V168.999Z" fill="#E7EFF7" fill-opacity="0.3"/>
<path opacity="0.5" d="M11.2359 156.533H3.71094V164.068H11.2359V156.533Z" fill="#E7EFF7" fill-opacity="0.3"/>
<path opacity="0.5" d="M48.7047 156.533H41.1797V164.068H48.7047V156.533Z" fill="#E7EFF7" fill-opacity="0.3"/>
<path opacity="0.5" d="M61.189 156.533H53.6641V164.068H61.189V156.533Z" fill="#E7EFF7" fill-opacity="0.3"/>
<path opacity="0.5" d="M86.1695 156.533H78.6445V164.068H86.1695V156.533Z" fill="#E7EFF7" fill-opacity="0.3"/>
<path opacity="0.5" d="M98.6578 156.533H91.1328V164.068H98.6578V156.533Z" fill="#E7EFF7" fill-opacity="0.3"/>
<path opacity="0.5" d="M111.146 156.533H103.621V164.068H111.146V156.533Z" fill="#E7EFF7" fill-opacity="0.3"/>
<path opacity="0.5" d="M136.123 156.533H128.598V164.068H136.123V156.533Z" fill="#E7EFF7" fill-opacity="0.3"/>
<path opacity="0.5" d="M148.619 156.533H141.094V164.068H148.619V156.533Z" fill="#E7EFF7" fill-opacity="0.3"/>
<path opacity="0.5" d="M173.595 156.533H166.07V164.068H173.595V156.533Z" fill="#E7EFF7" fill-opacity="0.3"/>
<path opacity="0.5" d="M186.084 156.533H178.559V164.068H186.084V156.533Z" fill="#E7EFF7" fill-opacity="0.3"/>
<path opacity="0.5" d="M211.064 156.533H203.539V164.068H211.064V156.533Z" fill="#E7EFF7" fill-opacity="0.3"/>
<path opacity="0.5" d="M248.529 156.533H241.004V164.068H248.529V156.533Z" fill="#E7EFF7" fill-opacity="0.3"/>
<path opacity="0.5" d="M11.2359 144.066H3.71094V151.601H11.2359V144.066Z" fill="#E7EFF7" fill-opacity="0.3"/>
<path opacity="0.5" d="M23.7242 144.066H16.1992V151.601H23.7242V144.066Z" fill="#E7EFF7" fill-opacity="0.3"/>
<path opacity="0.5" d="M48.7008 144.066H41.1758V151.601H48.7008V144.066Z" fill="#E7EFF7" fill-opacity="0.3"/>
<path opacity="0.5" d="M61.189 144.066H53.6641V151.601H61.189V144.066Z" fill="#E7EFF7" fill-opacity="0.3"/>
<path opacity="0.5" d="M86.1695 144.066H78.6445V151.601H86.1695V144.066Z" fill="#E7EFF7" fill-opacity="0.3"/>
<path opacity="0.5" d="M98.6578 144.066H91.1328V151.601H98.6578V144.066Z" fill="#E7EFF7" fill-opacity="0.3"/>
<path opacity="0.5" d="M111.146 144.066H103.621V151.601H111.146V144.066Z" fill="#E7EFF7" fill-opacity="0.3"/>
<path opacity="0.5" d="M123.634 144.066H116.109V151.601H123.634V144.066Z" fill="#E7EFF7" fill-opacity="0.3"/>
<path opacity="0.5" d="M148.619 144.066H141.094V151.601H148.619V144.066Z" fill="#E7EFF7" fill-opacity="0.3"/>
<path opacity="0.5" d="M161.107 144.066H153.582V151.601H161.107V144.066Z" fill="#E7EFF7" fill-opacity="0.3"/>
<path opacity="0.5" d="M173.595 144.066H166.07V151.601H173.595V144.066Z" fill="#E7EFF7" fill-opacity="0.3"/>
<path opacity="0.5" d="M186.084 144.066H178.559V151.601H186.084V144.066Z" fill="#E7EFF7" fill-opacity="0.3"/>
<path opacity="0.5" d="M211.064 144.066H203.539V151.601H211.064V144.066Z" fill="#E7EFF7" fill-opacity="0.3"/>
<path opacity="0.5" d="M223.548 144.066H216.023V151.601H223.548V144.066Z" fill="#E7EFF7" fill-opacity="0.3"/>
<path opacity="0.5" d="M236.041 144.066H228.516V151.601H236.041V144.066Z" fill="#E7EFF7" fill-opacity="0.3"/>
<path opacity="0.5" d="M23.7242 131.6H16.1992V139.134H23.7242V131.6Z" fill="#E7EFF7" fill-opacity="0.3"/>
<path opacity="0.5" d="M36.2125 131.6H28.6875V139.134H36.2125V131.6Z" fill="#E7EFF7" fill-opacity="0.3"/>
<path opacity="0.5" d="M48.7047 131.6H41.1797V139.134H48.7047V131.6Z" fill="#E7EFF7" fill-opacity="0.3"/>
<path opacity="0.5" d="M61.189 131.6H53.6641V139.134H61.189V131.6Z" fill="#E7EFF7" fill-opacity="0.3"/>
<path opacity="0.5" d="M86.1695 131.6H78.6445V139.134H86.1695V131.6Z" fill="#E7EFF7" fill-opacity="0.3"/>
<path opacity="0.5" d="M98.6578 131.6H91.1328V139.134H98.6578V131.6Z" fill="#E7EFF7" fill-opacity="0.3"/>
<path opacity="0.5" d="M111.146 131.6H103.621V139.134H111.146V131.6Z" fill="#E7EFF7" fill-opacity="0.3"/>
<path opacity="0.5" d="M136.123 131.6H128.598V139.134H136.123V131.6Z" fill="#E7EFF7" fill-opacity="0.3"/>
<path opacity="0.5" d="M161.107 131.6H153.582V139.134H161.107V131.6Z" fill="#E7EFF7" fill-opacity="0.3"/>
<path opacity="0.5" d="M173.595 131.6H166.07V139.134H173.595V131.6Z" fill="#E7EFF7" fill-opacity="0.3"/>
<path opacity="0.5" d="M198.572 131.6H191.047V139.134H198.572V131.6Z" fill="#E7EFF7" fill-opacity="0.3"/>
<path opacity="0.5" d="M211.064 131.6H203.539V139.134H211.064V131.6Z" fill="#E7EFF7" fill-opacity="0.3"/>
<path opacity="0.5" d="M223.548 131.6H216.023V139.134H223.548V131.6Z" fill="#E7EFF7" fill-opacity="0.3"/>
<path opacity="0.5" d="M236.041 131.6H228.516V139.134H236.041V131.6Z" fill="#E7EFF7" fill-opacity="0.3"/>
<path opacity="0.5" d="M248.529 131.6H241.004V139.134H248.529V131.6Z" fill="#E7EFF7" fill-opacity="0.3"/>
<path opacity="0.45" d="M23.7242 119.121H16.1992V126.656H23.7242V119.121Z" fill="#E7EFF7" fill-opacity="0.3"/>
<path opacity="0.45" d="M48.7047 119.121H41.1797V126.656H48.7047V119.121Z" fill="#E7EFF7" fill-opacity="0.3"/>
<path opacity="0.45" d="M86.1695 119.121H78.6445V126.656H86.1695V119.121Z" fill="#E7EFF7" fill-opacity="0.3"/>
<path opacity="0.45" d="M111.146 119.127H103.621V126.661H111.146V119.127Z" fill="#E7EFF7" fill-opacity="0.3"/>
<path opacity="0.45" d="M123.634 119.127H116.109V126.661H123.634V119.127Z" fill="#E7EFF7" fill-opacity="0.3"/>
<path opacity="0.45" d="M136.123 119.127H128.598V126.661H136.123V119.127Z" fill="#E7EFF7" fill-opacity="0.3"/>
<path opacity="0.45" d="M148.611 119.127H141.086V126.661H148.611V119.127Z" fill="#E7EFF7" fill-opacity="0.3"/>
<path opacity="0.45" d="M161.103 119.127H153.578V126.661H161.103V119.127Z" fill="#E7EFF7" fill-opacity="0.3"/>
<path opacity="0.45" d="M173.587 119.127H166.062V126.661H173.587V119.127Z" fill="#E7EFF7" fill-opacity="0.3"/>
<path opacity="0.45" d="M198.572 119.134H191.047V126.668H198.572V119.134Z" fill="#E7EFF7" fill-opacity="0.3"/>
<path opacity="0.45" d="M211.064 119.134H203.539V126.668H211.064V119.134Z" fill="#E7EFF7" fill-opacity="0.3"/>
<path opacity="0.45" d="M248.529 119.134H241.004V126.668H248.529V119.134Z" fill="#E7EFF7" fill-opacity="0.3"/>
<path opacity="0.4" d="M23.7242 106.654H16.1992V114.189H23.7242V106.654Z" fill="#E7EFF7" fill-opacity="0.3"/>
<path opacity="0.4" d="M36.2125 106.654H28.6875V114.189H36.2125V106.654Z" fill="#E7EFF7" fill-opacity="0.3"/>
<path opacity="0.4" d="M48.7008 106.654H41.1758V114.189H48.7008V106.654Z" fill="#E7EFF7" fill-opacity="0.3"/>
<path opacity="0.4" d="M61.189 106.654H53.6641V114.189H61.189V106.654Z" fill="#E7EFF7" fill-opacity="0.3"/>
<path opacity="0.4" d="M98.6578 106.654H91.1328V114.189H98.6578V106.654Z" fill="#E7EFF7" fill-opacity="0.3"/>
<path opacity="0.4" d="M111.146 106.661H103.621V114.196H111.146V106.661Z" fill="#E7EFF7" fill-opacity="0.3"/>
<path opacity="0.4" d="M123.634 106.661H116.109V114.196H123.634V106.661Z" fill="#E7EFF7" fill-opacity="0.3"/>
<path opacity="0.4" d="M136.123 106.661H128.598V114.196H136.123V106.661Z" fill="#E7EFF7" fill-opacity="0.3"/>
<path opacity="0.4" d="M148.619 106.661H141.094V114.196H148.619V106.661Z" fill="#E7EFF7" fill-opacity="0.3"/>
<path opacity="0.4" d="M161.107 106.661H153.582V114.196H161.107V106.661Z" fill="#E7EFF7" fill-opacity="0.3"/>
<path opacity="0.4" d="M198.572 106.661H191.047V114.196H198.572V106.661Z" fill="#E7EFF7" fill-opacity="0.3"/>
<path opacity="0.4" d="M211.064 106.667H203.539V114.201H211.064V106.667Z" fill="#E7EFF7" fill-opacity="0.3"/>
<path opacity="0.4" d="M223.548 106.667H216.023V114.201H223.548V106.667Z" fill="#E7EFF7" fill-opacity="0.3"/>
<path opacity="0.4" d="M236.041 106.667H228.516V114.201H236.041V106.667Z" fill="#E7EFF7" fill-opacity="0.3"/>
<path opacity="0.4" d="M248.529 106.667H241.004V114.201H248.529V106.667Z" fill="#E7EFF7" fill-opacity="0.3"/>
<path opacity="0.4" d="M23.7242 94.1875H16.1992V101.722H23.7242V94.1875Z" fill="#E7EFF7" fill-opacity="0.3"/>
<path opacity="0.4" d="M36.2125 94.1875H28.6875V101.722H36.2125V94.1875Z" fill="#E7EFF7" fill-opacity="0.3"/>
<path opacity="0.4" d="M61.189 94.1875H53.6641V101.722H61.189V94.1875Z" fill="#E7EFF7" fill-opacity="0.3"/>
<path opacity="0.4" d="M86.1695 94.1875H78.6445V101.722H86.1695V94.1875Z" fill="#E7EFF7" fill-opacity="0.3"/>
<path opacity="0.4" d="M98.6656 94.1875H91.1406V101.722H98.6656V94.1875Z" fill="#E7EFF7" fill-opacity="0.3"/>
<path opacity="0.4" d="M123.642 94.1943H116.117V101.729H123.642V94.1943Z" fill="#E7EFF7" fill-opacity="0.3"/>
<path opacity="0.4" d="M148.619 94.1943H141.094V101.729H148.619V94.1943Z" fill="#E7EFF7" fill-opacity="0.3"/>
<path opacity="0.4" d="M173.595 94.1943H166.07V101.729H173.595V94.1943Z" fill="#E7EFF7" fill-opacity="0.3"/>
<path opacity="0.4" d="M186.084 94.1943H178.559V101.729H186.084V94.1943Z" fill="#E7EFF7" fill-opacity="0.3"/>
<path opacity="0.4" d="M211.064 94.2002H203.539V101.735H211.064V94.2002Z" fill="#E7EFF7" fill-opacity="0.3"/>
<path opacity="0.4" d="M236.041 94.2002H228.516V101.735H236.041V94.2002Z" fill="#E7EFF7" fill-opacity="0.3"/>
<path opacity="0.4" d="M248.529 94.2002H241.004V101.735H248.529V94.2002Z" fill="#E7EFF7" fill-opacity="0.3"/>
<path opacity="0.3" d="M23.7242 81.7344H16.1992V89.2688H23.7242V81.7344Z" fill="#E7EFF7" fill-opacity="0.3"/>
<path opacity="0.3" d="M48.7008 81.7344H41.1758V89.2688H48.7008V81.7344Z" fill="#E7EFF7" fill-opacity="0.3"/>
<path opacity="0.3" d="M73.6812 81.7344H66.1562V89.2688H73.6812V81.7344Z" fill="#E7EFF7" fill-opacity="0.3"/>
<path opacity="0.3" d="M86.1695 81.7344H78.6445V89.2688H86.1695V81.7344Z" fill="#E7EFF7" fill-opacity="0.3"/>
<path opacity="0.3" d="M98.6578 81.7344H91.1328V89.2688H98.6578V81.7344Z" fill="#E7EFF7" fill-opacity="0.3"/>
<path opacity="0.3" d="M123.634 81.7344H116.109V89.2688H123.634V81.7344Z" fill="#E7EFF7" fill-opacity="0.3"/>
<path opacity="0.3" d="M148.619 81.7344H141.094V89.2688H148.619V81.7344Z" fill="#E7EFF7" fill-opacity="0.3"/>
<path opacity="0.3" d="M161.107 81.7344H153.582V89.2688H161.107V81.7344Z" fill="#E7EFF7" fill-opacity="0.3"/>
<path opacity="0.3" d="M211.064 81.7344H203.539V89.2688H211.064V81.7344Z" fill="#E7EFF7" fill-opacity="0.3"/>
<path opacity="0.3" d="M11.2359 69.2676H3.71094V76.802H11.2359V69.2676Z" fill="#E7EFF7" fill-opacity="0.3"/>
<path opacity="0.3" d="M23.7242 69.2676H16.1992V76.802H23.7242V69.2676Z" fill="#E7EFF7" fill-opacity="0.3"/>
<path opacity="0.3" d="M48.7008 69.2676H41.1758V76.802H48.7008V69.2676Z" fill="#E7EFF7" fill-opacity="0.3"/>
<path opacity="0.3" d="M98.6578 69.2676H91.1328V76.802H98.6578V69.2676Z" fill="#E7EFF7" fill-opacity="0.3"/>
<path opacity="0.3" d="M236.041 69.2676H228.516V76.802H236.041V69.2676Z" fill="#E7EFF7" fill-opacity="0.3"/>
<path opacity="0.3" d="M248.529 69.2676H241.004V76.802H248.529V69.2676Z" fill="#E7EFF7" fill-opacity="0.3"/>
<path opacity="0.25" d="M23.7242 56.8018H16.1992V64.3362H23.7242V56.8018Z" fill="#E7EFF7" fill-opacity="0.3"/>
<path opacity="0.25" d="M48.7047 56.8018H41.1797V64.3362H48.7047V56.8018Z" fill="#E7EFF7" fill-opacity="0.3"/>
<path opacity="0.25" d="M86.1695 56.8018H78.6445V64.3362H86.1695V56.8018Z" fill="#E7EFF7" fill-opacity="0.3"/>
<path opacity="0.25" d="M98.6578 56.8018H91.1328V64.3362H98.6578V56.8018Z" fill="#E7EFF7" fill-opacity="0.3"/>
<path opacity="0.25" d="M123.634 56.8018H116.109V64.3362H123.634V56.8018Z" fill="#E7EFF7" fill-opacity="0.3"/>
<path opacity="0.25" d="M136.123 56.8018H128.598V64.3362H136.123V56.8018Z" fill="#E7EFF7" fill-opacity="0.3"/>
<path opacity="0.25" d="M186.084 56.8018H178.559V64.3362H186.084V56.8018Z" fill="#E7EFF7" fill-opacity="0.3"/>
<path opacity="0.25" d="M248.529 56.8018H241.004V64.3362H248.529V56.8018Z" fill="#E7EFF7" fill-opacity="0.3"/>
<path opacity="0.25" d="M11.2359 44.335H3.71094V51.8694H11.2359V44.335Z" fill="#E7EFF7" fill-opacity="0.3"/>
<path opacity="0.25" d="M23.7242 44.335H16.1992V51.8694H23.7242V44.335Z" fill="#E7EFF7" fill-opacity="0.3"/>
<path opacity="0.25" d="M36.2125 44.335H28.6875V51.8694H36.2125V44.335Z" fill="#E7EFF7" fill-opacity="0.3"/>
<path opacity="0.25" d="M73.6812 44.335H66.1562V51.8694H73.6812V44.335Z" fill="#E7EFF7" fill-opacity="0.3"/>
<path opacity="0.25" d="M86.1695 44.335H78.6445V51.8694H86.1695V44.335Z" fill="#E7EFF7" fill-opacity="0.3"/>
<path opacity="0.25" d="M123.634 44.335H116.109V51.8694H123.634V44.335Z" fill="#E7EFF7" fill-opacity="0.3"/>
<path opacity="0.25" d="M148.619 44.335H141.094V51.8694H148.619V44.335Z" fill="#E7EFF7" fill-opacity="0.3"/>
<path opacity="0.25" d="M198.572 44.335H191.047V51.8694H198.572V44.335Z" fill="#E7EFF7" fill-opacity="0.3"/>
<path opacity="0.25" d="M236.041 44.335H228.516V51.8694H236.041V44.335Z" fill="#E7EFF7" fill-opacity="0.3"/>
<path opacity="0.25" d="M23.7242 31.8682H16.1992V39.4026H23.7242V31.8682Z" fill="#E7EFF7" fill-opacity="0.3"/>
<path opacity="0.25" d="M36.2125 31.8682H28.6875V39.4026H36.2125V31.8682Z" fill="#E7EFF7" fill-opacity="0.3"/>
<path opacity="0.25" d="M98.6578 31.8682H91.1328V39.4026H98.6578V31.8682Z" fill="#E7EFF7" fill-opacity="0.3"/>
<path opacity="0.25" d="M148.619 31.8682H141.094V39.4026H148.619V31.8682Z" fill="#E7EFF7" fill-opacity="0.3"/>
<path opacity="0.25" d="M198.572 31.8682H191.047V39.4026H198.572V31.8682Z" fill="#E7EFF7" fill-opacity="0.3"/>
<path opacity="0.2" d="M11.2359 19.4023H3.71094V26.9368H11.2359V19.4023Z" fill="#E7EFF7" fill-opacity="0.3"/>
<path opacity="0.2" d="M61.189 19.4023H53.6641V26.9368H61.189V19.4023Z" fill="#E7EFF7" fill-opacity="0.3"/>
<path opacity="0.2" d="M86.1695 19.4023H78.6445V26.9368H86.1695V19.4023Z" fill="#E7EFF7" fill-opacity="0.3"/>
<path opacity="0.2" d="M123.634 19.4023H116.109V26.9368H123.634V19.4023Z" fill="#E7EFF7" fill-opacity="0.3"/>
<path opacity="0.2" d="M136.123 19.4023H128.598V26.9368H136.123V19.4023Z" fill="#E7EFF7" fill-opacity="0.3"/>
<path opacity="0.2" d="M186.084 19.4023H178.559V26.9368H186.084V19.4023Z" fill="#E7EFF7" fill-opacity="0.3"/>
<path opacity="0.2" d="M198.572 19.4023H191.047V26.9368H198.572V19.4023Z" fill="#E7EFF7" fill-opacity="0.3"/>
<path opacity="0.2" d="M211.064 19.4023H203.539V26.9368H211.064V19.4023Z" fill="#E7EFF7" fill-opacity="0.3"/>
<path opacity="0.2" d="M223.548 19.4023H216.023V26.9368H223.548V19.4023Z" fill="#E7EFF7" fill-opacity="0.3"/>
<path opacity="0.2" d="M11.2359 6.93555H3.71094V14.47H11.2359V6.93555Z" fill="#E7EFF7" fill-opacity="0.3"/>
<path opacity="0.2" d="M23.7242 6.93555H16.1992V14.47H23.7242V6.93555Z" fill="#E7EFF7" fill-opacity="0.3"/>
<path opacity="0.2" d="M48.7008 6.93555H41.1758V14.47H48.7008V6.93555Z" fill="#E7EFF7" fill-opacity="0.3"/>
<path opacity="0.2" d="M86.1695 6.93555H78.6445V14.47H86.1695V6.93555Z" fill="#E7EFF7" fill-opacity="0.3"/>
<path opacity="0.2" d="M98.6578 6.93555H91.1328V14.47H98.6578V6.93555Z" fill="#E7EFF7" fill-opacity="0.3"/>
<path opacity="0.2" d="M223.548 6.93555H216.023V14.47H223.548V6.93555Z" fill="#E7EFF7" fill-opacity="0.3"/>
<path opacity="0.1" d="M236.041 6.93555H228.516V14.47H236.041V6.93555Z" fill="#E7EFF7" fill-opacity="0.3"/>
<path opacity="0.2" d="M23.7242 -5.53125H16.1992V2.00319H23.7242V-5.53125Z" fill="#E7EFF7" fill-opacity="0.3"/>
<path opacity="0.2" d="M36.2125 -5.53125H28.6875V2.00319H36.2125V-5.53125Z" fill="#E7EFF7" fill-opacity="0.3"/>
<path opacity="0.2" d="M98.6578 -5.53125H91.1328V2.00319H98.6578V-5.53125Z" fill="#E7EFF7" fill-opacity="0.3"/>
<path opacity="0.2" d="M111.146 -5.53125H103.621V2.00319H111.146V-5.53125Z" fill="#E7EFF7" fill-opacity="0.3"/>
<path opacity="0.2" d="M136.123 -5.53125H128.598V2.00319H136.123V-5.53125Z" fill="#E7EFF7" fill-opacity="0.3"/>
<path opacity="0.1" d="M148.619 -5.53125H141.094V2.00319H148.619V-5.53125Z" fill="#E7EFF7" fill-opacity="0.3"/>
<path opacity="0.1" d="M186.084 -5.53125H178.559V2.00319H186.084V-5.53125Z" fill="#E7EFF7" fill-opacity="0.3"/>
<path opacity="0.2" d="M211.064 -5.53125H203.539V2.00319H211.064V-5.53125Z" fill="#E7EFF7" fill-opacity="0.3"/>
<path opacity="0.1" d="M236.041 -5.53125H228.516V2.00319H236.041V-5.53125Z" fill="#E7EFF7" fill-opacity="0.3"/>
</g>
</g>
</g>
<defs>
<radialGradient id="paint0_radial_36814_4535" cx="0" cy="0" r="1" gradientUnits="userSpaceOnUse" gradientTransform="translate(121.681 189) rotate(-90) scale(94.5 113.568)">
<stop stop-color="#F5F8FF"/>
<stop offset="1" stop-color="white"/>
</radialGradient>
<clipPath id="clip0_36814_4535">
<rect width="244" height="189" rx="94.5" fill="white"/>
</clipPath>
<clipPath id="clip1_36814_4535">
<rect width="1144" height="394" fill="white" transform="translate(-321 -205)"/>
</clipPath>
</defs>
</svg>
