<svg width="522" height="190" viewBox="0 0 522 190" fill="none" xmlns="http://www.w3.org/2000/svg">
<g clip-path="url(#clip0_36814_6554)">
<rect width="522" height="190" rx="95" fill="url(#paint0_radial_36814_6554)" fill-opacity="0.5"/>
<g clip-path="url(#clip1_36814_6554)">
<mask id="mask0_36814_6554" style="mask-type:luminance" maskUnits="userSpaceOnUse" x="-112" y="-646" width="1145" height="839">
<path d="M-111.008 192.285L1032.99 192.285V-645.581L-111.008 -645.581V192.285Z" fill="white"/>
</mask>
<g mask="url(#mask0_36814_6554)">
<path opacity="0.65" d="M8.93123 182.466H1.40625V190H8.93123V182.466Z" fill="#E7EFF7" fill-opacity="0.3"/>
<path opacity="0.65" d="M21.4156 182.466H13.8906V190H21.4156V182.466Z" fill="#E7EFF7" fill-opacity="0.3"/>
<path opacity="0.65" d="M33.9078 182.466H26.3828V190H33.9078V182.466Z" fill="#E7EFF7" fill-opacity="0.3"/>
<path opacity="0.65" d="M58.8843 182.466H51.3594V190H58.8843V182.466Z" fill="#E7EFF7" fill-opacity="0.3"/>
<path opacity="0.65" d="M71.3727 182.466H63.8477V190H71.3727V182.466Z" fill="#E7EFF7" fill-opacity="0.3"/>
<path opacity="0.65" d="M83.8609 182.466H76.3359V190H83.8609V182.466Z" fill="#E7EFF7" fill-opacity="0.3"/>
<path opacity="0.65" d="M133.814 182.466H126.289V190H133.814V182.466Z" fill="#E7EFF7" fill-opacity="0.3"/>
<path opacity="0.65" d="M146.306 182.466H138.781V190H146.306V182.466Z" fill="#E7EFF7" fill-opacity="0.3"/>
<path opacity="0.65" d="M158.795 182.466H151.27V190H158.795V182.466Z" fill="#E7EFF7" fill-opacity="0.3"/>
<path opacity="0.65" d="M171.283 182.466H163.758V190H171.283V182.466Z" fill="#E7EFF7" fill-opacity="0.3"/>
<path opacity="0.65" d="M196.259 182.466H188.734V190H196.259V182.466Z" fill="#E7EFF7" fill-opacity="0.3"/>
<path opacity="0.65" d="M221.236 182.466H213.711V190H221.236V182.466Z" fill="#E7EFF7" fill-opacity="0.3"/>
<path opacity="0.65" d="M246.212 182.466H238.688V190H246.212V182.466Z" fill="#E7EFF7" fill-opacity="0.3"/>
<path opacity="0.65" d="M271.189 182.466H263.664V190H271.189V182.466Z" fill="#E7EFF7" fill-opacity="0.3"/>
<path opacity="0.65" d="M296.17 182.466H288.645V190H296.17V182.466Z" fill="#E7EFF7" fill-opacity="0.3"/>
<path opacity="0.65" d="M308.658 182.466H301.133V190H308.658V182.466Z" fill="#E7EFF7" fill-opacity="0.3"/>
<path opacity="0.65" d="M358.619 182.466H351.094V190H358.619V182.466Z" fill="#E7EFF7" fill-opacity="0.3"/>
<path opacity="0.65" d="M371.107 182.466H363.582V190H371.107V182.466Z" fill="#E7EFF7" fill-opacity="0.3"/>
<path opacity="0.65" d="M383.595 182.466H376.07V190H383.595V182.466Z" fill="#E7EFF7" fill-opacity="0.3"/>
<path opacity="0.65" d="M396.084 182.466H388.559V190H396.084V182.466Z" fill="#E7EFF7" fill-opacity="0.3"/>
<path opacity="0.65" d="M408.572 182.466H401.047V190H408.572V182.466Z" fill="#E7EFF7" fill-opacity="0.3"/>
<path opacity="0.65" d="M421.064 182.466H413.539V190H421.064V182.466Z" fill="#E7EFF7" fill-opacity="0.3"/>
<path opacity="0.65" d="M433.548 182.466H426.023V190H433.548V182.466Z" fill="#E7EFF7" fill-opacity="0.3"/>
<path opacity="0.65" d="M33.9078 169.999H26.3828V177.533H33.9078V169.999Z" fill="#E7EFF7" fill-opacity="0.3"/>
<path opacity="0.65" d="M46.3961 169.999H38.8711V177.533H46.3961V169.999Z" fill="#E7EFF7" fill-opacity="0.3"/>
<path opacity="0.65" d="M58.8843 169.999H51.3594V177.533H58.8843V169.999Z" fill="#E7EFF7" fill-opacity="0.3"/>
<path opacity="0.65" d="M71.3727 169.999H63.8477V177.533H71.3727V169.999Z" fill="#E7EFF7" fill-opacity="0.3"/>
<path opacity="0.65" d="M83.8609 169.999H76.3359V177.533H83.8609V169.999Z" fill="#E7EFF7" fill-opacity="0.3"/>
<path opacity="0.65" d="M96.3492 169.999H88.8242V177.533H96.3492V169.999Z" fill="#E7EFF7" fill-opacity="0.3"/>
<path opacity="0.65" d="M108.837 169.999H101.312V177.533H108.837V169.999Z" fill="#E7EFF7" fill-opacity="0.3"/>
<path opacity="0.65" d="M133.814 169.999H126.289V177.533H133.814V169.999Z" fill="#E7EFF7" fill-opacity="0.3"/>
<path opacity="0.65" d="M146.306 169.999H138.781V177.533H146.306V169.999Z" fill="#E7EFF7" fill-opacity="0.3"/>
<path opacity="0.65" d="M196.259 169.999H188.734V177.533H196.259V169.999Z" fill="#E7EFF7" fill-opacity="0.3"/>
<path opacity="0.65" d="M233.724 169.999H226.199V177.533H233.724V169.999Z" fill="#E7EFF7" fill-opacity="0.3"/>
<path opacity="0.65" d="M246.212 169.999H238.688V177.533H246.212V169.999Z" fill="#E7EFF7" fill-opacity="0.3"/>
<path opacity="0.65" d="M258.701 169.999H251.176V177.533H258.701V169.999Z" fill="#E7EFF7" fill-opacity="0.3"/>
<path opacity="0.65" d="M296.17 169.999H288.645V177.533H296.17V169.999Z" fill="#E7EFF7" fill-opacity="0.3"/>
<path opacity="0.65" d="M358.619 169.999H351.094V177.533H358.619V169.999Z" fill="#E7EFF7" fill-opacity="0.3"/>
<path opacity="0.65" d="M371.107 169.999H363.582V177.533H371.107V169.999Z" fill="#E7EFF7" fill-opacity="0.3"/>
<path opacity="0.65" d="M383.595 169.999H376.07V177.533H383.595V169.999Z" fill="#E7EFF7" fill-opacity="0.3"/>
<path opacity="0.65" d="M396.084 169.999H388.559V177.533H396.084V169.999Z" fill="#E7EFF7" fill-opacity="0.3"/>
<path opacity="0.65" d="M433.548 169.999H426.023V177.533H433.548V169.999Z" fill="#E7EFF7" fill-opacity="0.3"/>
<path opacity="0.5" d="M8.93123 157.533H1.40625V165.068H8.93123V157.533Z" fill="#E7EFF7" fill-opacity="0.3"/>
<path opacity="0.5" d="M21.4156 157.533H13.8906V165.068H21.4156V157.533Z" fill="#E7EFF7" fill-opacity="0.3"/>
<path opacity="0.5" d="M33.9078 157.533H26.3828V165.068H33.9078V157.533Z" fill="#E7EFF7" fill-opacity="0.3"/>
<path opacity="0.5" d="M58.8843 157.533H51.3594V165.068H58.8843V157.533Z" fill="#E7EFF7" fill-opacity="0.3"/>
<path opacity="0.5" d="M71.3727 157.533H63.8477V165.068H71.3727V157.533Z" fill="#E7EFF7" fill-opacity="0.3"/>
<path opacity="0.5" d="M108.837 157.533H101.312V165.068H108.837V157.533Z" fill="#E7EFF7" fill-opacity="0.3"/>
<path opacity="0.5" d="M133.814 157.533H126.289V165.068H133.814V157.533Z" fill="#E7EFF7" fill-opacity="0.3"/>
<path opacity="0.5" d="M146.306 157.533H138.781V165.068H146.306V157.533Z" fill="#E7EFF7" fill-opacity="0.3"/>
<path opacity="0.5" d="M158.795 157.533H151.27V165.068H158.795V157.533Z" fill="#E7EFF7" fill-opacity="0.3"/>
<path opacity="0.5" d="M171.283 157.533H163.758V165.068H171.283V157.533Z" fill="#E7EFF7" fill-opacity="0.3"/>
<path opacity="0.5" d="M221.236 157.533H213.711V165.068H221.236V157.533Z" fill="#E7EFF7" fill-opacity="0.3"/>
<path opacity="0.5" d="M258.705 157.533H251.18V165.068H258.705V157.533Z" fill="#E7EFF7" fill-opacity="0.3"/>
<path opacity="0.5" d="M271.189 157.533H263.664V165.068H271.189V157.533Z" fill="#E7EFF7" fill-opacity="0.3"/>
<path opacity="0.5" d="M296.17 157.533H288.645V165.068H296.17V157.533Z" fill="#E7EFF7" fill-opacity="0.3"/>
<path opacity="0.5" d="M308.658 157.533H301.133V165.068H308.658V157.533Z" fill="#E7EFF7" fill-opacity="0.3"/>
<path opacity="0.5" d="M321.146 157.533H313.621V165.068H321.146V157.533Z" fill="#E7EFF7" fill-opacity="0.3"/>
<path opacity="0.5" d="M346.123 157.533H338.598V165.068H346.123V157.533Z" fill="#E7EFF7" fill-opacity="0.3"/>
<path opacity="0.5" d="M358.619 157.533H351.094V165.068H358.619V157.533Z" fill="#E7EFF7" fill-opacity="0.3"/>
<path opacity="0.5" d="M383.595 157.533H376.07V165.068H383.595V157.533Z" fill="#E7EFF7" fill-opacity="0.3"/>
<path opacity="0.5" d="M396.084 157.533H388.559V165.068H396.084V157.533Z" fill="#E7EFF7" fill-opacity="0.3"/>
<path opacity="0.5" d="M421.064 157.533H413.539V165.068H421.064V157.533Z" fill="#E7EFF7" fill-opacity="0.3"/>
<path opacity="0.5" d="M458.529 157.533H451.004V165.068H458.529V157.533Z" fill="#E7EFF7" fill-opacity="0.3"/>
<path opacity="0.5" d="M33.9078 145.066H26.3828V152.601H33.9078V145.066Z" fill="#E7EFF7" fill-opacity="0.3"/>
<path opacity="0.5" d="M58.8843 145.066H51.3594V152.601H58.8843V145.066Z" fill="#E7EFF7" fill-opacity="0.3"/>
<path opacity="0.5" d="M71.3727 145.066H63.8477V152.601H71.3727V145.066Z" fill="#E7EFF7" fill-opacity="0.3"/>
<path opacity="0.5" d="M83.8609 145.066H76.3359V152.601H83.8609V145.066Z" fill="#E7EFF7" fill-opacity="0.3"/>
<path opacity="0.5" d="M121.33 145.066H113.805V152.601H121.33V145.066Z" fill="#E7EFF7" fill-opacity="0.3"/>
<path opacity="0.5" d="M158.795 145.066H151.27V152.601H158.795V145.066Z" fill="#E7EFF7" fill-opacity="0.3"/>
<path opacity="0.5" d="M196.259 145.066H188.734V152.601H196.259V145.066Z" fill="#E7EFF7" fill-opacity="0.3"/>
<path opacity="0.5" d="M221.236 145.066H213.711V152.601H221.236V145.066Z" fill="#E7EFF7" fill-opacity="0.3"/>
<path opacity="0.5" d="M233.724 145.066H226.199V152.601H233.724V145.066Z" fill="#E7EFF7" fill-opacity="0.3"/>
<path opacity="0.5" d="M258.701 145.066H251.176V152.601H258.701V145.066Z" fill="#E7EFF7" fill-opacity="0.3"/>
<path opacity="0.5" d="M271.189 145.066H263.664V152.601H271.189V145.066Z" fill="#E7EFF7" fill-opacity="0.3"/>
<path opacity="0.5" d="M296.17 145.066H288.645V152.601H296.17V145.066Z" fill="#E7EFF7" fill-opacity="0.3"/>
<path opacity="0.5" d="M308.658 145.066H301.133V152.601H308.658V145.066Z" fill="#E7EFF7" fill-opacity="0.3"/>
<path opacity="0.5" d="M321.146 145.066H313.621V152.601H321.146V145.066Z" fill="#E7EFF7" fill-opacity="0.3"/>
<path opacity="0.5" d="M333.634 145.066H326.109V152.601H333.634V145.066Z" fill="#E7EFF7" fill-opacity="0.3"/>
<path opacity="0.5" d="M358.619 145.066H351.094V152.601H358.619V145.066Z" fill="#E7EFF7" fill-opacity="0.3"/>
<path opacity="0.5" d="M371.107 145.066H363.582V152.601H371.107V145.066Z" fill="#E7EFF7" fill-opacity="0.3"/>
<path opacity="0.5" d="M383.595 145.066H376.07V152.601H383.595V145.066Z" fill="#E7EFF7" fill-opacity="0.3"/>
<path opacity="0.5" d="M396.084 145.066H388.559V152.601H396.084V145.066Z" fill="#E7EFF7" fill-opacity="0.3"/>
<path opacity="0.5" d="M421.064 145.066H413.539V152.601H421.064V145.066Z" fill="#E7EFF7" fill-opacity="0.3"/>
<path opacity="0.5" d="M433.548 145.066H426.023V152.601H433.548V145.066Z" fill="#E7EFF7" fill-opacity="0.3"/>
<path opacity="0.5" d="M446.041 145.066H438.516V152.601H446.041V145.066Z" fill="#E7EFF7" fill-opacity="0.3"/>
<path opacity="0.5" d="M21.4156 132.6H13.8906V140.134H21.4156V132.6Z" fill="#E7EFF7" fill-opacity="0.3"/>
<path opacity="0.5" d="M33.9078 132.6H26.3828V140.134H33.9078V132.6Z" fill="#E7EFF7" fill-opacity="0.3"/>
<path opacity="0.5" d="M58.8843 132.6H51.3594V140.134H58.8843V132.6Z" fill="#E7EFF7" fill-opacity="0.3"/>
<path opacity="0.5" d="M71.3727 132.6H63.8477V140.134H71.3727V132.6Z" fill="#E7EFF7" fill-opacity="0.3"/>
<path opacity="0.5" d="M121.33 132.6H113.805V140.134H121.33V132.6Z" fill="#E7EFF7" fill-opacity="0.3"/>
<path opacity="0.5" d="M146.306 132.6H138.781V140.134H146.306V132.6Z" fill="#E7EFF7" fill-opacity="0.3"/>
<path opacity="0.5" d="M158.795 132.6H151.27V140.134H158.795V132.6Z" fill="#E7EFF7" fill-opacity="0.3"/>
<path opacity="0.5" d="M171.283 132.6H163.758V140.134H171.283V132.6Z" fill="#E7EFF7" fill-opacity="0.3"/>
<path opacity="0.5" d="M183.771 132.6H176.246V140.134H183.771V132.6Z" fill="#E7EFF7" fill-opacity="0.3"/>
<path opacity="0.5" d="M196.259 132.6H188.734V140.134H196.259V132.6Z" fill="#E7EFF7" fill-opacity="0.3"/>
<path opacity="0.5" d="M208.748 132.6H201.223V140.134H208.748V132.6Z" fill="#E7EFF7" fill-opacity="0.3"/>
<path opacity="0.5" d="M233.724 132.6H226.199V140.134H233.724V132.6Z" fill="#E7EFF7" fill-opacity="0.3"/>
<path opacity="0.5" d="M246.212 132.6H238.688V140.134H246.212V132.6Z" fill="#E7EFF7" fill-opacity="0.3"/>
<path opacity="0.5" d="M258.705 132.6H251.18V140.134H258.705V132.6Z" fill="#E7EFF7" fill-opacity="0.3"/>
<path opacity="0.5" d="M271.189 132.6H263.664V140.134H271.189V132.6Z" fill="#E7EFF7" fill-opacity="0.3"/>
<path opacity="0.5" d="M296.17 132.6H288.645V140.134H296.17V132.6Z" fill="#E7EFF7" fill-opacity="0.3"/>
<path opacity="0.5" d="M308.658 132.6H301.133V140.134H308.658V132.6Z" fill="#E7EFF7" fill-opacity="0.3"/>
<path opacity="0.5" d="M321.146 132.6H313.621V140.134H321.146V132.6Z" fill="#E7EFF7" fill-opacity="0.3"/>
<path opacity="0.5" d="M346.123 132.6H338.598V140.134H346.123V132.6Z" fill="#E7EFF7" fill-opacity="0.3"/>
<path opacity="0.5" d="M371.107 132.6H363.582V140.134H371.107V132.6Z" fill="#E7EFF7" fill-opacity="0.3"/>
<path opacity="0.5" d="M383.595 132.6H376.07V140.134H383.595V132.6Z" fill="#E7EFF7" fill-opacity="0.3"/>
<path opacity="0.5" d="M408.572 132.6H401.047V140.134H408.572V132.6Z" fill="#E7EFF7" fill-opacity="0.3"/>
<path opacity="0.5" d="M421.064 132.6H413.539V140.134H421.064V132.6Z" fill="#E7EFF7" fill-opacity="0.3"/>
<path opacity="0.5" d="M433.548 132.6H426.023V140.134H433.548V132.6Z" fill="#E7EFF7" fill-opacity="0.3"/>
<path opacity="0.5" d="M446.041 132.6H438.516V140.134H446.041V132.6Z" fill="#E7EFF7" fill-opacity="0.3"/>
<path opacity="0.5" d="M458.529 132.6H451.004V140.134H458.529V132.6Z" fill="#E7EFF7" fill-opacity="0.3"/>
<path opacity="0.45" d="M21.4117 120.102H13.8867V127.636H21.4117V120.102Z" fill="#E7EFF7" fill-opacity="0.3"/>
<path opacity="0.45" d="M33.9 120.102H26.375V127.636H33.9V120.102Z" fill="#E7EFF7" fill-opacity="0.3"/>
<path opacity="0.45" d="M46.3883 120.108H38.8633V127.643H46.3883V120.108Z" fill="#E7EFF7" fill-opacity="0.3"/>
<path opacity="0.45" d="M71.3727 120.108H63.8477V127.643H71.3727V120.108Z" fill="#E7EFF7" fill-opacity="0.3"/>
<path opacity="0.45" d="M83.8609 120.108H76.3359V127.643H83.8609V120.108Z" fill="#E7EFF7" fill-opacity="0.3"/>
<path opacity="0.45" d="M96.3492 120.108H88.8242V127.643H96.3492V120.108Z" fill="#E7EFF7" fill-opacity="0.3"/>
<path opacity="0.45" d="M108.837 120.108H101.312V127.643H108.837V120.108Z" fill="#E7EFF7" fill-opacity="0.3"/>
<path opacity="0.45" d="M121.33 120.108H113.805V127.643H121.33V120.108Z" fill="#E7EFF7" fill-opacity="0.3"/>
<path opacity="0.45" d="M171.283 120.114H163.758V127.649H171.283V120.114Z" fill="#E7EFF7" fill-opacity="0.3"/>
<path opacity="0.45" d="M183.771 120.114H176.246V127.649H183.771V120.114Z" fill="#E7EFF7" fill-opacity="0.3"/>
<path opacity="0.45" d="M208.748 120.114H201.223V127.649H208.748V120.114Z" fill="#E7EFF7" fill-opacity="0.3"/>
<path opacity="0.45" d="M233.724 120.121H226.199V127.656H233.724V120.121Z" fill="#E7EFF7" fill-opacity="0.3"/>
<path opacity="0.45" d="M258.705 120.121H251.18V127.656H258.705V120.121Z" fill="#E7EFF7" fill-opacity="0.3"/>
<path opacity="0.45" d="M296.17 120.121H288.645V127.656H296.17V120.121Z" fill="#E7EFF7" fill-opacity="0.3"/>
<path opacity="0.45" d="M321.146 120.127H313.621V127.661H321.146V120.127Z" fill="#E7EFF7" fill-opacity="0.3"/>
<path opacity="0.45" d="M333.634 120.127H326.109V127.661H333.634V120.127Z" fill="#E7EFF7" fill-opacity="0.3"/>
<path opacity="0.45" d="M346.123 120.127H338.598V127.661H346.123V120.127Z" fill="#E7EFF7" fill-opacity="0.3"/>
<path opacity="0.45" d="M358.611 120.127H351.086V127.661H358.611V120.127Z" fill="#E7EFF7" fill-opacity="0.3"/>
<path opacity="0.45" d="M371.103 120.127H363.578V127.661H371.103V120.127Z" fill="#E7EFF7" fill-opacity="0.3"/>
<path opacity="0.45" d="M383.587 120.127H376.062V127.661H383.587V120.127Z" fill="#E7EFF7" fill-opacity="0.3"/>
<path opacity="0.45" d="M408.572 120.134H401.047V127.668H408.572V120.134Z" fill="#E7EFF7" fill-opacity="0.3"/>
<path opacity="0.45" d="M421.064 120.134H413.539V127.668H421.064V120.134Z" fill="#E7EFF7" fill-opacity="0.3"/>
<path opacity="0.45" d="M458.529 120.134H451.004V127.668H458.529V120.134Z" fill="#E7EFF7" fill-opacity="0.3"/>
<path opacity="0.4" d="M21.4156 107.636H13.8906V115.17H21.4156V107.636Z" fill="#E7EFF7" fill-opacity="0.3"/>
<path opacity="0.4" d="M33.9078 107.636H26.3828V115.17H33.9078V107.636Z" fill="#E7EFF7" fill-opacity="0.3"/>
<path opacity="0.4" d="M46.3961 107.636H38.8711V115.17H46.3961V107.636Z" fill="#E7EFF7" fill-opacity="0.3"/>
<path opacity="0.4" d="M58.8843 107.642H51.3594V115.176H58.8843V107.642Z" fill="#E7EFF7" fill-opacity="0.3"/>
<path opacity="0.4" d="M83.8609 107.642H76.3359V115.176H83.8609V107.642Z" fill="#E7EFF7" fill-opacity="0.3"/>
<path opacity="0.4" d="M96.3492 107.642H88.8242V115.176H96.3492V107.642Z" fill="#E7EFF7" fill-opacity="0.3"/>
<path opacity="0.4" d="M133.814 107.642H126.289V115.176H133.814V107.642Z" fill="#E7EFF7" fill-opacity="0.3"/>
<path opacity="0.4" d="M183.771 107.648H176.246V115.183H183.771V107.648Z" fill="#E7EFF7" fill-opacity="0.3"/>
<path opacity="0.4" d="M208.748 107.648H201.223V115.183H208.748V107.648Z" fill="#E7EFF7" fill-opacity="0.3"/>
<path opacity="0.4" d="M233.724 107.654H226.199V115.189H233.724V107.654Z" fill="#E7EFF7" fill-opacity="0.3"/>
<path opacity="0.4" d="M246.212 107.654H238.688V115.189H246.212V107.654Z" fill="#E7EFF7" fill-opacity="0.3"/>
<path opacity="0.4" d="M258.701 107.654H251.176V115.189H258.701V107.654Z" fill="#E7EFF7" fill-opacity="0.3"/>
<path opacity="0.4" d="M271.189 107.654H263.664V115.189H271.189V107.654Z" fill="#E7EFF7" fill-opacity="0.3"/>
<path opacity="0.4" d="M308.658 107.654H301.133V115.189H308.658V107.654Z" fill="#E7EFF7" fill-opacity="0.3"/>
<path opacity="0.4" d="M321.146 107.661H313.621V115.196H321.146V107.661Z" fill="#E7EFF7" fill-opacity="0.3"/>
<path opacity="0.4" d="M333.634 107.661H326.109V115.196H333.634V107.661Z" fill="#E7EFF7" fill-opacity="0.3"/>
<path opacity="0.4" d="M346.123 107.661H338.598V115.196H346.123V107.661Z" fill="#E7EFF7" fill-opacity="0.3"/>
<path opacity="0.4" d="M358.619 107.661H351.094V115.196H358.619V107.661Z" fill="#E7EFF7" fill-opacity="0.3"/>
<path opacity="0.4" d="M371.107 107.661H363.582V115.196H371.107V107.661Z" fill="#E7EFF7" fill-opacity="0.3"/>
<path opacity="0.4" d="M408.572 107.661H401.047V115.196H408.572V107.661Z" fill="#E7EFF7" fill-opacity="0.3"/>
<path opacity="0.4" d="M421.064 107.667H413.539V115.201H421.064V107.667Z" fill="#E7EFF7" fill-opacity="0.3"/>
<path opacity="0.4" d="M433.548 107.667H426.023V115.201H433.548V107.667Z" fill="#E7EFF7" fill-opacity="0.3"/>
<path opacity="0.4" d="M446.041 107.667H438.516V115.201H446.041V107.667Z" fill="#E7EFF7" fill-opacity="0.3"/>
<path opacity="0.4" d="M458.529 107.667H451.004V115.201H458.529V107.667Z" fill="#E7EFF7" fill-opacity="0.3"/>
<path opacity="0.4" d="M21.4156 95.1689H13.8906V102.703H21.4156V95.1689Z" fill="#E7EFF7" fill-opacity="0.3"/>
<path opacity="0.4" d="M46.3961 95.1689H38.8711V102.703H46.3961V95.1689Z" fill="#E7EFF7" fill-opacity="0.3"/>
<path opacity="0.4" d="M58.8843 95.1748H51.3594V102.709H58.8843V95.1748Z" fill="#E7EFF7" fill-opacity="0.3"/>
<path opacity="0.4" d="M96.3492 95.1748H88.8242V102.709H96.3492V95.1748Z" fill="#E7EFF7" fill-opacity="0.3"/>
<path opacity="0.4" d="M108.837 95.1748H101.312V102.709H108.837V95.1748Z" fill="#E7EFF7" fill-opacity="0.3"/>
<path opacity="0.4" d="M121.33 95.1748H113.805V102.709H121.33V95.1748Z" fill="#E7EFF7" fill-opacity="0.3"/>
<path opacity="0.4" d="M158.795 95.1816H151.27V102.716H158.795V95.1816Z" fill="#E7EFF7" fill-opacity="0.3"/>
<path opacity="0.4" d="M171.283 95.1816H163.758V102.716H171.283V95.1816Z" fill="#E7EFF7" fill-opacity="0.3"/>
<path opacity="0.4" d="M183.771 95.1816H176.246V102.716H183.771V95.1816Z" fill="#E7EFF7" fill-opacity="0.3"/>
<path opacity="0.4" d="M208.748 95.1816H201.223V102.716H208.748V95.1816Z" fill="#E7EFF7" fill-opacity="0.3"/>
<path opacity="0.4" d="M233.724 95.1875H226.199V102.722H233.724V95.1875Z" fill="#E7EFF7" fill-opacity="0.3"/>
<path opacity="0.4" d="M246.212 95.1875H238.688V102.722H246.212V95.1875Z" fill="#E7EFF7" fill-opacity="0.3"/>
<path opacity="0.4" d="M271.189 95.1875H263.664V102.722H271.189V95.1875Z" fill="#E7EFF7" fill-opacity="0.3"/>
<path opacity="0.4" d="M296.17 95.1875H288.645V102.722H296.17V95.1875Z" fill="#E7EFF7" fill-opacity="0.3"/>
<path opacity="0.4" d="M308.666 95.1875H301.141V102.722H308.666V95.1875Z" fill="#E7EFF7" fill-opacity="0.3"/>
<path opacity="0.4" d="M333.642 95.1943H326.117V102.729H333.642V95.1943Z" fill="#E7EFF7" fill-opacity="0.3"/>
<path opacity="0.4" d="M358.619 95.1943H351.094V102.729H358.619V95.1943Z" fill="#E7EFF7" fill-opacity="0.3"/>
<path opacity="0.4" d="M383.595 95.1943H376.07V102.729H383.595V95.1943Z" fill="#E7EFF7" fill-opacity="0.3"/>
<path opacity="0.4" d="M396.084 95.1943H388.559V102.729H396.084V95.1943Z" fill="#E7EFF7" fill-opacity="0.3"/>
<path opacity="0.4" d="M421.064 95.2002H413.539V102.735H421.064V95.2002Z" fill="#E7EFF7" fill-opacity="0.3"/>
<path opacity="0.4" d="M446.041 95.2002H438.516V102.735H446.041V95.2002Z" fill="#E7EFF7" fill-opacity="0.3"/>
<path opacity="0.4" d="M458.529 95.2002H451.004V102.735H458.529V95.2002Z" fill="#E7EFF7" fill-opacity="0.3"/>
<path opacity="0.3" d="M8.93123 82.7344H1.40625V90.2688H8.93123V82.7344Z" fill="#E7EFF7" fill-opacity="0.3"/>
<path opacity="0.3" d="M21.4156 82.7344H13.8906V90.2688H21.4156V82.7344Z" fill="#E7EFF7" fill-opacity="0.3"/>
<path opacity="0.3" d="M46.3961 82.7344H38.8711V90.2688H46.3961V82.7344Z" fill="#E7EFF7" fill-opacity="0.3"/>
<path opacity="0.3" d="M96.3492 82.7344H88.8242V90.2688H96.3492V82.7344Z" fill="#E7EFF7" fill-opacity="0.3"/>
<path opacity="0.3" d="M121.33 82.7344H113.805V90.2688H121.33V82.7344Z" fill="#E7EFF7" fill-opacity="0.3"/>
<path opacity="0.3" d="M158.795 82.7344H151.27V90.2688H158.795V82.7344Z" fill="#E7EFF7" fill-opacity="0.3"/>
<path opacity="0.3" d="M233.724 82.7344H226.199V90.2688H233.724V82.7344Z" fill="#E7EFF7" fill-opacity="0.3"/>
<path opacity="0.3" d="M258.701 82.7344H251.176V90.2688H258.701V82.7344Z" fill="#E7EFF7" fill-opacity="0.3"/>
<path opacity="0.3" d="M283.681 82.7344H276.156V90.2688H283.681V82.7344Z" fill="#E7EFF7" fill-opacity="0.3"/>
<path opacity="0.3" d="M296.17 82.7344H288.645V90.2688H296.17V82.7344Z" fill="#E7EFF7" fill-opacity="0.3"/>
<path opacity="0.3" d="M308.658 82.7344H301.133V90.2688H308.658V82.7344Z" fill="#E7EFF7" fill-opacity="0.3"/>
<path opacity="0.3" d="M333.634 82.7344H326.109V90.2688H333.634V82.7344Z" fill="#E7EFF7" fill-opacity="0.3"/>
<path opacity="0.3" d="M358.619 82.7344H351.094V90.2688H358.619V82.7344Z" fill="#E7EFF7" fill-opacity="0.3"/>
<path opacity="0.3" d="M371.107 82.7344H363.582V90.2688H371.107V82.7344Z" fill="#E7EFF7" fill-opacity="0.3"/>
<path opacity="0.3" d="M421.064 82.7344H413.539V90.2688H421.064V82.7344Z" fill="#E7EFF7" fill-opacity="0.3"/>
<path opacity="0.3" d="M21.4156 70.2676H13.8906V77.802H21.4156V70.2676Z" fill="#E7EFF7" fill-opacity="0.3"/>
<path opacity="0.3" d="M33.9078 70.2676H26.3828V77.802H33.9078V70.2676Z" fill="#E7EFF7" fill-opacity="0.3"/>
<path opacity="0.3" d="M46.3961 70.2676H38.8711V77.802H46.3961V70.2676Z" fill="#E7EFF7" fill-opacity="0.3"/>
<path opacity="0.3" d="M58.8843 70.2676H51.3594V77.802H58.8843V70.2676Z" fill="#E7EFF7" fill-opacity="0.3"/>
<path opacity="0.3" d="M83.8609 70.2676H76.3359V77.802H83.8609V70.2676Z" fill="#E7EFF7" fill-opacity="0.3"/>
<path opacity="0.3" d="M121.33 70.2676H113.805V77.802H121.33V70.2676Z" fill="#E7EFF7" fill-opacity="0.3"/>
<path opacity="0.3" d="M158.795 70.2676H151.27V77.802H158.795V70.2676Z" fill="#E7EFF7" fill-opacity="0.3"/>
<path opacity="0.3" d="M171.283 70.2676H163.758V77.802H171.283V70.2676Z" fill="#E7EFF7" fill-opacity="0.3"/>
<path opacity="0.3" d="M208.748 70.2676H201.223V77.802H208.748V70.2676Z" fill="#E7EFF7" fill-opacity="0.3"/>
<path opacity="0.3" d="M221.236 70.2676H213.711V77.802H221.236V70.2676Z" fill="#E7EFF7" fill-opacity="0.3"/>
<path opacity="0.3" d="M233.724 70.2676H226.199V77.802H233.724V70.2676Z" fill="#E7EFF7" fill-opacity="0.3"/>
<path opacity="0.3" d="M258.701 70.2676H251.176V77.802H258.701V70.2676Z" fill="#E7EFF7" fill-opacity="0.3"/>
<path opacity="0.3" d="M308.658 70.2676H301.133V77.802H308.658V70.2676Z" fill="#E7EFF7" fill-opacity="0.3"/>
<path opacity="0.3" d="M446.041 70.2676H438.516V77.802H446.041V70.2676Z" fill="#E7EFF7" fill-opacity="0.3"/>
<path opacity="0.3" d="M458.529 70.2676H451.004V77.802H458.529V70.2676Z" fill="#E7EFF7" fill-opacity="0.3"/>
<path opacity="0.25" d="M8.93123 57.8018H1.40625V65.3362H8.93123V57.8018Z" fill="#E7EFF7" fill-opacity="0.3"/>
<path opacity="0.25" d="M46.3961 57.8018H38.8711V65.3362H46.3961V57.8018Z" fill="#E7EFF7" fill-opacity="0.3"/>
<path opacity="0.25" d="M58.8843 57.8018H51.3594V65.3362H58.8843V57.8018Z" fill="#E7EFF7" fill-opacity="0.3"/>
<path opacity="0.25" d="M83.8609 57.8018H76.3359V65.3362H83.8609V57.8018Z" fill="#E7EFF7" fill-opacity="0.3"/>
<path opacity="0.25" d="M96.3492 57.8018H88.8242V65.3362H96.3492V57.8018Z" fill="#E7EFF7" fill-opacity="0.3"/>
<path opacity="0.25" d="M121.33 57.8018H113.805V65.3362H121.33V57.8018Z" fill="#E7EFF7" fill-opacity="0.3"/>
<path opacity="0.25" d="M133.814 57.8018H126.289V65.3362H133.814V57.8018Z" fill="#E7EFF7" fill-opacity="0.3"/>
<path opacity="0.25" d="M146.306 57.8018H138.781V65.3362H146.306V57.8018Z" fill="#E7EFF7" fill-opacity="0.3"/>
<path opacity="0.25" d="M158.795 57.8018H151.27V65.3362H158.795V57.8018Z" fill="#E7EFF7" fill-opacity="0.3"/>
<path opacity="0.25" d="M183.771 57.8018H176.246V65.3362H183.771V57.8018Z" fill="#E7EFF7" fill-opacity="0.3"/>
<path opacity="0.25" d="M208.748 57.8018H201.223V65.3362H208.748V57.8018Z" fill="#E7EFF7" fill-opacity="0.3"/>
<path opacity="0.25" d="M233.724 57.8018H226.199V65.3362H233.724V57.8018Z" fill="#E7EFF7" fill-opacity="0.3"/>
<path opacity="0.25" d="M258.705 57.8018H251.18V65.3362H258.705V57.8018Z" fill="#E7EFF7" fill-opacity="0.3"/>
<path opacity="0.25" d="M296.17 57.8018H288.645V65.3362H296.17V57.8018Z" fill="#E7EFF7" fill-opacity="0.3"/>
<path opacity="0.25" d="M308.658 57.8018H301.133V65.3362H308.658V57.8018Z" fill="#E7EFF7" fill-opacity="0.3"/>
<path opacity="0.25" d="M333.634 57.8018H326.109V65.3362H333.634V57.8018Z" fill="#E7EFF7" fill-opacity="0.3"/>
<path opacity="0.25" d="M346.123 57.8018H338.598V65.3362H346.123V57.8018Z" fill="#E7EFF7" fill-opacity="0.3"/>
<path opacity="0.25" d="M396.084 57.8018H388.559V65.3362H396.084V57.8018Z" fill="#E7EFF7" fill-opacity="0.3"/>
<path opacity="0.25" d="M458.529 57.8018H451.004V65.3362H458.529V57.8018Z" fill="#E7EFF7" fill-opacity="0.3"/>
<path opacity="0.25" d="M21.4156 45.335H13.8906V52.8694H21.4156V45.335Z" fill="#E7EFF7" fill-opacity="0.3"/>
<path opacity="0.25" d="M33.9078 45.335H26.3828V52.8694H33.9078V45.335Z" fill="#E7EFF7" fill-opacity="0.3"/>
<path opacity="0.25" d="M83.8609 45.335H76.3359V52.8694H83.8609V45.335Z" fill="#E7EFF7" fill-opacity="0.3"/>
<path opacity="0.25" d="M121.33 45.335H113.805V52.8694H121.33V45.335Z" fill="#E7EFF7" fill-opacity="0.3"/>
<path opacity="0.25" d="M146.306 45.335H138.781V52.8694H146.306V45.335Z" fill="#E7EFF7" fill-opacity="0.3"/>
<path opacity="0.25" d="M158.795 45.335H151.27V52.8694H158.795V45.335Z" fill="#E7EFF7" fill-opacity="0.3"/>
<path opacity="0.25" d="M183.771 45.335H176.246V52.8694H183.771V45.335Z" fill="#E7EFF7" fill-opacity="0.3"/>
<path opacity="0.25" d="M233.724 45.335H226.199V52.8694H233.724V45.335Z" fill="#E7EFF7" fill-opacity="0.3"/>
<path opacity="0.25" d="M246.212 45.335H238.688V52.8694H246.212V45.335Z" fill="#E7EFF7" fill-opacity="0.3"/>
<path opacity="0.25" d="M283.681 45.335H276.156V52.8694H283.681V45.335Z" fill="#E7EFF7" fill-opacity="0.3"/>
<path opacity="0.25" d="M296.17 45.335H288.645V52.8694H296.17V45.335Z" fill="#E7EFF7" fill-opacity="0.3"/>
<path opacity="0.25" d="M333.634 45.335H326.109V52.8694H333.634V45.335Z" fill="#E7EFF7" fill-opacity="0.3"/>
<path opacity="0.25" d="M358.619 45.335H351.094V52.8694H358.619V45.335Z" fill="#E7EFF7" fill-opacity="0.3"/>
<path opacity="0.25" d="M408.572 45.335H401.047V52.8694H408.572V45.335Z" fill="#E7EFF7" fill-opacity="0.3"/>
<path opacity="0.25" d="M446.041 45.335H438.516V52.8694H446.041V45.335Z" fill="#E7EFF7" fill-opacity="0.3"/>
<path opacity="0.25" d="M21.4156 32.8682H13.8906V40.4026H21.4156V32.8682Z" fill="#E7EFF7" fill-opacity="0.3"/>
<path opacity="0.25" d="M58.8843 32.8682H51.3594V40.4026H58.8843V32.8682Z" fill="#E7EFF7" fill-opacity="0.3"/>
<path opacity="0.25" d="M96.3492 32.8682H88.8242V40.4026H96.3492V32.8682Z" fill="#E7EFF7" fill-opacity="0.3"/>
<path opacity="0.25" d="M133.814 32.8682H126.289V40.4026H133.814V32.8682Z" fill="#E7EFF7" fill-opacity="0.3"/>
<path opacity="0.25" d="M183.771 32.8682H176.246V40.4026H183.771V32.8682Z" fill="#E7EFF7" fill-opacity="0.3"/>
<path opacity="0.25" d="M233.724 32.8682H226.199V40.4026H233.724V32.8682Z" fill="#E7EFF7" fill-opacity="0.3"/>
<path opacity="0.25" d="M246.212 32.8682H238.688V40.4026H246.212V32.8682Z" fill="#E7EFF7" fill-opacity="0.3"/>
<path opacity="0.25" d="M308.658 32.8682H301.133V40.4026H308.658V32.8682Z" fill="#E7EFF7" fill-opacity="0.3"/>
<path opacity="0.25" d="M358.619 32.8682H351.094V40.4026H358.619V32.8682Z" fill="#E7EFF7" fill-opacity="0.3"/>
<path opacity="0.25" d="M408.572 32.8682H401.047V40.4026H408.572V32.8682Z" fill="#E7EFF7" fill-opacity="0.3"/>
<path opacity="0.2" d="M21.4156 20.4023H13.8906V27.9368H21.4156V20.4023Z" fill="#E7EFF7" fill-opacity="0.3"/>
<path opacity="0.2" d="M83.8609 20.4023H76.3359V27.9368H83.8609V20.4023Z" fill="#E7EFF7" fill-opacity="0.3"/>
<path opacity="0.2" d="M96.3492 20.4023H88.8242V27.9368H96.3492V20.4023Z" fill="#E7EFF7" fill-opacity="0.3"/>
<path opacity="0.2" d="M133.814 20.4023H126.289V27.9368H133.814V20.4023Z" fill="#E7EFF7" fill-opacity="0.3"/>
<path opacity="0.2" d="M158.795 20.4023H151.27V27.9368H158.795V20.4023Z" fill="#E7EFF7" fill-opacity="0.3"/>
<path opacity="0.2" d="M196.259 20.4023H188.734V27.9368H196.259V20.4023Z" fill="#E7EFF7" fill-opacity="0.3"/>
<path opacity="0.2" d="M221.236 20.4023H213.711V27.9368H221.236V20.4023Z" fill="#E7EFF7" fill-opacity="0.3"/>
<path opacity="0.2" d="M271.189 20.4023H263.664V27.9368H271.189V20.4023Z" fill="#E7EFF7" fill-opacity="0.3"/>
<path opacity="0.2" d="M296.17 20.4023H288.645V27.9368H296.17V20.4023Z" fill="#E7EFF7" fill-opacity="0.3"/>
<path opacity="0.2" d="M333.634 20.4023H326.109V27.9368H333.634V20.4023Z" fill="#E7EFF7" fill-opacity="0.3"/>
<path opacity="0.2" d="M346.123 20.4023H338.598V27.9368H346.123V20.4023Z" fill="#E7EFF7" fill-opacity="0.3"/>
<path opacity="0.2" d="M396.084 20.4023H388.559V27.9368H396.084V20.4023Z" fill="#E7EFF7" fill-opacity="0.3"/>
<path opacity="0.2" d="M408.572 20.4023H401.047V27.9368H408.572V20.4023Z" fill="#E7EFF7" fill-opacity="0.3"/>
<path opacity="0.2" d="M421.064 20.4023H413.539V27.9368H421.064V20.4023Z" fill="#E7EFF7" fill-opacity="0.3"/>
<path opacity="0.2" d="M433.548 20.4023H426.023V27.9368H433.548V20.4023Z" fill="#E7EFF7" fill-opacity="0.3"/>
<path opacity="0.2" d="M8.93123 7.93555H1.40625V15.47H8.93123V7.93555Z" fill="#E7EFF7" fill-opacity="0.3"/>
<path opacity="0.2" d="M21.4156 7.93555H13.8906V15.47H21.4156V7.93555Z" fill="#E7EFF7" fill-opacity="0.3"/>
<path opacity="0.2" d="M46.3961 7.93555H38.8711V15.47H46.3961V7.93555Z" fill="#E7EFF7" fill-opacity="0.3"/>
<path opacity="0.2" d="M83.8609 7.93555H76.3359V15.47H83.8609V7.93555Z" fill="#E7EFF7" fill-opacity="0.3"/>
<path opacity="0.2" d="M133.814 7.93555H126.289V15.47H133.814V7.93555Z" fill="#E7EFF7" fill-opacity="0.3"/>
<path opacity="0.2" d="M146.306 7.93555H138.781V15.47H146.306V7.93555Z" fill="#E7EFF7" fill-opacity="0.3"/>
<path opacity="0.2" d="M158.795 7.93555H151.27V15.47H158.795V7.93555Z" fill="#E7EFF7" fill-opacity="0.3"/>
<path opacity="0.2" d="M196.259 7.93555H188.734V15.47H196.259V7.93555Z" fill="#E7EFF7" fill-opacity="0.3"/>
<path opacity="0.2" d="M221.236 7.93555H213.711V15.47H221.236V7.93555Z" fill="#E7EFF7" fill-opacity="0.3"/>
<path opacity="0.2" d="M233.724 7.93555H226.199V15.47H233.724V7.93555Z" fill="#E7EFF7" fill-opacity="0.3"/>
<path opacity="0.2" d="M258.701 7.93555H251.176V15.47H258.701V7.93555Z" fill="#E7EFF7" fill-opacity="0.3"/>
<path opacity="0.2" d="M296.17 7.93555H288.645V15.47H296.17V7.93555Z" fill="#E7EFF7" fill-opacity="0.3"/>
<path opacity="0.2" d="M308.658 7.93555H301.133V15.47H308.658V7.93555Z" fill="#E7EFF7" fill-opacity="0.3"/>
<path opacity="0.2" d="M433.548 7.93555H426.023V15.47H433.548V7.93555Z" fill="#E7EFF7" fill-opacity="0.3"/>
<path opacity="0.1" d="M446.041 7.93555H438.516V15.47H446.041V7.93555Z" fill="#E7EFF7" fill-opacity="0.3"/>
<path opacity="0.2" d="M8.93123 -4.53125H1.40625V3.00319H8.93123V-4.53125Z" fill="#E7EFF7" fill-opacity="0.3"/>
<path opacity="0.2" d="M58.8843 -4.53125H51.3594V3.00319H58.8843V-4.53125Z" fill="#E7EFF7" fill-opacity="0.3"/>
<path opacity="0.2" d="M158.795 -4.53125H151.27V3.00319H158.795V-4.53125Z" fill="#E7EFF7" fill-opacity="0.3"/>
<path opacity="0.2" d="M183.771 -4.53125H176.246V3.00319H183.771V-4.53125Z" fill="#E7EFF7" fill-opacity="0.3"/>
<path opacity="0.2" d="M233.724 -4.53125H226.199V3.00319H233.724V-4.53125Z" fill="#E7EFF7" fill-opacity="0.3"/>
<path opacity="0.2" d="M246.212 -4.53125H238.688V3.00319H246.212V-4.53125Z" fill="#E7EFF7" fill-opacity="0.3"/>
<path opacity="0.2" d="M308.658 -4.53125H301.133V3.00319H308.658V-4.53125Z" fill="#E7EFF7" fill-opacity="0.3"/>
<path opacity="0.2" d="M321.146 -4.53125H313.621V3.00319H321.146V-4.53125Z" fill="#E7EFF7" fill-opacity="0.3"/>
<path opacity="0.2" d="M346.123 -4.53125H338.598V3.00319H346.123V-4.53125Z" fill="#E7EFF7" fill-opacity="0.3"/>
<path opacity="0.1" d="M358.619 -4.53125H351.094V3.00319H358.619V-4.53125Z" fill="#E7EFF7" fill-opacity="0.3"/>
<path opacity="0.1" d="M396.084 -4.53125H388.559V3.00319H396.084V-4.53125Z" fill="#E7EFF7" fill-opacity="0.3"/>
<path opacity="0.2" d="M421.064 -4.53125H413.539V3.00319H421.064V-4.53125Z" fill="#E7EFF7" fill-opacity="0.3"/>
<path opacity="0.1" d="M446.041 -4.53125H438.516V3.00319H446.041V-4.53125Z" fill="#E7EFF7" fill-opacity="0.3"/>
<path opacity="0.65" d="M471.002 182.466H463.477V190H471.002V182.466Z" fill="#E7EFF7" fill-opacity="0.3"/>
<path opacity="0.65" d="M508.47 182.466H500.945V190H508.47V182.466Z" fill="#E7EFF7" fill-opacity="0.3"/>
<path opacity="0.65" d="M520.959 182.466H513.434V190H520.959V182.466Z" fill="#E7EFF7" fill-opacity="0.3"/>
<path opacity="0.65" d="M471.005 169.999H463.48V177.533H471.005V169.999Z" fill="#E7EFF7" fill-opacity="0.3"/>
<path opacity="0.65" d="M483.494 169.999H475.969V177.533H483.494V169.999Z" fill="#E7EFF7" fill-opacity="0.3"/>
<path opacity="0.65" d="M508.47 169.999H500.945V177.533H508.47V169.999Z" fill="#E7EFF7" fill-opacity="0.3"/>
<path opacity="0.65" d="M520.959 169.999H513.434V177.533H520.959V169.999Z" fill="#E7EFF7" fill-opacity="0.3"/>
<path opacity="0.5" d="M471.002 157.533H463.477V165.068H471.002V157.533Z" fill="#E7EFF7" fill-opacity="0.3"/>
<path opacity="0.5" d="M483.494 157.533H475.969V165.068H483.494V157.533Z" fill="#E7EFF7" fill-opacity="0.3"/>
<path opacity="0.5" d="M495.982 157.533H488.457V165.068H495.982V157.533Z" fill="#E7EFF7" fill-opacity="0.3"/>
<path opacity="0.5" d="M520.959 157.533H513.434V165.068H520.959V157.533Z" fill="#E7EFF7" fill-opacity="0.3"/>
<path opacity="0.5" d="M483.494 145.066H475.969V152.601H483.494V145.066Z" fill="#E7EFF7" fill-opacity="0.3"/>
<path opacity="0.5" d="M520.959 145.066H513.434V152.601H520.959V145.066Z" fill="#E7EFF7" fill-opacity="0.3"/>
<path opacity="0.5" d="M471.002 132.6H463.477V140.134H471.002V132.6Z" fill="#E7EFF7" fill-opacity="0.3"/>
<path opacity="0.5" d="M483.494 132.6H475.969V140.134H483.494V132.6Z" fill="#E7EFF7" fill-opacity="0.3"/>
<path opacity="0.45" d="M520.959 120.14H513.434V127.674H520.959V120.14Z" fill="#E7EFF7" fill-opacity="0.3"/>
<path opacity="0.4" d="M471.005 107.667H463.48V115.201H471.005V107.667Z" fill="#E7EFF7" fill-opacity="0.3"/>
<path opacity="0.4" d="M483.494 107.667H475.969V115.201H483.494V107.667Z" fill="#E7EFF7" fill-opacity="0.3"/>
<path opacity="0.4" d="M520.959 107.674H513.434V115.208H520.959V107.674Z" fill="#E7EFF7" fill-opacity="0.3"/>
<path opacity="0.4" d="M471.002 95.2002H463.477V102.735H471.002V95.2002Z" fill="#E7EFF7" fill-opacity="0.3"/>
<path opacity="0.4" d="M495.982 95.2002H488.457V102.735H495.982V95.2002Z" fill="#E7EFF7" fill-opacity="0.3"/>
<path opacity="0.4" d="M520.959 95.207H513.434V102.741H520.959V95.207Z" fill="#E7EFF7" fill-opacity="0.3"/>
<path opacity="0.3" d="M471.005 82.7344H463.48V90.2688H471.005V82.7344Z" fill="#E7EFF7" fill-opacity="0.3"/>
<path opacity="0.3" d="M508.47 82.7344H500.945V90.2688H508.47V82.7344Z" fill="#E7EFF7" fill-opacity="0.3"/>
<path opacity="0.3" d="M520.959 82.7344H513.434V90.2688H520.959V82.7344Z" fill="#E7EFF7" fill-opacity="0.3"/>
<path opacity="0.3" d="M495.982 70.2676H488.457V77.802H495.982V70.2676Z" fill="#E7EFF7" fill-opacity="0.3"/>
<path opacity="0.3" d="M520.959 70.2676H513.434V77.802H520.959V70.2676Z" fill="#E7EFF7" fill-opacity="0.3"/>
<path opacity="0.25" d="M471.002 57.8018H463.477V65.3362H471.002V57.8018Z" fill="#E7EFF7" fill-opacity="0.3"/>
<path opacity="0.25" d="M495.982 57.8018H488.457V65.3362H495.982V57.8018Z" fill="#E7EFF7" fill-opacity="0.3"/>
<path opacity="0.25" d="M508.47 57.8018H500.945V65.3362H508.47V57.8018Z" fill="#E7EFF7" fill-opacity="0.3"/>
<path opacity="0.25" d="M520.959 57.8018H513.434V65.3362H520.959V57.8018Z" fill="#E7EFF7" fill-opacity="0.3"/>
<path opacity="0.25" d="M471.005 45.335H463.48V52.8694H471.005V45.335Z" fill="#E7EFF7" fill-opacity="0.3"/>
<path opacity="0.25" d="M495.982 45.335H488.457V52.8694H495.982V45.335Z" fill="#E7EFF7" fill-opacity="0.3"/>
<path opacity="0.25" d="M471.002 32.8682H463.477V40.4026H471.002V32.8682Z" fill="#E7EFF7" fill-opacity="0.3"/>
<path opacity="0.25" d="M508.47 32.8682H500.945V40.4026H508.47V32.8682Z" fill="#E7EFF7" fill-opacity="0.3"/>
<path opacity="0.25" d="M520.959 32.8682H513.434V40.4026H520.959V32.8682Z" fill="#E7EFF7" fill-opacity="0.3"/>
<path opacity="0.2" d="M508.47 20.4023H500.945V27.9368H508.47V20.4023Z" fill="#E7EFF7" fill-opacity="0.3"/>
<path opacity="0.2" d="M520.959 20.4023H513.434V27.9368H520.959V20.4023Z" fill="#E7EFF7" fill-opacity="0.3"/>
<path opacity="0.2" d="M471.005 7.93555H463.48V15.47H471.005V7.93555Z" fill="#E7EFF7" fill-opacity="0.3"/>
<path opacity="0.1" d="M508.47 -4.53125H500.945V3.00319H508.47V-4.53125Z" fill="#E7EFF7" fill-opacity="0.3"/>
<path opacity="0.2" d="M520.959 -4.53125H513.434V3.00319H520.959V-4.53125Z" fill="#E7EFF7" fill-opacity="0.3"/>
</g>
</g>
</g>
<defs>
<radialGradient id="paint0_radial_36814_6554" cx="0" cy="0" r="1" gradientUnits="userSpaceOnUse" gradientTransform="translate(260.319 190) rotate(-90) scale(95 242.962)">
<stop stop-color="#F5F8FF"/>
<stop offset="1" stop-color="white"/>
</radialGradient>
<clipPath id="clip0_36814_6554">
<rect width="522" height="190" rx="95" fill="white"/>
</clipPath>
<clipPath id="clip1_36814_6554">
<rect width="1144" height="394" fill="white" transform="translate(-111 -204)"/>
</clipPath>
</defs>
</svg>
