<svg width="1440" height="1013" viewBox="0 0 1440 1013" fill="none" xmlns="http://www.w3.org/2000/svg">
<g opacity="0.15" clip-path="url(#clip0_34887_104061)">
<path d="M912 0V4.52" stroke="white" stroke-width="1.92" stroke-miterlimit="10"/>
<path d="M912 18.0781V1118.7" stroke="white" stroke-width="1.92" stroke-miterlimit="10" stroke-dasharray="7.68 7.68"/>
<path d="M816 0V4.52" stroke="white" stroke-width="1.92" stroke-miterlimit="10"/>
<path d="M816 18.0781V1118.7" stroke="white" stroke-width="1.92" stroke-miterlimit="10" stroke-dasharray="7.68 7.68"/>
<path d="M720 0V4.52" stroke="white" stroke-width="1.92" stroke-miterlimit="10"/>
<path d="M720 18.0781V1118.7" stroke="white" stroke-width="1.92" stroke-miterlimit="10" stroke-dasharray="7.68 7.68"/>
<path d="M624 0V4.52" stroke="white" stroke-width="1.92" stroke-miterlimit="10"/>
<path d="M624 18.0781V1118.7" stroke="white" stroke-width="1.92" stroke-miterlimit="10" stroke-dasharray="7.68 7.68"/>
<path d="M528 0V4.52" stroke="white" stroke-width="1.92" stroke-miterlimit="10"/>
<path d="M528 18.0781V1118.7" stroke="white" stroke-width="1.92" stroke-miterlimit="10" stroke-dasharray="7.68 7.68"/>
<path d="M432 0V4.52" stroke="white" stroke-width="1.92" stroke-miterlimit="10"/>
<path d="M432 18.0781V1118.7" stroke="white" stroke-width="1.92" stroke-miterlimit="10" stroke-dasharray="7.68 7.68"/>
<path d="M336 0V4.52" stroke="white" stroke-width="1.92" stroke-miterlimit="10"/>
<path d="M336 18.0781V1118.7" stroke="white" stroke-width="1.92" stroke-miterlimit="10" stroke-dasharray="7.68 7.68"/>
<path d="M240 0V4.52" stroke="white" stroke-width="1.92" stroke-miterlimit="10"/>
<path d="M240 18.0781V1118.7" stroke="white" stroke-width="1.92" stroke-miterlimit="10" stroke-dasharray="7.68 7.68"/>
<path d="M144 0V4.52" stroke="white" stroke-width="1.92" stroke-miterlimit="10"/>
<path d="M144 18.0781V1118.7" stroke="white" stroke-width="1.92" stroke-miterlimit="10" stroke-dasharray="7.68 7.68"/>
<path d="M48 0V4.52" stroke="white" stroke-width="1.92" stroke-miterlimit="10"/>
<path d="M48 18.0781V1118.7" stroke="white" stroke-width="1.92" stroke-miterlimit="10" stroke-dasharray="7.68 7.68"/>
<path d="M1392 0V4.52" stroke="white" stroke-width="1.92" stroke-miterlimit="10"/>
<path d="M1392 18.0781V1118.7" stroke="white" stroke-width="1.92" stroke-miterlimit="10" stroke-dasharray="7.68 7.68"/>
<path d="M1296 0V4.52" stroke="white" stroke-width="1.92" stroke-miterlimit="10"/>
<path d="M1296 18.0781V1118.7" stroke="white" stroke-width="1.92" stroke-miterlimit="10" stroke-dasharray="7.68 7.68"/>
<path d="M1200 0V4.52" stroke="white" stroke-width="1.92" stroke-miterlimit="10"/>
<path d="M1200 18.0781V1118.7" stroke="white" stroke-width="1.92" stroke-miterlimit="10" stroke-dasharray="7.68 7.68"/>
<path d="M1104 0V4.52" stroke="white" stroke-width="1.92" stroke-miterlimit="10"/>
<path d="M1104 18.0781V1118.7" stroke="white" stroke-width="1.92" stroke-miterlimit="10" stroke-dasharray="7.68 7.68"/>
<path d="M1008 0V4.52" stroke="white" stroke-width="1.92" stroke-miterlimit="10"/>
<path d="M1008 18.0781V1118.7" stroke="white" stroke-width="1.92" stroke-miterlimit="10" stroke-dasharray="7.68 7.68"/>
<path d="M0 169.5H3.84" stroke="white" stroke-width="1.92" stroke-miterlimit="10"/>
<path d="M15.3594 169.5H1430.4" stroke="white" stroke-width="1.92" stroke-miterlimit="10" stroke-dasharray="3.84 3.84"/>
<path d="M1436.16 169.5H1440" stroke="white" stroke-width="1.92" stroke-miterlimit="10"/>
<path d="M0 56.5H3.84" stroke="white" stroke-width="1.92" stroke-miterlimit="10"/>
<path d="M15.3594 56.5H1430.4" stroke="white" stroke-width="1.92" stroke-miterlimit="10" stroke-dasharray="3.84 3.84"/>
<path d="M1436.16 56.5H1440" stroke="white" stroke-width="1.92" stroke-miterlimit="10"/>
<path d="M0 282.5H3.84" stroke="white" stroke-width="1.92" stroke-miterlimit="10"/>
<path d="M15.3594 282.5H1430.4" stroke="white" stroke-width="1.92" stroke-miterlimit="10" stroke-dasharray="3.84 3.84"/>
<path d="M1436.16 282.5H1440" stroke="white" stroke-width="1.92" stroke-miterlimit="10"/>
<path d="M0 395.5H3.84" stroke="white" stroke-width="1.92" stroke-miterlimit="10"/>
<path d="M15.3594 395.5H1430.4" stroke="white" stroke-width="1.92" stroke-miterlimit="10" stroke-dasharray="3.84 3.84"/>
<path d="M1436.16 395.5H1440" stroke="white" stroke-width="1.92" stroke-miterlimit="10"/>
<path d="M0 508.5H3.84" stroke="white" stroke-width="1.92" stroke-miterlimit="10"/>
<path d="M15.3594 508.5H1430.4" stroke="white" stroke-width="1.92" stroke-miterlimit="10" stroke-dasharray="3.84 3.84"/>
<path d="M1436.16 508.5H1440" stroke="white" stroke-width="1.92" stroke-miterlimit="10"/>
<path d="M0 621.5H3.84" stroke="white" stroke-width="1.92" stroke-miterlimit="10"/>
<path d="M15.3594 621.5H1430.4" stroke="white" stroke-width="1.92" stroke-miterlimit="10" stroke-dasharray="3.84 3.84"/>
<path d="M1436.16 621.5H1440" stroke="white" stroke-width="1.92" stroke-miterlimit="10"/>
<path d="M0 734.5H3.84" stroke="white" stroke-width="1.92" stroke-miterlimit="10"/>
<path d="M15.3594 734.5H1430.4" stroke="white" stroke-width="1.92" stroke-miterlimit="10" stroke-dasharray="3.84 3.84"/>
<path d="M1436.16 734.5H1440" stroke="white" stroke-width="1.92" stroke-miterlimit="10"/>
<path d="M0 847.5H3.84" stroke="white" stroke-width="1.92" stroke-miterlimit="10"/>
<path d="M15.3594 847.5H1430.4" stroke="white" stroke-width="1.92" stroke-miterlimit="10" stroke-dasharray="3.84 3.84"/>
<path d="M1436.16 847.5H1440" stroke="white" stroke-width="1.92" stroke-miterlimit="10"/>
<path d="M0 960.5H3.84" stroke="white" stroke-width="1.92" stroke-miterlimit="10"/>
<path d="M15.3594 960.5H1430.4" stroke="white" stroke-width="1.92" stroke-miterlimit="10" stroke-dasharray="3.84 3.84"/>
<path d="M1436.16 960.5H1440" stroke="white" stroke-width="1.92" stroke-miterlimit="10"/>
<path d="M0 113H1440" stroke="white" stroke-width="1.92" stroke-miterlimit="10"/>
<path d="M0 226H1440" stroke="white" stroke-width="1.92" stroke-miterlimit="10"/>
<path d="M0 339H1440" stroke="white" stroke-width="1.92" stroke-miterlimit="10"/>
<path d="M0 452H1440" stroke="white" stroke-width="1.92" stroke-miterlimit="10"/>
<path d="M0 565H1440" stroke="white" stroke-width="1.92" stroke-miterlimit="10"/>
<path d="M0 678H1440" stroke="white" stroke-width="1.92" stroke-miterlimit="10"/>
<path d="M0 791H1440" stroke="white" stroke-width="1.92" stroke-miterlimit="10"/>
<path d="M0 904H1440" stroke="white" stroke-width="1.92" stroke-miterlimit="10"/>
<path d="M864 0V1130" stroke="white" stroke-width="1.92" stroke-miterlimit="10"/>
<path d="M768 0V1130" stroke="white" stroke-width="1.92" stroke-miterlimit="10"/>
<path d="M672 0V1130" stroke="white" stroke-width="1.92" stroke-miterlimit="10"/>
<path d="M576 0V1130" stroke="white" stroke-width="1.92" stroke-miterlimit="10"/>
<path d="M480 0V1130" stroke="white" stroke-width="1.92" stroke-miterlimit="10"/>
<path d="M384 0V1130" stroke="white" stroke-width="1.92" stroke-miterlimit="10"/>
<path d="M288 0V1130" stroke="white" stroke-width="1.92" stroke-miterlimit="10"/>
<path d="M192 0V1130" stroke="white" stroke-width="1.92" stroke-miterlimit="10"/>
<path d="M96 0V1130" stroke="white" stroke-width="1.92" stroke-miterlimit="10"/>
<path d="M1344 0V1130" stroke="white" stroke-width="1.92" stroke-miterlimit="10"/>
<path d="M1248 0V1130" stroke="white" stroke-width="1.92" stroke-miterlimit="10"/>
<path d="M1152 0V1130" stroke="white" stroke-width="1.92" stroke-miterlimit="10"/>
<path d="M1056 0V1130" stroke="white" stroke-width="1.92" stroke-miterlimit="10"/>
<path d="M960 0V1130" stroke="white" stroke-width="1.92" stroke-miterlimit="10"/>
</g>
<defs>
<clipPath id="clip0_34887_104061">
<rect width="1440" height="1130" fill="white"/>
</clipPath>
</defs>
</svg>
