<svg width="24" height="24" viewBox="0 0 24 24" fill="none" xmlns="http://www.w3.org/2000/svg">
<path d="M10.0335 11.628C9.68979 11.6283 9.35032 11.7043 9.03927 11.8506C8.72822 11.9969 8.45324 12.2099 8.23386 12.4746C8.01447 12.7392 7.85609 13.0489 7.76996 13.3817C7.68382 13.7145 7.67207 14.0622 7.73554 14.4C7.81976 14.8606 8.03989 15.2855 8.36762 15.62C8.69536 15.9545 9.11567 16.1832 9.57451 16.2768C10.0333 16.3704 10.5097 16.3245 10.9422 16.1451C11.3747 15.9656 11.7437 15.6609 12.0015 15.27C12.2596 14.8848 12.3974 14.4316 12.3975 13.968C12.3903 13.3476 12.143 12.7541 11.7075 12.312C11.4876 12.0929 11.2264 11.9196 10.9391 11.8022C10.6517 11.6848 10.3439 11.6256 10.0335 11.628Z" fill="black"/>
<path d="M12 0C2.4 0 0 2.4 0 12C0 21.6 2.4 24 12 24C21.6 24 24 21.6 24 12C24 2.4 21.6 0 12 0ZM13.278 17.214C12.5303 17.971 11.5429 18.4447 10.4846 18.5542C9.42623 18.6635 8.36277 18.402 7.476 17.814C6.72292 17.3057 6.1348 16.5882 5.784 15.75C5.43907 14.9106 5.34933 13.9881 5.526 13.098C5.70008 12.2065 6.13678 11.3874 6.78 10.746C7.25817 10.2638 7.8371 9.89347 8.4753 9.66145C9.11348 9.42945 9.79512 9.34153 10.4713 9.40405C11.1475 9.46657 11.8014 9.67795 12.3863 10.023C12.9711 10.3681 13.4723 10.8384 13.854 11.4C14.4415 12.2858 14.7029 13.3483 14.5934 14.4056C14.484 15.4629 14.0105 16.4493 13.254 17.196L13.278 17.214ZM18.378 18.378H16.128V7.878H5.628V5.628H18.378V18.378Z" fill="black"/>
</svg>
