<svg width="20" height="20" viewBox="0 0 20 20" fill="none" xmlns="http://www.w3.org/2000/svg">
<path d="M7.08398 11.875C7.08398 13.475 8.40065 14.7917 10.0007 14.7917C11.6007 14.7917 12.9173 13.475 12.9173 11.875" stroke="#6B7280" stroke-width="1.5" stroke-miterlimit="10" stroke-linecap="round" stroke-linejoin="round"/>
<path d="M7.34089 1.66699L4.32422 4.69199" stroke="#6B7280" stroke-width="1.5" stroke-miterlimit="10" stroke-linecap="round" stroke-linejoin="round"/>
<path d="M12.6582 1.66699L15.6749 4.69199" stroke="#6B7280" stroke-width="1.5" stroke-miterlimit="10" stroke-linecap="round" stroke-linejoin="round"/>
<path d="M1.66602 6.54167C1.66602 5 2.49102 4.875 3.51602 4.875H16.4827C17.5077 4.875 18.3327 5 18.3327 6.54167C18.3327 8.33333 17.5077 8.20833 16.4827 8.20833H3.51602C2.49102 8.20833 1.66602 8.33333 1.66602 6.54167Z" stroke="#6B7280" stroke-width="1.5"/>
<path d="M2.91602 8.33301L4.09102 15.533C4.35768 17.1497 4.99935 18.333 7.38268 18.333H12.4077C14.9993 18.333 15.3827 17.1997 15.6827 15.633L17.0827 8.33301" stroke="#6B7280" stroke-width="1.5" stroke-linecap="round"/>
</svg>
