<svg width="549" height="402" viewBox="0 0 549 402" fill="none" xmlns="http://www.w3.org/2000/svg">
<mask id="mask0_34845_108118" style="mask-type:luminance" maskUnits="userSpaceOnUse" x="0" y="0" width="549" height="402">
<path d="M0 401.92L549 401.92V-0.000457764L0 -0.000457764V401.92Z" fill="white"/>
</mask>
<g mask="url(#mask0_34845_108118)">
<path opacity="0.65" d="M3.61511 397.21H0.00390625V400.824H3.61511V397.21Z" fill="#E7EFF7"/>
<path opacity="0.65" d="M9.60729 397.21H5.99609V400.824H9.60729V397.21Z" fill="#E7EFF7"/>
<path opacity="0.65" d="M15.6034 397.21H11.9922V400.824H15.6034V397.21Z" fill="#E7EFF7"/>
<path opacity="0.65" d="M21.5956 397.21H17.9844V400.824H21.5956V397.21Z" fill="#E7EFF7"/>
<path opacity="0.65" d="M39.576 397.21H35.9648V400.824H39.576V397.21Z" fill="#E7EFF7"/>
<path opacity="0.65" d="M45.5682 397.21H41.957V400.824H45.5682V397.21Z" fill="#E7EFF7"/>
<path opacity="0.65" d="M51.5604 397.21H47.9492V400.824H51.5604V397.21Z" fill="#E7EFF7"/>
<path opacity="0.65" d="M57.5565 397.21H53.9453V400.824H57.5565V397.21Z" fill="#E7EFF7"/>
<path opacity="0.65" d="M63.5526 397.21H59.9414V400.824H63.5526V397.21Z" fill="#E7EFF7"/>
<path opacity="0.65" d="M69.5448 397.21H65.9336V400.824H69.5448V397.21Z" fill="#E7EFF7"/>
<path opacity="0.65" d="M81.5292 397.21H77.918V400.824H81.5292V397.21Z" fill="#E7EFF7"/>
<path opacity="0.65" d="M87.5214 397.21H83.9102V400.824H87.5214V397.21Z" fill="#E7EFF7"/>
<path opacity="0.65" d="M93.5174 397.21H89.9062V400.824H93.5174V397.21Z" fill="#E7EFF7"/>
<path opacity="0.65" d="M117.49 397.21H113.879V400.824H117.49V397.21Z" fill="#E7EFF7"/>
<path opacity="0.65" d="M123.482 397.21H119.871V400.824H123.482V397.21Z" fill="#E7EFF7"/>
<path opacity="0.65" d="M129.474 397.21H125.863V400.824H129.474V397.21Z" fill="#E7EFF7"/>
<path opacity="0.65" d="M135.471 397.21H131.859V400.824H135.471V397.21Z" fill="#E7EFF7"/>
<path opacity="0.65" d="M147.455 397.21H143.844V400.824H147.455V397.21Z" fill="#E7EFF7"/>
<path opacity="0.65" d="M159.443 397.21H155.832V400.824H159.443V397.21Z" fill="#E7EFF7"/>
<path opacity="0.65" d="M171.428 397.21H167.816V400.824H171.428V397.21Z" fill="#E7EFF7"/>
<path opacity="0.65" d="M183.416 397.21H179.805V400.824H183.416V397.21Z" fill="#E7EFF7"/>
<path opacity="0.65" d="M195.4 397.21H191.789V400.824H195.4V397.21Z" fill="#E7EFF7"/>
<path opacity="0.65" d="M201.396 397.21H197.785V400.824H201.396V397.21Z" fill="#E7EFF7"/>
<path opacity="0.65" d="M225.373 397.21H221.762V400.824H225.373V397.21Z" fill="#E7EFF7"/>
<path opacity="0.65" d="M231.365 397.21H227.754V400.824H231.365V397.21Z" fill="#E7EFF7"/>
<path opacity="0.65" d="M237.357 397.21H233.746V400.824H237.357V397.21Z" fill="#E7EFF7"/>
<path opacity="0.65" d="M243.349 397.21H239.738V400.824H243.349V397.21Z" fill="#E7EFF7"/>
<path opacity="0.65" d="M249.346 397.21H245.734V400.824H249.346V397.21Z" fill="#E7EFF7"/>
<path opacity="0.65" d="M255.338 397.21H251.727V400.824H255.338V397.21Z" fill="#E7EFF7"/>
<path opacity="0.65" d="M261.33 397.21H257.719V400.824H261.33V397.21Z" fill="#E7EFF7"/>
<path opacity="0.65" d="M3.61511 391.229H0.00390625V394.844H3.61511V391.229Z" fill="#E7EFF7"/>
<path opacity="0.65" d="M21.5956 391.23H17.9844V394.845H21.5956V391.23Z" fill="#E7EFF7"/>
<path opacity="0.65" d="M33.5799 391.23H29.9688V394.845H33.5799V391.23Z" fill="#E7EFF7"/>
<path opacity="0.65" d="M39.576 391.23H35.9648V394.845H39.576V391.23Z" fill="#E7EFF7"/>
<path opacity="0.65" d="M51.5604 391.23H47.9492V394.845H51.5604V391.23Z" fill="#E7EFF7"/>
<path opacity="0.65" d="M69.5448 391.23H65.9336V394.845H69.5448V391.23Z" fill="#E7EFF7"/>
<path opacity="0.65" d="M75.537 391.229H71.9258V394.844H75.537V391.229Z" fill="#E7EFF7"/>
<path opacity="0.65" d="M81.5292 391.23H77.918V394.845H81.5292V391.23Z" fill="#E7EFF7"/>
<path opacity="0.65" d="M87.5214 391.23H83.9102V394.845H87.5214V391.23Z" fill="#E7EFF7"/>
<path opacity="0.65" d="M93.5174 391.23H89.9062V394.845H93.5174V391.23Z" fill="#E7EFF7"/>
<path opacity="0.65" d="M99.5096 391.23H95.8984V394.845H99.5096V391.23Z" fill="#E7EFF7"/>
<path opacity="0.65" d="M105.506 391.23H101.895V394.845H105.506V391.23Z" fill="#E7EFF7"/>
<path opacity="0.65" d="M117.49 391.229H113.879V394.844H117.49V391.229Z" fill="#E7EFF7"/>
<path opacity="0.65" d="M123.482 391.23H119.871V394.845H123.482V391.23Z" fill="#E7EFF7"/>
<path opacity="0.65" d="M147.455 391.23H143.844V394.845H147.455V391.23Z" fill="#E7EFF7"/>
<path opacity="0.65" d="M165.435 391.23H161.824V394.845H165.435V391.23Z" fill="#E7EFF7"/>
<path opacity="0.65" d="M171.428 391.23H167.816V394.845H171.428V391.23Z" fill="#E7EFF7"/>
<path opacity="0.65" d="M177.424 391.23H173.812V394.845H177.424V391.23Z" fill="#E7EFF7"/>
<path opacity="0.65" d="M195.4 391.23H191.789V394.845H195.4V391.23Z" fill="#E7EFF7"/>
<path opacity="0.65" d="M225.373 391.23H221.762V394.845H225.373V391.23Z" fill="#E7EFF7"/>
<path opacity="0.65" d="M231.365 391.23H227.754V394.845H231.365V391.23Z" fill="#E7EFF7"/>
<path opacity="0.65" d="M237.357 391.23H233.746V394.845H237.357V391.23Z" fill="#E7EFF7"/>
<path opacity="0.65" d="M243.349 391.23H239.738V394.845H243.349V391.23Z" fill="#E7EFF7"/>
<path opacity="0.65" d="M261.33 391.23H257.719V394.845H261.33V391.23Z" fill="#E7EFF7"/>
<path opacity="0.5" d="M3.61511 385.25H0.00390625V388.864H3.61511V385.25Z" fill="#E7EFF7"/>
<path opacity="0.5" d="M27.5878 385.25H23.9766V388.864H27.5878V385.25Z" fill="#E7EFF7"/>
<path opacity="0.5" d="M33.5799 385.25H29.9688V388.864H33.5799V385.25Z" fill="#E7EFF7"/>
<path opacity="0.5" d="M51.5604 385.25H47.9492V388.864H51.5604V385.25Z" fill="#E7EFF7"/>
<path opacity="0.5" d="M57.5565 385.25H53.9453V388.864H57.5565V385.25Z" fill="#E7EFF7"/>
<path opacity="0.5" d="M63.5526 385.25H59.9414V388.864H63.5526V385.25Z" fill="#E7EFF7"/>
<path opacity="0.5" d="M69.5448 385.25H65.9336V388.864H69.5448V385.25Z" fill="#E7EFF7"/>
<path opacity="0.5" d="M81.5292 385.25H77.918V388.864H81.5292V385.25Z" fill="#E7EFF7"/>
<path opacity="0.5" d="M87.5214 385.25H83.9102V388.864H87.5214V385.25Z" fill="#E7EFF7"/>
<path opacity="0.5" d="M105.506 385.25H101.895V388.864H105.506V385.25Z" fill="#E7EFF7"/>
<path opacity="0.5" d="M117.49 385.25H113.879V388.864H117.49V385.25Z" fill="#E7EFF7"/>
<path opacity="0.5" d="M123.482 385.25H119.871V388.864H123.482V385.25Z" fill="#E7EFF7"/>
<path opacity="0.5" d="M129.474 385.25H125.863V388.864H129.474V385.25Z" fill="#E7EFF7"/>
<path opacity="0.5" d="M135.471 385.25H131.859V388.864H135.471V385.25Z" fill="#E7EFF7"/>
<path opacity="0.5" d="M159.443 385.25H155.832V388.864H159.443V385.25Z" fill="#E7EFF7"/>
<path opacity="0.5" d="M177.424 385.25H173.812V388.864H177.424V385.25Z" fill="#E7EFF7"/>
<path opacity="0.5" d="M183.416 385.25H179.805V388.864H183.416V385.25Z" fill="#E7EFF7"/>
<path opacity="0.5" d="M195.4 385.25H191.789V388.864H195.4V385.25Z" fill="#E7EFF7"/>
<path opacity="0.5" d="M201.396 385.25H197.785V388.864H201.396V385.25Z" fill="#E7EFF7"/>
<path opacity="0.5" d="M207.389 385.25H203.777V388.864H207.389V385.25Z" fill="#E7EFF7"/>
<path opacity="0.5" d="M219.373 385.25H215.762V388.864H219.373V385.25Z" fill="#E7EFF7"/>
<path opacity="0.5" d="M225.373 385.25H221.762V388.864H225.373V385.25Z" fill="#E7EFF7"/>
<path opacity="0.5" d="M237.357 385.25H233.746V388.864H237.357V385.25Z" fill="#E7EFF7"/>
<path opacity="0.5" d="M243.349 385.25H239.738V388.864H243.349V385.25Z" fill="#E7EFF7"/>
<path opacity="0.5" d="M255.338 385.25H251.727V388.864H255.338V385.25Z" fill="#E7EFF7"/>
<path opacity="0.5" d="M273.318 385.25H269.707V388.864H273.318V385.25Z" fill="#E7EFF7"/>
<path opacity="0.5" d="M27.5878 379.27H23.9766V382.884H27.5878V379.27Z" fill="#E7EFF7"/>
<path opacity="0.5" d="M33.5799 379.27H29.9688V382.884H33.5799V379.27Z" fill="#E7EFF7"/>
<path opacity="0.5" d="M51.5604 379.27H47.9492V382.884H51.5604V379.27Z" fill="#E7EFF7"/>
<path opacity="0.5" d="M69.5448 379.27H65.9336V382.884H69.5448V379.27Z" fill="#E7EFF7"/>
<path opacity="0.5" d="M81.5292 379.27H77.918V382.884H81.5292V379.27Z" fill="#E7EFF7"/>
<path opacity="0.5" d="M87.5214 379.27H83.9102V382.884H87.5214V379.27Z" fill="#E7EFF7"/>
<path opacity="0.5" d="M93.5174 379.27H89.9062V382.884H93.5174V379.27Z" fill="#E7EFF7"/>
<path opacity="0.5" d="M111.498 379.27H107.887V382.884H111.498V379.27Z" fill="#E7EFF7"/>
<path opacity="0.5" d="M129.474 379.27H125.863V382.884H129.474V379.27Z" fill="#E7EFF7"/>
<path opacity="0.5" d="M147.455 379.27H143.844V382.884H147.455V379.27Z" fill="#E7EFF7"/>
<path opacity="0.5" d="M159.443 379.27H155.832V382.884H159.443V379.27Z" fill="#E7EFF7"/>
<path opacity="0.5" d="M165.435 379.27H161.824V382.884H165.435V379.27Z" fill="#E7EFF7"/>
<path opacity="0.5" d="M177.424 379.27H173.812V382.884H177.424V379.27Z" fill="#E7EFF7"/>
<path opacity="0.5" d="M183.416 379.27H179.805V382.884H183.416V379.27Z" fill="#E7EFF7"/>
<path opacity="0.5" d="M195.4 379.27H191.789V382.884H195.4V379.27Z" fill="#E7EFF7"/>
<path opacity="0.5" d="M201.396 379.27H197.785V382.884H201.396V379.27Z" fill="#E7EFF7"/>
<path opacity="0.5" d="M207.389 379.27H203.777V382.884H207.389V379.27Z" fill="#E7EFF7"/>
<path opacity="0.5" d="M213.381 379.27H209.77V382.884H213.381V379.27Z" fill="#E7EFF7"/>
<path opacity="0.5" d="M225.373 379.27H221.762V382.884H225.373V379.27Z" fill="#E7EFF7"/>
<path opacity="0.5" d="M231.365 379.27H227.754V382.884H231.365V379.27Z" fill="#E7EFF7"/>
<path opacity="0.5" d="M237.357 379.27H233.746V382.884H237.357V379.27Z" fill="#E7EFF7"/>
<path opacity="0.5" d="M243.349 379.27H239.738V382.884H243.349V379.27Z" fill="#E7EFF7"/>
<path opacity="0.5" d="M255.338 379.27H251.727V382.884H255.338V379.27Z" fill="#E7EFF7"/>
<path opacity="0.5" d="M261.33 379.27H257.719V382.884H261.33V379.27Z" fill="#E7EFF7"/>
<path opacity="0.5" d="M267.326 379.27H263.715V382.884H267.326V379.27Z" fill="#E7EFF7"/>
<path opacity="0.5" d="M3.61511 373.29H0.00390625V376.904H3.61511V373.29Z" fill="#E7EFF7"/>
<path opacity="0.5" d="M15.6034 373.289H11.9922V376.903H15.6034V373.289Z" fill="#E7EFF7"/>
<path opacity="0.5" d="M21.5956 373.289H17.9844V376.903H21.5956V373.289Z" fill="#E7EFF7"/>
<path opacity="0.5" d="M33.5799 373.289H29.9688V376.903H33.5799V373.289Z" fill="#E7EFF7"/>
<path opacity="0.5" d="M51.5604 373.289H47.9492V376.903H51.5604V373.289Z" fill="#E7EFF7"/>
<path opacity="0.5" d="M63.5526 373.289H59.9414V376.903H63.5526V373.289Z" fill="#E7EFF7"/>
<path opacity="0.5" d="M69.5448 373.289H65.9336V376.903H69.5448V373.289Z" fill="#E7EFF7"/>
<path opacity="0.5" d="M81.5292 373.289H77.918V376.903H81.5292V373.289Z" fill="#E7EFF7"/>
<path opacity="0.5" d="M87.5214 373.289H83.9102V376.903H87.5214V373.289Z" fill="#E7EFF7"/>
<path opacity="0.5" d="M111.498 373.289H107.887V376.903H111.498V373.289Z" fill="#E7EFF7"/>
<path opacity="0.5" d="M123.482 373.289H119.871V376.903H123.482V373.289Z" fill="#E7EFF7"/>
<path opacity="0.5" d="M129.474 373.289H125.863V376.903H129.474V373.289Z" fill="#E7EFF7"/>
<path opacity="0.5" d="M135.471 373.289H131.859V376.903H135.471V373.289Z" fill="#E7EFF7"/>
<path opacity="0.5" d="M141.463 373.29H137.852V376.904H141.463V373.29Z" fill="#E7EFF7"/>
<path opacity="0.5" d="M147.455 373.289H143.844V376.903H147.455V373.289Z" fill="#E7EFF7"/>
<path opacity="0.5" d="M153.451 373.289H149.84V376.903H153.451V373.289Z" fill="#E7EFF7"/>
<path opacity="0.5" d="M165.435 373.289H161.824V376.903H165.435V373.289Z" fill="#E7EFF7"/>
<path opacity="0.5" d="M171.428 373.289H167.816V376.903H171.428V373.289Z" fill="#E7EFF7"/>
<path opacity="0.5" d="M177.424 373.289H173.812V376.903H177.424V373.289Z" fill="#E7EFF7"/>
<path opacity="0.5" d="M183.416 373.29H179.805V376.904H183.416V373.29Z" fill="#E7EFF7"/>
<path opacity="0.5" d="M195.4 373.289H191.789V376.903H195.4V373.289Z" fill="#E7EFF7"/>
<path opacity="0.5" d="M201.396 373.289H197.785V376.903H201.396V373.289Z" fill="#E7EFF7"/>
<path opacity="0.5" d="M207.389 373.29H203.777V376.904H207.389V373.29Z" fill="#E7EFF7"/>
<path opacity="0.5" d="M219.373 373.289H215.762V376.903H219.373V373.289Z" fill="#E7EFF7"/>
<path opacity="0.5" d="M231.365 373.289H227.754V376.903H231.365V373.289Z" fill="#E7EFF7"/>
<path opacity="0.5" d="M237.357 373.289H233.746V376.903H237.357V373.289Z" fill="#E7EFF7"/>
<path opacity="0.5" d="M249.346 373.289H245.734V376.903H249.346V373.289Z" fill="#E7EFF7"/>
<path opacity="0.5" d="M255.338 373.29H251.727V376.904H255.338V373.29Z" fill="#E7EFF7"/>
<path opacity="0.5" d="M261.33 373.289H257.719V376.903H261.33V373.289Z" fill="#E7EFF7"/>
<path opacity="0.5" d="M267.326 373.289H263.715V376.903H267.326V373.289Z" fill="#E7EFF7"/>
<path opacity="0.5" d="M273.318 373.289H269.707V376.903H273.318V373.289Z" fill="#E7EFF7"/>
<path opacity="0.45" d="M3.61511 367.291H0.00390625V370.905H3.61511V367.291Z" fill="#E7EFF7"/>
<path opacity="0.45" d="M9.60729 367.291H5.99609V370.905H9.60729V367.291Z" fill="#E7EFF7"/>
<path opacity="0.45" d="M15.6034 367.291H11.9922V370.905H15.6034V367.291Z" fill="#E7EFF7"/>
<path opacity="0.45" d="M21.5956 367.291H17.9844V370.905H21.5956V367.291Z" fill="#E7EFF7"/>
<path opacity="0.45" d="M39.576 367.295H35.9648V370.909H39.576V367.295Z" fill="#E7EFF7"/>
<path opacity="0.45" d="M45.5682 367.295H41.957V370.909H45.5682V367.295Z" fill="#E7EFF7"/>
<path opacity="0.45" d="M63.5487 367.295H59.9375V370.909H63.5487V367.295Z" fill="#E7EFF7"/>
<path opacity="0.45" d="M69.5409 367.294H65.9297V370.908H69.5409V367.294Z" fill="#E7EFF7"/>
<path opacity="0.45" d="M75.5331 367.297H71.9219V370.911H75.5331V367.297Z" fill="#E7EFF7"/>
<path opacity="0.45" d="M87.5214 367.297H83.9102V370.911H87.5214V367.297Z" fill="#E7EFF7"/>
<path opacity="0.45" d="M93.5174 367.297H89.9062V370.911H93.5174V367.297Z" fill="#E7EFF7"/>
<path opacity="0.45" d="M99.5096 367.297H95.8984V370.911H99.5096V367.297Z" fill="#E7EFF7"/>
<path opacity="0.45" d="M105.506 367.297H101.895V370.911H105.506V367.297Z" fill="#E7EFF7"/>
<path opacity="0.45" d="M111.498 367.297H107.887V370.911H111.498V367.297Z" fill="#E7EFF7"/>
<path opacity="0.45" d="M135.471 367.301H131.859V370.915H135.471V367.301Z" fill="#E7EFF7"/>
<path opacity="0.45" d="M141.463 367.301H137.852V370.915H141.463V367.301Z" fill="#E7EFF7"/>
<path opacity="0.45" d="M153.451 367.301H149.84V370.915H153.451V367.301Z" fill="#E7EFF7"/>
<path opacity="0.45" d="M165.435 367.304H161.824V370.918H165.435V367.304Z" fill="#E7EFF7"/>
<path opacity="0.45" d="M177.424 367.304H173.812V370.918H177.424V367.304Z" fill="#E7EFF7"/>
<path opacity="0.45" d="M195.404 367.304H191.793V370.918H195.404V367.304Z" fill="#E7EFF7"/>
<path opacity="0.45" d="M207.389 367.307H203.777V370.921H207.389V367.307Z" fill="#E7EFF7"/>
<path opacity="0.45" d="M213.381 367.307H209.77V370.921H213.381V367.307Z" fill="#E7EFF7"/>
<path opacity="0.45" d="M219.373 367.307H215.762V370.921H219.373V367.307Z" fill="#E7EFF7"/>
<path opacity="0.45" d="M225.369 367.307H221.758V370.921H225.369V367.307Z" fill="#E7EFF7"/>
<path opacity="0.45" d="M231.361 367.307H227.75V370.921H231.361V367.307Z" fill="#E7EFF7"/>
<path opacity="0.45" d="M237.357 367.307H233.746V370.921H237.357V367.307Z" fill="#E7EFF7"/>
<path opacity="0.45" d="M249.346 367.31H245.734V370.924H249.346V367.31Z" fill="#E7EFF7"/>
<path opacity="0.45" d="M255.338 367.31H251.727V370.924H255.338V367.31Z" fill="#E7EFF7"/>
<path opacity="0.45" d="M273.318 367.31H269.707V370.924H273.318V367.31Z" fill="#E7EFF7"/>
<path opacity="0.4" d="M9.60729 361.311H5.99609V364.925H9.60729V361.311Z" fill="#E7EFF7"/>
<path opacity="0.4" d="M21.5956 361.311H17.9844V364.925H21.5956V361.311Z" fill="#E7EFF7"/>
<path opacity="0.4" d="M39.576 361.314H35.9648V364.929H39.576V361.314Z" fill="#E7EFF7"/>
<path opacity="0.4" d="M63.5526 361.314H59.9414V364.929H63.5526V361.314Z" fill="#E7EFF7"/>
<path opacity="0.4" d="M69.5448 361.314H65.9336V364.929H69.5448V361.314Z" fill="#E7EFF7"/>
<path opacity="0.4" d="M75.537 361.314H71.9258V364.929H75.537V361.314Z" fill="#E7EFF7"/>
<path opacity="0.4" d="M81.5292 361.317H77.918V364.932H81.5292V361.317Z" fill="#E7EFF7"/>
<path opacity="0.4" d="M93.5174 361.317H89.9062V364.932H93.5174V361.317Z" fill="#E7EFF7"/>
<path opacity="0.4" d="M99.5096 361.317H95.8984V364.932H99.5096V361.317Z" fill="#E7EFF7"/>
<path opacity="0.4" d="M117.49 361.317H113.879V364.932H117.49V361.317Z" fill="#E7EFF7"/>
<path opacity="0.4" d="M141.463 361.32H137.852V364.935H141.463V361.32Z" fill="#E7EFF7"/>
<path opacity="0.4" d="M153.451 361.32H149.84V364.935H153.451V361.32Z" fill="#E7EFF7"/>
<path opacity="0.4" d="M165.435 361.323H161.824V364.937H165.435V361.323Z" fill="#E7EFF7"/>
<path opacity="0.4" d="M171.428 361.323H167.816V364.937H171.428V361.323Z" fill="#E7EFF7"/>
<path opacity="0.4" d="M177.424 361.323H173.812V364.937H177.424V361.323Z" fill="#E7EFF7"/>
<path opacity="0.4" d="M183.416 361.323H179.805V364.937H183.416V361.323Z" fill="#E7EFF7"/>
<path opacity="0.4" d="M201.396 361.323H197.785V364.937H201.396V361.323Z" fill="#E7EFF7"/>
<path opacity="0.4" d="M207.389 361.326H203.777V364.94H207.389V361.326Z" fill="#E7EFF7"/>
<path opacity="0.4" d="M213.381 361.326H209.77V364.94H213.381V361.326Z" fill="#E7EFF7"/>
<path opacity="0.4" d="M219.373 361.326H215.762V364.94H219.373V361.326Z" fill="#E7EFF7"/>
<path opacity="0.4" d="M225.373 361.326H221.762V364.94H225.373V361.326Z" fill="#E7EFF7"/>
<path opacity="0.4" d="M231.365 361.326H227.754V364.94H231.365V361.326Z" fill="#E7EFF7"/>
<path opacity="0.4" d="M249.346 361.326H245.734V364.94H249.346V361.326Z" fill="#E7EFF7"/>
<path opacity="0.4" d="M255.338 361.329H251.727V364.943H255.338V361.329Z" fill="#E7EFF7"/>
<path opacity="0.4" d="M261.33 361.33H257.719V364.944H261.33V361.33Z" fill="#E7EFF7"/>
<path opacity="0.4" d="M267.326 361.33H263.715V364.944H267.326V361.33Z" fill="#E7EFF7"/>
<path opacity="0.4" d="M273.318 361.33H269.707V364.944H273.318V361.33Z" fill="#E7EFF7"/>
<path opacity="0.4" d="M3.61511 355.331H0.00390625V358.945H3.61511V355.331Z" fill="#E7EFF7"/>
<path opacity="0.4" d="M9.60729 355.331H5.99609V358.945H9.60729V355.331Z" fill="#E7EFF7"/>
<path opacity="0.4" d="M21.5956 355.331H17.9844V358.945H21.5956V355.331Z" fill="#E7EFF7"/>
<path opacity="0.4" d="M33.5839 355.331H29.9727V358.945H33.5839V355.331Z" fill="#E7EFF7"/>
<path opacity="0.4" d="M39.576 355.334H35.9648V358.948H39.576V355.334Z" fill="#E7EFF7"/>
<path opacity="0.4" d="M45.5721 355.334H41.9609V358.948H45.5721V355.334Z" fill="#E7EFF7"/>
<path opacity="0.4" d="M63.5526 355.334H59.9414V358.948H63.5526V355.334Z" fill="#E7EFF7"/>
<path opacity="0.4" d="M75.537 355.334H71.9258V358.948H75.537V355.334Z" fill="#E7EFF7"/>
<path opacity="0.4" d="M81.5292 355.338H77.918V358.952H81.5292V355.338Z" fill="#E7EFF7"/>
<path opacity="0.4" d="M99.5096 355.338H95.8984V358.952H99.5096V355.338Z" fill="#E7EFF7"/>
<path opacity="0.4" d="M105.506 355.338H101.895V358.952H105.506V355.338Z" fill="#E7EFF7"/>
<path opacity="0.4" d="M111.498 355.338H107.887V358.952H111.498V355.338Z" fill="#E7EFF7"/>
<path opacity="0.4" d="M129.474 355.34H125.863V358.954H129.474V355.34Z" fill="#E7EFF7"/>
<path opacity="0.4" d="M135.471 355.34H131.859V358.954H135.471V355.34Z" fill="#E7EFF7"/>
<path opacity="0.4" d="M141.463 355.34H137.852V358.954H141.463V355.34Z" fill="#E7EFF7"/>
<path opacity="0.4" d="M153.451 355.34H149.84V358.954H153.451V355.34Z" fill="#E7EFF7"/>
<path opacity="0.4" d="M165.435 355.344H161.824V358.958H165.435V355.344Z" fill="#E7EFF7"/>
<path opacity="0.4" d="M171.428 355.344H167.816V358.958H171.428V355.344Z" fill="#E7EFF7"/>
<path opacity="0.4" d="M183.416 355.344H179.805V358.958H183.416V355.344Z" fill="#E7EFF7"/>
<path opacity="0.4" d="M195.4 355.344H191.789V358.958H195.4V355.344Z" fill="#E7EFF7"/>
<path opacity="0.4" d="M201.4 355.344H197.789V358.958H201.4V355.344Z" fill="#E7EFF7"/>
<path opacity="0.4" d="M213.385 355.346H209.773V358.96H213.385V355.346Z" fill="#E7EFF7"/>
<path opacity="0.4" d="M225.373 355.346H221.762V358.96H225.373V355.346Z" fill="#E7EFF7"/>
<path opacity="0.4" d="M237.357 355.346H233.746V358.96H237.357V355.346Z" fill="#E7EFF7"/>
<path opacity="0.4" d="M243.349 355.346H239.738V358.96H243.349V355.346Z" fill="#E7EFF7"/>
<path opacity="0.4" d="M255.338 355.35H251.727V358.964H255.338V355.35Z" fill="#E7EFF7"/>
<path opacity="0.4" d="M267.326 355.35H263.715V358.964H267.326V355.35Z" fill="#E7EFF7"/>
<path opacity="0.4" d="M273.318 355.35H269.707V358.964H273.318V355.35Z" fill="#E7EFF7"/>
<path opacity="0.3" d="M15.6034 349.369H11.9922V352.983H15.6034V349.369Z" fill="#E7EFF7"/>
<path opacity="0.3" d="M27.5878 349.369H23.9766V352.983H27.5878V349.369Z" fill="#E7EFF7"/>
<path opacity="0.3" d="M45.5682 349.369H41.957V352.983H45.5682V349.369Z" fill="#E7EFF7"/>
<path opacity="0.3" d="M57.5565 349.369H53.9453V352.983H57.5565V349.369Z" fill="#E7EFF7"/>
<path opacity="0.3" d="M63.5526 349.369H59.9414V352.983H63.5526V349.369Z" fill="#E7EFF7"/>
<path opacity="0.3" d="M75.537 349.369H71.9258V352.983H75.537V349.369Z" fill="#E7EFF7"/>
<path opacity="0.3" d="M99.5096 349.369H95.8984V352.983H99.5096V349.369Z" fill="#E7EFF7"/>
<path opacity="0.3" d="M111.498 349.369H107.887V352.983H111.498V349.369Z" fill="#E7EFF7"/>
<path opacity="0.3" d="M129.474 349.369H125.863V352.983H129.474V349.369Z" fill="#E7EFF7"/>
<path opacity="0.3" d="M165.435 349.369H161.824V352.983H165.435V349.369Z" fill="#E7EFF7"/>
<path opacity="0.3" d="M177.424 349.369H173.812V352.983H177.424V349.369Z" fill="#E7EFF7"/>
<path opacity="0.3" d="M189.408 349.369H185.797V352.983H189.408V349.369Z" fill="#E7EFF7"/>
<path opacity="0.3" d="M195.4 349.369H191.789V352.983H195.4V349.369Z" fill="#E7EFF7"/>
<path opacity="0.3" d="M201.396 349.369H197.785V352.983H201.396V349.369Z" fill="#E7EFF7"/>
<path opacity="0.3" d="M213.381 349.369H209.77V352.983H213.381V349.369Z" fill="#E7EFF7"/>
<path opacity="0.3" d="M225.373 349.369H221.762V352.983H225.373V349.369Z" fill="#E7EFF7"/>
<path opacity="0.3" d="M231.365 349.369H227.754V352.983H231.365V349.369Z" fill="#E7EFF7"/>
<path opacity="0.3" d="M255.338 349.369H251.727V352.983H255.338V349.369Z" fill="#E7EFF7"/>
<path opacity="0.3" d="M3.61511 343.39H0.00390625V347.004H3.61511V343.39Z" fill="#E7EFF7"/>
<path opacity="0.3" d="M9.60729 343.389H5.99609V347.003H9.60729V343.389Z" fill="#E7EFF7"/>
<path opacity="0.3" d="M15.6034 343.389H11.9922V347.003H15.6034V343.389Z" fill="#E7EFF7"/>
<path opacity="0.3" d="M21.5956 343.389H17.9844V347.003H21.5956V343.389Z" fill="#E7EFF7"/>
<path opacity="0.3" d="M39.576 343.389H35.9648V347.003H39.576V343.389Z" fill="#E7EFF7"/>
<path opacity="0.3" d="M45.5682 343.389H41.957V347.003H45.5682V343.389Z" fill="#E7EFF7"/>
<path opacity="0.3" d="M63.5526 343.389H59.9414V347.003H63.5526V343.389Z" fill="#E7EFF7"/>
<path opacity="0.3" d="M69.5448 343.389H65.9336V347.003H69.5448V343.389Z" fill="#E7EFF7"/>
<path opacity="0.3" d="M75.537 343.39H71.9258V347.004H75.537V343.39Z" fill="#E7EFF7"/>
<path opacity="0.3" d="M81.5292 343.389H77.918V347.003H81.5292V343.389Z" fill="#E7EFF7"/>
<path opacity="0.3" d="M93.5174 343.389H89.9062V347.003H93.5174V343.389Z" fill="#E7EFF7"/>
<path opacity="0.3" d="M111.498 343.389H107.887V347.003H111.498V343.389Z" fill="#E7EFF7"/>
<path opacity="0.3" d="M129.474 343.389H125.863V347.003H129.474V343.389Z" fill="#E7EFF7"/>
<path opacity="0.3" d="M135.471 343.389H131.859V347.003H135.471V343.389Z" fill="#E7EFF7"/>
<path opacity="0.3" d="M153.451 343.389H149.84V347.003H153.451V343.389Z" fill="#E7EFF7"/>
<path opacity="0.3" d="M159.443 343.389H155.832V347.003H159.443V343.389Z" fill="#E7EFF7"/>
<path opacity="0.3" d="M165.435 343.389H161.824V347.003H165.435V343.389Z" fill="#E7EFF7"/>
<path opacity="0.3" d="M177.424 343.389H173.812V347.003H177.424V343.389Z" fill="#E7EFF7"/>
<path opacity="0.3" d="M201.396 343.389H197.785V347.003H201.396V343.389Z" fill="#E7EFF7"/>
<path opacity="0.3" d="M267.326 343.389H263.715V347.003H267.326V343.389Z" fill="#E7EFF7"/>
<path opacity="0.3" d="M273.318 343.389H269.707V347.003H273.318V343.389Z" fill="#E7EFF7"/>
<path opacity="0.25" d="M3.61511 337.409H0.00390625V341.023H3.61511V337.409Z" fill="#E7EFF7"/>
<path opacity="0.25" d="M9.60729 337.409H5.99609V341.023H9.60729V337.409Z" fill="#E7EFF7"/>
<path opacity="0.25" d="M15.6034 337.409H11.9922V341.023H15.6034V337.409Z" fill="#E7EFF7"/>
<path opacity="0.25" d="M39.576 337.409H35.9648V341.023H39.576V337.409Z" fill="#E7EFF7"/>
<path opacity="0.25" d="M45.5682 337.409H41.957V341.023H45.5682V337.409Z" fill="#E7EFF7"/>
<path opacity="0.25" d="M51.5604 337.409H47.9492V341.023H51.5604V337.409Z" fill="#E7EFF7"/>
<path opacity="0.25" d="M57.5565 337.409H53.9453V341.023H57.5565V337.409Z" fill="#E7EFF7"/>
<path opacity="0.25" d="M75.537 337.409H71.9258V341.023H75.537V337.409Z" fill="#E7EFF7"/>
<path opacity="0.25" d="M81.5292 337.409H77.918V341.023H81.5292V337.409Z" fill="#E7EFF7"/>
<path opacity="0.25" d="M93.5174 337.409H89.9062V341.023H93.5174V337.409Z" fill="#E7EFF7"/>
<path opacity="0.25" d="M99.5096 337.409H95.8984V341.023H99.5096V337.409Z" fill="#E7EFF7"/>
<path opacity="0.25" d="M111.498 337.409H107.887V341.023H111.498V337.409Z" fill="#E7EFF7"/>
<path opacity="0.25" d="M117.49 337.409H113.879V341.023H117.49V337.409Z" fill="#E7EFF7"/>
<path opacity="0.25" d="M123.482 337.409H119.871V341.023H123.482V337.409Z" fill="#E7EFF7"/>
<path opacity="0.25" d="M129.474 337.409H125.863V341.023H129.474V337.409Z" fill="#E7EFF7"/>
<path opacity="0.25" d="M141.463 337.409H137.852V341.023H141.463V337.409Z" fill="#E7EFF7"/>
<path opacity="0.25" d="M153.451 337.409H149.84V341.023H153.451V337.409Z" fill="#E7EFF7"/>
<path opacity="0.25" d="M165.435 337.409H161.824V341.023H165.435V337.409Z" fill="#E7EFF7"/>
<path opacity="0.25" d="M177.424 337.409H173.812V341.023H177.424V337.409Z" fill="#E7EFF7"/>
<path opacity="0.25" d="M195.4 337.409H191.789V341.023H195.4V337.409Z" fill="#E7EFF7"/>
<path opacity="0.25" d="M201.396 337.409H197.785V341.023H201.396V337.409Z" fill="#E7EFF7"/>
<path opacity="0.25" d="M213.381 337.409H209.77V341.023H213.381V337.409Z" fill="#E7EFF7"/>
<path opacity="0.25" d="M219.373 337.409H215.762V341.023H219.373V337.409Z" fill="#E7EFF7"/>
<path opacity="0.25" d="M243.349 337.409H239.738V341.023H243.349V337.409Z" fill="#E7EFF7"/>
<path opacity="0.25" d="M273.318 337.409H269.707V341.023H273.318V337.409Z" fill="#E7EFF7"/>
<path opacity="0.25" d="M3.61511 331.429H0.00390625V335.043H3.61511V331.429Z" fill="#E7EFF7"/>
<path opacity="0.25" d="M21.5956 331.43H17.9844V335.044H21.5956V331.43Z" fill="#E7EFF7"/>
<path opacity="0.25" d="M27.5878 331.43H23.9766V335.044H27.5878V331.43Z" fill="#E7EFF7"/>
<path opacity="0.25" d="M33.5799 331.43H29.9688V335.044H33.5799V331.43Z" fill="#E7EFF7"/>
<path opacity="0.25" d="M45.5682 331.43H41.957V335.044H45.5682V331.43Z" fill="#E7EFF7"/>
<path opacity="0.25" d="M63.5526 331.43H59.9414V335.044H63.5526V331.43Z" fill="#E7EFF7"/>
<path opacity="0.25" d="M69.5448 331.43H65.9336V335.044H69.5448V331.43Z" fill="#E7EFF7"/>
<path opacity="0.25" d="M93.5174 331.43H89.9062V335.044H93.5174V331.43Z" fill="#E7EFF7"/>
<path opacity="0.25" d="M111.498 331.43H107.887V335.044H111.498V331.43Z" fill="#E7EFF7"/>
<path opacity="0.25" d="M123.482 331.43H119.871V335.044H123.482V331.43Z" fill="#E7EFF7"/>
<path opacity="0.25" d="M129.474 331.43H125.863V335.044H129.474V331.43Z" fill="#E7EFF7"/>
<path opacity="0.25" d="M141.463 331.429H137.852V335.043H141.463V331.429Z" fill="#E7EFF7"/>
<path opacity="0.25" d="M159.443 331.43H155.832V335.044H159.443V331.43Z" fill="#E7EFF7"/>
<path opacity="0.25" d="M165.435 331.43H161.824V335.044H165.435V331.43Z" fill="#E7EFF7"/>
<path opacity="0.25" d="M171.428 331.43H167.816V335.044H171.428V331.43Z" fill="#E7EFF7"/>
<path opacity="0.25" d="M189.408 331.43H185.797V335.044H189.408V331.43Z" fill="#E7EFF7"/>
<path opacity="0.25" d="M195.4 331.43H191.789V335.044H195.4V331.43Z" fill="#E7EFF7"/>
<path opacity="0.25" d="M213.381 331.43H209.77V335.044H213.381V331.43Z" fill="#E7EFF7"/>
<path opacity="0.25" d="M225.373 331.43H221.762V335.044H225.373V331.43Z" fill="#E7EFF7"/>
<path opacity="0.25" d="M249.346 331.43H245.734V335.044H249.346V331.43Z" fill="#E7EFF7"/>
<path opacity="0.25" d="M267.326 331.43H263.715V335.044H267.326V331.43Z" fill="#E7EFF7"/>
<path opacity="0.25" d="M9.60729 325.449H5.99609V329.063H9.60729V325.449Z" fill="#E7EFF7"/>
<path opacity="0.25" d="M15.6034 325.449H11.9922V329.063H15.6034V325.449Z" fill="#E7EFF7"/>
<path opacity="0.25" d="M21.5956 325.449H17.9844V329.063H21.5956V325.449Z" fill="#E7EFF7"/>
<path opacity="0.25" d="M27.5878 325.449H23.9766V329.063H27.5878V325.449Z" fill="#E7EFF7"/>
<path opacity="0.25" d="M39.576 325.449H35.9648V329.063H39.576V325.449Z" fill="#E7EFF7"/>
<path opacity="0.25" d="M45.5682 325.449H41.957V329.063H45.5682V325.449Z" fill="#E7EFF7"/>
<path opacity="0.25" d="M63.5526 325.449H59.9414V329.063H63.5526V325.449Z" fill="#E7EFF7"/>
<path opacity="0.25" d="M81.5292 325.449H77.918V329.063H81.5292V325.449Z" fill="#E7EFF7"/>
<path opacity="0.25" d="M99.5096 325.449H95.8984V329.063H99.5096V325.449Z" fill="#E7EFF7"/>
<path opacity="0.25" d="M117.49 325.449H113.879V329.063H117.49V325.449Z" fill="#E7EFF7"/>
<path opacity="0.25" d="M141.463 325.449H137.852V329.063H141.463V325.449Z" fill="#E7EFF7"/>
<path opacity="0.25" d="M165.435 325.449H161.824V329.063H165.435V325.449Z" fill="#E7EFF7"/>
<path opacity="0.25" d="M171.428 325.449H167.816V329.063H171.428V325.449Z" fill="#E7EFF7"/>
<path opacity="0.25" d="M201.396 325.449H197.785V329.063H201.396V325.449Z" fill="#E7EFF7"/>
<path opacity="0.25" d="M225.373 325.449H221.762V329.063H225.373V325.449Z" fill="#E7EFF7"/>
<path opacity="0.25" d="M249.346 325.449H245.734V329.063H249.346V325.449Z" fill="#E7EFF7"/>
<path opacity="0.2" d="M3.61511 319.469H0.00390625V323.083H3.61511V319.469Z" fill="#E7EFF7"/>
<path opacity="0.2" d="M9.60729 319.469H5.99609V323.083H9.60729V319.469Z" fill="#E7EFF7"/>
<path opacity="0.2" d="M21.5956 319.469H17.9844V323.083H21.5956V319.469Z" fill="#E7EFF7"/>
<path opacity="0.2" d="M27.5878 319.469H23.9766V323.083H27.5878V319.469Z" fill="#E7EFF7"/>
<path opacity="0.2" d="M33.5799 319.469H29.9688V323.083H33.5799V319.469Z" fill="#E7EFF7"/>
<path opacity="0.2" d="M45.5682 319.469H41.957V323.083H45.5682V319.469Z" fill="#E7EFF7"/>
<path opacity="0.2" d="M63.5526 319.469H59.9414V323.083H63.5526V319.469Z" fill="#E7EFF7"/>
<path opacity="0.2" d="M93.5174 319.469H89.9062V323.083H93.5174V319.469Z" fill="#E7EFF7"/>
<path opacity="0.2" d="M99.5096 319.469H95.8984V323.083H99.5096V319.469Z" fill="#E7EFF7"/>
<path opacity="0.2" d="M117.49 319.469H113.879V323.083H117.49V319.469Z" fill="#E7EFF7"/>
<path opacity="0.2" d="M129.474 319.469H125.863V323.083H129.474V319.469Z" fill="#E7EFF7"/>
<path opacity="0.2" d="M147.455 319.469H143.844V323.083H147.455V319.469Z" fill="#E7EFF7"/>
<path opacity="0.2" d="M159.443 319.469H155.832V323.083H159.443V319.469Z" fill="#E7EFF7"/>
<path opacity="0.2" d="M183.416 319.469H179.805V323.083H183.416V319.469Z" fill="#E7EFF7"/>
<path opacity="0.2" d="M195.4 319.469H191.789V323.083H195.4V319.469Z" fill="#E7EFF7"/>
<path opacity="0.2" d="M213.381 319.469H209.77V323.083H213.381V319.469Z" fill="#E7EFF7"/>
<path opacity="0.2" d="M219.373 319.469H215.762V323.083H219.373V319.469Z" fill="#E7EFF7"/>
<path opacity="0.2" d="M243.349 319.469H239.738V323.083H243.349V319.469Z" fill="#E7EFF7"/>
<path opacity="0.2" d="M249.346 319.469H245.734V323.083H249.346V319.469Z" fill="#E7EFF7"/>
<path opacity="0.2" d="M255.338 319.469H251.727V323.083H255.338V319.469Z" fill="#E7EFF7"/>
<path opacity="0.2" d="M261.33 319.469H257.719V323.083H261.33V319.469Z" fill="#E7EFF7"/>
<path opacity="0.2" d="M9.60729 313.488H5.99609V317.103H9.60729V313.488Z" fill="#E7EFF7"/>
<path opacity="0.2" d="M21.5956 313.488H17.9844V317.103H21.5956V313.488Z" fill="#E7EFF7"/>
<path opacity="0.2" d="M33.5799 313.488H29.9688V317.103H33.5799V313.488Z" fill="#E7EFF7"/>
<path opacity="0.2" d="M45.5682 313.488H41.957V317.103H45.5682V313.488Z" fill="#E7EFF7"/>
<path opacity="0.2" d="M51.5604 313.488H47.9492V317.103H51.5604V313.488Z" fill="#E7EFF7"/>
<path opacity="0.2" d="M57.5565 313.488H53.9453V317.103H57.5565V313.488Z" fill="#E7EFF7"/>
<path opacity="0.2" d="M63.5526 313.488H59.9414V317.103H63.5526V313.488Z" fill="#E7EFF7"/>
<path opacity="0.2" d="M75.537 313.488H71.9258V317.103H75.537V313.488Z" fill="#E7EFF7"/>
<path opacity="0.2" d="M93.5174 313.488H89.9062V317.103H93.5174V313.488Z" fill="#E7EFF7"/>
<path opacity="0.2" d="M117.49 313.488H113.879V317.103H117.49V313.488Z" fill="#E7EFF7"/>
<path opacity="0.2" d="M123.482 313.488H119.871V317.103H123.482V313.488Z" fill="#E7EFF7"/>
<path opacity="0.2" d="M129.474 313.488H125.863V317.103H129.474V313.488Z" fill="#E7EFF7"/>
<path opacity="0.2" d="M147.455 313.488H143.844V317.103H147.455V313.488Z" fill="#E7EFF7"/>
<path opacity="0.2" d="M159.443 313.488H155.832V317.103H159.443V313.488Z" fill="#E7EFF7"/>
<path opacity="0.2" d="M165.435 313.488H161.824V317.103H165.435V313.488Z" fill="#E7EFF7"/>
<path opacity="0.2" d="M177.424 313.488H173.812V317.103H177.424V313.488Z" fill="#E7EFF7"/>
<path opacity="0.2" d="M195.4 313.488H191.789V317.103H195.4V313.488Z" fill="#E7EFF7"/>
<path opacity="0.2" d="M201.396 313.488H197.785V317.103H201.396V313.488Z" fill="#E7EFF7"/>
<path opacity="0.2" d="M261.33 313.488H257.719V317.103H261.33V313.488Z" fill="#E7EFF7"/>
<path opacity="0.1" d="M267.326 313.488H263.715V317.103H267.326V313.488Z" fill="#E7EFF7"/>
<path opacity="0.2" d="M3.61511 307.509H0.00390625V311.123H3.61511V307.509Z" fill="#E7EFF7"/>
<path opacity="0.2" d="M9.60729 307.509H5.99609V311.123H9.60729V307.509Z" fill="#E7EFF7"/>
<path opacity="0.2" d="M21.5956 307.509H17.9844V311.123H21.5956V307.509Z" fill="#E7EFF7"/>
<path opacity="0.2" d="M33.5799 307.509H29.9688V311.123H33.5799V307.509Z" fill="#E7EFF7"/>
<path opacity="0.2" d="M39.576 307.509H35.9648V311.123H39.576V307.509Z" fill="#E7EFF7"/>
<path opacity="0.2" d="M57.5565 307.509H53.9453V311.123H57.5565V307.509Z" fill="#E7EFF7"/>
<path opacity="0.2" d="M81.5292 307.509H77.918V311.123H81.5292V307.509Z" fill="#E7EFF7"/>
<path opacity="0.2" d="M129.474 307.509H125.863V311.123H129.474V307.509Z" fill="#E7EFF7"/>
<path opacity="0.2" d="M141.463 307.509H137.852V311.123H141.463V307.509Z" fill="#E7EFF7"/>
<path opacity="0.2" d="M165.435 307.509H161.824V311.123H165.435V307.509Z" fill="#E7EFF7"/>
<path opacity="0.2" d="M171.428 307.509H167.816V311.123H171.428V307.509Z" fill="#E7EFF7"/>
<path opacity="0.2" d="M201.396 307.509H197.785V311.123H201.396V307.509Z" fill="#E7EFF7"/>
<path opacity="0.2" d="M207.389 307.509H203.777V311.123H207.389V307.509Z" fill="#E7EFF7"/>
<path opacity="0.2" d="M219.373 307.509H215.762V311.123H219.373V307.509Z" fill="#E7EFF7"/>
<path opacity="0.1" d="M225.373 307.509H221.762V311.123H225.373V307.509Z" fill="#E7EFF7"/>
<path opacity="0.1" d="M243.349 307.509H239.738V311.123H243.349V307.509Z" fill="#E7EFF7"/>
<path opacity="0.2" d="M255.338 307.509H251.727V311.123H255.338V307.509Z" fill="#E7EFF7"/>
<path opacity="0.1" d="M267.326 307.509H263.715V311.123H267.326V307.509Z" fill="#E7EFF7"/>
<path opacity="0.2" d="M3.61511 301.528H0.00390625V305.143H3.61511V301.528Z" fill="#E7EFF7"/>
<path opacity="0.2" d="M15.6034 301.529H11.9922V305.144H15.6034V301.529Z" fill="#E7EFF7"/>
<path opacity="0.2" d="M21.5956 301.529H17.9844V305.144H21.5956V301.529Z" fill="#E7EFF7"/>
<path opacity="0.2" d="M27.5878 301.529H23.9766V305.144H27.5878V301.529Z" fill="#E7EFF7"/>
<path opacity="0.2" d="M45.5682 301.529H41.957V305.144H45.5682V301.529Z" fill="#E7EFF7"/>
<path opacity="0.2" d="M51.5604 301.529H47.9492V305.144H51.5604V301.529Z" fill="#E7EFF7"/>
<path opacity="0.2" d="M63.5526 301.529H59.9414V305.144H63.5526V301.529Z" fill="#E7EFF7"/>
<path opacity="0.2" d="M69.5448 301.529H65.9336V305.144H69.5448V301.529Z" fill="#E7EFF7"/>
<path opacity="0.2" d="M75.537 301.528H71.9258V305.143H75.537V301.528Z" fill="#E7EFF7"/>
<path opacity="0.2" d="M81.5292 301.529H77.918V305.144H81.5292V301.529Z" fill="#E7EFF7"/>
<path opacity="0.2" d="M87.5214 301.529H83.9102V305.144H87.5214V301.529Z" fill="#E7EFF7"/>
<path opacity="0.2" d="M111.498 301.529H107.887V305.144H111.498V301.529Z" fill="#E7EFF7"/>
<path opacity="0.2" d="M117.49 301.528H113.879V305.143H117.49V301.528Z" fill="#E7EFF7"/>
<path opacity="0.2" d="M141.463 301.528H137.852V305.143H141.463V301.528Z" fill="#E7EFF7"/>
<path opacity="0.2" d="M147.455 301.529H143.844V305.144H147.455V301.529Z" fill="#E7EFF7"/>
<path opacity="0.2" d="M165.435 301.529H161.824V305.144H165.435V301.529Z" fill="#E7EFF7"/>
<path opacity="0.2" d="M183.416 301.528H179.805V305.143H183.416V301.528Z" fill="#E7EFF7"/>
<path opacity="0.2" d="M213.381 301.529H209.77V305.144H213.381V301.529Z" fill="#E7EFF7"/>
<path opacity="0.1" d="M255.338 301.528H251.727V305.143H255.338V301.528Z" fill="#E7EFF7"/>
<path opacity="0.15" d="M3.61511 295.549H0.00390625V299.163H3.61511V295.549Z" fill="#E7EFF7"/>
<path opacity="0.15" d="M15.6034 295.549H11.9922V299.163H15.6034V295.549Z" fill="#E7EFF7"/>
<path opacity="0.15" d="M33.5799 295.549H29.9688V299.163H33.5799V295.549Z" fill="#E7EFF7"/>
<path opacity="0.15" d="M39.576 295.549H35.9648V299.163H39.576V295.549Z" fill="#E7EFF7"/>
<path opacity="0.15" d="M51.5604 295.549H47.9492V299.163H51.5604V295.549Z" fill="#E7EFF7"/>
<path opacity="0.15" d="M57.5565 295.549H53.9453V299.163H57.5565V295.549Z" fill="#E7EFF7"/>
<path opacity="0.15" d="M63.5526 295.549H59.9414V299.163H63.5526V295.549Z" fill="#E7EFF7"/>
<path opacity="0.15" d="M81.5292 295.549H77.918V299.163H81.5292V295.549Z" fill="#E7EFF7"/>
<path opacity="0.15" d="M99.5096 295.549H95.8984V299.163H99.5096V295.549Z" fill="#E7EFF7"/>
<path opacity="0.15" d="M147.455 295.549H143.844V299.163H147.455V295.549Z" fill="#E7EFF7"/>
<path opacity="0.15" d="M153.451 295.549H149.84V299.163H153.451V295.549Z" fill="#E7EFF7"/>
<path opacity="0.15" d="M159.443 295.549H155.832V299.163H159.443V295.549Z" fill="#E7EFF7"/>
<path opacity="0.15" d="M177.424 295.549H173.812V299.163H177.424V295.549Z" fill="#E7EFF7"/>
<path opacity="0.15" d="M207.389 295.549H203.777V299.163H207.389V295.549Z" fill="#E7EFF7"/>
<path opacity="0.05" d="M261.33 295.549H257.719V299.163H261.33V295.549Z" fill="#E7EFF7"/>
<path opacity="0.15" d="M21.5956 289.568H17.9844V293.183H21.5956V289.568Z" fill="#E7EFF7"/>
<path opacity="0.15" d="M33.5799 289.568H29.9688V293.183H33.5799V289.568Z" fill="#E7EFF7"/>
<path opacity="0.15" d="M69.5448 289.568H65.9336V293.183H69.5448V289.568Z" fill="#E7EFF7"/>
<path opacity="0.15" d="M75.537 289.568H71.9258V293.183H75.537V289.568Z" fill="#E7EFF7"/>
<path opacity="0.15" d="M87.5214 289.568H83.9102V293.183H87.5214V289.568Z" fill="#E7EFF7"/>
<path opacity="0.15" d="M93.5174 289.568H89.9062V293.183H93.5174V289.568Z" fill="#E7EFF7"/>
<path opacity="0.15" d="M111.498 289.568H107.887V293.183H111.498V289.568Z" fill="#E7EFF7"/>
<path opacity="0.15" d="M117.49 289.568H113.879V293.183H117.49V289.568Z" fill="#E7EFF7"/>
<path opacity="0.15" d="M123.482 289.568H119.871V293.183H123.482V289.568Z" fill="#E7EFF7"/>
<path opacity="0.15" d="M153.451 289.568H149.84V293.183H153.451V289.568Z" fill="#E7EFF7"/>
<path opacity="0.15" d="M165.435 289.568H161.824V293.183H165.435V289.568Z" fill="#E7EFF7"/>
<path opacity="0.15" d="M177.424 289.568H173.812V293.183H177.424V289.568Z" fill="#E7EFF7"/>
<path opacity="0.15" d="M189.408 289.568H185.797V293.183H189.408V289.568Z" fill="#E7EFF7"/>
<path opacity="0.15" d="M201.396 289.568H197.785V293.183H201.396V289.568Z" fill="#E7EFF7"/>
<path opacity="0.15" d="M219.373 289.568H215.762V293.183H219.373V289.568Z" fill="#E7EFF7"/>
<path opacity="0.1" d="M225.373 289.568H221.762V293.183H225.373V289.568Z" fill="#E7EFF7"/>
<path opacity="0.15" d="M3.61511 283.588H0.00390625V287.202H3.61511V283.588Z" fill="#E7EFF7"/>
<path opacity="0.15" d="M9.60729 283.588H5.99609V287.202H9.60729V283.588Z" fill="#E7EFF7"/>
<path opacity="0.15" d="M15.6034 283.588H11.9922V287.202H15.6034V283.588Z" fill="#E7EFF7"/>
<path opacity="0.15" d="M21.5956 283.588H17.9844V287.202H21.5956V283.588Z" fill="#E7EFF7"/>
<path opacity="0.15" d="M33.5799 283.588H29.9688V287.202H33.5799V283.588Z" fill="#E7EFF7"/>
<path opacity="0.15" d="M51.5604 283.588H47.9492V287.202H51.5604V283.588Z" fill="#E7EFF7"/>
<path opacity="0.15" d="M57.5565 283.588H53.9453V287.202H57.5565V283.588Z" fill="#E7EFF7"/>
<path opacity="0.15" d="M63.5526 283.588H59.9414V287.202H63.5526V283.588Z" fill="#E7EFF7"/>
<path opacity="0.15" d="M69.5448 283.588H65.9336V287.202H69.5448V283.588Z" fill="#E7EFF7"/>
<path opacity="0.15" d="M81.5292 283.588H77.918V287.202H81.5292V283.588Z" fill="#E7EFF7"/>
<path opacity="0.15" d="M87.5214 283.588H83.9102V287.202H87.5214V283.588Z" fill="#E7EFF7"/>
<path opacity="0.15" d="M129.474 283.588H125.863V287.202H129.474V283.588Z" fill="#E7EFF7"/>
<path opacity="0.15" d="M147.455 283.588H143.844V287.202H147.455V283.588Z" fill="#E7EFF7"/>
<path opacity="0.15" d="M189.408 283.588H185.797V287.202H189.408V283.588Z" fill="#E7EFF7"/>
<path opacity="0.15" d="M195.4 283.588H191.789V287.202H195.4V283.588Z" fill="#E7EFF7"/>
<path opacity="0.05" d="M219.373 283.588H215.762V287.202H219.373V283.588Z" fill="#E7EFF7"/>
<path opacity="0.15" d="M9.60729 277.605H5.99609V281.22H9.60729V277.605Z" fill="#E7EFF7"/>
<path opacity="0.15" d="M21.5956 277.605H17.9844V281.22H21.5956V277.605Z" fill="#E7EFF7"/>
<path opacity="0.15" d="M33.5799 277.605H29.9688V281.22H33.5799V277.605Z" fill="#E7EFF7"/>
<path opacity="0.15" d="M69.5448 277.605H65.9336V281.22H69.5448V277.605Z" fill="#E7EFF7"/>
<path opacity="0.15" d="M93.5174 277.605H89.9062V281.22H93.5174V277.605Z" fill="#E7EFF7"/>
<path opacity="0.15" d="M117.49 277.605H113.879V281.22H117.49V277.605Z" fill="#E7EFF7"/>
<path opacity="0.15" d="M129.474 277.605H125.863V281.22H129.474V277.605Z" fill="#E7EFF7"/>
<path opacity="0.15" d="M141.463 277.605H137.852V281.22H141.463V277.605Z" fill="#E7EFF7"/>
<path opacity="0.15" d="M153.451 277.605H149.84V281.22H153.451V277.605Z" fill="#E7EFF7"/>
<path opacity="0.15" d="M177.424 277.605H173.812V281.22H177.424V277.605Z" fill="#E7EFF7"/>
<path opacity="0.15" d="M195.4 277.605H191.789V281.22H195.4V277.605Z" fill="#E7EFF7"/>
<path opacity="0.15" d="M3.61511 271.625H0.00390625V275.239H3.61511V271.625Z" fill="#E7EFF7"/>
<path opacity="0.15" d="M15.6034 271.625H11.9922V275.239H15.6034V271.625Z" fill="#E7EFF7"/>
<path opacity="0.15" d="M57.5565 271.625H53.9453V275.239H57.5565V271.625Z" fill="#E7EFF7"/>
<path opacity="0.15" d="M63.5526 271.625H59.9414V275.239H63.5526V271.625Z" fill="#E7EFF7"/>
<path opacity="0.15" d="M93.5174 271.625H89.9062V275.239H93.5174V271.625Z" fill="#E7EFF7"/>
<path opacity="0.15" d="M123.482 271.625H119.871V275.239H123.482V271.625Z" fill="#E7EFF7"/>
<path opacity="0.15" d="M159.443 271.625H155.832V275.239H159.443V271.625Z" fill="#E7EFF7"/>
<path opacity="0.15" d="M183.416 271.625H179.805V275.239H183.416V271.625Z" fill="#E7EFF7"/>
<path opacity="0.1" d="M3.61511 265.645H0.00390625V269.259H3.61511V265.645Z" fill="#E7EFF7"/>
<path opacity="0.1" d="M39.576 265.645H35.9648V269.259H39.576V265.645Z" fill="#E7EFF7"/>
<path opacity="0.1" d="M57.5565 265.645H53.9453V269.259H57.5565V265.645Z" fill="#E7EFF7"/>
<path opacity="0.1" d="M63.5526 265.645H59.9414V269.259H63.5526V265.645Z" fill="#E7EFF7"/>
<path opacity="0.1" d="M81.5292 265.645H77.918V269.259H81.5292V265.645Z" fill="#E7EFF7"/>
<path opacity="0.1" d="M93.5174 265.645H89.9062V269.259H93.5174V265.645Z" fill="#E7EFF7"/>
<path opacity="0.1" d="M141.463 265.645H137.852V269.259H141.463V265.645Z" fill="#E7EFF7"/>
<path opacity="0.1" d="M165.435 265.645H161.824V269.259H165.435V265.645Z" fill="#E7EFF7"/>
<path opacity="0.1" d="M3.61511 259.665H0.00390625V263.279H3.61511V259.665Z" fill="#E7EFF7"/>
<path opacity="0.1" d="M15.6034 259.665H11.9922V263.279H15.6034V259.665Z" fill="#E7EFF7"/>
<path opacity="0.1" d="M21.5956 259.665H17.9844V263.279H21.5956V259.665Z" fill="#E7EFF7"/>
<path opacity="0.1" d="M39.576 259.665H35.9648V263.279H39.576V259.665Z" fill="#E7EFF7"/>
<path opacity="0.1" d="M57.5565 259.665H53.9453V263.279H57.5565V259.665Z" fill="#E7EFF7"/>
<path opacity="0.1" d="M81.5292 259.665H77.918V263.279H81.5292V259.665Z" fill="#E7EFF7"/>
<path opacity="0.1" d="M99.5096 259.665H95.8984V263.279H99.5096V259.665Z" fill="#E7EFF7"/>
<path opacity="0.1" d="M123.482 259.665H119.871V263.279H123.482V259.665Z" fill="#E7EFF7"/>
<path opacity="0.1" d="M189.408 259.665H185.797V263.279H189.408V259.665Z" fill="#E7EFF7"/>
<path opacity="0.1" d="M15.6034 253.686H11.9922V257.3H15.6034V253.686Z" fill="#E7EFF7"/>
<path opacity="0.1" d="M63.5526 253.686H59.9414V257.3H63.5526V253.686Z" fill="#E7EFF7"/>
<path opacity="0.1" d="M75.537 253.685H71.9258V257.299H75.537V253.685Z" fill="#E7EFF7"/>
<path opacity="0.1" d="M93.5174 253.686H89.9062V257.3H93.5174V253.686Z" fill="#E7EFF7"/>
<path opacity="0.1" d="M147.455 253.686H143.844V257.3H147.455V253.686Z" fill="#E7EFF7"/>
<path opacity="0.1" d="M3.61511 247.705H0.00390625V251.319H3.61511V247.705Z" fill="#E7EFF7"/>
<path opacity="0.1" d="M21.5956 247.705H17.9844V251.319H21.5956V247.705Z" fill="#E7EFF7"/>
<path opacity="0.1" d="M39.576 247.705H35.9648V251.319H39.576V247.705Z" fill="#E7EFF7"/>
<path opacity="0.1" d="M63.5526 247.705H59.9414V251.319H63.5526V247.705Z" fill="#E7EFF7"/>
<path opacity="0.1" d="M69.5448 247.705H65.9336V251.319H69.5448V247.705Z" fill="#E7EFF7"/>
<path opacity="0.1" d="M81.5292 247.705H77.918V251.319H81.5292V247.705Z" fill="#E7EFF7"/>
<path opacity="0.1" d="M123.482 247.705H119.871V251.319H123.482V247.705Z" fill="#E7EFF7"/>
<path opacity="0.1" d="M141.463 247.705H137.852V251.319H141.463V247.705Z" fill="#E7EFF7"/>
<path opacity="0.05" d="M177.424 247.705H173.812V251.319H177.424V247.705Z" fill="#E7EFF7"/>
<path opacity="0.1" d="M63.5526 241.725H59.9414V245.339H63.5526V241.725Z" fill="#E7EFF7"/>
<path opacity="0.1" d="M3.61511 235.744H0.00390625V239.358H3.61511V235.744Z" fill="#E7EFF7"/>
<path opacity="0.1" d="M21.5956 235.744H17.9844V239.358H21.5956V235.744Z" fill="#E7EFF7"/>
<path opacity="0.1" d="M81.5292 235.744H77.918V239.358H81.5292V235.744Z" fill="#E7EFF7"/>
<path opacity="0.1" d="M21.5956 223.784H17.9844V227.398H21.5956V223.784Z" fill="#E7EFF7"/>
<path opacity="0.65" d="M279.307 397.21H275.695V400.824H279.307V397.21Z" fill="#E7EFF7"/>
<path opacity="0.65" d="M297.283 397.21H293.672V400.824H297.283V397.21Z" fill="#E7EFF7"/>
<path opacity="0.65" d="M303.279 397.21H299.668V400.824H303.279V397.21Z" fill="#E7EFF7"/>
<path opacity="0.65" d="M309.271 397.21H305.66V400.824H309.271V397.21Z" fill="#E7EFF7"/>
<path opacity="0.65" d="M321.256 397.21H317.645V400.824H321.256V397.21Z" fill="#E7EFF7"/>
<path opacity="0.65" d="M327.252 397.21H323.641V400.824H327.252V397.21Z" fill="#E7EFF7"/>
<path opacity="0.65" d="M345.232 397.21H341.621V400.824H345.232V397.21Z" fill="#E7EFF7"/>
<path opacity="0.65" d="M375.197 397.21H371.586V400.824H375.197V397.21Z" fill="#E7EFF7"/>
<path opacity="0.65" d="M399.17 397.21H395.559V400.824H399.17V397.21Z" fill="#E7EFF7"/>
<path opacity="0.65" d="M405.162 397.21H401.551V400.824H405.162V397.21Z" fill="#E7EFF7"/>
<path opacity="0.65" d="M417.15 397.21H413.539V400.824H417.15V397.21Z" fill="#E7EFF7"/>
<path opacity="0.65" d="M423.142 397.21H419.531V400.824H423.142V397.21Z" fill="#E7EFF7"/>
<path opacity="0.65" d="M429.139 397.21H425.527V400.824H429.139V397.21Z" fill="#E7EFF7"/>
<path opacity="0.65" d="M441.127 397.21H437.516V400.824H441.127V397.21Z" fill="#E7EFF7"/>
<path opacity="0.65" d="M459.103 397.21H455.492V400.824H459.103V397.21Z" fill="#E7EFF7"/>
<path opacity="0.65" d="M471.092 397.21H467.48V400.824H471.092V397.21Z" fill="#E7EFF7"/>
<path opacity="0.65" d="M489.072 397.21H485.461V400.824H489.072V397.21Z" fill="#E7EFF7"/>
<path opacity="0.65" d="M507.053 397.21H503.441V400.824H507.053V397.21Z" fill="#E7EFF7"/>
<path opacity="0.65" d="M513.045 397.21H509.434V400.824H513.045V397.21Z" fill="#E7EFF7"/>
<path opacity="0.65" d="M525.029 397.21H521.418V400.824H525.029V397.21Z" fill="#E7EFF7"/>
<path opacity="0.65" d="M531.025 397.21H527.414V400.824H531.025V397.21Z" fill="#E7EFF7"/>
<path opacity="0.65" d="M549.006 397.21H545.395V400.824H549.006V397.21Z" fill="#E7EFF7"/>
<path opacity="0.65" d="M279.307 391.23H275.695V394.845H279.307V391.23Z" fill="#E7EFF7"/>
<path opacity="0.65" d="M285.299 391.23H281.688V394.845H285.299V391.23Z" fill="#E7EFF7"/>
<path opacity="0.65" d="M297.283 391.23H293.672V394.845H297.283V391.23Z" fill="#E7EFF7"/>
<path opacity="0.65" d="M303.279 391.23H299.668V394.845H303.279V391.23Z" fill="#E7EFF7"/>
<path opacity="0.65" d="M309.271 391.23H305.66V394.845H309.271V391.23Z" fill="#E7EFF7"/>
<path opacity="0.65" d="M315.264 391.23H311.652V394.845H315.264V391.23Z" fill="#E7EFF7"/>
<path opacity="0.65" d="M327.252 391.23H323.641V394.845H327.252V391.23Z" fill="#E7EFF7"/>
<path opacity="0.65" d="M333.244 391.229H329.633V394.844H333.244V391.229Z" fill="#E7EFF7"/>
<path opacity="0.65" d="M351.225 391.23H347.613V394.845H351.225V391.23Z" fill="#E7EFF7"/>
<path opacity="0.65" d="M357.217 391.229H353.605V394.844H357.217V391.229Z" fill="#E7EFF7"/>
<path opacity="0.65" d="M369.201 391.23H365.59V394.845H369.201V391.23Z" fill="#E7EFF7"/>
<path opacity="0.65" d="M375.197 391.23H371.586V394.845H375.197V391.23Z" fill="#E7EFF7"/>
<path opacity="0.65" d="M399.17 391.229H395.559V394.844H399.17V391.229Z" fill="#E7EFF7"/>
<path opacity="0.65" d="M423.142 391.229H419.531V394.844H423.142V391.229Z" fill="#E7EFF7"/>
<path opacity="0.65" d="M429.139 391.23H425.527V394.845H429.139V391.23Z" fill="#E7EFF7"/>
<path opacity="0.65" d="M435.131 391.23H431.52V394.845H435.131V391.23Z" fill="#E7EFF7"/>
<path opacity="0.65" d="M447.119 391.23H443.508V394.845H447.119V391.23Z" fill="#E7EFF7"/>
<path opacity="0.65" d="M453.111 391.23H449.5V394.845H453.111V391.23Z" fill="#E7EFF7"/>
<path opacity="0.65" d="M459.103 391.23H455.492V394.845H459.103V391.23Z" fill="#E7EFF7"/>
<path opacity="0.65" d="M471.092 391.229H467.48V394.844H471.092V391.229Z" fill="#E7EFF7"/>
<path opacity="0.65" d="M495.064 391.23H491.453V394.845H495.064V391.23Z" fill="#E7EFF7"/>
<path opacity="0.65" d="M501.057 391.23H497.445V394.845H501.057V391.23Z" fill="#E7EFF7"/>
<path opacity="0.65" d="M507.053 391.23H503.441V394.845H507.053V391.23Z" fill="#E7EFF7"/>
<path opacity="0.65" d="M531.025 391.23H527.414V394.845H531.025V391.23Z" fill="#E7EFF7"/>
<path opacity="0.5" d="M279.307 385.25H275.695V388.864H279.307V385.25Z" fill="#E7EFF7"/>
<path opacity="0.5" d="M285.299 385.25H281.688V388.864H285.299V385.25Z" fill="#E7EFF7"/>
<path opacity="0.5" d="M291.291 385.25H287.68V388.864H291.291V385.25Z" fill="#E7EFF7"/>
<path opacity="0.5" d="M303.279 385.25H299.668V388.864H303.279V385.25Z" fill="#E7EFF7"/>
<path opacity="0.5" d="M309.271 385.25H305.66V388.864H309.271V385.25Z" fill="#E7EFF7"/>
<path opacity="0.5" d="M315.264 385.25H311.652V388.864H315.264V385.25Z" fill="#E7EFF7"/>
<path opacity="0.5" d="M327.252 385.25H323.641V388.864H327.252V385.25Z" fill="#E7EFF7"/>
<path opacity="0.5" d="M357.217 385.25H353.605V388.864H357.217V385.25Z" fill="#E7EFF7"/>
<path opacity="0.5" d="M381.189 385.25H377.578V388.864H381.189V385.25Z" fill="#E7EFF7"/>
<path opacity="0.5" d="M399.17 385.25H395.559V388.864H399.17V385.25Z" fill="#E7EFF7"/>
<path opacity="0.5" d="M411.154 385.25H407.543V388.864H411.154V385.25Z" fill="#E7EFF7"/>
<path opacity="0.5" d="M423.142 385.25H419.531V388.864H423.142V385.25Z" fill="#E7EFF7"/>
<path opacity="0.5" d="M435.131 385.25H431.52V388.864H435.131V385.25Z" fill="#E7EFF7"/>
<path opacity="0.5" d="M441.127 385.25H437.516V388.864H441.127V385.25Z" fill="#E7EFF7"/>
<path opacity="0.5" d="M447.119 385.25H443.508V388.864H447.119V385.25Z" fill="#E7EFF7"/>
<path opacity="0.5" d="M453.111 385.25H449.5V388.864H453.111V385.25Z" fill="#E7EFF7"/>
<path opacity="0.5" d="M459.103 385.25H455.492V388.864H459.103V385.25Z" fill="#E7EFF7"/>
<path opacity="0.5" d="M471.092 385.25H467.48V388.864H471.092V385.25Z" fill="#E7EFF7"/>
<path opacity="0.5" d="M489.072 385.25H485.461V388.864H489.072V385.25Z" fill="#E7EFF7"/>
<path opacity="0.5" d="M507.053 385.25H503.441V388.864H507.053V385.25Z" fill="#E7EFF7"/>
<path opacity="0.5" d="M513.045 385.25H509.434V388.864H513.045V385.25Z" fill="#E7EFF7"/>
<path opacity="0.5" d="M525.029 385.25H521.418V388.864H525.029V385.25Z" fill="#E7EFF7"/>
<path opacity="0.5" d="M549.006 385.25H545.395V388.864H549.006V385.25Z" fill="#E7EFF7"/>
<path opacity="0.5" d="M285.299 379.27H281.688V382.884H285.299V379.27Z" fill="#E7EFF7"/>
<path opacity="0.5" d="M303.279 379.27H299.668V382.884H303.279V379.27Z" fill="#E7EFF7"/>
<path opacity="0.5" d="M309.271 379.27H305.66V382.884H309.271V379.27Z" fill="#E7EFF7"/>
<path opacity="0.5" d="M315.264 379.27H311.652V382.884H315.264V379.27Z" fill="#E7EFF7"/>
<path opacity="0.5" d="M327.252 379.27H323.641V382.884H327.252V379.27Z" fill="#E7EFF7"/>
<path opacity="0.5" d="M333.244 379.27H329.633V382.884H333.244V379.27Z" fill="#E7EFF7"/>
<path opacity="0.5" d="M351.225 379.27H347.613V382.884H351.225V379.27Z" fill="#E7EFF7"/>
<path opacity="0.5" d="M357.217 379.27H353.605V382.884H357.217V379.27Z" fill="#E7EFF7"/>
<path opacity="0.5" d="M369.201 379.27H365.59V382.884H369.201V379.27Z" fill="#E7EFF7"/>
<path opacity="0.5" d="M375.197 379.27H371.586V382.884H375.197V379.27Z" fill="#E7EFF7"/>
<path opacity="0.5" d="M381.189 379.27H377.578V382.884H381.189V379.27Z" fill="#E7EFF7"/>
<path opacity="0.5" d="M393.178 379.27H389.566V382.884H393.178V379.27Z" fill="#E7EFF7"/>
<path opacity="0.5" d="M423.142 379.27H419.531V382.884H423.142V379.27Z" fill="#E7EFF7"/>
<path opacity="0.5" d="M435.131 379.27H431.52V382.884H435.131V379.27Z" fill="#E7EFF7"/>
<path opacity="0.5" d="M441.127 379.27H437.516V382.884H441.127V379.27Z" fill="#E7EFF7"/>
<path opacity="0.5" d="M447.119 379.27H443.508V382.884H447.119V379.27Z" fill="#E7EFF7"/>
<path opacity="0.5" d="M459.103 379.27H455.492V382.884H459.103V379.27Z" fill="#E7EFF7"/>
<path opacity="0.5" d="M477.084 379.27H473.473V382.884H477.084V379.27Z" fill="#E7EFF7"/>
<path opacity="0.5" d="M483.08 379.27H479.469V382.884H483.08V379.27Z" fill="#E7EFF7"/>
<path opacity="0.5" d="M495.064 379.27H491.453V382.884H495.064V379.27Z" fill="#E7EFF7"/>
<path opacity="0.5" d="M501.057 379.27H497.445V382.884H501.057V379.27Z" fill="#E7EFF7"/>
<path opacity="0.5" d="M513.045 379.27H509.434V382.884H513.045V379.27Z" fill="#E7EFF7"/>
<path opacity="0.5" d="M525.029 379.27H521.418V382.884H525.029V379.27Z" fill="#E7EFF7"/>
<path opacity="0.5" d="M537.017 379.27H533.406V382.884H537.017V379.27Z" fill="#E7EFF7"/>
<path opacity="0.5" d="M549.006 379.27H545.395V382.884H549.006V379.27Z" fill="#E7EFF7"/>
<path opacity="0.5" d="M279.307 373.289H275.695V376.903H279.307V373.289Z" fill="#E7EFF7"/>
<path opacity="0.5" d="M285.299 373.289H281.688V376.903H285.299V373.289Z" fill="#E7EFF7"/>
<path opacity="0.5" d="M309.271 373.289H305.66V376.903H309.271V373.289Z" fill="#E7EFF7"/>
<path opacity="0.5" d="M327.252 373.289H323.641V376.903H327.252V373.289Z" fill="#E7EFF7"/>
<path opacity="0.5" d="M333.244 373.29H329.633V376.904H333.244V373.29Z" fill="#E7EFF7"/>
<path opacity="0.5" d="M351.225 373.289H347.613V376.903H351.225V373.289Z" fill="#E7EFF7"/>
<path opacity="0.5" d="M369.201 373.289H365.59V376.903H369.201V373.289Z" fill="#E7EFF7"/>
<path opacity="0.5" d="M381.189 373.289H377.578V376.903H381.189V373.289Z" fill="#E7EFF7"/>
<path opacity="0.5" d="M387.185 373.289H383.574V376.903H387.185V373.289Z" fill="#E7EFF7"/>
<path opacity="0.5" d="M393.178 373.289H389.566V376.903H393.178V373.289Z" fill="#E7EFF7"/>
<path opacity="0.5" d="M399.17 373.29H395.559V376.904H399.17V373.29Z" fill="#E7EFF7"/>
<path opacity="0.5" d="M405.162 373.289H401.551V376.903H405.162V373.289Z" fill="#E7EFF7"/>
<path opacity="0.5" d="M447.119 373.289H443.508V376.903H447.119V373.289Z" fill="#E7EFF7"/>
<path opacity="0.5" d="M453.111 373.289H449.5V376.903H453.111V373.289Z" fill="#E7EFF7"/>
<path opacity="0.5" d="M459.103 373.289H455.492V376.903H459.103V373.289Z" fill="#E7EFF7"/>
<path opacity="0.5" d="M471.092 373.29H467.48V376.904H471.092V373.29Z" fill="#E7EFF7"/>
<path opacity="0.5" d="M477.084 373.289H473.473V376.903H477.084V373.289Z" fill="#E7EFF7"/>
<path opacity="0.5" d="M483.08 373.289H479.469V376.903H483.08V373.289Z" fill="#E7EFF7"/>
<path opacity="0.5" d="M489.072 373.289H485.461V376.903H489.072V373.289Z" fill="#E7EFF7"/>
<path opacity="0.5" d="M513.045 373.289H509.434V376.903H513.045V373.289Z" fill="#E7EFF7"/>
<path opacity="0.5" d="M525.029 373.289H521.418V376.903H525.029V373.289Z" fill="#E7EFF7"/>
<path opacity="0.5" d="M531.025 373.289H527.414V376.903H531.025V373.289Z" fill="#E7EFF7"/>
<path opacity="0.5" d="M549.006 373.289H545.395V376.903H549.006V373.289Z" fill="#E7EFF7"/>
<path opacity="0.45" d="M303.279 367.312H299.668V370.927H303.279V367.312Z" fill="#E7EFF7"/>
<path opacity="0.45" d="M309.271 367.312H305.66V370.927H309.271V367.312Z" fill="#E7EFF7"/>
<path opacity="0.45" d="M327.252 367.312H323.641V370.927H327.252V367.312Z" fill="#E7EFF7"/>
<path opacity="0.45" d="M345.232 367.315H341.621V370.93H345.232V367.315Z" fill="#E7EFF7"/>
<path opacity="0.45" d="M351.225 367.315H347.613V370.93H351.225V367.315Z" fill="#E7EFF7"/>
<path opacity="0.45" d="M357.217 367.315H353.605V370.93H357.217V367.315Z" fill="#E7EFF7"/>
<path opacity="0.45" d="M369.201 367.315H365.59V370.93H369.201V367.315Z" fill="#E7EFF7"/>
<path opacity="0.45" d="M387.185 367.318H383.574V370.933H387.185V367.318Z" fill="#E7EFF7"/>
<path opacity="0.45" d="M399.17 367.318H395.559V370.933H399.17V367.318Z" fill="#E7EFF7"/>
<path opacity="0.45" d="M405.162 367.318H401.551V370.933H405.162V367.318Z" fill="#E7EFF7"/>
<path opacity="0.45" d="M411.154 367.318H407.543V370.933H411.154V367.318Z" fill="#E7EFF7"/>
<path opacity="0.45" d="M423.142 367.321H419.531V370.936H423.142V367.321Z" fill="#E7EFF7"/>
<path opacity="0.45" d="M429.135 367.322H425.523V370.937H429.135V367.322Z" fill="#E7EFF7"/>
<path opacity="0.45" d="M435.131 367.322H431.52V370.937H435.131V367.322Z" fill="#E7EFF7"/>
<path opacity="0.45" d="M441.123 367.322H437.512V370.937H441.123V367.322Z" fill="#E7EFF7"/>
<path opacity="0.45" d="M447.115 367.322H443.504V370.937H447.115V367.322Z" fill="#E7EFF7"/>
<path opacity="0.45" d="M477.084 367.324H473.473V370.938H477.084V367.324Z" fill="#E7EFF7"/>
<path opacity="0.45" d="M483.08 367.324H479.469V370.938H483.08V367.324Z" fill="#E7EFF7"/>
<path opacity="0.45" d="M489.072 367.324H485.461V370.938H489.072V367.324Z" fill="#E7EFF7"/>
<path opacity="0.45" d="M501.057 367.324H497.445V370.938H501.057V367.324Z" fill="#E7EFF7"/>
<path opacity="0.45" d="M513.045 367.328H509.434V370.942H513.045V367.328Z" fill="#E7EFF7"/>
<path opacity="0.45" d="M537.017 367.328H533.406V370.942H537.017V367.328Z" fill="#E7EFF7"/>
<path opacity="0.45" d="M543.01 367.328H539.398V370.942H543.01V367.328Z" fill="#E7EFF7"/>
<path opacity="0.4" d="M279.307 361.33H275.695V364.944H279.307V361.33Z" fill="#E7EFF7"/>
<path opacity="0.4" d="M285.299 361.33H281.688V364.944H285.299V361.33Z" fill="#E7EFF7"/>
<path opacity="0.4" d="M303.279 361.332H299.668V364.946H303.279V361.332Z" fill="#E7EFF7"/>
<path opacity="0.4" d="M309.271 361.332H305.66V364.946H309.271V361.332Z" fill="#E7EFF7"/>
<path opacity="0.4" d="M315.264 361.332H311.652V364.946H315.264V361.332Z" fill="#E7EFF7"/>
<path opacity="0.4" d="M327.252 361.332H323.641V364.946H327.252V361.332Z" fill="#E7EFF7"/>
<path opacity="0.4" d="M333.244 361.332H329.633V364.946H333.244V361.332Z" fill="#E7EFF7"/>
<path opacity="0.4" d="M357.217 361.336H353.605V364.95H357.217V361.336Z" fill="#E7EFF7"/>
<path opacity="0.4" d="M375.197 361.336H371.586V364.95H375.197V361.336Z" fill="#E7EFF7"/>
<path opacity="0.4" d="M381.189 361.338H377.578V364.952H381.189V361.338Z" fill="#E7EFF7"/>
<path opacity="0.4" d="M411.154 361.338H407.543V364.952H411.154V361.338Z" fill="#E7EFF7"/>
<path opacity="0.4" d="M429.139 361.342H425.527V364.956H429.139V361.342Z" fill="#E7EFF7"/>
<path opacity="0.4" d="M447.119 361.342H443.508V364.956H447.119V361.342Z" fill="#E7EFF7"/>
<path opacity="0.4" d="M453.111 361.342H449.5V364.956H453.111V361.342Z" fill="#E7EFF7"/>
<path opacity="0.4" d="M459.103 361.342H455.492V364.956H459.103V361.342Z" fill="#E7EFF7"/>
<path opacity="0.4" d="M471.092 361.345H467.48V364.959H471.092V361.345Z" fill="#E7EFF7"/>
<path opacity="0.4" d="M477.084 361.345H473.473V364.959H477.084V361.345Z" fill="#E7EFF7"/>
<path opacity="0.4" d="M489.072 361.345H485.461V364.959H489.072V361.345Z" fill="#E7EFF7"/>
<path opacity="0.4" d="M501.057 361.345H497.445V364.959H501.057V361.345Z" fill="#E7EFF7"/>
<path opacity="0.4" d="M507.053 361.345H503.441V364.959H507.053V361.345Z" fill="#E7EFF7"/>
<path opacity="0.4" d="M513.045 361.348H509.434V364.962H513.045V361.348Z" fill="#E7EFF7"/>
<path opacity="0.4" d="M525.029 361.348H521.418V364.962H525.029V361.348Z" fill="#E7EFF7"/>
<path opacity="0.4" d="M531.025 361.348H527.414V364.962H531.025V361.348Z" fill="#E7EFF7"/>
<path opacity="0.4" d="M537.017 361.348H533.406V364.962H537.017V361.348Z" fill="#E7EFF7"/>
<path opacity="0.4" d="M543.01 361.348H539.398V364.962H543.01V361.348Z" fill="#E7EFF7"/>
<path opacity="0.4" d="M549.006 361.348H545.395V364.962H549.006V361.348Z" fill="#E7EFF7"/>
<path opacity="0.4" d="M279.303 355.35H275.691V358.964H279.303V355.35Z" fill="#E7EFF7"/>
<path opacity="0.4" d="M291.291 355.35H287.68V358.964H291.291V355.35Z" fill="#E7EFF7"/>
<path opacity="0.4" d="M303.279 355.353H299.668V358.967H303.279V355.353Z" fill="#E7EFF7"/>
<path opacity="0.4" d="M315.264 355.353H311.652V358.967H315.264V355.353Z" fill="#E7EFF7"/>
<path opacity="0.4" d="M327.252 355.353H323.641V358.967H327.252V355.353Z" fill="#E7EFF7"/>
<path opacity="0.4" d="M333.244 355.353H329.633V358.967H333.244V355.353Z" fill="#E7EFF7"/>
<path opacity="0.4" d="M339.236 355.355H335.625V358.97H339.236V355.355Z" fill="#E7EFF7"/>
<path opacity="0.4" d="M345.232 355.355H341.621V358.97H345.232V355.355Z" fill="#E7EFF7"/>
<path opacity="0.4" d="M351.225 355.355H347.613V358.97H351.225V355.355Z" fill="#E7EFF7"/>
<path opacity="0.4" d="M369.201 355.355H365.59V358.97H369.201V355.355Z" fill="#E7EFF7"/>
<path opacity="0.4" d="M375.197 355.355H371.586V358.97H375.197V355.355Z" fill="#E7EFF7"/>
<path opacity="0.4" d="M381.189 355.355H377.578V358.97H381.189V355.355Z" fill="#E7EFF7"/>
<path opacity="0.4" d="M387.185 355.358H383.574V358.973H387.185V355.358Z" fill="#E7EFF7"/>
<path opacity="0.4" d="M399.17 355.358H395.559V358.973H399.17V355.358Z" fill="#E7EFF7"/>
<path opacity="0.4" d="M405.166 355.358H401.555V358.973H405.166V355.358Z" fill="#E7EFF7"/>
<path opacity="0.4" d="M435.131 355.361H431.52V358.976H435.131V355.361Z" fill="#E7EFF7"/>
<path opacity="0.4" d="M441.127 355.361H437.516V358.976H441.127V355.361Z" fill="#E7EFF7"/>
<path opacity="0.4" d="M453.111 355.361H449.5V358.976H453.111V355.361Z" fill="#E7EFF7"/>
<path opacity="0.4" d="M483.08 355.365H479.469V358.979H483.08V355.365Z" fill="#E7EFF7"/>
<path opacity="0.4" d="M501.057 355.365H497.445V358.979H501.057V355.365Z" fill="#E7EFF7"/>
<path opacity="0.4" d="M513.045 355.367H509.434V358.981H513.045V355.367Z" fill="#E7EFF7"/>
<path opacity="0.4" d="M525.029 355.367H521.418V358.981H525.029V355.367Z" fill="#E7EFF7"/>
<path opacity="0.4" d="M543.01 355.367H539.398V358.981H543.01V355.367Z" fill="#E7EFF7"/>
<path opacity="0.4" d="M549.006 355.367H545.395V358.981H549.006V355.367Z" fill="#E7EFF7"/>
<path opacity="0.3" d="M279.307 349.369H275.695V352.983H279.307V349.369Z" fill="#E7EFF7"/>
<path opacity="0.3" d="M297.283 349.369H293.672V352.983H297.283V349.369Z" fill="#E7EFF7"/>
<path opacity="0.3" d="M303.279 349.369H299.668V352.983H303.279V349.369Z" fill="#E7EFF7"/>
<path opacity="0.3" d="M315.264 349.369H311.652V352.983H315.264V349.369Z" fill="#E7EFF7"/>
<path opacity="0.3" d="M339.236 349.369H335.625V352.983H339.236V349.369Z" fill="#E7EFF7"/>
<path opacity="0.3" d="M345.232 349.369H341.621V352.983H345.232V349.369Z" fill="#E7EFF7"/>
<path opacity="0.3" d="M357.217 349.369H353.605V352.983H357.217V349.369Z" fill="#E7EFF7"/>
<path opacity="0.3" d="M375.197 349.369H371.586V352.983H375.197V349.369Z" fill="#E7EFF7"/>
<path opacity="0.3" d="M387.185 349.369H383.574V352.983H387.185V349.369Z" fill="#E7EFF7"/>
<path opacity="0.3" d="M393.178 349.369H389.566V352.983H393.178V349.369Z" fill="#E7EFF7"/>
<path opacity="0.3" d="M399.17 349.369H395.559V352.983H399.17V349.369Z" fill="#E7EFF7"/>
<path opacity="0.3" d="M411.154 349.369H407.543V352.983H411.154V349.369Z" fill="#E7EFF7"/>
<path opacity="0.3" d="M423.142 349.369H419.531V352.983H423.142V349.369Z" fill="#E7EFF7"/>
<path opacity="0.3" d="M429.139 349.369H425.527V352.983H429.139V349.369Z" fill="#E7EFF7"/>
<path opacity="0.3" d="M435.131 349.369H431.52V352.983H435.131V349.369Z" fill="#E7EFF7"/>
<path opacity="0.3" d="M441.127 349.369H437.516V352.983H441.127V349.369Z" fill="#E7EFF7"/>
<path opacity="0.3" d="M447.119 349.369H443.508V352.983H447.119V349.369Z" fill="#E7EFF7"/>
<path opacity="0.3" d="M453.111 349.369H449.5V352.983H453.111V349.369Z" fill="#E7EFF7"/>
<path opacity="0.3" d="M459.103 349.369H455.492V352.983H459.103V349.369Z" fill="#E7EFF7"/>
<path opacity="0.3" d="M471.092 349.369H467.48V352.983H471.092V349.369Z" fill="#E7EFF7"/>
<path opacity="0.3" d="M483.08 349.369H479.469V352.983H483.08V349.369Z" fill="#E7EFF7"/>
<path opacity="0.3" d="M489.072 349.369H485.461V352.983H489.072V349.369Z" fill="#E7EFF7"/>
<path opacity="0.3" d="M501.057 349.369H497.445V352.983H501.057V349.369Z" fill="#E7EFF7"/>
<path opacity="0.3" d="M519.037 349.369H515.426V352.983H519.037V349.369Z" fill="#E7EFF7"/>
<path opacity="0.3" d="M537.017 349.369H533.406V352.983H537.017V349.369Z" fill="#E7EFF7"/>
<path opacity="0.3" d="M291.291 343.39H287.68V347.004H291.291V343.39Z" fill="#E7EFF7"/>
<path opacity="0.3" d="M303.279 343.389H299.668V347.003H303.279V343.389Z" fill="#E7EFF7"/>
<path opacity="0.3" d="M309.271 343.389H305.66V347.003H309.271V343.389Z" fill="#E7EFF7"/>
<path opacity="0.3" d="M315.264 343.389H311.652V347.003H315.264V343.389Z" fill="#E7EFF7"/>
<path opacity="0.3" d="M327.252 343.389H323.641V347.003H327.252V343.389Z" fill="#E7EFF7"/>
<path opacity="0.3" d="M333.244 343.39H329.633V347.004H333.244V343.39Z" fill="#E7EFF7"/>
<path opacity="0.3" d="M339.236 343.389H335.625V347.003H339.236V343.389Z" fill="#E7EFF7"/>
<path opacity="0.3" d="M345.232 343.389H341.621V347.003H345.232V343.389Z" fill="#E7EFF7"/>
<path opacity="0.3" d="M351.225 343.389H347.613V347.003H351.225V343.389Z" fill="#E7EFF7"/>
<path opacity="0.3" d="M369.201 343.389H365.59V347.003H369.201V343.389Z" fill="#E7EFF7"/>
<path opacity="0.3" d="M375.197 343.389H371.586V347.003H375.197V343.389Z" fill="#E7EFF7"/>
<path opacity="0.3" d="M381.189 343.389H377.578V347.003H381.189V343.389Z" fill="#E7EFF7"/>
<path opacity="0.3" d="M387.185 343.389H383.574V347.003H387.185V343.389Z" fill="#E7EFF7"/>
<path opacity="0.3" d="M399.17 343.39H395.559V347.004H399.17V343.39Z" fill="#E7EFF7"/>
<path opacity="0.3" d="M411.154 343.389H407.543V347.003H411.154V343.389Z" fill="#E7EFF7"/>
<path opacity="0.3" d="M429.139 343.389H425.527V347.003H429.139V343.389Z" fill="#E7EFF7"/>
<path opacity="0.3" d="M435.131 343.389H431.52V347.003H435.131V343.389Z" fill="#E7EFF7"/>
<path opacity="0.3" d="M447.119 343.389H443.508V347.003H447.119V343.389Z" fill="#E7EFF7"/>
<path opacity="0.3" d="M471.092 343.39H467.48V347.004H471.092V343.39Z" fill="#E7EFF7"/>
<path opacity="0.3" d="M507.053 343.389H503.441V347.003H507.053V343.389Z" fill="#E7EFF7"/>
<path opacity="0.3" d="M519.037 343.389H515.426V347.003H519.037V343.389Z" fill="#E7EFF7"/>
<path opacity="0.3" d="M525.029 343.389H521.418V347.003H525.029V343.389Z" fill="#E7EFF7"/>
<path opacity="0.3" d="M537.017 343.39H533.406V347.004H537.017V343.39Z" fill="#E7EFF7"/>
<path opacity="0.25" d="M279.307 337.409H275.695V341.023H279.307V337.409Z" fill="#E7EFF7"/>
<path opacity="0.25" d="M291.291 337.409H287.68V341.023H291.291V337.409Z" fill="#E7EFF7"/>
<path opacity="0.25" d="M297.283 337.409H293.672V341.023H297.283V337.409Z" fill="#E7EFF7"/>
<path opacity="0.25" d="M303.279 337.409H299.668V341.023H303.279V337.409Z" fill="#E7EFF7"/>
<path opacity="0.25" d="M309.271 337.409H305.66V341.023H309.271V337.409Z" fill="#E7EFF7"/>
<path opacity="0.25" d="M321.256 337.409H317.645V341.023H321.256V337.409Z" fill="#E7EFF7"/>
<path opacity="0.25" d="M339.236 337.409H335.625V341.023H339.236V337.409Z" fill="#E7EFF7"/>
<path opacity="0.25" d="M351.225 337.409H347.613V341.023H351.225V337.409Z" fill="#E7EFF7"/>
<path opacity="0.25" d="M357.217 337.409H353.605V341.023H357.217V337.409Z" fill="#E7EFF7"/>
<path opacity="0.25" d="M375.197 337.409H371.586V341.023H375.197V337.409Z" fill="#E7EFF7"/>
<path opacity="0.25" d="M381.189 337.409H377.578V341.023H381.189V337.409Z" fill="#E7EFF7"/>
<path opacity="0.25" d="M393.178 337.409H389.566V341.023H393.178V337.409Z" fill="#E7EFF7"/>
<path opacity="0.25" d="M411.154 337.409H407.543V341.023H411.154V337.409Z" fill="#E7EFF7"/>
<path opacity="0.25" d="M423.142 337.409H419.531V341.023H423.142V337.409Z" fill="#E7EFF7"/>
<path opacity="0.25" d="M429.139 337.409H425.527V341.023H429.139V337.409Z" fill="#E7EFF7"/>
<path opacity="0.25" d="M441.127 337.409H437.516V341.023H441.127V337.409Z" fill="#E7EFF7"/>
<path opacity="0.25" d="M453.111 337.409H449.5V341.023H453.111V337.409Z" fill="#E7EFF7"/>
<path opacity="0.25" d="M459.103 337.409H455.492V341.023H459.103V337.409Z" fill="#E7EFF7"/>
<path opacity="0.25" d="M471.092 337.409H467.48V341.023H471.092V337.409Z" fill="#E7EFF7"/>
<path opacity="0.25" d="M489.072 337.409H485.461V341.023H489.072V337.409Z" fill="#E7EFF7"/>
<path opacity="0.25" d="M495.064 337.409H491.453V341.023H495.064V337.409Z" fill="#E7EFF7"/>
<path opacity="0.25" d="M501.057 337.409H497.445V341.023H501.057V337.409Z" fill="#E7EFF7"/>
<path opacity="0.25" d="M513.045 337.409H509.434V341.023H513.045V337.409Z" fill="#E7EFF7"/>
<path opacity="0.25" d="M519.037 337.409H515.426V341.023H519.037V337.409Z" fill="#E7EFF7"/>
<path opacity="0.25" d="M525.029 337.409H521.418V341.023H525.029V337.409Z" fill="#E7EFF7"/>
<path opacity="0.25" d="M543.01 337.409H539.398V341.023H543.01V337.409Z" fill="#E7EFF7"/>
<path opacity="0.25" d="M549.006 337.409H545.395V341.023H549.006V337.409Z" fill="#E7EFF7"/>
<path opacity="0.25" d="M279.307 331.43H275.695V335.044H279.307V331.43Z" fill="#E7EFF7"/>
<path opacity="0.25" d="M291.291 331.429H287.68V335.043H291.291V331.429Z" fill="#E7EFF7"/>
<path opacity="0.25" d="M309.271 331.43H305.66V335.044H309.271V331.43Z" fill="#E7EFF7"/>
<path opacity="0.25" d="M321.256 331.43H317.645V335.044H321.256V331.43Z" fill="#E7EFF7"/>
<path opacity="0.25" d="M327.252 331.43H323.641V335.044H327.252V331.43Z" fill="#E7EFF7"/>
<path opacity="0.25" d="M345.232 331.43H341.621V335.044H345.232V331.43Z" fill="#E7EFF7"/>
<path opacity="0.25" d="M381.189 331.43H377.578V335.044H381.189V331.43Z" fill="#E7EFF7"/>
<path opacity="0.25" d="M387.185 331.43H383.574V335.044H387.185V331.43Z" fill="#E7EFF7"/>
<path opacity="0.25" d="M399.17 331.429H395.559V335.043H399.17V331.429Z" fill="#E7EFF7"/>
<path opacity="0.25" d="M405.162 331.43H401.551V335.044H405.162V331.43Z" fill="#E7EFF7"/>
<path opacity="0.25" d="M423.142 331.429H419.531V335.043H423.142V331.429Z" fill="#E7EFF7"/>
<path opacity="0.25" d="M429.139 331.43H425.527V335.044H429.139V331.43Z" fill="#E7EFF7"/>
<path opacity="0.25" d="M441.127 331.43H437.516V335.044H441.127V331.43Z" fill="#E7EFF7"/>
<path opacity="0.25" d="M447.119 331.43H443.508V335.044H447.119V331.43Z" fill="#E7EFF7"/>
<path opacity="0.25" d="M465.099 331.43H461.488V335.044H465.099V331.43Z" fill="#E7EFF7"/>
<path opacity="0.25" d="M471.092 331.429H467.48V335.043H471.092V331.429Z" fill="#E7EFF7"/>
<path opacity="0.25" d="M477.084 331.43H473.473V335.044H477.084V331.43Z" fill="#E7EFF7"/>
<path opacity="0.25" d="M483.08 331.43H479.469V335.044H483.08V331.43Z" fill="#E7EFF7"/>
<path opacity="0.25" d="M489.072 331.43H485.461V335.044H489.072V331.43Z" fill="#E7EFF7"/>
<path opacity="0.25" d="M495.064 331.43H491.453V335.044H495.064V331.43Z" fill="#E7EFF7"/>
<path opacity="0.25" d="M507.053 331.43H503.441V335.044H507.053V331.43Z" fill="#E7EFF7"/>
<path opacity="0.25" d="M513.045 331.43H509.434V335.044H513.045V331.43Z" fill="#E7EFF7"/>
<path opacity="0.25" d="M537.017 331.429H533.406V335.043H537.017V331.429Z" fill="#E7EFF7"/>
<path opacity="0.25" d="M543.01 331.43H539.398V335.044H543.01V331.43Z" fill="#E7EFF7"/>
<path opacity="0.25" d="M549.006 331.43H545.395V335.044H549.006V331.43Z" fill="#E7EFF7"/>
<path opacity="0.25" d="M279.307 325.449H275.695V329.063H279.307V325.449Z" fill="#E7EFF7"/>
<path opacity="0.25" d="M297.283 325.449H293.672V329.063H297.283V325.449Z" fill="#E7EFF7"/>
<path opacity="0.25" d="M303.279 325.449H299.668V329.063H303.279V325.449Z" fill="#E7EFF7"/>
<path opacity="0.25" d="M339.236 325.449H335.625V329.063H339.236V325.449Z" fill="#E7EFF7"/>
<path opacity="0.25" d="M345.232 325.449H341.621V329.063H345.232V325.449Z" fill="#E7EFF7"/>
<path opacity="0.25" d="M351.225 325.449H347.613V329.063H351.225V325.449Z" fill="#E7EFF7"/>
<path opacity="0.25" d="M357.217 325.449H353.605V329.063H357.217V325.449Z" fill="#E7EFF7"/>
<path opacity="0.25" d="M375.197 325.449H371.586V329.063H375.197V325.449Z" fill="#E7EFF7"/>
<path opacity="0.25" d="M381.189 325.449H377.578V329.063H381.189V325.449Z" fill="#E7EFF7"/>
<path opacity="0.25" d="M393.178 325.449H389.566V329.063H393.178V325.449Z" fill="#E7EFF7"/>
<path opacity="0.25" d="M399.17 325.449H395.559V329.063H399.17V325.449Z" fill="#E7EFF7"/>
<path opacity="0.25" d="M411.154 325.449H407.543V329.063H411.154V325.449Z" fill="#E7EFF7"/>
<path opacity="0.25" d="M417.15 325.449H413.539V329.063H417.15V325.449Z" fill="#E7EFF7"/>
<path opacity="0.25" d="M423.142 325.449H419.531V329.063H423.142V325.449Z" fill="#E7EFF7"/>
<path opacity="0.25" d="M429.139 325.449H425.527V329.063H429.139V325.449Z" fill="#E7EFF7"/>
<path opacity="0.25" d="M441.127 325.449H437.516V329.063H441.127V325.449Z" fill="#E7EFF7"/>
<path opacity="0.25" d="M447.119 325.449H443.508V329.063H447.119V325.449Z" fill="#E7EFF7"/>
<path opacity="0.25" d="M453.111 325.449H449.5V329.063H453.111V325.449Z" fill="#E7EFF7"/>
<path opacity="0.25" d="M459.103 325.449H455.492V329.063H459.103V325.449Z" fill="#E7EFF7"/>
<path opacity="0.25" d="M465.099 325.449H461.488V329.063H465.099V325.449Z" fill="#E7EFF7"/>
<path opacity="0.25" d="M483.08 325.449H479.469V329.063H483.08V325.449Z" fill="#E7EFF7"/>
<path opacity="0.25" d="M489.072 325.449H485.461V329.063H489.072V325.449Z" fill="#E7EFF7"/>
<path opacity="0.25" d="M495.064 325.449H491.453V329.063H495.064V325.449Z" fill="#E7EFF7"/>
<path opacity="0.25" d="M501.057 325.449H497.445V329.063H501.057V325.449Z" fill="#E7EFF7"/>
<path opacity="0.25" d="M507.053 325.449H503.441V329.063H507.053V325.449Z" fill="#E7EFF7"/>
<path opacity="0.25" d="M513.045 325.449H509.434V329.063H513.045V325.449Z" fill="#E7EFF7"/>
<path opacity="0.25" d="M525.029 325.449H521.418V329.063H525.029V325.449Z" fill="#E7EFF7"/>
<path opacity="0.25" d="M543.01 325.449H539.398V329.063H543.01V325.449Z" fill="#E7EFF7"/>
<path opacity="0.25" d="M549.006 325.449H545.395V329.063H549.006V325.449Z" fill="#E7EFF7"/>
<path opacity="0.2" d="M297.283 319.469H293.672V323.083H297.283V319.469Z" fill="#E7EFF7"/>
<path opacity="0.2" d="M303.279 319.469H299.668V323.083H303.279V319.469Z" fill="#E7EFF7"/>
<path opacity="0.2" d="M309.271 319.469H305.66V323.083H309.271V319.469Z" fill="#E7EFF7"/>
<path opacity="0.2" d="M321.256 319.469H317.645V323.083H321.256V319.469Z" fill="#E7EFF7"/>
<path opacity="0.2" d="M339.236 319.469H335.625V323.083H339.236V319.469Z" fill="#E7EFF7"/>
<path opacity="0.2" d="M357.217 319.469H353.605V323.083H357.217V319.469Z" fill="#E7EFF7"/>
<path opacity="0.2" d="M369.201 319.469H365.59V323.083H369.201V319.469Z" fill="#E7EFF7"/>
<path opacity="0.2" d="M375.197 319.469H371.586V323.083H375.197V319.469Z" fill="#E7EFF7"/>
<path opacity="0.2" d="M381.189 319.469H377.578V323.083H381.189V319.469Z" fill="#E7EFF7"/>
<path opacity="0.2" d="M393.178 319.469H389.566V323.083H393.178V319.469Z" fill="#E7EFF7"/>
<path opacity="0.2" d="M417.15 319.469H413.539V323.083H417.15V319.469Z" fill="#E7EFF7"/>
<path opacity="0.2" d="M423.142 319.469H419.531V323.083H423.142V319.469Z" fill="#E7EFF7"/>
<path opacity="0.2" d="M435.131 319.469H431.52V323.083H435.131V319.469Z" fill="#E7EFF7"/>
<path opacity="0.2" d="M447.119 319.469H443.508V323.083H447.119V319.469Z" fill="#E7EFF7"/>
<path opacity="0.2" d="M459.103 319.469H455.492V323.083H459.103V319.469Z" fill="#E7EFF7"/>
<path opacity="0.2" d="M471.092 319.469H467.48V323.083H471.092V319.469Z" fill="#E7EFF7"/>
<path opacity="0.2" d="M477.084 319.469H473.473V323.083H477.084V319.469Z" fill="#E7EFF7"/>
<path opacity="0.2" d="M495.064 319.469H491.453V323.083H495.064V319.469Z" fill="#E7EFF7"/>
<path opacity="0.2" d="M513.045 319.469H509.434V323.083H513.045V319.469Z" fill="#E7EFF7"/>
<path opacity="0.2" d="M519.037 319.469H515.426V323.083H519.037V319.469Z" fill="#E7EFF7"/>
<path opacity="0.2" d="M525.029 319.469H521.418V323.083H525.029V319.469Z" fill="#E7EFF7"/>
<path opacity="0.2" d="M537.017 319.469H533.406V323.083H537.017V319.469Z" fill="#E7EFF7"/>
<path opacity="0.2" d="M543.01 319.469H539.398V323.083H543.01V319.469Z" fill="#E7EFF7"/>
<path opacity="0.2" d="M279.307 313.488H275.695V317.103H279.307V313.488Z" fill="#E7EFF7"/>
<path opacity="0.2" d="M315.264 313.488H311.652V317.103H315.264V313.488Z" fill="#E7EFF7"/>
<path opacity="0.2" d="M327.252 313.488H323.641V317.103H327.252V313.488Z" fill="#E7EFF7"/>
<path opacity="0.2" d="M333.244 313.488H329.633V317.103H333.244V313.488Z" fill="#E7EFF7"/>
<path opacity="0.2" d="M351.225 313.488H347.613V317.103H351.225V313.488Z" fill="#E7EFF7"/>
<path opacity="0.2" d="M369.201 313.488H365.59V317.103H369.201V313.488Z" fill="#E7EFF7"/>
<path opacity="0.2" d="M375.197 313.488H371.586V317.103H375.197V313.488Z" fill="#E7EFF7"/>
<path opacity="0.2" d="M387.185 313.488H383.574V317.103H387.185V313.488Z" fill="#E7EFF7"/>
<path opacity="0.2" d="M405.162 313.488H401.551V317.103H405.162V313.488Z" fill="#E7EFF7"/>
<path opacity="0.2" d="M411.154 313.488H407.543V317.103H411.154V313.488Z" fill="#E7EFF7"/>
<path opacity="0.2" d="M417.15 313.488H413.539V317.103H417.15V313.488Z" fill="#E7EFF7"/>
<path opacity="0.2" d="M447.119 313.488H443.508V317.103H447.119V313.488Z" fill="#E7EFF7"/>
<path opacity="0.2" d="M459.103 313.488H455.492V317.103H459.103V313.488Z" fill="#E7EFF7"/>
<path opacity="0.2" d="M489.072 313.488H485.461V317.103H489.072V313.488Z" fill="#E7EFF7"/>
<path opacity="0.2" d="M501.057 313.488H497.445V317.103H501.057V313.488Z" fill="#E7EFF7"/>
<path opacity="0.2" d="M507.053 313.488H503.441V317.103H507.053V313.488Z" fill="#E7EFF7"/>
<path opacity="0.2" d="M513.045 313.488H509.434V317.103H513.045V313.488Z" fill="#E7EFF7"/>
<path opacity="0.2" d="M519.037 313.488H515.426V317.103H519.037V313.488Z" fill="#E7EFF7"/>
<path opacity="0.2" d="M537.017 313.488H533.406V317.103H537.017V313.488Z" fill="#E7EFF7"/>
<path opacity="0.2" d="M549.006 313.488H545.395V317.103H549.006V313.488Z" fill="#E7EFF7"/>
<path opacity="0.1" d="M297.283 307.509H293.672V311.123H297.283V307.509Z" fill="#E7EFF7"/>
<path opacity="0.2" d="M303.279 307.509H299.668V311.123H303.279V307.509Z" fill="#E7EFF7"/>
<path opacity="0.2" d="M309.271 307.509H305.66V311.123H309.271V307.509Z" fill="#E7EFF7"/>
<path opacity="0.2" d="M327.252 307.509H323.641V311.123H327.252V307.509Z" fill="#E7EFF7"/>
<path opacity="0.2" d="M351.225 307.509H347.613V311.123H351.225V307.509Z" fill="#E7EFF7"/>
<path opacity="0.2" d="M357.217 307.509H353.605V311.123H357.217V307.509Z" fill="#E7EFF7"/>
<path opacity="0.2" d="M381.189 307.509H377.578V311.123H381.189V307.509Z" fill="#E7EFF7"/>
<path opacity="0.2" d="M387.185 307.509H383.574V311.123H387.185V307.509Z" fill="#E7EFF7"/>
<path opacity="0.2" d="M399.17 307.509H395.559V311.123H399.17V307.509Z" fill="#E7EFF7"/>
<path opacity="0.2" d="M435.131 307.509H431.52V311.123H435.131V307.509Z" fill="#E7EFF7"/>
<path opacity="0.2" d="M441.127 307.509H437.516V311.123H441.127V307.509Z" fill="#E7EFF7"/>
<path opacity="0.2" d="M465.099 307.509H461.488V311.123H465.099V307.509Z" fill="#E7EFF7"/>
<path opacity="0.2" d="M471.092 307.509H467.48V311.123H471.092V307.509Z" fill="#E7EFF7"/>
<path opacity="0.2" d="M513.045 307.509H509.434V311.123H513.045V307.509Z" fill="#E7EFF7"/>
<path opacity="0.2" d="M519.037 307.509H515.426V311.123H519.037V307.509Z" fill="#E7EFF7"/>
<path opacity="0.2" d="M525.029 307.509H521.418V311.123H525.029V307.509Z" fill="#E7EFF7"/>
<path opacity="0.2" d="M549.006 307.509H545.395V311.123H549.006V307.509Z" fill="#E7EFF7"/>
<path opacity="0.2" d="M303.279 301.529H299.668V305.144H303.279V301.529Z" fill="#E7EFF7"/>
<path opacity="0.2" d="M333.244 301.528H329.633V305.143H333.244V301.528Z" fill="#E7EFF7"/>
<path opacity="0.2" d="M357.217 301.528H353.605V305.143H357.217V301.528Z" fill="#E7EFF7"/>
<path opacity="0.2" d="M369.201 301.529H365.59V305.144H369.201V301.529Z" fill="#E7EFF7"/>
<path opacity="0.2" d="M381.189 301.529H377.578V305.144H381.189V301.529Z" fill="#E7EFF7"/>
<path opacity="0.2" d="M387.185 301.529H383.574V305.144H387.185V301.529Z" fill="#E7EFF7"/>
<path opacity="0.2" d="M405.162 301.529H401.551V305.144H405.162V301.529Z" fill="#E7EFF7"/>
<path opacity="0.2" d="M423.142 301.528H419.531V305.143H423.142V301.528Z" fill="#E7EFF7"/>
<path opacity="0.2" d="M441.127 301.529H437.516V305.144H441.127V301.529Z" fill="#E7EFF7"/>
<path opacity="0.2" d="M453.111 301.529H449.5V305.144H453.111V301.529Z" fill="#E7EFF7"/>
<path opacity="0.2" d="M471.092 301.528H467.48V305.143H471.092V301.528Z" fill="#E7EFF7"/>
<path opacity="0.2" d="M501.057 301.529H497.445V305.144H501.057V301.529Z" fill="#E7EFF7"/>
<path opacity="0.2" d="M507.053 301.529H503.441V305.144H507.053V301.529Z" fill="#E7EFF7"/>
<path opacity="0.2" d="M519.037 301.529H515.426V305.144H519.037V301.529Z" fill="#E7EFF7"/>
<path opacity="0.2" d="M537.017 301.528H533.406V305.143H537.017V301.528Z" fill="#E7EFF7"/>
<path opacity="0.2" d="M543.01 301.529H539.398V305.144H543.01V301.529Z" fill="#E7EFF7"/>
<path opacity="0.2" d="M549.006 301.529H545.395V305.144H549.006V301.529Z" fill="#E7EFF7"/>
<path opacity="0.15" d="M375.197 295.549H371.586V299.163H375.197V295.549Z" fill="#E7EFF7"/>
<path opacity="0.15" d="M381.189 295.549H377.578V299.163H381.189V295.549Z" fill="#E7EFF7"/>
<path opacity="0.15" d="M399.17 295.549H395.559V299.163H399.17V295.549Z" fill="#E7EFF7"/>
<path opacity="0.15" d="M423.142 295.549H419.531V299.163H423.142V295.549Z" fill="#E7EFF7"/>
<path opacity="0.15" d="M441.127 295.549H437.516V299.163H441.127V295.549Z" fill="#E7EFF7"/>
<path opacity="0.15" d="M453.111 295.549H449.5V299.163H453.111V295.549Z" fill="#E7EFF7"/>
<path opacity="0.15" d="M471.092 295.549H467.48V299.163H471.092V295.549Z" fill="#E7EFF7"/>
<path opacity="0.15" d="M477.084 295.549H473.473V299.163H477.084V295.549Z" fill="#E7EFF7"/>
<path opacity="0.15" d="M489.072 295.549H485.461V299.163H489.072V295.549Z" fill="#E7EFF7"/>
<path opacity="0.15" d="M495.064 295.549H491.453V299.163H495.064V295.549Z" fill="#E7EFF7"/>
<path opacity="0.15" d="M507.053 295.549H503.441V299.163H507.053V295.549Z" fill="#E7EFF7"/>
<path opacity="0.15" d="M513.045 295.549H509.434V299.163H513.045V295.549Z" fill="#E7EFF7"/>
<path opacity="0.15" d="M519.037 295.549H515.426V299.163H519.037V295.549Z" fill="#E7EFF7"/>
<path opacity="0.15" d="M525.029 295.549H521.418V299.163H525.029V295.549Z" fill="#E7EFF7"/>
<path opacity="0.15" d="M339.236 289.568H335.625V293.183H339.236V289.568Z" fill="#E7EFF7"/>
<path opacity="0.15" d="M345.232 289.568H341.621V293.183H345.232V289.568Z" fill="#E7EFF7"/>
<path opacity="0.05" d="M351.225 289.568H347.613V293.183H351.225V289.568Z" fill="#E7EFF7"/>
<path opacity="0.1" d="M369.201 289.568H365.59V293.183H369.201V289.568Z" fill="#E7EFF7"/>
<path opacity="0.15" d="M381.189 289.568H377.578V293.183H381.189V289.568Z" fill="#E7EFF7"/>
<path opacity="0.15" d="M399.17 289.568H395.559V293.183H399.17V289.568Z" fill="#E7EFF7"/>
<path opacity="0.15" d="M447.119 289.568H443.508V293.183H447.119V289.568Z" fill="#E7EFF7"/>
<path opacity="0.15" d="M453.111 289.568H449.5V293.183H453.111V289.568Z" fill="#E7EFF7"/>
<path opacity="0.15" d="M459.103 289.568H455.492V293.183H459.103V289.568Z" fill="#E7EFF7"/>
<path opacity="0.15" d="M513.045 289.568H509.434V293.183H513.045V289.568Z" fill="#E7EFF7"/>
<path opacity="0.15" d="M519.037 289.568H515.426V293.183H519.037V289.568Z" fill="#E7EFF7"/>
<path opacity="0.15" d="M549.006 289.568H545.395V293.183H549.006V289.568Z" fill="#E7EFF7"/>
<path opacity="0.05" d="M321.256 283.588H317.645V287.202H321.256V283.588Z" fill="#E7EFF7"/>
<path opacity="0.05" d="M327.252 283.588H323.641V287.202H327.252V283.588Z" fill="#E7EFF7"/>
<path opacity="0.05" d="M345.232 283.588H341.621V287.202H345.232V283.588Z" fill="#E7EFF7"/>
<path opacity="0.15" d="M357.217 283.588H353.605V287.202H357.217V283.588Z" fill="#E7EFF7"/>
<path opacity="0.05" d="M375.197 283.588H371.586V287.202H375.197V283.588Z" fill="#E7EFF7"/>
<path opacity="0.15" d="M399.17 283.588H395.559V287.202H399.17V283.588Z" fill="#E7EFF7"/>
<path opacity="0.15" d="M411.154 283.588H407.543V287.202H411.154V283.588Z" fill="#E7EFF7"/>
<path opacity="0.15" d="M423.142 283.588H419.531V287.202H423.142V283.588Z" fill="#E7EFF7"/>
<path opacity="0.15" d="M459.103 283.588H455.492V287.202H459.103V283.588Z" fill="#E7EFF7"/>
<path opacity="0.15" d="M465.099 283.588H461.488V287.202H465.099V283.588Z" fill="#E7EFF7"/>
<path opacity="0.15" d="M501.057 283.588H497.445V287.202H501.057V283.588Z" fill="#E7EFF7"/>
<path opacity="0.15" d="M507.053 283.588H503.441V287.202H507.053V283.588Z" fill="#E7EFF7"/>
<path opacity="0.15" d="M513.045 283.588H509.434V287.202H513.045V283.588Z" fill="#E7EFF7"/>
<path opacity="0.15" d="M525.029 283.588H521.418V287.202H525.029V283.588Z" fill="#E7EFF7"/>
<path opacity="0.15" d="M543.01 283.588H539.398V287.202H543.01V283.588Z" fill="#E7EFF7"/>
<path opacity="0.15" d="M549.006 283.588H545.395V287.202H549.006V283.588Z" fill="#E7EFF7"/>
<path opacity="0.05" d="M369.201 277.605H365.59V281.22H369.201V277.605Z" fill="#E7EFF7"/>
<path opacity="0.15" d="M381.189 277.605H377.578V281.22H381.189V277.605Z" fill="#E7EFF7"/>
<path opacity="0.15" d="M387.185 277.605H383.574V281.22H387.185V277.605Z" fill="#E7EFF7"/>
<path opacity="0.15" d="M411.154 277.605H407.543V281.22H411.154V277.605Z" fill="#E7EFF7"/>
<path opacity="0.15" d="M447.119 277.605H443.508V281.22H447.119V277.605Z" fill="#E7EFF7"/>
<path opacity="0.15" d="M471.092 277.605H467.48V281.22H471.092V277.605Z" fill="#E7EFF7"/>
<path opacity="0.15" d="M477.084 277.605H473.473V281.22H477.084V277.605Z" fill="#E7EFF7"/>
<path opacity="0.15" d="M483.08 277.605H479.469V281.22H483.08V277.605Z" fill="#E7EFF7"/>
<path opacity="0.15" d="M489.072 277.605H485.461V281.22H489.072V277.605Z" fill="#E7EFF7"/>
<path opacity="0.15" d="M549.006 277.605H545.395V281.22H549.006V277.605Z" fill="#E7EFF7"/>
<path opacity="0.05" d="M345.232 271.625H341.621V275.239H345.232V271.625Z" fill="#E7EFF7"/>
<path opacity="0.15" d="M399.17 271.625H395.559V275.239H399.17V271.625Z" fill="#E7EFF7"/>
<path opacity="0.15" d="M447.119 271.625H443.508V275.239H447.119V271.625Z" fill="#E7EFF7"/>
<path opacity="0.15" d="M459.103 271.625H455.492V275.239H459.103V271.625Z" fill="#E7EFF7"/>
<path opacity="0.15" d="M465.099 271.625H461.488V275.239H465.099V271.625Z" fill="#E7EFF7"/>
<path opacity="0.15" d="M471.092 271.625H467.48V275.239H471.092V271.625Z" fill="#E7EFF7"/>
<path opacity="0.15" d="M489.072 271.625H485.461V275.239H489.072V271.625Z" fill="#E7EFF7"/>
<path opacity="0.15" d="M501.057 271.625H497.445V275.239H501.057V271.625Z" fill="#E7EFF7"/>
<path opacity="0.15" d="M507.053 271.625H503.441V275.239H507.053V271.625Z" fill="#E7EFF7"/>
<path opacity="0.15" d="M513.045 271.625H509.434V275.239H513.045V271.625Z" fill="#E7EFF7"/>
<path opacity="0.15" d="M525.029 271.625H521.418V275.239H525.029V271.625Z" fill="#E7EFF7"/>
<path opacity="0.15" d="M537.017 271.625H533.406V275.239H537.017V271.625Z" fill="#E7EFF7"/>
<path opacity="0.15" d="M549.006 271.625H545.395V275.239H549.006V271.625Z" fill="#E7EFF7"/>
<path opacity="0.05" d="M399.17 265.645H395.559V269.259H399.17V265.645Z" fill="#E7EFF7"/>
<path opacity="0.1" d="M417.15 265.645H413.539V269.259H417.15V265.645Z" fill="#E7EFF7"/>
<path opacity="0.1" d="M441.127 265.645H437.516V269.259H441.127V265.645Z" fill="#E7EFF7"/>
<path opacity="0.1" d="M465.099 265.645H461.488V269.259H465.099V265.645Z" fill="#E7EFF7"/>
<path opacity="0.1" d="M477.084 265.645H473.473V269.259H477.084V265.645Z" fill="#E7EFF7"/>
<path opacity="0.1" d="M489.072 265.645H485.461V269.259H489.072V265.645Z" fill="#E7EFF7"/>
<path opacity="0.1" d="M507.053 265.645H503.441V269.259H507.053V265.645Z" fill="#E7EFF7"/>
<path opacity="0.1" d="M525.029 265.645H521.418V269.259H525.029V265.645Z" fill="#E7EFF7"/>
<path opacity="0.1" d="M543.01 265.645H539.398V269.259H543.01V265.645Z" fill="#E7EFF7"/>
<path opacity="0.05" d="M351.225 259.665H347.613V263.279H351.225V259.665Z" fill="#E7EFF7"/>
<path opacity="0.1" d="M387.185 259.665H383.574V263.279H387.185V259.665Z" fill="#E7EFF7"/>
<path opacity="0.1" d="M441.127 259.665H437.516V263.279H441.127V259.665Z" fill="#E7EFF7"/>
<path opacity="0.1" d="M447.119 259.665H443.508V263.279H447.119V259.665Z" fill="#E7EFF7"/>
<path opacity="0.1" d="M483.08 259.665H479.469V263.279H483.08V259.665Z" fill="#E7EFF7"/>
<path opacity="0.1" d="M501.057 259.665H497.445V263.279H501.057V259.665Z" fill="#E7EFF7"/>
<path opacity="0.1" d="M549.006 259.665H545.395V263.279H549.006V259.665Z" fill="#E7EFF7"/>
<path opacity="0.1" d="M369.201 253.686H365.59V257.3H369.201V253.686Z" fill="#E7EFF7"/>
<path opacity="0.05" d="M387.185 253.686H383.574V257.3H387.185V253.686Z" fill="#E7EFF7"/>
<path opacity="0.1" d="M423.142 253.685H419.531V257.299H423.142V253.685Z" fill="#E7EFF7"/>
<path opacity="0.1" d="M489.072 253.686H485.461V257.3H489.072V253.686Z" fill="#E7EFF7"/>
<path opacity="0.1" d="M507.053 253.686H503.441V257.3H507.053V253.686Z" fill="#E7EFF7"/>
<path opacity="0.1" d="M513.045 253.686H509.434V257.3H513.045V253.686Z" fill="#E7EFF7"/>
<path opacity="0.1" d="M525.029 253.686H521.418V257.3H525.029V253.686Z" fill="#E7EFF7"/>
<path opacity="0.1" d="M537.017 253.685H533.406V257.299H537.017V253.685Z" fill="#E7EFF7"/>
<path opacity="0.1" d="M549.006 253.686H545.395V257.3H549.006V253.686Z" fill="#E7EFF7"/>
<path opacity="0.1" d="M483.08 247.705H479.469V251.319H483.08V247.705Z" fill="#E7EFF7"/>
<path opacity="0.1" d="M525.029 247.705H521.418V251.319H525.029V247.705Z" fill="#E7EFF7"/>
<path opacity="0.1" d="M543.01 247.705H539.398V251.319H543.01V247.705Z" fill="#E7EFF7"/>
<path opacity="0.1" d="M549.006 247.705H545.395V251.319H549.006V247.705Z" fill="#E7EFF7"/>
<path opacity="0.1" d="M423.142 241.725H419.531V245.339H423.142V241.725Z" fill="#E7EFF7"/>
<path opacity="0.1" d="M507.053 241.725H503.441V245.339H507.053V241.725Z" fill="#E7EFF7"/>
<path opacity="0.05" d="M381.189 235.744H377.578V239.358H381.189V235.744Z" fill="#E7EFF7"/>
<path opacity="0.1" d="M507.053 235.744H503.441V239.358H507.053V235.744Z" fill="#E7EFF7"/>
<path opacity="0.1" d="M513.045 235.744H509.434V239.358H513.045V235.744Z" fill="#E7EFF7"/>
<path opacity="0.1" d="M543.01 235.744H539.398V239.358H543.01V235.744Z" fill="#E7EFF7"/>
<path opacity="0.1" d="M549.006 235.744H545.395V239.358H549.006V235.744Z" fill="#E7EFF7"/>
<path opacity="0.1" d="M507.053 223.784H503.441V227.398H507.053V223.784Z" fill="#E7EFF7"/>
<path opacity="0.1" d="M537.017 223.784H533.406V227.398H537.017V223.784Z" fill="#E7EFF7"/>
<path opacity="0.1" d="M549.006 223.784H545.395V227.398H549.006V223.784Z" fill="#E7EFF7"/>
<path opacity="0.1" d="M549.006 211.824H545.395V215.438H549.006V211.824Z" fill="#E7EFF7"/>
</g>
</svg>
