<svg width="1638" height="1423" viewBox="0 0 1638 1423" fill="none" xmlns="http://www.w3.org/2000/svg">
<g clip-path="url(#clip0_34953_4328)">
<line x1="0.394655" y1="2.40904e-08" x2="0.394611" y2="1423" stroke="white" stroke-opacity="0.1" stroke-width="0.789311"/>
<line x1="230.873" y1="2.40904e-08" x2="230.873" y2="1423" stroke="white" stroke-opacity="0.1" stroke-width="0.789311"/>
<line x1="461.352" y1="2.40904e-08" x2="461.352" y2="1423" stroke="white" stroke-opacity="0.1" stroke-width="0.789311"/>
<line x1="691.83" y1="2.40904e-08" x2="691.83" y2="1423" stroke="white" stroke-opacity="0.1" stroke-width="0.789311"/>
<line x1="922.309" y1="2.40904e-08" x2="922.309" y2="1423" stroke="white" stroke-opacity="0.1" stroke-width="0.789311"/>
<line x1="1152.79" y1="2.40904e-08" x2="1152.79" y2="1423" stroke="white" stroke-opacity="0.1" stroke-width="0.789311"/>
<line x1="1383.27" y1="2.40904e-08" x2="1383.27" y2="1423" stroke="white" stroke-opacity="0.1" stroke-width="0.789311"/>
<line x1="1613.75" y1="2.40904e-08" x2="1613.75" y2="1423" stroke="white" stroke-opacity="0.1" stroke-width="0.789311"/>
<line x1="1637.03" y1="0.394655" x2="0.000976528" y2="0.394512" stroke="white" stroke-opacity="0.1" stroke-width="0.789311"/>
<line x1="1637.03" y1="230.874" x2="0.000976528" y2="230.874" stroke="white" stroke-opacity="0.1" stroke-width="0.789311"/>
<line x1="1637.03" y1="461.353" x2="0.000976528" y2="461.353" stroke="white" stroke-opacity="0.1" stroke-width="0.789311"/>
<line x1="1637.03" y1="691.831" x2="0.000976528" y2="691.831" stroke="white" stroke-opacity="0.1" stroke-width="0.789311"/>
<line x1="1637.03" y1="922.31" x2="0.000976528" y2="922.31" stroke="white" stroke-opacity="0.1" stroke-width="0.789311"/>
<line x1="1637.03" y1="1152.79" x2="0.000976528" y2="1152.79" stroke="white" stroke-opacity="0.1" stroke-width="0.789311"/>
<line x1="1637.03" y1="1383.27" x2="0.000976528" y2="1383.27" stroke="white" stroke-opacity="0.1" stroke-width="0.789311"/>
</g>
<defs>
<clipPath id="clip0_34953_4328">
<rect width="1637.03" height="1423" fill="white"/>
</clipPath>
</defs>
</svg>
