<svg width="458" height="255" viewBox="0 0 458 255" fill="none" xmlns="http://www.w3.org/2000/svg">
<g clip-path="url(#clip0_37766_1957)">
<rect width="458" height="255" rx="16" fill="url(#paint0_linear_37766_1957)"/>
<g clip-path="url(#clip1_37766_1957)">
<mask id="mask0_37766_1957" style="mask-type:luminance" maskUnits="userSpaceOnUse" x="-136" y="-286" width="742" height="543">
<path d="M-135.004 256.479L605.996 256.479L605.996 -285.794L-135.004 -285.794L-135.004 256.479Z" fill="white"/>
</mask>
<g mask="url(#mask0_37766_1957)">
<path opacity="0.65" d="M23.5734 250.124H18.6992V255H23.5734V250.124Z" fill="white" fill-opacity="0.2"/>
<path opacity="0.65" d="M31.6632 250.124H26.7891V255H31.6632V250.124Z" fill="white" fill-opacity="0.2"/>
<path opacity="0.65" d="M39.753 250.124H34.8789V255H39.753V250.124Z" fill="white" fill-opacity="0.2"/>
<path opacity="0.65" d="M47.8409 250.124H42.9668V255H47.8409V250.124Z" fill="white" fill-opacity="0.2"/>
<path opacity="0.65" d="M64.0206 250.124H59.1465V255H64.0206V250.124Z" fill="white" fill-opacity="0.2"/>
<path opacity="0.65" d="M80.1984 250.124H75.3242V255H80.1984V250.124Z" fill="white" fill-opacity="0.2"/>
<path opacity="0.65" d="M96.378 250.124H91.5039V255H96.378V250.124Z" fill="white" fill-opacity="0.2"/>
<path opacity="0.65" d="M112.556 250.124H107.682V255H112.556V250.124Z" fill="white" fill-opacity="0.2"/>
<path opacity="0.65" d="M128.734 250.124H123.859V255H128.734V250.124Z" fill="white" fill-opacity="0.2"/>
<path opacity="0.65" d="M136.823 250.124H131.949V255H136.823V250.124Z" fill="white" fill-opacity="0.2"/>
<path opacity="0.65" d="M169.185 250.124H164.311V255H169.185V250.124Z" fill="white" fill-opacity="0.2"/>
<path opacity="0.65" d="M177.273 250.124H172.398V255H177.273V250.124Z" fill="white" fill-opacity="0.2"/>
<path opacity="0.65" d="M185.362 250.124H180.488V255H185.362V250.124Z" fill="white" fill-opacity="0.2"/>
<path opacity="0.65" d="M193.452 250.124H188.578V255H193.452V250.124Z" fill="white" fill-opacity="0.2"/>
<path opacity="0.65" d="M201.542 250.124H196.668V255H201.542V250.124Z" fill="white" fill-opacity="0.2"/>
<path opacity="0.65" d="M209.63 250.124H204.756V255H209.63V250.124Z" fill="white" fill-opacity="0.2"/>
<path opacity="0.65" d="M217.72 250.124H212.846V255H217.72V250.124Z" fill="white" fill-opacity="0.2"/>
<path opacity="0.65" d="M7.39562 242.055H2.52148V246.932H7.39562V242.055Z" fill="white" fill-opacity="0.2"/>
<path opacity="0.65" d="M23.5734 242.055H18.6992V246.932H23.5734V242.055Z" fill="white" fill-opacity="0.2"/>
<path opacity="0.65" d="M31.6632 242.055H26.7891V246.932H31.6632V242.055Z" fill="white" fill-opacity="0.2"/>
<path opacity="0.65" d="M64.0206 242.055H59.1465V246.932H64.0206V242.055Z" fill="white" fill-opacity="0.2"/>
<path opacity="0.65" d="M88.2882 242.055H83.4141V246.932H88.2882V242.055Z" fill="white" fill-opacity="0.2"/>
<path opacity="0.65" d="M96.378 242.055H91.5039V246.932H96.378V242.055Z" fill="white" fill-opacity="0.2"/>
<path opacity="0.65" d="M104.468 242.055H99.5938V246.932H104.468V242.055Z" fill="white" fill-opacity="0.2"/>
<path opacity="0.65" d="M128.734 242.055H123.859V246.932H128.734V242.055Z" fill="white" fill-opacity="0.2"/>
<path opacity="0.65" d="M169.185 242.055H164.311V246.932H169.185V242.055Z" fill="white" fill-opacity="0.2"/>
<path opacity="0.65" d="M177.273 242.055H172.398V246.932H177.273V242.055Z" fill="white" fill-opacity="0.2"/>
<path opacity="0.65" d="M185.362 242.055H180.488V246.932H185.362V242.055Z" fill="white" fill-opacity="0.2"/>
<path opacity="0.65" d="M193.452 242.055H188.578V246.932H193.452V242.055Z" fill="white" fill-opacity="0.2"/>
<path opacity="0.65" d="M217.72 242.055H212.846V246.932H217.72V242.055Z" fill="white" fill-opacity="0.2"/>
<path opacity="0.5" d="M7.39562 233.987H2.52148V238.863H7.39562V233.987Z" fill="white" fill-opacity="0.2"/>
<path opacity="0.5" d="M23.5734 233.987H18.6992V238.863H23.5734V233.987Z" fill="white" fill-opacity="0.2"/>
<path opacity="0.5" d="M31.6632 233.987H26.7891V238.863H31.6632V233.987Z" fill="white" fill-opacity="0.2"/>
<path opacity="0.5" d="M39.753 233.987H34.8789V238.863H39.753V233.987Z" fill="white" fill-opacity="0.2"/>
<path opacity="0.5" d="M47.8409 233.987H42.9668V238.863H47.8409V233.987Z" fill="white" fill-opacity="0.2"/>
<path opacity="0.5" d="M80.1984 233.987H75.3242V238.863H80.1984V233.987Z" fill="white" fill-opacity="0.2"/>
<path opacity="0.5" d="M104.468 233.987H99.5938V238.863H104.468V233.987Z" fill="white" fill-opacity="0.2"/>
<path opacity="0.5" d="M112.556 233.987H107.682V238.863H112.556V233.987Z" fill="white" fill-opacity="0.2"/>
<path opacity="0.5" d="M128.734 233.987H123.859V238.863H128.734V233.987Z" fill="white" fill-opacity="0.2"/>
<path opacity="0.5" d="M136.823 233.987H131.949V238.863H136.823V233.987Z" fill="white" fill-opacity="0.2"/>
<path opacity="0.5" d="M144.913 233.987H140.039V238.863H144.913V233.987Z" fill="white" fill-opacity="0.2"/>
<path opacity="0.5" d="M161.091 233.987H156.217V238.863H161.091V233.987Z" fill="white" fill-opacity="0.2"/>
<path opacity="0.5" d="M169.185 233.987H164.311V238.863H169.185V233.987Z" fill="white" fill-opacity="0.2"/>
<path opacity="0.5" d="M185.362 233.987H180.488V238.863H185.362V233.987Z" fill="white" fill-opacity="0.2"/>
<path opacity="0.5" d="M193.452 233.987H188.578V238.863H193.452V233.987Z" fill="white" fill-opacity="0.2"/>
<path opacity="0.5" d="M209.63 233.987H204.756V238.863H209.63V233.987Z" fill="white" fill-opacity="0.2"/>
<path opacity="0.5" d="M233.9 233.987H229.025V238.863H233.9V233.987Z" fill="white" fill-opacity="0.2"/>
<path opacity="0.5" d="M15.4835 225.918H10.6094V230.795H15.4835V225.918Z" fill="white" fill-opacity="0.2"/>
<path opacity="0.5" d="M39.753 225.918H34.8789V230.795H39.753V225.918Z" fill="white" fill-opacity="0.2"/>
<path opacity="0.5" d="M64.0206 225.918H59.1465V230.795H64.0206V225.918Z" fill="white" fill-opacity="0.2"/>
<path opacity="0.5" d="M80.1984 225.918H75.3242V230.795H80.1984V225.918Z" fill="white" fill-opacity="0.2"/>
<path opacity="0.5" d="M88.2882 225.918H83.4141V230.795H88.2882V225.918Z" fill="white" fill-opacity="0.2"/>
<path opacity="0.5" d="M104.468 225.918H99.5938V230.795H104.468V225.918Z" fill="white" fill-opacity="0.2"/>
<path opacity="0.5" d="M112.556 225.918H107.682V230.795H112.556V225.918Z" fill="white" fill-opacity="0.2"/>
<path opacity="0.5" d="M128.734 225.918H123.859V230.795H128.734V225.918Z" fill="white" fill-opacity="0.2"/>
<path opacity="0.5" d="M136.823 225.918H131.949V230.795H136.823V225.918Z" fill="white" fill-opacity="0.2"/>
<path opacity="0.5" d="M144.913 225.918H140.039V230.795H144.913V225.918Z" fill="white" fill-opacity="0.2"/>
<path opacity="0.5" d="M153.001 225.918H148.127V230.795H153.001V225.918Z" fill="white" fill-opacity="0.2"/>
<path opacity="0.5" d="M169.185 225.918H164.311V230.795H169.185V225.918Z" fill="white" fill-opacity="0.2"/>
<path opacity="0.5" d="M177.273 225.918H172.398V230.795H177.273V225.918Z" fill="white" fill-opacity="0.2"/>
<path opacity="0.5" d="M185.362 225.918H180.488V230.795H185.362V225.918Z" fill="white" fill-opacity="0.2"/>
<path opacity="0.5" d="M193.452 225.918H188.578V230.795H193.452V225.918Z" fill="white" fill-opacity="0.2"/>
<path opacity="0.5" d="M209.63 225.918H204.756V230.795H209.63V225.918Z" fill="white" fill-opacity="0.2"/>
<path opacity="0.5" d="M217.72 225.918H212.846V230.795H217.72V225.918Z" fill="white" fill-opacity="0.2"/>
<path opacity="0.5" d="M225.81 225.918H220.936V230.795H225.81V225.918Z" fill="white" fill-opacity="0.2"/>
<path opacity="0.5" d="M15.4835 217.85H10.6094V222.726H15.4835V217.85Z" fill="white" fill-opacity="0.2"/>
<path opacity="0.5" d="M31.6632 217.85H26.7891V222.726H31.6632V217.85Z" fill="white" fill-opacity="0.2"/>
<path opacity="0.5" d="M39.753 217.85H34.8789V222.726H39.753V217.85Z" fill="white" fill-opacity="0.2"/>
<path opacity="0.5" d="M47.8409 217.85H42.9668V222.726H47.8409V217.85Z" fill="white" fill-opacity="0.2"/>
<path opacity="0.5" d="M55.9308 217.85H51.0566V222.726H55.9308V217.85Z" fill="white" fill-opacity="0.2"/>
<path opacity="0.5" d="M64.0206 217.85H59.1465V222.726H64.0206V217.85Z" fill="white" fill-opacity="0.2"/>
<path opacity="0.5" d="M72.1105 217.85H67.2363V222.726H72.1105V217.85Z" fill="white" fill-opacity="0.2"/>
<path opacity="0.5" d="M88.2882 217.85H83.4141V222.726H88.2882V217.85Z" fill="white" fill-opacity="0.2"/>
<path opacity="0.5" d="M96.378 217.85H91.5039V222.726H96.378V217.85Z" fill="white" fill-opacity="0.2"/>
<path opacity="0.5" d="M104.468 217.85H99.5938V222.726H104.468V217.85Z" fill="white" fill-opacity="0.2"/>
<path opacity="0.5" d="M112.556 217.85H107.682V222.726H112.556V217.85Z" fill="white" fill-opacity="0.2"/>
<path opacity="0.5" d="M128.734 217.85H123.859V222.726H128.734V217.85Z" fill="white" fill-opacity="0.2"/>
<path opacity="0.5" d="M136.823 217.85H131.949V222.726H136.823V217.85Z" fill="white" fill-opacity="0.2"/>
<path opacity="0.5" d="M144.913 217.85H140.039V222.726H144.913V217.85Z" fill="white" fill-opacity="0.2"/>
<path opacity="0.5" d="M161.091 217.85H156.217V222.726H161.091V217.85Z" fill="white" fill-opacity="0.2"/>
<path opacity="0.5" d="M177.273 217.85H172.398V222.726H177.273V217.85Z" fill="white" fill-opacity="0.2"/>
<path opacity="0.5" d="M185.362 217.85H180.488V222.726H185.362V217.85Z" fill="white" fill-opacity="0.2"/>
<path opacity="0.5" d="M201.542 217.85H196.668V222.726H201.542V217.85Z" fill="white" fill-opacity="0.2"/>
<path opacity="0.5" d="M209.63 217.85H204.756V222.726H209.63V217.85Z" fill="white" fill-opacity="0.2"/>
<path opacity="0.5" d="M217.72 217.85H212.846V222.726H217.72V217.85Z" fill="white" fill-opacity="0.2"/>
<path opacity="0.5" d="M225.81 217.85H220.936V222.726H225.81V217.85Z" fill="white" fill-opacity="0.2"/>
<path opacity="0.5" d="M233.9 217.85H229.025V222.726H233.9V217.85Z" fill="white" fill-opacity="0.2"/>
<path opacity="0.45" d="M7.39562 209.765H2.52148V214.641H7.39562V209.765Z" fill="white" fill-opacity="0.2"/>
<path opacity="0.45" d="M15.4835 209.765H10.6094V214.641H15.4835V209.765Z" fill="white" fill-opacity="0.2"/>
<path opacity="0.45" d="M47.8409 209.77H42.9668V214.646H47.8409V209.77Z" fill="white" fill-opacity="0.2"/>
<path opacity="0.45" d="M55.9308 209.77H51.0566V214.646H55.9308V209.77Z" fill="white" fill-opacity="0.2"/>
<path opacity="0.45" d="M72.1105 209.77H67.2363V214.646H72.1105V209.77Z" fill="white" fill-opacity="0.2"/>
<path opacity="0.45" d="M88.2882 209.773H83.4141V214.65H88.2882V209.773Z" fill="white" fill-opacity="0.2"/>
<path opacity="0.45" d="M104.468 209.773H99.5938V214.65H104.468V209.773Z" fill="white" fill-opacity="0.2"/>
<path opacity="0.45" d="M128.734 209.773H123.859V214.65H128.734V209.773Z" fill="white" fill-opacity="0.2"/>
<path opacity="0.45" d="M144.913 209.778H140.039V214.654H144.913V209.778Z" fill="white" fill-opacity="0.2"/>
<path opacity="0.45" d="M153.001 209.778H148.127V214.654H153.001V209.778Z" fill="white" fill-opacity="0.2"/>
<path opacity="0.45" d="M161.091 209.778H156.217V214.654H161.091V209.778Z" fill="white" fill-opacity="0.2"/>
<path opacity="0.45" d="M169.181 209.778H164.307V214.654H169.181V209.778Z" fill="white" fill-opacity="0.2"/>
<path opacity="0.45" d="M177.271 209.778H172.396V214.654H177.271V209.778Z" fill="white" fill-opacity="0.2"/>
<path opacity="0.45" d="M185.359 209.778H180.484V214.654H185.359V209.778Z" fill="white" fill-opacity="0.2"/>
<path opacity="0.45" d="M201.542 209.782H196.668V214.658H201.542V209.782Z" fill="white" fill-opacity="0.2"/>
<path opacity="0.45" d="M209.63 209.782H204.756V214.658H209.63V209.782Z" fill="white" fill-opacity="0.2"/>
<path opacity="0.45" d="M233.9 209.782H229.025V214.658H233.9V209.782Z" fill="white" fill-opacity="0.2"/>
<path opacity="0.4" d="M23.5734 201.697H18.6992V206.573H23.5734V201.697Z" fill="white" fill-opacity="0.2"/>
<path opacity="0.4" d="M55.9308 201.701H51.0566V206.578H55.9308V201.701Z" fill="white" fill-opacity="0.2"/>
<path opacity="0.4" d="M72.1105 201.701H67.2363V206.578H72.1105V201.701Z" fill="white" fill-opacity="0.2"/>
<path opacity="0.4" d="M88.2882 201.705H83.4141V206.581H88.2882V201.705Z" fill="white" fill-opacity="0.2"/>
<path opacity="0.4" d="M96.378 201.705H91.5039V206.581H96.378V201.705Z" fill="white" fill-opacity="0.2"/>
<path opacity="0.4" d="M104.468 201.705H99.5938V206.581H104.468V201.705Z" fill="white" fill-opacity="0.2"/>
<path opacity="0.4" d="M112.556 201.705H107.682V206.581H112.556V201.705Z" fill="white" fill-opacity="0.2"/>
<path opacity="0.4" d="M136.823 201.705H131.949V206.581H136.823V201.705Z" fill="white" fill-opacity="0.2"/>
<path opacity="0.4" d="M144.913 201.709H140.039V206.586H144.913V201.709Z" fill="white" fill-opacity="0.2"/>
<path opacity="0.4" d="M153.001 201.709H148.127V206.586H153.001V201.709Z" fill="white" fill-opacity="0.2"/>
<path opacity="0.4" d="M161.091 201.709H156.217V206.586H161.091V201.709Z" fill="white" fill-opacity="0.2"/>
<path opacity="0.4" d="M169.185 201.709H164.311V206.586H169.185V201.709Z" fill="white" fill-opacity="0.2"/>
<path opacity="0.4" d="M177.273 201.709H172.398V206.586H177.273V201.709Z" fill="white" fill-opacity="0.2"/>
<path opacity="0.4" d="M201.542 201.709H196.668V206.586H201.542V201.709Z" fill="white" fill-opacity="0.2"/>
<path opacity="0.4" d="M209.63 201.713H204.756V206.59H209.63V201.713Z" fill="white" fill-opacity="0.2"/>
<path opacity="0.4" d="M217.72 201.713H212.846V206.59H217.72V201.713Z" fill="white" fill-opacity="0.2"/>
<path opacity="0.4" d="M225.81 201.713H220.936V206.59H225.81V201.713Z" fill="white" fill-opacity="0.2"/>
<path opacity="0.4" d="M233.9 201.713H229.025V206.59H233.9V201.713Z" fill="white" fill-opacity="0.2"/>
<path opacity="0.4" d="M7.39562 193.628H2.52148V198.505H7.39562V193.628Z" fill="white" fill-opacity="0.2"/>
<path opacity="0.4" d="M15.4835 193.628H10.6094V198.505H15.4835V193.628Z" fill="white" fill-opacity="0.2"/>
<path opacity="0.4" d="M39.753 193.633H34.8789V198.509H39.753V193.633Z" fill="white" fill-opacity="0.2"/>
<path opacity="0.4" d="M47.8409 193.633H42.9668V198.509H47.8409V193.633Z" fill="white" fill-opacity="0.2"/>
<path opacity="0.4" d="M55.9308 193.633H51.0566V198.509H55.9308V193.633Z" fill="white" fill-opacity="0.2"/>
<path opacity="0.4" d="M72.1105 193.633H67.2363V198.509H72.1105V193.633Z" fill="white" fill-opacity="0.2"/>
<path opacity="0.4" d="M88.2882 193.637H83.4141V198.513H88.2882V193.637Z" fill="white" fill-opacity="0.2"/>
<path opacity="0.4" d="M96.378 193.637H91.5039V198.513H96.378V193.637Z" fill="white" fill-opacity="0.2"/>
<path opacity="0.4" d="M112.556 193.637H107.682V198.513H112.556V193.637Z" fill="white" fill-opacity="0.2"/>
<path opacity="0.4" d="M128.734 193.637H123.859V198.513H128.734V193.637Z" fill="white" fill-opacity="0.2"/>
<path opacity="0.4" d="M136.827 193.637H131.953V198.513H136.827V193.637Z" fill="white" fill-opacity="0.2"/>
<path opacity="0.4" d="M153.007 193.641H148.133V198.517H153.007V193.641Z" fill="white" fill-opacity="0.2"/>
<path opacity="0.4" d="M169.185 193.641H164.311V198.517H169.185V193.641Z" fill="white" fill-opacity="0.2"/>
<path opacity="0.4" d="M185.362 193.641H180.488V198.517H185.362V193.641Z" fill="white" fill-opacity="0.2"/>
<path opacity="0.4" d="M193.452 193.641H188.578V198.517H193.452V193.641Z" fill="white" fill-opacity="0.2"/>
<path opacity="0.4" d="M209.63 193.645H204.756V198.521H209.63V193.645Z" fill="white" fill-opacity="0.2"/>
<path opacity="0.4" d="M225.81 193.645H220.936V198.521H225.81V193.645Z" fill="white" fill-opacity="0.2"/>
<path opacity="0.4" d="M233.9 193.645H229.025V198.521H233.9V193.645Z" fill="white" fill-opacity="0.2"/>
<path opacity="0.3" d="M15.4835 185.577H10.6094V190.453H15.4835V185.577Z" fill="white" fill-opacity="0.2"/>
<path opacity="0.3" d="M39.753 185.577H34.8789V190.453H39.753V185.577Z" fill="white" fill-opacity="0.2"/>
<path opacity="0.3" d="M88.2882 185.577H83.4141V190.453H88.2882V185.577Z" fill="white" fill-opacity="0.2"/>
<path opacity="0.3" d="M104.468 185.577H99.5938V190.453H104.468V185.577Z" fill="white" fill-opacity="0.2"/>
<path opacity="0.3" d="M120.644 185.577H115.77V190.453H120.644V185.577Z" fill="white" fill-opacity="0.2"/>
<path opacity="0.3" d="M128.734 185.577H123.859V190.453H128.734V185.577Z" fill="white" fill-opacity="0.2"/>
<path opacity="0.3" d="M136.823 185.577H131.949V190.453H136.823V185.577Z" fill="white" fill-opacity="0.2"/>
<path opacity="0.3" d="M153.001 185.577H148.127V190.453H153.001V185.577Z" fill="white" fill-opacity="0.2"/>
<path opacity="0.3" d="M169.185 185.577H164.311V190.453H169.185V185.577Z" fill="white" fill-opacity="0.2"/>
<path opacity="0.3" d="M177.273 185.577H172.398V190.453H177.273V185.577Z" fill="white" fill-opacity="0.2"/>
<path opacity="0.3" d="M209.63 185.577H204.756V190.453H209.63V185.577Z" fill="white" fill-opacity="0.2"/>
<path opacity="0.3" d="M15.4835 177.508H10.6094V182.385H15.4835V177.508Z" fill="white" fill-opacity="0.2"/>
<path opacity="0.3" d="M39.753 177.508H34.8789V182.385H39.753V177.508Z" fill="white" fill-opacity="0.2"/>
<path opacity="0.3" d="M47.8409 177.508H42.9668V182.385H47.8409V177.508Z" fill="white" fill-opacity="0.2"/>
<path opacity="0.3" d="M72.1105 177.508H67.2363V182.385H72.1105V177.508Z" fill="white" fill-opacity="0.2"/>
<path opacity="0.3" d="M80.1984 177.508H75.3242V182.385H80.1984V177.508Z" fill="white" fill-opacity="0.2"/>
<path opacity="0.3" d="M88.2882 177.508H83.4141V182.385H88.2882V177.508Z" fill="white" fill-opacity="0.2"/>
<path opacity="0.3" d="M104.468 177.508H99.5938V182.385H104.468V177.508Z" fill="white" fill-opacity="0.2"/>
<path opacity="0.3" d="M136.823 177.508H131.949V182.385H136.823V177.508Z" fill="white" fill-opacity="0.2"/>
<path opacity="0.3" d="M225.81 177.508H220.936V182.385H225.81V177.508Z" fill="white" fill-opacity="0.2"/>
<path opacity="0.3" d="M233.9 177.508H229.025V182.385H233.9V177.508Z" fill="white" fill-opacity="0.2"/>
<path opacity="0.25" d="M15.4835 169.44H10.6094V174.316H15.4835V169.44Z" fill="white" fill-opacity="0.2"/>
<path opacity="0.25" d="M23.5734 169.44H18.6992V174.316H23.5734V169.44Z" fill="white" fill-opacity="0.2"/>
<path opacity="0.25" d="M31.6632 169.44H26.7891V174.316H31.6632V169.44Z" fill="white" fill-opacity="0.2"/>
<path opacity="0.25" d="M39.753 169.44H34.8789V174.316H39.753V169.44Z" fill="white" fill-opacity="0.2"/>
<path opacity="0.25" d="M55.9308 169.44H51.0566V174.316H55.9308V169.44Z" fill="white" fill-opacity="0.2"/>
<path opacity="0.25" d="M72.1105 169.44H67.2363V174.316H72.1105V169.44Z" fill="white" fill-opacity="0.2"/>
<path opacity="0.25" d="M88.2882 169.44H83.4141V174.316H88.2882V169.44Z" fill="white" fill-opacity="0.2"/>
<path opacity="0.25" d="M104.468 169.44H99.5938V174.316H104.468V169.44Z" fill="white" fill-opacity="0.2"/>
<path opacity="0.25" d="M128.734 169.44H123.859V174.316H128.734V169.44Z" fill="white" fill-opacity="0.2"/>
<path opacity="0.25" d="M136.823 169.44H131.949V174.316H136.823V169.44Z" fill="white" fill-opacity="0.2"/>
<path opacity="0.25" d="M153.001 169.44H148.127V174.316H153.001V169.44Z" fill="white" fill-opacity="0.2"/>
<path opacity="0.25" d="M161.091 169.44H156.217V174.316H161.091V169.44Z" fill="white" fill-opacity="0.2"/>
<path opacity="0.25" d="M193.452 169.44H188.578V174.316H193.452V169.44Z" fill="white" fill-opacity="0.2"/>
<path opacity="0.25" d="M233.9 169.44H229.025V174.316H233.9V169.44Z" fill="white" fill-opacity="0.2"/>
<path opacity="0.25" d="M15.4835 161.372H10.6094V166.248H15.4835V161.372Z" fill="white" fill-opacity="0.2"/>
<path opacity="0.25" d="M31.6632 161.372H26.7891V166.248H31.6632V161.372Z" fill="white" fill-opacity="0.2"/>
<path opacity="0.25" d="M39.753 161.372H34.8789V166.248H39.753V161.372Z" fill="white" fill-opacity="0.2"/>
<path opacity="0.25" d="M55.9308 161.372H51.0566V166.248H55.9308V161.372Z" fill="white" fill-opacity="0.2"/>
<path opacity="0.25" d="M80.1984 161.372H75.3242V166.248H80.1984V161.372Z" fill="white" fill-opacity="0.2"/>
<path opacity="0.25" d="M88.2882 161.372H83.4141V166.248H88.2882V161.372Z" fill="white" fill-opacity="0.2"/>
<path opacity="0.25" d="M96.378 161.372H91.5039V166.248H96.378V161.372Z" fill="white" fill-opacity="0.2"/>
<path opacity="0.25" d="M120.644 161.372H115.77V166.248H120.644V161.372Z" fill="white" fill-opacity="0.2"/>
<path opacity="0.25" d="M128.734 161.372H123.859V166.248H128.734V161.372Z" fill="white" fill-opacity="0.2"/>
<path opacity="0.25" d="M153.001 161.372H148.127V166.248H153.001V161.372Z" fill="white" fill-opacity="0.2"/>
<path opacity="0.25" d="M169.185 161.372H164.311V166.248H169.185V161.372Z" fill="white" fill-opacity="0.2"/>
<path opacity="0.25" d="M201.542 161.372H196.668V166.248H201.542V161.372Z" fill="white" fill-opacity="0.2"/>
<path opacity="0.25" d="M225.81 161.372H220.936V166.248H225.81V161.372Z" fill="white" fill-opacity="0.2"/>
<path opacity="0.25" d="M23.5734 153.303H18.6992V158.18H23.5734V153.303Z" fill="white" fill-opacity="0.2"/>
<path opacity="0.25" d="M55.9308 153.303H51.0566V158.18H55.9308V153.303Z" fill="white" fill-opacity="0.2"/>
<path opacity="0.25" d="M88.2882 153.303H83.4141V158.18H88.2882V153.303Z" fill="white" fill-opacity="0.2"/>
<path opacity="0.25" d="M96.378 153.303H91.5039V158.18H96.378V153.303Z" fill="white" fill-opacity="0.2"/>
<path opacity="0.25" d="M136.823 153.303H131.949V158.18H136.823V153.303Z" fill="white" fill-opacity="0.2"/>
<path opacity="0.25" d="M169.185 153.303H164.311V158.18H169.185V153.303Z" fill="white" fill-opacity="0.2"/>
<path opacity="0.25" d="M201.542 153.303H196.668V158.18H201.542V153.303Z" fill="white" fill-opacity="0.2"/>
<path opacity="0.2" d="M23.5734 145.235H18.6992V150.111H23.5734V145.235Z" fill="white" fill-opacity="0.2"/>
<path opacity="0.2" d="M39.753 145.235H34.8789V150.111H39.753V145.235Z" fill="white" fill-opacity="0.2"/>
<path opacity="0.2" d="M64.0206 145.235H59.1465V150.111H64.0206V145.235Z" fill="white" fill-opacity="0.2"/>
<path opacity="0.2" d="M80.1984 145.235H75.3242V150.111H80.1984V145.235Z" fill="white" fill-opacity="0.2"/>
<path opacity="0.2" d="M112.556 145.235H107.682V150.111H112.556V145.235Z" fill="white" fill-opacity="0.2"/>
<path opacity="0.2" d="M128.734 145.235H123.859V150.111H128.734V145.235Z" fill="white" fill-opacity="0.2"/>
<path opacity="0.2" d="M153.001 145.235H148.127V150.111H153.001V145.235Z" fill="white" fill-opacity="0.2"/>
<path opacity="0.2" d="M161.091 145.235H156.217V150.111H161.091V145.235Z" fill="white" fill-opacity="0.2"/>
<path opacity="0.2" d="M193.452 145.235H188.578V150.111H193.452V145.235Z" fill="white" fill-opacity="0.2"/>
<path opacity="0.2" d="M201.542 145.235H196.668V150.111H201.542V145.235Z" fill="white" fill-opacity="0.2"/>
<path opacity="0.2" d="M209.63 145.235H204.756V150.111H209.63V145.235Z" fill="white" fill-opacity="0.2"/>
<path opacity="0.2" d="M217.72 145.235H212.846V150.111H217.72V145.235Z" fill="white" fill-opacity="0.2"/>
<path opacity="0.2" d="M23.5734 137.167H18.6992V142.043H23.5734V137.167Z" fill="white" fill-opacity="0.2"/>
<path opacity="0.2" d="M31.6632 137.167H26.7891V142.043H31.6632V137.167Z" fill="white" fill-opacity="0.2"/>
<path opacity="0.2" d="M39.753 137.167H34.8789V142.043H39.753V137.167Z" fill="white" fill-opacity="0.2"/>
<path opacity="0.2" d="M64.0206 137.167H59.1465V142.043H64.0206V137.167Z" fill="white" fill-opacity="0.2"/>
<path opacity="0.2" d="M80.1984 137.167H75.3242V142.043H80.1984V137.167Z" fill="white" fill-opacity="0.2"/>
<path opacity="0.2" d="M88.2882 137.167H83.4141V142.043H88.2882V137.167Z" fill="white" fill-opacity="0.2"/>
<path opacity="0.2" d="M104.468 137.167H99.5938V142.043H104.468V137.167Z" fill="white" fill-opacity="0.2"/>
<path opacity="0.2" d="M128.734 137.167H123.859V142.043H128.734V137.167Z" fill="white" fill-opacity="0.2"/>
<path opacity="0.2" d="M136.823 137.167H131.949V142.043H136.823V137.167Z" fill="white" fill-opacity="0.2"/>
<path opacity="0.2" d="M217.72 137.167H212.846V142.043H217.72V137.167Z" fill="white" fill-opacity="0.2"/>
<path opacity="0.1" d="M225.81 137.167H220.936V142.043H225.81V137.167Z" fill="white" fill-opacity="0.2"/>
<path opacity="0.2" d="M39.753 129.098H34.8789V133.974H39.753V129.098Z" fill="white" fill-opacity="0.2"/>
<path opacity="0.2" d="M55.9308 129.098H51.0566V133.974H55.9308V129.098Z" fill="white" fill-opacity="0.2"/>
<path opacity="0.2" d="M88.2882 129.098H83.4141V133.974H88.2882V129.098Z" fill="white" fill-opacity="0.2"/>
<path opacity="0.2" d="M96.378 129.098H91.5039V133.974H96.378V129.098Z" fill="white" fill-opacity="0.2"/>
<path opacity="0.2" d="M136.823 129.098H131.949V133.974H136.823V129.098Z" fill="white" fill-opacity="0.2"/>
<path opacity="0.2" d="M144.913 129.098H140.039V133.974H144.913V129.098Z" fill="white" fill-opacity="0.2"/>
<path opacity="0.2" d="M161.091 129.098H156.217V133.974H161.091V129.098Z" fill="white" fill-opacity="0.2"/>
<path opacity="0.1" d="M169.185 129.098H164.311V133.974H169.185V129.098Z" fill="white" fill-opacity="0.2"/>
<path opacity="0.1" d="M193.452 129.098H188.578V133.974H193.452V129.098Z" fill="white" fill-opacity="0.2"/>
<path opacity="0.2" d="M209.63 129.098H204.756V133.974H209.63V129.098Z" fill="white" fill-opacity="0.2"/>
<path opacity="0.1" d="M225.81 129.098H220.936V133.974H225.81V129.098Z" fill="white" fill-opacity="0.2"/>
<path opacity="0.2" d="M15.4835 121.03H10.6094V125.906H15.4835V121.03Z" fill="white" fill-opacity="0.2"/>
<path opacity="0.2" d="M23.5734 121.03H18.6992V125.906H23.5734V121.03Z" fill="white" fill-opacity="0.2"/>
<path opacity="0.2" d="M55.9308 121.03H51.0566V125.906H55.9308V121.03Z" fill="white" fill-opacity="0.2"/>
<path opacity="0.2" d="M64.0206 121.03H59.1465V125.906H64.0206V121.03Z" fill="white" fill-opacity="0.2"/>
<path opacity="0.2" d="M88.2882 121.03H83.4141V125.906H88.2882V121.03Z" fill="white" fill-opacity="0.2"/>
<path opacity="0.2" d="M112.556 121.03H107.682V125.906H112.556V121.03Z" fill="white" fill-opacity="0.2"/>
<path opacity="0.2" d="M153.001 121.03H148.127V125.906H153.001V121.03Z" fill="white" fill-opacity="0.2"/>
<path opacity="0.1" d="M209.63 121.03H204.756V125.906H209.63V121.03Z" fill="white" fill-opacity="0.2"/>
<path opacity="0.15" d="M64.0206 112.961H59.1465V117.838H64.0206V112.961Z" fill="white" fill-opacity="0.2"/>
<path opacity="0.15" d="M72.1105 112.961H67.2363V117.838H72.1105V112.961Z" fill="white" fill-opacity="0.2"/>
<path opacity="0.15" d="M80.1984 112.961H75.3242V117.838H80.1984V112.961Z" fill="white" fill-opacity="0.2"/>
<path opacity="0.15" d="M104.468 112.961H99.5938V117.838H104.468V112.961Z" fill="white" fill-opacity="0.2"/>
<path opacity="0.15" d="M144.913 112.961H140.039V117.838H144.913V112.961Z" fill="white" fill-opacity="0.2"/>
<path opacity="0.05" d="M217.72 112.961H212.846V117.838H217.72V112.961Z" fill="white" fill-opacity="0.2"/>
<path opacity="0.15" d="M15.4835 104.893H10.6094V109.769H15.4835V104.893Z" fill="white" fill-opacity="0.2"/>
<path opacity="0.15" d="M23.5734 104.893H18.6992V109.769H23.5734V104.893Z" fill="white" fill-opacity="0.2"/>
<path opacity="0.15" d="M31.6632 104.893H26.7891V109.769H31.6632V104.893Z" fill="white" fill-opacity="0.2"/>
<path opacity="0.15" d="M72.1105 104.893H67.2363V109.769H72.1105V104.893Z" fill="white" fill-opacity="0.2"/>
<path opacity="0.15" d="M88.2882 104.893H83.4141V109.769H88.2882V104.893Z" fill="white" fill-opacity="0.2"/>
<path opacity="0.15" d="M104.468 104.893H99.5938V109.769H104.468V104.893Z" fill="white" fill-opacity="0.2"/>
<path opacity="0.15" d="M120.644 104.893H115.77V109.769H120.644V104.893Z" fill="white" fill-opacity="0.2"/>
<path opacity="0.15" d="M136.823 104.893H131.949V109.769H136.823V104.893Z" fill="white" fill-opacity="0.2"/>
<path opacity="0.15" d="M161.091 104.893H156.217V109.769H161.091V104.893Z" fill="white" fill-opacity="0.2"/>
<path opacity="0.1" d="M169.185 104.893H164.311V109.769H169.185V104.893Z" fill="white" fill-opacity="0.2"/>
<path opacity="0.15" d="M39.753 96.8247H34.8789V101.701H39.753V96.8247Z" fill="white" fill-opacity="0.2"/>
<path opacity="0.15" d="M64.0206 96.8247H59.1465V101.701H64.0206V96.8247Z" fill="white" fill-opacity="0.2"/>
<path opacity="0.15" d="M120.644 96.8247H115.77V101.701H120.644V96.8247Z" fill="white" fill-opacity="0.2"/>
<path opacity="0.15" d="M128.734 96.8247H123.859V101.701H128.734V96.8247Z" fill="white" fill-opacity="0.2"/>
<path opacity="0.05" d="M161.091 96.8247H156.217V101.701H161.091V96.8247Z" fill="white" fill-opacity="0.2"/>
<path opacity="0.15" d="M23.5734 88.752H18.6992V93.6283H23.5734V88.752Z" fill="white" fill-opacity="0.2"/>
<path opacity="0.15" d="M39.753 88.752H34.8789V93.6283H39.753V88.752Z" fill="white" fill-opacity="0.2"/>
<path opacity="0.15" d="M55.9308 88.752H51.0566V93.6283H55.9308V88.752Z" fill="white" fill-opacity="0.2"/>
<path opacity="0.15" d="M72.1105 88.752H67.2363V93.6283H72.1105V88.752Z" fill="white" fill-opacity="0.2"/>
<path opacity="0.15" d="M104.468 88.752H99.5938V93.6283H104.468V88.752Z" fill="white" fill-opacity="0.2"/>
<path opacity="0.15" d="M128.734 88.752H123.859V93.6283H128.734V88.752Z" fill="white" fill-opacity="0.2"/>
<path opacity="0.15" d="M31.6632 80.6836H26.7891V85.56H31.6632V80.6836Z" fill="white" fill-opacity="0.2"/>
<path opacity="0.15" d="M80.1984 80.6836H75.3242V85.56H80.1984V80.6836Z" fill="white" fill-opacity="0.2"/>
<path opacity="0.15" d="M112.556 80.6836H107.682V85.56H112.556V80.6836Z" fill="white" fill-opacity="0.2"/>
<path opacity="0.1" d="M55.9308 72.6152H51.0566V77.4916H55.9308V72.6152Z" fill="white" fill-opacity="0.2"/>
<path opacity="0.1" d="M88.2882 72.6152H83.4141V77.4916H88.2882V72.6152Z" fill="white" fill-opacity="0.2"/>
<path opacity="0.1" d="M31.6632 64.5469H26.7891V69.4232H31.6632V64.5469Z" fill="white" fill-opacity="0.2"/>
<path opacity="0.1" d="M120.644 64.5469H115.77V69.4232H120.644V64.5469Z" fill="white" fill-opacity="0.2"/>
<path opacity="0.1" d="M64.0206 56.4785H59.1465V61.3549H64.0206V56.4785Z" fill="white" fill-opacity="0.2"/>
<path opacity="0.1" d="M31.6632 48.4102H26.7891V53.2865H31.6632V48.4102Z" fill="white" fill-opacity="0.2"/>
<path opacity="0.1" d="M55.9308 48.4102H51.0566V53.2865H55.9308V48.4102Z" fill="white" fill-opacity="0.2"/>
<path opacity="0.05" d="M104.468 48.4102H99.5938V53.2865H104.468V48.4102Z" fill="white" fill-opacity="0.2"/>
<path opacity="0.65" d="M241.98 250.124H237.105V255H241.98V250.124Z" fill="white" fill-opacity="0.2"/>
<path opacity="0.65" d="M266.247 250.124H261.373V255H266.247V250.124Z" fill="white" fill-opacity="0.2"/>
<path opacity="0.65" d="M274.337 250.124H269.463V255H274.337V250.124Z" fill="white" fill-opacity="0.2"/>
<path opacity="0.65" d="M282.425 250.124H277.551V255H282.425V250.124Z" fill="white" fill-opacity="0.2"/>
<path opacity="0.65" d="M298.605 250.124H293.73V255H298.605V250.124Z" fill="white" fill-opacity="0.2"/>
<path opacity="0.65" d="M306.694 250.124H301.82V255H306.694V250.124Z" fill="white" fill-opacity="0.2"/>
<path opacity="0.65" d="M330.96 250.124H326.086V255H330.96V250.124Z" fill="white" fill-opacity="0.2"/>
<path opacity="0.65" d="M371.407 250.124H366.533V255H371.407V250.124Z" fill="white" fill-opacity="0.2"/>
<path opacity="0.65" d="M403.765 250.124H398.891V255H403.765V250.124Z" fill="white" fill-opacity="0.2"/>
<path opacity="0.65" d="M411.855 250.124H406.98V255H411.855V250.124Z" fill="white" fill-opacity="0.2"/>
<path opacity="0.65" d="M428.032 250.124H423.158V255H428.032V250.124Z" fill="white" fill-opacity="0.2"/>
<path opacity="0.65" d="M436.12 250.124H431.246V255H436.12V250.124Z" fill="white" fill-opacity="0.2"/>
<path opacity="0.65" d="M444.216 250.124H439.342V255H444.216V250.124Z" fill="white" fill-opacity="0.2"/>
<path opacity="0.65" d="M460.394 250.124H455.52V255H460.394V250.124Z" fill="white" fill-opacity="0.2"/>
<path opacity="0.65" d="M241.98 242.055H237.105V246.932H241.98V242.055Z" fill="white" fill-opacity="0.2"/>
<path opacity="0.65" d="M250.069 242.055H245.195V246.932H250.069V242.055Z" fill="white" fill-opacity="0.2"/>
<path opacity="0.65" d="M266.247 242.055H261.373V246.932H266.247V242.055Z" fill="white" fill-opacity="0.2"/>
<path opacity="0.65" d="M274.337 242.055H269.463V246.932H274.337V242.055Z" fill="white" fill-opacity="0.2"/>
<path opacity="0.65" d="M282.425 242.055H277.551V246.932H282.425V242.055Z" fill="white" fill-opacity="0.2"/>
<path opacity="0.65" d="M290.515 242.055H285.641V246.932H290.515V242.055Z" fill="white" fill-opacity="0.2"/>
<path opacity="0.65" d="M306.694 242.055H301.82V246.932H306.694V242.055Z" fill="white" fill-opacity="0.2"/>
<path opacity="0.65" d="M314.784 242.055H309.91V246.932H314.784V242.055Z" fill="white" fill-opacity="0.2"/>
<path opacity="0.65" d="M339.05 242.055H334.176V246.932H339.05V242.055Z" fill="white" fill-opacity="0.2"/>
<path opacity="0.65" d="M347.14 242.055H342.266V246.932H347.14V242.055Z" fill="white" fill-opacity="0.2"/>
<path opacity="0.65" d="M363.317 242.055H358.443V246.932H363.317V242.055Z" fill="white" fill-opacity="0.2"/>
<path opacity="0.65" d="M371.407 242.055H366.533V246.932H371.407V242.055Z" fill="white" fill-opacity="0.2"/>
<path opacity="0.65" d="M403.765 242.055H398.891V246.932H403.765V242.055Z" fill="white" fill-opacity="0.2"/>
<path opacity="0.65" d="M436.12 242.055H431.246V246.932H436.12V242.055Z" fill="white" fill-opacity="0.2"/>
<path opacity="0.65" d="M444.216 242.055H439.342V246.932H444.216V242.055Z" fill="white" fill-opacity="0.2"/>
<path opacity="0.65" d="M452.304 242.055H447.43V246.932H452.304V242.055Z" fill="white" fill-opacity="0.2"/>
<path opacity="0.5" d="M241.98 233.987H237.105V238.863H241.98V233.987Z" fill="white" fill-opacity="0.2"/>
<path opacity="0.5" d="M250.069 233.987H245.195V238.863H250.069V233.987Z" fill="white" fill-opacity="0.2"/>
<path opacity="0.5" d="M258.157 233.987H253.283V238.863H258.157V233.987Z" fill="white" fill-opacity="0.2"/>
<path opacity="0.5" d="M274.337 233.987H269.463V238.863H274.337V233.987Z" fill="white" fill-opacity="0.2"/>
<path opacity="0.5" d="M282.425 233.987H277.551V238.863H282.425V233.987Z" fill="white" fill-opacity="0.2"/>
<path opacity="0.5" d="M290.515 233.987H285.641V238.863H290.515V233.987Z" fill="white" fill-opacity="0.2"/>
<path opacity="0.5" d="M306.694 233.987H301.82V238.863H306.694V233.987Z" fill="white" fill-opacity="0.2"/>
<path opacity="0.5" d="M347.14 233.987H342.266V238.863H347.14V233.987Z" fill="white" fill-opacity="0.2"/>
<path opacity="0.5" d="M379.497 233.987H374.623V238.863H379.497V233.987Z" fill="white" fill-opacity="0.2"/>
<path opacity="0.5" d="M403.765 233.987H398.891V238.863H403.765V233.987Z" fill="white" fill-opacity="0.2"/>
<path opacity="0.5" d="M419.944 233.987H415.07V238.863H419.944V233.987Z" fill="white" fill-opacity="0.2"/>
<path opacity="0.5" d="M436.12 233.987H431.246V238.863H436.12V233.987Z" fill="white" fill-opacity="0.2"/>
<path opacity="0.5" d="M452.304 233.987H447.43V238.863H452.304V233.987Z" fill="white" fill-opacity="0.2"/>
<path opacity="0.5" d="M460.394 233.987H455.52V238.863H460.394V233.987Z" fill="white" fill-opacity="0.2"/>
<path opacity="0.5" d="M250.069 225.918H245.195V230.795H250.069V225.918Z" fill="white" fill-opacity="0.2"/>
<path opacity="0.5" d="M274.337 225.918H269.463V230.795H274.337V225.918Z" fill="white" fill-opacity="0.2"/>
<path opacity="0.5" d="M282.425 225.918H277.551V230.795H282.425V225.918Z" fill="white" fill-opacity="0.2"/>
<path opacity="0.5" d="M290.515 225.918H285.641V230.795H290.515V225.918Z" fill="white" fill-opacity="0.2"/>
<path opacity="0.5" d="M306.694 225.918H301.82V230.795H306.694V225.918Z" fill="white" fill-opacity="0.2"/>
<path opacity="0.5" d="M314.784 225.918H309.91V230.795H314.784V225.918Z" fill="white" fill-opacity="0.2"/>
<path opacity="0.5" d="M339.05 225.918H334.176V230.795H339.05V225.918Z" fill="white" fill-opacity="0.2"/>
<path opacity="0.5" d="M347.14 225.918H342.266V230.795H347.14V225.918Z" fill="white" fill-opacity="0.2"/>
<path opacity="0.5" d="M363.317 225.918H358.443V230.795H363.317V225.918Z" fill="white" fill-opacity="0.2"/>
<path opacity="0.5" d="M371.407 225.918H366.533V230.795H371.407V225.918Z" fill="white" fill-opacity="0.2"/>
<path opacity="0.5" d="M379.497 225.918H374.623V230.795H379.497V225.918Z" fill="white" fill-opacity="0.2"/>
<path opacity="0.5" d="M395.675 225.918H390.801V230.795H395.675V225.918Z" fill="white" fill-opacity="0.2"/>
<path opacity="0.5" d="M436.12 225.918H431.246V230.795H436.12V225.918Z" fill="white" fill-opacity="0.2"/>
<path opacity="0.5" d="M452.304 225.918H447.43V230.795H452.304V225.918Z" fill="white" fill-opacity="0.2"/>
<path opacity="0.5" d="M460.394 225.918H455.52V230.795H460.394V225.918Z" fill="white" fill-opacity="0.2"/>
<path opacity="0.5" d="M241.98 217.85H237.105V222.726H241.98V217.85Z" fill="white" fill-opacity="0.2"/>
<path opacity="0.5" d="M250.069 217.85H245.195V222.726H250.069V217.85Z" fill="white" fill-opacity="0.2"/>
<path opacity="0.5" d="M282.425 217.85H277.551V222.726H282.425V217.85Z" fill="white" fill-opacity="0.2"/>
<path opacity="0.5" d="M306.694 217.85H301.82V222.726H306.694V217.85Z" fill="white" fill-opacity="0.2"/>
<path opacity="0.5" d="M314.784 217.85H309.91V222.726H314.784V217.85Z" fill="white" fill-opacity="0.2"/>
<path opacity="0.5" d="M339.05 217.85H334.176V222.726H339.05V217.85Z" fill="white" fill-opacity="0.2"/>
<path opacity="0.5" d="M363.317 217.85H358.443V222.726H363.317V217.85Z" fill="white" fill-opacity="0.2"/>
<path opacity="0.5" d="M379.497 217.85H374.623V222.726H379.497V217.85Z" fill="white" fill-opacity="0.2"/>
<path opacity="0.5" d="M387.587 217.85H382.713V222.726H387.587V217.85Z" fill="white" fill-opacity="0.2"/>
<path opacity="0.5" d="M395.675 217.85H390.801V222.726H395.675V217.85Z" fill="white" fill-opacity="0.2"/>
<path opacity="0.5" d="M403.765 217.85H398.891V222.726H403.765V217.85Z" fill="white" fill-opacity="0.2"/>
<path opacity="0.5" d="M411.855 217.85H406.98V222.726H411.855V217.85Z" fill="white" fill-opacity="0.2"/>
<path opacity="0.45" d="M274.337 209.786H269.463V214.662H274.337V209.786Z" fill="white" fill-opacity="0.2"/>
<path opacity="0.45" d="M282.425 209.786H277.551V214.662H282.425V209.786Z" fill="white" fill-opacity="0.2"/>
<path opacity="0.45" d="M306.694 209.786H301.82V214.662H306.694V209.786Z" fill="white" fill-opacity="0.2"/>
<path opacity="0.45" d="M330.96 209.79H326.086V214.666H330.96V209.79Z" fill="white" fill-opacity="0.2"/>
<path opacity="0.45" d="M339.05 209.79H334.176V214.666H339.05V209.79Z" fill="white" fill-opacity="0.2"/>
<path opacity="0.45" d="M347.14 209.79H342.266V214.666H347.14V209.79Z" fill="white" fill-opacity="0.2"/>
<path opacity="0.45" d="M363.317 209.79H358.443V214.666H363.317V209.79Z" fill="white" fill-opacity="0.2"/>
<path opacity="0.45" d="M387.587 209.794H382.713V214.67H387.587V209.794Z" fill="white" fill-opacity="0.2"/>
<path opacity="0.45" d="M403.765 209.794H398.891V214.67H403.765V209.794Z" fill="white" fill-opacity="0.2"/>
<path opacity="0.45" d="M411.855 209.794H406.98V214.67H411.855V209.794Z" fill="white" fill-opacity="0.2"/>
<path opacity="0.45" d="M419.944 209.794H415.07V214.67H419.944V209.794Z" fill="white" fill-opacity="0.2"/>
<path opacity="0.45" d="M436.12 209.798H431.246V214.675H436.12V209.798Z" fill="white" fill-opacity="0.2"/>
<path opacity="0.45" d="M444.21 209.798H439.336V214.675H444.21V209.798Z" fill="white" fill-opacity="0.2"/>
<path opacity="0.45" d="M452.3 209.798H447.426V214.675H452.3V209.798Z" fill="white" fill-opacity="0.2"/>
<path opacity="0.45" d="M460.39 209.798H455.516V214.675H460.39V209.798Z" fill="white" fill-opacity="0.2"/>
<path opacity="0.4" d="M241.98 201.713H237.105V206.59H241.98V201.713Z" fill="white" fill-opacity="0.2"/>
<path opacity="0.4" d="M250.069 201.713H245.195V206.59H250.069V201.713Z" fill="white" fill-opacity="0.2"/>
<path opacity="0.4" d="M274.337 201.718H269.463V206.594H274.337V201.718Z" fill="white" fill-opacity="0.2"/>
<path opacity="0.4" d="M282.425 201.718H277.551V206.594H282.425V201.718Z" fill="white" fill-opacity="0.2"/>
<path opacity="0.4" d="M290.515 201.718H285.641V206.594H290.515V201.718Z" fill="white" fill-opacity="0.2"/>
<path opacity="0.4" d="M306.694 201.718H301.82V206.594H306.694V201.718Z" fill="white" fill-opacity="0.2"/>
<path opacity="0.4" d="M314.784 201.718H309.91V206.594H314.784V201.718Z" fill="white" fill-opacity="0.2"/>
<path opacity="0.4" d="M347.14 201.722H342.266V206.598H347.14V201.722Z" fill="white" fill-opacity="0.2"/>
<path opacity="0.4" d="M371.407 201.722H366.533V206.598H371.407V201.722Z" fill="white" fill-opacity="0.2"/>
<path opacity="0.4" d="M379.497 201.726H374.623V206.602H379.497V201.726Z" fill="white" fill-opacity="0.2"/>
<path opacity="0.4" d="M419.944 201.726H415.07V206.602H419.944V201.726Z" fill="white" fill-opacity="0.2"/>
<path opacity="0.4" d="M444.216 201.73H439.342V206.606H444.216V201.73Z" fill="white" fill-opacity="0.2"/>
<path opacity="0.4" d="M241.98 193.645H237.105V198.521H241.98V193.645Z" fill="white" fill-opacity="0.2"/>
<path opacity="0.4" d="M258.157 193.645H253.283V198.521H258.157V193.645Z" fill="white" fill-opacity="0.2"/>
<path opacity="0.4" d="M274.337 193.649H269.463V198.525H274.337V193.649Z" fill="white" fill-opacity="0.2"/>
<path opacity="0.4" d="M290.515 193.649H285.641V198.525H290.515V193.649Z" fill="white" fill-opacity="0.2"/>
<path opacity="0.4" d="M306.694 193.649H301.82V198.525H306.694V193.649Z" fill="white" fill-opacity="0.2"/>
<path opacity="0.4" d="M314.784 193.649H309.91V198.525H314.784V193.649Z" fill="white" fill-opacity="0.2"/>
<path opacity="0.4" d="M322.872 193.653H317.998V198.53H322.872V193.653Z" fill="white" fill-opacity="0.2"/>
<path opacity="0.4" d="M330.96 193.653H326.086V198.53H330.96V193.653Z" fill="white" fill-opacity="0.2"/>
<path opacity="0.4" d="M339.05 193.653H334.176V198.53H339.05V193.653Z" fill="white" fill-opacity="0.2"/>
<path opacity="0.4" d="M363.317 193.653H358.443V198.53H363.317V193.653Z" fill="white" fill-opacity="0.2"/>
<path opacity="0.4" d="M371.407 193.653H366.533V198.53H371.407V193.653Z" fill="white" fill-opacity="0.2"/>
<path opacity="0.4" d="M379.497 193.653H374.623V198.53H379.497V193.653Z" fill="white" fill-opacity="0.2"/>
<path opacity="0.4" d="M387.587 193.657H382.713V198.534H387.587V193.657Z" fill="white" fill-opacity="0.2"/>
<path opacity="0.4" d="M403.765 193.657H398.891V198.534H403.765V193.657Z" fill="white" fill-opacity="0.2"/>
<path opacity="0.4" d="M411.858 193.657H406.984V198.534H411.858V193.657Z" fill="white" fill-opacity="0.2"/>
<path opacity="0.4" d="M452.304 193.662H447.43V198.538H452.304V193.662Z" fill="white" fill-opacity="0.2"/>
<path opacity="0.4" d="M460.394 193.662H455.52V198.538H460.394V193.662Z" fill="white" fill-opacity="0.2"/>
<path opacity="0.3" d="M241.98 185.577H237.105V190.453H241.98V185.577Z" fill="white" fill-opacity="0.2"/>
<path opacity="0.3" d="M266.247 185.577H261.373V190.453H266.247V185.577Z" fill="white" fill-opacity="0.2"/>
<path opacity="0.3" d="M274.337 185.577H269.463V190.453H274.337V185.577Z" fill="white" fill-opacity="0.2"/>
<path opacity="0.3" d="M290.515 185.577H285.641V190.453H290.515V185.577Z" fill="white" fill-opacity="0.2"/>
<path opacity="0.3" d="M322.872 185.577H317.998V190.453H322.872V185.577Z" fill="white" fill-opacity="0.2"/>
<path opacity="0.3" d="M330.96 185.577H326.086V190.453H330.96V185.577Z" fill="white" fill-opacity="0.2"/>
<path opacity="0.3" d="M347.14 185.577H342.266V190.453H347.14V185.577Z" fill="white" fill-opacity="0.2"/>
<path opacity="0.3" d="M371.407 185.577H366.533V190.453H371.407V185.577Z" fill="white" fill-opacity="0.2"/>
<path opacity="0.3" d="M387.587 185.577H382.713V190.453H387.587V185.577Z" fill="white" fill-opacity="0.2"/>
<path opacity="0.3" d="M395.675 185.577H390.801V190.453H395.675V185.577Z" fill="white" fill-opacity="0.2"/>
<path opacity="0.3" d="M403.765 185.577H398.891V190.453H403.765V185.577Z" fill="white" fill-opacity="0.2"/>
<path opacity="0.3" d="M419.944 185.577H415.07V190.453H419.944V185.577Z" fill="white" fill-opacity="0.2"/>
<path opacity="0.3" d="M436.12 185.577H431.246V190.453H436.12V185.577Z" fill="white" fill-opacity="0.2"/>
<path opacity="0.3" d="M444.216 185.577H439.342V190.453H444.216V185.577Z" fill="white" fill-opacity="0.2"/>
<path opacity="0.3" d="M452.304 185.577H447.43V190.453H452.304V185.577Z" fill="white" fill-opacity="0.2"/>
<path opacity="0.3" d="M460.394 185.577H455.52V190.453H460.394V185.577Z" fill="white" fill-opacity="0.2"/>
<path opacity="0.3" d="M258.157 177.508H253.283V182.385H258.157V177.508Z" fill="white" fill-opacity="0.2"/>
<path opacity="0.3" d="M274.337 177.508H269.463V182.385H274.337V177.508Z" fill="white" fill-opacity="0.2"/>
<path opacity="0.3" d="M282.425 177.508H277.551V182.385H282.425V177.508Z" fill="white" fill-opacity="0.2"/>
<path opacity="0.3" d="M290.515 177.508H285.641V182.385H290.515V177.508Z" fill="white" fill-opacity="0.2"/>
<path opacity="0.3" d="M306.694 177.508H301.82V182.385H306.694V177.508Z" fill="white" fill-opacity="0.2"/>
<path opacity="0.3" d="M314.784 177.508H309.91V182.385H314.784V177.508Z" fill="white" fill-opacity="0.2"/>
<path opacity="0.3" d="M322.872 177.508H317.998V182.385H322.872V177.508Z" fill="white" fill-opacity="0.2"/>
<path opacity="0.3" d="M330.96 177.508H326.086V182.385H330.96V177.508Z" fill="white" fill-opacity="0.2"/>
<path opacity="0.3" d="M339.05 177.508H334.176V182.385H339.05V177.508Z" fill="white" fill-opacity="0.2"/>
<path opacity="0.3" d="M363.317 177.508H358.443V182.385H363.317V177.508Z" fill="white" fill-opacity="0.2"/>
<path opacity="0.3" d="M371.407 177.508H366.533V182.385H371.407V177.508Z" fill="white" fill-opacity="0.2"/>
<path opacity="0.3" d="M379.497 177.508H374.623V182.385H379.497V177.508Z" fill="white" fill-opacity="0.2"/>
<path opacity="0.3" d="M387.587 177.508H382.713V182.385H387.587V177.508Z" fill="white" fill-opacity="0.2"/>
<path opacity="0.3" d="M403.765 177.508H398.891V182.385H403.765V177.508Z" fill="white" fill-opacity="0.2"/>
<path opacity="0.3" d="M419.944 177.508H415.07V182.385H419.944V177.508Z" fill="white" fill-opacity="0.2"/>
<path opacity="0.3" d="M444.216 177.508H439.342V182.385H444.216V177.508Z" fill="white" fill-opacity="0.2"/>
<path opacity="0.3" d="M452.304 177.508H447.43V182.385H452.304V177.508Z" fill="white" fill-opacity="0.2"/>
<path opacity="0.25" d="M241.98 169.44H237.105V174.316H241.98V169.44Z" fill="white" fill-opacity="0.2"/>
<path opacity="0.25" d="M258.157 169.44H253.283V174.316H258.157V169.44Z" fill="white" fill-opacity="0.2"/>
<path opacity="0.25" d="M266.247 169.44H261.373V174.316H266.247V169.44Z" fill="white" fill-opacity="0.2"/>
<path opacity="0.25" d="M274.337 169.44H269.463V174.316H274.337V169.44Z" fill="white" fill-opacity="0.2"/>
<path opacity="0.25" d="M282.425 169.44H277.551V174.316H282.425V169.44Z" fill="white" fill-opacity="0.2"/>
<path opacity="0.25" d="M298.605 169.44H293.73V174.316H298.605V169.44Z" fill="white" fill-opacity="0.2"/>
<path opacity="0.25" d="M322.872 169.44H317.998V174.316H322.872V169.44Z" fill="white" fill-opacity="0.2"/>
<path opacity="0.25" d="M339.05 169.44H334.176V174.316H339.05V169.44Z" fill="white" fill-opacity="0.2"/>
<path opacity="0.25" d="M347.14 169.44H342.266V174.316H347.14V169.44Z" fill="white" fill-opacity="0.2"/>
<path opacity="0.25" d="M371.407 169.44H366.533V174.316H371.407V169.44Z" fill="white" fill-opacity="0.2"/>
<path opacity="0.25" d="M379.497 169.44H374.623V174.316H379.497V169.44Z" fill="white" fill-opacity="0.2"/>
<path opacity="0.25" d="M395.675 169.44H390.801V174.316H395.675V169.44Z" fill="white" fill-opacity="0.2"/>
<path opacity="0.25" d="M419.944 169.44H415.07V174.316H419.944V169.44Z" fill="white" fill-opacity="0.2"/>
<path opacity="0.25" d="M436.12 169.44H431.246V174.316H436.12V169.44Z" fill="white" fill-opacity="0.2"/>
<path opacity="0.25" d="M444.216 169.44H439.342V174.316H444.216V169.44Z" fill="white" fill-opacity="0.2"/>
<path opacity="0.25" d="M460.394 169.44H455.52V174.316H460.394V169.44Z" fill="white" fill-opacity="0.2"/>
<path opacity="0.25" d="M241.98 161.372H237.105V166.248H241.98V161.372Z" fill="white" fill-opacity="0.2"/>
<path opacity="0.25" d="M258.157 161.372H253.283V166.248H258.157V161.372Z" fill="white" fill-opacity="0.2"/>
<path opacity="0.25" d="M282.425 161.372H277.551V166.248H282.425V161.372Z" fill="white" fill-opacity="0.2"/>
<path opacity="0.25" d="M298.605 161.372H293.73V166.248H298.605V161.372Z" fill="white" fill-opacity="0.2"/>
<path opacity="0.25" d="M306.694 161.372H301.82V166.248H306.694V161.372Z" fill="white" fill-opacity="0.2"/>
<path opacity="0.25" d="M330.96 161.372H326.086V166.248H330.96V161.372Z" fill="white" fill-opacity="0.2"/>
<path opacity="0.25" d="M379.497 161.372H374.623V166.248H379.497V161.372Z" fill="white" fill-opacity="0.2"/>
<path opacity="0.25" d="M387.587 161.372H382.713V166.248H387.587V161.372Z" fill="white" fill-opacity="0.2"/>
<path opacity="0.25" d="M403.765 161.372H398.891V166.248H403.765V161.372Z" fill="white" fill-opacity="0.2"/>
<path opacity="0.25" d="M411.855 161.372H406.98V166.248H411.855V161.372Z" fill="white" fill-opacity="0.2"/>
<path opacity="0.25" d="M436.12 161.372H431.246V166.248H436.12V161.372Z" fill="white" fill-opacity="0.2"/>
<path opacity="0.25" d="M444.216 161.372H439.342V166.248H444.216V161.372Z" fill="white" fill-opacity="0.2"/>
<path opacity="0.25" d="M460.394 161.372H455.52V166.248H460.394V161.372Z" fill="white" fill-opacity="0.2"/>
<path opacity="0.25" d="M241.98 153.303H237.105V158.18H241.98V153.303Z" fill="white" fill-opacity="0.2"/>
<path opacity="0.25" d="M266.247 153.303H261.373V158.18H266.247V153.303Z" fill="white" fill-opacity="0.2"/>
<path opacity="0.25" d="M274.337 153.303H269.463V158.18H274.337V153.303Z" fill="white" fill-opacity="0.2"/>
<path opacity="0.25" d="M322.872 153.303H317.998V158.18H322.872V153.303Z" fill="white" fill-opacity="0.2"/>
<path opacity="0.25" d="M330.96 153.303H326.086V158.18H330.96V153.303Z" fill="white" fill-opacity="0.2"/>
<path opacity="0.25" d="M339.05 153.303H334.176V158.18H339.05V153.303Z" fill="white" fill-opacity="0.2"/>
<path opacity="0.25" d="M347.14 153.303H342.266V158.18H347.14V153.303Z" fill="white" fill-opacity="0.2"/>
<path opacity="0.25" d="M371.407 153.303H366.533V158.18H371.407V153.303Z" fill="white" fill-opacity="0.2"/>
<path opacity="0.25" d="M379.497 153.303H374.623V158.18H379.497V153.303Z" fill="white" fill-opacity="0.2"/>
<path opacity="0.25" d="M395.675 153.303H390.801V158.18H395.675V153.303Z" fill="white" fill-opacity="0.2"/>
<path opacity="0.25" d="M403.765 153.303H398.891V158.18H403.765V153.303Z" fill="white" fill-opacity="0.2"/>
<path opacity="0.25" d="M419.944 153.303H415.07V158.18H419.944V153.303Z" fill="white" fill-opacity="0.2"/>
<path opacity="0.25" d="M428.032 153.303H423.158V158.18H428.032V153.303Z" fill="white" fill-opacity="0.2"/>
<path opacity="0.25" d="M436.12 153.303H431.246V158.18H436.12V153.303Z" fill="white" fill-opacity="0.2"/>
<path opacity="0.25" d="M444.216 153.303H439.342V158.18H444.216V153.303Z" fill="white" fill-opacity="0.2"/>
<path opacity="0.25" d="M460.394 153.303H455.52V158.18H460.394V153.303Z" fill="white" fill-opacity="0.2"/>
<path opacity="0.2" d="M266.247 145.235H261.373V150.111H266.247V145.235Z" fill="white" fill-opacity="0.2"/>
<path opacity="0.2" d="M274.337 145.235H269.463V150.111H274.337V145.235Z" fill="white" fill-opacity="0.2"/>
<path opacity="0.2" d="M282.425 145.235H277.551V150.111H282.425V145.235Z" fill="white" fill-opacity="0.2"/>
<path opacity="0.2" d="M298.605 145.235H293.73V150.111H298.605V145.235Z" fill="white" fill-opacity="0.2"/>
<path opacity="0.2" d="M322.872 145.235H317.998V150.111H322.872V145.235Z" fill="white" fill-opacity="0.2"/>
<path opacity="0.2" d="M347.14 145.235H342.266V150.111H347.14V145.235Z" fill="white" fill-opacity="0.2"/>
<path opacity="0.2" d="M363.317 145.235H358.443V150.111H363.317V145.235Z" fill="white" fill-opacity="0.2"/>
<path opacity="0.2" d="M371.407 145.235H366.533V150.111H371.407V145.235Z" fill="white" fill-opacity="0.2"/>
<path opacity="0.2" d="M379.497 145.235H374.623V150.111H379.497V145.235Z" fill="white" fill-opacity="0.2"/>
<path opacity="0.2" d="M395.675 145.235H390.801V150.111H395.675V145.235Z" fill="white" fill-opacity="0.2"/>
<path opacity="0.2" d="M428.032 145.235H423.158V150.111H428.032V145.235Z" fill="white" fill-opacity="0.2"/>
<path opacity="0.2" d="M436.12 145.235H431.246V150.111H436.12V145.235Z" fill="white" fill-opacity="0.2"/>
<path opacity="0.2" d="M452.304 145.235H447.43V150.111H452.304V145.235Z" fill="white" fill-opacity="0.2"/>
<path opacity="0.2" d="M241.98 137.167H237.105V142.043H241.98V137.167Z" fill="white" fill-opacity="0.2"/>
<path opacity="0.2" d="M290.515 137.167H285.641V142.043H290.515V137.167Z" fill="white" fill-opacity="0.2"/>
<path opacity="0.2" d="M306.694 137.167H301.82V142.043H306.694V137.167Z" fill="white" fill-opacity="0.2"/>
<path opacity="0.2" d="M314.784 137.167H309.91V142.043H314.784V137.167Z" fill="white" fill-opacity="0.2"/>
<path opacity="0.2" d="M339.05 137.167H334.176V142.043H339.05V137.167Z" fill="white" fill-opacity="0.2"/>
<path opacity="0.2" d="M363.317 137.167H358.443V142.043H363.317V137.167Z" fill="white" fill-opacity="0.2"/>
<path opacity="0.2" d="M371.407 137.167H366.533V142.043H371.407V137.167Z" fill="white" fill-opacity="0.2"/>
<path opacity="0.2" d="M387.587 137.167H382.713V142.043H387.587V137.167Z" fill="white" fill-opacity="0.2"/>
<path opacity="0.2" d="M411.855 137.167H406.98V142.043H411.855V137.167Z" fill="white" fill-opacity="0.2"/>
<path opacity="0.2" d="M419.944 137.167H415.07V142.043H419.944V137.167Z" fill="white" fill-opacity="0.2"/>
<path opacity="0.2" d="M428.032 137.167H423.158V142.043H428.032V137.167Z" fill="white" fill-opacity="0.2"/>
<path opacity="0.1" d="M266.247 129.098H261.373V133.974H266.247V129.098Z" fill="white" fill-opacity="0.2"/>
<path opacity="0.2" d="M274.337 129.098H269.463V133.974H274.337V129.098Z" fill="white" fill-opacity="0.2"/>
<path opacity="0.2" d="M282.425 129.098H277.551V133.974H282.425V129.098Z" fill="white" fill-opacity="0.2"/>
<path opacity="0.2" d="M306.694 129.098H301.82V133.974H306.694V129.098Z" fill="white" fill-opacity="0.2"/>
<path opacity="0.2" d="M339.05 129.098H334.176V133.974H339.05V129.098Z" fill="white" fill-opacity="0.2"/>
<path opacity="0.2" d="M347.14 129.098H342.266V133.974H347.14V129.098Z" fill="white" fill-opacity="0.2"/>
<path opacity="0.2" d="M379.497 129.098H374.623V133.974H379.497V129.098Z" fill="white" fill-opacity="0.2"/>
<path opacity="0.2" d="M387.587 129.098H382.713V133.974H387.587V129.098Z" fill="white" fill-opacity="0.2"/>
<path opacity="0.2" d="M403.765 129.098H398.891V133.974H403.765V129.098Z" fill="white" fill-opacity="0.2"/>
<path opacity="0.2" d="M452.304 129.098H447.43V133.974H452.304V129.098Z" fill="white" fill-opacity="0.2"/>
<path opacity="0.2" d="M460.394 129.098H455.52V133.974H460.394V129.098Z" fill="white" fill-opacity="0.2"/>
<path opacity="0.2" d="M274.337 121.03H269.463V125.906H274.337V121.03Z" fill="white" fill-opacity="0.2"/>
<path opacity="0.2" d="M314.784 121.03H309.91V125.906H314.784V121.03Z" fill="white" fill-opacity="0.2"/>
<path opacity="0.2" d="M347.14 121.03H342.266V125.906H347.14V121.03Z" fill="white" fill-opacity="0.2"/>
<path opacity="0.2" d="M363.317 121.03H358.443V125.906H363.317V121.03Z" fill="white" fill-opacity="0.2"/>
<path opacity="0.2" d="M379.497 121.03H374.623V125.906H379.497V121.03Z" fill="white" fill-opacity="0.2"/>
<path opacity="0.2" d="M387.587 121.03H382.713V125.906H387.587V121.03Z" fill="white" fill-opacity="0.2"/>
<path opacity="0.2" d="M411.855 121.03H406.98V125.906H411.855V121.03Z" fill="white" fill-opacity="0.2"/>
<path opacity="0.2" d="M436.12 121.03H431.246V125.906H436.12V121.03Z" fill="white" fill-opacity="0.2"/>
<path opacity="0.2" d="M460.394 121.03H455.52V125.906H460.394V121.03Z" fill="white" fill-opacity="0.2"/>
<path opacity="0.15" d="M371.407 112.961H366.533V117.838H371.407V112.961Z" fill="white" fill-opacity="0.2"/>
<path opacity="0.15" d="M379.497 112.961H374.623V117.838H379.497V112.961Z" fill="white" fill-opacity="0.2"/>
<path opacity="0.15" d="M403.765 112.961H398.891V117.838H403.765V112.961Z" fill="white" fill-opacity="0.2"/>
<path opacity="0.15" d="M436.12 112.961H431.246V117.838H436.12V112.961Z" fill="white" fill-opacity="0.2"/>
<path opacity="0.15" d="M460.394 112.961H455.52V117.838H460.394V112.961Z" fill="white" fill-opacity="0.2"/>
<path opacity="0.15" d="M322.872 104.893H317.998V109.769H322.872V104.893Z" fill="white" fill-opacity="0.2"/>
<path opacity="0.15" d="M330.96 104.893H326.086V109.769H330.96V104.893Z" fill="white" fill-opacity="0.2"/>
<path opacity="0.05" d="M339.05 104.893H334.176V109.769H339.05V104.893Z" fill="white" fill-opacity="0.2"/>
<path opacity="0.1" d="M363.317 104.893H358.443V109.769H363.317V104.893Z" fill="white" fill-opacity="0.2"/>
<path opacity="0.15" d="M379.497 104.893H374.623V109.769H379.497V104.893Z" fill="white" fill-opacity="0.2"/>
<path opacity="0.15" d="M403.765 104.893H398.891V109.769H403.765V104.893Z" fill="white" fill-opacity="0.2"/>
<path opacity="0.05" d="M298.605 96.8247H293.73V101.701H298.605V96.8247Z" fill="white" fill-opacity="0.2"/>
<path opacity="0.05" d="M306.694 96.8247H301.82V101.701H306.694V96.8247Z" fill="white" fill-opacity="0.2"/>
<path opacity="0.05" d="M330.96 96.8247H326.086V101.701H330.96V96.8247Z" fill="white" fill-opacity="0.2"/>
<path opacity="0.15" d="M347.14 96.8247H342.266V101.701H347.14V96.8247Z" fill="white" fill-opacity="0.2"/>
<path opacity="0.05" d="M371.407 96.8247H366.533V101.701H371.407V96.8247Z" fill="white" fill-opacity="0.2"/>
<path opacity="0.15" d="M403.765 96.8247H398.891V101.701H403.765V96.8247Z" fill="white" fill-opacity="0.2"/>
<path opacity="0.15" d="M419.944 96.8247H415.07V101.701H419.944V96.8247Z" fill="white" fill-opacity="0.2"/>
<path opacity="0.15" d="M436.12 96.8247H431.246V101.701H436.12V96.8247Z" fill="white" fill-opacity="0.2"/>
<path opacity="0.05" d="M363.317 88.752H358.443V93.6283H363.317V88.752Z" fill="white" fill-opacity="0.2"/>
<path opacity="0.15" d="M379.497 88.752H374.623V93.6283H379.497V88.752Z" fill="white" fill-opacity="0.2"/>
<path opacity="0.15" d="M387.587 88.752H382.713V93.6283H387.587V88.752Z" fill="white" fill-opacity="0.2"/>
<path opacity="0.15" d="M419.944 88.752H415.07V93.6283H419.944V88.752Z" fill="white" fill-opacity="0.2"/>
<path opacity="0.05" d="M330.96 80.6836H326.086V85.56H330.96V80.6836Z" fill="white" fill-opacity="0.2"/>
<path opacity="0.15" d="M403.765 80.6836H398.891V85.56H403.765V80.6836Z" fill="white" fill-opacity="0.2"/>
<path opacity="0.05" d="M403.765 72.6152H398.891V77.4916H403.765V72.6152Z" fill="white" fill-opacity="0.2"/>
<path opacity="0.1" d="M428.032 72.6152H423.158V77.4916H428.032V72.6152Z" fill="white" fill-opacity="0.2"/>
<path opacity="0.1" d="M460.394 72.6152H455.52V77.4916H460.394V72.6152Z" fill="white" fill-opacity="0.2"/>
<path opacity="0.05" d="M339.05 64.5469H334.176V69.4232H339.05V64.5469Z" fill="white" fill-opacity="0.2"/>
<path opacity="0.1" d="M387.587 64.5469H382.713V69.4232H387.587V64.5469Z" fill="white" fill-opacity="0.2"/>
<path opacity="0.1" d="M460.394 64.5469H455.52V69.4232H460.394V64.5469Z" fill="white" fill-opacity="0.2"/>
<path opacity="0.1" d="M363.317 56.4785H358.443V61.3549H363.317V56.4785Z" fill="white" fill-opacity="0.2"/>
<path opacity="0.05" d="M387.587 56.4785H382.713V61.3549H387.587V56.4785Z" fill="white" fill-opacity="0.2"/>
<path opacity="0.1" d="M436.12 56.4785H431.246V61.3549H436.12V56.4785Z" fill="white" fill-opacity="0.2"/>
<path opacity="0.1" d="M436.12 40.3418H431.246V45.2182H436.12V40.3418Z" fill="white" fill-opacity="0.2"/>
<path opacity="0.05" d="M379.497 32.2734H374.623V37.1498H379.497V32.2734Z" fill="white" fill-opacity="0.2"/>
</g>
</g>
</g>
<defs>
<linearGradient id="paint0_linear_37766_1957" x1="0" y1="0" x2="216.759" y2="389.316" gradientUnits="userSpaceOnUse">
<stop stop-color="#085BC5"/>
<stop offset="0.55" stop-color="#1EA9FF"/>
<stop offset="1" stop-color="#80BBFF"/>
</linearGradient>
<clipPath id="clip0_37766_1957">
<rect width="458" height="255" rx="16" fill="white"/>
</clipPath>
<clipPath id="clip1_37766_1957">
<rect width="741" height="255" fill="white" transform="translate(-135)"/>
</clipPath>
</defs>
</svg>
