<svg width="54" height="20" viewBox="0 0 54 20" fill="none" xmlns="http://www.w3.org/2000/svg">
<path d="M9.37326 9.46092L0.698496 16.0392C0.449184 16.2283 0.302734 16.5232 0.302734 16.836V18.8394C0.302734 19.3916 0.750449 19.8394 1.30273 19.8394H52.3027C52.855 19.8394 53.3027 19.3916 53.3027 18.8394V2.8923C53.3027 1.9826 52.1866 1.54542 51.5688 2.2131L45.7182 8.53535C45.4248 8.85237 44.9611 8.9452 44.5683 8.76554L35.1358 4.45107C34.8194 4.30636 34.4506 4.33648 34.1618 4.5306L19.9922 14.0581C19.6801 14.2679 19.2768 14.2849 18.9482 14.1022L10.4635 9.38377C10.1169 9.19105 9.68923 9.22131 9.37326 9.46092Z" fill="#F2F8FF"/>
<path d="M0.302734 16.3394L7.8134 10.6438C9.07729 9.68536 10.7881 9.5643 12.1744 10.3352L17.3417 13.2088C18.6561 13.9397 20.2695 13.8716 21.5176 13.0324L32.7677 5.46797C33.9226 4.69148 35.398 4.571 36.6635 5.14985L42.5935 7.86225C44.1646 8.58091 46.0197 8.20958 47.1931 6.94151L53.3027 0.339355" stroke="#67A5F9"/>
</svg>
