<svg width="458" height="156" viewBox="0 0 458 156" fill="none" xmlns="http://www.w3.org/2000/svg">
<g clip-path="url(#clip0_37770_2972)">
<rect width="458" height="156" rx="16" fill="white"/>
<g filter="url(#filter0_f_37770_2972)">
<path d="M164 0C164 -11.0457 172.954 -20 184 -20H274C285.046 -20 294 -11.0457 294 0C294 11.0457 285.046 20 274 20H184C172.954 20 164 11.0457 164 0Z" fill="#0077FF" fill-opacity="0.8"/>
</g>
<g filter="url(#filter1_f_37770_2972)">
<path d="M348 160C348 148.954 356.954 140 368 140H458C469.046 140 478 148.954 478 160C478 171.046 469.046 180 458 180H368C356.954 180 348 171.046 348 160Z" fill="#0077FF" fill-opacity="0.8"/>
</g>
<g filter="url(#filter2_f_37770_2972)">
<path d="M-20 160C-20 148.954 -11.0457 140 7.45058e-07 140H90C101.046 140 110 148.954 110 160C110 171.046 101.046 180 90 180H-1.19209e-06C-11.0457 180 -20 171.046 -20 160Z" fill="#0077FF" fill-opacity="0.8"/>
</g>
<g clip-path="url(#clip1_37770_2972)">
<mask id="mask0_37770_2972" style="mask-type:luminance" maskUnits="userSpaceOnUse" x="-40" y="-228" width="550" height="403">
<path d="M-39.0039 174.096L509.996 174.096L509.996 -227.824L-39.0039 -227.824V174.096Z" fill="white"/>
</mask>
<g mask="url(#mask0_37770_2972)">
<path opacity="0.5" d="M12.5565 151.445H8.94531V155.06H12.5565V151.445Z" fill="#E7EFF7"/>
<path opacity="0.5" d="M30.5409 151.445H26.9297V155.06H30.5409V151.445Z" fill="#E7EFF7"/>
<path opacity="0.5" d="M42.5253 151.445H38.9141V155.06H42.5253V151.445Z" fill="#E7EFF7"/>
<path opacity="0.5" d="M48.5194 151.445H44.9082V155.06H48.5194V151.445Z" fill="#E7EFF7"/>
<path opacity="0.5" d="M54.5135 151.445H50.9023V155.06H54.5135V151.445Z" fill="#E7EFF7"/>
<path opacity="0.5" d="M72.494 151.445H68.8828V155.06H72.494V151.445Z" fill="#E7EFF7"/>
<path opacity="0.5" d="M90.4725 151.445H86.8613V155.06H90.4725V151.445Z" fill="#E7EFF7"/>
<path opacity="0.5" d="M108.453 151.445H104.842V155.06H108.453V151.445Z" fill="#E7EFF7"/>
<path opacity="0.5" d="M120.439 151.445H116.828V155.06H120.439V151.445Z" fill="#E7EFF7"/>
<path opacity="0.5" d="M126.432 151.445H122.82V155.06H126.432V151.445Z" fill="#E7EFF7"/>
<path opacity="0.5" d="M138.42 151.445H134.809V155.06H138.42V151.445Z" fill="#E7EFF7"/>
<path opacity="0.5" d="M144.412 151.445H140.801V155.06H144.412V151.445Z" fill="#E7EFF7"/>
<path opacity="0.5" d="M156.398 151.445H152.787V155.06H156.398V151.445Z" fill="#E7EFF7"/>
<path opacity="0.5" d="M162.392 151.445H158.781V155.06H162.392V151.445Z" fill="#E7EFF7"/>
<path opacity="0.5" d="M168.385 151.445H164.773V155.06H168.385V151.445Z" fill="#E7EFF7"/>
<path opacity="0.5" d="M174.379 151.445H170.768V155.06H174.379V151.445Z" fill="#E7EFF7"/>
<path opacity="0.5" d="M186.367 151.445H182.756V155.06H186.367V151.445Z" fill="#E7EFF7"/>
<path opacity="0.5" d="M192.361 151.445H188.75V155.06H192.361V151.445Z" fill="#E7EFF7"/>
<path opacity="0.5" d="M198.353 151.445H194.742V155.06H198.353V151.445Z" fill="#E7EFF7"/>
<path opacity="0.5" d="M204.348 151.445H200.736V155.06H204.348V151.445Z" fill="#E7EFF7"/>
<path opacity="0.5" d="M216.334 151.445H212.723V155.06H216.334V151.445Z" fill="#E7EFF7"/>
<path opacity="0.5" d="M222.328 151.445H218.717V155.06H222.328V151.445Z" fill="#E7EFF7"/>
<path opacity="0.5" d="M228.32 151.445H224.709V155.06H228.32V151.445Z" fill="#E7EFF7"/>
<path opacity="0.5" d="M12.5565 145.465H8.94531V149.08H12.5565V145.465Z" fill="#E7EFF7"/>
<path opacity="0.5" d="M24.5468 145.465H20.9355V149.08H24.5468V145.465Z" fill="#E7EFF7"/>
<path opacity="0.5" d="M30.5409 145.465H26.9297V149.08H30.5409V145.465Z" fill="#E7EFF7"/>
<path opacity="0.5" d="M42.5253 145.465H38.9141V149.08H42.5253V145.465Z" fill="#E7EFF7"/>
<path opacity="0.5" d="M48.5194 145.465H44.9082V149.08H48.5194V145.465Z" fill="#E7EFF7"/>
<path opacity="0.5" d="M72.494 145.465H68.8828V149.08H72.494V145.465Z" fill="#E7EFF7"/>
<path opacity="0.5" d="M84.4784 145.465H80.8672V149.08H84.4784V145.465Z" fill="#E7EFF7"/>
<path opacity="0.5" d="M90.4725 145.465H86.8613V149.08H90.4725V145.465Z" fill="#E7EFF7"/>
<path opacity="0.5" d="M96.4667 145.465H92.8555V149.08H96.4667V145.465Z" fill="#E7EFF7"/>
<path opacity="0.5" d="M102.459 145.465H98.8477V149.08H102.459V145.465Z" fill="#E7EFF7"/>
<path opacity="0.5" d="M108.453 145.465H104.842V149.08H108.453V145.465Z" fill="#E7EFF7"/>
<path opacity="0.5" d="M114.445 145.465H110.834V149.08H114.445V145.465Z" fill="#E7EFF7"/>
<path opacity="0.5" d="M126.432 145.465H122.82V149.08H126.432V145.465Z" fill="#E7EFF7"/>
<path opacity="0.5" d="M132.426 145.465H128.814V149.08H132.426V145.465Z" fill="#E7EFF7"/>
<path opacity="0.5" d="M138.42 145.465H134.809V149.08H138.42V145.465Z" fill="#E7EFF7"/>
<path opacity="0.5" d="M144.412 145.465H140.801V149.08H144.412V145.465Z" fill="#E7EFF7"/>
<path opacity="0.5" d="M156.398 145.465H152.787V149.08H156.398V145.465Z" fill="#E7EFF7"/>
<path opacity="0.5" d="M162.392 145.465H158.781V149.08H162.392V145.465Z" fill="#E7EFF7"/>
<path opacity="0.5" d="M168.385 145.465H164.773V149.08H168.385V145.465Z" fill="#E7EFF7"/>
<path opacity="0.5" d="M180.371 145.465H176.76V149.08H180.371V145.465Z" fill="#E7EFF7"/>
<path opacity="0.5" d="M192.361 145.465H188.75V149.08H192.361V145.465Z" fill="#E7EFF7"/>
<path opacity="0.5" d="M198.353 145.465H194.742V149.08H198.353V145.465Z" fill="#E7EFF7"/>
<path opacity="0.5" d="M210.34 145.465H206.729V149.08H210.34V145.465Z" fill="#E7EFF7"/>
<path opacity="0.5" d="M216.334 145.465H212.723V149.08H216.334V145.465Z" fill="#E7EFF7"/>
<path opacity="0.5" d="M222.328 145.465H218.717V149.08H222.328V145.465Z" fill="#E7EFF7"/>
<path opacity="0.5" d="M228.32 145.465H224.709V149.08H228.32V145.465Z" fill="#E7EFF7"/>
<path opacity="0.5" d="M234.314 145.465H230.703V149.08H234.314V145.465Z" fill="#E7EFF7"/>
<path opacity="0.45" d="M0.572139 139.47H-3.03906V143.084H0.572139V139.47Z" fill="#E7EFF7"/>
<path opacity="0.45" d="M6.56432 139.47H2.95312V143.084H6.56432V139.47Z" fill="#E7EFF7"/>
<path opacity="0.45" d="M24.5428 139.47H20.9316V143.084H24.5428V139.47Z" fill="#E7EFF7"/>
<path opacity="0.45" d="M30.537 139.47H26.9258V143.084H30.537V139.47Z" fill="#E7EFF7"/>
<path opacity="0.45" d="M36.5311 139.473H32.9199V143.087H36.5311V139.473Z" fill="#E7EFF7"/>
<path opacity="0.45" d="M48.5194 139.473H44.9082V143.087H48.5194V139.473Z" fill="#E7EFF7"/>
<path opacity="0.45" d="M54.5135 139.473H50.9023V143.087H54.5135V139.473Z" fill="#E7EFF7"/>
<path opacity="0.45" d="M60.5057 139.473H56.8945V143.087H60.5057V139.473Z" fill="#E7EFF7"/>
<path opacity="0.45" d="M66.4999 139.473H62.8887V143.087H66.4999V139.473Z" fill="#E7EFF7"/>
<path opacity="0.45" d="M72.494 139.473H68.8828V143.087H72.494V139.473Z" fill="#E7EFF7"/>
<path opacity="0.45" d="M96.4667 139.476H92.8555V143.09H96.4667V139.476Z" fill="#E7EFF7"/>
<path opacity="0.45" d="M102.459 139.476H98.8477V143.09H102.459V139.476Z" fill="#E7EFF7"/>
<path opacity="0.45" d="M114.445 139.476H110.834V143.09H114.445V139.476Z" fill="#E7EFF7"/>
<path opacity="0.45" d="M126.432 139.479H122.82V143.094H126.432V139.479Z" fill="#E7EFF7"/>
<path opacity="0.45" d="M138.42 139.479H134.809V143.094H138.42V139.479Z" fill="#E7EFF7"/>
<path opacity="0.45" d="M156.398 139.479H152.787V143.094H156.398V139.479Z" fill="#E7EFF7"/>
<path opacity="0.45" d="M168.385 139.482H164.773V143.097H168.385V139.482Z" fill="#E7EFF7"/>
<path opacity="0.45" d="M174.379 139.482H170.768V143.097H174.379V139.482Z" fill="#E7EFF7"/>
<path opacity="0.45" d="M180.371 139.482H176.76V143.097H180.371V139.482Z" fill="#E7EFF7"/>
<path opacity="0.45" d="M186.365 139.482H182.754V143.097H186.365V139.482Z" fill="#E7EFF7"/>
<path opacity="0.45" d="M192.357 139.482H188.746V143.097H192.357V139.482Z" fill="#E7EFF7"/>
<path opacity="0.45" d="M198.351 139.482H194.74V143.097H198.351V139.482Z" fill="#E7EFF7"/>
<path opacity="0.45" d="M210.34 139.485H206.729V143.1H210.34V139.485Z" fill="#E7EFF7"/>
<path opacity="0.45" d="M216.334 139.485H212.723V143.1H216.334V139.485Z" fill="#E7EFF7"/>
<path opacity="0.45" d="M234.314 139.485H230.703V143.1H234.314V139.485Z" fill="#E7EFF7"/>
<path opacity="0.4" d="M0.572139 133.49H-3.03906V137.104H0.572139V133.49Z" fill="#E7EFF7"/>
<path opacity="0.4" d="M24.5468 133.49H20.9355V137.104H24.5468V133.49Z" fill="#E7EFF7"/>
<path opacity="0.4" d="M30.5409 133.49H26.9297V137.104H30.5409V133.49Z" fill="#E7EFF7"/>
<path opacity="0.4" d="M36.5331 133.49H32.9219V137.104H36.5331V133.49Z" fill="#E7EFF7"/>
<path opacity="0.4" d="M42.5253 133.493H38.9141V137.107H42.5253V133.493Z" fill="#E7EFF7"/>
<path opacity="0.4" d="M54.5135 133.493H50.9023V137.107H54.5135V133.493Z" fill="#E7EFF7"/>
<path opacity="0.4" d="M60.5057 133.493H56.8945V137.107H60.5057V133.493Z" fill="#E7EFF7"/>
<path opacity="0.4" d="M78.4862 133.493H74.875V137.107H78.4862V133.493Z" fill="#E7EFF7"/>
<path opacity="0.4" d="M102.459 133.496H98.8477V137.11H102.459V133.496Z" fill="#E7EFF7"/>
<path opacity="0.4" d="M114.445 133.496H110.834V137.11H114.445V133.496Z" fill="#E7EFF7"/>
<path opacity="0.4" d="M126.432 133.499H122.82V137.113H126.432V133.499Z" fill="#E7EFF7"/>
<path opacity="0.4" d="M132.426 133.499H128.814V137.113H132.426V133.499Z" fill="#E7EFF7"/>
<path opacity="0.4" d="M138.42 133.499H134.809V137.113H138.42V133.499Z" fill="#E7EFF7"/>
<path opacity="0.4" d="M144.412 133.499H140.801V137.113H144.412V133.499Z" fill="#E7EFF7"/>
<path opacity="0.4" d="M162.392 133.499H158.781V137.113H162.392V133.499Z" fill="#E7EFF7"/>
<path opacity="0.4" d="M168.385 133.502H164.773V137.116H168.385V133.502Z" fill="#E7EFF7"/>
<path opacity="0.4" d="M174.377 133.502H170.766V137.116H174.377V133.502Z" fill="#E7EFF7"/>
<path opacity="0.4" d="M180.371 133.502H176.76V137.116H180.371V133.502Z" fill="#E7EFF7"/>
<path opacity="0.4" d="M186.367 133.502H182.756V137.116H186.367V133.502Z" fill="#E7EFF7"/>
<path opacity="0.4" d="M192.361 133.502H188.75V137.116H192.361V133.502Z" fill="#E7EFF7"/>
<path opacity="0.4" d="M210.342 133.502H206.73V137.116H210.342V133.502Z" fill="#E7EFF7"/>
<path opacity="0.4" d="M216.334 133.505H212.723V137.12H216.334V133.505Z" fill="#E7EFF7"/>
<path opacity="0.4" d="M222.328 133.505H218.717V137.12H222.328V133.505Z" fill="#E7EFF7"/>
<path opacity="0.4" d="M228.32 133.505H224.709V137.12H228.32V133.505Z" fill="#E7EFF7"/>
<path opacity="0.4" d="M234.314 133.505H230.703V137.12H234.314V133.505Z" fill="#E7EFF7"/>
<path opacity="0.4" d="M0.57409 127.51H-3.03711V131.124H0.57409V127.51Z" fill="#E7EFF7"/>
<path opacity="0.4" d="M6.56823 127.51H2.95703V131.124H6.56823V127.51Z" fill="#E7EFF7"/>
<path opacity="0.4" d="M24.5468 127.51H20.9355V131.124H24.5468V127.51Z" fill="#E7EFF7"/>
<path opacity="0.4" d="M36.5331 127.51H32.9219V131.124H36.5331V127.51Z" fill="#E7EFF7"/>
<path opacity="0.4" d="M42.5253 127.513H38.9141V131.127H42.5253V127.513Z" fill="#E7EFF7"/>
<path opacity="0.4" d="M60.5057 127.513H56.8945V131.127H60.5057V127.513Z" fill="#E7EFF7"/>
<path opacity="0.4" d="M66.4999 127.513H62.8887V131.127H66.4999V127.513Z" fill="#E7EFF7"/>
<path opacity="0.4" d="M72.494 127.513H68.8828V131.127H72.494V127.513Z" fill="#E7EFF7"/>
<path opacity="0.4" d="M90.4725 127.516H86.8613V131.13H90.4725V127.516Z" fill="#E7EFF7"/>
<path opacity="0.4" d="M96.4667 127.516H92.8555V131.13H96.4667V127.516Z" fill="#E7EFF7"/>
<path opacity="0.4" d="M102.459 127.516H98.8477V131.13H102.459V127.516Z" fill="#E7EFF7"/>
<path opacity="0.4" d="M114.445 127.516H110.834V131.13H114.445V127.516Z" fill="#E7EFF7"/>
<path opacity="0.4" d="M126.432 127.519H122.82V131.133H126.432V127.519Z" fill="#E7EFF7"/>
<path opacity="0.4" d="M132.426 127.519H128.814V131.133H132.426V127.519Z" fill="#E7EFF7"/>
<path opacity="0.4" d="M144.412 127.519H140.801V131.133H144.412V127.519Z" fill="#E7EFF7"/>
<path opacity="0.4" d="M156.398 127.519H152.787V131.133H156.398V127.519Z" fill="#E7EFF7"/>
<path opacity="0.4" d="M162.394 127.519H158.783V131.133H162.394V127.519Z" fill="#E7EFF7"/>
<path opacity="0.4" d="M174.381 127.522H170.77V131.136H174.381V127.522Z" fill="#E7EFF7"/>
<path opacity="0.4" d="M186.367 127.522H182.756V131.136H186.367V127.522Z" fill="#E7EFF7"/>
<path opacity="0.4" d="M198.353 127.522H194.742V131.136H198.353V127.522Z" fill="#E7EFF7"/>
<path opacity="0.4" d="M204.348 127.522H200.736V131.136H204.348V127.522Z" fill="#E7EFF7"/>
<path opacity="0.4" d="M216.334 127.525H212.723V131.14H216.334V127.525Z" fill="#E7EFF7"/>
<path opacity="0.4" d="M228.32 127.525H224.709V131.14H228.32V127.525Z" fill="#E7EFF7"/>
<path opacity="0.4" d="M234.314 127.525H230.703V131.14H234.314V127.525Z" fill="#E7EFF7"/>
<path opacity="0.3" d="M6.56432 121.545H2.95312V125.159H6.56432V121.545Z" fill="#E7EFF7"/>
<path opacity="0.3" d="M18.5526 121.545H14.9414V125.159H18.5526V121.545Z" fill="#E7EFF7"/>
<path opacity="0.3" d="M24.5468 121.545H20.9355V125.159H24.5468V121.545Z" fill="#E7EFF7"/>
<path opacity="0.3" d="M36.5331 121.545H32.9219V125.159H36.5331V121.545Z" fill="#E7EFF7"/>
<path opacity="0.3" d="M60.5057 121.545H56.8945V125.159H60.5057V121.545Z" fill="#E7EFF7"/>
<path opacity="0.3" d="M72.494 121.545H68.8828V125.159H72.494V121.545Z" fill="#E7EFF7"/>
<path opacity="0.3" d="M90.4725 121.545H86.8613V125.159H90.4725V121.545Z" fill="#E7EFF7"/>
<path opacity="0.3" d="M126.432 121.545H122.82V125.159H126.432V121.545Z" fill="#E7EFF7"/>
<path opacity="0.3" d="M138.42 121.545H134.809V125.159H138.42V121.545Z" fill="#E7EFF7"/>
<path opacity="0.3" d="M150.404 121.545H146.793V125.159H150.404V121.545Z" fill="#E7EFF7"/>
<path opacity="0.3" d="M156.398 121.545H152.787V125.159H156.398V121.545Z" fill="#E7EFF7"/>
<path opacity="0.3" d="M162.392 121.545H158.781V125.159H162.392V121.545Z" fill="#E7EFF7"/>
<path opacity="0.3" d="M174.379 121.545H170.768V125.159H174.379V121.545Z" fill="#E7EFF7"/>
<path opacity="0.3" d="M186.367 121.545H182.756V125.159H186.367V121.545Z" fill="#E7EFF7"/>
<path opacity="0.3" d="M192.361 121.545H188.75V125.159H192.361V121.545Z" fill="#E7EFF7"/>
<path opacity="0.3" d="M216.334 121.545H212.723V125.159H216.334V121.545Z" fill="#E7EFF7"/>
<path opacity="0.3" d="M0.572139 115.565H-3.03906V119.179H0.572139V115.565Z" fill="#E7EFF7"/>
<path opacity="0.3" d="M6.56432 115.565H2.95312V119.179H6.56432V115.565Z" fill="#E7EFF7"/>
<path opacity="0.3" d="M24.5468 115.565H20.9355V119.179H24.5468V115.565Z" fill="#E7EFF7"/>
<path opacity="0.3" d="M30.5409 115.565H26.9297V119.179H30.5409V115.565Z" fill="#E7EFF7"/>
<path opacity="0.3" d="M36.5331 115.565H32.9219V119.179H36.5331V115.565Z" fill="#E7EFF7"/>
<path opacity="0.3" d="M42.5253 115.565H38.9141V119.179H42.5253V115.565Z" fill="#E7EFF7"/>
<path opacity="0.3" d="M54.5135 115.565H50.9023V119.179H54.5135V115.565Z" fill="#E7EFF7"/>
<path opacity="0.3" d="M72.494 115.565H68.8828V119.179H72.494V115.565Z" fill="#E7EFF7"/>
<path opacity="0.3" d="M90.4725 115.565H86.8613V119.179H90.4725V115.565Z" fill="#E7EFF7"/>
<path opacity="0.3" d="M96.4667 115.565H92.8555V119.179H96.4667V115.565Z" fill="#E7EFF7"/>
<path opacity="0.3" d="M114.445 115.565H110.834V119.179H114.445V115.565Z" fill="#E7EFF7"/>
<path opacity="0.3" d="M120.439 115.565H116.828V119.179H120.439V115.565Z" fill="#E7EFF7"/>
<path opacity="0.3" d="M126.432 115.565H122.82V119.179H126.432V115.565Z" fill="#E7EFF7"/>
<path opacity="0.3" d="M138.42 115.565H134.809V119.179H138.42V115.565Z" fill="#E7EFF7"/>
<path opacity="0.3" d="M162.392 115.565H158.781V119.179H162.392V115.565Z" fill="#E7EFF7"/>
<path opacity="0.3" d="M228.32 115.565H224.709V119.179H228.32V115.565Z" fill="#E7EFF7"/>
<path opacity="0.3" d="M234.314 115.565H230.703V119.179H234.314V115.565Z" fill="#E7EFF7"/>
<path opacity="0.25" d="M0.572139 109.585H-3.03906V113.199H0.572139V109.585Z" fill="#E7EFF7"/>
<path opacity="0.25" d="M6.56432 109.585H2.95312V113.199H6.56432V109.585Z" fill="#E7EFF7"/>
<path opacity="0.25" d="M12.5565 109.585H8.94531V113.199H12.5565V109.585Z" fill="#E7EFF7"/>
<path opacity="0.25" d="M18.5526 109.585H14.9414V113.199H18.5526V109.585Z" fill="#E7EFF7"/>
<path opacity="0.25" d="M36.5331 109.585H32.9219V113.199H36.5331V109.585Z" fill="#E7EFF7"/>
<path opacity="0.25" d="M42.5253 109.585H38.9141V113.199H42.5253V109.585Z" fill="#E7EFF7"/>
<path opacity="0.25" d="M54.5135 109.585H50.9023V113.199H54.5135V109.585Z" fill="#E7EFF7"/>
<path opacity="0.25" d="M60.5057 109.585H56.8945V113.199H60.5057V109.585Z" fill="#E7EFF7"/>
<path opacity="0.25" d="M72.494 109.585H68.8828V113.199H72.494V109.585Z" fill="#E7EFF7"/>
<path opacity="0.25" d="M78.4862 109.585H74.875V113.199H78.4862V109.585Z" fill="#E7EFF7"/>
<path opacity="0.25" d="M84.4784 109.585H80.8672V113.199H84.4784V109.585Z" fill="#E7EFF7"/>
<path opacity="0.25" d="M90.4725 109.585H86.8613V113.199H90.4725V109.585Z" fill="#E7EFF7"/>
<path opacity="0.25" d="M102.459 109.585H98.8477V113.199H102.459V109.585Z" fill="#E7EFF7"/>
<path opacity="0.25" d="M114.445 109.585H110.834V113.199H114.445V109.585Z" fill="#E7EFF7"/>
<path opacity="0.25" d="M126.432 109.585H122.82V113.199H126.432V109.585Z" fill="#E7EFF7"/>
<path opacity="0.25" d="M138.42 109.585H134.809V113.199H138.42V109.585Z" fill="#E7EFF7"/>
<path opacity="0.25" d="M156.398 109.585H152.787V113.199H156.398V109.585Z" fill="#E7EFF7"/>
<path opacity="0.25" d="M162.392 109.585H158.781V113.199H162.392V109.585Z" fill="#E7EFF7"/>
<path opacity="0.25" d="M174.379 109.585H170.768V113.199H174.379V109.585Z" fill="#E7EFF7"/>
<path opacity="0.25" d="M180.371 109.585H176.76V113.199H180.371V109.585Z" fill="#E7EFF7"/>
<path opacity="0.25" d="M204.348 109.585H200.736V113.199H204.348V109.585Z" fill="#E7EFF7"/>
<path opacity="0.25" d="M234.314 109.585H230.703V113.199H234.314V109.585Z" fill="#E7EFF7"/>
<path opacity="0.25" d="M6.56432 103.605H2.95312V107.219H6.56432V103.605Z" fill="#E7EFF7"/>
<path opacity="0.25" d="M24.5468 103.605H20.9355V107.219H24.5468V103.605Z" fill="#E7EFF7"/>
<path opacity="0.25" d="M30.5409 103.605H26.9297V107.219H30.5409V103.605Z" fill="#E7EFF7"/>
<path opacity="0.25" d="M54.5135 103.605H50.9023V107.219H54.5135V103.605Z" fill="#E7EFF7"/>
<path opacity="0.25" d="M72.494 103.605H68.8828V107.219H72.494V103.605Z" fill="#E7EFF7"/>
<path opacity="0.25" d="M84.4784 103.605H80.8672V107.219H84.4784V103.605Z" fill="#E7EFF7"/>
<path opacity="0.25" d="M90.4725 103.605H86.8613V107.219H90.4725V103.605Z" fill="#E7EFF7"/>
<path opacity="0.25" d="M102.459 103.605H98.8477V107.219H102.459V103.605Z" fill="#E7EFF7"/>
<path opacity="0.25" d="M120.439 103.605H116.828V107.219H120.439V103.605Z" fill="#E7EFF7"/>
<path opacity="0.25" d="M126.432 103.605H122.82V107.219H126.432V103.605Z" fill="#E7EFF7"/>
<path opacity="0.25" d="M132.426 103.605H128.814V107.219H132.426V103.605Z" fill="#E7EFF7"/>
<path opacity="0.25" d="M150.404 103.605H146.793V107.219H150.404V103.605Z" fill="#E7EFF7"/>
<path opacity="0.25" d="M156.398 103.605H152.787V107.219H156.398V103.605Z" fill="#E7EFF7"/>
<path opacity="0.25" d="M174.379 103.605H170.768V107.219H174.379V103.605Z" fill="#E7EFF7"/>
<path opacity="0.25" d="M186.367 103.605H182.756V107.219H186.367V103.605Z" fill="#E7EFF7"/>
<path opacity="0.25" d="M210.34 103.605H206.729V107.219H210.34V103.605Z" fill="#E7EFF7"/>
<path opacity="0.25" d="M228.32 103.605H224.709V107.219H228.32V103.605Z" fill="#E7EFF7"/>
<path opacity="0.25" d="M0.572139 97.6245H-3.03906V101.239H0.572139V97.6245Z" fill="#E7EFF7"/>
<path opacity="0.25" d="M6.56432 97.6245H2.95312V101.239H6.56432V97.6245Z" fill="#E7EFF7"/>
<path opacity="0.25" d="M24.5468 97.6245H20.9355V101.239H24.5468V97.6245Z" fill="#E7EFF7"/>
<path opacity="0.25" d="M42.5253 97.6245H38.9141V101.239H42.5253V97.6245Z" fill="#E7EFF7"/>
<path opacity="0.25" d="M60.5057 97.6245H56.8945V101.239H60.5057V97.6245Z" fill="#E7EFF7"/>
<path opacity="0.25" d="M78.4862 97.6245H74.875V101.239H78.4862V97.6245Z" fill="#E7EFF7"/>
<path opacity="0.25" d="M102.459 97.6245H98.8477V101.239H102.459V97.6245Z" fill="#E7EFF7"/>
<path opacity="0.25" d="M126.432 97.6245H122.82V101.239H126.432V97.6245Z" fill="#E7EFF7"/>
<path opacity="0.25" d="M132.426 97.6245H128.814V101.239H132.426V97.6245Z" fill="#E7EFF7"/>
<path opacity="0.25" d="M162.392 97.6245H158.781V101.239H162.392V97.6245Z" fill="#E7EFF7"/>
<path opacity="0.25" d="M186.367 97.6245H182.756V101.239H186.367V97.6245Z" fill="#E7EFF7"/>
<path opacity="0.25" d="M210.34 97.6245H206.729V101.239H210.34V97.6245Z" fill="#E7EFF7"/>
<path opacity="0.2" d="M6.56432 91.6445H2.95312V95.2588H6.56432V91.6445Z" fill="#E7EFF7"/>
<path opacity="0.2" d="M24.5468 91.6445H20.9355V95.2588H24.5468V91.6445Z" fill="#E7EFF7"/>
<path opacity="0.2" d="M54.5135 91.6445H50.9023V95.2588H54.5135V91.6445Z" fill="#E7EFF7"/>
<path opacity="0.2" d="M60.5057 91.6445H56.8945V95.2588H60.5057V91.6445Z" fill="#E7EFF7"/>
<path opacity="0.2" d="M78.4862 91.6445H74.875V95.2588H78.4862V91.6445Z" fill="#E7EFF7"/>
<path opacity="0.2" d="M90.4725 91.6445H86.8613V95.2588H90.4725V91.6445Z" fill="#E7EFF7"/>
<path opacity="0.2" d="M108.453 91.6445H104.842V95.2588H108.453V91.6445Z" fill="#E7EFF7"/>
<path opacity="0.2" d="M120.439 91.6445H116.828V95.2588H120.439V91.6445Z" fill="#E7EFF7"/>
<path opacity="0.2" d="M144.412 91.6445H140.801V95.2588H144.412V91.6445Z" fill="#E7EFF7"/>
<path opacity="0.2" d="M156.398 91.6445H152.787V95.2588H156.398V91.6445Z" fill="#E7EFF7"/>
<path opacity="0.2" d="M174.379 91.6445H170.768V95.2588H174.379V91.6445Z" fill="#E7EFF7"/>
<path opacity="0.2" d="M180.371 91.6445H176.76V95.2588H180.371V91.6445Z" fill="#E7EFF7"/>
<path opacity="0.2" d="M204.348 91.6445H200.736V95.2588H204.348V91.6445Z" fill="#E7EFF7"/>
<path opacity="0.2" d="M210.34 91.6445H206.729V95.2588H210.34V91.6445Z" fill="#E7EFF7"/>
<path opacity="0.2" d="M216.334 91.6445H212.723V95.2588H216.334V91.6445Z" fill="#E7EFF7"/>
<path opacity="0.2" d="M222.328 91.6445H218.717V95.2588H222.328V91.6445Z" fill="#E7EFF7"/>
<path opacity="0.2" d="M6.56432 85.6646H2.95312V89.2788H6.56432V85.6646Z" fill="#E7EFF7"/>
<path opacity="0.2" d="M12.5565 85.6646H8.94531V89.2788H12.5565V85.6646Z" fill="#E7EFF7"/>
<path opacity="0.2" d="M18.5526 85.6646H14.9414V89.2788H18.5526V85.6646Z" fill="#E7EFF7"/>
<path opacity="0.2" d="M24.5468 85.6646H20.9355V89.2788H24.5468V85.6646Z" fill="#E7EFF7"/>
<path opacity="0.2" d="M36.5331 85.6646H32.9219V89.2788H36.5331V85.6646Z" fill="#E7EFF7"/>
<path opacity="0.2" d="M54.5135 85.6646H50.9023V89.2788H54.5135V85.6646Z" fill="#E7EFF7"/>
<path opacity="0.2" d="M78.4862 85.6646H74.875V89.2788H78.4862V85.6646Z" fill="#E7EFF7"/>
<path opacity="0.2" d="M84.4784 85.6646H80.8672V89.2788H84.4784V85.6646Z" fill="#E7EFF7"/>
<path opacity="0.2" d="M90.4725 85.6646H86.8613V89.2788H90.4725V85.6646Z" fill="#E7EFF7"/>
<path opacity="0.2" d="M108.453 85.6646H104.842V89.2788H108.453V85.6646Z" fill="#E7EFF7"/>
<path opacity="0.2" d="M120.439 85.6646H116.828V89.2788H120.439V85.6646Z" fill="#E7EFF7"/>
<path opacity="0.2" d="M126.432 85.6646H122.82V89.2788H126.432V85.6646Z" fill="#E7EFF7"/>
<path opacity="0.2" d="M138.42 85.6646H134.809V89.2788H138.42V85.6646Z" fill="#E7EFF7"/>
<path opacity="0.2" d="M156.398 85.6646H152.787V89.2788H156.398V85.6646Z" fill="#E7EFF7"/>
<path opacity="0.2" d="M162.392 85.6646H158.781V89.2788H162.392V85.6646Z" fill="#E7EFF7"/>
<path opacity="0.2" d="M222.328 85.6646H218.717V89.2788H222.328V85.6646Z" fill="#E7EFF7"/>
<path opacity="0.1" d="M228.32 85.6646H224.709V89.2788H228.32V85.6646Z" fill="#E7EFF7"/>
<path opacity="0.2" d="M0.572139 79.6846H-3.03906V83.2988H0.572139V79.6846Z" fill="#E7EFF7"/>
<path opacity="0.2" d="M18.5526 79.6846H14.9414V83.2988H18.5526V79.6846Z" fill="#E7EFF7"/>
<path opacity="0.2" d="M42.5253 79.6846H38.9141V83.2988H42.5253V79.6846Z" fill="#E7EFF7"/>
<path opacity="0.2" d="M90.4725 79.6846H86.8613V83.2988H90.4725V79.6846Z" fill="#E7EFF7"/>
<path opacity="0.2" d="M102.459 79.6846H98.8477V83.2988H102.459V79.6846Z" fill="#E7EFF7"/>
<path opacity="0.2" d="M126.432 79.6846H122.82V83.2988H126.432V79.6846Z" fill="#E7EFF7"/>
<path opacity="0.2" d="M132.426 79.6846H128.814V83.2988H132.426V79.6846Z" fill="#E7EFF7"/>
<path opacity="0.2" d="M162.392 79.6846H158.781V83.2988H162.392V79.6846Z" fill="#E7EFF7"/>
<path opacity="0.2" d="M168.385 79.6846H164.773V83.2988H168.385V79.6846Z" fill="#E7EFF7"/>
<path opacity="0.2" d="M180.371 79.6846H176.76V83.2988H180.371V79.6846Z" fill="#E7EFF7"/>
<path opacity="0.1" d="M186.367 79.6846H182.756V83.2988H186.367V79.6846Z" fill="#E7EFF7"/>
<path opacity="0.1" d="M204.348 79.6846H200.736V83.2988H204.348V79.6846Z" fill="#E7EFF7"/>
<path opacity="0.2" d="M216.334 79.6846H212.723V83.2988H216.334V79.6846Z" fill="#E7EFF7"/>
<path opacity="0.1" d="M228.32 79.6846H224.709V83.2988H228.32V79.6846Z" fill="#E7EFF7"/>
<path opacity="0.2" d="M6.56432 73.7046H2.95312V77.3188H6.56432V73.7046Z" fill="#E7EFF7"/>
<path opacity="0.2" d="M12.5565 73.7046H8.94531V77.3188H12.5565V73.7046Z" fill="#E7EFF7"/>
<path opacity="0.2" d="M24.5468 73.7046H20.9355V77.3188H24.5468V73.7046Z" fill="#E7EFF7"/>
<path opacity="0.2" d="M30.5409 73.7046H26.9297V77.3188H30.5409V73.7046Z" fill="#E7EFF7"/>
<path opacity="0.2" d="M36.5331 73.7046H32.9219V77.3188H36.5331V73.7046Z" fill="#E7EFF7"/>
<path opacity="0.2" d="M42.5253 73.7046H38.9141V77.3188H42.5253V73.7046Z" fill="#E7EFF7"/>
<path opacity="0.2" d="M48.5194 73.7046H44.9082V77.3188H48.5194V73.7046Z" fill="#E7EFF7"/>
<path opacity="0.2" d="M72.494 73.7046H68.8828V77.3188H72.494V73.7046Z" fill="#E7EFF7"/>
<path opacity="0.2" d="M78.4862 73.7046H74.875V77.3188H78.4862V73.7046Z" fill="#E7EFF7"/>
<path opacity="0.2" d="M102.459 73.7046H98.8477V77.3188H102.459V73.7046Z" fill="#E7EFF7"/>
<path opacity="0.2" d="M108.453 73.7046H104.842V77.3188H108.453V73.7046Z" fill="#E7EFF7"/>
<path opacity="0.2" d="M126.432 73.7046H122.82V77.3188H126.432V73.7046Z" fill="#E7EFF7"/>
<path opacity="0.2" d="M144.412 73.7046H140.801V77.3188H144.412V73.7046Z" fill="#E7EFF7"/>
<path opacity="0.2" d="M174.379 73.7046H170.768V77.3188H174.379V73.7046Z" fill="#E7EFF7"/>
<path opacity="0.1" d="M216.334 73.7046H212.723V77.3188H216.334V73.7046Z" fill="#E7EFF7"/>
<path opacity="0.15" d="M0.572139 67.7241H-3.03906V71.3384H0.572139V67.7241Z" fill="#E7EFF7"/>
<path opacity="0.15" d="M12.5565 67.7241H8.94531V71.3384H12.5565V67.7241Z" fill="#E7EFF7"/>
<path opacity="0.15" d="M18.5526 67.7241H14.9414V71.3384H18.5526V67.7241Z" fill="#E7EFF7"/>
<path opacity="0.15" d="M24.5468 67.7241H20.9355V71.3384H24.5468V67.7241Z" fill="#E7EFF7"/>
<path opacity="0.15" d="M42.5253 67.7241H38.9141V71.3384H42.5253V67.7241Z" fill="#E7EFF7"/>
<path opacity="0.15" d="M60.5057 67.7241H56.8945V71.3384H60.5057V67.7241Z" fill="#E7EFF7"/>
<path opacity="0.15" d="M108.453 67.7241H104.842V71.3384H108.453V67.7241Z" fill="#E7EFF7"/>
<path opacity="0.15" d="M114.445 67.7241H110.834V71.3384H114.445V67.7241Z" fill="#E7EFF7"/>
<path opacity="0.15" d="M120.439 67.7241H116.828V71.3384H120.439V67.7241Z" fill="#E7EFF7"/>
<path opacity="0.15" d="M138.42 67.7241H134.809V71.3384H138.42V67.7241Z" fill="#E7EFF7"/>
<path opacity="0.15" d="M168.385 67.7241H164.773V71.3384H168.385V67.7241Z" fill="#E7EFF7"/>
<path opacity="0.05" d="M222.328 67.7241H218.717V71.3384H222.328V67.7241Z" fill="#E7EFF7"/>
<path opacity="0.15" d="M30.5409 61.7441H26.9297V65.3584H30.5409V61.7441Z" fill="#E7EFF7"/>
<path opacity="0.15" d="M36.5331 61.7441H32.9219V65.3584H36.5331V61.7441Z" fill="#E7EFF7"/>
<path opacity="0.15" d="M48.5194 61.7441H44.9082V65.3584H48.5194V61.7441Z" fill="#E7EFF7"/>
<path opacity="0.15" d="M54.5135 61.7441H50.9023V65.3584H54.5135V61.7441Z" fill="#E7EFF7"/>
<path opacity="0.15" d="M72.494 61.7441H68.8828V65.3584H72.494V61.7441Z" fill="#E7EFF7"/>
<path opacity="0.15" d="M78.4862 61.7441H74.875V65.3584H78.4862V61.7441Z" fill="#E7EFF7"/>
<path opacity="0.15" d="M84.4784 61.7441H80.8672V65.3584H84.4784V61.7441Z" fill="#E7EFF7"/>
<path opacity="0.15" d="M114.445 61.7441H110.834V65.3584H114.445V61.7441Z" fill="#E7EFF7"/>
<path opacity="0.15" d="M126.432 61.7441H122.82V65.3584H126.432V61.7441Z" fill="#E7EFF7"/>
<path opacity="0.15" d="M138.42 61.7441H134.809V65.3584H138.42V61.7441Z" fill="#E7EFF7"/>
<path opacity="0.15" d="M150.404 61.7441H146.793V65.3584H150.404V61.7441Z" fill="#E7EFF7"/>
<path opacity="0.15" d="M162.392 61.7441H158.781V65.3584H162.392V61.7441Z" fill="#E7EFF7"/>
<path opacity="0.15" d="M180.371 61.7441H176.76V65.3584H180.371V61.7441Z" fill="#E7EFF7"/>
<path opacity="0.1" d="M186.367 61.7441H182.756V65.3584H186.367V61.7441Z" fill="#E7EFF7"/>
<path opacity="0.15" d="M12.5565 55.7642H8.94531V59.3784H12.5565V55.7642Z" fill="#E7EFF7"/>
<path opacity="0.15" d="M18.5526 55.7642H14.9414V59.3784H18.5526V55.7642Z" fill="#E7EFF7"/>
<path opacity="0.15" d="M24.5468 55.7642H20.9355V59.3784H24.5468V55.7642Z" fill="#E7EFF7"/>
<path opacity="0.15" d="M30.5409 55.7642H26.9297V59.3784H30.5409V55.7642Z" fill="#E7EFF7"/>
<path opacity="0.15" d="M42.5253 55.7642H38.9141V59.3784H42.5253V55.7642Z" fill="#E7EFF7"/>
<path opacity="0.15" d="M48.5194 55.7642H44.9082V59.3784H48.5194V55.7642Z" fill="#E7EFF7"/>
<path opacity="0.15" d="M90.4725 55.7642H86.8613V59.3784H90.4725V55.7642Z" fill="#E7EFF7"/>
<path opacity="0.15" d="M108.453 55.7642H104.842V59.3784H108.453V55.7642Z" fill="#E7EFF7"/>
<path opacity="0.15" d="M150.404 55.7642H146.793V59.3784H150.404V55.7642Z" fill="#E7EFF7"/>
<path opacity="0.15" d="M156.398 55.7642H152.787V59.3784H156.398V55.7642Z" fill="#E7EFF7"/>
<path opacity="0.05" d="M180.371 55.7642H176.76V59.3784H180.371V55.7642Z" fill="#E7EFF7"/>
<path opacity="0.15" d="M30.5409 49.7808H26.9297V53.395H30.5409V49.7808Z" fill="#E7EFF7"/>
<path opacity="0.15" d="M54.5135 49.7808H50.9023V53.395H54.5135V49.7808Z" fill="#E7EFF7"/>
<path opacity="0.15" d="M78.4862 49.7808H74.875V53.395H78.4862V49.7808Z" fill="#E7EFF7"/>
<path opacity="0.15" d="M90.4725 49.7808H86.8613V53.395H90.4725V49.7808Z" fill="#E7EFF7"/>
<path opacity="0.15" d="M102.459 49.7808H98.8477V53.395H102.459V49.7808Z" fill="#E7EFF7"/>
<path opacity="0.15" d="M114.445 49.7808H110.834V53.395H114.445V49.7808Z" fill="#E7EFF7"/>
<path opacity="0.15" d="M138.42 49.7808H134.809V53.395H138.42V49.7808Z" fill="#E7EFF7"/>
<path opacity="0.15" d="M156.398 49.7808H152.787V53.395H156.398V49.7808Z" fill="#E7EFF7"/>
<path opacity="0.15" d="M18.5526 43.8008H14.9414V47.415H18.5526V43.8008Z" fill="#E7EFF7"/>
<path opacity="0.15" d="M24.5468 43.8008H20.9355V47.415H24.5468V43.8008Z" fill="#E7EFF7"/>
<path opacity="0.15" d="M54.5135 43.8008H50.9023V47.415H54.5135V43.8008Z" fill="#E7EFF7"/>
<path opacity="0.15" d="M84.4784 43.8008H80.8672V47.415H84.4784V43.8008Z" fill="#E7EFF7"/>
<path opacity="0.15" d="M120.439 43.8008H116.828V47.415H120.439V43.8008Z" fill="#E7EFF7"/>
<path opacity="0.15" d="M144.412 43.8008H140.801V47.415H144.412V43.8008Z" fill="#E7EFF7"/>
<path opacity="0.1" d="M0.572139 37.8208H-3.03906V41.435H0.572139V37.8208Z" fill="#E7EFF7"/>
<path opacity="0.1" d="M18.5526 37.8208H14.9414V41.435H18.5526V37.8208Z" fill="#E7EFF7"/>
<path opacity="0.1" d="M24.5468 37.8208H20.9355V41.435H24.5468V37.8208Z" fill="#E7EFF7"/>
<path opacity="0.1" d="M42.5253 37.8208H38.9141V41.435H42.5253V37.8208Z" fill="#E7EFF7"/>
<path opacity="0.1" d="M54.5135 37.8208H50.9023V41.435H54.5135V37.8208Z" fill="#E7EFF7"/>
<path opacity="0.1" d="M102.459 37.8208H98.8477V41.435H102.459V37.8208Z" fill="#E7EFF7"/>
<path opacity="0.1" d="M126.432 37.8208H122.82V41.435H126.432V37.8208Z" fill="#E7EFF7"/>
<path opacity="0.1" d="M0.572139 31.8408H-3.03906V35.4551H0.572139V31.8408Z" fill="#E7EFF7"/>
<path opacity="0.1" d="M18.5526 31.8408H14.9414V35.4551H18.5526V31.8408Z" fill="#E7EFF7"/>
<path opacity="0.1" d="M42.5253 31.8408H38.9141V35.4551H42.5253V31.8408Z" fill="#E7EFF7"/>
<path opacity="0.1" d="M60.5057 31.8408H56.8945V35.4551H60.5057V31.8408Z" fill="#E7EFF7"/>
<path opacity="0.1" d="M84.4784 31.8408H80.8672V35.4551H84.4784V31.8408Z" fill="#E7EFF7"/>
<path opacity="0.1" d="M150.404 31.8408H146.793V35.4551H150.404V31.8408Z" fill="#E7EFF7"/>
<path opacity="0.1" d="M24.5468 25.8608H20.9355V29.4751H24.5468V25.8608Z" fill="#E7EFF7"/>
<path opacity="0.1" d="M36.5331 25.8608H32.9219V29.4751H36.5331V25.8608Z" fill="#E7EFF7"/>
<path opacity="0.1" d="M54.5135 25.8608H50.9023V29.4751H54.5135V25.8608Z" fill="#E7EFF7"/>
<path opacity="0.1" d="M108.453 25.8608H104.842V29.4751H108.453V25.8608Z" fill="#E7EFF7"/>
<path opacity="0.1" d="M0.572139 19.8804H-3.03906V23.4946H0.572139V19.8804Z" fill="#E7EFF7"/>
<path opacity="0.1" d="M24.5468 19.8804H20.9355V23.4946H24.5468V19.8804Z" fill="#E7EFF7"/>
<path opacity="0.1" d="M30.5409 19.8804H26.9297V23.4946H30.5409V19.8804Z" fill="#E7EFF7"/>
<path opacity="0.1" d="M42.5253 19.8804H38.9141V23.4946H42.5253V19.8804Z" fill="#E7EFF7"/>
<path opacity="0.1" d="M84.4784 19.8804H80.8672V23.4946H84.4784V19.8804Z" fill="#E7EFF7"/>
<path opacity="0.1" d="M102.459 19.8804H98.8477V23.4946H102.459V19.8804Z" fill="#E7EFF7"/>
<path opacity="0.05" d="M138.42 19.8804H134.809V23.4946H138.42V19.8804Z" fill="#E7EFF7"/>
<path opacity="0.1" d="M24.5468 13.9004H20.9355V17.5146H24.5468V13.9004Z" fill="#E7EFF7"/>
<path opacity="0.1" d="M42.5253 7.92041H38.9141V11.5346H42.5253V7.92041Z" fill="#E7EFF7"/>
<path opacity="0.5" d="M246.295 151.445H242.684V155.06H246.295V151.445Z" fill="#E7EFF7"/>
<path opacity="0.5" d="M264.273 151.445H260.662V155.06H264.273V151.445Z" fill="#E7EFF7"/>
<path opacity="0.5" d="M270.267 151.445H266.656V155.06H270.267V151.445Z" fill="#E7EFF7"/>
<path opacity="0.5" d="M276.26 151.445H272.648V155.06H276.26V151.445Z" fill="#E7EFF7"/>
<path opacity="0.5" d="M288.248 151.445H284.637V155.06H288.248V151.445Z" fill="#E7EFF7"/>
<path opacity="0.5" d="M294.24 151.445H290.629V155.06H294.24V151.445Z" fill="#E7EFF7"/>
<path opacity="0.5" d="M312.221 151.445H308.609V155.06H312.221V151.445Z" fill="#E7EFF7"/>
<path opacity="0.5" d="M318.213 151.445H314.602V155.06H318.213V151.445Z" fill="#E7EFF7"/>
<path opacity="0.5" d="M330.199 151.445H326.588V155.06H330.199V151.445Z" fill="#E7EFF7"/>
<path opacity="0.5" d="M336.193 151.445H332.582V155.06H336.193V151.445Z" fill="#E7EFF7"/>
<path opacity="0.5" d="M342.185 151.445H338.574V155.06H342.185V151.445Z" fill="#E7EFF7"/>
<path opacity="0.5" d="M354.174 151.445H350.562V155.06H354.174V151.445Z" fill="#E7EFF7"/>
<path opacity="0.5" d="M384.139 151.445H380.527V155.06H384.139V151.445Z" fill="#E7EFF7"/>
<path opacity="0.5" d="M396.127 151.445H392.516V155.06H396.127V151.445Z" fill="#E7EFF7"/>
<path opacity="0.5" d="M402.123 151.445H398.512V155.06H402.123V151.445Z" fill="#E7EFF7"/>
<path opacity="0.5" d="M408.115 151.445H404.504V155.06H408.115V151.445Z" fill="#E7EFF7"/>
<path opacity="0.5" d="M420.101 151.445H416.49V155.06H420.101V151.445Z" fill="#E7EFF7"/>
<path opacity="0.5" d="M438.082 151.445H434.471V155.06H438.082V151.445Z" fill="#E7EFF7"/>
<path opacity="0.5" d="M444.074 151.445H440.463V155.06H444.074V151.445Z" fill="#E7EFF7"/>
<path opacity="0.5" d="M456.06 151.445H452.449V155.06H456.06V151.445Z" fill="#E7EFF7"/>
<path opacity="0.5" d="M240.301 145.465H236.689V149.08H240.301V145.465Z" fill="#E7EFF7"/>
<path opacity="0.5" d="M246.295 145.465H242.684V149.08H246.295V145.465Z" fill="#E7EFF7"/>
<path opacity="0.5" d="M270.267 145.465H266.656V149.08H270.267V145.465Z" fill="#E7EFF7"/>
<path opacity="0.5" d="M288.248 145.465H284.637V149.08H288.248V145.465Z" fill="#E7EFF7"/>
<path opacity="0.5" d="M294.24 145.465H290.629V149.08H294.24V145.465Z" fill="#E7EFF7"/>
<path opacity="0.5" d="M312.221 145.465H308.609V149.08H312.221V145.465Z" fill="#E7EFF7"/>
<path opacity="0.5" d="M330.199 145.465H326.588V149.08H330.199V145.465Z" fill="#E7EFF7"/>
<path opacity="0.5" d="M342.185 145.465H338.574V149.08H342.185V145.465Z" fill="#E7EFF7"/>
<path opacity="0.5" d="M348.18 145.465H344.568V149.08H348.18V145.465Z" fill="#E7EFF7"/>
<path opacity="0.5" d="M354.174 145.465H350.562V149.08H354.174V145.465Z" fill="#E7EFF7"/>
<path opacity="0.5" d="M360.166 145.465H356.555V149.08H360.166V145.465Z" fill="#E7EFF7"/>
<path opacity="0.5" d="M366.158 145.465H362.547V149.08H366.158V145.465Z" fill="#E7EFF7"/>
<path opacity="0.5" d="M408.115 145.465H404.504V149.08H408.115V145.465Z" fill="#E7EFF7"/>
<path opacity="0.5" d="M414.107 145.465H410.496V149.08H414.107V145.465Z" fill="#E7EFF7"/>
<path opacity="0.5" d="M420.101 145.465H416.49V149.08H420.101V145.465Z" fill="#E7EFF7"/>
<path opacity="0.5" d="M432.088 145.465H428.477V149.08H432.088V145.465Z" fill="#E7EFF7"/>
<path opacity="0.5" d="M438.082 145.465H434.471V149.08H438.082V145.465Z" fill="#E7EFF7"/>
<path opacity="0.5" d="M444.074 145.465H440.463V149.08H444.074V145.465Z" fill="#E7EFF7"/>
<path opacity="0.5" d="M450.068 145.465H446.457V149.08H450.068V145.465Z" fill="#E7EFF7"/>
<path opacity="0.45" d="M264.273 139.488H260.662V143.103H264.273V139.488Z" fill="#E7EFF7"/>
<path opacity="0.45" d="M270.267 139.488H266.656V143.103H270.267V139.488Z" fill="#E7EFF7"/>
<path opacity="0.45" d="M288.248 139.488H284.637V143.103H288.248V139.488Z" fill="#E7EFF7"/>
<path opacity="0.45" d="M306.226 139.491H302.615V143.105H306.226V139.491Z" fill="#E7EFF7"/>
<path opacity="0.45" d="M312.221 139.491H308.609V143.105H312.221V139.491Z" fill="#E7EFF7"/>
<path opacity="0.45" d="M318.213 139.491H314.602V143.105H318.213V139.491Z" fill="#E7EFF7"/>
<path opacity="0.45" d="M330.199 139.491H326.588V143.105H330.199V139.491Z" fill="#E7EFF7"/>
<path opacity="0.45" d="M348.18 139.495H344.568V143.109H348.18V139.495Z" fill="#E7EFF7"/>
<path opacity="0.45" d="M360.166 139.495H356.555V143.109H360.166V139.495Z" fill="#E7EFF7"/>
<path opacity="0.45" d="M366.158 139.495H362.547V143.109H366.158V139.495Z" fill="#E7EFF7"/>
<path opacity="0.45" d="M372.152 139.495H368.541V143.109H372.152V139.495Z" fill="#E7EFF7"/>
<path opacity="0.45" d="M384.139 139.498H380.527V143.112H384.139V139.498Z" fill="#E7EFF7"/>
<path opacity="0.45" d="M390.131 139.498H386.52V143.112H390.131V139.498Z" fill="#E7EFF7"/>
<path opacity="0.45" d="M396.125 139.498H392.514V143.112H396.125V139.498Z" fill="#E7EFF7"/>
<path opacity="0.45" d="M402.119 139.498H398.508V143.112H402.119V139.498Z" fill="#E7EFF7"/>
<path opacity="0.45" d="M408.111 139.498H404.5V143.112H408.111V139.498Z" fill="#E7EFF7"/>
<path opacity="0.45" d="M438.082 139.5H434.471V143.115H438.082V139.5Z" fill="#E7EFF7"/>
<path opacity="0.45" d="M444.074 139.5H440.463V143.115H444.074V139.5Z" fill="#E7EFF7"/>
<path opacity="0.45" d="M450.068 139.5H446.457V143.115H450.068V139.5Z" fill="#E7EFF7"/>
<path opacity="0.4" d="M240.301 133.505H236.689V137.12H240.301V133.505Z" fill="#E7EFF7"/>
<path opacity="0.4" d="M246.295 133.505H242.684V137.12H246.295V133.505Z" fill="#E7EFF7"/>
<path opacity="0.4" d="M264.273 133.508H260.662V137.123H264.273V133.508Z" fill="#E7EFF7"/>
<path opacity="0.4" d="M270.267 133.508H266.656V137.123H270.267V133.508Z" fill="#E7EFF7"/>
<path opacity="0.4" d="M276.26 133.508H272.648V137.123H276.26V133.508Z" fill="#E7EFF7"/>
<path opacity="0.4" d="M288.248 133.508H284.637V137.123H288.248V133.508Z" fill="#E7EFF7"/>
<path opacity="0.4" d="M294.24 133.508H290.629V137.123H294.24V133.508Z" fill="#E7EFF7"/>
<path opacity="0.4" d="M318.213 133.511H314.602V137.125H318.213V133.511Z" fill="#E7EFF7"/>
<path opacity="0.4" d="M336.193 133.511H332.582V137.125H336.193V133.511Z" fill="#E7EFF7"/>
<path opacity="0.4" d="M342.185 133.514H338.574V137.128H342.185V133.514Z" fill="#E7EFF7"/>
<path opacity="0.4" d="M372.152 133.514H368.541V137.128H372.152V133.514Z" fill="#E7EFF7"/>
<path opacity="0.4" d="M390.135 133.518H386.523V137.132H390.135V133.518Z" fill="#E7EFF7"/>
<path opacity="0.4" d="M408.115 133.518H404.504V137.132H408.115V133.518Z" fill="#E7EFF7"/>
<path opacity="0.4" d="M414.107 133.518H410.496V137.132H414.107V133.518Z" fill="#E7EFF7"/>
<path opacity="0.4" d="M420.101 133.518H416.49V137.132H420.101V133.518Z" fill="#E7EFF7"/>
<path opacity="0.4" d="M432.088 133.521H428.477V137.135H432.088V133.521Z" fill="#E7EFF7"/>
<path opacity="0.4" d="M438.082 133.521H434.471V137.135H438.082V133.521Z" fill="#E7EFF7"/>
<path opacity="0.4" d="M450.068 133.521H446.457V137.135H450.068V133.521Z" fill="#E7EFF7"/>
<path opacity="0.4" d="M240.301 127.525H236.689V131.14H240.301V127.525Z" fill="#E7EFF7"/>
<path opacity="0.4" d="M252.287 127.525H248.676V131.14H252.287V127.525Z" fill="#E7EFF7"/>
<path opacity="0.4" d="M264.273 127.528H260.662V131.143H264.273V127.528Z" fill="#E7EFF7"/>
<path opacity="0.4" d="M276.26 127.528H272.648V131.143H276.26V127.528Z" fill="#E7EFF7"/>
<path opacity="0.4" d="M288.248 127.528H284.637V131.143H288.248V127.528Z" fill="#E7EFF7"/>
<path opacity="0.4" d="M294.24 127.528H290.629V131.143H294.24V127.528Z" fill="#E7EFF7"/>
<path opacity="0.4" d="M300.232 127.531H296.621V131.145H300.232V127.531Z" fill="#E7EFF7"/>
<path opacity="0.4" d="M306.226 127.531H302.615V131.145H306.226V127.531Z" fill="#E7EFF7"/>
<path opacity="0.4" d="M312.221 127.531H308.609V131.145H312.221V127.531Z" fill="#E7EFF7"/>
<path opacity="0.4" d="M330.199 127.531H326.588V131.145H330.199V127.531Z" fill="#E7EFF7"/>
<path opacity="0.4" d="M336.193 127.531H332.582V131.145H336.193V127.531Z" fill="#E7EFF7"/>
<path opacity="0.4" d="M342.185 127.531H338.574V131.145H342.185V127.531Z" fill="#E7EFF7"/>
<path opacity="0.4" d="M348.18 127.534H344.568V131.148H348.18V127.534Z" fill="#E7EFF7"/>
<path opacity="0.4" d="M360.166 127.534H356.555V131.148H360.166V127.534Z" fill="#E7EFF7"/>
<path opacity="0.4" d="M366.162 127.534H362.551V131.148H366.162V127.534Z" fill="#E7EFF7"/>
<path opacity="0.4" d="M396.127 127.537H392.516V131.151H396.127V127.537Z" fill="#E7EFF7"/>
<path opacity="0.4" d="M402.123 127.537H398.512V131.151H402.123V127.537Z" fill="#E7EFF7"/>
<path opacity="0.4" d="M414.107 127.537H410.496V131.151H414.107V127.537Z" fill="#E7EFF7"/>
<path opacity="0.4" d="M444.074 127.541H440.463V131.155H444.074V127.541Z" fill="#E7EFF7"/>
<path opacity="0.3" d="M240.301 121.545H236.689V125.159H240.301V121.545Z" fill="#E7EFF7"/>
<path opacity="0.3" d="M258.279 121.545H254.668V125.159H258.279V121.545Z" fill="#E7EFF7"/>
<path opacity="0.3" d="M264.273 121.545H260.662V125.159H264.273V121.545Z" fill="#E7EFF7"/>
<path opacity="0.3" d="M276.26 121.545H272.648V125.159H276.26V121.545Z" fill="#E7EFF7"/>
<path opacity="0.3" d="M300.232 121.545H296.621V125.159H300.232V121.545Z" fill="#E7EFF7"/>
<path opacity="0.3" d="M306.226 121.545H302.615V125.159H306.226V121.545Z" fill="#E7EFF7"/>
<path opacity="0.3" d="M318.213 121.545H314.602V125.159H318.213V121.545Z" fill="#E7EFF7"/>
<path opacity="0.3" d="M336.193 121.545H332.582V125.159H336.193V121.545Z" fill="#E7EFF7"/>
<path opacity="0.3" d="M348.18 121.545H344.568V125.159H348.18V121.545Z" fill="#E7EFF7"/>
<path opacity="0.3" d="M354.174 121.545H350.562V125.159H354.174V121.545Z" fill="#E7EFF7"/>
<path opacity="0.3" d="M360.166 121.545H356.555V125.159H360.166V121.545Z" fill="#E7EFF7"/>
<path opacity="0.3" d="M372.152 121.545H368.541V125.159H372.152V121.545Z" fill="#E7EFF7"/>
<path opacity="0.3" d="M384.139 121.545H380.527V125.159H384.139V121.545Z" fill="#E7EFF7"/>
<path opacity="0.3" d="M390.135 121.545H386.523V125.159H390.135V121.545Z" fill="#E7EFF7"/>
<path opacity="0.3" d="M396.127 121.545H392.516V125.159H396.127V121.545Z" fill="#E7EFF7"/>
<path opacity="0.3" d="M402.123 121.545H398.512V125.159H402.123V121.545Z" fill="#E7EFF7"/>
<path opacity="0.3" d="M408.115 121.545H404.504V125.159H408.115V121.545Z" fill="#E7EFF7"/>
<path opacity="0.3" d="M414.107 121.545H410.496V125.159H414.107V121.545Z" fill="#E7EFF7"/>
<path opacity="0.3" d="M420.101 121.545H416.49V125.159H420.101V121.545Z" fill="#E7EFF7"/>
<path opacity="0.3" d="M432.088 121.545H428.477V125.159H432.088V121.545Z" fill="#E7EFF7"/>
<path opacity="0.3" d="M444.074 121.545H440.463V125.159H444.074V121.545Z" fill="#E7EFF7"/>
<path opacity="0.3" d="M450.068 121.545H446.457V125.159H450.068V121.545Z" fill="#E7EFF7"/>
<path opacity="0.3" d="M252.287 115.565H248.676V119.179H252.287V115.565Z" fill="#E7EFF7"/>
<path opacity="0.3" d="M264.273 115.565H260.662V119.179H264.273V115.565Z" fill="#E7EFF7"/>
<path opacity="0.3" d="M270.267 115.565H266.656V119.179H270.267V115.565Z" fill="#E7EFF7"/>
<path opacity="0.3" d="M276.26 115.565H272.648V119.179H276.26V115.565Z" fill="#E7EFF7"/>
<path opacity="0.3" d="M288.248 115.565H284.637V119.179H288.248V115.565Z" fill="#E7EFF7"/>
<path opacity="0.3" d="M294.24 115.565H290.629V119.179H294.24V115.565Z" fill="#E7EFF7"/>
<path opacity="0.3" d="M300.232 115.565H296.621V119.179H300.232V115.565Z" fill="#E7EFF7"/>
<path opacity="0.3" d="M306.226 115.565H302.615V119.179H306.226V115.565Z" fill="#E7EFF7"/>
<path opacity="0.3" d="M312.221 115.565H308.609V119.179H312.221V115.565Z" fill="#E7EFF7"/>
<path opacity="0.3" d="M330.199 115.565H326.588V119.179H330.199V115.565Z" fill="#E7EFF7"/>
<path opacity="0.3" d="M336.193 115.565H332.582V119.179H336.193V115.565Z" fill="#E7EFF7"/>
<path opacity="0.3" d="M342.185 115.565H338.574V119.179H342.185V115.565Z" fill="#E7EFF7"/>
<path opacity="0.3" d="M348.18 115.565H344.568V119.179H348.18V115.565Z" fill="#E7EFF7"/>
<path opacity="0.3" d="M360.166 115.565H356.555V119.179H360.166V115.565Z" fill="#E7EFF7"/>
<path opacity="0.3" d="M372.152 115.565H368.541V119.179H372.152V115.565Z" fill="#E7EFF7"/>
<path opacity="0.3" d="M390.135 115.565H386.523V119.179H390.135V115.565Z" fill="#E7EFF7"/>
<path opacity="0.3" d="M396.127 115.565H392.516V119.179H396.127V115.565Z" fill="#E7EFF7"/>
<path opacity="0.3" d="M408.115 115.565H404.504V119.179H408.115V115.565Z" fill="#E7EFF7"/>
<path opacity="0.3" d="M432.088 115.565H428.477V119.179H432.088V115.565Z" fill="#E7EFF7"/>
<path opacity="0.25" d="M240.301 109.585H236.689V113.199H240.301V109.585Z" fill="#E7EFF7"/>
<path opacity="0.25" d="M252.287 109.585H248.676V113.199H252.287V109.585Z" fill="#E7EFF7"/>
<path opacity="0.25" d="M258.279 109.585H254.668V113.199H258.279V109.585Z" fill="#E7EFF7"/>
<path opacity="0.25" d="M264.273 109.585H260.662V113.199H264.273V109.585Z" fill="#E7EFF7"/>
<path opacity="0.25" d="M270.267 109.585H266.656V113.199H270.267V109.585Z" fill="#E7EFF7"/>
<path opacity="0.25" d="M282.254 109.585H278.643V113.199H282.254V109.585Z" fill="#E7EFF7"/>
<path opacity="0.25" d="M300.232 109.585H296.621V113.199H300.232V109.585Z" fill="#E7EFF7"/>
<path opacity="0.25" d="M312.221 109.585H308.609V113.199H312.221V109.585Z" fill="#E7EFF7"/>
<path opacity="0.25" d="M318.213 109.585H314.602V113.199H318.213V109.585Z" fill="#E7EFF7"/>
<path opacity="0.25" d="M336.193 109.585H332.582V113.199H336.193V109.585Z" fill="#E7EFF7"/>
<path opacity="0.25" d="M342.185 109.585H338.574V113.199H342.185V109.585Z" fill="#E7EFF7"/>
<path opacity="0.25" d="M354.174 109.585H350.562V113.199H354.174V109.585Z" fill="#E7EFF7"/>
<path opacity="0.25" d="M372.152 109.585H368.541V113.199H372.152V109.585Z" fill="#E7EFF7"/>
<path opacity="0.25" d="M384.139 109.585H380.527V113.199H384.139V109.585Z" fill="#E7EFF7"/>
<path opacity="0.25" d="M390.135 109.585H386.523V113.199H390.135V109.585Z" fill="#E7EFF7"/>
<path opacity="0.25" d="M402.123 109.585H398.512V113.199H402.123V109.585Z" fill="#E7EFF7"/>
<path opacity="0.25" d="M414.107 109.585H410.496V113.199H414.107V109.585Z" fill="#E7EFF7"/>
<path opacity="0.25" d="M420.101 109.585H416.49V113.199H420.101V109.585Z" fill="#E7EFF7"/>
<path opacity="0.25" d="M432.088 109.585H428.477V113.199H432.088V109.585Z" fill="#E7EFF7"/>
<path opacity="0.25" d="M450.068 109.585H446.457V113.199H450.068V109.585Z" fill="#E7EFF7"/>
<path opacity="0.25" d="M456.06 109.585H452.449V113.199H456.06V109.585Z" fill="#E7EFF7"/>
<path opacity="0.25" d="M240.301 103.605H236.689V107.219H240.301V103.605Z" fill="#E7EFF7"/>
<path opacity="0.25" d="M252.287 103.605H248.676V107.219H252.287V103.605Z" fill="#E7EFF7"/>
<path opacity="0.25" d="M270.267 103.605H266.656V107.219H270.267V103.605Z" fill="#E7EFF7"/>
<path opacity="0.25" d="M282.254 103.605H278.643V107.219H282.254V103.605Z" fill="#E7EFF7"/>
<path opacity="0.25" d="M288.248 103.605H284.637V107.219H288.248V103.605Z" fill="#E7EFF7"/>
<path opacity="0.25" d="M306.226 103.605H302.615V107.219H306.226V103.605Z" fill="#E7EFF7"/>
<path opacity="0.25" d="M342.185 103.605H338.574V107.219H342.185V103.605Z" fill="#E7EFF7"/>
<path opacity="0.25" d="M348.18 103.605H344.568V107.219H348.18V103.605Z" fill="#E7EFF7"/>
<path opacity="0.25" d="M360.166 103.605H356.555V107.219H360.166V103.605Z" fill="#E7EFF7"/>
<path opacity="0.25" d="M366.158 103.605H362.547V107.219H366.158V103.605Z" fill="#E7EFF7"/>
<path opacity="0.25" d="M384.139 103.605H380.527V107.219H384.139V103.605Z" fill="#E7EFF7"/>
<path opacity="0.25" d="M390.135 103.605H386.523V107.219H390.135V103.605Z" fill="#E7EFF7"/>
<path opacity="0.25" d="M402.123 103.605H398.512V107.219H402.123V103.605Z" fill="#E7EFF7"/>
<path opacity="0.25" d="M408.115 103.605H404.504V107.219H408.115V103.605Z" fill="#E7EFF7"/>
<path opacity="0.25" d="M426.094 103.605H422.482V107.219H426.094V103.605Z" fill="#E7EFF7"/>
<path opacity="0.25" d="M432.088 103.605H428.477V107.219H432.088V103.605Z" fill="#E7EFF7"/>
<path opacity="0.25" d="M438.082 103.605H434.471V107.219H438.082V103.605Z" fill="#E7EFF7"/>
<path opacity="0.25" d="M444.074 103.605H440.463V107.219H444.074V103.605Z" fill="#E7EFF7"/>
<path opacity="0.25" d="M450.068 103.605H446.457V107.219H450.068V103.605Z" fill="#E7EFF7"/>
<path opacity="0.25" d="M456.06 103.605H452.449V107.219H456.06V103.605Z" fill="#E7EFF7"/>
<path opacity="0.25" d="M240.301 97.6245H236.689V101.239H240.301V97.6245Z" fill="#E7EFF7"/>
<path opacity="0.25" d="M258.279 97.6245H254.668V101.239H258.279V97.6245Z" fill="#E7EFF7"/>
<path opacity="0.25" d="M264.273 97.6245H260.662V101.239H264.273V97.6245Z" fill="#E7EFF7"/>
<path opacity="0.25" d="M300.232 97.6245H296.621V101.239H300.232V97.6245Z" fill="#E7EFF7"/>
<path opacity="0.25" d="M306.226 97.6245H302.615V101.239H306.226V97.6245Z" fill="#E7EFF7"/>
<path opacity="0.25" d="M312.221 97.6245H308.609V101.239H312.221V97.6245Z" fill="#E7EFF7"/>
<path opacity="0.25" d="M318.213 97.6245H314.602V101.239H318.213V97.6245Z" fill="#E7EFF7"/>
<path opacity="0.25" d="M336.193 97.6245H332.582V101.239H336.193V97.6245Z" fill="#E7EFF7"/>
<path opacity="0.25" d="M342.185 97.6245H338.574V101.239H342.185V97.6245Z" fill="#E7EFF7"/>
<path opacity="0.25" d="M354.174 97.6245H350.562V101.239H354.174V97.6245Z" fill="#E7EFF7"/>
<path opacity="0.25" d="M360.166 97.6245H356.555V101.239H360.166V97.6245Z" fill="#E7EFF7"/>
<path opacity="0.25" d="M372.152 97.6245H368.541V101.239H372.152V97.6245Z" fill="#E7EFF7"/>
<path opacity="0.25" d="M378.146 97.6245H374.535V101.239H378.146V97.6245Z" fill="#E7EFF7"/>
<path opacity="0.25" d="M384.139 97.6245H380.527V101.239H384.139V97.6245Z" fill="#E7EFF7"/>
<path opacity="0.25" d="M390.135 97.6245H386.523V101.239H390.135V97.6245Z" fill="#E7EFF7"/>
<path opacity="0.25" d="M402.123 97.6245H398.512V101.239H402.123V97.6245Z" fill="#E7EFF7"/>
<path opacity="0.25" d="M408.115 97.6245H404.504V101.239H408.115V97.6245Z" fill="#E7EFF7"/>
<path opacity="0.25" d="M414.107 97.6245H410.496V101.239H414.107V97.6245Z" fill="#E7EFF7"/>
<path opacity="0.25" d="M420.101 97.6245H416.49V101.239H420.101V97.6245Z" fill="#E7EFF7"/>
<path opacity="0.25" d="M426.094 97.6245H422.482V101.239H426.094V97.6245Z" fill="#E7EFF7"/>
<path opacity="0.25" d="M444.074 97.6245H440.463V101.239H444.074V97.6245Z" fill="#E7EFF7"/>
<path opacity="0.25" d="M450.068 97.6245H446.457V101.239H450.068V97.6245Z" fill="#E7EFF7"/>
<path opacity="0.25" d="M456.06 97.6245H452.449V101.239H456.06V97.6245Z" fill="#E7EFF7"/>
<path opacity="0.2" d="M258.279 91.6445H254.668V95.2588H258.279V91.6445Z" fill="#E7EFF7"/>
<path opacity="0.2" d="M264.273 91.6445H260.662V95.2588H264.273V91.6445Z" fill="#E7EFF7"/>
<path opacity="0.2" d="M270.267 91.6445H266.656V95.2588H270.267V91.6445Z" fill="#E7EFF7"/>
<path opacity="0.2" d="M282.254 91.6445H278.643V95.2588H282.254V91.6445Z" fill="#E7EFF7"/>
<path opacity="0.2" d="M300.232 91.6445H296.621V95.2588H300.232V91.6445Z" fill="#E7EFF7"/>
<path opacity="0.2" d="M318.213 91.6445H314.602V95.2588H318.213V91.6445Z" fill="#E7EFF7"/>
<path opacity="0.2" d="M330.199 91.6445H326.588V95.2588H330.199V91.6445Z" fill="#E7EFF7"/>
<path opacity="0.2" d="M336.193 91.6445H332.582V95.2588H336.193V91.6445Z" fill="#E7EFF7"/>
<path opacity="0.2" d="M342.185 91.6445H338.574V95.2588H342.185V91.6445Z" fill="#E7EFF7"/>
<path opacity="0.2" d="M354.174 91.6445H350.562V95.2588H354.174V91.6445Z" fill="#E7EFF7"/>
<path opacity="0.2" d="M378.146 91.6445H374.535V95.2588H378.146V91.6445Z" fill="#E7EFF7"/>
<path opacity="0.2" d="M384.139 91.6445H380.527V95.2588H384.139V91.6445Z" fill="#E7EFF7"/>
<path opacity="0.2" d="M396.127 91.6445H392.516V95.2588H396.127V91.6445Z" fill="#E7EFF7"/>
<path opacity="0.2" d="M408.115 91.6445H404.504V95.2588H408.115V91.6445Z" fill="#E7EFF7"/>
<path opacity="0.2" d="M420.101 91.6445H416.49V95.2588H420.101V91.6445Z" fill="#E7EFF7"/>
<path opacity="0.2" d="M432.088 91.6445H428.477V95.2588H432.088V91.6445Z" fill="#E7EFF7"/>
<path opacity="0.2" d="M438.082 91.6445H434.471V95.2588H438.082V91.6445Z" fill="#E7EFF7"/>
<path opacity="0.2" d="M456.06 91.6445H452.449V95.2588H456.06V91.6445Z" fill="#E7EFF7"/>
<path opacity="0.2" d="M240.301 85.6646H236.689V89.2788H240.301V85.6646Z" fill="#E7EFF7"/>
<path opacity="0.2" d="M276.26 85.6646H272.648V89.2788H276.26V85.6646Z" fill="#E7EFF7"/>
<path opacity="0.2" d="M288.248 85.6646H284.637V89.2788H288.248V85.6646Z" fill="#E7EFF7"/>
<path opacity="0.2" d="M294.24 85.6646H290.629V89.2788H294.24V85.6646Z" fill="#E7EFF7"/>
<path opacity="0.2" d="M312.221 85.6646H308.609V89.2788H312.221V85.6646Z" fill="#E7EFF7"/>
<path opacity="0.2" d="M330.199 85.6646H326.588V89.2788H330.199V85.6646Z" fill="#E7EFF7"/>
<path opacity="0.2" d="M336.193 85.6646H332.582V89.2788H336.193V85.6646Z" fill="#E7EFF7"/>
<path opacity="0.2" d="M348.18 85.6646H344.568V89.2788H348.18V85.6646Z" fill="#E7EFF7"/>
<path opacity="0.2" d="M366.158 85.6646H362.547V89.2788H366.158V85.6646Z" fill="#E7EFF7"/>
<path opacity="0.2" d="M372.152 85.6646H368.541V89.2788H372.152V85.6646Z" fill="#E7EFF7"/>
<path opacity="0.2" d="M378.146 85.6646H374.535V89.2788H378.146V85.6646Z" fill="#E7EFF7"/>
<path opacity="0.2" d="M408.115 85.6646H404.504V89.2788H408.115V85.6646Z" fill="#E7EFF7"/>
<path opacity="0.2" d="M420.101 85.6646H416.49V89.2788H420.101V85.6646Z" fill="#E7EFF7"/>
<path opacity="0.2" d="M450.068 85.6646H446.457V89.2788H450.068V85.6646Z" fill="#E7EFF7"/>
<path opacity="0.1" d="M258.279 79.6846H254.668V83.2988H258.279V79.6846Z" fill="#E7EFF7"/>
<path opacity="0.2" d="M264.273 79.6846H260.662V83.2988H264.273V79.6846Z" fill="#E7EFF7"/>
<path opacity="0.2" d="M270.267 79.6846H266.656V83.2988H270.267V79.6846Z" fill="#E7EFF7"/>
<path opacity="0.2" d="M288.248 79.6846H284.637V83.2988H288.248V79.6846Z" fill="#E7EFF7"/>
<path opacity="0.2" d="M312.221 79.6846H308.609V83.2988H312.221V79.6846Z" fill="#E7EFF7"/>
<path opacity="0.2" d="M318.213 79.6846H314.602V83.2988H318.213V79.6846Z" fill="#E7EFF7"/>
<path opacity="0.2" d="M342.185 79.6846H338.574V83.2988H342.185V79.6846Z" fill="#E7EFF7"/>
<path opacity="0.2" d="M348.18 79.6846H344.568V83.2988H348.18V79.6846Z" fill="#E7EFF7"/>
<path opacity="0.2" d="M360.166 79.6846H356.555V83.2988H360.166V79.6846Z" fill="#E7EFF7"/>
<path opacity="0.2" d="M396.127 79.6846H392.516V83.2988H396.127V79.6846Z" fill="#E7EFF7"/>
<path opacity="0.2" d="M402.123 79.6846H398.512V83.2988H402.123V79.6846Z" fill="#E7EFF7"/>
<path opacity="0.2" d="M426.094 79.6846H422.482V83.2988H426.094V79.6846Z" fill="#E7EFF7"/>
<path opacity="0.2" d="M432.088 79.6846H428.477V83.2988H432.088V79.6846Z" fill="#E7EFF7"/>
<path opacity="0.2" d="M264.273 73.7046H260.662V77.3188H264.273V73.7046Z" fill="#E7EFF7"/>
<path opacity="0.2" d="M294.24 73.7046H290.629V77.3188H294.24V73.7046Z" fill="#E7EFF7"/>
<path opacity="0.2" d="M318.213 73.7046H314.602V77.3188H318.213V73.7046Z" fill="#E7EFF7"/>
<path opacity="0.2" d="M330.199 73.7046H326.588V77.3188H330.199V73.7046Z" fill="#E7EFF7"/>
<path opacity="0.2" d="M342.185 73.7046H338.574V77.3188H342.185V73.7046Z" fill="#E7EFF7"/>
<path opacity="0.2" d="M348.18 73.7046H344.568V77.3188H348.18V73.7046Z" fill="#E7EFF7"/>
<path opacity="0.2" d="M366.158 73.7046H362.547V77.3188H366.158V73.7046Z" fill="#E7EFF7"/>
<path opacity="0.2" d="M384.139 73.7046H380.527V77.3188H384.139V73.7046Z" fill="#E7EFF7"/>
<path opacity="0.2" d="M402.123 73.7046H398.512V77.3188H402.123V73.7046Z" fill="#E7EFF7"/>
<path opacity="0.2" d="M414.107 73.7046H410.496V77.3188H414.107V73.7046Z" fill="#E7EFF7"/>
<path opacity="0.2" d="M432.088 73.7046H428.477V77.3188H432.088V73.7046Z" fill="#E7EFF7"/>
<path opacity="0.15" d="M336.193 67.7241H332.582V71.3384H336.193V67.7241Z" fill="#E7EFF7"/>
<path opacity="0.15" d="M342.185 67.7241H338.574V71.3384H342.185V67.7241Z" fill="#E7EFF7"/>
<path opacity="0.15" d="M360.166 67.7241H356.555V71.3384H360.166V67.7241Z" fill="#E7EFF7"/>
<path opacity="0.15" d="M384.139 67.7241H380.527V71.3384H384.139V67.7241Z" fill="#E7EFF7"/>
<path opacity="0.15" d="M402.123 67.7241H398.512V71.3384H402.123V67.7241Z" fill="#E7EFF7"/>
<path opacity="0.15" d="M414.107 67.7241H410.496V71.3384H414.107V67.7241Z" fill="#E7EFF7"/>
<path opacity="0.15" d="M432.088 67.7241H428.477V71.3384H432.088V67.7241Z" fill="#E7EFF7"/>
<path opacity="0.15" d="M438.082 67.7241H434.471V71.3384H438.082V67.7241Z" fill="#E7EFF7"/>
<path opacity="0.15" d="M450.068 67.7241H446.457V71.3384H450.068V67.7241Z" fill="#E7EFF7"/>
<path opacity="0.15" d="M456.06 67.7241H452.449V71.3384H456.06V67.7241Z" fill="#E7EFF7"/>
<path opacity="0.15" d="M300.232 61.7441H296.621V65.3584H300.232V61.7441Z" fill="#E7EFF7"/>
<path opacity="0.15" d="M306.226 61.7441H302.615V65.3584H306.226V61.7441Z" fill="#E7EFF7"/>
<path opacity="0.05" d="M312.221 61.7441H308.609V65.3584H312.221V61.7441Z" fill="#E7EFF7"/>
<path opacity="0.1" d="M330.199 61.7441H326.588V65.3584H330.199V61.7441Z" fill="#E7EFF7"/>
<path opacity="0.15" d="M342.185 61.7441H338.574V65.3584H342.185V61.7441Z" fill="#E7EFF7"/>
<path opacity="0.15" d="M360.166 61.7441H356.555V65.3584H360.166V61.7441Z" fill="#E7EFF7"/>
<path opacity="0.15" d="M408.115 61.7441H404.504V65.3584H408.115V61.7441Z" fill="#E7EFF7"/>
<path opacity="0.15" d="M414.107 61.7441H410.496V65.3584H414.107V61.7441Z" fill="#E7EFF7"/>
<path opacity="0.15" d="M420.101 61.7441H416.49V65.3584H420.101V61.7441Z" fill="#E7EFF7"/>
<path opacity="0.05" d="M282.254 55.7642H278.643V59.3784H282.254V55.7642Z" fill="#E7EFF7"/>
<path opacity="0.05" d="M288.248 55.7642H284.637V59.3784H288.248V55.7642Z" fill="#E7EFF7"/>
<path opacity="0.05" d="M306.226 55.7642H302.615V59.3784H306.226V55.7642Z" fill="#E7EFF7"/>
<path opacity="0.15" d="M318.213 55.7642H314.602V59.3784H318.213V55.7642Z" fill="#E7EFF7"/>
<path opacity="0.05" d="M336.193 55.7642H332.582V59.3784H336.193V55.7642Z" fill="#E7EFF7"/>
<path opacity="0.15" d="M360.166 55.7642H356.555V59.3784H360.166V55.7642Z" fill="#E7EFF7"/>
<path opacity="0.15" d="M372.152 55.7642H368.541V59.3784H372.152V55.7642Z" fill="#E7EFF7"/>
<path opacity="0.15" d="M384.139 55.7642H380.527V59.3784H384.139V55.7642Z" fill="#E7EFF7"/>
<path opacity="0.15" d="M420.101 55.7642H416.49V59.3784H420.101V55.7642Z" fill="#E7EFF7"/>
<path opacity="0.15" d="M426.094 55.7642H422.482V59.3784H426.094V55.7642Z" fill="#E7EFF7"/>
<path opacity="0.05" d="M330.199 49.7808H326.588V53.395H330.199V49.7808Z" fill="#E7EFF7"/>
<path opacity="0.15" d="M342.185 49.7808H338.574V53.395H342.185V49.7808Z" fill="#E7EFF7"/>
<path opacity="0.15" d="M348.18 49.7808H344.568V53.395H348.18V49.7808Z" fill="#E7EFF7"/>
<path opacity="0.15" d="M372.152 49.7808H368.541V53.395H372.152V49.7808Z" fill="#E7EFF7"/>
<path opacity="0.15" d="M408.115 49.7808H404.504V53.395H408.115V49.7808Z" fill="#E7EFF7"/>
<path opacity="0.15" d="M432.088 49.7808H428.477V53.395H432.088V49.7808Z" fill="#E7EFF7"/>
<path opacity="0.15" d="M438.082 49.7808H434.471V53.395H438.082V49.7808Z" fill="#E7EFF7"/>
<path opacity="0.15" d="M444.074 49.7808H440.463V53.395H444.074V49.7808Z" fill="#E7EFF7"/>
<path opacity="0.15" d="M450.068 49.7808H446.457V53.395H450.068V49.7808Z" fill="#E7EFF7"/>
<path opacity="0.05" d="M306.226 43.8008H302.615V47.415H306.226V43.8008Z" fill="#E7EFF7"/>
<path opacity="0.15" d="M360.166 43.8008H356.555V47.415H360.166V43.8008Z" fill="#E7EFF7"/>
<path opacity="0.15" d="M408.115 43.8008H404.504V47.415H408.115V43.8008Z" fill="#E7EFF7"/>
<path opacity="0.15" d="M420.101 43.8008H416.49V47.415H420.101V43.8008Z" fill="#E7EFF7"/>
<path opacity="0.15" d="M426.094 43.8008H422.482V47.415H426.094V43.8008Z" fill="#E7EFF7"/>
<path opacity="0.15" d="M432.088 43.8008H428.477V47.415H432.088V43.8008Z" fill="#E7EFF7"/>
<path opacity="0.15" d="M450.068 43.8008H446.457V47.415H450.068V43.8008Z" fill="#E7EFF7"/>
<path opacity="0.05" d="M360.166 37.8208H356.555V41.435H360.166V37.8208Z" fill="#E7EFF7"/>
<path opacity="0.1" d="M378.146 37.8208H374.535V41.435H378.146V37.8208Z" fill="#E7EFF7"/>
<path opacity="0.1" d="M402.123 37.8208H398.512V41.435H402.123V37.8208Z" fill="#E7EFF7"/>
<path opacity="0.1" d="M426.094 37.8208H422.482V41.435H426.094V37.8208Z" fill="#E7EFF7"/>
<path opacity="0.1" d="M438.082 37.8208H434.471V41.435H438.082V37.8208Z" fill="#E7EFF7"/>
<path opacity="0.1" d="M450.068 37.8208H446.457V41.435H450.068V37.8208Z" fill="#E7EFF7"/>
<path opacity="0.05" d="M312.221 31.8408H308.609V35.4551H312.221V31.8408Z" fill="#E7EFF7"/>
<path opacity="0.1" d="M348.18 31.8408H344.568V35.4551H348.18V31.8408Z" fill="#E7EFF7"/>
<path opacity="0.1" d="M402.123 31.8408H398.512V35.4551H402.123V31.8408Z" fill="#E7EFF7"/>
<path opacity="0.1" d="M408.115 31.8408H404.504V35.4551H408.115V31.8408Z" fill="#E7EFF7"/>
<path opacity="0.1" d="M444.074 31.8408H440.463V35.4551H444.074V31.8408Z" fill="#E7EFF7"/>
<path opacity="0.1" d="M330.199 25.8608H326.588V29.4751H330.199V25.8608Z" fill="#E7EFF7"/>
<path opacity="0.05" d="M348.18 25.8608H344.568V29.4751H348.18V25.8608Z" fill="#E7EFF7"/>
<path opacity="0.1" d="M384.139 25.8608H380.527V29.4751H384.139V25.8608Z" fill="#E7EFF7"/>
<path opacity="0.1" d="M450.068 25.8608H446.457V29.4751H450.068V25.8608Z" fill="#E7EFF7"/>
<path opacity="0.1" d="M444.074 19.8804H440.463V23.4946H444.074V19.8804Z" fill="#E7EFF7"/>
<path opacity="0.1" d="M384.139 13.9004H380.527V17.5146H384.139V13.9004Z" fill="#E7EFF7"/>
<path opacity="0.05" d="M342.185 7.92041H338.574V11.5346H342.185V7.92041Z" fill="#E7EFF7"/>
</g>
</g>
</g>
<rect x="0.5" y="0.5" width="457" height="155" rx="15.5" stroke="#F3F4F6"/>
<defs>
<filter id="filter0_f_37770_2972" x="-86" y="-270" width="630" height="540" filterUnits="userSpaceOnUse" color-interpolation-filters="sRGB">
<feFlood flood-opacity="0" result="BackgroundImageFix"/>
<feBlend mode="normal" in="SourceGraphic" in2="BackgroundImageFix" result="shape"/>
<feGaussianBlur stdDeviation="125" result="effect1_foregroundBlur_37770_2972"/>
</filter>
<filter id="filter1_f_37770_2972" x="98" y="-110" width="630" height="540" filterUnits="userSpaceOnUse" color-interpolation-filters="sRGB">
<feFlood flood-opacity="0" result="BackgroundImageFix"/>
<feBlend mode="normal" in="SourceGraphic" in2="BackgroundImageFix" result="shape"/>
<feGaussianBlur stdDeviation="125" result="effect1_foregroundBlur_37770_2972"/>
</filter>
<filter id="filter2_f_37770_2972" x="-270" y="-110" width="630" height="540" filterUnits="userSpaceOnUse" color-interpolation-filters="sRGB">
<feFlood flood-opacity="0" result="BackgroundImageFix"/>
<feBlend mode="normal" in="SourceGraphic" in2="BackgroundImageFix" result="shape"/>
<feGaussianBlur stdDeviation="125" result="effect1_foregroundBlur_37770_2972"/>
</filter>
<clipPath id="clip0_37770_2972">
<rect width="458" height="156" rx="16" fill="white"/>
</clipPath>
<clipPath id="clip1_37770_2972">
<rect width="549" height="189" fill="white" transform="translate(-39 -16)"/>
</clipPath>
</defs>
</svg>
