<svg width="276" height="95" viewBox="0 0 276 95" fill="none" xmlns="http://www.w3.org/2000/svg">
<rect width="276" height="95" rx="10" fill="#E3EFFF"/>
<rect x="21" y="23.9785" width="15.6809" height="12.8298" rx="3.56383" fill="#D6E9FF"/>
<rect x="40.957" y="23.9785" width="17.1064" height="12.8298" rx="3.56383" fill="#D6E9FF"/>
<rect x="169.256" y="41.7979" width="40.6277" height="9.97872" rx="3.56383" fill="#D6E9FF"/>
<rect x="214.16" y="41.7979" width="37.7766" height="9.97872" rx="3.56383" fill="#D6E9FF"/>
<rect x="64.4805" y="71.0215" width="37.7766" height="9.97872" rx="3.56383" fill="#D6E9FF"/>
<rect x="21" y="71.0215" width="37.7766" height="9.97872" rx="3.56383" fill="#D6E9FF"/>
<rect x="64.4805" y="14" width="50.6064" height="22.8085" rx="3.56383" fill="#D6E9FF"/>
<rect x="21" y="42.5107" width="81.2553" height="22.8085" rx="3.56383" fill="#D6E9FF"/>
<rect x="108.672" y="41.7979" width="54.883" height="39.2021" rx="3.56383" fill="#D6E9FF"/>
<circle cx="89.5" cy="38.5" r="8.5" fill="#8FBFFA"/>
<rect x="169.256" y="57.4785" width="85.5319" height="23.5213" rx="3.56383" fill="#D6E9FF"/>
<rect x="119.361" y="14" width="44.1915" height="22.8085" rx="3.56383" fill="#D6E9FF"/>
<rect x="167.832" y="14" width="50.6064" height="22.8085" rx="3.56383" fill="#D6E9FF"/>
<circle cx="184" cy="53" r="6" fill="#8FBFFA"/>
</svg>
