<svg width="326" height="347" viewBox="0 0 326 347" fill="none" xmlns="http://www.w3.org/2000/svg">
<rect x="7" y="7" width="312" height="333" rx="24" fill="white"/>
<rect x="3.5" y="3.5" width="319" height="340" rx="27.5" stroke="url(#paint0_linear_35631_33975)" stroke-opacity="0.5" stroke-width="7"/>
<path d="M38.44 57.168C37.272 57.168 36.216 56.968 35.272 56.568C34.344 56.168 33.608 55.592 33.064 54.84C32.52 54.088 32.24 53.2 32.224 52.176H35.824C35.872 52.864 36.112 53.408 36.544 53.808C36.992 54.208 37.6 54.408 38.368 54.408C39.152 54.408 39.768 54.224 40.216 53.856C40.664 53.472 40.888 52.976 40.888 52.368C40.888 51.872 40.736 51.464 40.432 51.144C40.128 50.824 39.744 50.576 39.28 50.4C38.832 50.208 38.208 50 37.408 49.776C36.32 49.456 35.432 49.144 34.744 48.84C34.072 48.52 33.488 48.048 32.992 47.424C32.512 46.784 32.272 45.936 32.272 44.88C32.272 43.888 32.52 43.024 33.016 42.288C33.512 41.552 34.208 40.992 35.104 40.608C36 40.208 37.024 40.008 38.176 40.008C39.904 40.008 41.304 40.432 42.376 41.28C43.464 42.112 44.064 43.28 44.176 44.784H40.48C40.448 44.208 40.2 43.736 39.736 43.368C39.288 42.984 38.688 42.792 37.936 42.792C37.28 42.792 36.752 42.96 36.352 43.296C35.968 43.632 35.776 44.12 35.776 44.76C35.776 45.208 35.92 45.584 36.208 45.888C36.512 46.176 36.88 46.416 37.312 46.608C37.76 46.784 38.384 46.992 39.184 47.232C40.272 47.552 41.16 47.872 41.848 48.192C42.536 48.512 43.128 48.992 43.624 49.632C44.12 50.272 44.368 51.112 44.368 52.152C44.368 53.048 44.136 53.88 43.672 54.648C43.208 55.416 42.528 56.032 41.632 56.496C40.736 56.944 39.672 57.168 38.44 57.168ZM51.193 46.464V52.896C51.193 53.344 51.297 53.672 51.505 53.88C51.729 54.072 52.097 54.168 52.609 54.168H54.169V57H52.057C49.225 57 47.809 55.624 47.809 52.872V46.464H46.225V43.704H47.809V40.416H51.193V43.704H54.169V46.464H51.193ZM62.4897 57.216C61.2097 57.216 60.0577 56.936 59.0337 56.376C58.0097 55.8 57.2017 54.992 56.6097 53.952C56.0337 52.912 55.7457 51.712 55.7457 50.352C55.7457 48.992 56.0417 47.792 56.6337 46.752C57.2417 45.712 58.0657 44.912 59.1057 44.352C60.1457 43.776 61.3057 43.488 62.5857 43.488C63.8657 43.488 65.0257 43.776 66.0657 44.352C67.1057 44.912 67.9217 45.712 68.5137 46.752C69.1217 47.792 69.4257 48.992 69.4257 50.352C69.4257 51.712 69.1137 52.912 68.4897 53.952C67.8817 54.992 67.0497 55.8 65.9937 56.376C64.9537 56.936 63.7857 57.216 62.4897 57.216ZM62.4897 54.288C63.0977 54.288 63.6657 54.144 64.1937 53.856C64.7377 53.552 65.1697 53.104 65.4897 52.512C65.8097 51.92 65.9697 51.2 65.9697 50.352C65.9697 49.088 65.6337 48.12 64.9617 47.448C64.3057 46.76 63.4977 46.416 62.5377 46.416C61.5777 46.416 60.7697 46.76 60.1137 47.448C59.4737 48.12 59.1537 49.088 59.1537 50.352C59.1537 51.616 59.4657 52.592 60.0897 53.28C60.7297 53.952 61.5297 54.288 62.4897 54.288ZM75.2504 45.768C75.6824 45.064 76.2424 44.512 76.9304 44.112C77.6344 43.712 78.4344 43.512 79.3304 43.512V47.04H78.4424C77.3864 47.04 76.5864 47.288 76.0424 47.784C75.5144 48.28 75.2504 49.144 75.2504 50.376V57H71.8904V43.704H75.2504V45.768ZM93.9535 50.064C93.9535 50.544 93.9215 50.976 93.8575 51.36H84.1375C84.2175 52.32 84.5535 53.072 85.1455 53.616C85.7375 54.16 86.4655 54.432 87.3295 54.432C88.5775 54.432 89.4655 53.896 89.9935 52.824H93.6175C93.2335 54.104 92.4975 55.16 91.4095 55.992C90.3215 56.808 88.9855 57.216 87.4015 57.216C86.1215 57.216 84.9695 56.936 83.9455 56.376C82.9375 55.8 82.1455 54.992 81.5695 53.952C81.0095 52.912 80.7295 51.712 80.7295 50.352C80.7295 48.976 81.0095 47.768 81.5695 46.728C82.1295 45.688 82.9135 44.888 83.9215 44.328C84.9295 43.768 86.0895 43.488 87.4015 43.488C88.6655 43.488 89.7935 43.76 90.7855 44.304C91.7935 44.848 92.5695 45.624 93.1135 46.632C93.6735 47.624 93.9535 48.768 93.9535 50.064ZM90.4735 49.104C90.4575 48.24 90.1455 47.552 89.5375 47.04C88.9295 46.512 88.1855 46.248 87.3055 46.248C86.4735 46.248 85.7695 46.504 85.1935 47.016C84.6335 47.512 84.2895 48.208 84.1615 49.104H90.4735Z" fill="#111827"/>
<rect x="31.8105" y="201" width="61" height="55" rx="4.97087" fill="#003488"/>
<rect x="31.8105" y="201" width="61" height="55" rx="4.97087" fill="#61B1FF"/>
<rect x="100.811" y="168" width="59" height="88" rx="4.97087" fill="#003488"/>
<rect x="100.811" y="168" width="59" height="88" rx="4.97087" fill="#5086FF"/>
<rect x="167.811" y="149" width="59" height="107" rx="4.97087" fill="#3669FF"/>
<rect x="30.4091" y="277.409" width="265.182" height="38.1818" rx="19.0909" stroke="#111827" stroke-width="0.818182"/>
<path d="M104.284 291.38L100.108 302.5H97.996L93.804 291.38H95.756L99.052 300.628L102.364 291.38H104.284ZM106.737 292.516C106.407 292.516 106.129 292.404 105.905 292.18C105.681 291.956 105.569 291.679 105.569 291.348C105.569 291.017 105.681 290.74 105.905 290.516C106.129 290.292 106.407 290.18 106.737 290.18C107.057 290.18 107.329 290.292 107.553 290.516C107.777 290.74 107.889 291.017 107.889 291.348C107.889 291.679 107.777 291.956 107.553 292.18C107.329 292.404 107.057 292.516 106.737 292.516ZM107.633 293.684V302.5H105.809V293.684H107.633ZM118.108 297.876C118.108 298.207 118.087 298.505 118.044 298.772H111.308C111.361 299.476 111.623 300.041 112.092 300.468C112.561 300.895 113.137 301.108 113.82 301.108C114.801 301.108 115.495 300.697 115.9 299.876H117.868C117.601 300.687 117.116 301.353 116.412 301.876C115.719 302.388 114.855 302.644 113.82 302.644C112.977 302.644 112.22 302.457 111.548 302.084C110.887 301.7 110.364 301.167 109.98 300.484C109.607 299.791 109.42 298.991 109.42 298.084C109.42 297.177 109.601 296.383 109.964 295.7C110.337 295.007 110.855 294.473 111.516 294.1C112.188 293.727 112.956 293.54 113.82 293.54C114.652 293.54 115.393 293.721 116.044 294.084C116.695 294.447 117.201 294.959 117.564 295.62C117.927 296.271 118.108 297.023 118.108 297.876ZM116.204 297.3C116.193 296.628 115.953 296.089 115.484 295.684C115.015 295.279 114.433 295.076 113.74 295.076C113.111 295.076 112.572 295.279 112.124 295.684C111.676 296.079 111.409 296.617 111.324 297.3H116.204ZM131.743 293.684L129.007 302.5H127.087L125.311 295.988L123.535 302.5H121.615L118.863 293.684H120.719L122.559 300.772L124.431 293.684H126.335L128.127 300.74L129.951 293.684H131.743ZM136.655 298.052C136.655 297.167 136.836 296.383 137.199 295.7C137.572 295.017 138.073 294.489 138.703 294.116C139.343 293.732 140.047 293.54 140.815 293.54C141.508 293.54 142.111 293.679 142.623 293.956C143.145 294.223 143.561 294.559 143.871 294.964V293.684H145.711V302.5H143.871V301.188C143.561 301.604 143.14 301.951 142.607 302.228C142.073 302.505 141.465 302.644 140.783 302.644C140.025 302.644 139.332 302.452 138.703 302.068C138.073 301.673 137.572 301.129 137.199 300.436C136.836 299.732 136.655 298.937 136.655 298.052ZM143.871 298.084C143.871 297.476 143.743 296.948 143.487 296.5C143.241 296.052 142.916 295.711 142.511 295.476C142.105 295.241 141.668 295.124 141.199 295.124C140.729 295.124 140.292 295.241 139.887 295.476C139.481 295.7 139.151 296.036 138.895 296.484C138.649 296.921 138.527 297.444 138.527 298.052C138.527 298.66 138.649 299.193 138.895 299.652C139.151 300.111 139.481 300.463 139.887 300.708C140.303 300.943 140.74 301.06 141.199 301.06C141.668 301.06 142.105 300.943 142.511 300.708C142.916 300.473 143.241 300.132 143.487 299.684C143.743 299.225 143.871 298.692 143.871 298.084ZM149.93 290.66V302.5H148.106V290.66H149.93ZM154.149 290.66V302.5H152.325V290.66H154.149ZM163.9 302.644C163.207 302.644 162.583 302.521 162.028 302.276C161.484 302.02 161.052 301.679 160.732 301.252C160.412 300.815 160.241 300.329 160.22 299.796H162.108C162.14 300.169 162.316 300.484 162.636 300.74C162.967 300.985 163.377 301.108 163.868 301.108C164.38 301.108 164.775 301.012 165.052 300.82C165.34 300.617 165.484 300.361 165.484 300.052C165.484 299.721 165.324 299.476 165.004 299.316C164.695 299.156 164.199 298.98 163.516 298.788C162.855 298.607 162.316 298.431 161.9 298.26C161.484 298.089 161.121 297.828 160.812 297.476C160.513 297.124 160.364 296.66 160.364 296.084C160.364 295.615 160.503 295.188 160.78 294.804C161.057 294.409 161.452 294.1 161.964 293.876C162.487 293.652 163.084 293.54 163.756 293.54C164.759 293.54 165.564 293.796 166.172 294.308C166.791 294.809 167.121 295.497 167.164 296.372H165.34C165.308 295.977 165.148 295.663 164.86 295.428C164.572 295.193 164.183 295.076 163.692 295.076C163.212 295.076 162.844 295.167 162.588 295.348C162.332 295.529 162.204 295.769 162.204 296.068C162.204 296.303 162.289 296.5 162.46 296.66C162.631 296.82 162.839 296.948 163.084 297.044C163.329 297.129 163.692 297.241 164.172 297.38C164.812 297.551 165.335 297.727 165.74 297.908C166.156 298.079 166.513 298.335 166.812 298.676C167.111 299.017 167.265 299.471 167.276 300.036C167.276 300.537 167.137 300.985 166.86 301.38C166.583 301.775 166.188 302.084 165.676 302.308C165.175 302.532 164.583 302.644 163.9 302.644ZM168.639 298.052C168.639 297.167 168.82 296.383 169.183 295.7C169.556 295.017 170.058 294.489 170.687 294.116C171.327 293.732 172.031 293.54 172.799 293.54C173.492 293.54 174.095 293.679 174.607 293.956C175.13 294.223 175.546 294.559 175.855 294.964V293.684H177.695V302.5H175.855V301.188C175.546 301.604 175.124 301.951 174.591 302.228C174.058 302.505 173.45 302.644 172.767 302.644C172.01 302.644 171.316 302.452 170.687 302.068C170.058 301.673 169.556 301.129 169.183 300.436C168.82 299.732 168.639 298.937 168.639 298.052ZM175.855 298.084C175.855 297.476 175.727 296.948 175.471 296.5C175.226 296.052 174.9 295.711 174.495 295.476C174.09 295.241 173.652 295.124 173.183 295.124C172.714 295.124 172.276 295.241 171.871 295.476C171.466 295.7 171.135 296.036 170.879 296.484C170.634 296.921 170.511 297.444 170.511 298.052C170.511 298.66 170.634 299.193 170.879 299.652C171.135 300.111 171.466 300.463 171.871 300.708C172.287 300.943 172.724 301.06 173.183 301.06C173.652 301.06 174.09 300.943 174.495 300.708C174.9 300.473 175.226 300.132 175.471 299.684C175.727 299.225 175.855 298.692 175.855 298.084ZM181.915 290.66V302.5H180.091V290.66H181.915ZM192.389 297.876C192.389 298.207 192.368 298.505 192.325 298.772H185.589C185.643 299.476 185.904 300.041 186.373 300.468C186.843 300.895 187.419 301.108 188.101 301.108C189.083 301.108 189.776 300.697 190.181 299.876H192.149C191.883 300.687 191.397 301.353 190.693 301.876C190 302.388 189.136 302.644 188.101 302.644C187.259 302.644 186.501 302.457 185.829 302.084C185.168 301.7 184.645 301.167 184.261 300.484C183.888 299.791 183.701 298.991 183.701 298.084C183.701 297.177 183.883 296.383 184.245 295.7C184.619 295.007 185.136 294.473 185.797 294.1C186.469 293.727 187.237 293.54 188.101 293.54C188.933 293.54 189.675 293.721 190.325 294.084C190.976 294.447 191.483 294.959 191.845 295.62C192.208 296.271 192.389 297.023 192.389 297.876ZM190.485 297.3C190.475 296.628 190.235 296.089 189.765 295.684C189.296 295.279 188.715 295.076 188.021 295.076C187.392 295.076 186.853 295.279 186.405 295.684C185.957 296.079 185.691 296.617 185.605 297.3H190.485ZM197.384 302.644C196.691 302.644 196.067 302.521 195.512 302.276C194.968 302.02 194.536 301.679 194.216 301.252C193.896 300.815 193.726 300.329 193.704 299.796H195.592C195.624 300.169 195.8 300.484 196.12 300.74C196.451 300.985 196.862 301.108 197.352 301.108C197.864 301.108 198.259 301.012 198.536 300.82C198.824 300.617 198.968 300.361 198.968 300.052C198.968 299.721 198.808 299.476 198.488 299.316C198.179 299.156 197.683 298.98 197 298.788C196.339 298.607 195.8 298.431 195.384 298.26C194.968 298.089 194.606 297.828 194.296 297.476C193.998 297.124 193.848 296.66 193.848 296.084C193.848 295.615 193.987 295.188 194.264 294.804C194.542 294.409 194.936 294.1 195.448 293.876C195.971 293.652 196.568 293.54 197.24 293.54C198.243 293.54 199.048 293.796 199.656 294.308C200.275 294.809 200.606 295.497 200.648 296.372H198.824C198.792 295.977 198.632 295.663 198.344 295.428C198.056 295.193 197.667 295.076 197.176 295.076C196.696 295.076 196.328 295.167 196.072 295.348C195.816 295.529 195.688 295.769 195.688 296.068C195.688 296.303 195.774 296.5 195.944 296.66C196.115 296.82 196.323 296.948 196.568 297.044C196.814 297.129 197.176 297.241 197.656 297.38C198.296 297.551 198.819 297.727 199.224 297.908C199.64 298.079 199.998 298.335 200.296 298.676C200.595 299.017 200.75 299.471 200.76 300.036C200.76 300.537 200.622 300.985 200.344 301.38C200.067 301.775 199.672 302.084 199.16 302.308C198.659 302.532 198.067 302.644 197.384 302.644Z" fill="#111827"/>
<path d="M233.03 297.03C233.323 296.737 233.323 296.263 233.03 295.97L228.257 291.197C227.964 290.904 227.49 290.904 227.197 291.197C226.904 291.49 226.904 291.964 227.197 292.257L231.439 296.5L227.197 300.743C226.904 301.036 226.904 301.51 227.197 301.803C227.49 302.096 227.964 302.096 228.257 301.803L233.03 297.03ZM210.5 296.5L210.5 297.25L232.5 297.25L232.5 296.5L232.5 295.75L210.5 295.75L210.5 296.5Z" fill="#111827"/>
<path d="M193.144 106.568C193.144 107.677 192.856 108.723 192.28 109.704C191.725 110.664 190.893 111.464 189.784 112.104C188.696 112.723 187.405 113.085 185.912 113.192V115.784H183.864V113.16C181.731 112.968 180.013 112.328 178.712 111.24C177.411 110.131 176.739 108.637 176.696 106.76H181.496C181.624 108.296 182.413 109.224 183.864 109.544V103.432C182.328 103.048 181.091 102.664 180.152 102.28C179.213 101.896 178.403 101.277 177.72 100.424C177.037 99.5707 176.696 98.408 176.696 96.936C176.696 95.08 177.357 93.5653 178.68 92.392C180.024 91.2187 181.752 90.5467 183.864 90.376V87.784H185.912V90.376C187.96 90.5467 189.592 91.1653 190.808 92.232C192.045 93.2987 192.739 94.7707 192.888 96.648H188.056C187.992 96.0293 187.768 95.496 187.384 95.048C187.021 94.5787 186.531 94.248 185.912 94.056V100.104C187.512 100.509 188.771 100.904 189.688 101.288C190.627 101.651 191.437 102.259 192.12 103.112C192.803 103.944 193.144 105.096 193.144 106.568ZM181.368 96.712C181.368 97.416 181.581 97.992 182.008 98.44C182.435 98.8667 183.053 99.2187 183.864 99.496V93.96C183.096 94.0667 182.488 94.3547 182.04 94.824C181.592 95.2933 181.368 95.9227 181.368 96.712ZM185.912 109.608C186.723 109.459 187.352 109.128 187.8 108.616C188.269 108.104 188.504 107.485 188.504 106.76C188.504 106.056 188.28 105.491 187.832 105.064C187.384 104.637 186.744 104.285 185.912 104.008V109.608ZM197.09 93.8V89.672H204.802V113H200.194V93.8H197.09ZM221.323 95.496C221.11 94.6 220.737 93.928 220.203 93.48C219.691 93.032 218.945 92.808 217.963 92.808C216.491 92.808 215.403 93.4053 214.699 94.6C214.017 95.7733 213.665 97.6933 213.643 100.36C214.155 99.5067 214.902 98.8453 215.883 98.376C216.865 97.8853 217.931 97.64 219.083 97.64C220.47 97.64 221.697 97.9387 222.763 98.536C223.83 99.1333 224.662 100.008 225.259 101.16C225.857 102.291 226.155 103.656 226.155 105.256C226.155 106.771 225.846 108.125 225.227 109.32C224.63 110.493 223.745 111.411 222.571 112.072C221.398 112.733 220.001 113.064 218.379 113.064C216.161 113.064 214.411 112.573 213.131 111.592C211.873 110.611 210.987 109.245 210.475 107.496C209.985 105.725 209.739 103.549 209.739 100.968C209.739 97.064 210.411 94.12 211.755 92.136C213.099 90.1307 215.222 89.128 218.123 89.128C220.363 89.128 222.102 89.736 223.339 90.952C224.577 92.168 225.291 93.6827 225.483 95.496H221.323ZM218.059 101.32C216.929 101.32 215.979 101.651 215.211 102.312C214.443 102.973 214.059 103.933 214.059 105.192C214.059 106.451 214.411 107.443 215.115 108.168C215.841 108.893 216.854 109.256 218.155 109.256C219.307 109.256 220.214 108.904 220.875 108.2C221.558 107.496 221.899 106.547 221.899 105.352C221.899 104.115 221.569 103.133 220.907 102.408C220.267 101.683 219.318 101.32 218.059 101.32ZM235.104 108.296L231.36 117.288H228.48L230.56 108.296H235.104ZM237.821 101.032C237.821 97.3413 238.482 94.4507 239.805 92.36C241.149 90.2693 243.368 89.224 246.461 89.224C249.554 89.224 251.762 90.2693 253.085 92.36C254.429 94.4507 255.101 97.3413 255.101 101.032C255.101 104.744 254.429 107.656 253.085 109.768C251.762 111.88 249.554 112.936 246.461 112.936C243.368 112.936 241.149 111.88 239.805 109.768C238.482 107.656 237.821 104.744 237.821 101.032ZM250.685 101.032C250.685 99.4533 250.578 98.1307 250.365 97.064C250.173 95.976 249.768 95.0907 249.149 94.408C248.552 93.7253 247.656 93.384 246.461 93.384C245.266 93.384 244.36 93.7253 243.741 94.408C243.144 95.0907 242.738 95.976 242.525 97.064C242.333 98.1307 242.237 99.4533 242.237 101.032C242.237 102.653 242.333 104.019 242.525 105.128C242.717 106.216 243.122 107.101 243.741 107.784C244.36 108.445 245.266 108.776 246.461 108.776C247.656 108.776 248.562 108.445 249.181 107.784C249.8 107.101 250.205 106.216 250.397 105.128C250.589 104.019 250.685 102.653 250.685 101.032ZM258.573 95.816C258.679 93.6827 259.426 92.04 260.812 90.888C262.221 89.7147 264.066 89.128 266.349 89.128C267.906 89.128 269.239 89.4053 270.349 89.96C271.458 90.4933 272.29 91.2293 272.845 92.168C273.421 93.0853 273.708 94.1307 273.708 95.304C273.708 96.648 273.357 97.7893 272.653 98.728C271.97 99.6453 271.149 100.264 270.189 100.584V100.712C271.426 101.096 272.386 101.779 273.069 102.76C273.773 103.741 274.125 105 274.125 106.536C274.125 107.816 273.826 108.957 273.229 109.96C272.653 110.963 271.789 111.752 270.637 112.328C269.506 112.883 268.141 113.16 266.541 113.16C264.13 113.16 262.167 112.552 260.653 111.336C259.138 110.12 258.338 108.328 258.253 105.96H262.605C262.647 107.005 262.999 107.848 263.661 108.488C264.343 109.107 265.271 109.416 266.445 109.416C267.533 109.416 268.365 109.117 268.941 108.52C269.538 107.901 269.837 107.112 269.837 106.152C269.837 104.872 269.431 103.955 268.621 103.4C267.81 102.845 266.551 102.568 264.845 102.568H263.917V98.888H264.845C267.874 98.888 269.389 97.8747 269.389 95.848C269.389 94.9307 269.111 94.216 268.557 93.704C268.023 93.192 267.245 92.936 266.22 92.936C265.218 92.936 264.439 93.2133 263.885 93.768C263.351 94.3013 263.042 94.984 262.957 95.816H258.573ZM279.073 107.944C281.121 106.237 282.753 104.819 283.969 103.688C285.185 102.536 286.198 101.341 287.009 100.104C287.819 98.8667 288.225 97.6507 288.225 96.456C288.225 95.368 287.969 94.5147 287.457 93.896C286.945 93.2773 286.155 92.968 285.089 92.968C284.022 92.968 283.201 93.3307 282.625 94.056C282.049 94.76 281.75 95.7307 281.729 96.968H277.377C277.462 94.408 278.219 92.4667 279.649 91.144C281.099 89.8213 282.934 89.16 285.153 89.16C287.585 89.16 289.451 89.8107 290.753 91.112C292.054 92.392 292.705 94.088 292.705 96.2C292.705 97.864 292.257 99.4533 291.361 100.968C290.465 102.483 289.441 103.805 288.289 104.936C287.137 106.045 285.633 107.389 283.777 108.968H293.217V112.68H277.409V109.352L279.073 107.944Z" fill="#111827"/>
<path d="M255.53 132.97C255.237 132.677 254.763 132.677 254.47 132.97L249.697 137.743C249.404 138.036 249.404 138.51 249.697 138.803C249.99 139.096 250.464 139.096 250.757 138.803L255 134.561L259.243 138.803C259.536 139.096 260.01 139.096 260.303 138.803C260.596 138.51 260.596 138.036 260.303 137.743L255.53 132.97ZM255 148.5L255.75 148.5L255.75 133.5L255 133.5L254.25 133.5L254.25 148.5L255 148.5Z" fill="#3BB515"/>
<path d="M267.608 136.76V135.432H270.616V147H269.144V136.76H267.608ZM279.565 138.184C279.33 137 278.6 136.408 277.373 136.408C276.424 136.408 275.714 136.776 275.245 137.512C274.776 138.237 274.546 139.437 274.557 141.112C274.802 140.557 275.208 140.125 275.773 139.816C276.349 139.496 276.989 139.336 277.693 139.336C278.792 139.336 279.666 139.677 280.317 140.36C280.978 141.043 281.309 141.987 281.309 143.192C281.309 143.917 281.165 144.568 280.877 145.144C280.6 145.72 280.173 146.179 279.597 146.52C279.032 146.861 278.344 147.032 277.533 147.032C276.434 147.032 275.576 146.787 274.957 146.296C274.338 145.805 273.906 145.128 273.661 144.264C273.416 143.4 273.293 142.333 273.293 141.064C273.293 137.149 274.658 135.192 277.389 135.192C278.434 135.192 279.256 135.475 279.853 136.04C280.45 136.605 280.802 137.32 280.909 138.184H279.565ZM277.389 140.568C276.93 140.568 276.498 140.664 276.093 140.856C275.688 141.037 275.357 141.32 275.101 141.704C274.856 142.077 274.733 142.536 274.733 143.08C274.733 143.891 274.968 144.552 275.437 145.064C275.906 145.565 276.578 145.816 277.453 145.816C278.2 145.816 278.792 145.587 279.229 145.128C279.677 144.659 279.901 144.029 279.901 143.24C279.901 142.408 279.688 141.757 279.261 141.288C278.834 140.808 278.21 140.568 277.389 140.568ZM282.953 138.04C282.953 137.315 283.172 136.739 283.609 136.312C284.047 135.875 284.607 135.656 285.289 135.656C285.972 135.656 286.532 135.875 286.969 136.312C287.407 136.739 287.625 137.315 287.625 138.04C287.625 138.776 287.407 139.363 286.969 139.8C286.532 140.227 285.972 140.44 285.289 140.44C284.607 140.44 284.047 140.227 283.609 139.8C283.172 139.363 282.953 138.776 282.953 138.04ZM292.297 135.832L285.817 147H284.377L290.857 135.832H292.297ZM285.289 136.552C284.927 136.552 284.639 136.68 284.425 136.936C284.223 137.181 284.121 137.549 284.121 138.04C284.121 138.531 284.223 138.904 284.425 139.16C284.639 139.416 284.927 139.544 285.289 139.544C285.652 139.544 285.94 139.416 286.153 139.16C286.367 138.893 286.473 138.52 286.473 138.04C286.473 137.549 286.367 137.181 286.153 136.936C285.94 136.68 285.652 136.552 285.289 136.552ZM289.081 144.792C289.081 144.056 289.3 143.475 289.737 143.048C290.175 142.611 290.735 142.392 291.417 142.392C292.1 142.392 292.655 142.611 293.081 143.048C293.519 143.475 293.737 144.056 293.737 144.792C293.737 145.517 293.519 146.099 293.081 146.536C292.655 146.973 292.1 147.192 291.417 147.192C290.735 147.192 290.175 146.979 289.737 146.552C289.3 146.115 289.081 145.528 289.081 144.792ZM291.401 143.304C291.039 143.304 290.751 143.432 290.537 143.688C290.324 143.933 290.217 144.301 290.217 144.792C290.217 145.272 290.324 145.64 290.537 145.896C290.751 146.141 291.039 146.264 291.401 146.264C291.764 146.264 292.052 146.141 292.265 145.896C292.479 145.64 292.585 145.272 292.585 144.792C292.585 144.301 292.479 143.933 292.265 143.688C292.052 143.432 291.764 143.304 291.401 143.304Z" fill="#111827"/>
<defs>
<linearGradient id="paint0_linear_35631_33975" x1="7" y1="7" x2="270.29" y2="374.863" gradientUnits="userSpaceOnUse">
<stop stop-color="white"/>
<stop offset="1" stop-color="white" stop-opacity="0.1"/>
</linearGradient>
</defs>
</svg>
