<svg width="416" height="204" viewBox="0 0 416 204" fill="none" xmlns="http://www.w3.org/2000/svg">
<path opacity="0.3" d="M5.70273 191.734H-1.82227V199.269H5.70273V191.734Z" fill="#E7EFF7"/>
<path opacity="0.3" d="M30.6812 191.734H23.1562V199.269H30.6812V191.734Z" fill="#E7EFF7"/>
<path opacity="0.3" d="M43.1695 191.734H35.6445V199.269H43.1695V191.734Z" fill="#E7EFF7"/>
<path opacity="0.3" d="M55.6578 191.734H48.1328V199.269H55.6578V191.734Z" fill="#E7EFF7"/>
<path opacity="0.3" d="M80.6343 191.734H73.1094V199.269H80.6343V191.734Z" fill="#E7EFF7"/>
<path opacity="0.3" d="M105.619 191.734H98.0938V199.269H105.619V191.734Z" fill="#E7EFF7"/>
<path opacity="0.3" d="M118.107 191.734H110.582V199.269H118.107V191.734Z" fill="#E7EFF7"/>
<path opacity="0.3" d="M168.062 191.734H160.537V199.269H168.062V191.734Z" fill="#E7EFF7"/>
<path opacity="0.3" d="M5.70273 179.268H-1.82227V186.802H5.70273V179.268Z" fill="#E7EFF7"/>
<path opacity="0.3" d="M55.6578 179.268H48.1328V186.802H55.6578V179.268Z" fill="#E7EFF7"/>
<path opacity="0.3" d="M193.039 179.268H185.514V186.802H193.039V179.268Z" fill="#E7EFF7"/>
<path opacity="0.3" d="M205.527 179.268H198.002V186.802H205.527V179.268Z" fill="#E7EFF7"/>
<path opacity="0.25" d="M5.70273 166.801H-1.82227V174.335H5.70273V166.801Z" fill="#E7EFF7"/>
<path opacity="0.25" d="M43.1695 166.801H35.6445V174.335H43.1695V166.801Z" fill="#E7EFF7"/>
<path opacity="0.25" d="M55.6578 166.801H48.1328V174.335H55.6578V166.801Z" fill="#E7EFF7"/>
<path opacity="0.25" d="M80.6343 166.801H73.1094V174.335H80.6343V166.801Z" fill="#E7EFF7"/>
<path opacity="0.25" d="M93.1227 166.801H85.5977V174.335H93.1227V166.801Z" fill="#E7EFF7"/>
<path opacity="0.25" d="M143.084 166.801H135.559V174.335H143.084V166.801Z" fill="#E7EFF7"/>
<path opacity="0.25" d="M205.529 166.801H198.004V174.335H205.529V166.801Z" fill="#E7EFF7"/>
<path opacity="0.25" d="M30.6812 154.336H23.1562V161.87H30.6812V154.336Z" fill="#E7EFF7"/>
<path opacity="0.25" d="M43.1695 154.334H35.6445V161.868H43.1695V154.334Z" fill="#E7EFF7"/>
<path opacity="0.25" d="M80.6343 154.336H73.1094V161.87H80.6343V154.336Z" fill="#E7EFF7"/>
<path opacity="0.25" d="M105.619 154.336H98.0938V161.87H105.619V154.336Z" fill="#E7EFF7"/>
<path opacity="0.25" d="M155.572 154.334H148.047V161.868H155.572V154.334Z" fill="#E7EFF7"/>
<path opacity="0.25" d="M193.039 154.336H185.514V161.87H193.039V154.336Z" fill="#E7EFF7"/>
<path opacity="0.25" d="M55.6578 141.867H48.1328V149.402H55.6578V141.867Z" fill="#E7EFF7"/>
<path opacity="0.25" d="M105.619 141.867H98.0938V149.402H105.619V141.867Z" fill="#E7EFF7"/>
<path opacity="0.25" d="M155.572 141.867H148.047V149.402H155.572V141.867Z" fill="#E7EFF7"/>
<path opacity="0.2" d="M18.191 129.402H10.666V136.937H18.191V129.402Z" fill="#E7EFF7"/>
<path opacity="0.2" d="M43.1695 129.402H35.6445V136.937H43.1695V129.402Z" fill="#E7EFF7"/>
<path opacity="0.2" d="M80.6343 129.402H73.1094V136.937H80.6343V129.402Z" fill="#E7EFF7"/>
<path opacity="0.2" d="M93.1227 129.402H85.5977V136.937H93.1227V129.402Z" fill="#E7EFF7"/>
<path opacity="0.2" d="M143.084 129.402H135.559V136.937H143.084V129.402Z" fill="#E7EFF7"/>
<path opacity="0.2" d="M155.572 129.402H148.047V136.937H155.572V129.402Z" fill="#E7EFF7"/>
<path opacity="0.2" d="M168.062 129.402H160.537V136.937H168.062V129.402Z" fill="#E7EFF7"/>
<path opacity="0.2" d="M180.55 129.402H173.025V136.937H180.55V129.402Z" fill="#E7EFF7"/>
<path opacity="0.2" d="M5.70273 116.936H-1.82227V124.47H5.70273V116.936Z" fill="#E7EFF7"/>
<path opacity="0.2" d="M43.1695 116.936H35.6445V124.47H43.1695V116.936Z" fill="#E7EFF7"/>
<path opacity="0.2" d="M55.6578 116.936H48.1328V124.47H55.6578V116.936Z" fill="#E7EFF7"/>
<path opacity="0.2" d="M180.55 116.936H173.025V124.47H180.55V116.936Z" fill="#E7EFF7"/>
<path opacity="0.1" d="M193.039 116.936H185.514V124.47H193.039V116.936Z" fill="#E7EFF7"/>
<path opacity="0.2" d="M55.6578 104.469H48.1328V112.003H55.6578V104.469Z" fill="#E7EFF7"/>
<path opacity="0.2" d="M68.1461 104.469H60.6211V112.003H68.1461V104.469Z" fill="#E7EFF7"/>
<path opacity="0.2" d="M93.1227 104.469H85.5977V112.003H93.1227V104.469Z" fill="#E7EFF7"/>
<path opacity="0.1" d="M105.619 104.469H98.0938V112.003H105.619V104.469Z" fill="#E7EFF7"/>
<path opacity="0.1" d="M143.084 104.469H135.559V112.003H143.084V104.469Z" fill="#E7EFF7"/>
<path opacity="0.2" d="M168.062 104.469H160.537V112.003H168.062V104.469Z" fill="#E7EFF7"/>
<path opacity="0.1" d="M193.039 104.469H185.514V112.003H193.039V104.469Z" fill="#E7EFF7"/>
<path opacity="0.2" d="M18.191 92.0039H10.666V99.5384H18.191V92.0039Z" fill="#E7EFF7"/>
<path opacity="0.2" d="M80.6343 92.0039H73.1094V99.5384H80.6343V92.0039Z" fill="#E7EFF7"/>
<path opacity="0.1" d="M168.062 92.0039H160.537V99.5384H168.062V92.0039Z" fill="#E7EFF7"/>
<path opacity="0.15" d="M5.70273 79.5371H-1.82227V87.0716H5.70273V79.5371Z" fill="#E7EFF7"/>
<path opacity="0.15" d="M68.1461 79.5371H60.6211V87.0716H68.1461V79.5371Z" fill="#E7EFF7"/>
<path opacity="0.05" d="M180.55 79.5371H173.025V87.0716H180.55V79.5371Z" fill="#E7EFF7"/>
<path opacity="0.15" d="M5.70273 67.0703H-1.82227V74.6048H5.70273V67.0703Z" fill="#E7EFF7"/>
<path opacity="0.15" d="M30.6812 67.0703H23.1562V74.6048H30.6812V67.0703Z" fill="#E7EFF7"/>
<path opacity="0.15" d="M55.6578 67.0703H48.1328V74.6048H55.6578V67.0703Z" fill="#E7EFF7"/>
<path opacity="0.15" d="M93.1227 67.0703H85.5977V74.6048H93.1227V67.0703Z" fill="#E7EFF7"/>
<path opacity="0.1" d="M105.619 67.0703H98.0938V74.6048H105.619V67.0703Z" fill="#E7EFF7"/>
<path opacity="0.15" d="M30.6812 54.6035H23.1562V62.138H30.6812V54.6035Z" fill="#E7EFF7"/>
<path opacity="0.15" d="M43.1695 54.6035H35.6445V62.138H43.1695V54.6035Z" fill="#E7EFF7"/>
<path opacity="0.05" d="M93.1227 54.6035H85.5977V62.138H93.1227V54.6035Z" fill="#E7EFF7"/>
<path opacity="0.15" d="M5.70273 42.1309H-1.82227V49.6653H5.70273V42.1309Z" fill="#E7EFF7"/>
<path opacity="0.15" d="M43.1695 42.1309H35.6445V49.6653H43.1695V42.1309Z" fill="#E7EFF7"/>
<path opacity="0.15" d="M18.191 29.6641H10.666V37.1985H18.191V29.6641Z" fill="#E7EFF7"/>
<path opacity="0.1" d="M30.6812 4.73047H23.1562V12.2649H30.6812V4.73047Z" fill="#E7EFF7"/>
<path opacity="0.3" d="M218.003 191.734H210.479V199.269H218.003V191.734Z" fill="#E7EFF7"/>
<path opacity="0.3" d="M255.47 191.734H247.945V199.269H255.47V191.734Z" fill="#E7EFF7"/>
<path opacity="0.3" d="M267.959 191.734H260.434V199.269H267.959V191.734Z" fill="#E7EFF7"/>
<path opacity="0.3" d="M292.935 191.734H285.41V199.269H292.935V191.734Z" fill="#E7EFF7"/>
<path opacity="0.3" d="M342.89 191.734H335.365V199.269H342.89V191.734Z" fill="#E7EFF7"/>
<path opacity="0.3" d="M355.378 191.734H347.854V199.269H355.378V191.734Z" fill="#E7EFF7"/>
<path opacity="0.3" d="M380.357 191.734H372.832V199.269H380.357V191.734Z" fill="#E7EFF7"/>
<path opacity="0.3" d="M417.822 191.734H410.297V199.269H417.822V191.734Z" fill="#E7EFF7"/>
<path opacity="0.3" d="M242.98 179.268H235.455V186.802H242.98V179.268Z" fill="#E7EFF7"/>
<path opacity="0.3" d="M267.959 179.268H260.434V186.802H267.959V179.268Z" fill="#E7EFF7"/>
<path opacity="0.3" d="M280.447 179.268H272.922V186.802H280.447V179.268Z" fill="#E7EFF7"/>
<path opacity="0.3" d="M292.935 179.268H285.41V186.802H292.935V179.268Z" fill="#E7EFF7"/>
<path opacity="0.3" d="M317.912 179.268H310.387V186.802H317.912V179.268Z" fill="#E7EFF7"/>
<path opacity="0.3" d="M330.402 179.268H322.877V186.802H330.402V179.268Z" fill="#E7EFF7"/>
<path opacity="0.3" d="M342.89 179.268H335.365V186.802H342.89V179.268Z" fill="#E7EFF7"/>
<path opacity="0.3" d="M355.378 179.268H347.854V186.802H355.378V179.268Z" fill="#E7EFF7"/>
<path opacity="0.3" d="M367.867 179.268H360.342V186.802H367.867V179.268Z" fill="#E7EFF7"/>
<path opacity="0.3" d="M405.334 179.268H397.809V186.802H405.334V179.268Z" fill="#E7EFF7"/>
<path opacity="0.3" d="M417.822 179.268H410.297V186.802H417.822V179.268Z" fill="#E7EFF7"/>
<path opacity="0.25" d="M218.003 166.801H210.479V174.335H218.003V166.801Z" fill="#E7EFF7"/>
<path opacity="0.25" d="M242.982 166.801H235.457V174.335H242.982V166.801Z" fill="#E7EFF7"/>
<path opacity="0.25" d="M255.47 166.801H247.945V174.335H255.47V166.801Z" fill="#E7EFF7"/>
<path opacity="0.25" d="M267.959 166.801H260.434V174.335H267.959V166.801Z" fill="#E7EFF7"/>
<path opacity="0.25" d="M280.447 166.801H272.922V174.335H280.447V166.801Z" fill="#E7EFF7"/>
<path opacity="0.25" d="M305.423 166.801H297.898V174.335H305.423V166.801Z" fill="#E7EFF7"/>
<path opacity="0.25" d="M342.89 166.801H335.365V174.335H342.89V166.801Z" fill="#E7EFF7"/>
<path opacity="0.25" d="M367.869 166.801H360.344V174.335H367.869V166.801Z" fill="#E7EFF7"/>
<path opacity="0.25" d="M380.357 166.801H372.832V174.335H380.357V166.801Z" fill="#E7EFF7"/>
<path opacity="0.25" d="M417.822 166.801H410.297V174.335H417.822V166.801Z" fill="#E7EFF7"/>
<path opacity="0.25" d="M218.003 154.334H210.479V161.868H218.003V154.334Z" fill="#E7EFF7"/>
<path opacity="0.25" d="M242.982 154.334H235.457V161.868H242.982V154.334Z" fill="#E7EFF7"/>
<path opacity="0.25" d="M280.447 154.334H272.922V161.868H280.447V154.334Z" fill="#E7EFF7"/>
<path opacity="0.25" d="M305.423 154.334H297.898V161.868H305.423V154.334Z" fill="#E7EFF7"/>
<path opacity="0.25" d="M317.912 154.336H310.387V161.87H317.912V154.336Z" fill="#E7EFF7"/>
<path opacity="0.25" d="M355.378 154.336H347.854V161.87H355.378V154.336Z" fill="#E7EFF7"/>
<path opacity="0.25" d="M218.003 141.867H210.479V149.402H218.003V141.867Z" fill="#E7EFF7"/>
<path opacity="0.25" d="M255.47 141.867H247.945V149.402H255.47V141.867Z" fill="#E7EFF7"/>
<path opacity="0.25" d="M267.959 141.867H260.434V149.402H267.959V141.867Z" fill="#E7EFF7"/>
<path opacity="0.25" d="M342.89 141.867H335.365V149.402H342.89V141.867Z" fill="#E7EFF7"/>
<path opacity="0.25" d="M355.378 141.867H347.854V149.402H355.378V141.867Z" fill="#E7EFF7"/>
<path opacity="0.25" d="M367.869 141.867H360.344V149.402H367.869V141.867Z" fill="#E7EFF7"/>
<path opacity="0.25" d="M380.357 141.867H372.832V149.402H380.357V141.867Z" fill="#E7EFF7"/>
<path opacity="0.25" d="M417.822 141.867H410.297V149.402H417.822V141.867Z" fill="#E7EFF7"/>
<path opacity="0.2" d="M255.47 129.402H247.945V136.937H255.47V129.402Z" fill="#E7EFF7"/>
<path opacity="0.2" d="M267.959 129.402H260.434V136.937H267.959V129.402Z" fill="#E7EFF7"/>
<path opacity="0.2" d="M280.447 129.402H272.922V136.937H280.447V129.402Z" fill="#E7EFF7"/>
<path opacity="0.2" d="M305.423 129.402H297.898V136.937H305.423V129.402Z" fill="#E7EFF7"/>
<path opacity="0.2" d="M342.89 129.402H335.365V136.937H342.89V129.402Z" fill="#E7EFF7"/>
<path opacity="0.2" d="M380.357 129.402H372.832V136.937H380.357V129.402Z" fill="#E7EFF7"/>
<path opacity="0.2" d="M405.334 129.402H397.809V136.937H405.334V129.402Z" fill="#E7EFF7"/>
<path opacity="0.2" d="M417.822 129.402H410.297V136.937H417.822V129.402Z" fill="#E7EFF7"/>
<path opacity="0.2" d="M218.003 116.936H210.479V124.47H218.003V116.936Z" fill="#E7EFF7"/>
<path opacity="0.2" d="M292.935 116.936H285.41V124.47H292.935V116.936Z" fill="#E7EFF7"/>
<path opacity="0.2" d="M317.912 116.936H310.387V124.47H317.912V116.936Z" fill="#E7EFF7"/>
<path opacity="0.2" d="M330.402 116.936H322.877V124.47H330.402V116.936Z" fill="#E7EFF7"/>
<path opacity="0.2" d="M367.867 116.936H360.342V124.47H367.867V116.936Z" fill="#E7EFF7"/>
<path opacity="0.2" d="M405.334 116.936H397.809V124.47H405.334V116.936Z" fill="#E7EFF7"/>
<path opacity="0.2" d="M417.822 116.936H410.297V124.47H417.822V116.936Z" fill="#E7EFF7"/>
<path opacity="0.1" d="M255.47 104.469H247.945V112.003H255.47V104.469Z" fill="#E7EFF7"/>
<path opacity="0.2" d="M267.959 104.469H260.434V112.003H267.959V104.469Z" fill="#E7EFF7"/>
<path opacity="0.2" d="M280.447 104.469H272.922V112.003H280.447V104.469Z" fill="#E7EFF7"/>
<path opacity="0.2" d="M317.912 104.469H310.387V112.003H317.912V104.469Z" fill="#E7EFF7"/>
<path opacity="0.2" d="M367.869 104.469H360.344V112.003H367.869V104.469Z" fill="#E7EFF7"/>
<path opacity="0.2" d="M380.357 104.469H372.832V112.003H380.357V104.469Z" fill="#E7EFF7"/>
<path opacity="0.2" d="M267.959 92.0039H260.434V99.5384H267.959V92.0039Z" fill="#E7EFF7"/>
<path opacity="0.2" d="M330.402 92.0039H322.877V99.5384H330.402V92.0039Z" fill="#E7EFF7"/>
<path opacity="0.2" d="M380.357 92.0039H372.832V99.5384H380.357V92.0039Z" fill="#E7EFF7"/>
<path opacity="0.2" d="M405.334 92.002H397.809V99.5364H405.334V92.002Z" fill="#E7EFF7"/>
<path opacity="0.15" d="M417.822 79.5352H410.297V87.0696H417.822V79.5352Z" fill="#E7EFF7"/>
<path opacity="0.15" d="M342.89 67.0703H335.365V74.6048H342.89V67.0703Z" fill="#E7EFF7"/>
<path opacity="0.15" d="M355.378 67.0703H347.854V74.6048H355.378V67.0703Z" fill="#E7EFF7"/>
<path opacity="0.05" d="M367.869 67.0703H360.344V74.6048H367.869V67.0703Z" fill="#E7EFF7"/>
<path opacity="0.1" d="M405.334 67.0703H397.809V74.6048H405.334V67.0703Z" fill="#E7EFF7"/>
<path opacity="0.05" d="M305.423 54.6035H297.898V62.138H305.423V54.6035Z" fill="#E7EFF7"/>
<path opacity="0.05" d="M317.912 54.6035H310.387V62.138H317.912V54.6035Z" fill="#E7EFF7"/>
<path opacity="0.05" d="M355.378 54.6035H347.854V62.138H355.378V54.6035Z" fill="#E7EFF7"/>
<path opacity="0.15" d="M380.357 54.6035H372.832V62.138H380.357V54.6035Z" fill="#E7EFF7"/>
<path opacity="0.05" d="M417.822 54.6035H410.297V62.138H417.822V54.6035Z" fill="#E7EFF7"/>
<path opacity="0.05" d="M405.334 42.1309H397.809V49.6653H405.334V42.1309Z" fill="#E7EFF7"/>
<path opacity="0.05" d="M355.378 29.6641H347.854V37.1985H355.378V29.6641Z" fill="#E7EFF7"/>
<path opacity="0.05" d="M367.869 4.73047H360.344V12.2649H367.869V4.73047Z" fill="#E7EFF7"/>
</svg>
