<svg width="56" height="56" viewBox="0 0 56 56" fill="none" xmlns="http://www.w3.org/2000/svg">
<rect width="56" height="56" rx="28" fill="#1EA9FF"/>
<path d="M27.706 19.0365C23.3832 19.4362 19.9986 23.0728 19.9986 27.5C19.9986 28.45 20.1545 29.3636 20.442 30.2166C20.5502 30.5376 20.6043 30.6981 20.6141 30.8214C20.6237 30.9432 20.6164 31.0286 20.5863 31.1469C20.5558 31.2668 20.4884 31.3915 20.3537 31.6408L18.7181 34.6684C18.4848 35.1002 18.3681 35.3161 18.3942 35.4828C18.417 35.6279 18.5024 35.7557 18.6278 35.8322C18.7718 35.9201 19.0159 35.8948 19.5042 35.8444L24.6252 35.315C24.7802 35.299 24.8578 35.291 24.9285 35.2937C24.998 35.2963 25.0471 35.3029 25.1149 35.3185C25.1838 35.3344 25.2705 35.3678 25.4438 35.4345C26.3919 35.7998 27.4219 36 28.4986 36C32.9294 36 36.5684 32.6098 36.9632 28.2819M36.12 19.8787C37.2915 21.0503 37.2915 22.9497 36.12 24.1213C34.9484 25.2929 33.0489 25.2929 31.8773 24.1213C30.7058 22.9497 30.7058 21.0503 31.8773 19.8787C33.0489 18.7071 34.9484 18.7071 36.12 19.8787Z" stroke="white" stroke-width="1.5" stroke-linecap="round" stroke-linejoin="round"/>
</svg>
