<svg width="56" height="56" viewBox="0 0 56 56" fill="none" xmlns="http://www.w3.org/2000/svg">
<rect width="56" height="56" rx="28" fill="#1EA9FF"/>
<path d="M38 33V29C38 23.4772 33.5228 19 28 19C22.4772 19 18 23.4772 18 29V33M23.5 37C22.1193 37 21 35.8807 21 34.5V31.5C21 30.1193 22.1193 29 23.5 29C24.8807 29 26 30.1193 26 31.5V34.5C26 35.8807 24.8807 37 23.5 37ZM32.5 37C31.1193 37 30 35.8807 30 34.5V31.5C30 30.1193 31.1193 29 32.5 29C33.8807 29 35 30.1193 35 31.5V34.5C35 35.8807 33.8807 37 32.5 37Z" stroke="white" stroke-width="1.5" stroke-linecap="round" stroke-linejoin="round"/>
</svg>
