<svg width="56" height="56" viewBox="0 0 56 56" fill="none" xmlns="http://www.w3.org/2000/svg">
<rect width="56" height="56" rx="28" fill="#1EA9FF"/>
<path d="M30 38H22.8M22.8 38C21.1198 38 20.2798 38 19.638 37.673C19.0735 37.3854 18.6146 36.9265 18.327 36.362C18 35.7202 18 34.8802 18 33.2M22.8 38H23.2C24.8802 38 25.7202 38 26.362 37.673C26.9265 37.3854 27.3854 36.9265 27.673 36.362C28 35.7202 28 34.8802 28 33.2V32.8C28 31.1198 28 30.2798 27.673 29.638C27.3854 29.0735 26.9265 28.6146 26.362 28.327C25.7202 28 24.8802 28 23.2 28H22.8C21.1198 28 20.2798 28 19.638 28.327C19.0735 28.6146 18.6146 29.0735 18.327 29.638C18 30.2798 18 31.1198 18 32.8V33.2M18 33.2V26M26 18H30M38 26V30M34 38C34.93 38 35.395 38 35.7765 37.8978C36.8117 37.6204 37.6204 36.8117 37.8978 35.7765C38 35.395 38 34.93 38 34M38 22C38 21.07 38 20.605 37.8978 20.2235C37.6204 19.1883 36.8117 18.3796 35.7765 18.1022C35.395 18 34.93 18 34 18M22 18C21.07 18 20.605 18 20.2235 18.1022C19.1883 18.3796 18.3796 19.1883 18.1022 20.2235C18 20.605 18 21.07 18 22" stroke="white" stroke-width="1.5" stroke-linecap="round" stroke-linejoin="round"/>
</svg>
