<svg width="56" height="56" viewBox="0 0 56 56" fill="none" xmlns="http://www.w3.org/2000/svg">
<rect width="56" height="56" rx="28" fill="#1EA9FF"/>
<path d="M18 28.05C20.0308 28.2759 21.9243 29.186 23.3691 30.6309C24.814 32.0757 25.7241 33.9692 25.95 36M18 32.1C18.9609 32.296 19.8429 32.7702 20.5364 33.4636C21.2298 34.157 21.704 35.0391 21.9 36M18 36H18.01M30 37H33.2C34.8802 37 35.7202 37 36.362 36.673C36.9265 36.3854 37.3854 35.9265 37.673 35.362C38 34.7202 38 33.8802 38 32.2V23.8C38 22.1198 38 21.2798 37.673 20.638C37.3854 20.0735 36.9265 19.6146 36.362 19.327C35.7202 19 34.8802 19 33.2 19H22.8C21.1198 19 20.2798 19 19.638 19.327C19.0735 19.6146 18.6146 20.0735 18.327 20.638C18 21.2798 18 22.1198 18 23.8V24" stroke="white" stroke-width="1.5" stroke-linecap="round" stroke-linejoin="round"/>
</svg>
