<svg width="1440" height="1190" viewBox="0 0 1440 1190" fill="none" xmlns="http://www.w3.org/2000/svg">
<g clip-path="url(#clip0_34887_110692)">
<mask id="mask0_34887_110692" style="mask-type:luminance" maskUnits="userSpaceOnUse" x="-1287" y="-1536" width="3726" height="2727">
<path d="M-1286.02 1190.26L2438.98 1190.26L2438.98 -1536L-1286.02 -1536L-1286.02 1190.26Z" fill="white"/>
</mask>
<g mask="url(#mask0_34887_110692)">
<path opacity="0.65" d="M39.7894 1158.3H15.2871V1182.81H39.7894V1158.3Z" fill="white" fill-opacity="0.2"/>
<path opacity="0.65" d="M80.4553 1158.3H55.9531V1182.81H80.4553V1158.3Z" fill="white" fill-opacity="0.2"/>
<path opacity="0.65" d="M243.135 1158.3H218.633V1182.81H243.135V1158.3Z" fill="white" fill-opacity="0.2"/>
<path opacity="0.65" d="M283.797 1158.3H259.295V1182.81H283.797V1158.3Z" fill="white" fill-opacity="0.2"/>
<path opacity="0.65" d="M324.461 1158.3H299.959V1182.81H324.461V1158.3Z" fill="white" fill-opacity="0.2"/>
<path opacity="0.65" d="M365.127 1158.3H340.625V1182.81H365.127V1158.3Z" fill="white" fill-opacity="0.2"/>
<path opacity="0.65" d="M405.791 1158.3H381.289V1182.81H405.791V1158.3Z" fill="white" fill-opacity="0.2"/>
<path opacity="0.65" d="M446.457 1158.3H421.955V1182.81H446.457V1158.3Z" fill="white" fill-opacity="0.2"/>
<path opacity="0.65" d="M487.121 1158.3H462.619V1182.81H487.121V1158.3Z" fill="white" fill-opacity="0.2"/>
<path opacity="0.65" d="M39.7894 1117.73H15.2871V1142.25H39.7894V1117.73Z" fill="white" fill-opacity="0.2"/>
<path opacity="0.65" d="M243.135 1117.73H218.633V1142.25H243.135V1117.73Z" fill="white" fill-opacity="0.2"/>
<path opacity="0.65" d="M283.797 1117.73H259.295V1142.25H283.797V1117.73Z" fill="white" fill-opacity="0.2"/>
<path opacity="0.65" d="M324.461 1117.73H299.959V1142.25H324.461V1117.73Z" fill="white" fill-opacity="0.2"/>
<path opacity="0.65" d="M365.127 1117.73H340.625V1142.25H365.127V1117.73Z" fill="white" fill-opacity="0.2"/>
<path opacity="0.65" d="M487.121 1117.73H462.619V1142.25H487.121V1117.73Z" fill="white" fill-opacity="0.2"/>
<path opacity="0.5" d="M39.7894 1077.17H15.2871V1101.69H39.7894V1077.17Z" fill="white" fill-opacity="0.2"/>
<path opacity="0.5" d="M80.4553 1077.17H55.9531V1101.69H80.4553V1077.17Z" fill="white" fill-opacity="0.2"/>
<path opacity="0.5" d="M121.119 1077.17H96.6172V1101.69H121.119V1077.17Z" fill="white" fill-opacity="0.2"/>
<path opacity="0.5" d="M202.45 1077.17H177.947V1101.69H202.45V1077.17Z" fill="white" fill-opacity="0.2"/>
<path opacity="0.5" d="M243.135 1077.17H218.633V1101.69H243.135V1077.17Z" fill="white" fill-opacity="0.2"/>
<path opacity="0.5" d="M324.461 1077.17H299.959V1101.69H324.461V1077.17Z" fill="white" fill-opacity="0.2"/>
<path opacity="0.5" d="M365.127 1077.17H340.625V1101.69H365.127V1077.17Z" fill="white" fill-opacity="0.2"/>
<path opacity="0.5" d="M446.457 1077.17H421.955V1101.69H446.457V1077.17Z" fill="white" fill-opacity="0.2"/>
<path opacity="0.5" d="M568.451 1077.17H543.949V1101.69H568.451V1077.17Z" fill="white" fill-opacity="0.2"/>
<path opacity="0.5" d="M39.7894 1036.61H15.2871V1061.12H39.7894V1036.61Z" fill="white" fill-opacity="0.2"/>
<path opacity="0.5" d="M80.4553 1036.61H55.9531V1061.12H80.4553V1036.61Z" fill="white" fill-opacity="0.2"/>
<path opacity="0.5" d="M121.119 1036.61H96.6172V1061.12H121.119V1036.61Z" fill="white" fill-opacity="0.2"/>
<path opacity="0.5" d="M161.781 1036.61H137.279V1061.12H161.781V1036.61Z" fill="white" fill-opacity="0.2"/>
<path opacity="0.5" d="M243.135 1036.61H218.633V1061.12H243.135V1036.61Z" fill="white" fill-opacity="0.2"/>
<path opacity="0.5" d="M283.799 1036.61H259.297V1061.12H283.799V1036.61Z" fill="white" fill-opacity="0.2"/>
<path opacity="0.5" d="M324.461 1036.61H299.959V1061.12H324.461V1036.61Z" fill="white" fill-opacity="0.2"/>
<path opacity="0.5" d="M365.127 1036.61H340.625V1061.12H365.127V1036.61Z" fill="white" fill-opacity="0.2"/>
<path opacity="0.5" d="M446.457 1036.61H421.955V1061.12H446.457V1036.61Z" fill="white" fill-opacity="0.2"/>
<path opacity="0.5" d="M487.119 1036.61H462.617V1061.12H487.119V1036.61Z" fill="white" fill-opacity="0.2"/>
<path opacity="0.5" d="M527.784 1036.61H503.281V1061.12H527.784V1036.61Z" fill="white" fill-opacity="0.2"/>
<path opacity="0.5" d="M39.7894 996.044H15.2871V1020.56H39.7894V996.044Z" fill="white" fill-opacity="0.2"/>
<path opacity="0.5" d="M80.4553 996.044H55.9531V1020.56H80.4553V996.044Z" fill="white" fill-opacity="0.2"/>
<path opacity="0.5" d="M121.119 996.044H96.6172V1020.56H121.119V996.044Z" fill="white" fill-opacity="0.2"/>
<path opacity="0.5" d="M202.45 996.044H177.947V1020.56H202.45V996.044Z" fill="white" fill-opacity="0.2"/>
<path opacity="0.5" d="M283.797 996.044H259.295V1020.56H283.797V996.044Z" fill="white" fill-opacity="0.2"/>
<path opacity="0.5" d="M324.461 996.044H299.959V1020.56H324.461V996.044Z" fill="white" fill-opacity="0.2"/>
<path opacity="0.5" d="M405.791 996.044H381.289V1020.56H405.791V996.044Z" fill="white" fill-opacity="0.2"/>
<path opacity="0.5" d="M446.457 996.044H421.955V1020.56H446.457V996.044Z" fill="white" fill-opacity="0.2"/>
<path opacity="0.5" d="M487.121 996.044H462.619V1020.56H487.121V996.044Z" fill="white" fill-opacity="0.2"/>
<path opacity="0.5" d="M527.784 996.044H503.281V1020.56H527.784V996.044Z" fill="white" fill-opacity="0.2"/>
<path opacity="0.5" d="M568.451 996.044H543.949V1020.56H568.451V996.044Z" fill="white" fill-opacity="0.2"/>
<path opacity="0.45" d="M39.7894 955.441H15.2871V979.957H39.7894V955.441Z" fill="white" fill-opacity="0.2"/>
<path opacity="0.45" d="M121.119 955.461H96.6172V979.977H121.119V955.461Z" fill="white" fill-opacity="0.2"/>
<path opacity="0.45" d="M161.781 955.46H137.279V979.976H161.781V955.46Z" fill="white" fill-opacity="0.2"/>
<path opacity="0.45" d="M202.45 955.46H177.947V979.976H202.45V955.46Z" fill="white" fill-opacity="0.2"/>
<path opacity="0.45" d="M243.112 955.461H218.609V979.977H243.112V955.461Z" fill="white" fill-opacity="0.2"/>
<path opacity="0.45" d="M283.779 955.46H259.277V979.976H283.779V955.46Z" fill="white" fill-opacity="0.2"/>
<path opacity="0.45" d="M324.442 955.46H299.939V979.976H324.442V955.46Z" fill="white" fill-opacity="0.2"/>
<path opacity="0.45" d="M405.791 955.482H381.289V979.998H405.791V955.482Z" fill="white" fill-opacity="0.2"/>
<path opacity="0.45" d="M446.457 955.482H421.955V979.998H446.457V955.482Z" fill="white" fill-opacity="0.2"/>
<path opacity="0.45" d="M568.451 955.482H543.949V979.998H568.451V955.482Z" fill="white" fill-opacity="0.2"/>
<path opacity="0.4" d="M80.4553 914.877H55.9531V939.393H80.4553V914.877Z" fill="white" fill-opacity="0.2"/>
<path opacity="0.4" d="M121.119 914.898H96.6172V939.414H121.119V914.898Z" fill="white" fill-opacity="0.2"/>
<path opacity="0.4" d="M161.783 914.898H137.281V939.414H161.783V914.898Z" fill="white" fill-opacity="0.2"/>
<path opacity="0.4" d="M202.448 914.898H177.945V939.414H202.448V914.898Z" fill="white" fill-opacity="0.2"/>
<path opacity="0.4" d="M243.135 914.898H218.633V939.414H243.135V914.898Z" fill="white" fill-opacity="0.2"/>
<path opacity="0.4" d="M283.799 914.898H259.297V939.414H283.799V914.898Z" fill="white" fill-opacity="0.2"/>
<path opacity="0.4" d="M405.791 914.898H381.289V939.414H405.791V914.898Z" fill="white" fill-opacity="0.2"/>
<path opacity="0.4" d="M446.457 914.918H421.955V939.434H446.457V914.918Z" fill="white" fill-opacity="0.2"/>
<path opacity="0.4" d="M487.121 914.918H462.619V939.434H487.121V914.918Z" fill="white" fill-opacity="0.2"/>
<path opacity="0.4" d="M527.784 914.918H503.281V939.434H527.784V914.918Z" fill="white" fill-opacity="0.2"/>
<path opacity="0.4" d="M568.449 914.918H543.947V939.434H568.449V914.918Z" fill="white" fill-opacity="0.2"/>
<path opacity="0.4" d="M39.7894 874.312H15.2871V898.827H39.7894V874.312Z" fill="white" fill-opacity="0.2"/>
<path opacity="0.4" d="M80.4749 874.312H55.9727V898.827H80.4749V874.312Z" fill="white" fill-opacity="0.2"/>
<path opacity="0.4" d="M161.805 874.334H137.303V898.85H161.805V874.334Z" fill="white" fill-opacity="0.2"/>
<path opacity="0.4" d="M243.135 874.334H218.633V898.85H243.135V874.334Z" fill="white" fill-opacity="0.2"/>
<path opacity="0.4" d="M324.461 874.334H299.959V898.85H324.461V874.334Z" fill="white" fill-opacity="0.2"/>
<path opacity="0.4" d="M365.127 874.334H340.625V898.85H365.127V874.334Z" fill="white" fill-opacity="0.2"/>
<path opacity="0.4" d="M446.457 874.354H421.955V898.869H446.457V874.354Z" fill="white" fill-opacity="0.2"/>
<path opacity="0.4" d="M527.784 874.354H503.281V898.869H527.784V874.354Z" fill="white" fill-opacity="0.2"/>
<path opacity="0.4" d="M568.451 874.354H543.949V898.869H568.451V874.354Z" fill="white" fill-opacity="0.2"/>
<path opacity="0.3" d="M39.7894 833.791H15.2871V858.307H39.7894V833.791Z" fill="white" fill-opacity="0.2"/>
<path opacity="0.3" d="M80.4553 833.792H55.9531V858.308H80.4553V833.792Z" fill="white" fill-opacity="0.2"/>
<path opacity="0.3" d="M161.781 833.792H137.279V858.308H161.781V833.792Z" fill="white" fill-opacity="0.2"/>
<path opacity="0.3" d="M243.135 833.792H218.633V858.308H243.135V833.792Z" fill="white" fill-opacity="0.2"/>
<path opacity="0.3" d="M283.797 833.791H259.295V858.307H283.797V833.791Z" fill="white" fill-opacity="0.2"/>
<path opacity="0.3" d="M446.457 833.792H421.955V858.308H446.457V833.792Z" fill="white" fill-opacity="0.2"/>
<path opacity="0.3" d="M80.4553 793.228H55.9531V817.743H80.4553V793.228Z" fill="white" fill-opacity="0.2"/>
<path opacity="0.3" d="M527.784 793.228H503.281V817.743H527.784V793.228Z" fill="white" fill-opacity="0.2"/>
<path opacity="0.3" d="M568.449 793.228H543.947V817.743H568.449V793.228Z" fill="white" fill-opacity="0.2"/>
<path opacity="0.25" d="M39.7894 752.666H15.2871V777.182H39.7894V752.666Z" fill="white" fill-opacity="0.2"/>
<path opacity="0.25" d="M80.4553 752.666H55.9531V777.182H80.4553V752.666Z" fill="white" fill-opacity="0.2"/>
<path opacity="0.25" d="M161.781 752.666H137.279V777.182H161.781V752.666Z" fill="white" fill-opacity="0.2"/>
<path opacity="0.25" d="M202.45 752.666H177.947V777.182H202.45V752.666Z" fill="white" fill-opacity="0.2"/>
<path opacity="0.25" d="M365.127 752.666H340.625V777.182H365.127V752.666Z" fill="white" fill-opacity="0.2"/>
<path opacity="0.25" d="M568.451 752.666H543.949V777.182H568.451V752.666Z" fill="white" fill-opacity="0.2"/>
<path opacity="0.25" d="M39.7894 712.102H15.2871V736.617H39.7894V712.102Z" fill="white" fill-opacity="0.2"/>
<path opacity="0.25" d="M161.783 712.102H137.281V736.617H161.783V712.102Z" fill="white" fill-opacity="0.2"/>
<path opacity="0.25" d="M243.135 712.102H218.633V736.617H243.135V712.102Z" fill="white" fill-opacity="0.2"/>
<path opacity="0.25" d="M405.791 712.102H381.289V736.617H405.791V712.102Z" fill="white" fill-opacity="0.2"/>
<path opacity="0.25" d="M527.784 712.102H503.281V736.617H527.784V712.102Z" fill="white" fill-opacity="0.2"/>
<path opacity="0.25" d="M80.4553 671.537H55.9531V696.053H80.4553V671.537Z" fill="white" fill-opacity="0.2"/>
<path opacity="0.25" d="M243.135 671.537H218.633V696.053H243.135V671.537Z" fill="white" fill-opacity="0.2"/>
<path opacity="0.25" d="M405.791 671.537H381.289V696.053H405.791V671.537Z" fill="white" fill-opacity="0.2"/>
<path opacity="0.2" d="M39.7894 630.976H15.2871V655.491H39.7894V630.976Z" fill="white" fill-opacity="0.2"/>
<path opacity="0.2" d="M161.781 630.976H137.279V655.491H161.781V630.976Z" fill="white" fill-opacity="0.2"/>
<path opacity="0.2" d="M202.45 630.976H177.947V655.491H202.45V630.976Z" fill="white" fill-opacity="0.2"/>
<path opacity="0.2" d="M365.127 630.976H340.625V655.491H365.127V630.976Z" fill="white" fill-opacity="0.2"/>
<path opacity="0.2" d="M405.791 630.976H381.289V655.491H405.791V630.976Z" fill="white" fill-opacity="0.2"/>
<path opacity="0.2" d="M446.457 630.976H421.955V655.491H446.457V630.976Z" fill="white" fill-opacity="0.2"/>
<path opacity="0.2" d="M487.121 630.976H462.619V655.491H487.121V630.976Z" fill="white" fill-opacity="0.2"/>
<path opacity="0.2" d="M39.7894 590.411H15.2871V614.927H39.7894V590.411Z" fill="white" fill-opacity="0.2"/>
<path opacity="0.2" d="M80.4553 590.411H55.9531V614.927H80.4553V590.411Z" fill="white" fill-opacity="0.2"/>
<path opacity="0.2" d="M487.121 590.411H462.619V614.927H487.121V590.411Z" fill="white" fill-opacity="0.2"/>
<path opacity="0.1" d="M527.784 590.411H503.281V614.927H527.784V590.411Z" fill="white" fill-opacity="0.2"/>
<path opacity="0.2" d="M80.4553 549.847H55.9531V574.362H80.4553V549.847Z" fill="white" fill-opacity="0.2"/>
<path opacity="0.2" d="M121.119 549.847H96.6172V574.362H121.119V549.847Z" fill="white" fill-opacity="0.2"/>
<path opacity="0.2" d="M202.448 549.847H177.945V574.362H202.448V549.847Z" fill="white" fill-opacity="0.2"/>
<path opacity="0.1" d="M243.135 549.847H218.633V574.362H243.135V549.847Z" fill="white" fill-opacity="0.2"/>
<path opacity="0.1" d="M365.127 549.847H340.625V574.362H365.127V549.847Z" fill="white" fill-opacity="0.2"/>
<path opacity="0.2" d="M446.457 549.847H421.955V574.362H446.457V549.847Z" fill="white" fill-opacity="0.2"/>
<path opacity="0.1" d="M527.784 549.847H503.281V574.362H527.784V549.847Z" fill="white" fill-opacity="0.2"/>
<path opacity="0.2" d="M161.783 509.285H137.281V533.801H161.783V509.285Z" fill="white" fill-opacity="0.2"/>
<path opacity="0.1" d="M446.457 509.285H421.955V533.801H446.457V509.285Z" fill="white" fill-opacity="0.2"/>
<path opacity="0.15" d="M121.119 468.721H96.6172V493.236H121.119V468.721Z" fill="white" fill-opacity="0.2"/>
<path opacity="0.05" d="M487.119 468.721H462.617V493.236H487.119V468.721Z" fill="white" fill-opacity="0.2"/>
<path opacity="0.15" d="M80.4553 428.159H55.9531V452.675H80.4553V428.159Z" fill="white" fill-opacity="0.2"/>
<path opacity="0.15" d="M202.45 428.159H177.947V452.675H202.45V428.159Z" fill="white" fill-opacity="0.2"/>
<path opacity="0.1" d="M243.135 428.159H218.633V452.675H243.135V428.159Z" fill="white" fill-opacity="0.2"/>
<path opacity="0.15" d="M39.7894 387.595H15.2871V412.11H39.7894V387.595Z" fill="white" fill-opacity="0.2"/>
<path opacity="0.05" d="M202.448 387.595H177.945V412.11H202.448V387.595Z" fill="white" fill-opacity="0.2"/>
<path opacity="0.15" d="M39.7894 347.011H15.2871V371.526H39.7894V347.011Z" fill="white" fill-opacity="0.2"/>
<path opacity="0.65" d="M609.072 1158.3H584.57V1182.81H609.072V1158.3Z" fill="white" fill-opacity="0.2"/>
<path opacity="0.65" d="M731.067 1158.3H706.564V1182.81H731.067V1158.3Z" fill="white" fill-opacity="0.2"/>
<path opacity="0.65" d="M771.733 1158.3H747.23V1182.81H771.733V1158.3Z" fill="white" fill-opacity="0.2"/>
<path opacity="0.65" d="M812.395 1158.3H787.893V1182.81H812.395V1158.3Z" fill="white" fill-opacity="0.2"/>
<path opacity="0.65" d="M893.725 1158.3H869.223V1182.81H893.725V1158.3Z" fill="white" fill-opacity="0.2"/>
<path opacity="0.65" d="M934.389 1158.3H909.887V1182.81H934.389V1158.3Z" fill="white" fill-opacity="0.2"/>
<path opacity="0.65" d="M1056.38 1158.3H1031.88V1182.81H1056.38V1158.3Z" fill="white" fill-opacity="0.2"/>
<path opacity="0.65" d="M1259.71 1158.3H1235.2V1182.81H1259.71V1158.3Z" fill="white" fill-opacity="0.2"/>
<path opacity="0.65" d="M1422.37 1158.3H1397.86V1182.81H1422.37V1158.3Z" fill="white" fill-opacity="0.2"/>
<path opacity="0.65" d="M1463.03 1158.3H1438.53V1182.81H1463.03V1158.3Z" fill="white" fill-opacity="0.2"/>
<path opacity="0.65" d="M609.072 1117.73H584.57V1142.25H609.072V1117.73Z" fill="white" fill-opacity="0.2"/>
<path opacity="0.65" d="M649.737 1117.73H625.234V1142.25H649.737V1117.73Z" fill="white" fill-opacity="0.2"/>
<path opacity="0.65" d="M731.067 1117.73H706.564V1142.25H731.067V1117.73Z" fill="white" fill-opacity="0.2"/>
<path opacity="0.65" d="M771.733 1117.73H747.23V1142.25H771.733V1117.73Z" fill="white" fill-opacity="0.2"/>
<path opacity="0.65" d="M812.397 1117.73H787.895V1142.25H812.397V1117.73Z" fill="white" fill-opacity="0.2"/>
<path opacity="0.65" d="M853.059 1117.73H828.557V1142.25H853.059V1117.73Z" fill="white" fill-opacity="0.2"/>
<path opacity="0.65" d="M934.389 1117.73H909.887V1142.25H934.389V1117.73Z" fill="white" fill-opacity="0.2"/>
<path opacity="0.65" d="M975.055 1117.73H950.553V1142.25H975.055V1117.73Z" fill="white" fill-opacity="0.2"/>
<path opacity="0.65" d="M1097.05 1117.73H1072.55V1142.25H1097.05V1117.73Z" fill="white" fill-opacity="0.2"/>
<path opacity="0.65" d="M1137.71 1117.73H1113.21V1142.25H1137.71V1117.73Z" fill="white" fill-opacity="0.2"/>
<path opacity="0.65" d="M1219.04 1117.73H1194.54V1142.25H1219.04V1117.73Z" fill="white" fill-opacity="0.2"/>
<path opacity="0.65" d="M1259.71 1117.73H1235.2V1142.25H1259.71V1117.73Z" fill="white" fill-opacity="0.2"/>
<path opacity="0.65" d="M1422.37 1117.73H1397.86V1142.25H1422.37V1117.73Z" fill="white" fill-opacity="0.2"/>
<path opacity="0.5" d="M609.072 1077.17H584.57V1101.69H609.072V1077.17Z" fill="white" fill-opacity="0.2"/>
<path opacity="0.5" d="M649.737 1077.17H625.234V1101.69H649.737V1077.17Z" fill="white" fill-opacity="0.2"/>
<path opacity="0.5" d="M690.403 1077.17H665.9V1101.69H690.403V1077.17Z" fill="white" fill-opacity="0.2"/>
<path opacity="0.5" d="M771.733 1077.17H747.23V1101.69H771.733V1077.17Z" fill="white" fill-opacity="0.2"/>
<path opacity="0.5" d="M812.395 1077.17H787.893V1101.69H812.395V1077.17Z" fill="white" fill-opacity="0.2"/>
<path opacity="0.5" d="M853.059 1077.17H828.557V1101.69H853.059V1077.17Z" fill="white" fill-opacity="0.2"/>
<path opacity="0.5" d="M934.389 1077.17H909.887V1101.69H934.389V1077.17Z" fill="white" fill-opacity="0.2"/>
<path opacity="0.5" d="M1137.71 1077.17H1113.21V1101.69H1137.71V1077.17Z" fill="white" fill-opacity="0.2"/>
<path opacity="0.5" d="M1300.37 1077.17H1275.87V1101.69H1300.37V1077.17Z" fill="white" fill-opacity="0.2"/>
<path opacity="0.5" d="M1422.37 1077.17H1397.86V1101.69H1422.37V1077.17Z" fill="white" fill-opacity="0.2"/>
<path opacity="0.5" d="M649.737 1036.61H625.234V1061.12H649.737V1036.61Z" fill="white" fill-opacity="0.2"/>
<path opacity="0.5" d="M771.733 1036.61H747.23V1061.12H771.733V1036.61Z" fill="white" fill-opacity="0.2"/>
<path opacity="0.5" d="M812.397 1036.61H787.895V1061.12H812.397V1036.61Z" fill="white" fill-opacity="0.2"/>
<path opacity="0.5" d="M853.059 1036.61H828.557V1061.12H853.059V1036.61Z" fill="white" fill-opacity="0.2"/>
<path opacity="0.5" d="M934.389 1036.61H909.887V1061.12H934.389V1036.61Z" fill="white" fill-opacity="0.2"/>
<path opacity="0.5" d="M975.055 1036.61H950.553V1061.12H975.055V1036.61Z" fill="white" fill-opacity="0.2"/>
<path opacity="0.5" d="M1097.05 1036.61H1072.55V1061.12H1097.05V1036.61Z" fill="white" fill-opacity="0.2"/>
<path opacity="0.5" d="M1137.71 1036.61H1113.21V1061.12H1137.71V1036.61Z" fill="white" fill-opacity="0.2"/>
<path opacity="0.5" d="M1219.04 1036.61H1194.54V1061.12H1219.04V1036.61Z" fill="white" fill-opacity="0.2"/>
<path opacity="0.5" d="M1259.71 1036.61H1235.2V1061.12H1259.71V1036.61Z" fill="white" fill-opacity="0.2"/>
<path opacity="0.5" d="M1300.37 1036.61H1275.87V1061.12H1300.37V1036.61Z" fill="white" fill-opacity="0.2"/>
<path opacity="0.5" d="M1381.7 1036.61H1357.2V1061.12H1381.7V1036.61Z" fill="white" fill-opacity="0.2"/>
<path opacity="0.5" d="M609.072 996.044H584.57V1020.56H609.072V996.044Z" fill="white" fill-opacity="0.2"/>
<path opacity="0.5" d="M649.737 996.044H625.234V1020.56H649.737V996.044Z" fill="white" fill-opacity="0.2"/>
<path opacity="0.5" d="M812.395 996.044H787.893V1020.56H812.395V996.044Z" fill="white" fill-opacity="0.2"/>
<path opacity="0.5" d="M934.389 996.044H909.887V1020.56H934.389V996.044Z" fill="white" fill-opacity="0.2"/>
<path opacity="0.5" d="M975.055 996.044H950.553V1020.56H975.055V996.044Z" fill="white" fill-opacity="0.2"/>
<path opacity="0.5" d="M1097.05 996.044H1072.55V1020.56H1097.05V996.044Z" fill="white" fill-opacity="0.2"/>
<path opacity="0.5" d="M1219.04 996.044H1194.54V1020.56H1219.04V996.044Z" fill="white" fill-opacity="0.2"/>
<path opacity="0.5" d="M1300.37 996.044H1275.87V1020.56H1300.37V996.044Z" fill="white" fill-opacity="0.2"/>
<path opacity="0.5" d="M1341.04 996.044H1316.53V1020.56H1341.04V996.044Z" fill="white" fill-opacity="0.2"/>
<path opacity="0.5" d="M1381.7 996.044H1357.2V1020.56H1381.7V996.044Z" fill="white" fill-opacity="0.2"/>
<path opacity="0.5" d="M1422.37 996.044H1397.86V1020.56H1422.37V996.044Z" fill="white" fill-opacity="0.2"/>
<path opacity="0.5" d="M1463.03 996.044H1438.53V1020.56H1463.03V996.044Z" fill="white" fill-opacity="0.2"/>
<path opacity="0.45" d="M771.733 955.501H747.23V980.017H771.733V955.501Z" fill="white" fill-opacity="0.2"/>
<path opacity="0.45" d="M812.397 955.502H787.895V980.018H812.397V955.502Z" fill="white" fill-opacity="0.2"/>
<path opacity="0.45" d="M934.389 955.501H909.887V980.017H934.389V955.501Z" fill="white" fill-opacity="0.2"/>
<path opacity="0.45" d="M1056.38 955.523H1031.88V980.039H1056.38V955.523Z" fill="white" fill-opacity="0.2"/>
<path opacity="0.45" d="M1097.05 955.523H1072.55V980.039H1097.05V955.523Z" fill="white" fill-opacity="0.2"/>
<path opacity="0.45" d="M1137.71 955.523H1113.21V980.039H1137.71V955.523Z" fill="white" fill-opacity="0.2"/>
<path opacity="0.45" d="M1219.04 955.523H1194.54V980.039H1219.04V955.523Z" fill="white" fill-opacity="0.2"/>
<path opacity="0.45" d="M1341.04 955.542H1316.53V980.058H1341.04V955.542Z" fill="white" fill-opacity="0.2"/>
<path opacity="0.45" d="M1422.37 955.543H1397.86V980.059H1422.37V955.543Z" fill="white" fill-opacity="0.2"/>
<path opacity="0.45" d="M1463.03 955.542H1438.53V980.058H1463.03V955.542Z" fill="white" fill-opacity="0.2"/>
<path opacity="0.4" d="M609.072 914.918H584.57V939.434H609.072V914.918Z" fill="white" fill-opacity="0.2"/>
<path opacity="0.4" d="M649.737 914.918H625.234V939.434H649.737V914.918Z" fill="white" fill-opacity="0.2"/>
<path opacity="0.4" d="M771.733 914.94H747.23V939.456H771.733V914.94Z" fill="white" fill-opacity="0.2"/>
<path opacity="0.4" d="M812.397 914.94H787.895V939.456H812.397V914.94Z" fill="white" fill-opacity="0.2"/>
<path opacity="0.4" d="M853.059 914.94H828.557V939.456H853.059V914.94Z" fill="white" fill-opacity="0.2"/>
<path opacity="0.4" d="M934.389 914.94H909.887V939.456H934.389V914.94Z" fill="white" fill-opacity="0.2"/>
<path opacity="0.4" d="M975.055 914.94H950.553V939.456H975.055V914.94Z" fill="white" fill-opacity="0.2"/>
<path opacity="0.4" d="M1137.71 914.959H1113.21V939.475H1137.71V914.959Z" fill="white" fill-opacity="0.2"/>
<path opacity="0.4" d="M1259.71 914.959H1235.2V939.475H1259.71V914.959Z" fill="white" fill-opacity="0.2"/>
<path opacity="0.4" d="M1300.37 914.979H1275.87V939.494H1300.37V914.979Z" fill="white" fill-opacity="0.2"/>
<path opacity="0.4" d="M609.072 874.354H584.57V898.869H609.072V874.354Z" fill="white" fill-opacity="0.2"/>
<path opacity="0.4" d="M690.403 874.354H665.9V898.869H690.403V874.354Z" fill="white" fill-opacity="0.2"/>
<path opacity="0.4" d="M771.733 874.375H747.23V898.891H771.733V874.375Z" fill="white" fill-opacity="0.2"/>
<path opacity="0.4" d="M853.059 874.375H828.557V898.891H853.059V874.375Z" fill="white" fill-opacity="0.2"/>
<path opacity="0.4" d="M934.389 874.375H909.887V898.891H934.389V874.375Z" fill="white" fill-opacity="0.2"/>
<path opacity="0.4" d="M975.055 874.375H950.553V898.891H975.055V874.375Z" fill="white" fill-opacity="0.2"/>
<path opacity="0.4" d="M1015.72 874.395H991.217V898.91H1015.72V874.395Z" fill="white" fill-opacity="0.2"/>
<path opacity="0.4" d="M1056.38 874.395H1031.88V898.91H1056.38V874.395Z" fill="white" fill-opacity="0.2"/>
<path opacity="0.4" d="M1097.05 874.395H1072.55V898.91H1097.05V874.395Z" fill="white" fill-opacity="0.2"/>
<path opacity="0.4" d="M1219.04 874.395H1194.54V898.91H1219.04V874.395Z" fill="white" fill-opacity="0.2"/>
<path opacity="0.4" d="M1259.71 874.395H1235.2V898.91H1259.71V874.395Z" fill="white" fill-opacity="0.2"/>
<path opacity="0.4" d="M1300.37 874.395H1275.87V898.91H1300.37V874.395Z" fill="white" fill-opacity="0.2"/>
<path opacity="0.4" d="M1341.04 874.417H1316.53V898.933H1341.04V874.417Z" fill="white" fill-opacity="0.2"/>
<path opacity="0.4" d="M1422.37 874.416H1397.86V898.932H1422.37V874.416Z" fill="white" fill-opacity="0.2"/>
<path opacity="0.4" d="M1463.05 874.416H1438.55V898.932H1463.05V874.416Z" fill="white" fill-opacity="0.2"/>
<path opacity="0.3" d="M609.072 833.791H584.57V858.307H609.072V833.791Z" fill="white" fill-opacity="0.2"/>
<path opacity="0.3" d="M731.067 833.792H706.564V858.308H731.067V833.792Z" fill="white" fill-opacity="0.2"/>
<path opacity="0.3" d="M771.733 833.792H747.23V858.308H771.733V833.792Z" fill="white" fill-opacity="0.2"/>
<path opacity="0.3" d="M853.059 833.792H828.557V858.308H853.059V833.792Z" fill="white" fill-opacity="0.2"/>
<path opacity="0.3" d="M1015.72 833.791H991.217V858.307H1015.72V833.791Z" fill="white" fill-opacity="0.2"/>
<path opacity="0.3" d="M1056.38 833.792H1031.88V858.308H1056.38V833.792Z" fill="white" fill-opacity="0.2"/>
<path opacity="0.3" d="M1137.71 833.792H1113.21V858.308H1137.71V833.792Z" fill="white" fill-opacity="0.2"/>
<path opacity="0.3" d="M1259.71 833.792H1235.2V858.308H1259.71V833.792Z" fill="white" fill-opacity="0.2"/>
<path opacity="0.3" d="M1341.04 833.792H1316.53V858.308H1341.04V833.792Z" fill="white" fill-opacity="0.2"/>
<path opacity="0.3" d="M1381.7 833.792H1357.2V858.308H1381.7V833.792Z" fill="white" fill-opacity="0.2"/>
<path opacity="0.3" d="M1422.37 833.791H1397.86V858.307H1422.37V833.791Z" fill="white" fill-opacity="0.2"/>
<path opacity="0.3" d="M690.403 793.228H665.9V817.743H690.403V793.228Z" fill="white" fill-opacity="0.2"/>
<path opacity="0.3" d="M771.733 793.228H747.23V817.743H771.733V793.228Z" fill="white" fill-opacity="0.2"/>
<path opacity="0.3" d="M812.397 793.228H787.895V817.743H812.397V793.228Z" fill="white" fill-opacity="0.2"/>
<path opacity="0.3" d="M853.059 793.228H828.557V817.743H853.059V793.228Z" fill="white" fill-opacity="0.2"/>
<path opacity="0.3" d="M934.389 793.228H909.887V817.743H934.389V793.228Z" fill="white" fill-opacity="0.2"/>
<path opacity="0.3" d="M975.055 793.228H950.553V817.743H975.055V793.228Z" fill="white" fill-opacity="0.2"/>
<path opacity="0.3" d="M1015.72 793.228H991.217V817.743H1015.72V793.228Z" fill="white" fill-opacity="0.2"/>
<path opacity="0.3" d="M1056.38 793.228H1031.88V817.743H1056.38V793.228Z" fill="white" fill-opacity="0.2"/>
<path opacity="0.3" d="M1097.05 793.228H1072.55V817.743H1097.05V793.228Z" fill="white" fill-opacity="0.2"/>
<path opacity="0.3" d="M1219.04 793.228H1194.54V817.743H1219.04V793.228Z" fill="white" fill-opacity="0.2"/>
<path opacity="0.3" d="M1259.71 793.228H1235.2V817.743H1259.71V793.228Z" fill="white" fill-opacity="0.2"/>
<path opacity="0.3" d="M1300.37 793.228H1275.87V817.743H1300.37V793.228Z" fill="white" fill-opacity="0.2"/>
<path opacity="0.3" d="M1341.04 793.228H1316.53V817.743H1341.04V793.228Z" fill="white" fill-opacity="0.2"/>
<path opacity="0.3" d="M1422.37 793.228H1397.86V817.743H1422.37V793.228Z" fill="white" fill-opacity="0.2"/>
<path opacity="0.25" d="M609.072 752.666H584.57V777.182H609.072V752.666Z" fill="white" fill-opacity="0.2"/>
<path opacity="0.25" d="M690.403 752.666H665.9V777.182H690.403V752.666Z" fill="white" fill-opacity="0.2"/>
<path opacity="0.25" d="M731.067 752.666H706.564V777.182H731.067V752.666Z" fill="white" fill-opacity="0.2"/>
<path opacity="0.25" d="M771.733 752.666H747.23V777.182H771.733V752.666Z" fill="white" fill-opacity="0.2"/>
<path opacity="0.25" d="M812.395 752.666H787.893V777.182H812.395V752.666Z" fill="white" fill-opacity="0.2"/>
<path opacity="0.25" d="M893.725 752.666H869.223V777.182H893.725V752.666Z" fill="white" fill-opacity="0.2"/>
<path opacity="0.25" d="M1015.72 752.666H991.217V777.182H1015.72V752.666Z" fill="white" fill-opacity="0.2"/>
<path opacity="0.25" d="M1097.05 752.666H1072.55V777.182H1097.05V752.666Z" fill="white" fill-opacity="0.2"/>
<path opacity="0.25" d="M1137.71 752.666H1113.21V777.182H1137.71V752.666Z" fill="white" fill-opacity="0.2"/>
<path opacity="0.25" d="M1259.71 752.666H1235.2V777.182H1259.71V752.666Z" fill="white" fill-opacity="0.2"/>
<path opacity="0.25" d="M1300.37 752.666H1275.87V777.182H1300.37V752.666Z" fill="white" fill-opacity="0.2"/>
<path opacity="0.25" d="M1381.7 752.666H1357.2V777.182H1381.7V752.666Z" fill="white" fill-opacity="0.2"/>
<path opacity="0.25" d="M609.072 712.102H584.57V736.617H609.072V712.102Z" fill="white" fill-opacity="0.2"/>
<path opacity="0.25" d="M690.403 712.102H665.9V736.617H690.403V712.102Z" fill="white" fill-opacity="0.2"/>
<path opacity="0.25" d="M812.397 712.102H787.895V736.617H812.397V712.102Z" fill="white" fill-opacity="0.2"/>
<path opacity="0.25" d="M893.725 712.102H869.223V736.617H893.725V712.102Z" fill="white" fill-opacity="0.2"/>
<path opacity="0.25" d="M934.389 712.102H909.887V736.617H934.389V712.102Z" fill="white" fill-opacity="0.2"/>
<path opacity="0.25" d="M1056.38 712.102H1031.88V736.617H1056.38V712.102Z" fill="white" fill-opacity="0.2"/>
<path opacity="0.25" d="M1300.37 712.102H1275.87V736.617H1300.37V712.102Z" fill="white" fill-opacity="0.2"/>
<path opacity="0.25" d="M1341.04 712.102H1316.53V736.617H1341.04V712.102Z" fill="white" fill-opacity="0.2"/>
<path opacity="0.25" d="M1422.37 712.102H1397.86V736.617H1422.37V712.102Z" fill="white" fill-opacity="0.2"/>
<path opacity="0.25" d="M1463.03 712.102H1438.53V736.617H1463.03V712.102Z" fill="white" fill-opacity="0.2"/>
<path opacity="0.25" d="M609.072 671.537H584.57V696.053H609.072V671.537Z" fill="white" fill-opacity="0.2"/>
<path opacity="0.25" d="M731.065 671.537H706.562V696.053H731.065V671.537Z" fill="white" fill-opacity="0.2"/>
<path opacity="0.25" d="M771.733 671.537H747.23V696.053H771.733V671.537Z" fill="white" fill-opacity="0.2"/>
<path opacity="0.25" d="M1015.72 671.537H991.217V696.053H1015.72V671.537Z" fill="white" fill-opacity="0.2"/>
<path opacity="0.25" d="M1056.38 671.537H1031.88V696.053H1056.38V671.537Z" fill="white" fill-opacity="0.2"/>
<path opacity="0.25" d="M1097.05 671.537H1072.55V696.053H1097.05V671.537Z" fill="white" fill-opacity="0.2"/>
<path opacity="0.25" d="M1137.71 671.537H1113.21V696.053H1137.71V671.537Z" fill="white" fill-opacity="0.2"/>
<path opacity="0.25" d="M1259.71 671.537H1235.2V696.053H1259.71V671.537Z" fill="white" fill-opacity="0.2"/>
<path opacity="0.25" d="M1300.37 671.537H1275.87V696.053H1300.37V671.537Z" fill="white" fill-opacity="0.2"/>
<path opacity="0.25" d="M1381.7 671.537H1357.2V696.053H1381.7V671.537Z" fill="white" fill-opacity="0.2"/>
<path opacity="0.25" d="M1422.37 671.537H1397.86V696.053H1422.37V671.537Z" fill="white" fill-opacity="0.2"/>
<path opacity="0.2" d="M731.067 630.976H706.564V655.491H731.067V630.976Z" fill="white" fill-opacity="0.2"/>
<path opacity="0.2" d="M771.733 630.976H747.23V655.491H771.733V630.976Z" fill="white" fill-opacity="0.2"/>
<path opacity="0.2" d="M812.395 630.976H787.893V655.491H812.395V630.976Z" fill="white" fill-opacity="0.2"/>
<path opacity="0.2" d="M893.725 630.976H869.223V655.491H893.725V630.976Z" fill="white" fill-opacity="0.2"/>
<path opacity="0.2" d="M1015.72 630.976H991.217V655.491H1015.72V630.976Z" fill="white" fill-opacity="0.2"/>
<path opacity="0.2" d="M1137.71 630.976H1113.21V655.491H1137.71V630.976Z" fill="white" fill-opacity="0.2"/>
<path opacity="0.2" d="M1219.04 630.976H1194.54V655.491H1219.04V630.976Z" fill="white" fill-opacity="0.2"/>
<path opacity="0.2" d="M1259.71 630.976H1235.2V655.491H1259.71V630.976Z" fill="white" fill-opacity="0.2"/>
<path opacity="0.2" d="M1300.37 630.976H1275.87V655.491H1300.37V630.976Z" fill="white" fill-opacity="0.2"/>
<path opacity="0.2" d="M1381.7 630.976H1357.2V655.491H1381.7V630.976Z" fill="white" fill-opacity="0.2"/>
<path opacity="0.2" d="M609.072 590.411H584.57V614.927H609.072V590.411Z" fill="white" fill-opacity="0.2"/>
<path opacity="0.2" d="M853.059 590.411H828.557V614.927H853.059V590.411Z" fill="white" fill-opacity="0.2"/>
<path opacity="0.2" d="M934.389 590.411H909.887V614.927H934.389V590.411Z" fill="white" fill-opacity="0.2"/>
<path opacity="0.2" d="M975.055 590.411H950.553V614.927H975.055V590.411Z" fill="white" fill-opacity="0.2"/>
<path opacity="0.2" d="M1097.05 590.411H1072.55V614.927H1097.05V590.411Z" fill="white" fill-opacity="0.2"/>
<path opacity="0.2" d="M1219.04 590.411H1194.54V614.927H1219.04V590.411Z" fill="white" fill-opacity="0.2"/>
<path opacity="0.2" d="M1259.71 590.411H1235.2V614.927H1259.71V590.411Z" fill="white" fill-opacity="0.2"/>
<path opacity="0.2" d="M1341.04 590.411H1316.53V614.927H1341.04V590.411Z" fill="white" fill-opacity="0.2"/>
<path opacity="0.2" d="M1463.03 590.411H1438.53V614.927H1463.03V590.411Z" fill="white" fill-opacity="0.2"/>
<path opacity="0.1" d="M731.065 549.847H706.562V574.362H731.065V549.847Z" fill="white" fill-opacity="0.2"/>
<path opacity="0.2" d="M771.733 549.847H747.23V574.362H771.733V549.847Z" fill="white" fill-opacity="0.2"/>
<path opacity="0.2" d="M812.397 549.847H787.895V574.362H812.397V549.847Z" fill="white" fill-opacity="0.2"/>
<path opacity="0.2" d="M934.389 549.847H909.887V574.362H934.389V549.847Z" fill="white" fill-opacity="0.2"/>
<path opacity="0.2" d="M1097.05 549.847H1072.55V574.362H1097.05V549.847Z" fill="white" fill-opacity="0.2"/>
<path opacity="0.2" d="M1137.71 549.847H1113.21V574.362H1137.71V549.847Z" fill="white" fill-opacity="0.2"/>
<path opacity="0.2" d="M1300.37 549.847H1275.87V574.362H1300.37V549.847Z" fill="white" fill-opacity="0.2"/>
<path opacity="0.2" d="M1341.04 549.847H1316.53V574.362H1341.04V549.847Z" fill="white" fill-opacity="0.2"/>
<path opacity="0.2" d="M1422.37 549.847H1397.86V574.362H1422.37V549.847Z" fill="white" fill-opacity="0.2"/>
<path opacity="0.2" d="M771.733 509.285H747.23V533.801H771.733V509.285Z" fill="white" fill-opacity="0.2"/>
<path opacity="0.2" d="M975.055 509.285H950.553V533.801H975.055V509.285Z" fill="white" fill-opacity="0.2"/>
<path opacity="0.2" d="M1137.71 509.285H1113.21V533.801H1137.71V509.285Z" fill="white" fill-opacity="0.2"/>
<path opacity="0.2" d="M1219.04 509.284H1194.54V533.8H1219.04V509.284Z" fill="white" fill-opacity="0.2"/>
<path opacity="0.2" d="M1300.37 509.284H1275.87V533.8H1300.37V509.284Z" fill="white" fill-opacity="0.2"/>
<path opacity="0.2" d="M1341.04 509.285H1316.53V533.801H1341.04V509.285Z" fill="white" fill-opacity="0.2"/>
<path opacity="0.2" d="M1463.03 509.285H1438.53V533.801H1463.03V509.285Z" fill="white" fill-opacity="0.2"/>
<path opacity="0.15" d="M1259.71 468.721H1235.2V493.236H1259.71V468.721Z" fill="white" fill-opacity="0.2"/>
<path opacity="0.15" d="M1300.37 468.721H1275.87V493.236H1300.37V468.721Z" fill="white" fill-opacity="0.2"/>
<path opacity="0.15" d="M1422.37 468.721H1397.86V493.236H1422.37V468.721Z" fill="white" fill-opacity="0.2"/>
<path opacity="0.15" d="M1015.72 428.159H991.217V452.675H1015.72V428.159Z" fill="white" fill-opacity="0.2"/>
<path opacity="0.15" d="M1056.38 428.159H1031.88V452.675H1056.38V428.159Z" fill="white" fill-opacity="0.2"/>
<path opacity="0.05" d="M1097.05 428.159H1072.55V452.675H1097.05V428.159Z" fill="white" fill-opacity="0.2"/>
<path opacity="0.1" d="M1219.04 428.159H1194.54V452.675H1219.04V428.159Z" fill="white" fill-opacity="0.2"/>
<path opacity="0.15" d="M1300.37 428.159H1275.87V452.675H1300.37V428.159Z" fill="white" fill-opacity="0.2"/>
<path opacity="0.15" d="M1422.37 428.159H1397.86V452.675H1422.37V428.159Z" fill="white" fill-opacity="0.2"/>
<path opacity="0.05" d="M893.725 387.595H869.223V412.11H893.725V387.595Z" fill="white" fill-opacity="0.2"/>
<path opacity="0.05" d="M934.389 387.595H909.887V412.11H934.389V387.595Z" fill="white" fill-opacity="0.2"/>
<path opacity="0.05" d="M1056.38 387.595H1031.88V412.11H1056.38V387.595Z" fill="white" fill-opacity="0.2"/>
<path opacity="0.15" d="M1137.71 387.595H1113.21V412.11H1137.71V387.595Z" fill="white" fill-opacity="0.2"/>
<path opacity="0.05" d="M1259.71 387.595H1235.2V412.11H1259.71V387.595Z" fill="white" fill-opacity="0.2"/>
<path opacity="0.15" d="M1422.37 387.595H1397.86V412.11H1422.37V387.595Z" fill="white" fill-opacity="0.2"/>
<path opacity="0.05" d="M1219.04 347.011H1194.54V371.526H1219.04V347.011Z" fill="white" fill-opacity="0.2"/>
<path opacity="0.15" d="M1300.37 347.011H1275.87V371.526H1300.37V347.011Z" fill="white" fill-opacity="0.2"/>
<path opacity="0.15" d="M1341.04 347.011H1316.53V371.526H1341.04V347.011Z" fill="white" fill-opacity="0.2"/>
<path opacity="0.05" d="M1056.38 306.446H1031.88V330.962H1056.38V306.446Z" fill="white" fill-opacity="0.2"/>
<path opacity="0.15" d="M1422.37 306.447H1397.86V330.963H1422.37V306.447Z" fill="white" fill-opacity="0.2"/>
<path opacity="0.05" d="M1422.37 265.885H1397.86V290.4H1422.37V265.885Z" fill="white" fill-opacity="0.2"/>
<path opacity="0.05" d="M1097.05 225.32H1072.55V249.836H1097.05V225.32Z" fill="white" fill-opacity="0.2"/>
<path opacity="0.1" d="M1341.04 225.32H1316.53V249.836H1341.04V225.32Z" fill="white" fill-opacity="0.2"/>
<path opacity="0.1" d="M1219.04 184.756H1194.54V209.272H1219.04V184.756Z" fill="white" fill-opacity="0.2"/>
<path opacity="0.05" d="M1341.04 184.756H1316.53V209.272H1341.04V184.756Z" fill="white" fill-opacity="0.2"/>
<path opacity="0.05" d="M1300.37 63.0654H1275.87V87.5811H1300.37V63.0654Z" fill="white" fill-opacity="0.2"/>
</g>
</g>
<defs>
<clipPath id="clip0_34887_110692">
<rect width="3725" height="1282" fill="white" transform="translate(-1286 -92)"/>
</clipPath>
</defs>
</svg>
