<svg width="1440" height="493" viewBox="0 0 1440 493" fill="none" xmlns="http://www.w3.org/2000/svg">
<g clip-path="url(#clip0_36864_1943)">
<mask id="mask0_36864_1943" style="mask-type:luminance" maskUnits="userSpaceOnUse" x="-1287" y="-2234" width="3726" height="2728">
<path d="M-1286.02 493.252L2438.98 493.252L2438.98 -2233L-1286.02 -2233L-1286.02 493.252Z" fill="white"/>
</mask>
<g mask="url(#mask0_36864_1943)">
<path opacity="0.65" d="M39.7894 461.299H15.2871V485.814H39.7894V461.299Z" fill="white" fill-opacity="0.2"/>
<path opacity="0.65" d="M80.4553 461.299H55.9531V485.814H80.4553V461.299Z" fill="white" fill-opacity="0.2"/>
<path opacity="0.65" d="M243.135 461.299H218.633V485.814H243.135V461.299Z" fill="white" fill-opacity="0.2"/>
<path opacity="0.65" d="M283.797 461.299H259.295V485.814H283.797V461.299Z" fill="white" fill-opacity="0.2"/>
<path opacity="0.65" d="M324.461 461.299H299.959V485.814H324.461V461.299Z" fill="white" fill-opacity="0.2"/>
<path opacity="0.65" d="M365.127 461.299H340.625V485.814H365.127V461.299Z" fill="white" fill-opacity="0.2"/>
<path opacity="0.65" d="M405.791 461.299H381.289V485.814H405.791V461.299Z" fill="white" fill-opacity="0.2"/>
<path opacity="0.65" d="M446.457 461.299H421.955V485.814H446.457V461.299Z" fill="white" fill-opacity="0.2"/>
<path opacity="0.65" d="M487.121 461.299H462.619V485.814H487.121V461.299Z" fill="white" fill-opacity="0.2"/>
<path opacity="0.65" d="M39.7894 420.734H15.2871V445.25H39.7894V420.734Z" fill="white" fill-opacity="0.2"/>
<path opacity="0.65" d="M243.135 420.734H218.633V445.25H243.135V420.734Z" fill="white" fill-opacity="0.2"/>
<path opacity="0.65" d="M283.797 420.734H259.295V445.25H283.797V420.734Z" fill="white" fill-opacity="0.2"/>
<path opacity="0.65" d="M324.461 420.734H299.959V445.25H324.461V420.734Z" fill="white" fill-opacity="0.2"/>
<path opacity="0.65" d="M365.127 420.734H340.625V445.25H365.127V420.734Z" fill="white" fill-opacity="0.2"/>
<path opacity="0.65" d="M487.121 420.734H462.619V445.25H487.121V420.734Z" fill="white" fill-opacity="0.2"/>
<path opacity="0.5" d="M39.7894 380.172H15.2871V404.687H39.7894V380.172Z" fill="white" fill-opacity="0.2"/>
<path opacity="0.5" d="M80.4553 380.172H55.9531V404.687H80.4553V380.172Z" fill="white" fill-opacity="0.2"/>
<path opacity="0.5" d="M121.119 380.172H96.6172V404.687H121.119V380.172Z" fill="white" fill-opacity="0.2"/>
<path opacity="0.5" d="M202.448 380.172H177.945V404.687H202.448V380.172Z" fill="white" fill-opacity="0.2"/>
<path opacity="0.5" d="M243.135 380.172H218.633V404.687H243.135V380.172Z" fill="white" fill-opacity="0.2"/>
<path opacity="0.5" d="M324.461 380.172H299.959V404.687H324.461V380.172Z" fill="white" fill-opacity="0.2"/>
<path opacity="0.5" d="M365.127 380.172H340.625V404.687H365.127V380.172Z" fill="white" fill-opacity="0.2"/>
<path opacity="0.5" d="M446.457 380.172H421.955V404.687H446.457V380.172Z" fill="white" fill-opacity="0.2"/>
<path opacity="0.5" d="M568.451 380.172H543.949V404.687H568.451V380.172Z" fill="white" fill-opacity="0.2"/>
<path opacity="0.5" d="M39.7894 339.607H15.2871V364.123H39.7894V339.607Z" fill="white" fill-opacity="0.2"/>
<path opacity="0.5" d="M80.4553 339.607H55.9531V364.123H80.4553V339.607Z" fill="white" fill-opacity="0.2"/>
<path opacity="0.5" d="M121.119 339.607H96.6172V364.123H121.119V339.607Z" fill="white" fill-opacity="0.2"/>
<path opacity="0.5" d="M161.783 339.607H137.281V364.123H161.783V339.607Z" fill="white" fill-opacity="0.2"/>
<path opacity="0.5" d="M243.135 339.607H218.633V364.123H243.135V339.607Z" fill="white" fill-opacity="0.2"/>
<path opacity="0.5" d="M283.799 339.607H259.297V364.123H283.799V339.607Z" fill="white" fill-opacity="0.2"/>
<path opacity="0.5" d="M324.461 339.607H299.959V364.123H324.461V339.607Z" fill="white" fill-opacity="0.2"/>
<path opacity="0.5" d="M365.127 339.607H340.625V364.123H365.127V339.607Z" fill="white" fill-opacity="0.2"/>
<path opacity="0.5" d="M446.457 339.607H421.955V364.123H446.457V339.607Z" fill="white" fill-opacity="0.2"/>
<path opacity="0.5" d="M487.119 339.607H462.617V364.123H487.119V339.607Z" fill="white" fill-opacity="0.2"/>
<path opacity="0.5" d="M527.784 339.607H503.281V364.123H527.784V339.607Z" fill="white" fill-opacity="0.2"/>
<path opacity="0.5" d="M39.7894 299.043H15.2871V323.559H39.7894V299.043Z" fill="white" fill-opacity="0.2"/>
<path opacity="0.5" d="M80.4553 299.043H55.9531V323.559H80.4553V299.043Z" fill="white" fill-opacity="0.2"/>
<path opacity="0.5" d="M121.119 299.043H96.6172V323.559H121.119V299.043Z" fill="white" fill-opacity="0.2"/>
<path opacity="0.5" d="M202.448 299.043H177.945V323.559H202.448V299.043Z" fill="white" fill-opacity="0.2"/>
<path opacity="0.5" d="M283.799 299.043H259.297V323.559H283.799V299.043Z" fill="white" fill-opacity="0.2"/>
<path opacity="0.5" d="M324.461 299.043H299.959V323.559H324.461V299.043Z" fill="white" fill-opacity="0.2"/>
<path opacity="0.5" d="M405.791 299.043H381.289V323.559H405.791V299.043Z" fill="white" fill-opacity="0.2"/>
<path opacity="0.5" d="M446.457 299.043H421.955V323.559H446.457V299.043Z" fill="white" fill-opacity="0.2"/>
<path opacity="0.5" d="M487.119 299.043H462.617V323.559H487.119V299.043Z" fill="white" fill-opacity="0.2"/>
<path opacity="0.5" d="M527.784 299.043H503.281V323.559H527.784V299.043Z" fill="white" fill-opacity="0.2"/>
<path opacity="0.5" d="M568.451 299.043H543.949V323.559H568.451V299.043Z" fill="white" fill-opacity="0.2"/>
<path opacity="0.45" d="M39.7894 258.441H15.2871V282.957H39.7894V258.441Z" fill="white" fill-opacity="0.2"/>
<path opacity="0.45" d="M121.119 258.461H96.6172V282.977H121.119V258.461Z" fill="white" fill-opacity="0.2"/>
<path opacity="0.45" d="M161.783 258.461H137.281V282.977H161.783V258.461Z" fill="white" fill-opacity="0.2"/>
<path opacity="0.45" d="M202.448 258.461H177.945V282.977H202.448V258.461Z" fill="white" fill-opacity="0.2"/>
<path opacity="0.45" d="M243.112 258.461H218.609V282.977H243.112V258.461Z" fill="white" fill-opacity="0.2"/>
<path opacity="0.45" d="M283.779 258.461H259.277V282.977H283.779V258.461Z" fill="white" fill-opacity="0.2"/>
<path opacity="0.45" d="M324.442 258.46H299.939V282.976H324.442V258.46Z" fill="white" fill-opacity="0.2"/>
<path opacity="0.45" d="M405.791 258.482H381.289V282.998H405.791V258.482Z" fill="white" fill-opacity="0.2"/>
<path opacity="0.45" d="M446.457 258.482H421.955V282.998H446.457V258.482Z" fill="white" fill-opacity="0.2"/>
<path opacity="0.45" d="M568.451 258.482H543.949V282.998H568.451V258.482Z" fill="white" fill-opacity="0.2"/>
<path opacity="0.4" d="M80.4553 217.877H55.9531V242.393H80.4553V217.877Z" fill="white" fill-opacity="0.2"/>
<path opacity="0.4" d="M121.119 217.898H96.6172V242.414H121.119V217.898Z" fill="white" fill-opacity="0.2"/>
<path opacity="0.4" d="M161.783 217.898H137.281V242.414H161.783V217.898Z" fill="white" fill-opacity="0.2"/>
<path opacity="0.4" d="M202.448 217.898H177.945V242.414H202.448V217.898Z" fill="white" fill-opacity="0.2"/>
<path opacity="0.4" d="M243.135 217.898H218.633V242.414H243.135V217.898Z" fill="white" fill-opacity="0.2"/>
<path opacity="0.4" d="M283.799 217.898H259.297V242.414H283.799V217.898Z" fill="white" fill-opacity="0.2"/>
<path opacity="0.4" d="M405.791 217.898H381.289V242.414H405.791V217.898Z" fill="white" fill-opacity="0.2"/>
<path opacity="0.4" d="M446.457 217.918H421.955V242.434H446.457V217.918Z" fill="white" fill-opacity="0.2"/>
<path opacity="0.4" d="M487.121 217.918H462.619V242.434H487.121V217.918Z" fill="white" fill-opacity="0.2"/>
<path opacity="0.4" d="M527.784 217.918H503.281V242.434H527.784V217.918Z" fill="white" fill-opacity="0.2"/>
<path opacity="0.4" d="M568.449 217.918H543.947V242.434H568.449V217.918Z" fill="white" fill-opacity="0.2"/>
<path opacity="0.4" d="M39.7894 177.312H15.2871V201.828H39.7894V177.312Z" fill="white" fill-opacity="0.2"/>
<path opacity="0.4" d="M80.4749 177.312H55.9727V201.828H80.4749V177.312Z" fill="white" fill-opacity="0.2"/>
<path opacity="0.4" d="M161.805 177.334H137.303V201.85H161.805V177.334Z" fill="white" fill-opacity="0.2"/>
<path opacity="0.4" d="M243.135 177.334H218.633V201.85H243.135V177.334Z" fill="white" fill-opacity="0.2"/>
<path opacity="0.4" d="M324.461 177.334H299.959V201.85H324.461V177.334Z" fill="white" fill-opacity="0.2"/>
<path opacity="0.4" d="M365.127 177.334H340.625V201.85H365.127V177.334Z" fill="white" fill-opacity="0.2"/>
<path opacity="0.4" d="M446.457 177.354H421.955V201.869H446.457V177.354Z" fill="white" fill-opacity="0.2"/>
<path opacity="0.4" d="M527.784 177.354H503.281V201.869H527.784V177.354Z" fill="white" fill-opacity="0.2"/>
<path opacity="0.4" d="M568.451 177.354H543.949V201.869H568.451V177.354Z" fill="white" fill-opacity="0.2"/>
<path opacity="0.3" d="M39.7894 136.791H15.2871V161.307H39.7894V136.791Z" fill="white" fill-opacity="0.2"/>
<path opacity="0.3" d="M80.4553 136.791H55.9531V161.307H80.4553V136.791Z" fill="white" fill-opacity="0.2"/>
<path opacity="0.3" d="M161.783 136.791H137.281V161.307H161.783V136.791Z" fill="white" fill-opacity="0.2"/>
<path opacity="0.3" d="M243.135 136.791H218.633V161.307H243.135V136.791Z" fill="white" fill-opacity="0.2"/>
<path opacity="0.3" d="M283.797 136.791H259.295V161.307H283.797V136.791Z" fill="white" fill-opacity="0.2"/>
<path opacity="0.3" d="M446.457 136.791H421.955V161.307H446.457V136.791Z" fill="white" fill-opacity="0.2"/>
<path opacity="0.3" d="M80.4553 96.2266H55.9531V120.742H80.4553V96.2266Z" fill="white" fill-opacity="0.2"/>
<path opacity="0.3" d="M527.784 96.2266H503.281V120.742H527.784V96.2266Z" fill="white" fill-opacity="0.2"/>
<path opacity="0.3" d="M568.449 96.2285H543.947V120.744H568.449V96.2285Z" fill="white" fill-opacity="0.2"/>
<path opacity="0.25" d="M39.7894 55.666H15.2871V80.1816H39.7894V55.666Z" fill="white" fill-opacity="0.2"/>
<path opacity="0.25" d="M80.4553 55.666H55.9531V80.1816H80.4553V55.666Z" fill="white" fill-opacity="0.2"/>
<path opacity="0.25" d="M161.781 55.666H137.279V80.1816H161.781V55.666Z" fill="white" fill-opacity="0.2"/>
<path opacity="0.25" d="M202.45 55.666H177.947V80.1816H202.45V55.666Z" fill="white" fill-opacity="0.2"/>
<path opacity="0.25" d="M365.127 55.666H340.625V80.1816H365.127V55.666Z" fill="white" fill-opacity="0.2"/>
<path opacity="0.25" d="M568.451 55.666H543.949V80.1816H568.451V55.666Z" fill="white" fill-opacity="0.2"/>
<path opacity="0.25" d="M39.7894 15.1016H15.2871V39.6172H39.7894V15.1016Z" fill="white" fill-opacity="0.2"/>
<path opacity="0.25" d="M161.783 15.1016H137.281V39.6172H161.783V15.1016Z" fill="white" fill-opacity="0.2"/>
<path opacity="0.25" d="M243.135 15.1016H218.633V39.6172H243.135V15.1016Z" fill="white" fill-opacity="0.2"/>
<path opacity="0.25" d="M405.791 15.1016H381.289V39.6172H405.791V15.1016Z" fill="white" fill-opacity="0.2"/>
<path opacity="0.25" d="M527.784 15.1016H503.281V39.6172H527.784V15.1016Z" fill="white" fill-opacity="0.2"/>
<path opacity="0.65" d="M609.072 461.299H584.57V485.814H609.072V461.299Z" fill="white" fill-opacity="0.2"/>
<path opacity="0.65" d="M731.067 461.299H706.564V485.814H731.067V461.299Z" fill="white" fill-opacity="0.2"/>
<path opacity="0.65" d="M771.733 461.299H747.23V485.814H771.733V461.299Z" fill="white" fill-opacity="0.2"/>
<path opacity="0.65" d="M812.395 461.299H787.893V485.814H812.395V461.299Z" fill="white" fill-opacity="0.2"/>
<path opacity="0.65" d="M893.725 461.299H869.223V485.814H893.725V461.299Z" fill="white" fill-opacity="0.2"/>
<path opacity="0.65" d="M934.389 461.299H909.887V485.814H934.389V461.299Z" fill="white" fill-opacity="0.2"/>
<path opacity="0.65" d="M1056.38 461.299H1031.88V485.814H1056.38V461.299Z" fill="white" fill-opacity="0.2"/>
<path opacity="0.65" d="M1259.71 461.299H1235.2V485.814H1259.71V461.299Z" fill="white" fill-opacity="0.2"/>
<path opacity="0.65" d="M1422.37 461.299H1397.86V485.814H1422.37V461.299Z" fill="white" fill-opacity="0.2"/>
<path opacity="0.65" d="M1463.03 461.299H1438.53V485.814H1463.03V461.299Z" fill="white" fill-opacity="0.2"/>
<path opacity="0.65" d="M609.072 420.734H584.57V445.25H609.072V420.734Z" fill="white" fill-opacity="0.2"/>
<path opacity="0.65" d="M649.737 420.734H625.234V445.25H649.737V420.734Z" fill="white" fill-opacity="0.2"/>
<path opacity="0.65" d="M731.067 420.734H706.564V445.25H731.067V420.734Z" fill="white" fill-opacity="0.2"/>
<path opacity="0.65" d="M771.733 420.734H747.23V445.25H771.733V420.734Z" fill="white" fill-opacity="0.2"/>
<path opacity="0.65" d="M812.397 420.734H787.895V445.25H812.397V420.734Z" fill="white" fill-opacity="0.2"/>
<path opacity="0.65" d="M853.059 420.734H828.557V445.25H853.059V420.734Z" fill="white" fill-opacity="0.2"/>
<path opacity="0.65" d="M934.389 420.734H909.887V445.25H934.389V420.734Z" fill="white" fill-opacity="0.2"/>
<path opacity="0.65" d="M975.055 420.734H950.553V445.25H975.055V420.734Z" fill="white" fill-opacity="0.2"/>
<path opacity="0.65" d="M1097.05 420.734H1072.55V445.25H1097.05V420.734Z" fill="white" fill-opacity="0.2"/>
<path opacity="0.65" d="M1137.71 420.734H1113.21V445.25H1137.71V420.734Z" fill="white" fill-opacity="0.2"/>
<path opacity="0.65" d="M1219.04 420.734H1194.54V445.25H1219.04V420.734Z" fill="white" fill-opacity="0.2"/>
<path opacity="0.65" d="M1259.71 420.734H1235.2V445.25H1259.71V420.734Z" fill="white" fill-opacity="0.2"/>
<path opacity="0.65" d="M1422.37 420.734H1397.86V445.25H1422.37V420.734Z" fill="white" fill-opacity="0.2"/>
<path opacity="0.5" d="M609.072 380.172H584.57V404.687H609.072V380.172Z" fill="white" fill-opacity="0.2"/>
<path opacity="0.5" d="M649.737 380.172H625.234V404.687H649.737V380.172Z" fill="white" fill-opacity="0.2"/>
<path opacity="0.5" d="M690.403 380.172H665.9V404.687H690.403V380.172Z" fill="white" fill-opacity="0.2"/>
<path opacity="0.5" d="M771.733 380.172H747.23V404.687H771.733V380.172Z" fill="white" fill-opacity="0.2"/>
<path opacity="0.5" d="M812.397 380.172H787.895V404.687H812.397V380.172Z" fill="white" fill-opacity="0.2"/>
<path opacity="0.5" d="M853.059 380.172H828.557V404.687H853.059V380.172Z" fill="white" fill-opacity="0.2"/>
<path opacity="0.5" d="M934.389 380.172H909.887V404.687H934.389V380.172Z" fill="white" fill-opacity="0.2"/>
<path opacity="0.5" d="M1137.71 380.172H1113.21V404.687H1137.71V380.172Z" fill="white" fill-opacity="0.2"/>
<path opacity="0.5" d="M1300.37 380.172H1275.87V404.687H1300.37V380.172Z" fill="white" fill-opacity="0.2"/>
<path opacity="0.5" d="M1422.37 380.172H1397.86V404.687H1422.37V380.172Z" fill="white" fill-opacity="0.2"/>
<path opacity="0.5" d="M649.737 339.607H625.234V364.123H649.737V339.607Z" fill="white" fill-opacity="0.2"/>
<path opacity="0.5" d="M771.733 339.607H747.23V364.123H771.733V339.607Z" fill="white" fill-opacity="0.2"/>
<path opacity="0.5" d="M812.397 339.607H787.895V364.123H812.397V339.607Z" fill="white" fill-opacity="0.2"/>
<path opacity="0.5" d="M853.059 339.607H828.557V364.123H853.059V339.607Z" fill="white" fill-opacity="0.2"/>
<path opacity="0.5" d="M934.389 339.607H909.887V364.123H934.389V339.607Z" fill="white" fill-opacity="0.2"/>
<path opacity="0.5" d="M975.055 339.607H950.553V364.123H975.055V339.607Z" fill="white" fill-opacity="0.2"/>
<path opacity="0.5" d="M1097.05 339.607H1072.55V364.123H1097.05V339.607Z" fill="white" fill-opacity="0.2"/>
<path opacity="0.5" d="M1137.71 339.607H1113.21V364.123H1137.71V339.607Z" fill="white" fill-opacity="0.2"/>
<path opacity="0.5" d="M1219.04 339.607H1194.54V364.123H1219.04V339.607Z" fill="white" fill-opacity="0.2"/>
<path opacity="0.5" d="M1259.71 339.607H1235.2V364.123H1259.71V339.607Z" fill="white" fill-opacity="0.2"/>
<path opacity="0.5" d="M1300.37 339.607H1275.87V364.123H1300.37V339.607Z" fill="white" fill-opacity="0.2"/>
<path opacity="0.5" d="M1381.7 339.607H1357.2V364.123H1381.7V339.607Z" fill="white" fill-opacity="0.2"/>
<path opacity="0.5" d="M609.072 299.043H584.57V323.559H609.072V299.043Z" fill="white" fill-opacity="0.2"/>
<path opacity="0.5" d="M649.737 299.043H625.234V323.559H649.737V299.043Z" fill="white" fill-opacity="0.2"/>
<path opacity="0.5" d="M812.397 299.043H787.895V323.559H812.397V299.043Z" fill="white" fill-opacity="0.2"/>
<path opacity="0.5" d="M934.389 299.043H909.887V323.559H934.389V299.043Z" fill="white" fill-opacity="0.2"/>
<path opacity="0.5" d="M975.055 299.043H950.553V323.559H975.055V299.043Z" fill="white" fill-opacity="0.2"/>
<path opacity="0.5" d="M1097.05 299.043H1072.55V323.559H1097.05V299.043Z" fill="white" fill-opacity="0.2"/>
<path opacity="0.5" d="M1219.04 299.043H1194.54V323.559H1219.04V299.043Z" fill="white" fill-opacity="0.2"/>
<path opacity="0.5" d="M1300.37 299.043H1275.87V323.559H1300.37V299.043Z" fill="white" fill-opacity="0.2"/>
<path opacity="0.5" d="M1341.04 299.043H1316.53V323.559H1341.04V299.043Z" fill="white" fill-opacity="0.2"/>
<path opacity="0.5" d="M1381.7 299.043H1357.2V323.559H1381.7V299.043Z" fill="white" fill-opacity="0.2"/>
<path opacity="0.5" d="M1422.37 299.043H1397.86V323.559H1422.37V299.043Z" fill="white" fill-opacity="0.2"/>
<path opacity="0.5" d="M1463.03 299.043H1438.53V323.559H1463.03V299.043Z" fill="white" fill-opacity="0.2"/>
<path opacity="0.45" d="M771.733 258.502H747.23V283.018H771.733V258.502Z" fill="white" fill-opacity="0.2"/>
<path opacity="0.45" d="M812.397 258.502H787.895V283.018H812.397V258.502Z" fill="white" fill-opacity="0.2"/>
<path opacity="0.45" d="M934.389 258.502H909.887V283.018H934.389V258.502Z" fill="white" fill-opacity="0.2"/>
<path opacity="0.45" d="M1056.38 258.523H1031.88V283.039H1056.38V258.523Z" fill="white" fill-opacity="0.2"/>
<path opacity="0.45" d="M1097.05 258.523H1072.55V283.039H1097.05V258.523Z" fill="white" fill-opacity="0.2"/>
<path opacity="0.45" d="M1137.71 258.523H1113.21V283.039H1137.71V258.523Z" fill="white" fill-opacity="0.2"/>
<path opacity="0.45" d="M1219.04 258.523H1194.54V283.039H1219.04V258.523Z" fill="white" fill-opacity="0.2"/>
<path opacity="0.45" d="M1341.04 258.542H1316.53V283.058H1341.04V258.542Z" fill="white" fill-opacity="0.2"/>
<path opacity="0.45" d="M1422.37 258.543H1397.86V283.059H1422.37V258.543Z" fill="white" fill-opacity="0.2"/>
<path opacity="0.45" d="M1463.03 258.542H1438.53V283.058H1463.03V258.542Z" fill="white" fill-opacity="0.2"/>
<path opacity="0.4" d="M609.072 217.918H584.57V242.434H609.072V217.918Z" fill="white" fill-opacity="0.2"/>
<path opacity="0.4" d="M649.737 217.918H625.234V242.434H649.737V217.918Z" fill="white" fill-opacity="0.2"/>
<path opacity="0.4" d="M771.733 217.939H747.23V242.455H771.733V217.939Z" fill="white" fill-opacity="0.2"/>
<path opacity="0.4" d="M812.397 217.939H787.895V242.455H812.397V217.939Z" fill="white" fill-opacity="0.2"/>
<path opacity="0.4" d="M853.059 217.939H828.557V242.455H853.059V217.939Z" fill="white" fill-opacity="0.2"/>
<path opacity="0.4" d="M934.389 217.939H909.887V242.455H934.389V217.939Z" fill="white" fill-opacity="0.2"/>
<path opacity="0.4" d="M975.055 217.939H950.553V242.455H975.055V217.939Z" fill="white" fill-opacity="0.2"/>
<path opacity="0.4" d="M1137.71 217.959H1113.21V242.475H1137.71V217.959Z" fill="white" fill-opacity="0.2"/>
<path opacity="0.4" d="M1259.71 217.959H1235.2V242.475H1259.71V217.959Z" fill="white" fill-opacity="0.2"/>
<path opacity="0.4" d="M1300.37 217.979H1275.87V242.494H1300.37V217.979Z" fill="white" fill-opacity="0.2"/>
<path opacity="0.4" d="M609.072 177.354H584.57V201.869H609.072V177.354Z" fill="white" fill-opacity="0.2"/>
<path opacity="0.4" d="M690.403 177.354H665.9V201.869H690.403V177.354Z" fill="white" fill-opacity="0.2"/>
<path opacity="0.4" d="M771.733 177.375H747.23V201.891H771.733V177.375Z" fill="white" fill-opacity="0.2"/>
<path opacity="0.4" d="M853.059 177.375H828.557V201.891H853.059V177.375Z" fill="white" fill-opacity="0.2"/>
<path opacity="0.4" d="M934.389 177.375H909.887V201.891H934.389V177.375Z" fill="white" fill-opacity="0.2"/>
<path opacity="0.4" d="M975.055 177.375H950.553V201.891H975.055V177.375Z" fill="white" fill-opacity="0.2"/>
<path opacity="0.4" d="M1015.72 177.395H991.217V201.91H1015.72V177.395Z" fill="white" fill-opacity="0.2"/>
<path opacity="0.4" d="M1056.38 177.395H1031.88V201.91H1056.38V177.395Z" fill="white" fill-opacity="0.2"/>
<path opacity="0.4" d="M1097.05 177.395H1072.55V201.91H1097.05V177.395Z" fill="white" fill-opacity="0.2"/>
<path opacity="0.4" d="M1219.04 177.395H1194.54V201.91H1219.04V177.395Z" fill="white" fill-opacity="0.2"/>
<path opacity="0.4" d="M1259.71 177.395H1235.2V201.91H1259.71V177.395Z" fill="white" fill-opacity="0.2"/>
<path opacity="0.4" d="M1300.37 177.395H1275.87V201.91H1300.37V177.395Z" fill="white" fill-opacity="0.2"/>
<path opacity="0.4" d="M1341.04 177.416H1316.53V201.932H1341.04V177.416Z" fill="white" fill-opacity="0.2"/>
<path opacity="0.4" d="M1422.37 177.416H1397.86V201.932H1422.37V177.416Z" fill="white" fill-opacity="0.2"/>
<path opacity="0.4" d="M1463.05 177.416H1438.55V201.932H1463.05V177.416Z" fill="white" fill-opacity="0.2"/>
<path opacity="0.3" d="M609.072 136.791H584.57V161.307H609.072V136.791Z" fill="white" fill-opacity="0.2"/>
<path opacity="0.3" d="M731.065 136.791H706.562V161.307H731.065V136.791Z" fill="white" fill-opacity="0.2"/>
<path opacity="0.3" d="M771.733 136.791H747.23V161.307H771.733V136.791Z" fill="white" fill-opacity="0.2"/>
<path opacity="0.3" d="M853.059 136.791H828.557V161.307H853.059V136.791Z" fill="white" fill-opacity="0.2"/>
<path opacity="0.3" d="M1015.72 136.791H991.217V161.307H1015.72V136.791Z" fill="white" fill-opacity="0.2"/>
<path opacity="0.3" d="M1056.38 136.791H1031.88V161.307H1056.38V136.791Z" fill="white" fill-opacity="0.2"/>
<path opacity="0.3" d="M1137.71 136.791H1113.21V161.307H1137.71V136.791Z" fill="white" fill-opacity="0.2"/>
<path opacity="0.3" d="M1259.71 136.791H1235.2V161.307H1259.71V136.791Z" fill="white" fill-opacity="0.2"/>
<path opacity="0.3" d="M1341.04 136.791H1316.53V161.307H1341.04V136.791Z" fill="white" fill-opacity="0.2"/>
<path opacity="0.3" d="M1381.7 136.791H1357.2V161.307H1381.7V136.791Z" fill="white" fill-opacity="0.2"/>
<path opacity="0.3" d="M1422.37 136.791H1397.86V161.307H1422.37V136.791Z" fill="white" fill-opacity="0.2"/>
<path opacity="0.3" d="M690.403 96.2285H665.9V120.744H690.403V96.2285Z" fill="white" fill-opacity="0.2"/>
<path opacity="0.3" d="M771.733 96.2266H747.23V120.742H771.733V96.2266Z" fill="white" fill-opacity="0.2"/>
<path opacity="0.3" d="M812.397 96.2285H787.895V120.744H812.397V96.2285Z" fill="white" fill-opacity="0.2"/>
<path opacity="0.3" d="M853.059 96.2266H828.557V120.742H853.059V96.2266Z" fill="white" fill-opacity="0.2"/>
<path opacity="0.3" d="M934.389 96.2266H909.887V120.742H934.389V96.2266Z" fill="white" fill-opacity="0.2"/>
<path opacity="0.3" d="M975.055 96.2266H950.553V120.742H975.055V96.2266Z" fill="white" fill-opacity="0.2"/>
<path opacity="0.3" d="M1015.72 96.2285H991.217V120.744H1015.72V96.2285Z" fill="white" fill-opacity="0.2"/>
<path opacity="0.3" d="M1056.38 96.2266H1031.88V120.742H1056.38V96.2266Z" fill="white" fill-opacity="0.2"/>
<path opacity="0.3" d="M1097.05 96.2285H1072.55V120.744H1097.05V96.2285Z" fill="white" fill-opacity="0.2"/>
<path opacity="0.3" d="M1219.04 96.2285H1194.54V120.744H1219.04V96.2285Z" fill="white" fill-opacity="0.2"/>
<path opacity="0.3" d="M1259.71 96.2266H1235.2V120.742H1259.71V96.2266Z" fill="white" fill-opacity="0.2"/>
<path opacity="0.3" d="M1300.37 96.2285H1275.87V120.744H1300.37V96.2285Z" fill="white" fill-opacity="0.2"/>
<path opacity="0.3" d="M1341.04 96.2266H1316.53V120.742H1341.04V96.2266Z" fill="white" fill-opacity="0.2"/>
<path opacity="0.3" d="M1422.37 96.2285H1397.86V120.744H1422.37V96.2285Z" fill="white" fill-opacity="0.2"/>
<path opacity="0.25" d="M609.072 55.666H584.57V80.1816H609.072V55.666Z" fill="white" fill-opacity="0.2"/>
<path opacity="0.25" d="M690.403 55.666H665.9V80.1816H690.403V55.666Z" fill="white" fill-opacity="0.2"/>
<path opacity="0.25" d="M731.067 55.666H706.564V80.1816H731.067V55.666Z" fill="white" fill-opacity="0.2"/>
<path opacity="0.25" d="M771.733 55.666H747.23V80.1816H771.733V55.666Z" fill="white" fill-opacity="0.2"/>
<path opacity="0.25" d="M812.395 55.666H787.893V80.1816H812.395V55.666Z" fill="white" fill-opacity="0.2"/>
<path opacity="0.25" d="M893.725 55.666H869.223V80.1816H893.725V55.666Z" fill="white" fill-opacity="0.2"/>
<path opacity="0.25" d="M1015.72 55.666H991.217V80.1816H1015.72V55.666Z" fill="white" fill-opacity="0.2"/>
<path opacity="0.25" d="M1097.05 55.666H1072.55V80.1816H1097.05V55.666Z" fill="white" fill-opacity="0.2"/>
<path opacity="0.25" d="M1137.71 55.666H1113.21V80.1816H1137.71V55.666Z" fill="white" fill-opacity="0.2"/>
<path opacity="0.25" d="M1259.71 55.666H1235.2V80.1816H1259.71V55.666Z" fill="white" fill-opacity="0.2"/>
<path opacity="0.25" d="M1300.37 55.666H1275.87V80.1816H1300.37V55.666Z" fill="white" fill-opacity="0.2"/>
<path opacity="0.25" d="M1381.7 55.666H1357.2V80.1816H1381.7V55.666Z" fill="white" fill-opacity="0.2"/>
<path opacity="0.25" d="M609.072 15.1016H584.57V39.6172H609.072V15.1016Z" fill="white" fill-opacity="0.2"/>
<path opacity="0.25" d="M690.403 15.1016H665.9V39.6172H690.403V15.1016Z" fill="white" fill-opacity="0.2"/>
<path opacity="0.25" d="M812.397 15.1016H787.895V39.6172H812.397V15.1016Z" fill="white" fill-opacity="0.2"/>
<path opacity="0.25" d="M893.725 15.1016H869.223V39.6172H893.725V15.1016Z" fill="white" fill-opacity="0.2"/>
<path opacity="0.25" d="M934.389 15.1016H909.887V39.6172H934.389V15.1016Z" fill="white" fill-opacity="0.2"/>
<path opacity="0.25" d="M1056.38 15.1016H1031.88V39.6172H1056.38V15.1016Z" fill="white" fill-opacity="0.2"/>
<path opacity="0.25" d="M1300.37 15.1016H1275.87V39.6172H1300.37V15.1016Z" fill="white" fill-opacity="0.2"/>
<path opacity="0.25" d="M1341.04 15.1016H1316.53V39.6172H1341.04V15.1016Z" fill="white" fill-opacity="0.2"/>
<path opacity="0.25" d="M1422.37 15.1016H1397.86V39.6172H1422.37V15.1016Z" fill="white" fill-opacity="0.2"/>
<path opacity="0.25" d="M1463.03 15.1016H1438.53V39.6172H1463.03V15.1016Z" fill="white" fill-opacity="0.2"/>
</g>
</g>
<defs>
<clipPath id="clip0_36864_1943">
<rect width="3725" height="1282" fill="white" transform="translate(-1286 -789)"/>
</clipPath>
</defs>
</svg>
