<svg width="572" height="191" viewBox="0 0 572 191" fill="none" xmlns="http://www.w3.org/2000/svg">
<g clip-path="url(#clip0_36041_1992)">
<mask id="mask0_36041_1992" style="mask-type:luminance" maskUnits="userSpaceOnUse" x="-322" y="-543" width="1145" height="839">
<path d="M-321.008 295.284L822.992 295.284L822.992 -542.582L-321.008 -542.582V295.284Z" fill="white"/>
</mask>
<g mask="url(#mask0_36041_1992)">
<path opacity="0.3" d="M23.7262 185.734H16.2012V193.269H23.7262V185.734Z" fill="#E7EFF7" fill-opacity="0.6"/>
<path opacity="0.3" d="M48.7027 185.734H41.1777V193.269H48.7027V185.734Z" fill="#E7EFF7" fill-opacity="0.6"/>
<path opacity="0.3" d="M73.6812 185.734H66.1562V193.269H73.6812V185.734Z" fill="#E7EFF7" fill-opacity="0.6"/>
<path opacity="0.3" d="M86.1695 185.734H78.6445V193.269H86.1695V185.734Z" fill="#E7EFF7" fill-opacity="0.6"/>
<path opacity="0.3" d="M98.6578 185.734H91.1328V193.269H98.6578V185.734Z" fill="#E7EFF7" fill-opacity="0.6"/>
<path opacity="0.3" d="M123.634 185.734H116.109V193.269H123.634V185.734Z" fill="#E7EFF7" fill-opacity="0.6"/>
<path opacity="0.3" d="M148.619 185.734H141.094V193.269H148.619V185.734Z" fill="#E7EFF7" fill-opacity="0.6"/>
<path opacity="0.3" d="M161.107 185.734H153.582V193.269H161.107V185.734Z" fill="#E7EFF7" fill-opacity="0.6"/>
<path opacity="0.3" d="M211.062 185.734H203.537V193.269H211.062V185.734Z" fill="#E7EFF7" fill-opacity="0.6"/>
<path opacity="0.3" d="M11.2359 173.268H3.71094V180.802H11.2359V173.268Z" fill="#E7EFF7" fill-opacity="0.6"/>
<path opacity="0.3" d="M23.7262 173.268H16.2012V180.802H23.7262V173.268Z" fill="#E7EFF7" fill-opacity="0.6"/>
<path opacity="0.3" d="M48.7027 173.268H41.1777V180.802H48.7027V173.268Z" fill="#E7EFF7" fill-opacity="0.6"/>
<path opacity="0.3" d="M98.6578 173.268H91.1328V180.802H98.6578V173.268Z" fill="#E7EFF7" fill-opacity="0.6"/>
<path opacity="0.3" d="M236.039 173.268H228.514V180.802H236.039V173.268Z" fill="#E7EFF7" fill-opacity="0.6"/>
<path opacity="0.3" d="M248.527 173.268H241.002V180.802H248.527V173.268Z" fill="#E7EFF7" fill-opacity="0.6"/>
<path opacity="0.25" d="M23.7242 160.802H16.1992V168.336H23.7242V160.802Z" fill="#E7EFF7" fill-opacity="0.6"/>
<path opacity="0.25" d="M48.7027 160.802H41.1777V168.336H48.7027V160.802Z" fill="#E7EFF7" fill-opacity="0.6"/>
<path opacity="0.25" d="M86.1695 160.802H78.6445V168.336H86.1695V160.802Z" fill="#E7EFF7" fill-opacity="0.6"/>
<path opacity="0.25" d="M98.6578 160.802H91.1328V168.336H98.6578V160.802Z" fill="#E7EFF7" fill-opacity="0.6"/>
<path opacity="0.25" d="M123.634 160.802H116.109V168.336H123.634V160.802Z" fill="#E7EFF7" fill-opacity="0.6"/>
<path opacity="0.25" d="M136.123 160.802H128.598V168.336H136.123V160.802Z" fill="#E7EFF7" fill-opacity="0.6"/>
<path opacity="0.25" d="M186.084 160.802H178.559V168.336H186.084V160.802Z" fill="#E7EFF7" fill-opacity="0.6"/>
<path opacity="0.25" d="M248.529 160.802H241.004V168.336H248.529V160.802Z" fill="#E7EFF7" fill-opacity="0.6"/>
<path opacity="0.25" d="M11.2359 148.335H3.71094V155.869H11.2359V148.335Z" fill="#E7EFF7" fill-opacity="0.6"/>
<path opacity="0.25" d="M23.7262 148.335H16.2012V155.869H23.7262V148.335Z" fill="#E7EFF7" fill-opacity="0.6"/>
<path opacity="0.25" d="M36.2144 148.335H28.6895V155.869H36.2144V148.335Z" fill="#E7EFF7" fill-opacity="0.6"/>
<path opacity="0.25" d="M73.6812 148.335H66.1562V155.869H73.6812V148.335Z" fill="#E7EFF7" fill-opacity="0.6"/>
<path opacity="0.25" d="M86.1695 148.335H78.6445V155.869H86.1695V148.335Z" fill="#E7EFF7" fill-opacity="0.6"/>
<path opacity="0.25" d="M123.634 148.335H116.109V155.869H123.634V148.335Z" fill="#E7EFF7" fill-opacity="0.6"/>
<path opacity="0.25" d="M148.619 148.335H141.094V155.869H148.619V148.335Z" fill="#E7EFF7" fill-opacity="0.6"/>
<path opacity="0.25" d="M198.574 148.335H191.049V155.869H198.574V148.335Z" fill="#E7EFF7" fill-opacity="0.6"/>
<path opacity="0.25" d="M236.039 148.335H228.514V155.869H236.039V148.335Z" fill="#E7EFF7" fill-opacity="0.6"/>
<path opacity="0.25" d="M23.7242 135.868H16.1992V143.403H23.7242V135.868Z" fill="#E7EFF7" fill-opacity="0.6"/>
<path opacity="0.25" d="M36.2144 135.868H28.6895V143.403H36.2144V135.868Z" fill="#E7EFF7" fill-opacity="0.6"/>
<path opacity="0.25" d="M98.6578 135.868H91.1328V143.403H98.6578V135.868Z" fill="#E7EFF7" fill-opacity="0.6"/>
<path opacity="0.25" d="M148.619 135.868H141.094V143.403H148.619V135.868Z" fill="#E7EFF7" fill-opacity="0.6"/>
<path opacity="0.25" d="M198.572 135.868H191.047V143.403H198.572V135.868Z" fill="#E7EFF7" fill-opacity="0.6"/>
<path opacity="0.2" d="M11.2359 123.402H3.71094V130.937H11.2359V123.402Z" fill="#E7EFF7" fill-opacity="0.6"/>
<path opacity="0.2" d="M61.191 123.402H53.666V130.937H61.191V123.402Z" fill="#E7EFF7" fill-opacity="0.6"/>
<path opacity="0.2" d="M86.1695 123.402H78.6445V130.937H86.1695V123.402Z" fill="#E7EFF7" fill-opacity="0.6"/>
<path opacity="0.2" d="M123.634 123.402H116.109V130.937H123.634V123.402Z" fill="#E7EFF7" fill-opacity="0.6"/>
<path opacity="0.2" d="M136.123 123.402H128.598V130.937H136.123V123.402Z" fill="#E7EFF7" fill-opacity="0.6"/>
<path opacity="0.2" d="M186.084 123.402H178.559V130.937H186.084V123.402Z" fill="#E7EFF7" fill-opacity="0.6"/>
<path opacity="0.2" d="M198.572 123.402H191.047V130.937H198.572V123.402Z" fill="#E7EFF7" fill-opacity="0.6"/>
<path opacity="0.2" d="M211.062 123.402H203.537V130.937H211.062V123.402Z" fill="#E7EFF7" fill-opacity="0.6"/>
<path opacity="0.2" d="M223.55 123.402H216.025V130.937H223.55V123.402Z" fill="#E7EFF7" fill-opacity="0.6"/>
<path opacity="0.2" d="M11.2359 110.936H3.71094V118.47H11.2359V110.936Z" fill="#E7EFF7" fill-opacity="0.6"/>
<path opacity="0.2" d="M23.7262 110.936H16.2012V118.47H23.7262V110.936Z" fill="#E7EFF7" fill-opacity="0.6"/>
<path opacity="0.2" d="M48.7027 110.936H41.1777V118.47H48.7027V110.936Z" fill="#E7EFF7" fill-opacity="0.6"/>
<path opacity="0.2" d="M86.1695 110.936H78.6445V118.47H86.1695V110.936Z" fill="#E7EFF7" fill-opacity="0.6"/>
<path opacity="0.2" d="M98.6578 110.936H91.1328V118.47H98.6578V110.936Z" fill="#E7EFF7" fill-opacity="0.6"/>
<path opacity="0.2" d="M223.55 110.936H216.025V118.47H223.55V110.936Z" fill="#E7EFF7" fill-opacity="0.6"/>
<path opacity="0.1" d="M236.039 110.936H228.514V118.47H236.039V110.936Z" fill="#E7EFF7" fill-opacity="0.6"/>
<path opacity="0.2" d="M23.7242 98.4688H16.1992V106.003H23.7242V98.4688Z" fill="#E7EFF7" fill-opacity="0.6"/>
<path opacity="0.2" d="M36.2144 98.4688H28.6895V106.003H36.2144V98.4688Z" fill="#E7EFF7" fill-opacity="0.6"/>
<path opacity="0.2" d="M98.6578 98.4688H91.1328V106.003H98.6578V98.4688Z" fill="#E7EFF7" fill-opacity="0.6"/>
<path opacity="0.2" d="M111.146 98.4688H103.621V106.003H111.146V98.4688Z" fill="#E7EFF7" fill-opacity="0.6"/>
<path opacity="0.2" d="M136.123 98.4688H128.598V106.003H136.123V98.4688Z" fill="#E7EFF7" fill-opacity="0.6"/>
<path opacity="0.1" d="M148.619 98.4688H141.094V106.003H148.619V98.4688Z" fill="#E7EFF7" fill-opacity="0.6"/>
<path opacity="0.1" d="M186.084 98.4688H178.559V106.003H186.084V98.4688Z" fill="#E7EFF7" fill-opacity="0.6"/>
<path opacity="0.2" d="M211.062 98.4688H203.537V106.003H211.062V98.4688Z" fill="#E7EFF7" fill-opacity="0.6"/>
<path opacity="0.1" d="M236.039 98.4688H228.514V106.003H236.039V98.4688Z" fill="#E7EFF7" fill-opacity="0.6"/>
<path opacity="0.2" d="M23.7262 86.0029H16.2012V93.5374H23.7262V86.0029Z" fill="#E7EFF7" fill-opacity="0.6"/>
<path opacity="0.2" d="M61.191 86.0029H53.666V93.5374H61.191V86.0029Z" fill="#E7EFF7" fill-opacity="0.6"/>
<path opacity="0.2" d="M123.634 86.0029H116.109V93.5374H123.634V86.0029Z" fill="#E7EFF7" fill-opacity="0.6"/>
<path opacity="0.1" d="M211.062 86.0029H203.537V93.5374H211.062V86.0029Z" fill="#E7EFF7" fill-opacity="0.6"/>
<path opacity="0.15" d="M11.2359 73.5361H3.71094V81.0706H11.2359V73.5361Z" fill="#E7EFF7" fill-opacity="0.6"/>
<path opacity="0.15" d="M48.7027 73.5363H41.1777V81.0708H48.7027V73.5363Z" fill="#E7EFF7" fill-opacity="0.6"/>
<path opacity="0.15" d="M111.146 73.5363H103.621V81.0708H111.146V73.5363Z" fill="#E7EFF7" fill-opacity="0.6"/>
<path opacity="0.05" d="M223.55 73.5363H216.025V81.0708H223.55V73.5363Z" fill="#E7EFF7" fill-opacity="0.6"/>
<path opacity="0.15" d="M23.7242 61.0703H16.1992V68.6048H23.7242V61.0703Z" fill="#E7EFF7" fill-opacity="0.6"/>
<path opacity="0.15" d="M48.7027 61.0703H41.1777V68.6048H48.7027V61.0703Z" fill="#E7EFF7" fill-opacity="0.6"/>
<path opacity="0.15" d="M73.6812 61.0703H66.1562V68.6048H73.6812V61.0703Z" fill="#E7EFF7" fill-opacity="0.6"/>
<path opacity="0.15" d="M98.6578 61.0703H91.1328V68.6048H98.6578V61.0703Z" fill="#E7EFF7" fill-opacity="0.6"/>
<path opacity="0.15" d="M136.123 61.0703H128.598V68.6048H136.123V61.0703Z" fill="#E7EFF7" fill-opacity="0.6"/>
<path opacity="0.1" d="M148.619 61.0703H141.094V68.6048H148.619V61.0703Z" fill="#E7EFF7" fill-opacity="0.6"/>
<path opacity="0.15" d="M73.6812 48.6035H66.1562V56.138H73.6812V48.6035Z" fill="#E7EFF7" fill-opacity="0.6"/>
<path opacity="0.15" d="M86.1695 48.6035H78.6445V56.138H86.1695V48.6035Z" fill="#E7EFF7" fill-opacity="0.6"/>
<path opacity="0.05" d="M136.123 48.6035H128.598V56.138H136.123V48.6035Z" fill="#E7EFF7" fill-opacity="0.6"/>
<path opacity="0.15" d="M48.7027 36.1307H41.1777V43.6651H48.7027V36.1307Z" fill="#E7EFF7" fill-opacity="0.6"/>
<path opacity="0.15" d="M86.1695 36.1309H78.6445V43.6653H86.1695V36.1309Z" fill="#E7EFF7" fill-opacity="0.6"/>
<path opacity="0.15" d="M11.2359 23.6641H3.71094V31.1985H11.2359V23.6641Z" fill="#E7EFF7" fill-opacity="0.6"/>
<path opacity="0.15" d="M61.191 23.6641H53.666V31.1985H61.191V23.6641Z" fill="#E7EFF7" fill-opacity="0.6"/>
<path opacity="0.1" d="M23.7242 11.1982H16.1992V18.7327H23.7242V11.1982Z" fill="#E7EFF7" fill-opacity="0.6"/>
<path opacity="0.1" d="M73.6812 -1.26855H66.1562V6.2659H73.6812V-1.26855Z" fill="#E7EFF7" fill-opacity="0.6"/>
<path opacity="0.3" d="M261.003 185.734H253.479V193.269H261.003V185.734Z" fill="#E7EFF7" fill-opacity="0.6"/>
<path opacity="0.3" d="M298.47 185.734H290.945V193.269H298.47V185.734Z" fill="#E7EFF7" fill-opacity="0.6"/>
<path opacity="0.3" d="M310.959 185.734H303.434V193.269H310.959V185.734Z" fill="#E7EFF7" fill-opacity="0.6"/>
<path opacity="0.3" d="M335.935 185.734H328.41V193.269H335.935V185.734Z" fill="#E7EFF7" fill-opacity="0.6"/>
<path opacity="0.3" d="M385.89 185.734H378.365V193.269H385.89V185.734Z" fill="#E7EFF7" fill-opacity="0.6"/>
<path opacity="0.3" d="M398.378 185.734H390.854V193.269H398.378V185.734Z" fill="#E7EFF7" fill-opacity="0.6"/>
<path opacity="0.3" d="M423.357 185.734H415.832V193.269H423.357V185.734Z" fill="#E7EFF7" fill-opacity="0.6"/>
<path opacity="0.3" d="M460.822 185.734H453.297V193.269H460.822V185.734Z" fill="#E7EFF7" fill-opacity="0.6"/>
<path opacity="0.3" d="M485.798 185.734H478.273V193.269H485.798V185.734Z" fill="#E7EFF7" fill-opacity="0.6"/>
<path opacity="0.3" d="M498.289 185.734H490.764V193.269H498.289V185.734Z" fill="#E7EFF7" fill-opacity="0.6"/>
<path opacity="0.3" d="M510.777 185.734H503.252V193.269H510.777V185.734Z" fill="#E7EFF7" fill-opacity="0.6"/>
<path opacity="0.3" d="M535.754 185.734H528.229V193.269H535.754V185.734Z" fill="#E7EFF7" fill-opacity="0.6"/>
<path opacity="0.3" d="M560.732 185.734H553.207V193.269H560.732V185.734Z" fill="#E7EFF7" fill-opacity="0.6"/>
<path opacity="0.3" d="M573.228 185.734H565.703V193.269H573.228V185.734Z" fill="#E7EFF7" fill-opacity="0.6"/>
<path opacity="0.3" d="M285.98 173.268H278.455V180.802H285.98V173.268Z" fill="#E7EFF7" fill-opacity="0.6"/>
<path opacity="0.3" d="M310.959 173.268H303.434V180.802H310.959V173.268Z" fill="#E7EFF7" fill-opacity="0.6"/>
<path opacity="0.3" d="M323.447 173.268H315.922V180.802H323.447V173.268Z" fill="#E7EFF7" fill-opacity="0.6"/>
<path opacity="0.3" d="M335.935 173.268H328.41V180.802H335.935V173.268Z" fill="#E7EFF7" fill-opacity="0.6"/>
<path opacity="0.3" d="M360.912 173.268H353.387V180.802H360.912V173.268Z" fill="#E7EFF7" fill-opacity="0.6"/>
<path opacity="0.3" d="M373.402 173.268H365.877V180.802H373.402V173.268Z" fill="#E7EFF7" fill-opacity="0.6"/>
<path opacity="0.3" d="M385.89 173.268H378.365V180.802H385.89V173.268Z" fill="#E7EFF7" fill-opacity="0.6"/>
<path opacity="0.3" d="M398.378 173.268H390.854V180.802H398.378V173.268Z" fill="#E7EFF7" fill-opacity="0.6"/>
<path opacity="0.3" d="M410.867 173.268H403.342V180.802H410.867V173.268Z" fill="#E7EFF7" fill-opacity="0.6"/>
<path opacity="0.3" d="M448.334 173.268H440.809V180.802H448.334V173.268Z" fill="#E7EFF7" fill-opacity="0.6"/>
<path opacity="0.3" d="M460.822 173.268H453.297V180.802H460.822V173.268Z" fill="#E7EFF7" fill-opacity="0.6"/>
<path opacity="0.3" d="M473.31 173.268H465.785V180.802H473.31V173.268Z" fill="#E7EFF7" fill-opacity="0.6"/>
<path opacity="0.3" d="M485.798 173.268H478.273V180.802H485.798V173.268Z" fill="#E7EFF7" fill-opacity="0.6"/>
<path opacity="0.3" d="M510.777 173.268H503.252V180.802H510.777V173.268Z" fill="#E7EFF7" fill-opacity="0.6"/>
<path opacity="0.3" d="M535.754 173.268H528.229V180.802H535.754V173.268Z" fill="#E7EFF7" fill-opacity="0.6"/>
<path opacity="0.3" d="M573.228 173.268H565.703V180.802H573.228V173.268Z" fill="#E7EFF7" fill-opacity="0.6"/>
<path opacity="0.25" d="M261.003 160.802H253.479V168.336H261.003V160.802Z" fill="#E7EFF7" fill-opacity="0.6"/>
<path opacity="0.25" d="M285.982 160.802H278.457V168.336H285.982V160.802Z" fill="#E7EFF7" fill-opacity="0.6"/>
<path opacity="0.25" d="M298.47 160.802H290.945V168.336H298.47V160.802Z" fill="#E7EFF7" fill-opacity="0.6"/>
<path opacity="0.25" d="M310.959 160.802H303.434V168.336H310.959V160.802Z" fill="#E7EFF7" fill-opacity="0.6"/>
<path opacity="0.25" d="M323.447 160.802H315.922V168.336H323.447V160.802Z" fill="#E7EFF7" fill-opacity="0.6"/>
<path opacity="0.25" d="M348.423 160.802H340.898V168.336H348.423V160.802Z" fill="#E7EFF7" fill-opacity="0.6"/>
<path opacity="0.25" d="M385.89 160.802H378.365V168.336H385.89V160.802Z" fill="#E7EFF7" fill-opacity="0.6"/>
<path opacity="0.25" d="M410.869 160.802H403.344V168.336H410.869V160.802Z" fill="#E7EFF7" fill-opacity="0.6"/>
<path opacity="0.25" d="M423.357 160.802H415.832V168.336H423.357V160.802Z" fill="#E7EFF7" fill-opacity="0.6"/>
<path opacity="0.25" d="M460.822 160.802H453.297V168.336H460.822V160.802Z" fill="#E7EFF7" fill-opacity="0.6"/>
<path opacity="0.25" d="M473.31 160.802H465.785V168.336H473.31V160.802Z" fill="#E7EFF7" fill-opacity="0.6"/>
<path opacity="0.25" d="M498.289 160.802H490.764V168.336H498.289V160.802Z" fill="#E7EFF7" fill-opacity="0.6"/>
<path opacity="0.25" d="M535.756 160.802H528.23V168.336H535.756V160.802Z" fill="#E7EFF7" fill-opacity="0.6"/>
<path opacity="0.25" d="M560.732 160.802H553.207V168.336H560.732V160.802Z" fill="#E7EFF7" fill-opacity="0.6"/>
<path opacity="0.25" d="M573.228 160.802H565.703V168.336H573.228V160.802Z" fill="#E7EFF7" fill-opacity="0.6"/>
<path opacity="0.25" d="M261.003 148.335H253.479V155.869H261.003V148.335Z" fill="#E7EFF7" fill-opacity="0.6"/>
<path opacity="0.25" d="M285.98 148.335H278.455V155.869H285.98V148.335Z" fill="#E7EFF7" fill-opacity="0.6"/>
<path opacity="0.25" d="M323.447 148.335H315.922V155.869H323.447V148.335Z" fill="#E7EFF7" fill-opacity="0.6"/>
<path opacity="0.25" d="M348.423 148.335H340.898V155.869H348.423V148.335Z" fill="#E7EFF7" fill-opacity="0.6"/>
<path opacity="0.25" d="M360.912 148.335H353.387V155.869H360.912V148.335Z" fill="#E7EFF7" fill-opacity="0.6"/>
<path opacity="0.25" d="M398.378 148.335H390.854V155.869H398.378V148.335Z" fill="#E7EFF7" fill-opacity="0.6"/>
<path opacity="0.25" d="M473.31 148.335H465.785V155.869H473.31V148.335Z" fill="#E7EFF7" fill-opacity="0.6"/>
<path opacity="0.25" d="M485.798 148.335H478.273V155.869H485.798V148.335Z" fill="#E7EFF7" fill-opacity="0.6"/>
<path opacity="0.25" d="M510.777 148.335H503.252V155.869H510.777V148.335Z" fill="#E7EFF7" fill-opacity="0.6"/>
<path opacity="0.25" d="M523.265 148.335H515.74V155.869H523.265V148.335Z" fill="#E7EFF7" fill-opacity="0.6"/>
<path opacity="0.25" d="M560.732 148.335H553.207V155.869H560.732V148.335Z" fill="#E7EFF7" fill-opacity="0.6"/>
<path opacity="0.25" d="M573.228 148.335H565.703V155.869H573.228V148.335Z" fill="#E7EFF7" fill-opacity="0.6"/>
<path opacity="0.25" d="M261.003 135.868H253.479V143.403H261.003V135.868Z" fill="#E7EFF7" fill-opacity="0.6"/>
<path opacity="0.25" d="M298.47 135.868H290.945V143.403H298.47V135.868Z" fill="#E7EFF7" fill-opacity="0.6"/>
<path opacity="0.25" d="M310.959 135.868H303.434V143.403H310.959V135.868Z" fill="#E7EFF7" fill-opacity="0.6"/>
<path opacity="0.25" d="M385.89 135.868H378.365V143.403H385.89V135.868Z" fill="#E7EFF7" fill-opacity="0.6"/>
<path opacity="0.25" d="M398.378 135.868H390.854V143.403H398.378V135.868Z" fill="#E7EFF7" fill-opacity="0.6"/>
<path opacity="0.25" d="M410.869 135.868H403.344V143.403H410.869V135.868Z" fill="#E7EFF7" fill-opacity="0.6"/>
<path opacity="0.25" d="M423.357 135.868H415.832V143.403H423.357V135.868Z" fill="#E7EFF7" fill-opacity="0.6"/>
<path opacity="0.25" d="M460.822 135.868H453.297V143.403H460.822V135.868Z" fill="#E7EFF7" fill-opacity="0.6"/>
<path opacity="0.25" d="M473.31 135.868H465.785V143.403H473.31V135.868Z" fill="#E7EFF7" fill-opacity="0.6"/>
<path opacity="0.25" d="M498.289 135.868H490.764V143.403H498.289V135.868Z" fill="#E7EFF7" fill-opacity="0.6"/>
<path opacity="0.25" d="M510.777 135.868H503.252V143.403H510.777V135.868Z" fill="#E7EFF7" fill-opacity="0.6"/>
<path opacity="0.25" d="M535.756 135.868H528.23V143.403H535.756V135.868Z" fill="#E7EFF7" fill-opacity="0.6"/>
<path opacity="0.25" d="M548.244 135.868H540.719V143.403H548.244V135.868Z" fill="#E7EFF7" fill-opacity="0.6"/>
<path opacity="0.25" d="M560.732 135.868H553.207V143.403H560.732V135.868Z" fill="#E7EFF7" fill-opacity="0.6"/>
<path opacity="0.25" d="M573.228 135.868H565.703V143.403H573.228V135.868Z" fill="#E7EFF7" fill-opacity="0.6"/>
<path opacity="0.2" d="M298.47 123.402H290.945V130.937H298.47V123.402Z" fill="#E7EFF7" fill-opacity="0.6"/>
<path opacity="0.2" d="M310.959 123.402H303.434V130.937H310.959V123.402Z" fill="#E7EFF7" fill-opacity="0.6"/>
<path opacity="0.2" d="M323.447 123.402H315.922V130.937H323.447V123.402Z" fill="#E7EFF7" fill-opacity="0.6"/>
<path opacity="0.2" d="M348.423 123.402H340.898V130.937H348.423V123.402Z" fill="#E7EFF7" fill-opacity="0.6"/>
<path opacity="0.2" d="M385.89 123.402H378.365V130.937H385.89V123.402Z" fill="#E7EFF7" fill-opacity="0.6"/>
<path opacity="0.2" d="M423.357 123.402H415.832V130.937H423.357V123.402Z" fill="#E7EFF7" fill-opacity="0.6"/>
<path opacity="0.2" d="M448.334 123.402H440.809V130.937H448.334V123.402Z" fill="#E7EFF7" fill-opacity="0.6"/>
<path opacity="0.2" d="M460.822 123.402H453.297V130.937H460.822V123.402Z" fill="#E7EFF7" fill-opacity="0.6"/>
<path opacity="0.2" d="M473.31 123.402H465.785V130.937H473.31V123.402Z" fill="#E7EFF7" fill-opacity="0.6"/>
<path opacity="0.2" d="M498.289 123.402H490.764V130.937H498.289V123.402Z" fill="#E7EFF7" fill-opacity="0.6"/>
<path opacity="0.2" d="M548.244 123.402H540.719V130.937H548.244V123.402Z" fill="#E7EFF7" fill-opacity="0.6"/>
<path opacity="0.2" d="M560.732 123.402H553.207V130.937H560.732V123.402Z" fill="#E7EFF7" fill-opacity="0.6"/>
<path opacity="0.2" d="M261.003 110.936H253.479V118.47H261.003V110.936Z" fill="#E7EFF7" fill-opacity="0.6"/>
<path opacity="0.2" d="M335.935 110.936H328.41V118.47H335.935V110.936Z" fill="#E7EFF7" fill-opacity="0.6"/>
<path opacity="0.2" d="M360.912 110.936H353.387V118.47H360.912V110.936Z" fill="#E7EFF7" fill-opacity="0.6"/>
<path opacity="0.2" d="M373.402 110.936H365.877V118.47H373.402V110.936Z" fill="#E7EFF7" fill-opacity="0.6"/>
<path opacity="0.2" d="M410.867 110.936H403.342V118.47H410.867V110.936Z" fill="#E7EFF7" fill-opacity="0.6"/>
<path opacity="0.2" d="M448.334 110.936H440.809V118.47H448.334V110.936Z" fill="#E7EFF7" fill-opacity="0.6"/>
<path opacity="0.2" d="M460.822 110.936H453.297V118.47H460.822V110.936Z" fill="#E7EFF7" fill-opacity="0.6"/>
<path opacity="0.2" d="M485.798 110.936H478.273V118.47H485.798V110.936Z" fill="#E7EFF7" fill-opacity="0.6"/>
<path opacity="0.2" d="M523.265 110.936H515.74V118.47H523.265V110.936Z" fill="#E7EFF7" fill-opacity="0.6"/>
<path opacity="0.2" d="M535.754 110.936H528.229V118.47H535.754V110.936Z" fill="#E7EFF7" fill-opacity="0.6"/>
<path opacity="0.2" d="M548.244 110.936H540.719V118.47H548.244V110.936Z" fill="#E7EFF7" fill-opacity="0.6"/>
<path opacity="0.1" d="M298.47 98.4688H290.945V106.003H298.47V98.4688Z" fill="#E7EFF7" fill-opacity="0.6"/>
<path opacity="0.2" d="M310.959 98.4688H303.434V106.003H310.959V98.4688Z" fill="#E7EFF7" fill-opacity="0.6"/>
<path opacity="0.2" d="M323.447 98.4688H315.922V106.003H323.447V98.4688Z" fill="#E7EFF7" fill-opacity="0.6"/>
<path opacity="0.2" d="M360.912 98.4688H353.387V106.003H360.912V98.4688Z" fill="#E7EFF7" fill-opacity="0.6"/>
<path opacity="0.2" d="M410.869 98.4688H403.344V106.003H410.869V98.4688Z" fill="#E7EFF7" fill-opacity="0.6"/>
<path opacity="0.2" d="M423.357 98.4688H415.832V106.003H423.357V98.4688Z" fill="#E7EFF7" fill-opacity="0.6"/>
<path opacity="0.2" d="M473.31 98.4688H465.785V106.003H473.31V98.4688Z" fill="#E7EFF7" fill-opacity="0.6"/>
<path opacity="0.2" d="M485.798 98.4688H478.273V106.003H485.798V98.4688Z" fill="#E7EFF7" fill-opacity="0.6"/>
<path opacity="0.2" d="M510.777 98.4688H503.252V106.003H510.777V98.4688Z" fill="#E7EFF7" fill-opacity="0.6"/>
<path opacity="0.2" d="M310.959 86.0029H303.434V93.5374H310.959V86.0029Z" fill="#E7EFF7" fill-opacity="0.6"/>
<path opacity="0.2" d="M373.402 86.0029H365.877V93.5374H373.402V86.0029Z" fill="#E7EFF7" fill-opacity="0.6"/>
<path opacity="0.2" d="M423.357 86.0029H415.832V93.5374H423.357V86.0029Z" fill="#E7EFF7" fill-opacity="0.6"/>
<path opacity="0.2" d="M448.334 86.0027H440.809V93.5372H448.334V86.0027Z" fill="#E7EFF7" fill-opacity="0.6"/>
<path opacity="0.2" d="M473.31 86.0029H465.785V93.5374H473.31V86.0029Z" fill="#E7EFF7" fill-opacity="0.6"/>
<path opacity="0.2" d="M485.798 86.0029H478.273V93.5374H485.798V86.0029Z" fill="#E7EFF7" fill-opacity="0.6"/>
<path opacity="0.2" d="M523.265 86.0029H515.74V93.5374H523.265V86.0029Z" fill="#E7EFF7" fill-opacity="0.6"/>
<path opacity="0.2" d="M560.732 86.0029H553.207V93.5374H560.732V86.0029Z" fill="#E7EFF7" fill-opacity="0.6"/>
<path opacity="0.15" d="M460.822 73.5361H453.297V81.0706H460.822V73.5361Z" fill="#E7EFF7" fill-opacity="0.6"/>
<path opacity="0.15" d="M473.31 73.5361H465.785V81.0706H473.31V73.5361Z" fill="#E7EFF7" fill-opacity="0.6"/>
<path opacity="0.15" d="M510.777 73.5363H503.252V81.0708H510.777V73.5363Z" fill="#E7EFF7" fill-opacity="0.6"/>
<path opacity="0.15" d="M560.732 73.5361H553.207V81.0706H560.732V73.5361Z" fill="#E7EFF7" fill-opacity="0.6"/>
<path opacity="0.15" d="M385.89 61.0703H378.365V68.6048H385.89V61.0703Z" fill="#E7EFF7" fill-opacity="0.6"/>
<path opacity="0.15" d="M398.378 61.0703H390.854V68.6048H398.378V61.0703Z" fill="#E7EFF7" fill-opacity="0.6"/>
<path opacity="0.05" d="M410.869 61.0703H403.344V68.6048H410.869V61.0703Z" fill="#E7EFF7" fill-opacity="0.6"/>
<path opacity="0.1" d="M448.334 61.0703H440.809V68.6048H448.334V61.0703Z" fill="#E7EFF7" fill-opacity="0.6"/>
<path opacity="0.15" d="M473.31 61.0703H465.785V68.6048H473.31V61.0703Z" fill="#E7EFF7" fill-opacity="0.6"/>
<path opacity="0.15" d="M510.777 61.0703H503.252V68.6048H510.777V61.0703Z" fill="#E7EFF7" fill-opacity="0.6"/>
<path opacity="0.05" d="M348.423 48.6035H340.898V56.138H348.423V48.6035Z" fill="#E7EFF7" fill-opacity="0.6"/>
<path opacity="0.05" d="M360.912 48.6035H353.387V56.138H360.912V48.6035Z" fill="#E7EFF7" fill-opacity="0.6"/>
<path opacity="0.05" d="M398.378 48.6035H390.854V56.138H398.378V48.6035Z" fill="#E7EFF7" fill-opacity="0.6"/>
<path opacity="0.15" d="M423.357 48.6035H415.832V56.138H423.357V48.6035Z" fill="#E7EFF7" fill-opacity="0.6"/>
<path opacity="0.05" d="M460.822 48.6035H453.297V56.138H460.822V48.6035Z" fill="#E7EFF7" fill-opacity="0.6"/>
<path opacity="0.15" d="M510.777 48.6035H503.252V56.1379H510.777V48.6035Z" fill="#E7EFF7" fill-opacity="0.6"/>
<path opacity="0.15" d="M535.754 48.6035H528.229V56.138H535.754V48.6035Z" fill="#E7EFF7" fill-opacity="0.6"/>
<path opacity="0.15" d="M560.732 48.6035H553.207V56.138H560.732V48.6035Z" fill="#E7EFF7" fill-opacity="0.6"/>
<path opacity="0.05" d="M448.334 36.1307H440.809V43.6651H448.334V36.1307Z" fill="#E7EFF7" fill-opacity="0.6"/>
<path opacity="0.15" d="M473.31 36.1309H465.785V43.6653H473.31V36.1309Z" fill="#E7EFF7" fill-opacity="0.6"/>
<path opacity="0.15" d="M485.798 36.1309H478.273V43.6653H485.798V36.1309Z" fill="#E7EFF7" fill-opacity="0.6"/>
<path opacity="0.15" d="M535.754 36.1309H528.229V43.6653H535.754V36.1309Z" fill="#E7EFF7" fill-opacity="0.6"/>
<path opacity="0.05" d="M398.378 23.6641H390.854V31.1985H398.378V23.6641Z" fill="#E7EFF7" fill-opacity="0.6"/>
<path opacity="0.15" d="M510.777 23.6643H503.252V31.1987H510.777V23.6643Z" fill="#E7EFF7" fill-opacity="0.6"/>
<path opacity="0.05" d="M510.777 11.1982H503.252V18.7327H510.777V11.1982Z" fill="#E7EFF7" fill-opacity="0.6"/>
<path opacity="0.1" d="M548.244 11.1982H540.719V18.7327H548.244V11.1982Z" fill="#E7EFF7" fill-opacity="0.6"/>
<path opacity="0.05" d="M410.867 -1.26855H403.342V6.2659H410.867V-1.26855Z" fill="#E7EFF7" fill-opacity="0.6"/>
<path opacity="0.1" d="M485.798 -1.26855H478.273V6.2659H485.798V-1.26855Z" fill="#E7EFF7" fill-opacity="0.6"/>
</g>
</g>
<defs>
<clipPath id="clip0_36041_1992">
<rect width="1144" height="394" fill="white" transform="translate(-321 -101)"/>
</clipPath>
</defs>
</svg>
