<svg width="244" height="189" viewBox="0 0 244 189" fill="none" xmlns="http://www.w3.org/2000/svg">
<g clip-path="url(#clip0_34887_107614)">
<path opacity="0.65" d="M12.2144 181.466H4.68945V189H12.2144V181.466Z" fill="#E7EFF7" fill-opacity="0.3"/>
<path opacity="0.65" d="M37.191 181.466H29.666V189H37.191V181.466Z" fill="#E7EFF7" fill-opacity="0.3"/>
<path opacity="0.65" d="M62.1695 181.466H54.6445V189H62.1695V181.466Z" fill="#E7EFF7" fill-opacity="0.3"/>
<path opacity="0.65" d="M74.6578 181.466H67.1328V189H74.6578V181.466Z" fill="#E7EFF7" fill-opacity="0.3"/>
<path opacity="0.65" d="M124.619 181.466H117.094V189H124.619V181.466Z" fill="#E7EFF7" fill-opacity="0.3"/>
<path opacity="0.65" d="M137.107 181.466H129.582V189H137.107V181.466Z" fill="#E7EFF7" fill-opacity="0.3"/>
<path opacity="0.65" d="M149.595 181.466H142.07V189H149.595V181.466Z" fill="#E7EFF7" fill-opacity="0.3"/>
<path opacity="0.65" d="M162.084 181.466H154.559V189H162.084V181.466Z" fill="#E7EFF7" fill-opacity="0.3"/>
<path opacity="0.65" d="M174.572 181.466H167.047V189H174.572V181.466Z" fill="#E7EFF7" fill-opacity="0.3"/>
<path opacity="0.65" d="M187.062 181.466H179.537V189H187.062V181.466Z" fill="#E7EFF7" fill-opacity="0.3"/>
<path opacity="0.65" d="M199.55 181.466H192.025V189H199.55V181.466Z" fill="#E7EFF7" fill-opacity="0.3"/>
<path opacity="0.65" d="M12.2144 168.999H4.68945V176.533H12.2144V168.999Z" fill="#E7EFF7" fill-opacity="0.3"/>
<path opacity="0.65" d="M24.7027 168.999H17.1777V176.533H24.7027V168.999Z" fill="#E7EFF7" fill-opacity="0.3"/>
<path opacity="0.65" d="M62.1695 168.999H54.6445V176.533H62.1695V168.999Z" fill="#E7EFF7" fill-opacity="0.3"/>
<path opacity="0.65" d="M124.619 168.999H117.094V176.533H124.619V168.999Z" fill="#E7EFF7" fill-opacity="0.3"/>
<path opacity="0.65" d="M137.107 168.999H129.582V176.533H137.107V168.999Z" fill="#E7EFF7" fill-opacity="0.3"/>
<path opacity="0.65" d="M149.595 168.999H142.07V176.533H149.595V168.999Z" fill="#E7EFF7" fill-opacity="0.3"/>
<path opacity="0.65" d="M162.084 168.999H154.559V176.533H162.084V168.999Z" fill="#E7EFF7" fill-opacity="0.3"/>
<path opacity="0.65" d="M199.55 168.999H192.025V176.533H199.55V168.999Z" fill="#E7EFF7" fill-opacity="0.3"/>
<path opacity="0.5" d="M24.7027 156.533H17.1777V164.068H24.7027V156.533Z" fill="#E7EFF7" fill-opacity="0.3"/>
<path opacity="0.5" d="M37.191 156.533H29.666V164.068H37.191V156.533Z" fill="#E7EFF7" fill-opacity="0.3"/>
<path opacity="0.5" d="M62.1695 156.533H54.6445V164.068H62.1695V156.533Z" fill="#E7EFF7" fill-opacity="0.3"/>
<path opacity="0.5" d="M74.6578 156.533H67.1328V164.068H74.6578V156.533Z" fill="#E7EFF7" fill-opacity="0.3"/>
<path opacity="0.5" d="M87.1461 156.533H79.6211V164.068H87.1461V156.533Z" fill="#E7EFF7" fill-opacity="0.3"/>
<path opacity="0.5" d="M112.123 156.533H104.598V164.068H112.123V156.533Z" fill="#E7EFF7" fill-opacity="0.3"/>
<path opacity="0.5" d="M124.619 156.533H117.094V164.068H124.619V156.533Z" fill="#E7EFF7" fill-opacity="0.3"/>
<path opacity="0.5" d="M149.595 156.533H142.07V164.068H149.595V156.533Z" fill="#E7EFF7" fill-opacity="0.3"/>
<path opacity="0.5" d="M162.084 156.533H154.559V164.068H162.084V156.533Z" fill="#E7EFF7" fill-opacity="0.3"/>
<path opacity="0.5" d="M187.062 156.533H179.537V164.068H187.062V156.533Z" fill="#E7EFF7" fill-opacity="0.3"/>
<path opacity="0.5" d="M224.529 156.533H217.004V164.068H224.529V156.533Z" fill="#E7EFF7" fill-opacity="0.3"/>
<path opacity="0.5" d="M24.7027 144.066H17.1777V151.601H24.7027V144.066Z" fill="#E7EFF7" fill-opacity="0.3"/>
<path opacity="0.5" d="M37.191 144.066H29.666V151.601H37.191V144.066Z" fill="#E7EFF7" fill-opacity="0.3"/>
<path opacity="0.5" d="M62.1695 144.066H54.6445V151.601H62.1695V144.066Z" fill="#E7EFF7" fill-opacity="0.3"/>
<path opacity="0.5" d="M74.6578 144.066H67.1328V151.601H74.6578V144.066Z" fill="#E7EFF7" fill-opacity="0.3"/>
<path opacity="0.5" d="M87.1461 144.066H79.6211V151.601H87.1461V144.066Z" fill="#E7EFF7" fill-opacity="0.3"/>
<path opacity="0.5" d="M99.6343 144.066H92.1094V151.601H99.6343V144.066Z" fill="#E7EFF7" fill-opacity="0.3"/>
<path opacity="0.5" d="M124.619 144.066H117.094V151.601H124.619V144.066Z" fill="#E7EFF7" fill-opacity="0.3"/>
<path opacity="0.5" d="M137.107 144.066H129.582V151.601H137.107V144.066Z" fill="#E7EFF7" fill-opacity="0.3"/>
<path opacity="0.5" d="M149.595 144.066H142.07V151.601H149.595V144.066Z" fill="#E7EFF7" fill-opacity="0.3"/>
<path opacity="0.5" d="M162.084 144.066H154.559V151.601H162.084V144.066Z" fill="#E7EFF7" fill-opacity="0.3"/>
<path opacity="0.5" d="M187.062 144.066H179.537V151.601H187.062V144.066Z" fill="#E7EFF7" fill-opacity="0.3"/>
<path opacity="0.5" d="M199.55 144.066H192.025V151.601H199.55V144.066Z" fill="#E7EFF7" fill-opacity="0.3"/>
<path opacity="0.5" d="M212.039 144.066H204.514V151.601H212.039V144.066Z" fill="#E7EFF7" fill-opacity="0.3"/>
<path opacity="0.5" d="M12.2144 131.6H4.68945V139.134H12.2144V131.6Z" fill="#E7EFF7" fill-opacity="0.3"/>
<path opacity="0.5" d="M24.7027 131.6H17.1777V139.134H24.7027V131.6Z" fill="#E7EFF7" fill-opacity="0.3"/>
<path opacity="0.5" d="M37.191 131.6H29.666V139.134H37.191V131.6Z" fill="#E7EFF7" fill-opacity="0.3"/>
<path opacity="0.5" d="M62.1695 131.6H54.6445V139.134H62.1695V131.6Z" fill="#E7EFF7" fill-opacity="0.3"/>
<path opacity="0.5" d="M74.6578 131.6H67.1328V139.134H74.6578V131.6Z" fill="#E7EFF7" fill-opacity="0.3"/>
<path opacity="0.5" d="M87.1461 131.6H79.6211V139.134H87.1461V131.6Z" fill="#E7EFF7" fill-opacity="0.3"/>
<path opacity="0.5" d="M112.123 131.6H104.598V139.134H112.123V131.6Z" fill="#E7EFF7" fill-opacity="0.3"/>
<path opacity="0.5" d="M137.107 131.6H129.582V139.134H137.107V131.6Z" fill="#E7EFF7" fill-opacity="0.3"/>
<path opacity="0.5" d="M149.595 131.6H142.07V139.134H149.595V131.6Z" fill="#E7EFF7" fill-opacity="0.3"/>
<path opacity="0.5" d="M174.572 131.6H167.047V139.134H174.572V131.6Z" fill="#E7EFF7" fill-opacity="0.3"/>
<path opacity="0.5" d="M187.062 131.6H179.537V139.134H187.062V131.6Z" fill="#E7EFF7" fill-opacity="0.3"/>
<path opacity="0.5" d="M199.55 131.6H192.025V139.134H199.55V131.6Z" fill="#E7EFF7" fill-opacity="0.3"/>
<path opacity="0.5" d="M212.039 131.6H204.514V139.134H212.039V131.6Z" fill="#E7EFF7" fill-opacity="0.3"/>
<path opacity="0.5" d="M224.529 131.6H217.004V139.134H224.529V131.6Z" fill="#E7EFF7" fill-opacity="0.3"/>
<path opacity="0.45" d="M24.7027 119.121H17.1777V126.656H24.7027V119.121Z" fill="#E7EFF7" fill-opacity="0.3"/>
<path opacity="0.45" d="M62.1695 119.121H54.6445V126.656H62.1695V119.121Z" fill="#E7EFF7" fill-opacity="0.3"/>
<path opacity="0.45" d="M87.1461 119.127H79.6211V126.661H87.1461V119.127Z" fill="#E7EFF7" fill-opacity="0.3"/>
<path opacity="0.45" d="M99.6343 119.127H92.1094V126.661H99.6343V119.127Z" fill="#E7EFF7" fill-opacity="0.3"/>
<path opacity="0.45" d="M112.123 119.127H104.598V126.661H112.123V119.127Z" fill="#E7EFF7" fill-opacity="0.3"/>
<path opacity="0.45" d="M124.613 119.127H117.088V126.661H124.613V119.127Z" fill="#E7EFF7" fill-opacity="0.3"/>
<path opacity="0.45" d="M137.101 119.127H129.576V126.661H137.101V119.127Z" fill="#E7EFF7" fill-opacity="0.3"/>
<path opacity="0.45" d="M149.589 119.127H142.064V126.661H149.589V119.127Z" fill="#E7EFF7" fill-opacity="0.3"/>
<path opacity="0.45" d="M174.572 119.134H167.047V126.668H174.572V119.134Z" fill="#E7EFF7" fill-opacity="0.3"/>
<path opacity="0.45" d="M187.062 119.134H179.537V126.668H187.062V119.134Z" fill="#E7EFF7" fill-opacity="0.3"/>
<path opacity="0.45" d="M224.529 119.134H217.004V126.668H224.529V119.134Z" fill="#E7EFF7" fill-opacity="0.3"/>
<path opacity="0.4" d="M12.2144 106.654H4.68945V114.189H12.2144V106.654Z" fill="#E7EFF7" fill-opacity="0.3"/>
<path opacity="0.4" d="M24.7027 106.654H17.1777V114.189H24.7027V106.654Z" fill="#E7EFF7" fill-opacity="0.3"/>
<path opacity="0.4" d="M37.191 106.654H29.666V114.189H37.191V106.654Z" fill="#E7EFF7" fill-opacity="0.3"/>
<path opacity="0.4" d="M74.6578 106.654H67.1328V114.189H74.6578V106.654Z" fill="#E7EFF7" fill-opacity="0.3"/>
<path opacity="0.4" d="M87.1461 106.661H79.6211V114.196H87.1461V106.661Z" fill="#E7EFF7" fill-opacity="0.3"/>
<path opacity="0.4" d="M99.6343 106.661H92.1094V114.196H99.6343V106.661Z" fill="#E7EFF7" fill-opacity="0.3"/>
<path opacity="0.4" d="M112.123 106.661H104.598V114.196H112.123V106.661Z" fill="#E7EFF7" fill-opacity="0.3"/>
<path opacity="0.4" d="M124.619 106.661H117.094V114.196H124.619V106.661Z" fill="#E7EFF7" fill-opacity="0.3"/>
<path opacity="0.4" d="M137.107 106.661H129.582V114.196H137.107V106.661Z" fill="#E7EFF7" fill-opacity="0.3"/>
<path opacity="0.4" d="M174.572 106.661H167.047V114.196H174.572V106.661Z" fill="#E7EFF7" fill-opacity="0.3"/>
<path opacity="0.4" d="M187.062 106.667H179.537V114.201H187.062V106.667Z" fill="#E7EFF7" fill-opacity="0.3"/>
<path opacity="0.4" d="M199.55 106.667H192.025V114.201H199.55V106.667Z" fill="#E7EFF7" fill-opacity="0.3"/>
<path opacity="0.4" d="M212.039 106.667H204.514V114.201H212.039V106.667Z" fill="#E7EFF7" fill-opacity="0.3"/>
<path opacity="0.4" d="M224.527 106.667H217.002V114.201H224.527V106.667Z" fill="#E7EFF7" fill-opacity="0.3"/>
<path opacity="0.4" d="M12.2144 94.1875H4.68945V101.722H12.2144V94.1875Z" fill="#E7EFF7" fill-opacity="0.3"/>
<path opacity="0.4" d="M37.191 94.1875H29.666V101.722H37.191V94.1875Z" fill="#E7EFF7" fill-opacity="0.3"/>
<path opacity="0.4" d="M62.1695 94.1875H54.6445V101.722H62.1695V94.1875Z" fill="#E7EFF7" fill-opacity="0.3"/>
<path opacity="0.4" d="M74.6637 94.1875H67.1387V101.722H74.6637V94.1875Z" fill="#E7EFF7" fill-opacity="0.3"/>
<path opacity="0.4" d="M99.6402 94.1943H92.1152V101.729H99.6402V94.1943Z" fill="#E7EFF7" fill-opacity="0.3"/>
<path opacity="0.4" d="M124.619 94.1943H117.094V101.729H124.619V94.1943Z" fill="#E7EFF7" fill-opacity="0.3"/>
<path opacity="0.4" d="M149.595 94.1943H142.07V101.729H149.595V94.1943Z" fill="#E7EFF7" fill-opacity="0.3"/>
<path opacity="0.4" d="M162.084 94.1943H154.559V101.729H162.084V94.1943Z" fill="#E7EFF7" fill-opacity="0.3"/>
<path opacity="0.4" d="M187.062 94.2002H179.537V101.735H187.062V94.2002Z" fill="#E7EFF7" fill-opacity="0.3"/>
<path opacity="0.4" d="M212.039 94.2002H204.514V101.735H212.039V94.2002Z" fill="#E7EFF7" fill-opacity="0.3"/>
<path opacity="0.4" d="M224.529 94.2002H217.004V101.735H224.529V94.2002Z" fill="#E7EFF7" fill-opacity="0.3"/>
<path opacity="0.3" d="M24.7027 81.7344H17.1777V89.2688H24.7027V81.7344Z" fill="#E7EFF7" fill-opacity="0.3"/>
<path opacity="0.3" d="M49.6812 81.7344H42.1562V89.2688H49.6812V81.7344Z" fill="#E7EFF7" fill-opacity="0.3"/>
<path opacity="0.3" d="M62.1695 81.7344H54.6445V89.2688H62.1695V81.7344Z" fill="#E7EFF7" fill-opacity="0.3"/>
<path opacity="0.3" d="M74.6578 81.7344H67.1328V89.2688H74.6578V81.7344Z" fill="#E7EFF7" fill-opacity="0.3"/>
<path opacity="0.3" d="M99.6343 81.7344H92.1094V89.2688H99.6343V81.7344Z" fill="#E7EFF7" fill-opacity="0.3"/>
<path opacity="0.3" d="M124.619 81.7344H117.094V89.2688H124.619V81.7344Z" fill="#E7EFF7" fill-opacity="0.3"/>
<path opacity="0.3" d="M137.107 81.7344H129.582V89.2688H137.107V81.7344Z" fill="#E7EFF7" fill-opacity="0.3"/>
<path opacity="0.3" d="M187.062 81.7344H179.537V89.2688H187.062V81.7344Z" fill="#E7EFF7" fill-opacity="0.3"/>
<path opacity="0.3" d="M24.7027 69.2676H17.1777V76.802H24.7027V69.2676Z" fill="#E7EFF7" fill-opacity="0.3"/>
<path opacity="0.3" d="M74.6578 69.2676H67.1328V76.802H74.6578V69.2676Z" fill="#E7EFF7" fill-opacity="0.3"/>
<path opacity="0.3" d="M212.039 69.2676H204.514V76.802H212.039V69.2676Z" fill="#E7EFF7" fill-opacity="0.3"/>
<path opacity="0.3" d="M224.527 69.2676H217.002V76.802H224.527V69.2676Z" fill="#E7EFF7" fill-opacity="0.3"/>
<path opacity="0.25" d="M24.7027 56.8018H17.1777V64.3362H24.7027V56.8018Z" fill="#E7EFF7" fill-opacity="0.3"/>
<path opacity="0.25" d="M62.1695 56.8018H54.6445V64.3362H62.1695V56.8018Z" fill="#E7EFF7" fill-opacity="0.3"/>
<path opacity="0.25" d="M74.6578 56.8018H67.1328V64.3362H74.6578V56.8018Z" fill="#E7EFF7" fill-opacity="0.3"/>
<path opacity="0.25" d="M99.6343 56.8018H92.1094V64.3362H99.6343V56.8018Z" fill="#E7EFF7" fill-opacity="0.3"/>
<path opacity="0.25" d="M112.123 56.8018H104.598V64.3362H112.123V56.8018Z" fill="#E7EFF7" fill-opacity="0.3"/>
<path opacity="0.25" d="M162.084 56.8018H154.559V64.3362H162.084V56.8018Z" fill="#E7EFF7" fill-opacity="0.3"/>
<path opacity="0.25" d="M224.529 56.8018H217.004V64.3362H224.529V56.8018Z" fill="#E7EFF7" fill-opacity="0.3"/>
<path opacity="0.25" d="M12.2144 44.335H4.68945V51.8694H12.2144V44.335Z" fill="#E7EFF7" fill-opacity="0.3"/>
<path opacity="0.25" d="M49.6812 44.335H42.1562V51.8694H49.6812V44.335Z" fill="#E7EFF7" fill-opacity="0.3"/>
<path opacity="0.25" d="M62.1695 44.335H54.6445V51.8694H62.1695V44.335Z" fill="#E7EFF7" fill-opacity="0.3"/>
<path opacity="0.25" d="M99.6343 44.335H92.1094V51.8694H99.6343V44.335Z" fill="#E7EFF7" fill-opacity="0.3"/>
<path opacity="0.25" d="M124.619 44.335H117.094V51.8694H124.619V44.335Z" fill="#E7EFF7" fill-opacity="0.3"/>
<path opacity="0.25" d="M174.574 44.335H167.049V51.8694H174.574V44.335Z" fill="#E7EFF7" fill-opacity="0.3"/>
<path opacity="0.25" d="M212.039 44.335H204.514V51.8694H212.039V44.335Z" fill="#E7EFF7" fill-opacity="0.3"/>
<path opacity="0.25" d="M12.2144 31.8682H4.68945V39.4026H12.2144V31.8682Z" fill="#E7EFF7" fill-opacity="0.3"/>
<path opacity="0.25" d="M74.6578 31.8682H67.1328V39.4026H74.6578V31.8682Z" fill="#E7EFF7" fill-opacity="0.3"/>
<path opacity="0.25" d="M124.619 31.8682H117.094V39.4026H124.619V31.8682Z" fill="#E7EFF7" fill-opacity="0.3"/>
<path opacity="0.25" d="M174.572 31.8682H167.047V39.4026H174.572V31.8682Z" fill="#E7EFF7" fill-opacity="0.3"/>
<path opacity="0.2" d="M37.191 19.4023H29.666V26.9368H37.191V19.4023Z" fill="#E7EFF7" fill-opacity="0.3"/>
<path opacity="0.2" d="M62.1695 19.4023H54.6445V26.9368H62.1695V19.4023Z" fill="#E7EFF7" fill-opacity="0.3"/>
<path opacity="0.2" d="M99.6343 19.4023H92.1094V26.9368H99.6343V19.4023Z" fill="#E7EFF7" fill-opacity="0.3"/>
<path opacity="0.2" d="M112.123 19.4023H104.598V26.9368H112.123V19.4023Z" fill="#E7EFF7" fill-opacity="0.3"/>
<path opacity="0.2" d="M162.084 19.4023H154.559V26.9368H162.084V19.4023Z" fill="#E7EFF7" fill-opacity="0.3"/>
<path opacity="0.2" d="M174.572 19.4023H167.047V26.9368H174.572V19.4023Z" fill="#E7EFF7" fill-opacity="0.3"/>
<path opacity="0.2" d="M187.062 19.4023H179.537V26.9368H187.062V19.4023Z" fill="#E7EFF7" fill-opacity="0.3"/>
<path opacity="0.2" d="M199.55 19.4023H192.025V26.9368H199.55V19.4023Z" fill="#E7EFF7" fill-opacity="0.3"/>
<path opacity="0.2" d="M24.7027 6.93555H17.1777V14.47H24.7027V6.93555Z" fill="#E7EFF7" fill-opacity="0.3"/>
<path opacity="0.2" d="M62.1695 6.93555H54.6445V14.47H62.1695V6.93555Z" fill="#E7EFF7" fill-opacity="0.3"/>
<path opacity="0.2" d="M74.6578 6.93555H67.1328V14.47H74.6578V6.93555Z" fill="#E7EFF7" fill-opacity="0.3"/>
<path opacity="0.2" d="M199.55 6.93555H192.025V14.47H199.55V6.93555Z" fill="#E7EFF7" fill-opacity="0.3"/>
<path opacity="0.1" d="M212.039 6.93555H204.514V14.47H212.039V6.93555Z" fill="#E7EFF7" fill-opacity="0.3"/>
<path opacity="0.2" d="M12.2144 -5.53125H4.68945V2.00319H12.2144V-5.53125Z" fill="#E7EFF7" fill-opacity="0.3"/>
<path opacity="0.2" d="M74.6578 -5.53125H67.1328V2.00319H74.6578V-5.53125Z" fill="#E7EFF7" fill-opacity="0.3"/>
<path opacity="0.2" d="M87.1461 -5.53125H79.6211V2.00319H87.1461V-5.53125Z" fill="#E7EFF7" fill-opacity="0.3"/>
<path opacity="0.2" d="M112.123 -5.53125H104.598V2.00319H112.123V-5.53125Z" fill="#E7EFF7" fill-opacity="0.3"/>
<path opacity="0.1" d="M124.619 -5.53125H117.094V2.00319H124.619V-5.53125Z" fill="#E7EFF7" fill-opacity="0.3"/>
<path opacity="0.1" d="M162.084 -5.53125H154.559V2.00319H162.084V-5.53125Z" fill="#E7EFF7" fill-opacity="0.3"/>
<path opacity="0.2" d="M187.062 -5.53125H179.537V2.00319H187.062V-5.53125Z" fill="#E7EFF7" fill-opacity="0.3"/>
<path opacity="0.1" d="M212.039 -5.53125H204.514V2.00319H212.039V-5.53125Z" fill="#E7EFF7" fill-opacity="0.3"/>
<path opacity="0.65" d="M237.003 181.466H229.479V189H237.003V181.466Z" fill="#E7EFF7" fill-opacity="0.3"/>
<path opacity="0.65" d="M237.003 168.999H229.479V176.533H237.003V168.999Z" fill="#E7EFF7" fill-opacity="0.3"/>
<path opacity="0.65" d="M249.492 168.999H241.967V176.533H249.492V168.999Z" fill="#E7EFF7" fill-opacity="0.3"/>
<path opacity="0.5" d="M237.003 156.533H229.479V164.068H237.003V156.533Z" fill="#E7EFF7" fill-opacity="0.3"/>
<path opacity="0.5" d="M249.492 156.533H241.967V164.068H249.492V156.533Z" fill="#E7EFF7" fill-opacity="0.3"/>
<path opacity="0.5" d="M249.492 144.066H241.967V151.601H249.492V144.066Z" fill="#E7EFF7" fill-opacity="0.3"/>
<path opacity="0.5" d="M237.003 131.6H229.479V139.134H237.003V131.6Z" fill="#E7EFF7" fill-opacity="0.3"/>
<path opacity="0.5" d="M249.492 131.6H241.967V139.134H249.492V131.6Z" fill="#E7EFF7" fill-opacity="0.3"/>
<path opacity="0.4" d="M237.003 106.667H229.479V114.201H237.003V106.667Z" fill="#E7EFF7" fill-opacity="0.3"/>
<path opacity="0.4" d="M249.492 106.667H241.967V114.201H249.492V106.667Z" fill="#E7EFF7" fill-opacity="0.3"/>
<path opacity="0.4" d="M237.003 94.2002H229.479V101.735H237.003V94.2002Z" fill="#E7EFF7" fill-opacity="0.3"/>
<path opacity="0.3" d="M237.003 81.7344H229.479V89.2688H237.003V81.7344Z" fill="#E7EFF7" fill-opacity="0.3"/>
<path opacity="0.25" d="M237.003 56.8018H229.479V64.3362H237.003V56.8018Z" fill="#E7EFF7" fill-opacity="0.3"/>
<path opacity="0.25" d="M237.003 44.335H229.479V51.8694H237.003V44.335Z" fill="#E7EFF7" fill-opacity="0.3"/>
<path opacity="0.25" d="M237.003 31.8682H229.479V39.4026H237.003V31.8682Z" fill="#E7EFF7" fill-opacity="0.3"/>
<path opacity="0.2" d="M237.003 6.93555H229.479V14.47H237.003V6.93555Z" fill="#E7EFF7" fill-opacity="0.3"/>
</g>
<defs>
<clipPath id="clip0_34887_107614">
<rect width="1144" height="394" fill="white" transform="translate(-345 -205)"/>
</clipPath>
</defs>
</svg>
