<svg width="548" height="394" viewBox="0 0 548 394" fill="none" xmlns="http://www.w3.org/2000/svg">
<g clip-path="url(#clip0_34845_114959)">
<mask id="mask0_34845_114959" style="mask-type:luminance" maskUnits="userSpaceOnUse" x="-322" y="-442" width="1145" height="839">
<path d="M-321.008 396.285L822.992 396.285L822.992 -441.581L-321.008 -441.581V396.285Z" fill="white"/>
</mask>
<g mask="url(#mask0_34845_114959)">
<path opacity="0.65" d="M11.2359 386.466H3.71094V394H11.2359V386.466Z" fill="#E7EFF7" fill-opacity="0.3"/>
<path opacity="0.65" d="M36.2125 386.466H28.6875V394H36.2125V386.466Z" fill="#E7EFF7" fill-opacity="0.3"/>
<path opacity="0.65" d="M61.189 386.466H53.6641V394H61.189V386.466Z" fill="#E7EFF7" fill-opacity="0.3"/>
<path opacity="0.65" d="M86.1695 386.466H78.6445V394H86.1695V386.466Z" fill="#E7EFF7" fill-opacity="0.3"/>
<path opacity="0.65" d="M98.6578 386.466H91.1328V394H98.6578V386.466Z" fill="#E7EFF7" fill-opacity="0.3"/>
<path opacity="0.65" d="M148.619 386.466H141.094V394H148.619V386.466Z" fill="#E7EFF7" fill-opacity="0.3"/>
<path opacity="0.65" d="M161.107 386.466H153.582V394H161.107V386.466Z" fill="#E7EFF7" fill-opacity="0.3"/>
<path opacity="0.65" d="M173.595 386.466H166.07V394H173.595V386.466Z" fill="#E7EFF7" fill-opacity="0.3"/>
<path opacity="0.65" d="M186.084 386.466H178.559V394H186.084V386.466Z" fill="#E7EFF7" fill-opacity="0.3"/>
<path opacity="0.65" d="M198.572 386.466H191.047V394H198.572V386.466Z" fill="#E7EFF7" fill-opacity="0.3"/>
<path opacity="0.65" d="M211.064 386.466H203.539V394H211.064V386.466Z" fill="#E7EFF7" fill-opacity="0.3"/>
<path opacity="0.65" d="M223.548 386.466H216.023V394H223.548V386.466Z" fill="#E7EFF7" fill-opacity="0.3"/>
<path opacity="0.65" d="M23.7242 373.999H16.1992V381.533H23.7242V373.999Z" fill="#E7EFF7" fill-opacity="0.3"/>
<path opacity="0.65" d="M36.2125 373.999H28.6875V381.533H36.2125V373.999Z" fill="#E7EFF7" fill-opacity="0.3"/>
<path opacity="0.65" d="M48.7008 373.999H41.1758V381.533H48.7008V373.999Z" fill="#E7EFF7" fill-opacity="0.3"/>
<path opacity="0.65" d="M86.1695 373.999H78.6445V381.533H86.1695V373.999Z" fill="#E7EFF7" fill-opacity="0.3"/>
<path opacity="0.65" d="M148.619 373.999H141.094V381.533H148.619V373.999Z" fill="#E7EFF7" fill-opacity="0.3"/>
<path opacity="0.65" d="M161.107 373.999H153.582V381.533H161.107V373.999Z" fill="#E7EFF7" fill-opacity="0.3"/>
<path opacity="0.65" d="M173.595 373.999H166.07V381.533H173.595V373.999Z" fill="#E7EFF7" fill-opacity="0.3"/>
<path opacity="0.65" d="M186.084 373.999H178.559V381.533H186.084V373.999Z" fill="#E7EFF7" fill-opacity="0.3"/>
<path opacity="0.65" d="M223.548 373.999H216.023V381.533H223.548V373.999Z" fill="#E7EFF7" fill-opacity="0.3"/>
<path opacity="0.5" d="M11.2359 361.533H3.71094V369.068H11.2359V361.533Z" fill="#E7EFF7" fill-opacity="0.3"/>
<path opacity="0.5" d="M48.7047 361.533H41.1797V369.068H48.7047V361.533Z" fill="#E7EFF7" fill-opacity="0.3"/>
<path opacity="0.5" d="M61.189 361.533H53.6641V369.068H61.189V361.533Z" fill="#E7EFF7" fill-opacity="0.3"/>
<path opacity="0.5" d="M86.1695 361.533H78.6445V369.068H86.1695V361.533Z" fill="#E7EFF7" fill-opacity="0.3"/>
<path opacity="0.5" d="M98.6578 361.533H91.1328V369.068H98.6578V361.533Z" fill="#E7EFF7" fill-opacity="0.3"/>
<path opacity="0.5" d="M111.146 361.533H103.621V369.068H111.146V361.533Z" fill="#E7EFF7" fill-opacity="0.3"/>
<path opacity="0.5" d="M136.123 361.533H128.598V369.068H136.123V361.533Z" fill="#E7EFF7" fill-opacity="0.3"/>
<path opacity="0.5" d="M148.619 361.533H141.094V369.068H148.619V361.533Z" fill="#E7EFF7" fill-opacity="0.3"/>
<path opacity="0.5" d="M173.595 361.533H166.07V369.068H173.595V361.533Z" fill="#E7EFF7" fill-opacity="0.3"/>
<path opacity="0.5" d="M186.084 361.533H178.559V369.068H186.084V361.533Z" fill="#E7EFF7" fill-opacity="0.3"/>
<path opacity="0.5" d="M211.064 361.533H203.539V369.068H211.064V361.533Z" fill="#E7EFF7" fill-opacity="0.3"/>
<path opacity="0.5" d="M248.529 361.533H241.004V369.068H248.529V361.533Z" fill="#E7EFF7" fill-opacity="0.3"/>
<path opacity="0.5" d="M11.2359 349.066H3.71094V356.601H11.2359V349.066Z" fill="#E7EFF7" fill-opacity="0.3"/>
<path opacity="0.5" d="M23.7242 349.066H16.1992V356.601H23.7242V349.066Z" fill="#E7EFF7" fill-opacity="0.3"/>
<path opacity="0.5" d="M48.7008 349.066H41.1758V356.601H48.7008V349.066Z" fill="#E7EFF7" fill-opacity="0.3"/>
<path opacity="0.5" d="M61.189 349.066H53.6641V356.601H61.189V349.066Z" fill="#E7EFF7" fill-opacity="0.3"/>
<path opacity="0.5" d="M86.1695 349.066H78.6445V356.601H86.1695V349.066Z" fill="#E7EFF7" fill-opacity="0.3"/>
<path opacity="0.5" d="M98.6578 349.066H91.1328V356.601H98.6578V349.066Z" fill="#E7EFF7" fill-opacity="0.3"/>
<path opacity="0.5" d="M111.146 349.066H103.621V356.601H111.146V349.066Z" fill="#E7EFF7" fill-opacity="0.3"/>
<path opacity="0.5" d="M123.634 349.066H116.109V356.601H123.634V349.066Z" fill="#E7EFF7" fill-opacity="0.3"/>
<path opacity="0.5" d="M148.619 349.066H141.094V356.601H148.619V349.066Z" fill="#E7EFF7" fill-opacity="0.3"/>
<path opacity="0.5" d="M161.107 349.066H153.582V356.601H161.107V349.066Z" fill="#E7EFF7" fill-opacity="0.3"/>
<path opacity="0.5" d="M173.595 349.066H166.07V356.601H173.595V349.066Z" fill="#E7EFF7" fill-opacity="0.3"/>
<path opacity="0.5" d="M186.084 349.066H178.559V356.601H186.084V349.066Z" fill="#E7EFF7" fill-opacity="0.3"/>
<path opacity="0.5" d="M211.064 349.066H203.539V356.601H211.064V349.066Z" fill="#E7EFF7" fill-opacity="0.3"/>
<path opacity="0.5" d="M223.548 349.066H216.023V356.601H223.548V349.066Z" fill="#E7EFF7" fill-opacity="0.3"/>
<path opacity="0.5" d="M236.041 349.066H228.516V356.601H236.041V349.066Z" fill="#E7EFF7" fill-opacity="0.3"/>
<path opacity="0.5" d="M23.7242 336.6H16.1992V344.134H23.7242V336.6Z" fill="#E7EFF7" fill-opacity="0.3"/>
<path opacity="0.5" d="M36.2125 336.6H28.6875V344.134H36.2125V336.6Z" fill="#E7EFF7" fill-opacity="0.3"/>
<path opacity="0.5" d="M48.7047 336.6H41.1797V344.134H48.7047V336.6Z" fill="#E7EFF7" fill-opacity="0.3"/>
<path opacity="0.5" d="M61.189 336.6H53.6641V344.134H61.189V336.6Z" fill="#E7EFF7" fill-opacity="0.3"/>
<path opacity="0.5" d="M86.1695 336.6H78.6445V344.134H86.1695V336.6Z" fill="#E7EFF7" fill-opacity="0.3"/>
<path opacity="0.5" d="M98.6578 336.6H91.1328V344.134H98.6578V336.6Z" fill="#E7EFF7" fill-opacity="0.3"/>
<path opacity="0.5" d="M111.146 336.6H103.621V344.134H111.146V336.6Z" fill="#E7EFF7" fill-opacity="0.3"/>
<path opacity="0.5" d="M136.123 336.6H128.598V344.134H136.123V336.6Z" fill="#E7EFF7" fill-opacity="0.3"/>
<path opacity="0.5" d="M161.107 336.6H153.582V344.134H161.107V336.6Z" fill="#E7EFF7" fill-opacity="0.3"/>
<path opacity="0.5" d="M173.595 336.6H166.07V344.134H173.595V336.6Z" fill="#E7EFF7" fill-opacity="0.3"/>
<path opacity="0.5" d="M198.572 336.6H191.047V344.134H198.572V336.6Z" fill="#E7EFF7" fill-opacity="0.3"/>
<path opacity="0.5" d="M211.064 336.6H203.539V344.134H211.064V336.6Z" fill="#E7EFF7" fill-opacity="0.3"/>
<path opacity="0.5" d="M223.548 336.6H216.023V344.134H223.548V336.6Z" fill="#E7EFF7" fill-opacity="0.3"/>
<path opacity="0.5" d="M236.041 336.6H228.516V344.134H236.041V336.6Z" fill="#E7EFF7" fill-opacity="0.3"/>
<path opacity="0.5" d="M248.529 336.6H241.004V344.134H248.529V336.6Z" fill="#E7EFF7" fill-opacity="0.3"/>
<path opacity="0.45" d="M23.7242 324.121H16.1992V331.656H23.7242V324.121Z" fill="#E7EFF7" fill-opacity="0.3"/>
<path opacity="0.45" d="M48.7047 324.121H41.1797V331.656H48.7047V324.121Z" fill="#E7EFF7" fill-opacity="0.3"/>
<path opacity="0.45" d="M86.1695 324.121H78.6445V331.656H86.1695V324.121Z" fill="#E7EFF7" fill-opacity="0.3"/>
<path opacity="0.45" d="M111.146 324.127H103.621V331.661H111.146V324.127Z" fill="#E7EFF7" fill-opacity="0.3"/>
<path opacity="0.45" d="M123.634 324.127H116.109V331.661H123.634V324.127Z" fill="#E7EFF7" fill-opacity="0.3"/>
<path opacity="0.45" d="M136.123 324.127H128.598V331.661H136.123V324.127Z" fill="#E7EFF7" fill-opacity="0.3"/>
<path opacity="0.45" d="M148.611 324.127H141.086V331.661H148.611V324.127Z" fill="#E7EFF7" fill-opacity="0.3"/>
<path opacity="0.45" d="M161.103 324.127H153.578V331.661H161.103V324.127Z" fill="#E7EFF7" fill-opacity="0.3"/>
<path opacity="0.45" d="M173.587 324.127H166.062V331.661H173.587V324.127Z" fill="#E7EFF7" fill-opacity="0.3"/>
<path opacity="0.45" d="M198.572 324.134H191.047V331.668H198.572V324.134Z" fill="#E7EFF7" fill-opacity="0.3"/>
<path opacity="0.45" d="M211.064 324.134H203.539V331.668H211.064V324.134Z" fill="#E7EFF7" fill-opacity="0.3"/>
<path opacity="0.45" d="M248.529 324.134H241.004V331.668H248.529V324.134Z" fill="#E7EFF7" fill-opacity="0.3"/>
<path opacity="0.4" d="M23.7242 311.654H16.1992V319.189H23.7242V311.654Z" fill="#E7EFF7" fill-opacity="0.3"/>
<path opacity="0.4" d="M36.2125 311.654H28.6875V319.189H36.2125V311.654Z" fill="#E7EFF7" fill-opacity="0.3"/>
<path opacity="0.4" d="M48.7008 311.654H41.1758V319.189H48.7008V311.654Z" fill="#E7EFF7" fill-opacity="0.3"/>
<path opacity="0.4" d="M61.189 311.654H53.6641V319.189H61.189V311.654Z" fill="#E7EFF7" fill-opacity="0.3"/>
<path opacity="0.4" d="M98.6578 311.654H91.1328V319.189H98.6578V311.654Z" fill="#E7EFF7" fill-opacity="0.3"/>
<path opacity="0.4" d="M111.146 311.661H103.621V319.196H111.146V311.661Z" fill="#E7EFF7" fill-opacity="0.3"/>
<path opacity="0.4" d="M123.634 311.661H116.109V319.196H123.634V311.661Z" fill="#E7EFF7" fill-opacity="0.3"/>
<path opacity="0.4" d="M136.123 311.661H128.598V319.196H136.123V311.661Z" fill="#E7EFF7" fill-opacity="0.3"/>
<path opacity="0.4" d="M148.619 311.661H141.094V319.196H148.619V311.661Z" fill="#E7EFF7" fill-opacity="0.3"/>
<path opacity="0.4" d="M161.107 311.661H153.582V319.196H161.107V311.661Z" fill="#E7EFF7" fill-opacity="0.3"/>
<path opacity="0.4" d="M198.572 311.661H191.047V319.196H198.572V311.661Z" fill="#E7EFF7" fill-opacity="0.3"/>
<path opacity="0.4" d="M211.064 311.667H203.539V319.201H211.064V311.667Z" fill="#E7EFF7" fill-opacity="0.3"/>
<path opacity="0.4" d="M223.548 311.667H216.023V319.201H223.548V311.667Z" fill="#E7EFF7" fill-opacity="0.3"/>
<path opacity="0.4" d="M236.041 311.667H228.516V319.201H236.041V311.667Z" fill="#E7EFF7" fill-opacity="0.3"/>
<path opacity="0.4" d="M248.529 311.667H241.004V319.201H248.529V311.667Z" fill="#E7EFF7" fill-opacity="0.3"/>
<path opacity="0.4" d="M23.7242 299.188H16.1992V306.722H23.7242V299.188Z" fill="#E7EFF7" fill-opacity="0.3"/>
<path opacity="0.4" d="M36.2125 299.188H28.6875V306.722H36.2125V299.188Z" fill="#E7EFF7" fill-opacity="0.3"/>
<path opacity="0.4" d="M61.189 299.188H53.6641V306.722H61.189V299.188Z" fill="#E7EFF7" fill-opacity="0.3"/>
<path opacity="0.4" d="M86.1695 299.188H78.6445V306.722H86.1695V299.188Z" fill="#E7EFF7" fill-opacity="0.3"/>
<path opacity="0.4" d="M98.6656 299.188H91.1406V306.722H98.6656V299.188Z" fill="#E7EFF7" fill-opacity="0.3"/>
<path opacity="0.4" d="M123.642 299.194H116.117V306.729H123.642V299.194Z" fill="#E7EFF7" fill-opacity="0.3"/>
<path opacity="0.4" d="M148.619 299.194H141.094V306.729H148.619V299.194Z" fill="#E7EFF7" fill-opacity="0.3"/>
<path opacity="0.4" d="M173.595 299.194H166.07V306.729H173.595V299.194Z" fill="#E7EFF7" fill-opacity="0.3"/>
<path opacity="0.4" d="M186.084 299.194H178.559V306.729H186.084V299.194Z" fill="#E7EFF7" fill-opacity="0.3"/>
<path opacity="0.4" d="M211.064 299.2H203.539V306.735H211.064V299.2Z" fill="#E7EFF7" fill-opacity="0.3"/>
<path opacity="0.4" d="M236.041 299.2H228.516V306.735H236.041V299.2Z" fill="#E7EFF7" fill-opacity="0.3"/>
<path opacity="0.4" d="M248.529 299.2H241.004V306.735H248.529V299.2Z" fill="#E7EFF7" fill-opacity="0.3"/>
<path opacity="0.3" d="M23.7242 286.734H16.1992V294.269H23.7242V286.734Z" fill="#E7EFF7" fill-opacity="0.3"/>
<path opacity="0.3" d="M48.7008 286.734H41.1758V294.269H48.7008V286.734Z" fill="#E7EFF7" fill-opacity="0.3"/>
<path opacity="0.3" d="M73.6812 286.734H66.1562V294.269H73.6812V286.734Z" fill="#E7EFF7" fill-opacity="0.3"/>
<path opacity="0.3" d="M86.1695 286.734H78.6445V294.269H86.1695V286.734Z" fill="#E7EFF7" fill-opacity="0.3"/>
<path opacity="0.3" d="M98.6578 286.734H91.1328V294.269H98.6578V286.734Z" fill="#E7EFF7" fill-opacity="0.3"/>
<path opacity="0.3" d="M123.634 286.734H116.109V294.269H123.634V286.734Z" fill="#E7EFF7" fill-opacity="0.3"/>
<path opacity="0.3" d="M148.619 286.734H141.094V294.269H148.619V286.734Z" fill="#E7EFF7" fill-opacity="0.3"/>
<path opacity="0.3" d="M161.107 286.734H153.582V294.269H161.107V286.734Z" fill="#E7EFF7" fill-opacity="0.3"/>
<path opacity="0.3" d="M211.064 286.734H203.539V294.269H211.064V286.734Z" fill="#E7EFF7" fill-opacity="0.3"/>
<path opacity="0.3" d="M11.2359 274.268H3.71094V281.802H11.2359V274.268Z" fill="#E7EFF7" fill-opacity="0.3"/>
<path opacity="0.3" d="M23.7242 274.268H16.1992V281.802H23.7242V274.268Z" fill="#E7EFF7" fill-opacity="0.3"/>
<path opacity="0.3" d="M48.7008 274.268H41.1758V281.802H48.7008V274.268Z" fill="#E7EFF7" fill-opacity="0.3"/>
<path opacity="0.3" d="M98.6578 274.268H91.1328V281.802H98.6578V274.268Z" fill="#E7EFF7" fill-opacity="0.3"/>
<path opacity="0.3" d="M236.041 274.268H228.516V281.802H236.041V274.268Z" fill="#E7EFF7" fill-opacity="0.3"/>
<path opacity="0.3" d="M248.529 274.268H241.004V281.802H248.529V274.268Z" fill="#E7EFF7" fill-opacity="0.3"/>
<path opacity="0.25" d="M23.7242 261.802H16.1992V269.336H23.7242V261.802Z" fill="#E7EFF7" fill-opacity="0.3"/>
<path opacity="0.25" d="M48.7047 261.802H41.1797V269.336H48.7047V261.802Z" fill="#E7EFF7" fill-opacity="0.3"/>
<path opacity="0.25" d="M86.1695 261.802H78.6445V269.336H86.1695V261.802Z" fill="#E7EFF7" fill-opacity="0.3"/>
<path opacity="0.25" d="M98.6578 261.802H91.1328V269.336H98.6578V261.802Z" fill="#E7EFF7" fill-opacity="0.3"/>
<path opacity="0.25" d="M123.634 261.802H116.109V269.336H123.634V261.802Z" fill="#E7EFF7" fill-opacity="0.3"/>
<path opacity="0.25" d="M136.123 261.802H128.598V269.336H136.123V261.802Z" fill="#E7EFF7" fill-opacity="0.3"/>
<path opacity="0.25" d="M186.084 261.802H178.559V269.336H186.084V261.802Z" fill="#E7EFF7" fill-opacity="0.3"/>
<path opacity="0.25" d="M248.529 261.802H241.004V269.336H248.529V261.802Z" fill="#E7EFF7" fill-opacity="0.3"/>
<path opacity="0.25" d="M11.2359 249.335H3.71094V256.869H11.2359V249.335Z" fill="#E7EFF7" fill-opacity="0.3"/>
<path opacity="0.25" d="M23.7242 249.335H16.1992V256.869H23.7242V249.335Z" fill="#E7EFF7" fill-opacity="0.3"/>
<path opacity="0.25" d="M36.2125 249.335H28.6875V256.869H36.2125V249.335Z" fill="#E7EFF7" fill-opacity="0.3"/>
<path opacity="0.25" d="M73.6812 249.335H66.1562V256.869H73.6812V249.335Z" fill="#E7EFF7" fill-opacity="0.3"/>
<path opacity="0.25" d="M86.1695 249.335H78.6445V256.869H86.1695V249.335Z" fill="#E7EFF7" fill-opacity="0.3"/>
<path opacity="0.25" d="M123.634 249.335H116.109V256.869H123.634V249.335Z" fill="#E7EFF7" fill-opacity="0.3"/>
<path opacity="0.25" d="M148.619 249.335H141.094V256.869H148.619V249.335Z" fill="#E7EFF7" fill-opacity="0.3"/>
<path opacity="0.25" d="M198.572 249.335H191.047V256.869H198.572V249.335Z" fill="#E7EFF7" fill-opacity="0.3"/>
<path opacity="0.25" d="M236.041 249.335H228.516V256.869H236.041V249.335Z" fill="#E7EFF7" fill-opacity="0.3"/>
<path opacity="0.25" d="M23.7242 236.868H16.1992V244.403H23.7242V236.868Z" fill="#E7EFF7" fill-opacity="0.3"/>
<path opacity="0.25" d="M36.2125 236.868H28.6875V244.403H36.2125V236.868Z" fill="#E7EFF7" fill-opacity="0.3"/>
<path opacity="0.25" d="M98.6578 236.868H91.1328V244.403H98.6578V236.868Z" fill="#E7EFF7" fill-opacity="0.3"/>
<path opacity="0.25" d="M148.619 236.868H141.094V244.403H148.619V236.868Z" fill="#E7EFF7" fill-opacity="0.3"/>
<path opacity="0.25" d="M198.572 236.868H191.047V244.403H198.572V236.868Z" fill="#E7EFF7" fill-opacity="0.3"/>
<path opacity="0.2" d="M11.2359 224.402H3.71094V231.937H11.2359V224.402Z" fill="#E7EFF7" fill-opacity="0.3"/>
<path opacity="0.2" d="M61.189 224.402H53.6641V231.937H61.189V224.402Z" fill="#E7EFF7" fill-opacity="0.3"/>
<path opacity="0.2" d="M86.1695 224.402H78.6445V231.937H86.1695V224.402Z" fill="#E7EFF7" fill-opacity="0.3"/>
<path opacity="0.2" d="M123.634 224.402H116.109V231.937H123.634V224.402Z" fill="#E7EFF7" fill-opacity="0.3"/>
<path opacity="0.2" d="M136.123 224.402H128.598V231.937H136.123V224.402Z" fill="#E7EFF7" fill-opacity="0.3"/>
<path opacity="0.2" d="M186.084 224.402H178.559V231.937H186.084V224.402Z" fill="#E7EFF7" fill-opacity="0.3"/>
<path opacity="0.2" d="M198.572 224.402H191.047V231.937H198.572V224.402Z" fill="#E7EFF7" fill-opacity="0.3"/>
<path opacity="0.2" d="M211.064 224.402H203.539V231.937H211.064V224.402Z" fill="#E7EFF7" fill-opacity="0.3"/>
<path opacity="0.2" d="M223.548 224.402H216.023V231.937H223.548V224.402Z" fill="#E7EFF7" fill-opacity="0.3"/>
<path opacity="0.2" d="M11.2359 211.936H3.71094V219.47H11.2359V211.936Z" fill="#E7EFF7" fill-opacity="0.3"/>
<path opacity="0.2" d="M23.7242 211.936H16.1992V219.47H23.7242V211.936Z" fill="#E7EFF7" fill-opacity="0.3"/>
<path opacity="0.2" d="M48.7008 211.936H41.1758V219.47H48.7008V211.936Z" fill="#E7EFF7" fill-opacity="0.3"/>
<path opacity="0.2" d="M86.1695 211.936H78.6445V219.47H86.1695V211.936Z" fill="#E7EFF7" fill-opacity="0.3"/>
<path opacity="0.2" d="M98.6578 211.936H91.1328V219.47H98.6578V211.936Z" fill="#E7EFF7" fill-opacity="0.3"/>
<path opacity="0.2" d="M223.548 211.936H216.023V219.47H223.548V211.936Z" fill="#E7EFF7" fill-opacity="0.3"/>
<path opacity="0.1" d="M236.041 211.936H228.516V219.47H236.041V211.936Z" fill="#E7EFF7" fill-opacity="0.3"/>
<path opacity="0.2" d="M23.7242 199.469H16.1992V207.003H23.7242V199.469Z" fill="#E7EFF7" fill-opacity="0.3"/>
<path opacity="0.2" d="M36.2125 199.469H28.6875V207.003H36.2125V199.469Z" fill="#E7EFF7" fill-opacity="0.3"/>
<path opacity="0.2" d="M98.6578 199.469H91.1328V207.003H98.6578V199.469Z" fill="#E7EFF7" fill-opacity="0.3"/>
<path opacity="0.2" d="M111.146 199.469H103.621V207.003H111.146V199.469Z" fill="#E7EFF7" fill-opacity="0.3"/>
<path opacity="0.2" d="M136.123 199.469H128.598V207.003H136.123V199.469Z" fill="#E7EFF7" fill-opacity="0.3"/>
<path opacity="0.1" d="M148.619 199.469H141.094V207.003H148.619V199.469Z" fill="#E7EFF7" fill-opacity="0.3"/>
<path opacity="0.1" d="M186.084 199.469H178.559V207.003H186.084V199.469Z" fill="#E7EFF7" fill-opacity="0.3"/>
<path opacity="0.2" d="M211.064 199.469H203.539V207.003H211.064V199.469Z" fill="#E7EFF7" fill-opacity="0.3"/>
<path opacity="0.1" d="M236.041 199.469H228.516V207.003H236.041V199.469Z" fill="#E7EFF7" fill-opacity="0.3"/>
<path opacity="0.2" d="M23.7242 187.003H16.1992V194.537H23.7242V187.003Z" fill="#E7EFF7" fill-opacity="0.3"/>
<path opacity="0.2" d="M61.189 187.003H53.6641V194.537H61.189V187.003Z" fill="#E7EFF7" fill-opacity="0.3"/>
<path opacity="0.2" d="M123.634 187.003H116.109V194.537H123.634V187.003Z" fill="#E7EFF7" fill-opacity="0.3"/>
<path opacity="0.1" d="M211.064 187.003H203.539V194.537H211.064V187.003Z" fill="#E7EFF7" fill-opacity="0.3"/>
<path opacity="0.15" d="M11.2359 174.536H3.71094V182.071H11.2359V174.536Z" fill="#E7EFF7" fill-opacity="0.3"/>
<path opacity="0.15" d="M48.7008 174.536H41.1758V182.071H48.7008V174.536Z" fill="#E7EFF7" fill-opacity="0.3"/>
<path opacity="0.15" d="M111.146 174.536H103.621V182.071H111.146V174.536Z" fill="#E7EFF7" fill-opacity="0.3"/>
<path opacity="0.05" d="M223.548 174.536H216.023V182.071H223.548V174.536Z" fill="#E7EFF7" fill-opacity="0.3"/>
<path opacity="0.15" d="M23.7242 162.07H16.1992V169.605H23.7242V162.07Z" fill="#E7EFF7" fill-opacity="0.3"/>
<path opacity="0.15" d="M48.7047 162.07H41.1797V169.605H48.7047V162.07Z" fill="#E7EFF7" fill-opacity="0.3"/>
<path opacity="0.15" d="M73.6812 162.07H66.1562V169.605H73.6812V162.07Z" fill="#E7EFF7" fill-opacity="0.3"/>
<path opacity="0.15" d="M98.6578 162.07H91.1328V169.605H98.6578V162.07Z" fill="#E7EFF7" fill-opacity="0.3"/>
<path opacity="0.15" d="M136.123 162.07H128.598V169.605H136.123V162.07Z" fill="#E7EFF7" fill-opacity="0.3"/>
<path opacity="0.1" d="M148.619 162.07H141.094V169.605H148.619V162.07Z" fill="#E7EFF7" fill-opacity="0.3"/>
<path opacity="0.15" d="M73.6812 149.604H66.1562V157.138H73.6812V149.604Z" fill="#E7EFF7" fill-opacity="0.3"/>
<path opacity="0.15" d="M86.1695 149.604H78.6445V157.138H86.1695V149.604Z" fill="#E7EFF7" fill-opacity="0.3"/>
<path opacity="0.05" d="M136.123 149.604H128.598V157.138H136.123V149.604Z" fill="#E7EFF7" fill-opacity="0.3"/>
<path opacity="0.15" d="M48.7008 137.131H41.1758V144.665H48.7008V137.131Z" fill="#E7EFF7" fill-opacity="0.3"/>
<path opacity="0.15" d="M86.1695 137.131H78.6445V144.665H86.1695V137.131Z" fill="#E7EFF7" fill-opacity="0.3"/>
<path opacity="0.15" d="M11.2359 124.664H3.71094V132.199H11.2359V124.664Z" fill="#E7EFF7" fill-opacity="0.3"/>
<path opacity="0.15" d="M61.189 124.664H53.6641V132.199H61.189V124.664Z" fill="#E7EFF7" fill-opacity="0.3"/>
<path opacity="0.1" d="M23.7242 112.198H16.1992V119.733H23.7242V112.198Z" fill="#E7EFF7" fill-opacity="0.3"/>
<path opacity="0.1" d="M73.6812 99.7314H66.1562V107.266H73.6812V99.7314Z" fill="#E7EFF7" fill-opacity="0.3"/>
<path opacity="0.05" d="M48.7047 74.7988H41.1797V82.3333H48.7047V74.7988Z" fill="#E7EFF7" fill-opacity="0.3"/>
<path opacity="0.65" d="M261.002 386.466H253.477V394H261.002V386.466Z" fill="#E7EFF7" fill-opacity="0.3"/>
<path opacity="0.65" d="M298.47 386.466H290.945V394H298.47V386.466Z" fill="#E7EFF7" fill-opacity="0.3"/>
<path opacity="0.65" d="M310.959 386.466H303.434V394H310.959V386.466Z" fill="#E7EFF7" fill-opacity="0.3"/>
<path opacity="0.65" d="M323.447 386.466H315.922V394H323.447V386.466Z" fill="#E7EFF7" fill-opacity="0.3"/>
<path opacity="0.65" d="M348.423 386.466H340.898V394H348.423V386.466Z" fill="#E7EFF7" fill-opacity="0.3"/>
<path opacity="0.65" d="M360.912 386.466H353.387V394H360.912V386.466Z" fill="#E7EFF7" fill-opacity="0.3"/>
<path opacity="0.65" d="M398.377 386.466H390.852V394H398.377V386.466Z" fill="#E7EFF7" fill-opacity="0.3"/>
<path opacity="0.65" d="M460.822 386.466H453.297V394H460.822V386.466Z" fill="#E7EFF7" fill-opacity="0.3"/>
<path opacity="0.65" d="M510.775 386.466H503.25V394H510.775V386.466Z" fill="#E7EFF7" fill-opacity="0.3"/>
<path opacity="0.65" d="M523.267 386.466H515.742V394H523.267V386.466Z" fill="#E7EFF7" fill-opacity="0.3"/>
<path opacity="0.65" d="M548.244 386.466H540.719V394H548.244V386.466Z" fill="#E7EFF7" fill-opacity="0.3"/>
<path opacity="0.65" d="M261.005 373.999H253.48V381.533H261.005V373.999Z" fill="#E7EFF7" fill-opacity="0.3"/>
<path opacity="0.65" d="M273.494 373.999H265.969V381.533H273.494V373.999Z" fill="#E7EFF7" fill-opacity="0.3"/>
<path opacity="0.65" d="M298.47 373.999H290.945V381.533H298.47V373.999Z" fill="#E7EFF7" fill-opacity="0.3"/>
<path opacity="0.65" d="M310.959 373.999H303.434V381.533H310.959V373.999Z" fill="#E7EFF7" fill-opacity="0.3"/>
<path opacity="0.65" d="M323.447 373.999H315.922V381.533H323.447V373.999Z" fill="#E7EFF7" fill-opacity="0.3"/>
<path opacity="0.65" d="M335.935 373.999H328.41V381.533H335.935V373.999Z" fill="#E7EFF7" fill-opacity="0.3"/>
<path opacity="0.65" d="M360.912 373.999H353.387V381.533H360.912V373.999Z" fill="#E7EFF7" fill-opacity="0.3"/>
<path opacity="0.65" d="M373.4 373.999H365.875V381.533H373.4V373.999Z" fill="#E7EFF7" fill-opacity="0.3"/>
<path opacity="0.65" d="M410.869 373.999H403.344V381.533H410.869V373.999Z" fill="#E7EFF7" fill-opacity="0.3"/>
<path opacity="0.65" d="M423.357 373.999H415.832V381.533H423.357V373.999Z" fill="#E7EFF7" fill-opacity="0.3"/>
<path opacity="0.65" d="M448.334 373.999H440.809V381.533H448.334V373.999Z" fill="#E7EFF7" fill-opacity="0.3"/>
<path opacity="0.65" d="M460.822 373.999H453.297V381.533H460.822V373.999Z" fill="#E7EFF7" fill-opacity="0.3"/>
<path opacity="0.65" d="M510.779 373.999H503.254V381.533H510.779V373.999Z" fill="#E7EFF7" fill-opacity="0.3"/>
<path opacity="0.5" d="M261.002 361.533H253.477V369.068H261.002V361.533Z" fill="#E7EFF7" fill-opacity="0.3"/>
<path opacity="0.5" d="M273.494 361.533H265.969V369.068H273.494V361.533Z" fill="#E7EFF7" fill-opacity="0.3"/>
<path opacity="0.5" d="M285.982 361.533H278.457V369.068H285.982V361.533Z" fill="#E7EFF7" fill-opacity="0.3"/>
<path opacity="0.5" d="M310.959 361.533H303.434V369.068H310.959V361.533Z" fill="#E7EFF7" fill-opacity="0.3"/>
<path opacity="0.5" d="M323.447 361.533H315.922V369.068H323.447V361.533Z" fill="#E7EFF7" fill-opacity="0.3"/>
<path opacity="0.5" d="M335.935 361.533H328.41V369.068H335.935V361.533Z" fill="#E7EFF7" fill-opacity="0.3"/>
<path opacity="0.5" d="M360.912 361.533H353.387V369.068H360.912V361.533Z" fill="#E7EFF7" fill-opacity="0.3"/>
<path opacity="0.5" d="M423.357 361.533H415.832V369.068H423.357V361.533Z" fill="#E7EFF7" fill-opacity="0.3"/>
<path opacity="0.5" d="M473.31 361.533H465.785V369.068H473.31V361.533Z" fill="#E7EFF7" fill-opacity="0.3"/>
<path opacity="0.5" d="M510.775 361.533H503.25V369.068H510.775V361.533Z" fill="#E7EFF7" fill-opacity="0.3"/>
<path opacity="0.5" d="M535.756 361.533H528.23V369.068H535.756V361.533Z" fill="#E7EFF7" fill-opacity="0.3"/>
<path opacity="0.5" d="M273.494 349.066H265.969V356.601H273.494V349.066Z" fill="#E7EFF7" fill-opacity="0.3"/>
<path opacity="0.5" d="M310.959 349.066H303.434V356.601H310.959V349.066Z" fill="#E7EFF7" fill-opacity="0.3"/>
<path opacity="0.5" d="M323.447 349.066H315.922V356.601H323.447V349.066Z" fill="#E7EFF7" fill-opacity="0.3"/>
<path opacity="0.5" d="M335.935 349.066H328.41V356.601H335.935V349.066Z" fill="#E7EFF7" fill-opacity="0.3"/>
<path opacity="0.5" d="M360.912 349.066H353.387V356.601H360.912V349.066Z" fill="#E7EFF7" fill-opacity="0.3"/>
<path opacity="0.5" d="M373.4 349.066H365.875V356.601H373.4V349.066Z" fill="#E7EFF7" fill-opacity="0.3"/>
<path opacity="0.5" d="M410.869 349.066H403.344V356.601H410.869V349.066Z" fill="#E7EFF7" fill-opacity="0.3"/>
<path opacity="0.5" d="M423.357 349.066H415.832V356.601H423.357V349.066Z" fill="#E7EFF7" fill-opacity="0.3"/>
<path opacity="0.5" d="M448.334 349.066H440.809V356.601H448.334V349.066Z" fill="#E7EFF7" fill-opacity="0.3"/>
<path opacity="0.5" d="M460.822 349.066H453.297V356.601H460.822V349.066Z" fill="#E7EFF7" fill-opacity="0.3"/>
<path opacity="0.5" d="M473.31 349.066H465.785V356.601H473.31V349.066Z" fill="#E7EFF7" fill-opacity="0.3"/>
<path opacity="0.5" d="M498.291 349.066H490.766V356.601H498.291V349.066Z" fill="#E7EFF7" fill-opacity="0.3"/>
<path opacity="0.5" d="M261.002 336.6H253.477V344.134H261.002V336.6Z" fill="#E7EFF7" fill-opacity="0.3"/>
<path opacity="0.5" d="M273.494 336.6H265.969V344.134H273.494V336.6Z" fill="#E7EFF7" fill-opacity="0.3"/>
<path opacity="0.5" d="M323.447 336.6H315.922V344.134H323.447V336.6Z" fill="#E7EFF7" fill-opacity="0.3"/>
<path opacity="0.5" d="M360.912 336.6H353.387V344.134H360.912V336.6Z" fill="#E7EFF7" fill-opacity="0.3"/>
<path opacity="0.5" d="M373.4 336.6H365.875V344.134H373.4V336.6Z" fill="#E7EFF7" fill-opacity="0.3"/>
<path opacity="0.5" d="M410.869 336.6H403.344V344.134H410.869V336.6Z" fill="#E7EFF7" fill-opacity="0.3"/>
<path opacity="0.5" d="M448.334 336.6H440.809V344.134H448.334V336.6Z" fill="#E7EFF7" fill-opacity="0.3"/>
<path opacity="0.5" d="M473.31 336.6H465.785V344.134H473.31V336.6Z" fill="#E7EFF7" fill-opacity="0.3"/>
<path opacity="0.5" d="M485.798 336.6H478.273V344.134H485.798V336.6Z" fill="#E7EFF7" fill-opacity="0.3"/>
<path opacity="0.5" d="M498.291 336.6H490.766V344.134H498.291V336.6Z" fill="#E7EFF7" fill-opacity="0.3"/>
<path opacity="0.5" d="M510.775 336.6H503.25V344.134H510.775V336.6Z" fill="#E7EFF7" fill-opacity="0.3"/>
<path opacity="0.5" d="M523.267 336.6H515.742V344.134H523.267V336.6Z" fill="#E7EFF7" fill-opacity="0.3"/>
<path opacity="0.45" d="M310.959 324.14H303.434V331.674H310.959V324.14Z" fill="#E7EFF7" fill-opacity="0.3"/>
<path opacity="0.45" d="M323.447 324.14H315.922V331.674H323.447V324.14Z" fill="#E7EFF7" fill-opacity="0.3"/>
<path opacity="0.45" d="M360.912 324.14H353.387V331.674H360.912V324.14Z" fill="#E7EFF7" fill-opacity="0.3"/>
<path opacity="0.45" d="M398.377 324.146H390.852V331.681H398.377V324.146Z" fill="#E7EFF7" fill-opacity="0.3"/>
<path opacity="0.45" d="M410.869 324.146H403.344V331.681H410.869V324.146Z" fill="#E7EFF7" fill-opacity="0.3"/>
<path opacity="0.45" d="M423.357 324.146H415.832V331.681H423.357V324.146Z" fill="#E7EFF7" fill-opacity="0.3"/>
<path opacity="0.45" d="M448.334 324.146H440.809V331.681H448.334V324.146Z" fill="#E7EFF7" fill-opacity="0.3"/>
<path opacity="0.45" d="M485.798 324.152H478.273V331.687H485.798V324.152Z" fill="#E7EFF7" fill-opacity="0.3"/>
<path opacity="0.45" d="M510.779 324.152H503.254V331.687H510.779V324.152Z" fill="#E7EFF7" fill-opacity="0.3"/>
<path opacity="0.45" d="M523.267 324.152H515.742V331.687H523.267V324.152Z" fill="#E7EFF7" fill-opacity="0.3"/>
<path opacity="0.45" d="M535.756 324.152H528.23V331.687H535.756V324.152Z" fill="#E7EFF7" fill-opacity="0.3"/>
<path opacity="0.4" d="M261.005 311.667H253.48V319.201H261.005V311.667Z" fill="#E7EFF7" fill-opacity="0.3"/>
<path opacity="0.4" d="M273.494 311.667H265.969V319.201H273.494V311.667Z" fill="#E7EFF7" fill-opacity="0.3"/>
<path opacity="0.4" d="M310.959 311.674H303.434V319.208H310.959V311.674Z" fill="#E7EFF7" fill-opacity="0.3"/>
<path opacity="0.4" d="M323.447 311.674H315.922V319.208H323.447V311.674Z" fill="#E7EFF7" fill-opacity="0.3"/>
<path opacity="0.4" d="M335.935 311.674H328.41V319.208H335.935V311.674Z" fill="#E7EFF7" fill-opacity="0.3"/>
<path opacity="0.4" d="M360.912 311.674H353.387V319.208H360.912V311.674Z" fill="#E7EFF7" fill-opacity="0.3"/>
<path opacity="0.4" d="M373.4 311.674H365.875V319.208H373.4V311.674Z" fill="#E7EFF7" fill-opacity="0.3"/>
<path opacity="0.4" d="M423.357 311.68H415.832V319.214H423.357V311.68Z" fill="#E7EFF7" fill-opacity="0.3"/>
<path opacity="0.4" d="M460.822 311.68H453.297V319.214H460.822V311.68Z" fill="#E7EFF7" fill-opacity="0.3"/>
<path opacity="0.4" d="M473.31 311.686H465.785V319.22H473.31V311.686Z" fill="#E7EFF7" fill-opacity="0.3"/>
<path opacity="0.4" d="M535.756 311.686H528.23V319.22H535.756V311.686Z" fill="#E7EFF7" fill-opacity="0.3"/>
<path opacity="0.4" d="M261.002 299.2H253.477V306.735H261.002V299.2Z" fill="#E7EFF7" fill-opacity="0.3"/>
<path opacity="0.4" d="M285.982 299.2H278.457V306.735H285.982V299.2Z" fill="#E7EFF7" fill-opacity="0.3"/>
<path opacity="0.4" d="M310.959 299.207H303.434V306.741H310.959V299.207Z" fill="#E7EFF7" fill-opacity="0.3"/>
<path opacity="0.4" d="M335.935 299.207H328.41V306.741H335.935V299.207Z" fill="#E7EFF7" fill-opacity="0.3"/>
<path opacity="0.4" d="M360.912 299.207H353.387V306.741H360.912V299.207Z" fill="#E7EFF7" fill-opacity="0.3"/>
<path opacity="0.4" d="M373.4 299.207H365.875V306.741H373.4V299.207Z" fill="#E7EFF7" fill-opacity="0.3"/>
<path opacity="0.4" d="M385.892 299.213H378.367V306.747H385.892V299.213Z" fill="#E7EFF7" fill-opacity="0.3"/>
<path opacity="0.4" d="M398.377 299.213H390.852V306.747H398.377V299.213Z" fill="#E7EFF7" fill-opacity="0.3"/>
<path opacity="0.4" d="M410.869 299.213H403.344V306.747H410.869V299.213Z" fill="#E7EFF7" fill-opacity="0.3"/>
<path opacity="0.4" d="M448.334 299.213H440.809V306.747H448.334V299.213Z" fill="#E7EFF7" fill-opacity="0.3"/>
<path opacity="0.4" d="M460.822 299.213H453.297V306.747H460.822V299.213Z" fill="#E7EFF7" fill-opacity="0.3"/>
<path opacity="0.4" d="M473.31 299.213H465.785V306.747H473.31V299.213Z" fill="#E7EFF7" fill-opacity="0.3"/>
<path opacity="0.4" d="M485.798 299.22H478.273V306.754H485.798V299.22Z" fill="#E7EFF7" fill-opacity="0.3"/>
<path opacity="0.4" d="M510.779 299.22H503.254V306.754H510.779V299.22Z" fill="#E7EFF7" fill-opacity="0.3"/>
<path opacity="0.4" d="M523.271 299.22H515.746V306.754H523.271V299.22Z" fill="#E7EFF7" fill-opacity="0.3"/>
<path opacity="0.3" d="M261.005 286.734H253.48V294.269H261.005V286.734Z" fill="#E7EFF7" fill-opacity="0.3"/>
<path opacity="0.3" d="M298.47 286.734H290.945V294.269H298.47V286.734Z" fill="#E7EFF7" fill-opacity="0.3"/>
<path opacity="0.3" d="M310.959 286.734H303.434V294.269H310.959V286.734Z" fill="#E7EFF7" fill-opacity="0.3"/>
<path opacity="0.3" d="M335.935 286.734H328.41V294.269H335.935V286.734Z" fill="#E7EFF7" fill-opacity="0.3"/>
<path opacity="0.3" d="M385.892 286.734H378.367V294.269H385.892V286.734Z" fill="#E7EFF7" fill-opacity="0.3"/>
<path opacity="0.3" d="M398.377 286.734H390.852V294.269H398.377V286.734Z" fill="#E7EFF7" fill-opacity="0.3"/>
<path opacity="0.3" d="M423.357 286.734H415.832V294.269H423.357V286.734Z" fill="#E7EFF7" fill-opacity="0.3"/>
<path opacity="0.3" d="M460.822 286.734H453.297V294.269H460.822V286.734Z" fill="#E7EFF7" fill-opacity="0.3"/>
<path opacity="0.3" d="M485.798 286.734H478.273V294.269H485.798V286.734Z" fill="#E7EFF7" fill-opacity="0.3"/>
<path opacity="0.3" d="M498.291 286.734H490.766V294.269H498.291V286.734Z" fill="#E7EFF7" fill-opacity="0.3"/>
<path opacity="0.3" d="M510.779 286.734H503.254V294.269H510.779V286.734Z" fill="#E7EFF7" fill-opacity="0.3"/>
<path opacity="0.3" d="M535.756 286.734H528.23V294.269H535.756V286.734Z" fill="#E7EFF7" fill-opacity="0.3"/>
<path opacity="0.3" d="M285.982 274.268H278.457V281.802H285.982V274.268Z" fill="#E7EFF7" fill-opacity="0.3"/>
<path opacity="0.3" d="M310.959 274.268H303.434V281.802H310.959V274.268Z" fill="#E7EFF7" fill-opacity="0.3"/>
<path opacity="0.3" d="M323.447 274.268H315.922V281.802H323.447V274.268Z" fill="#E7EFF7" fill-opacity="0.3"/>
<path opacity="0.3" d="M335.935 274.268H328.41V281.802H335.935V274.268Z" fill="#E7EFF7" fill-opacity="0.3"/>
<path opacity="0.3" d="M360.912 274.268H353.387V281.802H360.912V274.268Z" fill="#E7EFF7" fill-opacity="0.3"/>
<path opacity="0.3" d="M373.4 274.268H365.875V281.802H373.4V274.268Z" fill="#E7EFF7" fill-opacity="0.3"/>
<path opacity="0.3" d="M385.892 274.268H378.367V281.802H385.892V274.268Z" fill="#E7EFF7" fill-opacity="0.3"/>
<path opacity="0.3" d="M398.377 274.268H390.852V281.802H398.377V274.268Z" fill="#E7EFF7" fill-opacity="0.3"/>
<path opacity="0.3" d="M410.869 274.268H403.344V281.802H410.869V274.268Z" fill="#E7EFF7" fill-opacity="0.3"/>
<path opacity="0.3" d="M448.334 274.268H440.809V281.802H448.334V274.268Z" fill="#E7EFF7" fill-opacity="0.3"/>
<path opacity="0.3" d="M460.822 274.268H453.297V281.802H460.822V274.268Z" fill="#E7EFF7" fill-opacity="0.3"/>
<path opacity="0.3" d="M473.31 274.268H465.785V281.802H473.31V274.268Z" fill="#E7EFF7" fill-opacity="0.3"/>
<path opacity="0.3" d="M485.798 274.268H478.273V281.802H485.798V274.268Z" fill="#E7EFF7" fill-opacity="0.3"/>
<path opacity="0.3" d="M510.779 274.268H503.254V281.802H510.779V274.268Z" fill="#E7EFF7" fill-opacity="0.3"/>
<path opacity="0.3" d="M535.756 274.268H528.23V281.802H535.756V274.268Z" fill="#E7EFF7" fill-opacity="0.3"/>
<path opacity="0.25" d="M261.002 261.802H253.477V269.336H261.002V261.802Z" fill="#E7EFF7" fill-opacity="0.3"/>
<path opacity="0.25" d="M285.982 261.802H278.457V269.336H285.982V261.802Z" fill="#E7EFF7" fill-opacity="0.3"/>
<path opacity="0.25" d="M298.47 261.802H290.945V269.336H298.47V261.802Z" fill="#E7EFF7" fill-opacity="0.3"/>
<path opacity="0.25" d="M310.959 261.802H303.434V269.336H310.959V261.802Z" fill="#E7EFF7" fill-opacity="0.3"/>
<path opacity="0.25" d="M323.447 261.802H315.922V269.336H323.447V261.802Z" fill="#E7EFF7" fill-opacity="0.3"/>
<path opacity="0.25" d="M348.423 261.802H340.898V269.336H348.423V261.802Z" fill="#E7EFF7" fill-opacity="0.3"/>
<path opacity="0.25" d="M385.892 261.802H378.367V269.336H385.892V261.802Z" fill="#E7EFF7" fill-opacity="0.3"/>
<path opacity="0.25" d="M410.869 261.802H403.344V269.336H410.869V261.802Z" fill="#E7EFF7" fill-opacity="0.3"/>
<path opacity="0.25" d="M423.357 261.802H415.832V269.336H423.357V261.802Z" fill="#E7EFF7" fill-opacity="0.3"/>
<path opacity="0.25" d="M460.822 261.802H453.297V269.336H460.822V261.802Z" fill="#E7EFF7" fill-opacity="0.3"/>
<path opacity="0.25" d="M473.31 261.802H465.785V269.336H473.31V261.802Z" fill="#E7EFF7" fill-opacity="0.3"/>
<path opacity="0.25" d="M498.291 261.802H490.766V269.336H498.291V261.802Z" fill="#E7EFF7" fill-opacity="0.3"/>
<path opacity="0.25" d="M535.756 261.802H528.23V269.336H535.756V261.802Z" fill="#E7EFF7" fill-opacity="0.3"/>
<path opacity="0.25" d="M261.005 249.335H253.48V256.869H261.005V249.335Z" fill="#E7EFF7" fill-opacity="0.3"/>
<path opacity="0.25" d="M285.982 249.335H278.457V256.869H285.982V249.335Z" fill="#E7EFF7" fill-opacity="0.3"/>
<path opacity="0.25" d="M323.447 249.335H315.922V256.869H323.447V249.335Z" fill="#E7EFF7" fill-opacity="0.3"/>
<path opacity="0.25" d="M348.423 249.335H340.898V256.869H348.423V249.335Z" fill="#E7EFF7" fill-opacity="0.3"/>
<path opacity="0.25" d="M360.912 249.335H353.387V256.869H360.912V249.335Z" fill="#E7EFF7" fill-opacity="0.3"/>
<path opacity="0.25" d="M398.377 249.335H390.852V256.869H398.377V249.335Z" fill="#E7EFF7" fill-opacity="0.3"/>
<path opacity="0.25" d="M473.31 249.335H465.785V256.869H473.31V249.335Z" fill="#E7EFF7" fill-opacity="0.3"/>
<path opacity="0.25" d="M485.798 249.335H478.273V256.869H485.798V249.335Z" fill="#E7EFF7" fill-opacity="0.3"/>
<path opacity="0.25" d="M510.779 249.335H503.254V256.869H510.779V249.335Z" fill="#E7EFF7" fill-opacity="0.3"/>
<path opacity="0.25" d="M523.267 249.335H515.742V256.869H523.267V249.335Z" fill="#E7EFF7" fill-opacity="0.3"/>
<path opacity="0.25" d="M261.002 236.868H253.477V244.403H261.002V236.868Z" fill="#E7EFF7" fill-opacity="0.3"/>
<path opacity="0.25" d="M298.47 236.868H290.945V244.403H298.47V236.868Z" fill="#E7EFF7" fill-opacity="0.3"/>
<path opacity="0.25" d="M310.959 236.868H303.434V244.403H310.959V236.868Z" fill="#E7EFF7" fill-opacity="0.3"/>
<path opacity="0.25" d="M385.892 236.868H378.367V244.403H385.892V236.868Z" fill="#E7EFF7" fill-opacity="0.3"/>
<path opacity="0.25" d="M398.377 236.868H390.852V244.403H398.377V236.868Z" fill="#E7EFF7" fill-opacity="0.3"/>
<path opacity="0.25" d="M410.869 236.868H403.344V244.403H410.869V236.868Z" fill="#E7EFF7" fill-opacity="0.3"/>
<path opacity="0.25" d="M423.357 236.868H415.832V244.403H423.357V236.868Z" fill="#E7EFF7" fill-opacity="0.3"/>
<path opacity="0.25" d="M460.822 236.868H453.297V244.403H460.822V236.868Z" fill="#E7EFF7" fill-opacity="0.3"/>
<path opacity="0.25" d="M473.31 236.868H465.785V244.403H473.31V236.868Z" fill="#E7EFF7" fill-opacity="0.3"/>
<path opacity="0.25" d="M498.291 236.868H490.766V244.403H498.291V236.868Z" fill="#E7EFF7" fill-opacity="0.3"/>
<path opacity="0.25" d="M510.775 236.868H503.25V244.403H510.775V236.868Z" fill="#E7EFF7" fill-opacity="0.3"/>
<path opacity="0.25" d="M535.756 236.868H528.23V244.403H535.756V236.868Z" fill="#E7EFF7" fill-opacity="0.3"/>
<path opacity="0.25" d="M548.244 236.868H540.719V244.403H548.244V236.868Z" fill="#E7EFF7" fill-opacity="0.3"/>
<path opacity="0.2" d="M298.47 224.402H290.945V231.937H298.47V224.402Z" fill="#E7EFF7" fill-opacity="0.3"/>
<path opacity="0.2" d="M310.959 224.402H303.434V231.937H310.959V224.402Z" fill="#E7EFF7" fill-opacity="0.3"/>
<path opacity="0.2" d="M323.447 224.402H315.922V231.937H323.447V224.402Z" fill="#E7EFF7" fill-opacity="0.3"/>
<path opacity="0.2" d="M348.423 224.402H340.898V231.937H348.423V224.402Z" fill="#E7EFF7" fill-opacity="0.3"/>
<path opacity="0.2" d="M385.892 224.402H378.367V231.937H385.892V224.402Z" fill="#E7EFF7" fill-opacity="0.3"/>
<path opacity="0.2" d="M423.357 224.402H415.832V231.937H423.357V224.402Z" fill="#E7EFF7" fill-opacity="0.3"/>
<path opacity="0.2" d="M448.334 224.402H440.809V231.937H448.334V224.402Z" fill="#E7EFF7" fill-opacity="0.3"/>
<path opacity="0.2" d="M460.822 224.402H453.297V231.937H460.822V224.402Z" fill="#E7EFF7" fill-opacity="0.3"/>
<path opacity="0.2" d="M473.31 224.402H465.785V231.937H473.31V224.402Z" fill="#E7EFF7" fill-opacity="0.3"/>
<path opacity="0.2" d="M498.291 224.402H490.766V231.937H498.291V224.402Z" fill="#E7EFF7" fill-opacity="0.3"/>
<path opacity="0.2" d="M548.244 224.402H540.719V231.937H548.244V224.402Z" fill="#E7EFF7" fill-opacity="0.3"/>
<path opacity="0.2" d="M261.005 211.936H253.48V219.47H261.005V211.936Z" fill="#E7EFF7" fill-opacity="0.3"/>
<path opacity="0.2" d="M335.935 211.936H328.41V219.47H335.935V211.936Z" fill="#E7EFF7" fill-opacity="0.3"/>
<path opacity="0.2" d="M360.912 211.936H353.387V219.47H360.912V211.936Z" fill="#E7EFF7" fill-opacity="0.3"/>
<path opacity="0.2" d="M373.4 211.936H365.875V219.47H373.4V211.936Z" fill="#E7EFF7" fill-opacity="0.3"/>
<path opacity="0.2" d="M410.869 211.936H403.344V219.47H410.869V211.936Z" fill="#E7EFF7" fill-opacity="0.3"/>
<path opacity="0.2" d="M448.334 211.936H440.809V219.47H448.334V211.936Z" fill="#E7EFF7" fill-opacity="0.3"/>
<path opacity="0.2" d="M460.822 211.936H453.297V219.47H460.822V211.936Z" fill="#E7EFF7" fill-opacity="0.3"/>
<path opacity="0.2" d="M485.798 211.936H478.273V219.47H485.798V211.936Z" fill="#E7EFF7" fill-opacity="0.3"/>
<path opacity="0.2" d="M523.267 211.936H515.742V219.47H523.267V211.936Z" fill="#E7EFF7" fill-opacity="0.3"/>
<path opacity="0.2" d="M535.756 211.936H528.23V219.47H535.756V211.936Z" fill="#E7EFF7" fill-opacity="0.3"/>
<path opacity="0.2" d="M548.244 211.936H540.719V219.47H548.244V211.936Z" fill="#E7EFF7" fill-opacity="0.3"/>
<path opacity="0.1" d="M298.47 199.469H290.945V207.003H298.47V199.469Z" fill="#E7EFF7" fill-opacity="0.3"/>
<path opacity="0.2" d="M310.959 199.469H303.434V207.003H310.959V199.469Z" fill="#E7EFF7" fill-opacity="0.3"/>
<path opacity="0.2" d="M323.447 199.469H315.922V207.003H323.447V199.469Z" fill="#E7EFF7" fill-opacity="0.3"/>
<path opacity="0.2" d="M360.912 199.469H353.387V207.003H360.912V199.469Z" fill="#E7EFF7" fill-opacity="0.3"/>
<path opacity="0.2" d="M410.869 199.469H403.344V207.003H410.869V199.469Z" fill="#E7EFF7" fill-opacity="0.3"/>
<path opacity="0.2" d="M423.357 199.469H415.832V207.003H423.357V199.469Z" fill="#E7EFF7" fill-opacity="0.3"/>
<path opacity="0.2" d="M473.31 199.469H465.785V207.003H473.31V199.469Z" fill="#E7EFF7" fill-opacity="0.3"/>
<path opacity="0.2" d="M485.798 199.469H478.273V207.003H485.798V199.469Z" fill="#E7EFF7" fill-opacity="0.3"/>
<path opacity="0.2" d="M510.775 199.469H503.25V207.003H510.775V199.469Z" fill="#E7EFF7" fill-opacity="0.3"/>
<path opacity="0.2" d="M310.959 187.003H303.434V194.537H310.959V187.003Z" fill="#E7EFF7" fill-opacity="0.3"/>
<path opacity="0.2" d="M373.4 187.003H365.875V194.537H373.4V187.003Z" fill="#E7EFF7" fill-opacity="0.3"/>
<path opacity="0.2" d="M423.357 187.003H415.832V194.537H423.357V187.003Z" fill="#E7EFF7" fill-opacity="0.3"/>
<path opacity="0.2" d="M448.334 187.003H440.809V194.537H448.334V187.003Z" fill="#E7EFF7" fill-opacity="0.3"/>
<path opacity="0.2" d="M473.31 187.003H465.785V194.537H473.31V187.003Z" fill="#E7EFF7" fill-opacity="0.3"/>
<path opacity="0.2" d="M485.798 187.003H478.273V194.537H485.798V187.003Z" fill="#E7EFF7" fill-opacity="0.3"/>
<path opacity="0.2" d="M523.267 187.003H515.742V194.537H523.267V187.003Z" fill="#E7EFF7" fill-opacity="0.3"/>
<path opacity="0.15" d="M460.822 174.536H453.297V182.071H460.822V174.536Z" fill="#E7EFF7" fill-opacity="0.3"/>
<path opacity="0.15" d="M473.31 174.536H465.785V182.071H473.31V174.536Z" fill="#E7EFF7" fill-opacity="0.3"/>
<path opacity="0.15" d="M510.779 174.536H503.254V182.071H510.779V174.536Z" fill="#E7EFF7" fill-opacity="0.3"/>
<path opacity="0.15" d="M385.892 162.07H378.367V169.605H385.892V162.07Z" fill="#E7EFF7" fill-opacity="0.3"/>
<path opacity="0.15" d="M398.377 162.07H390.852V169.605H398.377V162.07Z" fill="#E7EFF7" fill-opacity="0.3"/>
<path opacity="0.05" d="M410.869 162.07H403.344V169.605H410.869V162.07Z" fill="#E7EFF7" fill-opacity="0.3"/>
<path opacity="0.1" d="M448.334 162.07H440.809V169.605H448.334V162.07Z" fill="#E7EFF7" fill-opacity="0.3"/>
<path opacity="0.15" d="M473.31 162.07H465.785V169.605H473.31V162.07Z" fill="#E7EFF7" fill-opacity="0.3"/>
<path opacity="0.15" d="M510.775 162.07H503.25V169.605H510.775V162.07Z" fill="#E7EFF7" fill-opacity="0.3"/>
<path opacity="0.05" d="M348.423 149.604H340.898V157.138H348.423V149.604Z" fill="#E7EFF7" fill-opacity="0.3"/>
<path opacity="0.05" d="M360.912 149.604H353.387V157.138H360.912V149.604Z" fill="#E7EFF7" fill-opacity="0.3"/>
<path opacity="0.05" d="M398.377 149.604H390.852V157.138H398.377V149.604Z" fill="#E7EFF7" fill-opacity="0.3"/>
<path opacity="0.15" d="M423.357 149.604H415.832V157.138H423.357V149.604Z" fill="#E7EFF7" fill-opacity="0.3"/>
<path opacity="0.05" d="M460.822 149.604H453.297V157.138H460.822V149.604Z" fill="#E7EFF7" fill-opacity="0.3"/>
<path opacity="0.15" d="M510.779 149.604H503.254V157.138H510.779V149.604Z" fill="#E7EFF7" fill-opacity="0.3"/>
<path opacity="0.15" d="M535.756 149.604H528.23V157.138H535.756V149.604Z" fill="#E7EFF7" fill-opacity="0.3"/>
<path opacity="0.05" d="M448.334 137.131H440.809V144.665H448.334V137.131Z" fill="#E7EFF7" fill-opacity="0.3"/>
<path opacity="0.15" d="M473.31 137.131H465.785V144.665H473.31V137.131Z" fill="#E7EFF7" fill-opacity="0.3"/>
<path opacity="0.15" d="M485.798 137.131H478.273V144.665H485.798V137.131Z" fill="#E7EFF7" fill-opacity="0.3"/>
<path opacity="0.15" d="M535.756 137.131H528.23V144.665H535.756V137.131Z" fill="#E7EFF7" fill-opacity="0.3"/>
<path opacity="0.05" d="M398.377 124.664H390.852V132.199H398.377V124.664Z" fill="#E7EFF7" fill-opacity="0.3"/>
<path opacity="0.15" d="M510.779 124.664H503.254V132.199H510.779V124.664Z" fill="#E7EFF7" fill-opacity="0.3"/>
<path opacity="0.05" d="M510.775 112.198H503.25V119.733H510.775V112.198Z" fill="#E7EFF7" fill-opacity="0.3"/>
<path opacity="0.1" d="M548.244 112.198H540.719V119.733H548.244V112.198Z" fill="#E7EFF7" fill-opacity="0.3"/>
<path opacity="0.05" d="M410.869 99.7314H403.344V107.266H410.869V99.7314Z" fill="#E7EFF7" fill-opacity="0.3"/>
<path opacity="0.1" d="M485.798 99.7314H478.273V107.266H485.798V99.7314Z" fill="#E7EFF7" fill-opacity="0.3"/>
<path opacity="0.1" d="M448.334 87.2646H440.809V94.7991H448.334V87.2646Z" fill="#E7EFF7" fill-opacity="0.3"/>
<path opacity="0.05" d="M485.798 87.2646H478.273V94.7991H485.798V87.2646Z" fill="#E7EFF7" fill-opacity="0.3"/>
<path opacity="0.05" d="M473.31 49.8652H465.785V57.3997H473.31V49.8652Z" fill="#E7EFF7" fill-opacity="0.3"/>
</g>
</g>
<defs>
<clipPath id="clip0_34845_114959">
<rect width="1144" height="394" fill="white" transform="translate(-321)"/>
</clipPath>
</defs>
</svg>
