<svg width="549" height="189" viewBox="0 0 549 189" fill="none" xmlns="http://www.w3.org/2000/svg">
<g clip-path="url(#clip0_36988_1947)">
<mask id="mask0_36988_1947" style="mask-type:luminance" maskUnits="userSpaceOnUse" x="-1" y="-212" width="550" height="403">
<path d="M-0.00390625 190.096L548.996 190.096V-211.824L-0.00390625 -211.824V190.096Z" fill="white"/>
</mask>
<g mask="url(#mask0_36988_1947)">
<path opacity="0.65" d="M3.6112 185.386H0V189H3.6112V185.386Z" fill="#E7EFF7"/>
<path opacity="0.65" d="M9.60534 185.386H5.99414V189H9.60534V185.386Z" fill="#E7EFF7"/>
<path opacity="0.65" d="M15.5975 185.386H11.9863V189H15.5975V185.386Z" fill="#E7EFF7"/>
<path opacity="0.65" d="M21.5917 185.386H17.9805V189H21.5917V185.386Z" fill="#E7EFF7"/>
<path opacity="0.65" d="M39.5721 185.386H35.9609V189H39.5721V185.386Z" fill="#E7EFF7"/>
<path opacity="0.65" d="M45.5643 185.386H41.9531V189H45.5643V185.386Z" fill="#E7EFF7"/>
<path opacity="0.65" d="M51.5565 185.386H47.9453V189H51.5565V185.386Z" fill="#E7EFF7"/>
<path opacity="0.65" d="M57.5526 185.386H53.9414V189H57.5526V185.386Z" fill="#E7EFF7"/>
<path opacity="0.65" d="M63.5468 185.386H59.9355V189H63.5468V185.386Z" fill="#E7EFF7"/>
<path opacity="0.65" d="M69.5409 185.386H65.9297V189H69.5409V185.386Z" fill="#E7EFF7"/>
<path opacity="0.65" d="M81.5253 185.386H77.9141V189H81.5253V185.386Z" fill="#E7EFF7"/>
<path opacity="0.65" d="M87.5194 185.386H83.9082V189H87.5194V185.386Z" fill="#E7EFF7"/>
<path opacity="0.65" d="M93.5135 185.386H89.9023V189H93.5135V185.386Z" fill="#E7EFF7"/>
<path opacity="0.65" d="M117.486 185.386H113.875V189H117.486V185.386Z" fill="#E7EFF7"/>
<path opacity="0.65" d="M123.478 185.386H119.867V189H123.478V185.386Z" fill="#E7EFF7"/>
<path opacity="0.65" d="M129.473 185.386H125.861V189H129.473V185.386Z" fill="#E7EFF7"/>
<path opacity="0.65" d="M135.467 185.386H131.855V189H135.467V185.386Z" fill="#E7EFF7"/>
<path opacity="0.65" d="M147.453 185.386H143.842V189H147.453V185.386Z" fill="#E7EFF7"/>
<path opacity="0.65" d="M159.439 185.386H155.828V189H159.439V185.386Z" fill="#E7EFF7"/>
<path opacity="0.65" d="M171.426 185.386H167.814V189H171.426V185.386Z" fill="#E7EFF7"/>
<path opacity="0.65" d="M183.412 185.386H179.801V189H183.412V185.386Z" fill="#E7EFF7"/>
<path opacity="0.65" d="M195.398 185.386H191.787V189H195.398V185.386Z" fill="#E7EFF7"/>
<path opacity="0.65" d="M201.392 185.386H197.781V189H201.392V185.386Z" fill="#E7EFF7"/>
<path opacity="0.65" d="M225.367 185.386H221.756V189H225.367V185.386Z" fill="#E7EFF7"/>
<path opacity="0.65" d="M231.361 185.386H227.75V189H231.361V185.386Z" fill="#E7EFF7"/>
<path opacity="0.65" d="M237.353 185.386H233.742V189H237.353V185.386Z" fill="#E7EFF7"/>
<path opacity="0.65" d="M243.348 185.386H239.736V189H243.348V185.386Z" fill="#E7EFF7"/>
<path opacity="0.65" d="M249.34 185.386H245.729V189H249.34V185.386Z" fill="#E7EFF7"/>
<path opacity="0.65" d="M255.334 185.386H251.723V189H255.334V185.386Z" fill="#E7EFF7"/>
<path opacity="0.65" d="M261.328 185.386H257.717V189H261.328V185.386Z" fill="#E7EFF7"/>
<path opacity="0.65" d="M3.6112 179.406H0V183.02H3.6112V179.406Z" fill="#E7EFF7"/>
<path opacity="0.65" d="M21.5917 179.406H17.9805V183.02H21.5917V179.406Z" fill="#E7EFF7"/>
<path opacity="0.65" d="M33.576 179.406H29.9648V183.02H33.576V179.406Z" fill="#E7EFF7"/>
<path opacity="0.65" d="M39.5721 179.406H35.9609V183.02H39.5721V179.406Z" fill="#E7EFF7"/>
<path opacity="0.65" d="M51.5565 179.406H47.9453V183.02H51.5565V179.406Z" fill="#E7EFF7"/>
<path opacity="0.65" d="M69.5409 179.406H65.9297V183.02H69.5409V179.406Z" fill="#E7EFF7"/>
<path opacity="0.65" d="M75.5331 179.406H71.9219V183.02H75.5331V179.406Z" fill="#E7EFF7"/>
<path opacity="0.65" d="M81.5253 179.406H77.9141V183.02H81.5253V179.406Z" fill="#E7EFF7"/>
<path opacity="0.65" d="M87.5194 179.406H83.9082V183.02H87.5194V179.406Z" fill="#E7EFF7"/>
<path opacity="0.65" d="M93.5135 179.406H89.9023V183.02H93.5135V179.406Z" fill="#E7EFF7"/>
<path opacity="0.65" d="M99.5057 179.406H95.8945V183.02H99.5057V179.406Z" fill="#E7EFF7"/>
<path opacity="0.65" d="M105.5 179.406H101.889V183.02H105.5V179.406Z" fill="#E7EFF7"/>
<path opacity="0.65" d="M117.486 179.406H113.875V183.02H117.486V179.406Z" fill="#E7EFF7"/>
<path opacity="0.65" d="M123.478 179.406H119.867V183.02H123.478V179.406Z" fill="#E7EFF7"/>
<path opacity="0.65" d="M147.453 179.406H143.842V183.02H147.453V179.406Z" fill="#E7EFF7"/>
<path opacity="0.65" d="M165.432 179.406H161.82V183.02H165.432V179.406Z" fill="#E7EFF7"/>
<path opacity="0.65" d="M171.426 179.406H167.814V183.02H171.426V179.406Z" fill="#E7EFF7"/>
<path opacity="0.65" d="M177.42 179.406H173.809V183.02H177.42V179.406Z" fill="#E7EFF7"/>
<path opacity="0.65" d="M195.398 179.406H191.787V183.02H195.398V179.406Z" fill="#E7EFF7"/>
<path opacity="0.65" d="M225.367 179.406H221.756V183.02H225.367V179.406Z" fill="#E7EFF7"/>
<path opacity="0.65" d="M231.361 179.406H227.75V183.02H231.361V179.406Z" fill="#E7EFF7"/>
<path opacity="0.65" d="M237.353 179.406H233.742V183.02H237.353V179.406Z" fill="#E7EFF7"/>
<path opacity="0.65" d="M243.348 179.406H239.736V183.02H243.348V179.406Z" fill="#E7EFF7"/>
<path opacity="0.65" d="M261.328 179.406H257.717V183.02H261.328V179.406Z" fill="#E7EFF7"/>
<path opacity="0.5" d="M3.6112 173.426H0V177.04H3.6112V173.426Z" fill="#E7EFF7"/>
<path opacity="0.5" d="M27.5839 173.426H23.9727V177.04H27.5839V173.426Z" fill="#E7EFF7"/>
<path opacity="0.5" d="M33.576 173.426H29.9648V177.04H33.576V173.426Z" fill="#E7EFF7"/>
<path opacity="0.5" d="M51.5565 173.426H47.9453V177.04H51.5565V173.426Z" fill="#E7EFF7"/>
<path opacity="0.5" d="M57.5526 173.426H53.9414V177.04H57.5526V173.426Z" fill="#E7EFF7"/>
<path opacity="0.5" d="M63.5468 173.426H59.9355V177.04H63.5468V173.426Z" fill="#E7EFF7"/>
<path opacity="0.5" d="M69.5409 173.426H65.9297V177.04H69.5409V173.426Z" fill="#E7EFF7"/>
<path opacity="0.5" d="M81.5253 173.426H77.9141V177.04H81.5253V173.426Z" fill="#E7EFF7"/>
<path opacity="0.5" d="M87.5194 173.426H83.9082V177.04H87.5194V173.426Z" fill="#E7EFF7"/>
<path opacity="0.5" d="M105.5 173.426H101.889V177.04H105.5V173.426Z" fill="#E7EFF7"/>
<path opacity="0.5" d="M117.486 173.426H113.875V177.04H117.486V173.426Z" fill="#E7EFF7"/>
<path opacity="0.5" d="M123.478 173.426H119.867V177.04H123.478V173.426Z" fill="#E7EFF7"/>
<path opacity="0.5" d="M129.473 173.426H125.861V177.04H129.473V173.426Z" fill="#E7EFF7"/>
<path opacity="0.5" d="M135.467 173.426H131.855V177.04H135.467V173.426Z" fill="#E7EFF7"/>
<path opacity="0.5" d="M159.439 173.426H155.828V177.04H159.439V173.426Z" fill="#E7EFF7"/>
<path opacity="0.5" d="M177.42 173.426H173.809V177.04H177.42V173.426Z" fill="#E7EFF7"/>
<path opacity="0.5" d="M183.412 173.426H179.801V177.04H183.412V173.426Z" fill="#E7EFF7"/>
<path opacity="0.5" d="M195.398 173.426H191.787V177.04H195.398V173.426Z" fill="#E7EFF7"/>
<path opacity="0.5" d="M201.392 173.426H197.781V177.04H201.392V173.426Z" fill="#E7EFF7"/>
<path opacity="0.5" d="M207.385 173.426H203.773V177.04H207.385V173.426Z" fill="#E7EFF7"/>
<path opacity="0.5" d="M219.371 173.426H215.76V177.04H219.371V173.426Z" fill="#E7EFF7"/>
<path opacity="0.5" d="M225.367 173.426H221.756V177.04H225.367V173.426Z" fill="#E7EFF7"/>
<path opacity="0.5" d="M237.353 173.426H233.742V177.04H237.353V173.426Z" fill="#E7EFF7"/>
<path opacity="0.5" d="M243.348 173.426H239.736V177.04H243.348V173.426Z" fill="#E7EFF7"/>
<path opacity="0.5" d="M255.334 173.426H251.723V177.04H255.334V173.426Z" fill="#E7EFF7"/>
<path opacity="0.5" d="M273.314 173.426H269.703V177.04H273.314V173.426Z" fill="#E7EFF7"/>
<path opacity="0.5" d="M27.5839 167.445H23.9727V171.06H27.5839V167.445Z" fill="#E7EFF7"/>
<path opacity="0.5" d="M33.576 167.445H29.9648V171.06H33.576V167.445Z" fill="#E7EFF7"/>
<path opacity="0.5" d="M51.5565 167.445H47.9453V171.06H51.5565V167.445Z" fill="#E7EFF7"/>
<path opacity="0.5" d="M69.5409 167.445H65.9297V171.06H69.5409V167.445Z" fill="#E7EFF7"/>
<path opacity="0.5" d="M81.5253 167.445H77.9141V171.06H81.5253V167.445Z" fill="#E7EFF7"/>
<path opacity="0.5" d="M87.5194 167.445H83.9082V171.06H87.5194V167.445Z" fill="#E7EFF7"/>
<path opacity="0.5" d="M93.5135 167.445H89.9023V171.06H93.5135V167.445Z" fill="#E7EFF7"/>
<path opacity="0.5" d="M111.494 167.445H107.883V171.06H111.494V167.445Z" fill="#E7EFF7"/>
<path opacity="0.5" d="M129.473 167.445H125.861V171.06H129.473V167.445Z" fill="#E7EFF7"/>
<path opacity="0.5" d="M147.453 167.445H143.842V171.06H147.453V167.445Z" fill="#E7EFF7"/>
<path opacity="0.5" d="M159.439 167.445H155.828V171.06H159.439V167.445Z" fill="#E7EFF7"/>
<path opacity="0.5" d="M165.432 167.445H161.82V171.06H165.432V167.445Z" fill="#E7EFF7"/>
<path opacity="0.5" d="M177.42 167.445H173.809V171.06H177.42V167.445Z" fill="#E7EFF7"/>
<path opacity="0.5" d="M183.412 167.445H179.801V171.06H183.412V167.445Z" fill="#E7EFF7"/>
<path opacity="0.5" d="M195.398 167.445H191.787V171.06H195.398V167.445Z" fill="#E7EFF7"/>
<path opacity="0.5" d="M201.392 167.445H197.781V171.06H201.392V167.445Z" fill="#E7EFF7"/>
<path opacity="0.5" d="M207.385 167.445H203.773V171.06H207.385V167.445Z" fill="#E7EFF7"/>
<path opacity="0.5" d="M213.379 167.445H209.768V171.06H213.379V167.445Z" fill="#E7EFF7"/>
<path opacity="0.5" d="M225.367 167.445H221.756V171.06H225.367V167.445Z" fill="#E7EFF7"/>
<path opacity="0.5" d="M231.361 167.445H227.75V171.06H231.361V167.445Z" fill="#E7EFF7"/>
<path opacity="0.5" d="M237.353 167.445H233.742V171.06H237.353V167.445Z" fill="#E7EFF7"/>
<path opacity="0.5" d="M243.348 167.445H239.736V171.06H243.348V167.445Z" fill="#E7EFF7"/>
<path opacity="0.5" d="M255.334 167.445H251.723V171.06H255.334V167.445Z" fill="#E7EFF7"/>
<path opacity="0.5" d="M261.328 167.445H257.717V171.06H261.328V167.445Z" fill="#E7EFF7"/>
<path opacity="0.5" d="M267.32 167.445H263.709V171.06H267.32V167.445Z" fill="#E7EFF7"/>
<path opacity="0.5" d="M3.6112 161.465H0V165.08H3.6112V161.465Z" fill="#E7EFF7"/>
<path opacity="0.5" d="M15.5975 161.465H11.9863V165.08H15.5975V161.465Z" fill="#E7EFF7"/>
<path opacity="0.5" d="M21.5917 161.465H17.9805V165.08H21.5917V161.465Z" fill="#E7EFF7"/>
<path opacity="0.5" d="M33.576 161.465H29.9648V165.08H33.576V161.465Z" fill="#E7EFF7"/>
<path opacity="0.5" d="M51.5565 161.465H47.9453V165.08H51.5565V161.465Z" fill="#E7EFF7"/>
<path opacity="0.5" d="M63.5468 161.465H59.9355V165.08H63.5468V161.465Z" fill="#E7EFF7"/>
<path opacity="0.5" d="M69.5409 161.465H65.9297V165.08H69.5409V161.465Z" fill="#E7EFF7"/>
<path opacity="0.5" d="M81.5253 161.465H77.9141V165.08H81.5253V161.465Z" fill="#E7EFF7"/>
<path opacity="0.5" d="M87.5194 161.465H83.9082V165.08H87.5194V161.465Z" fill="#E7EFF7"/>
<path opacity="0.5" d="M111.494 161.465H107.883V165.08H111.494V161.465Z" fill="#E7EFF7"/>
<path opacity="0.5" d="M123.478 161.465H119.867V165.08H123.478V161.465Z" fill="#E7EFF7"/>
<path opacity="0.5" d="M129.473 161.465H125.861V165.08H129.473V161.465Z" fill="#E7EFF7"/>
<path opacity="0.5" d="M135.467 161.465H131.855V165.08H135.467V161.465Z" fill="#E7EFF7"/>
<path opacity="0.5" d="M141.459 161.465H137.848V165.08H141.459V161.465Z" fill="#E7EFF7"/>
<path opacity="0.5" d="M147.453 161.465H143.842V165.08H147.453V161.465Z" fill="#E7EFF7"/>
<path opacity="0.5" d="M153.445 161.465H149.834V165.08H153.445V161.465Z" fill="#E7EFF7"/>
<path opacity="0.5" d="M165.432 161.465H161.82V165.08H165.432V161.465Z" fill="#E7EFF7"/>
<path opacity="0.5" d="M171.426 161.465H167.814V165.08H171.426V161.465Z" fill="#E7EFF7"/>
<path opacity="0.5" d="M177.42 161.465H173.809V165.08H177.42V161.465Z" fill="#E7EFF7"/>
<path opacity="0.5" d="M183.412 161.465H179.801V165.08H183.412V161.465Z" fill="#E7EFF7"/>
<path opacity="0.5" d="M195.398 161.465H191.787V165.08H195.398V161.465Z" fill="#E7EFF7"/>
<path opacity="0.5" d="M201.392 161.465H197.781V165.08H201.392V161.465Z" fill="#E7EFF7"/>
<path opacity="0.5" d="M207.385 161.465H203.773V165.08H207.385V161.465Z" fill="#E7EFF7"/>
<path opacity="0.5" d="M219.371 161.465H215.76V165.08H219.371V161.465Z" fill="#E7EFF7"/>
<path opacity="0.5" d="M231.361 161.465H227.75V165.08H231.361V161.465Z" fill="#E7EFF7"/>
<path opacity="0.5" d="M237.353 161.465H233.742V165.08H237.353V161.465Z" fill="#E7EFF7"/>
<path opacity="0.5" d="M249.34 161.465H245.729V165.08H249.34V161.465Z" fill="#E7EFF7"/>
<path opacity="0.5" d="M255.334 161.465H251.723V165.08H255.334V161.465Z" fill="#E7EFF7"/>
<path opacity="0.5" d="M261.328 161.465H257.717V165.08H261.328V161.465Z" fill="#E7EFF7"/>
<path opacity="0.5" d="M267.32 161.465H263.709V165.08H267.32V161.465Z" fill="#E7EFF7"/>
<path opacity="0.5" d="M273.314 161.465H269.703V165.08H273.314V161.465Z" fill="#E7EFF7"/>
<path opacity="0.45" d="M3.6112 155.467H0V159.082H3.6112V155.467Z" fill="#E7EFF7"/>
<path opacity="0.45" d="M9.60534 155.467H5.99414V159.082H9.60534V155.467Z" fill="#E7EFF7"/>
<path opacity="0.45" d="M15.5975 155.467H11.9863V159.082H15.5975V155.467Z" fill="#E7EFF7"/>
<path opacity="0.45" d="M21.5917 155.467H17.9805V159.082H21.5917V155.467Z" fill="#E7EFF7"/>
<path opacity="0.45" d="M39.5721 155.47H35.9609V159.084H39.5721V155.47Z" fill="#E7EFF7"/>
<path opacity="0.45" d="M45.5643 155.47H41.9531V159.084H45.5643V155.47Z" fill="#E7EFF7"/>
<path opacity="0.45" d="M63.5428 155.47H59.9316V159.084H63.5428V155.47Z" fill="#E7EFF7"/>
<path opacity="0.45" d="M69.537 155.47H65.9258V159.084H69.537V155.47Z" fill="#E7EFF7"/>
<path opacity="0.45" d="M75.5311 155.473H71.9199V159.087H75.5311V155.473Z" fill="#E7EFF7"/>
<path opacity="0.45" d="M87.5194 155.473H83.9082V159.087H87.5194V155.473Z" fill="#E7EFF7"/>
<path opacity="0.45" d="M93.5135 155.473H89.9023V159.087H93.5135V155.473Z" fill="#E7EFF7"/>
<path opacity="0.45" d="M99.5057 155.473H95.8945V159.087H99.5057V155.473Z" fill="#E7EFF7"/>
<path opacity="0.45" d="M105.5 155.473H101.889V159.087H105.5V155.473Z" fill="#E7EFF7"/>
<path opacity="0.45" d="M111.494 155.473H107.883V159.087H111.494V155.473Z" fill="#E7EFF7"/>
<path opacity="0.45" d="M135.467 155.476H131.855V159.09H135.467V155.476Z" fill="#E7EFF7"/>
<path opacity="0.45" d="M141.459 155.476H137.848V159.09H141.459V155.476Z" fill="#E7EFF7"/>
<path opacity="0.45" d="M153.445 155.476H149.834V159.09H153.445V155.476Z" fill="#E7EFF7"/>
<path opacity="0.45" d="M165.432 155.479H161.82V159.094H165.432V155.479Z" fill="#E7EFF7"/>
<path opacity="0.45" d="M177.42 155.479H173.809V159.094H177.42V155.479Z" fill="#E7EFF7"/>
<path opacity="0.45" d="M195.398 155.479H191.787V159.094H195.398V155.479Z" fill="#E7EFF7"/>
<path opacity="0.45" d="M207.385 155.482H203.773V159.097H207.385V155.482Z" fill="#E7EFF7"/>
<path opacity="0.45" d="M213.379 155.482H209.768V159.097H213.379V155.482Z" fill="#E7EFF7"/>
<path opacity="0.45" d="M219.371 155.482H215.76V159.097H219.371V155.482Z" fill="#E7EFF7"/>
<path opacity="0.45" d="M225.365 155.482H221.754V159.097H225.365V155.482Z" fill="#E7EFF7"/>
<path opacity="0.45" d="M231.357 155.482H227.746V159.097H231.357V155.482Z" fill="#E7EFF7"/>
<path opacity="0.45" d="M237.351 155.482H233.74V159.097H237.351V155.482Z" fill="#E7EFF7"/>
<path opacity="0.45" d="M249.34 155.485H245.729V159.1H249.34V155.485Z" fill="#E7EFF7"/>
<path opacity="0.45" d="M255.334 155.485H251.723V159.1H255.334V155.485Z" fill="#E7EFF7"/>
<path opacity="0.45" d="M273.314 155.485H269.703V159.1H273.314V155.485Z" fill="#E7EFF7"/>
<path opacity="0.4" d="M9.60534 149.487H5.99414V153.101H9.60534V149.487Z" fill="#E7EFF7"/>
<path opacity="0.4" d="M21.5917 149.487H17.9805V153.101H21.5917V149.487Z" fill="#E7EFF7"/>
<path opacity="0.4" d="M39.5721 149.49H35.9609V153.104H39.5721V149.49Z" fill="#E7EFF7"/>
<path opacity="0.4" d="M63.5468 149.49H59.9355V153.104H63.5468V149.49Z" fill="#E7EFF7"/>
<path opacity="0.4" d="M69.5409 149.49H65.9297V153.104H69.5409V149.49Z" fill="#E7EFF7"/>
<path opacity="0.4" d="M75.5331 149.49H71.9219V153.104H75.5331V149.49Z" fill="#E7EFF7"/>
<path opacity="0.4" d="M81.5253 149.493H77.9141V153.107H81.5253V149.493Z" fill="#E7EFF7"/>
<path opacity="0.4" d="M93.5135 149.493H89.9023V153.107H93.5135V149.493Z" fill="#E7EFF7"/>
<path opacity="0.4" d="M99.5057 149.493H95.8945V153.107H99.5057V149.493Z" fill="#E7EFF7"/>
<path opacity="0.4" d="M117.486 149.493H113.875V153.107H117.486V149.493Z" fill="#E7EFF7"/>
<path opacity="0.4" d="M141.459 149.496H137.848V153.11H141.459V149.496Z" fill="#E7EFF7"/>
<path opacity="0.4" d="M153.445 149.496H149.834V153.11H153.445V149.496Z" fill="#E7EFF7"/>
<path opacity="0.4" d="M165.432 149.499H161.82V153.113H165.432V149.499Z" fill="#E7EFF7"/>
<path opacity="0.4" d="M171.426 149.499H167.814V153.113H171.426V149.499Z" fill="#E7EFF7"/>
<path opacity="0.4" d="M177.42 149.499H173.809V153.113H177.42V149.499Z" fill="#E7EFF7"/>
<path opacity="0.4" d="M183.412 149.499H179.801V153.113H183.412V149.499Z" fill="#E7EFF7"/>
<path opacity="0.4" d="M201.392 149.499H197.781V153.113H201.392V149.499Z" fill="#E7EFF7"/>
<path opacity="0.4" d="M207.385 149.502H203.773V153.116H207.385V149.502Z" fill="#E7EFF7"/>
<path opacity="0.4" d="M213.377 149.502H209.766V153.116H213.377V149.502Z" fill="#E7EFF7"/>
<path opacity="0.4" d="M219.371 149.502H215.76V153.116H219.371V149.502Z" fill="#E7EFF7"/>
<path opacity="0.4" d="M225.367 149.502H221.756V153.116H225.367V149.502Z" fill="#E7EFF7"/>
<path opacity="0.4" d="M231.361 149.502H227.75V153.116H231.361V149.502Z" fill="#E7EFF7"/>
<path opacity="0.4" d="M249.342 149.502H245.73V153.116H249.342V149.502Z" fill="#E7EFF7"/>
<path opacity="0.4" d="M255.334 149.505H251.723V153.12H255.334V149.505Z" fill="#E7EFF7"/>
<path opacity="0.4" d="M261.328 149.505H257.717V153.12H261.328V149.505Z" fill="#E7EFF7"/>
<path opacity="0.4" d="M267.32 149.505H263.709V153.12H267.32V149.505Z" fill="#E7EFF7"/>
<path opacity="0.4" d="M273.314 149.505H269.703V153.12H273.314V149.505Z" fill="#E7EFF7"/>
<path opacity="0.4" d="M3.6112 143.507H0V147.121H3.6112V143.507Z" fill="#E7EFF7"/>
<path opacity="0.4" d="M9.60534 143.507H5.99414V147.121H9.60534V143.507Z" fill="#E7EFF7"/>
<path opacity="0.4" d="M21.5917 143.507H17.9805V147.121H21.5917V143.507Z" fill="#E7EFF7"/>
<path opacity="0.4" d="M33.5799 143.507H29.9688V147.121H33.5799V143.507Z" fill="#E7EFF7"/>
<path opacity="0.4" d="M39.5741 143.51H35.9629V147.124H39.5741V143.51Z" fill="#E7EFF7"/>
<path opacity="0.4" d="M45.5682 143.51H41.957V147.124H45.5682V143.51Z" fill="#E7EFF7"/>
<path opacity="0.4" d="M63.5468 143.51H59.9355V147.124H63.5468V143.51Z" fill="#E7EFF7"/>
<path opacity="0.4" d="M75.5331 143.51H71.9219V147.124H75.5331V143.51Z" fill="#E7EFF7"/>
<path opacity="0.4" d="M81.5253 143.513H77.9141V147.127H81.5253V143.513Z" fill="#E7EFF7"/>
<path opacity="0.4" d="M99.5057 143.513H95.8945V147.127H99.5057V143.513Z" fill="#E7EFF7"/>
<path opacity="0.4" d="M105.5 143.513H101.889V147.127H105.5V143.513Z" fill="#E7EFF7"/>
<path opacity="0.4" d="M111.494 143.513H107.883V147.127H111.494V143.513Z" fill="#E7EFF7"/>
<path opacity="0.4" d="M129.473 143.516H125.861V147.13H129.473V143.516Z" fill="#E7EFF7"/>
<path opacity="0.4" d="M135.467 143.516H131.855V147.13H135.467V143.516Z" fill="#E7EFF7"/>
<path opacity="0.4" d="M141.459 143.516H137.848V147.13H141.459V143.516Z" fill="#E7EFF7"/>
<path opacity="0.4" d="M153.445 143.516H149.834V147.13H153.445V143.516Z" fill="#E7EFF7"/>
<path opacity="0.4" d="M165.432 143.519H161.82V147.133H165.432V143.519Z" fill="#E7EFF7"/>
<path opacity="0.4" d="M171.426 143.519H167.814V147.133H171.426V143.519Z" fill="#E7EFF7"/>
<path opacity="0.4" d="M183.412 143.519H179.801V147.133H183.412V143.519Z" fill="#E7EFF7"/>
<path opacity="0.4" d="M195.398 143.519H191.787V147.133H195.398V143.519Z" fill="#E7EFF7"/>
<path opacity="0.4" d="M201.394 143.519H197.783V147.133H201.394V143.519Z" fill="#E7EFF7"/>
<path opacity="0.4" d="M213.381 143.522H209.77V147.136H213.381V143.522Z" fill="#E7EFF7"/>
<path opacity="0.4" d="M225.367 143.522H221.756V147.136H225.367V143.522Z" fill="#E7EFF7"/>
<path opacity="0.4" d="M237.353 143.522H233.742V147.136H237.353V143.522Z" fill="#E7EFF7"/>
<path opacity="0.4" d="M243.348 143.522H239.736V147.136H243.348V143.522Z" fill="#E7EFF7"/>
<path opacity="0.4" d="M255.334 143.525H251.723V147.14H255.334V143.525Z" fill="#E7EFF7"/>
<path opacity="0.4" d="M267.32 143.525H263.709V147.14H267.32V143.525Z" fill="#E7EFF7"/>
<path opacity="0.4" d="M273.314 143.525H269.703V147.14H273.314V143.525Z" fill="#E7EFF7"/>
<path opacity="0.3" d="M15.5975 137.545H11.9863V141.159H15.5975V137.545Z" fill="#E7EFF7"/>
<path opacity="0.3" d="M27.5839 137.545H23.9727V141.159H27.5839V137.545Z" fill="#E7EFF7"/>
<path opacity="0.3" d="M45.5643 137.545H41.9531V141.159H45.5643V137.545Z" fill="#E7EFF7"/>
<path opacity="0.3" d="M57.5526 137.545H53.9414V141.159H57.5526V137.545Z" fill="#E7EFF7"/>
<path opacity="0.3" d="M63.5468 137.545H59.9355V141.159H63.5468V137.545Z" fill="#E7EFF7"/>
<path opacity="0.3" d="M75.5331 137.545H71.9219V141.159H75.5331V137.545Z" fill="#E7EFF7"/>
<path opacity="0.3" d="M99.5057 137.545H95.8945V141.159H99.5057V137.545Z" fill="#E7EFF7"/>
<path opacity="0.3" d="M111.494 137.545H107.883V141.159H111.494V137.545Z" fill="#E7EFF7"/>
<path opacity="0.3" d="M129.473 137.545H125.861V141.159H129.473V137.545Z" fill="#E7EFF7"/>
<path opacity="0.3" d="M165.432 137.545H161.82V141.159H165.432V137.545Z" fill="#E7EFF7"/>
<path opacity="0.3" d="M177.42 137.545H173.809V141.159H177.42V137.545Z" fill="#E7EFF7"/>
<path opacity="0.3" d="M189.404 137.545H185.793V141.159H189.404V137.545Z" fill="#E7EFF7"/>
<path opacity="0.3" d="M195.398 137.545H191.787V141.159H195.398V137.545Z" fill="#E7EFF7"/>
<path opacity="0.3" d="M201.392 137.545H197.781V141.159H201.392V137.545Z" fill="#E7EFF7"/>
<path opacity="0.3" d="M213.379 137.545H209.768V141.159H213.379V137.545Z" fill="#E7EFF7"/>
<path opacity="0.3" d="M225.367 137.545H221.756V141.159H225.367V137.545Z" fill="#E7EFF7"/>
<path opacity="0.3" d="M231.361 137.545H227.75V141.159H231.361V137.545Z" fill="#E7EFF7"/>
<path opacity="0.3" d="M255.334 137.545H251.723V141.159H255.334V137.545Z" fill="#E7EFF7"/>
<path opacity="0.3" d="M3.6112 131.565H0V135.179H3.6112V131.565Z" fill="#E7EFF7"/>
<path opacity="0.3" d="M9.60534 131.565H5.99414V135.179H9.60534V131.565Z" fill="#E7EFF7"/>
<path opacity="0.3" d="M15.5975 131.565H11.9863V135.179H15.5975V131.565Z" fill="#E7EFF7"/>
<path opacity="0.3" d="M21.5917 131.565H17.9805V135.179H21.5917V131.565Z" fill="#E7EFF7"/>
<path opacity="0.3" d="M39.5721 131.565H35.9609V135.179H39.5721V131.565Z" fill="#E7EFF7"/>
<path opacity="0.3" d="M45.5643 131.565H41.9531V135.179H45.5643V131.565Z" fill="#E7EFF7"/>
<path opacity="0.3" d="M63.5468 131.565H59.9355V135.179H63.5468V131.565Z" fill="#E7EFF7"/>
<path opacity="0.3" d="M69.5409 131.565H65.9297V135.179H69.5409V131.565Z" fill="#E7EFF7"/>
<path opacity="0.3" d="M75.5331 131.565H71.9219V135.179H75.5331V131.565Z" fill="#E7EFF7"/>
<path opacity="0.3" d="M81.5253 131.565H77.9141V135.179H81.5253V131.565Z" fill="#E7EFF7"/>
<path opacity="0.3" d="M93.5135 131.565H89.9023V135.179H93.5135V131.565Z" fill="#E7EFF7"/>
<path opacity="0.3" d="M111.494 131.565H107.883V135.179H111.494V131.565Z" fill="#E7EFF7"/>
<path opacity="0.3" d="M129.473 131.565H125.861V135.179H129.473V131.565Z" fill="#E7EFF7"/>
<path opacity="0.3" d="M135.467 131.565H131.855V135.179H135.467V131.565Z" fill="#E7EFF7"/>
<path opacity="0.3" d="M153.445 131.565H149.834V135.179H153.445V131.565Z" fill="#E7EFF7"/>
<path opacity="0.3" d="M159.439 131.565H155.828V135.179H159.439V131.565Z" fill="#E7EFF7"/>
<path opacity="0.3" d="M165.432 131.565H161.82V135.179H165.432V131.565Z" fill="#E7EFF7"/>
<path opacity="0.3" d="M177.42 131.565H173.809V135.179H177.42V131.565Z" fill="#E7EFF7"/>
<path opacity="0.3" d="M201.392 131.565H197.781V135.179H201.392V131.565Z" fill="#E7EFF7"/>
<path opacity="0.3" d="M267.32 131.565H263.709V135.179H267.32V131.565Z" fill="#E7EFF7"/>
<path opacity="0.3" d="M273.314 131.565H269.703V135.179H273.314V131.565Z" fill="#E7EFF7"/>
<path opacity="0.25" d="M3.6112 125.585H0V129.199H3.6112V125.585Z" fill="#E7EFF7"/>
<path opacity="0.25" d="M9.60534 125.585H5.99414V129.199H9.60534V125.585Z" fill="#E7EFF7"/>
<path opacity="0.25" d="M15.5975 125.585H11.9863V129.199H15.5975V125.585Z" fill="#E7EFF7"/>
<path opacity="0.25" d="M39.5721 125.585H35.9609V129.199H39.5721V125.585Z" fill="#E7EFF7"/>
<path opacity="0.25" d="M45.5643 125.585H41.9531V129.199H45.5643V125.585Z" fill="#E7EFF7"/>
<path opacity="0.25" d="M51.5565 125.585H47.9453V129.199H51.5565V125.585Z" fill="#E7EFF7"/>
<path opacity="0.25" d="M57.5526 125.585H53.9414V129.199H57.5526V125.585Z" fill="#E7EFF7"/>
<path opacity="0.25" d="M75.5331 125.585H71.9219V129.199H75.5331V125.585Z" fill="#E7EFF7"/>
<path opacity="0.25" d="M81.5253 125.585H77.9141V129.199H81.5253V125.585Z" fill="#E7EFF7"/>
<path opacity="0.25" d="M93.5135 125.585H89.9023V129.199H93.5135V125.585Z" fill="#E7EFF7"/>
<path opacity="0.25" d="M99.5057 125.585H95.8945V129.199H99.5057V125.585Z" fill="#E7EFF7"/>
<path opacity="0.25" d="M111.494 125.585H107.883V129.199H111.494V125.585Z" fill="#E7EFF7"/>
<path opacity="0.25" d="M117.486 125.585H113.875V129.199H117.486V125.585Z" fill="#E7EFF7"/>
<path opacity="0.25" d="M123.478 125.585H119.867V129.199H123.478V125.585Z" fill="#E7EFF7"/>
<path opacity="0.25" d="M129.473 125.585H125.861V129.199H129.473V125.585Z" fill="#E7EFF7"/>
<path opacity="0.25" d="M141.459 125.585H137.848V129.199H141.459V125.585Z" fill="#E7EFF7"/>
<path opacity="0.25" d="M153.445 125.585H149.834V129.199H153.445V125.585Z" fill="#E7EFF7"/>
<path opacity="0.25" d="M165.432 125.585H161.82V129.199H165.432V125.585Z" fill="#E7EFF7"/>
<path opacity="0.25" d="M177.42 125.585H173.809V129.199H177.42V125.585Z" fill="#E7EFF7"/>
<path opacity="0.25" d="M195.398 125.585H191.787V129.199H195.398V125.585Z" fill="#E7EFF7"/>
<path opacity="0.25" d="M201.392 125.585H197.781V129.199H201.392V125.585Z" fill="#E7EFF7"/>
<path opacity="0.25" d="M213.379 125.585H209.768V129.199H213.379V125.585Z" fill="#E7EFF7"/>
<path opacity="0.25" d="M219.371 125.585H215.76V129.199H219.371V125.585Z" fill="#E7EFF7"/>
<path opacity="0.25" d="M243.348 125.585H239.736V129.199H243.348V125.585Z" fill="#E7EFF7"/>
<path opacity="0.25" d="M273.314 125.585H269.703V129.199H273.314V125.585Z" fill="#E7EFF7"/>
<path opacity="0.25" d="M3.6112 119.605H0V123.219H3.6112V119.605Z" fill="#E7EFF7"/>
<path opacity="0.25" d="M21.5917 119.605H17.9805V123.219H21.5917V119.605Z" fill="#E7EFF7"/>
<path opacity="0.25" d="M27.5839 119.605H23.9727V123.219H27.5839V119.605Z" fill="#E7EFF7"/>
<path opacity="0.25" d="M33.576 119.605H29.9648V123.219H33.576V119.605Z" fill="#E7EFF7"/>
<path opacity="0.25" d="M45.5643 119.605H41.9531V123.219H45.5643V119.605Z" fill="#E7EFF7"/>
<path opacity="0.25" d="M63.5468 119.605H59.9355V123.219H63.5468V119.605Z" fill="#E7EFF7"/>
<path opacity="0.25" d="M69.5409 119.605H65.9297V123.219H69.5409V119.605Z" fill="#E7EFF7"/>
<path opacity="0.25" d="M93.5135 119.605H89.9023V123.219H93.5135V119.605Z" fill="#E7EFF7"/>
<path opacity="0.25" d="M111.494 119.605H107.883V123.219H111.494V119.605Z" fill="#E7EFF7"/>
<path opacity="0.25" d="M123.478 119.605H119.867V123.219H123.478V119.605Z" fill="#E7EFF7"/>
<path opacity="0.25" d="M129.473 119.605H125.861V123.219H129.473V119.605Z" fill="#E7EFF7"/>
<path opacity="0.25" d="M141.459 119.605H137.848V123.219H141.459V119.605Z" fill="#E7EFF7"/>
<path opacity="0.25" d="M159.439 119.605H155.828V123.219H159.439V119.605Z" fill="#E7EFF7"/>
<path opacity="0.25" d="M165.432 119.605H161.82V123.219H165.432V119.605Z" fill="#E7EFF7"/>
<path opacity="0.25" d="M171.426 119.605H167.814V123.219H171.426V119.605Z" fill="#E7EFF7"/>
<path opacity="0.25" d="M189.404 119.605H185.793V123.219H189.404V119.605Z" fill="#E7EFF7"/>
<path opacity="0.25" d="M195.398 119.605H191.787V123.219H195.398V119.605Z" fill="#E7EFF7"/>
<path opacity="0.25" d="M213.379 119.605H209.768V123.219H213.379V119.605Z" fill="#E7EFF7"/>
<path opacity="0.25" d="M225.367 119.605H221.756V123.219H225.367V119.605Z" fill="#E7EFF7"/>
<path opacity="0.25" d="M249.34 119.605H245.729V123.219H249.34V119.605Z" fill="#E7EFF7"/>
<path opacity="0.25" d="M267.32 119.605H263.709V123.219H267.32V119.605Z" fill="#E7EFF7"/>
<path opacity="0.25" d="M9.60534 113.625H5.99414V117.239H9.60534V113.625Z" fill="#E7EFF7"/>
<path opacity="0.25" d="M15.5975 113.625H11.9863V117.239H15.5975V113.625Z" fill="#E7EFF7"/>
<path opacity="0.25" d="M21.5917 113.625H17.9805V117.239H21.5917V113.625Z" fill="#E7EFF7"/>
<path opacity="0.25" d="M27.5839 113.625H23.9727V117.239H27.5839V113.625Z" fill="#E7EFF7"/>
<path opacity="0.25" d="M39.5721 113.625H35.9609V117.239H39.5721V113.625Z" fill="#E7EFF7"/>
<path opacity="0.25" d="M45.5643 113.625H41.9531V117.239H45.5643V113.625Z" fill="#E7EFF7"/>
<path opacity="0.25" d="M63.5468 113.625H59.9355V117.239H63.5468V113.625Z" fill="#E7EFF7"/>
<path opacity="0.25" d="M81.5253 113.625H77.9141V117.239H81.5253V113.625Z" fill="#E7EFF7"/>
<path opacity="0.25" d="M99.5057 113.625H95.8945V117.239H99.5057V113.625Z" fill="#E7EFF7"/>
<path opacity="0.25" d="M117.486 113.625H113.875V117.239H117.486V113.625Z" fill="#E7EFF7"/>
<path opacity="0.25" d="M141.459 113.625H137.848V117.239H141.459V113.625Z" fill="#E7EFF7"/>
<path opacity="0.25" d="M165.432 113.625H161.82V117.239H165.432V113.625Z" fill="#E7EFF7"/>
<path opacity="0.25" d="M171.426 113.625H167.814V117.239H171.426V113.625Z" fill="#E7EFF7"/>
<path opacity="0.25" d="M201.392 113.625H197.781V117.239H201.392V113.625Z" fill="#E7EFF7"/>
<path opacity="0.25" d="M225.367 113.625H221.756V117.239H225.367V113.625Z" fill="#E7EFF7"/>
<path opacity="0.25" d="M249.34 113.625H245.729V117.239H249.34V113.625Z" fill="#E7EFF7"/>
<path opacity="0.2" d="M3.6112 107.645H0V111.259H3.6112V107.645Z" fill="#E7EFF7"/>
<path opacity="0.2" d="M9.60534 107.645H5.99414V111.259H9.60534V107.645Z" fill="#E7EFF7"/>
<path opacity="0.2" d="M21.5917 107.645H17.9805V111.259H21.5917V107.645Z" fill="#E7EFF7"/>
<path opacity="0.2" d="M27.5839 107.645H23.9727V111.259H27.5839V107.645Z" fill="#E7EFF7"/>
<path opacity="0.2" d="M33.576 107.645H29.9648V111.259H33.576V107.645Z" fill="#E7EFF7"/>
<path opacity="0.2" d="M45.5643 107.645H41.9531V111.259H45.5643V107.645Z" fill="#E7EFF7"/>
<path opacity="0.2" d="M63.5468 107.645H59.9355V111.259H63.5468V107.645Z" fill="#E7EFF7"/>
<path opacity="0.2" d="M93.5135 107.645H89.9023V111.259H93.5135V107.645Z" fill="#E7EFF7"/>
<path opacity="0.2" d="M99.5057 107.645H95.8945V111.259H99.5057V107.645Z" fill="#E7EFF7"/>
<path opacity="0.2" d="M117.486 107.645H113.875V111.259H117.486V107.645Z" fill="#E7EFF7"/>
<path opacity="0.2" d="M129.473 107.645H125.861V111.259H129.473V107.645Z" fill="#E7EFF7"/>
<path opacity="0.2" d="M147.453 107.645H143.842V111.259H147.453V107.645Z" fill="#E7EFF7"/>
<path opacity="0.2" d="M159.439 107.645H155.828V111.259H159.439V107.645Z" fill="#E7EFF7"/>
<path opacity="0.2" d="M183.412 107.645H179.801V111.259H183.412V107.645Z" fill="#E7EFF7"/>
<path opacity="0.2" d="M195.398 107.645H191.787V111.259H195.398V107.645Z" fill="#E7EFF7"/>
<path opacity="0.2" d="M213.379 107.645H209.768V111.259H213.379V107.645Z" fill="#E7EFF7"/>
<path opacity="0.2" d="M219.371 107.645H215.76V111.259H219.371V107.645Z" fill="#E7EFF7"/>
<path opacity="0.2" d="M243.348 107.645H239.736V111.259H243.348V107.645Z" fill="#E7EFF7"/>
<path opacity="0.2" d="M249.34 107.645H245.729V111.259H249.34V107.645Z" fill="#E7EFF7"/>
<path opacity="0.2" d="M255.334 107.645H251.723V111.259H255.334V107.645Z" fill="#E7EFF7"/>
<path opacity="0.2" d="M261.328 107.645H257.717V111.259H261.328V107.645Z" fill="#E7EFF7"/>
<path opacity="0.2" d="M9.60534 101.665H5.99414V105.279H9.60534V101.665Z" fill="#E7EFF7"/>
<path opacity="0.2" d="M21.5917 101.665H17.9805V105.279H21.5917V101.665Z" fill="#E7EFF7"/>
<path opacity="0.2" d="M33.576 101.665H29.9648V105.279H33.576V101.665Z" fill="#E7EFF7"/>
<path opacity="0.2" d="M45.5643 101.665H41.9531V105.279H45.5643V101.665Z" fill="#E7EFF7"/>
<path opacity="0.2" d="M51.5565 101.665H47.9453V105.279H51.5565V101.665Z" fill="#E7EFF7"/>
<path opacity="0.2" d="M57.5526 101.665H53.9414V105.279H57.5526V101.665Z" fill="#E7EFF7"/>
<path opacity="0.2" d="M63.5468 101.665H59.9355V105.279H63.5468V101.665Z" fill="#E7EFF7"/>
<path opacity="0.2" d="M75.5331 101.665H71.9219V105.279H75.5331V101.665Z" fill="#E7EFF7"/>
<path opacity="0.2" d="M93.5135 101.665H89.9023V105.279H93.5135V101.665Z" fill="#E7EFF7"/>
<path opacity="0.2" d="M117.486 101.665H113.875V105.279H117.486V101.665Z" fill="#E7EFF7"/>
<path opacity="0.2" d="M123.478 101.665H119.867V105.279H123.478V101.665Z" fill="#E7EFF7"/>
<path opacity="0.2" d="M129.473 101.665H125.861V105.279H129.473V101.665Z" fill="#E7EFF7"/>
<path opacity="0.2" d="M147.453 101.665H143.842V105.279H147.453V101.665Z" fill="#E7EFF7"/>
<path opacity="0.2" d="M159.439 101.665H155.828V105.279H159.439V101.665Z" fill="#E7EFF7"/>
<path opacity="0.2" d="M165.432 101.665H161.82V105.279H165.432V101.665Z" fill="#E7EFF7"/>
<path opacity="0.2" d="M177.42 101.665H173.809V105.279H177.42V101.665Z" fill="#E7EFF7"/>
<path opacity="0.2" d="M195.398 101.665H191.787V105.279H195.398V101.665Z" fill="#E7EFF7"/>
<path opacity="0.2" d="M201.392 101.665H197.781V105.279H201.392V101.665Z" fill="#E7EFF7"/>
<path opacity="0.2" d="M261.328 101.665H257.717V105.279H261.328V101.665Z" fill="#E7EFF7"/>
<path opacity="0.1" d="M267.32 101.665H263.709V105.279H267.32V101.665Z" fill="#E7EFF7"/>
<path opacity="0.2" d="M3.6112 95.6846H0V99.2988H3.6112V95.6846Z" fill="#E7EFF7"/>
<path opacity="0.2" d="M9.60534 95.6846H5.99414V99.2988H9.60534V95.6846Z" fill="#E7EFF7"/>
<path opacity="0.2" d="M21.5917 95.6846H17.9805V99.2988H21.5917V95.6846Z" fill="#E7EFF7"/>
<path opacity="0.2" d="M33.576 95.6846H29.9648V99.2988H33.576V95.6846Z" fill="#E7EFF7"/>
<path opacity="0.2" d="M39.5721 95.6846H35.9609V99.2988H39.5721V95.6846Z" fill="#E7EFF7"/>
<path opacity="0.2" d="M57.5526 95.6846H53.9414V99.2988H57.5526V95.6846Z" fill="#E7EFF7"/>
<path opacity="0.2" d="M81.5253 95.6846H77.9141V99.2988H81.5253V95.6846Z" fill="#E7EFF7"/>
<path opacity="0.2" d="M129.473 95.6846H125.861V99.2988H129.473V95.6846Z" fill="#E7EFF7"/>
<path opacity="0.2" d="M141.459 95.6846H137.848V99.2988H141.459V95.6846Z" fill="#E7EFF7"/>
<path opacity="0.2" d="M165.432 95.6846H161.82V99.2988H165.432V95.6846Z" fill="#E7EFF7"/>
<path opacity="0.2" d="M171.426 95.6846H167.814V99.2988H171.426V95.6846Z" fill="#E7EFF7"/>
<path opacity="0.2" d="M201.392 95.6846H197.781V99.2988H201.392V95.6846Z" fill="#E7EFF7"/>
<path opacity="0.2" d="M207.385 95.6846H203.773V99.2988H207.385V95.6846Z" fill="#E7EFF7"/>
<path opacity="0.2" d="M219.371 95.6846H215.76V99.2988H219.371V95.6846Z" fill="#E7EFF7"/>
<path opacity="0.1" d="M225.367 95.6846H221.756V99.2988H225.367V95.6846Z" fill="#E7EFF7"/>
<path opacity="0.1" d="M243.348 95.6846H239.736V99.2988H243.348V95.6846Z" fill="#E7EFF7"/>
<path opacity="0.2" d="M255.334 95.6846H251.723V99.2988H255.334V95.6846Z" fill="#E7EFF7"/>
<path opacity="0.1" d="M267.32 95.6846H263.709V99.2988H267.32V95.6846Z" fill="#E7EFF7"/>
<path opacity="0.2" d="M3.6112 89.7046H0V93.3188H3.6112V89.7046Z" fill="#E7EFF7"/>
<path opacity="0.2" d="M15.5975 89.7046H11.9863V93.3188H15.5975V89.7046Z" fill="#E7EFF7"/>
<path opacity="0.2" d="M21.5917 89.7046H17.9805V93.3188H21.5917V89.7046Z" fill="#E7EFF7"/>
<path opacity="0.2" d="M27.5839 89.7046H23.9727V93.3188H27.5839V89.7046Z" fill="#E7EFF7"/>
<path opacity="0.2" d="M45.5643 89.7046H41.9531V93.3188H45.5643V89.7046Z" fill="#E7EFF7"/>
<path opacity="0.2" d="M51.5565 89.7046H47.9453V93.3188H51.5565V89.7046Z" fill="#E7EFF7"/>
<path opacity="0.2" d="M63.5468 89.7046H59.9355V93.3188H63.5468V89.7046Z" fill="#E7EFF7"/>
<path opacity="0.2" d="M69.5409 89.7046H65.9297V93.3188H69.5409V89.7046Z" fill="#E7EFF7"/>
<path opacity="0.2" d="M75.5331 89.7046H71.9219V93.3188H75.5331V89.7046Z" fill="#E7EFF7"/>
<path opacity="0.2" d="M81.5253 89.7046H77.9141V93.3188H81.5253V89.7046Z" fill="#E7EFF7"/>
<path opacity="0.2" d="M87.5194 89.7046H83.9082V93.3188H87.5194V89.7046Z" fill="#E7EFF7"/>
<path opacity="0.2" d="M111.494 89.7046H107.883V93.3188H111.494V89.7046Z" fill="#E7EFF7"/>
<path opacity="0.2" d="M117.486 89.7046H113.875V93.3188H117.486V89.7046Z" fill="#E7EFF7"/>
<path opacity="0.2" d="M141.459 89.7046H137.848V93.3188H141.459V89.7046Z" fill="#E7EFF7"/>
<path opacity="0.2" d="M147.453 89.7046H143.842V93.3188H147.453V89.7046Z" fill="#E7EFF7"/>
<path opacity="0.2" d="M165.432 89.7046H161.82V93.3188H165.432V89.7046Z" fill="#E7EFF7"/>
<path opacity="0.2" d="M183.412 89.7046H179.801V93.3188H183.412V89.7046Z" fill="#E7EFF7"/>
<path opacity="0.2" d="M213.379 89.7046H209.768V93.3188H213.379V89.7046Z" fill="#E7EFF7"/>
<path opacity="0.1" d="M255.334 89.7046H251.723V93.3188H255.334V89.7046Z" fill="#E7EFF7"/>
<path opacity="0.15" d="M3.6112 83.7241H0V87.3384H3.6112V83.7241Z" fill="#E7EFF7"/>
<path opacity="0.15" d="M15.5975 83.7241H11.9863V87.3384H15.5975V83.7241Z" fill="#E7EFF7"/>
<path opacity="0.15" d="M33.576 83.7241H29.9648V87.3384H33.576V83.7241Z" fill="#E7EFF7"/>
<path opacity="0.15" d="M39.5721 83.7241H35.9609V87.3384H39.5721V83.7241Z" fill="#E7EFF7"/>
<path opacity="0.15" d="M51.5565 83.7241H47.9453V87.3384H51.5565V83.7241Z" fill="#E7EFF7"/>
<path opacity="0.15" d="M57.5526 83.7241H53.9414V87.3384H57.5526V83.7241Z" fill="#E7EFF7"/>
<path opacity="0.15" d="M63.5468 83.7241H59.9355V87.3384H63.5468V83.7241Z" fill="#E7EFF7"/>
<path opacity="0.15" d="M81.5253 83.7241H77.9141V87.3384H81.5253V83.7241Z" fill="#E7EFF7"/>
<path opacity="0.15" d="M99.5057 83.7241H95.8945V87.3384H99.5057V83.7241Z" fill="#E7EFF7"/>
<path opacity="0.15" d="M147.453 83.7241H143.842V87.3384H147.453V83.7241Z" fill="#E7EFF7"/>
<path opacity="0.15" d="M153.445 83.7241H149.834V87.3384H153.445V83.7241Z" fill="#E7EFF7"/>
<path opacity="0.15" d="M159.439 83.7241H155.828V87.3384H159.439V83.7241Z" fill="#E7EFF7"/>
<path opacity="0.15" d="M177.42 83.7241H173.809V87.3384H177.42V83.7241Z" fill="#E7EFF7"/>
<path opacity="0.15" d="M207.385 83.7241H203.773V87.3384H207.385V83.7241Z" fill="#E7EFF7"/>
<path opacity="0.05" d="M261.328 83.7241H257.717V87.3384H261.328V83.7241Z" fill="#E7EFF7"/>
<path opacity="0.15" d="M21.5917 77.7441H17.9805V81.3584H21.5917V77.7441Z" fill="#E7EFF7"/>
<path opacity="0.15" d="M33.576 77.7441H29.9648V81.3584H33.576V77.7441Z" fill="#E7EFF7"/>
<path opacity="0.15" d="M69.5409 77.7441H65.9297V81.3584H69.5409V77.7441Z" fill="#E7EFF7"/>
<path opacity="0.15" d="M75.5331 77.7441H71.9219V81.3584H75.5331V77.7441Z" fill="#E7EFF7"/>
<path opacity="0.15" d="M87.5194 77.7441H83.9082V81.3584H87.5194V77.7441Z" fill="#E7EFF7"/>
<path opacity="0.15" d="M93.5135 77.7441H89.9023V81.3584H93.5135V77.7441Z" fill="#E7EFF7"/>
<path opacity="0.15" d="M111.494 77.7441H107.883V81.3584H111.494V77.7441Z" fill="#E7EFF7"/>
<path opacity="0.15" d="M117.486 77.7441H113.875V81.3584H117.486V77.7441Z" fill="#E7EFF7"/>
<path opacity="0.15" d="M123.478 77.7441H119.867V81.3584H123.478V77.7441Z" fill="#E7EFF7"/>
<path opacity="0.15" d="M153.445 77.7441H149.834V81.3584H153.445V77.7441Z" fill="#E7EFF7"/>
<path opacity="0.15" d="M165.432 77.7441H161.82V81.3584H165.432V77.7441Z" fill="#E7EFF7"/>
<path opacity="0.15" d="M177.42 77.7441H173.809V81.3584H177.42V77.7441Z" fill="#E7EFF7"/>
<path opacity="0.15" d="M189.404 77.7441H185.793V81.3584H189.404V77.7441Z" fill="#E7EFF7"/>
<path opacity="0.15" d="M201.392 77.7441H197.781V81.3584H201.392V77.7441Z" fill="#E7EFF7"/>
<path opacity="0.15" d="M219.371 77.7441H215.76V81.3584H219.371V77.7441Z" fill="#E7EFF7"/>
<path opacity="0.1" d="M225.367 77.7441H221.756V81.3584H225.367V77.7441Z" fill="#E7EFF7"/>
<path opacity="0.15" d="M3.6112 71.7642H0V75.3784H3.6112V71.7642Z" fill="#E7EFF7"/>
<path opacity="0.15" d="M9.60534 71.7642H5.99414V75.3784H9.60534V71.7642Z" fill="#E7EFF7"/>
<path opacity="0.15" d="M15.5975 71.7642H11.9863V75.3784H15.5975V71.7642Z" fill="#E7EFF7"/>
<path opacity="0.15" d="M21.5917 71.7642H17.9805V75.3784H21.5917V71.7642Z" fill="#E7EFF7"/>
<path opacity="0.15" d="M33.576 71.7642H29.9648V75.3784H33.576V71.7642Z" fill="#E7EFF7"/>
<path opacity="0.15" d="M51.5565 71.7642H47.9453V75.3784H51.5565V71.7642Z" fill="#E7EFF7"/>
<path opacity="0.15" d="M57.5526 71.7642H53.9414V75.3784H57.5526V71.7642Z" fill="#E7EFF7"/>
<path opacity="0.15" d="M63.5468 71.7642H59.9355V75.3784H63.5468V71.7642Z" fill="#E7EFF7"/>
<path opacity="0.15" d="M69.5409 71.7642H65.9297V75.3784H69.5409V71.7642Z" fill="#E7EFF7"/>
<path opacity="0.15" d="M81.5253 71.7642H77.9141V75.3784H81.5253V71.7642Z" fill="#E7EFF7"/>
<path opacity="0.15" d="M87.5194 71.7642H83.9082V75.3784H87.5194V71.7642Z" fill="#E7EFF7"/>
<path opacity="0.15" d="M129.473 71.7642H125.861V75.3784H129.473V71.7642Z" fill="#E7EFF7"/>
<path opacity="0.15" d="M147.453 71.7642H143.842V75.3784H147.453V71.7642Z" fill="#E7EFF7"/>
<path opacity="0.15" d="M189.404 71.7642H185.793V75.3784H189.404V71.7642Z" fill="#E7EFF7"/>
<path opacity="0.15" d="M195.398 71.7642H191.787V75.3784H195.398V71.7642Z" fill="#E7EFF7"/>
<path opacity="0.05" d="M219.371 71.7642H215.76V75.3784H219.371V71.7642Z" fill="#E7EFF7"/>
<path opacity="0.15" d="M9.60534 65.7808H5.99414V69.395H9.60534V65.7808Z" fill="#E7EFF7"/>
<path opacity="0.15" d="M21.5917 65.7808H17.9805V69.395H21.5917V65.7808Z" fill="#E7EFF7"/>
<path opacity="0.15" d="M33.576 65.7808H29.9648V69.395H33.576V65.7808Z" fill="#E7EFF7"/>
<path opacity="0.15" d="M69.5409 65.7808H65.9297V69.395H69.5409V65.7808Z" fill="#E7EFF7"/>
<path opacity="0.15" d="M93.5135 65.7808H89.9023V69.395H93.5135V65.7808Z" fill="#E7EFF7"/>
<path opacity="0.15" d="M117.486 65.7808H113.875V69.395H117.486V65.7808Z" fill="#E7EFF7"/>
<path opacity="0.15" d="M129.473 65.7808H125.861V69.395H129.473V65.7808Z" fill="#E7EFF7"/>
<path opacity="0.15" d="M141.459 65.7808H137.848V69.395H141.459V65.7808Z" fill="#E7EFF7"/>
<path opacity="0.15" d="M153.445 65.7808H149.834V69.395H153.445V65.7808Z" fill="#E7EFF7"/>
<path opacity="0.15" d="M177.42 65.7808H173.809V69.395H177.42V65.7808Z" fill="#E7EFF7"/>
<path opacity="0.15" d="M195.398 65.7808H191.787V69.395H195.398V65.7808Z" fill="#E7EFF7"/>
<path opacity="0.15" d="M3.6112 59.8008H0V63.415H3.6112V59.8008Z" fill="#E7EFF7"/>
<path opacity="0.15" d="M15.5975 59.8008H11.9863V63.415H15.5975V59.8008Z" fill="#E7EFF7"/>
<path opacity="0.15" d="M57.5526 59.8008H53.9414V63.415H57.5526V59.8008Z" fill="#E7EFF7"/>
<path opacity="0.15" d="M63.5468 59.8008H59.9355V63.415H63.5468V59.8008Z" fill="#E7EFF7"/>
<path opacity="0.15" d="M93.5135 59.8008H89.9023V63.415H93.5135V59.8008Z" fill="#E7EFF7"/>
<path opacity="0.15" d="M123.478 59.8008H119.867V63.415H123.478V59.8008Z" fill="#E7EFF7"/>
<path opacity="0.15" d="M159.439 59.8008H155.828V63.415H159.439V59.8008Z" fill="#E7EFF7"/>
<path opacity="0.15" d="M183.412 59.8008H179.801V63.415H183.412V59.8008Z" fill="#E7EFF7"/>
<path opacity="0.1" d="M3.6112 53.8208H0V57.435H3.6112V53.8208Z" fill="#E7EFF7"/>
<path opacity="0.1" d="M39.5721 53.8208H35.9609V57.435H39.5721V53.8208Z" fill="#E7EFF7"/>
<path opacity="0.1" d="M57.5526 53.8208H53.9414V57.435H57.5526V53.8208Z" fill="#E7EFF7"/>
<path opacity="0.1" d="M63.5468 53.8208H59.9355V57.435H63.5468V53.8208Z" fill="#E7EFF7"/>
<path opacity="0.1" d="M81.5253 53.8208H77.9141V57.435H81.5253V53.8208Z" fill="#E7EFF7"/>
<path opacity="0.1" d="M93.5135 53.8208H89.9023V57.435H93.5135V53.8208Z" fill="#E7EFF7"/>
<path opacity="0.1" d="M141.459 53.8208H137.848V57.435H141.459V53.8208Z" fill="#E7EFF7"/>
<path opacity="0.1" d="M165.432 53.8208H161.82V57.435H165.432V53.8208Z" fill="#E7EFF7"/>
<path opacity="0.1" d="M3.6112 47.8408H0V51.4551H3.6112V47.8408Z" fill="#E7EFF7"/>
<path opacity="0.1" d="M15.5975 47.8408H11.9863V51.4551H15.5975V47.8408Z" fill="#E7EFF7"/>
<path opacity="0.1" d="M21.5917 47.8408H17.9805V51.4551H21.5917V47.8408Z" fill="#E7EFF7"/>
<path opacity="0.1" d="M39.5721 47.8408H35.9609V51.4551H39.5721V47.8408Z" fill="#E7EFF7"/>
<path opacity="0.1" d="M57.5526 47.8408H53.9414V51.4551H57.5526V47.8408Z" fill="#E7EFF7"/>
<path opacity="0.1" d="M81.5253 47.8408H77.9141V51.4551H81.5253V47.8408Z" fill="#E7EFF7"/>
<path opacity="0.1" d="M99.5057 47.8408H95.8945V51.4551H99.5057V47.8408Z" fill="#E7EFF7"/>
<path opacity="0.1" d="M123.478 47.8408H119.867V51.4551H123.478V47.8408Z" fill="#E7EFF7"/>
<path opacity="0.1" d="M189.404 47.8408H185.793V51.4551H189.404V47.8408Z" fill="#E7EFF7"/>
<path opacity="0.1" d="M15.5975 41.8608H11.9863V45.4751H15.5975V41.8608Z" fill="#E7EFF7"/>
<path opacity="0.1" d="M63.5468 41.8608H59.9355V45.4751H63.5468V41.8608Z" fill="#E7EFF7"/>
<path opacity="0.1" d="M75.5331 41.8608H71.9219V45.4751H75.5331V41.8608Z" fill="#E7EFF7"/>
<path opacity="0.1" d="M93.5135 41.8608H89.9023V45.4751H93.5135V41.8608Z" fill="#E7EFF7"/>
<path opacity="0.1" d="M147.453 41.8608H143.842V45.4751H147.453V41.8608Z" fill="#E7EFF7"/>
<path opacity="0.1" d="M3.6112 35.8804H0V39.4946H3.6112V35.8804Z" fill="#E7EFF7"/>
<path opacity="0.1" d="M21.5917 35.8804H17.9805V39.4946H21.5917V35.8804Z" fill="#E7EFF7"/>
<path opacity="0.1" d="M39.5721 35.8804H35.9609V39.4946H39.5721V35.8804Z" fill="#E7EFF7"/>
<path opacity="0.1" d="M63.5468 35.8804H59.9355V39.4946H63.5468V35.8804Z" fill="#E7EFF7"/>
<path opacity="0.1" d="M69.5409 35.8804H65.9297V39.4946H69.5409V35.8804Z" fill="#E7EFF7"/>
<path opacity="0.1" d="M81.5253 35.8804H77.9141V39.4946H81.5253V35.8804Z" fill="#E7EFF7"/>
<path opacity="0.1" d="M123.478 35.8804H119.867V39.4946H123.478V35.8804Z" fill="#E7EFF7"/>
<path opacity="0.1" d="M141.459 35.8804H137.848V39.4946H141.459V35.8804Z" fill="#E7EFF7"/>
<path opacity="0.05" d="M177.42 35.8804H173.809V39.4946H177.42V35.8804Z" fill="#E7EFF7"/>
<path opacity="0.1" d="M63.5468 29.9004H59.9355V33.5146H63.5468V29.9004Z" fill="#E7EFF7"/>
<path opacity="0.1" d="M3.6112 23.9204H0V27.5346H3.6112V23.9204Z" fill="#E7EFF7"/>
<path opacity="0.1" d="M21.5917 23.9204H17.9805V27.5346H21.5917V23.9204Z" fill="#E7EFF7"/>
<path opacity="0.1" d="M81.5253 23.9204H77.9141V27.5346H81.5253V23.9204Z" fill="#E7EFF7"/>
<path opacity="0.1" d="M21.5917 11.96H17.9805V15.5742H21.5917V11.96Z" fill="#E7EFF7"/>
<path opacity="0.65" d="M279.301 185.386H275.689V189H279.301V185.386Z" fill="#E7EFF7"/>
<path opacity="0.65" d="M297.279 185.386H293.668V189H297.279V185.386Z" fill="#E7EFF7"/>
<path opacity="0.65" d="M303.273 185.386H299.662V189H303.273V185.386Z" fill="#E7EFF7"/>
<path opacity="0.65" d="M309.267 185.386H305.656V189H309.267V185.386Z" fill="#E7EFF7"/>
<path opacity="0.65" d="M321.254 185.386H317.643V189H321.254V185.386Z" fill="#E7EFF7"/>
<path opacity="0.65" d="M327.248 185.386H323.637V189H327.248V185.386Z" fill="#E7EFF7"/>
<path opacity="0.65" d="M345.226 185.386H341.615V189H345.226V185.386Z" fill="#E7EFF7"/>
<path opacity="0.65" d="M375.193 185.386H371.582V189H375.193V185.386Z" fill="#E7EFF7"/>
<path opacity="0.65" d="M399.166 185.386H395.555V189H399.166V185.386Z" fill="#E7EFF7"/>
<path opacity="0.65" d="M405.158 185.386H401.547V189H405.158V185.386Z" fill="#E7EFF7"/>
<path opacity="0.65" d="M417.146 185.386H413.535V189H417.146V185.386Z" fill="#E7EFF7"/>
<path opacity="0.65" d="M423.139 185.386H419.527V189H423.139V185.386Z" fill="#E7EFF7"/>
<path opacity="0.65" d="M429.135 185.386H425.523V189H429.135V185.386Z" fill="#E7EFF7"/>
<path opacity="0.65" d="M441.123 185.386H437.512V189H441.123V185.386Z" fill="#E7EFF7"/>
<path opacity="0.65" d="M459.101 185.386H455.49V189H459.101V185.386Z" fill="#E7EFF7"/>
<path opacity="0.65" d="M471.088 185.386H467.477V189H471.088V185.386Z" fill="#E7EFF7"/>
<path opacity="0.65" d="M489.068 185.386H485.457V189H489.068V185.386Z" fill="#E7EFF7"/>
<path opacity="0.65" d="M507.047 185.386H503.436V189H507.047V185.386Z" fill="#E7EFF7"/>
<path opacity="0.65" d="M513.041 185.386H509.43V189H513.041V185.386Z" fill="#E7EFF7"/>
<path opacity="0.65" d="M525.027 185.386H521.416V189H525.027V185.386Z" fill="#E7EFF7"/>
<path opacity="0.65" d="M531.019 185.386H527.408V189H531.019V185.386Z" fill="#E7EFF7"/>
<path opacity="0.65" d="M549 185.386H545.389V189H549V185.386Z" fill="#E7EFF7"/>
<path opacity="0.65" d="M279.301 179.406H275.689V183.02H279.301V179.406Z" fill="#E7EFF7"/>
<path opacity="0.65" d="M285.295 179.406H281.684V183.02H285.295V179.406Z" fill="#E7EFF7"/>
<path opacity="0.65" d="M297.279 179.406H293.668V183.02H297.279V179.406Z" fill="#E7EFF7"/>
<path opacity="0.65" d="M303.273 179.406H299.662V183.02H303.273V179.406Z" fill="#E7EFF7"/>
<path opacity="0.65" d="M309.267 179.406H305.656V183.02H309.267V179.406Z" fill="#E7EFF7"/>
<path opacity="0.65" d="M315.26 179.406H311.648V183.02H315.26V179.406Z" fill="#E7EFF7"/>
<path opacity="0.65" d="M327.248 179.406H323.637V183.02H327.248V179.406Z" fill="#E7EFF7"/>
<path opacity="0.65" d="M333.24 179.406H329.629V183.02H333.24V179.406Z" fill="#E7EFF7"/>
<path opacity="0.65" d="M351.221 179.406H347.609V183.02H351.221V179.406Z" fill="#E7EFF7"/>
<path opacity="0.65" d="M357.213 179.406H353.602V183.02H357.213V179.406Z" fill="#E7EFF7"/>
<path opacity="0.65" d="M369.199 179.406H365.588V183.02H369.199V179.406Z" fill="#E7EFF7"/>
<path opacity="0.65" d="M375.193 179.406H371.582V183.02H375.193V179.406Z" fill="#E7EFF7"/>
<path opacity="0.65" d="M399.166 179.406H395.555V183.02H399.166V179.406Z" fill="#E7EFF7"/>
<path opacity="0.65" d="M423.139 179.406H419.527V183.02H423.139V179.406Z" fill="#E7EFF7"/>
<path opacity="0.65" d="M429.135 179.406H425.523V183.02H429.135V179.406Z" fill="#E7EFF7"/>
<path opacity="0.65" d="M435.127 179.406H431.516V183.02H435.127V179.406Z" fill="#E7EFF7"/>
<path opacity="0.65" d="M447.115 179.406H443.504V183.02H447.115V179.406Z" fill="#E7EFF7"/>
<path opacity="0.65" d="M453.107 179.406H449.496V183.02H453.107V179.406Z" fill="#E7EFF7"/>
<path opacity="0.65" d="M459.101 179.406H455.49V183.02H459.101V179.406Z" fill="#E7EFF7"/>
<path opacity="0.65" d="M471.088 179.406H467.477V183.02H471.088V179.406Z" fill="#E7EFF7"/>
<path opacity="0.65" d="M495.06 179.406H491.449V183.02H495.06V179.406Z" fill="#E7EFF7"/>
<path opacity="0.65" d="M501.053 179.406H497.441V183.02H501.053V179.406Z" fill="#E7EFF7"/>
<path opacity="0.65" d="M507.047 179.406H503.436V183.02H507.047V179.406Z" fill="#E7EFF7"/>
<path opacity="0.65" d="M531.019 179.406H527.408V183.02H531.019V179.406Z" fill="#E7EFF7"/>
<path opacity="0.5" d="M279.301 173.426H275.689V177.04H279.301V173.426Z" fill="#E7EFF7"/>
<path opacity="0.5" d="M285.295 173.426H281.684V177.04H285.295V173.426Z" fill="#E7EFF7"/>
<path opacity="0.5" d="M291.287 173.426H287.676V177.04H291.287V173.426Z" fill="#E7EFF7"/>
<path opacity="0.5" d="M303.273 173.426H299.662V177.04H303.273V173.426Z" fill="#E7EFF7"/>
<path opacity="0.5" d="M309.267 173.426H305.656V177.04H309.267V173.426Z" fill="#E7EFF7"/>
<path opacity="0.5" d="M315.26 173.426H311.648V177.04H315.26V173.426Z" fill="#E7EFF7"/>
<path opacity="0.5" d="M327.248 173.426H323.637V177.04H327.248V173.426Z" fill="#E7EFF7"/>
<path opacity="0.5" d="M357.213 173.426H353.602V177.04H357.213V173.426Z" fill="#E7EFF7"/>
<path opacity="0.5" d="M381.185 173.426H377.574V177.04H381.185V173.426Z" fill="#E7EFF7"/>
<path opacity="0.5" d="M399.166 173.426H395.555V177.04H399.166V173.426Z" fill="#E7EFF7"/>
<path opacity="0.5" d="M411.152 173.426H407.541V177.04H411.152V173.426Z" fill="#E7EFF7"/>
<path opacity="0.5" d="M423.139 173.426H419.527V177.04H423.139V173.426Z" fill="#E7EFF7"/>
<path opacity="0.5" d="M435.127 173.426H431.516V177.04H435.127V173.426Z" fill="#E7EFF7"/>
<path opacity="0.5" d="M441.123 173.426H437.512V177.04H441.123V173.426Z" fill="#E7EFF7"/>
<path opacity="0.5" d="M447.115 173.426H443.504V177.04H447.115V173.426Z" fill="#E7EFF7"/>
<path opacity="0.5" d="M453.107 173.426H449.496V177.04H453.107V173.426Z" fill="#E7EFF7"/>
<path opacity="0.5" d="M459.101 173.426H455.49V177.04H459.101V173.426Z" fill="#E7EFF7"/>
<path opacity="0.5" d="M471.088 173.426H467.477V177.04H471.088V173.426Z" fill="#E7EFF7"/>
<path opacity="0.5" d="M489.068 173.426H485.457V177.04H489.068V173.426Z" fill="#E7EFF7"/>
<path opacity="0.5" d="M507.047 173.426H503.436V177.04H507.047V173.426Z" fill="#E7EFF7"/>
<path opacity="0.5" d="M513.041 173.426H509.43V177.04H513.041V173.426Z" fill="#E7EFF7"/>
<path opacity="0.5" d="M525.027 173.426H521.416V177.04H525.027V173.426Z" fill="#E7EFF7"/>
<path opacity="0.5" d="M549 173.426H545.389V177.04H549V173.426Z" fill="#E7EFF7"/>
<path opacity="0.5" d="M285.295 167.445H281.684V171.06H285.295V167.445Z" fill="#E7EFF7"/>
<path opacity="0.5" d="M303.273 167.445H299.662V171.06H303.273V167.445Z" fill="#E7EFF7"/>
<path opacity="0.5" d="M309.267 167.445H305.656V171.06H309.267V167.445Z" fill="#E7EFF7"/>
<path opacity="0.5" d="M315.26 167.445H311.648V171.06H315.26V167.445Z" fill="#E7EFF7"/>
<path opacity="0.5" d="M327.248 167.445H323.637V171.06H327.248V167.445Z" fill="#E7EFF7"/>
<path opacity="0.5" d="M333.24 167.445H329.629V171.06H333.24V167.445Z" fill="#E7EFF7"/>
<path opacity="0.5" d="M351.221 167.445H347.609V171.06H351.221V167.445Z" fill="#E7EFF7"/>
<path opacity="0.5" d="M357.213 167.445H353.602V171.06H357.213V167.445Z" fill="#E7EFF7"/>
<path opacity="0.5" d="M369.199 167.445H365.588V171.06H369.199V167.445Z" fill="#E7EFF7"/>
<path opacity="0.5" d="M375.193 167.445H371.582V171.06H375.193V167.445Z" fill="#E7EFF7"/>
<path opacity="0.5" d="M381.185 167.445H377.574V171.06H381.185V167.445Z" fill="#E7EFF7"/>
<path opacity="0.5" d="M393.174 167.445H389.562V171.06H393.174V167.445Z" fill="#E7EFF7"/>
<path opacity="0.5" d="M423.139 167.445H419.527V171.06H423.139V167.445Z" fill="#E7EFF7"/>
<path opacity="0.5" d="M435.127 167.445H431.516V171.06H435.127V167.445Z" fill="#E7EFF7"/>
<path opacity="0.5" d="M441.123 167.445H437.512V171.06H441.123V167.445Z" fill="#E7EFF7"/>
<path opacity="0.5" d="M447.115 167.445H443.504V171.06H447.115V167.445Z" fill="#E7EFF7"/>
<path opacity="0.5" d="M459.101 167.445H455.49V171.06H459.101V167.445Z" fill="#E7EFF7"/>
<path opacity="0.5" d="M477.082 167.445H473.471V171.06H477.082V167.445Z" fill="#E7EFF7"/>
<path opacity="0.5" d="M483.074 167.445H479.463V171.06H483.074V167.445Z" fill="#E7EFF7"/>
<path opacity="0.5" d="M495.06 167.445H491.449V171.06H495.06V167.445Z" fill="#E7EFF7"/>
<path opacity="0.5" d="M501.053 167.445H497.441V171.06H501.053V167.445Z" fill="#E7EFF7"/>
<path opacity="0.5" d="M513.041 167.445H509.43V171.06H513.041V167.445Z" fill="#E7EFF7"/>
<path opacity="0.5" d="M525.027 167.445H521.416V171.06H525.027V167.445Z" fill="#E7EFF7"/>
<path opacity="0.5" d="M537.014 167.445H533.402V171.06H537.014V167.445Z" fill="#E7EFF7"/>
<path opacity="0.5" d="M549 167.445H545.389V171.06H549V167.445Z" fill="#E7EFF7"/>
<path opacity="0.5" d="M279.301 161.465H275.689V165.08H279.301V161.465Z" fill="#E7EFF7"/>
<path opacity="0.5" d="M285.295 161.465H281.684V165.08H285.295V161.465Z" fill="#E7EFF7"/>
<path opacity="0.5" d="M309.267 161.465H305.656V165.08H309.267V161.465Z" fill="#E7EFF7"/>
<path opacity="0.5" d="M327.248 161.465H323.637V165.08H327.248V161.465Z" fill="#E7EFF7"/>
<path opacity="0.5" d="M333.24 161.465H329.629V165.08H333.24V161.465Z" fill="#E7EFF7"/>
<path opacity="0.5" d="M351.221 161.465H347.609V165.08H351.221V161.465Z" fill="#E7EFF7"/>
<path opacity="0.5" d="M369.199 161.465H365.588V165.08H369.199V161.465Z" fill="#E7EFF7"/>
<path opacity="0.5" d="M381.185 161.465H377.574V165.08H381.185V161.465Z" fill="#E7EFF7"/>
<path opacity="0.5" d="M387.18 161.465H383.568V165.08H387.18V161.465Z" fill="#E7EFF7"/>
<path opacity="0.5" d="M393.174 161.465H389.562V165.08H393.174V161.465Z" fill="#E7EFF7"/>
<path opacity="0.5" d="M399.166 161.465H395.555V165.08H399.166V161.465Z" fill="#E7EFF7"/>
<path opacity="0.5" d="M405.158 161.465H401.547V165.08H405.158V161.465Z" fill="#E7EFF7"/>
<path opacity="0.5" d="M447.115 161.465H443.504V165.08H447.115V161.465Z" fill="#E7EFF7"/>
<path opacity="0.5" d="M453.107 161.465H449.496V165.08H453.107V161.465Z" fill="#E7EFF7"/>
<path opacity="0.5" d="M459.101 161.465H455.49V165.08H459.101V161.465Z" fill="#E7EFF7"/>
<path opacity="0.5" d="M471.088 161.465H467.477V165.08H471.088V161.465Z" fill="#E7EFF7"/>
<path opacity="0.5" d="M477.082 161.465H473.471V165.08H477.082V161.465Z" fill="#E7EFF7"/>
<path opacity="0.5" d="M483.074 161.465H479.463V165.08H483.074V161.465Z" fill="#E7EFF7"/>
<path opacity="0.5" d="M489.068 161.465H485.457V165.08H489.068V161.465Z" fill="#E7EFF7"/>
<path opacity="0.5" d="M513.041 161.465H509.43V165.08H513.041V161.465Z" fill="#E7EFF7"/>
<path opacity="0.5" d="M525.027 161.465H521.416V165.08H525.027V161.465Z" fill="#E7EFF7"/>
<path opacity="0.5" d="M531.019 161.465H527.408V165.08H531.019V161.465Z" fill="#E7EFF7"/>
<path opacity="0.5" d="M549 161.465H545.389V165.08H549V161.465Z" fill="#E7EFF7"/>
<path opacity="0.45" d="M303.273 155.488H299.662V159.103H303.273V155.488Z" fill="#E7EFF7"/>
<path opacity="0.45" d="M309.267 155.488H305.656V159.103H309.267V155.488Z" fill="#E7EFF7"/>
<path opacity="0.45" d="M327.248 155.488H323.637V159.103H327.248V155.488Z" fill="#E7EFF7"/>
<path opacity="0.45" d="M345.226 155.491H341.615V159.105H345.226V155.491Z" fill="#E7EFF7"/>
<path opacity="0.45" d="M351.221 155.491H347.609V159.105H351.221V155.491Z" fill="#E7EFF7"/>
<path opacity="0.45" d="M357.213 155.491H353.602V159.105H357.213V155.491Z" fill="#E7EFF7"/>
<path opacity="0.45" d="M369.199 155.491H365.588V159.105H369.199V155.491Z" fill="#E7EFF7"/>
<path opacity="0.45" d="M387.18 155.495H383.568V159.109H387.18V155.495Z" fill="#E7EFF7"/>
<path opacity="0.45" d="M399.166 155.495H395.555V159.109H399.166V155.495Z" fill="#E7EFF7"/>
<path opacity="0.45" d="M405.158 155.495H401.547V159.109H405.158V155.495Z" fill="#E7EFF7"/>
<path opacity="0.45" d="M411.152 155.495H407.541V159.109H411.152V155.495Z" fill="#E7EFF7"/>
<path opacity="0.45" d="M423.139 155.498H419.527V159.112H423.139V155.498Z" fill="#E7EFF7"/>
<path opacity="0.45" d="M429.131 155.498H425.52V159.112H429.131V155.498Z" fill="#E7EFF7"/>
<path opacity="0.45" d="M435.125 155.498H431.514V159.112H435.125V155.498Z" fill="#E7EFF7"/>
<path opacity="0.45" d="M441.119 155.498H437.508V159.112H441.119V155.498Z" fill="#E7EFF7"/>
<path opacity="0.45" d="M447.111 155.498H443.5V159.112H447.111V155.498Z" fill="#E7EFF7"/>
<path opacity="0.45" d="M477.082 155.5H473.471V159.115H477.082V155.5Z" fill="#E7EFF7"/>
<path opacity="0.45" d="M483.074 155.5H479.463V159.115H483.074V155.5Z" fill="#E7EFF7"/>
<path opacity="0.45" d="M489.068 155.5H485.457V159.115H489.068V155.5Z" fill="#E7EFF7"/>
<path opacity="0.45" d="M501.053 155.5H497.441V159.115H501.053V155.5Z" fill="#E7EFF7"/>
<path opacity="0.45" d="M513.041 155.503H509.43V159.118H513.041V155.503Z" fill="#E7EFF7"/>
<path opacity="0.45" d="M537.014 155.503H533.402V159.118H537.014V155.503Z" fill="#E7EFF7"/>
<path opacity="0.45" d="M543.008 155.503H539.396V159.118H543.008V155.503Z" fill="#E7EFF7"/>
<path opacity="0.4" d="M279.301 149.505H275.689V153.12H279.301V149.505Z" fill="#E7EFF7"/>
<path opacity="0.4" d="M285.295 149.505H281.684V153.12H285.295V149.505Z" fill="#E7EFF7"/>
<path opacity="0.4" d="M303.273 149.508H299.662V153.123H303.273V149.508Z" fill="#E7EFF7"/>
<path opacity="0.4" d="M309.267 149.508H305.656V153.123H309.267V149.508Z" fill="#E7EFF7"/>
<path opacity="0.4" d="M315.26 149.508H311.648V153.123H315.26V149.508Z" fill="#E7EFF7"/>
<path opacity="0.4" d="M327.248 149.508H323.637V153.123H327.248V149.508Z" fill="#E7EFF7"/>
<path opacity="0.4" d="M333.24 149.508H329.629V153.123H333.24V149.508Z" fill="#E7EFF7"/>
<path opacity="0.4" d="M357.213 149.511H353.602V153.125H357.213V149.511Z" fill="#E7EFF7"/>
<path opacity="0.4" d="M375.193 149.511H371.582V153.125H375.193V149.511Z" fill="#E7EFF7"/>
<path opacity="0.4" d="M381.185 149.514H377.574V153.128H381.185V149.514Z" fill="#E7EFF7"/>
<path opacity="0.4" d="M411.152 149.514H407.541V153.128H411.152V149.514Z" fill="#E7EFF7"/>
<path opacity="0.4" d="M429.135 149.518H425.523V153.132H429.135V149.518Z" fill="#E7EFF7"/>
<path opacity="0.4" d="M447.115 149.518H443.504V153.132H447.115V149.518Z" fill="#E7EFF7"/>
<path opacity="0.4" d="M453.107 149.518H449.496V153.132H453.107V149.518Z" fill="#E7EFF7"/>
<path opacity="0.4" d="M459.101 149.518H455.49V153.132H459.101V149.518Z" fill="#E7EFF7"/>
<path opacity="0.4" d="M471.088 149.521H467.477V153.135H471.088V149.521Z" fill="#E7EFF7"/>
<path opacity="0.4" d="M477.082 149.521H473.471V153.135H477.082V149.521Z" fill="#E7EFF7"/>
<path opacity="0.4" d="M489.068 149.521H485.457V153.135H489.068V149.521Z" fill="#E7EFF7"/>
<path opacity="0.4" d="M501.053 149.521H497.441V153.135H501.053V149.521Z" fill="#E7EFF7"/>
<path opacity="0.4" d="M507.047 149.521H503.436V153.135H507.047V149.521Z" fill="#E7EFF7"/>
<path opacity="0.4" d="M513.041 149.523H509.43V153.138H513.041V149.523Z" fill="#E7EFF7"/>
<path opacity="0.4" d="M525.027 149.523H521.416V153.138H525.027V149.523Z" fill="#E7EFF7"/>
<path opacity="0.4" d="M531.019 149.523H527.408V153.138H531.019V149.523Z" fill="#E7EFF7"/>
<path opacity="0.4" d="M537.014 149.523H533.402V153.138H537.014V149.523Z" fill="#E7EFF7"/>
<path opacity="0.4" d="M543.008 149.523H539.396V153.138H543.008V149.523Z" fill="#E7EFF7"/>
<path opacity="0.4" d="M549 149.523H545.389V153.138H549V149.523Z" fill="#E7EFF7"/>
<path opacity="0.4" d="M279.301 143.525H275.689V147.14H279.301V143.525Z" fill="#E7EFF7"/>
<path opacity="0.4" d="M291.287 143.525H287.676V147.14H291.287V143.525Z" fill="#E7EFF7"/>
<path opacity="0.4" d="M303.273 143.528H299.662V147.143H303.273V143.528Z" fill="#E7EFF7"/>
<path opacity="0.4" d="M315.26 143.528H311.648V147.143H315.26V143.528Z" fill="#E7EFF7"/>
<path opacity="0.4" d="M327.248 143.528H323.637V147.143H327.248V143.528Z" fill="#E7EFF7"/>
<path opacity="0.4" d="M333.24 143.528H329.629V147.143H333.24V143.528Z" fill="#E7EFF7"/>
<path opacity="0.4" d="M339.232 143.531H335.621V147.145H339.232V143.531Z" fill="#E7EFF7"/>
<path opacity="0.4" d="M345.226 143.531H341.615V147.145H345.226V143.531Z" fill="#E7EFF7"/>
<path opacity="0.4" d="M351.221 143.531H347.609V147.145H351.221V143.531Z" fill="#E7EFF7"/>
<path opacity="0.4" d="M369.199 143.531H365.588V147.145H369.199V143.531Z" fill="#E7EFF7"/>
<path opacity="0.4" d="M375.193 143.531H371.582V147.145H375.193V143.531Z" fill="#E7EFF7"/>
<path opacity="0.4" d="M381.185 143.531H377.574V147.145H381.185V143.531Z" fill="#E7EFF7"/>
<path opacity="0.4" d="M387.18 143.534H383.568V147.148H387.18V143.534Z" fill="#E7EFF7"/>
<path opacity="0.4" d="M399.166 143.534H395.555V147.148H399.166V143.534Z" fill="#E7EFF7"/>
<path opacity="0.4" d="M405.162 143.534H401.551V147.148H405.162V143.534Z" fill="#E7EFF7"/>
<path opacity="0.4" d="M435.127 143.537H431.516V147.151H435.127V143.537Z" fill="#E7EFF7"/>
<path opacity="0.4" d="M441.123 143.537H437.512V147.151H441.123V143.537Z" fill="#E7EFF7"/>
<path opacity="0.4" d="M453.107 143.537H449.496V147.151H453.107V143.537Z" fill="#E7EFF7"/>
<path opacity="0.4" d="M483.074 143.541H479.463V147.155H483.074V143.541Z" fill="#E7EFF7"/>
<path opacity="0.4" d="M501.053 143.541H497.441V147.155H501.053V143.541Z" fill="#E7EFF7"/>
<path opacity="0.4" d="M513.041 143.543H509.43V147.158H513.041V143.543Z" fill="#E7EFF7"/>
<path opacity="0.4" d="M525.027 143.543H521.416V147.158H525.027V143.543Z" fill="#E7EFF7"/>
<path opacity="0.4" d="M543.008 143.543H539.396V147.158H543.008V143.543Z" fill="#E7EFF7"/>
<path opacity="0.4" d="M549 143.543H545.389V147.158H549V143.543Z" fill="#E7EFF7"/>
<path opacity="0.3" d="M279.301 137.545H275.689V141.159H279.301V137.545Z" fill="#E7EFF7"/>
<path opacity="0.3" d="M297.279 137.545H293.668V141.159H297.279V137.545Z" fill="#E7EFF7"/>
<path opacity="0.3" d="M303.273 137.545H299.662V141.159H303.273V137.545Z" fill="#E7EFF7"/>
<path opacity="0.3" d="M315.26 137.545H311.648V141.159H315.26V137.545Z" fill="#E7EFF7"/>
<path opacity="0.3" d="M339.232 137.545H335.621V141.159H339.232V137.545Z" fill="#E7EFF7"/>
<path opacity="0.3" d="M345.226 137.545H341.615V141.159H345.226V137.545Z" fill="#E7EFF7"/>
<path opacity="0.3" d="M357.213 137.545H353.602V141.159H357.213V137.545Z" fill="#E7EFF7"/>
<path opacity="0.3" d="M375.193 137.545H371.582V141.159H375.193V137.545Z" fill="#E7EFF7"/>
<path opacity="0.3" d="M387.18 137.545H383.568V141.159H387.18V137.545Z" fill="#E7EFF7"/>
<path opacity="0.3" d="M393.174 137.545H389.562V141.159H393.174V137.545Z" fill="#E7EFF7"/>
<path opacity="0.3" d="M399.166 137.545H395.555V141.159H399.166V137.545Z" fill="#E7EFF7"/>
<path opacity="0.3" d="M411.152 137.545H407.541V141.159H411.152V137.545Z" fill="#E7EFF7"/>
<path opacity="0.3" d="M423.139 137.545H419.527V141.159H423.139V137.545Z" fill="#E7EFF7"/>
<path opacity="0.3" d="M429.135 137.545H425.523V141.159H429.135V137.545Z" fill="#E7EFF7"/>
<path opacity="0.3" d="M435.127 137.545H431.516V141.159H435.127V137.545Z" fill="#E7EFF7"/>
<path opacity="0.3" d="M441.123 137.545H437.512V141.159H441.123V137.545Z" fill="#E7EFF7"/>
<path opacity="0.3" d="M447.115 137.545H443.504V141.159H447.115V137.545Z" fill="#E7EFF7"/>
<path opacity="0.3" d="M453.107 137.545H449.496V141.159H453.107V137.545Z" fill="#E7EFF7"/>
<path opacity="0.3" d="M459.101 137.545H455.49V141.159H459.101V137.545Z" fill="#E7EFF7"/>
<path opacity="0.3" d="M471.088 137.545H467.477V141.159H471.088V137.545Z" fill="#E7EFF7"/>
<path opacity="0.3" d="M483.074 137.545H479.463V141.159H483.074V137.545Z" fill="#E7EFF7"/>
<path opacity="0.3" d="M489.068 137.545H485.457V141.159H489.068V137.545Z" fill="#E7EFF7"/>
<path opacity="0.3" d="M501.053 137.545H497.441V141.159H501.053V137.545Z" fill="#E7EFF7"/>
<path opacity="0.3" d="M519.033 137.545H515.422V141.159H519.033V137.545Z" fill="#E7EFF7"/>
<path opacity="0.3" d="M537.014 137.545H533.402V141.159H537.014V137.545Z" fill="#E7EFF7"/>
<path opacity="0.3" d="M291.287 131.565H287.676V135.179H291.287V131.565Z" fill="#E7EFF7"/>
<path opacity="0.3" d="M303.273 131.565H299.662V135.179H303.273V131.565Z" fill="#E7EFF7"/>
<path opacity="0.3" d="M309.267 131.565H305.656V135.179H309.267V131.565Z" fill="#E7EFF7"/>
<path opacity="0.3" d="M315.26 131.565H311.648V135.179H315.26V131.565Z" fill="#E7EFF7"/>
<path opacity="0.3" d="M327.248 131.565H323.637V135.179H327.248V131.565Z" fill="#E7EFF7"/>
<path opacity="0.3" d="M333.24 131.565H329.629V135.179H333.24V131.565Z" fill="#E7EFF7"/>
<path opacity="0.3" d="M339.232 131.565H335.621V135.179H339.232V131.565Z" fill="#E7EFF7"/>
<path opacity="0.3" d="M345.226 131.565H341.615V135.179H345.226V131.565Z" fill="#E7EFF7"/>
<path opacity="0.3" d="M351.221 131.565H347.609V135.179H351.221V131.565Z" fill="#E7EFF7"/>
<path opacity="0.3" d="M369.199 131.565H365.588V135.179H369.199V131.565Z" fill="#E7EFF7"/>
<path opacity="0.3" d="M375.193 131.565H371.582V135.179H375.193V131.565Z" fill="#E7EFF7"/>
<path opacity="0.3" d="M381.185 131.565H377.574V135.179H381.185V131.565Z" fill="#E7EFF7"/>
<path opacity="0.3" d="M387.18 131.565H383.568V135.179H387.18V131.565Z" fill="#E7EFF7"/>
<path opacity="0.3" d="M399.166 131.565H395.555V135.179H399.166V131.565Z" fill="#E7EFF7"/>
<path opacity="0.3" d="M411.152 131.565H407.541V135.179H411.152V131.565Z" fill="#E7EFF7"/>
<path opacity="0.3" d="M429.135 131.565H425.523V135.179H429.135V131.565Z" fill="#E7EFF7"/>
<path opacity="0.3" d="M435.127 131.565H431.516V135.179H435.127V131.565Z" fill="#E7EFF7"/>
<path opacity="0.3" d="M447.115 131.565H443.504V135.179H447.115V131.565Z" fill="#E7EFF7"/>
<path opacity="0.3" d="M471.088 131.565H467.477V135.179H471.088V131.565Z" fill="#E7EFF7"/>
<path opacity="0.3" d="M507.047 131.565H503.436V135.179H507.047V131.565Z" fill="#E7EFF7"/>
<path opacity="0.3" d="M519.033 131.565H515.422V135.179H519.033V131.565Z" fill="#E7EFF7"/>
<path opacity="0.3" d="M525.027 131.565H521.416V135.179H525.027V131.565Z" fill="#E7EFF7"/>
<path opacity="0.3" d="M537.014 131.565H533.402V135.179H537.014V131.565Z" fill="#E7EFF7"/>
<path opacity="0.25" d="M279.301 125.585H275.689V129.199H279.301V125.585Z" fill="#E7EFF7"/>
<path opacity="0.25" d="M291.287 125.585H287.676V129.199H291.287V125.585Z" fill="#E7EFF7"/>
<path opacity="0.25" d="M297.279 125.585H293.668V129.199H297.279V125.585Z" fill="#E7EFF7"/>
<path opacity="0.25" d="M303.273 125.585H299.662V129.199H303.273V125.585Z" fill="#E7EFF7"/>
<path opacity="0.25" d="M309.267 125.585H305.656V129.199H309.267V125.585Z" fill="#E7EFF7"/>
<path opacity="0.25" d="M321.254 125.585H317.643V129.199H321.254V125.585Z" fill="#E7EFF7"/>
<path opacity="0.25" d="M339.232 125.585H335.621V129.199H339.232V125.585Z" fill="#E7EFF7"/>
<path opacity="0.25" d="M351.221 125.585H347.609V129.199H351.221V125.585Z" fill="#E7EFF7"/>
<path opacity="0.25" d="M357.213 125.585H353.602V129.199H357.213V125.585Z" fill="#E7EFF7"/>
<path opacity="0.25" d="M375.193 125.585H371.582V129.199H375.193V125.585Z" fill="#E7EFF7"/>
<path opacity="0.25" d="M381.185 125.585H377.574V129.199H381.185V125.585Z" fill="#E7EFF7"/>
<path opacity="0.25" d="M393.174 125.585H389.562V129.199H393.174V125.585Z" fill="#E7EFF7"/>
<path opacity="0.25" d="M411.152 125.585H407.541V129.199H411.152V125.585Z" fill="#E7EFF7"/>
<path opacity="0.25" d="M423.139 125.585H419.527V129.199H423.139V125.585Z" fill="#E7EFF7"/>
<path opacity="0.25" d="M429.135 125.585H425.523V129.199H429.135V125.585Z" fill="#E7EFF7"/>
<path opacity="0.25" d="M441.123 125.585H437.512V129.199H441.123V125.585Z" fill="#E7EFF7"/>
<path opacity="0.25" d="M453.107 125.585H449.496V129.199H453.107V125.585Z" fill="#E7EFF7"/>
<path opacity="0.25" d="M459.101 125.585H455.49V129.199H459.101V125.585Z" fill="#E7EFF7"/>
<path opacity="0.25" d="M471.088 125.585H467.477V129.199H471.088V125.585Z" fill="#E7EFF7"/>
<path opacity="0.25" d="M489.068 125.585H485.457V129.199H489.068V125.585Z" fill="#E7EFF7"/>
<path opacity="0.25" d="M495.06 125.585H491.449V129.199H495.06V125.585Z" fill="#E7EFF7"/>
<path opacity="0.25" d="M501.053 125.585H497.441V129.199H501.053V125.585Z" fill="#E7EFF7"/>
<path opacity="0.25" d="M513.041 125.585H509.43V129.199H513.041V125.585Z" fill="#E7EFF7"/>
<path opacity="0.25" d="M519.033 125.585H515.422V129.199H519.033V125.585Z" fill="#E7EFF7"/>
<path opacity="0.25" d="M525.027 125.585H521.416V129.199H525.027V125.585Z" fill="#E7EFF7"/>
<path opacity="0.25" d="M543.008 125.585H539.396V129.199H543.008V125.585Z" fill="#E7EFF7"/>
<path opacity="0.25" d="M549 125.585H545.389V129.199H549V125.585Z" fill="#E7EFF7"/>
<path opacity="0.25" d="M279.301 119.605H275.689V123.219H279.301V119.605Z" fill="#E7EFF7"/>
<path opacity="0.25" d="M291.287 119.605H287.676V123.219H291.287V119.605Z" fill="#E7EFF7"/>
<path opacity="0.25" d="M309.267 119.605H305.656V123.219H309.267V119.605Z" fill="#E7EFF7"/>
<path opacity="0.25" d="M321.254 119.605H317.643V123.219H321.254V119.605Z" fill="#E7EFF7"/>
<path opacity="0.25" d="M327.248 119.605H323.637V123.219H327.248V119.605Z" fill="#E7EFF7"/>
<path opacity="0.25" d="M345.226 119.605H341.615V123.219H345.226V119.605Z" fill="#E7EFF7"/>
<path opacity="0.25" d="M381.185 119.605H377.574V123.219H381.185V119.605Z" fill="#E7EFF7"/>
<path opacity="0.25" d="M387.18 119.605H383.568V123.219H387.18V119.605Z" fill="#E7EFF7"/>
<path opacity="0.25" d="M399.166 119.605H395.555V123.219H399.166V119.605Z" fill="#E7EFF7"/>
<path opacity="0.25" d="M405.158 119.605H401.547V123.219H405.158V119.605Z" fill="#E7EFF7"/>
<path opacity="0.25" d="M423.139 119.605H419.527V123.219H423.139V119.605Z" fill="#E7EFF7"/>
<path opacity="0.25" d="M429.135 119.605H425.523V123.219H429.135V119.605Z" fill="#E7EFF7"/>
<path opacity="0.25" d="M441.123 119.605H437.512V123.219H441.123V119.605Z" fill="#E7EFF7"/>
<path opacity="0.25" d="M447.115 119.605H443.504V123.219H447.115V119.605Z" fill="#E7EFF7"/>
<path opacity="0.25" d="M465.094 119.605H461.482V123.219H465.094V119.605Z" fill="#E7EFF7"/>
<path opacity="0.25" d="M471.088 119.605H467.477V123.219H471.088V119.605Z" fill="#E7EFF7"/>
<path opacity="0.25" d="M477.082 119.605H473.471V123.219H477.082V119.605Z" fill="#E7EFF7"/>
<path opacity="0.25" d="M483.074 119.605H479.463V123.219H483.074V119.605Z" fill="#E7EFF7"/>
<path opacity="0.25" d="M489.068 119.605H485.457V123.219H489.068V119.605Z" fill="#E7EFF7"/>
<path opacity="0.25" d="M495.06 119.605H491.449V123.219H495.06V119.605Z" fill="#E7EFF7"/>
<path opacity="0.25" d="M507.047 119.605H503.436V123.219H507.047V119.605Z" fill="#E7EFF7"/>
<path opacity="0.25" d="M513.041 119.605H509.43V123.219H513.041V119.605Z" fill="#E7EFF7"/>
<path opacity="0.25" d="M537.014 119.605H533.402V123.219H537.014V119.605Z" fill="#E7EFF7"/>
<path opacity="0.25" d="M543.008 119.605H539.396V123.219H543.008V119.605Z" fill="#E7EFF7"/>
<path opacity="0.25" d="M549 119.605H545.389V123.219H549V119.605Z" fill="#E7EFF7"/>
<path opacity="0.25" d="M279.301 113.625H275.689V117.239H279.301V113.625Z" fill="#E7EFF7"/>
<path opacity="0.25" d="M297.279 113.625H293.668V117.239H297.279V113.625Z" fill="#E7EFF7"/>
<path opacity="0.25" d="M303.273 113.625H299.662V117.239H303.273V113.625Z" fill="#E7EFF7"/>
<path opacity="0.25" d="M339.232 113.625H335.621V117.239H339.232V113.625Z" fill="#E7EFF7"/>
<path opacity="0.25" d="M345.226 113.625H341.615V117.239H345.226V113.625Z" fill="#E7EFF7"/>
<path opacity="0.25" d="M351.221 113.625H347.609V117.239H351.221V113.625Z" fill="#E7EFF7"/>
<path opacity="0.25" d="M357.213 113.625H353.602V117.239H357.213V113.625Z" fill="#E7EFF7"/>
<path opacity="0.25" d="M375.193 113.625H371.582V117.239H375.193V113.625Z" fill="#E7EFF7"/>
<path opacity="0.25" d="M381.185 113.625H377.574V117.239H381.185V113.625Z" fill="#E7EFF7"/>
<path opacity="0.25" d="M393.174 113.625H389.562V117.239H393.174V113.625Z" fill="#E7EFF7"/>
<path opacity="0.25" d="M399.166 113.625H395.555V117.239H399.166V113.625Z" fill="#E7EFF7"/>
<path opacity="0.25" d="M411.152 113.625H407.541V117.239H411.152V113.625Z" fill="#E7EFF7"/>
<path opacity="0.25" d="M417.146 113.625H413.535V117.239H417.146V113.625Z" fill="#E7EFF7"/>
<path opacity="0.25" d="M423.139 113.625H419.527V117.239H423.139V113.625Z" fill="#E7EFF7"/>
<path opacity="0.25" d="M429.135 113.625H425.523V117.239H429.135V113.625Z" fill="#E7EFF7"/>
<path opacity="0.25" d="M441.123 113.625H437.512V117.239H441.123V113.625Z" fill="#E7EFF7"/>
<path opacity="0.25" d="M447.115 113.625H443.504V117.239H447.115V113.625Z" fill="#E7EFF7"/>
<path opacity="0.25" d="M453.107 113.625H449.496V117.239H453.107V113.625Z" fill="#E7EFF7"/>
<path opacity="0.25" d="M459.101 113.625H455.49V117.239H459.101V113.625Z" fill="#E7EFF7"/>
<path opacity="0.25" d="M465.094 113.625H461.482V117.239H465.094V113.625Z" fill="#E7EFF7"/>
<path opacity="0.25" d="M483.074 113.625H479.463V117.239H483.074V113.625Z" fill="#E7EFF7"/>
<path opacity="0.25" d="M489.068 113.625H485.457V117.239H489.068V113.625Z" fill="#E7EFF7"/>
<path opacity="0.25" d="M495.06 113.625H491.449V117.239H495.06V113.625Z" fill="#E7EFF7"/>
<path opacity="0.25" d="M501.053 113.625H497.441V117.239H501.053V113.625Z" fill="#E7EFF7"/>
<path opacity="0.25" d="M507.047 113.625H503.436V117.239H507.047V113.625Z" fill="#E7EFF7"/>
<path opacity="0.25" d="M513.041 113.625H509.43V117.239H513.041V113.625Z" fill="#E7EFF7"/>
<path opacity="0.25" d="M525.027 113.625H521.416V117.239H525.027V113.625Z" fill="#E7EFF7"/>
<path opacity="0.25" d="M543.008 113.625H539.396V117.239H543.008V113.625Z" fill="#E7EFF7"/>
<path opacity="0.25" d="M549 113.625H545.389V117.239H549V113.625Z" fill="#E7EFF7"/>
<path opacity="0.2" d="M297.279 107.645H293.668V111.259H297.279V107.645Z" fill="#E7EFF7"/>
<path opacity="0.2" d="M303.273 107.645H299.662V111.259H303.273V107.645Z" fill="#E7EFF7"/>
<path opacity="0.2" d="M309.267 107.645H305.656V111.259H309.267V107.645Z" fill="#E7EFF7"/>
<path opacity="0.2" d="M321.254 107.645H317.643V111.259H321.254V107.645Z" fill="#E7EFF7"/>
<path opacity="0.2" d="M339.232 107.645H335.621V111.259H339.232V107.645Z" fill="#E7EFF7"/>
<path opacity="0.2" d="M357.213 107.645H353.602V111.259H357.213V107.645Z" fill="#E7EFF7"/>
<path opacity="0.2" d="M369.199 107.645H365.588V111.259H369.199V107.645Z" fill="#E7EFF7"/>
<path opacity="0.2" d="M375.193 107.645H371.582V111.259H375.193V107.645Z" fill="#E7EFF7"/>
<path opacity="0.2" d="M381.185 107.645H377.574V111.259H381.185V107.645Z" fill="#E7EFF7"/>
<path opacity="0.2" d="M393.174 107.645H389.562V111.259H393.174V107.645Z" fill="#E7EFF7"/>
<path opacity="0.2" d="M417.146 107.645H413.535V111.259H417.146V107.645Z" fill="#E7EFF7"/>
<path opacity="0.2" d="M423.139 107.645H419.527V111.259H423.139V107.645Z" fill="#E7EFF7"/>
<path opacity="0.2" d="M435.127 107.645H431.516V111.259H435.127V107.645Z" fill="#E7EFF7"/>
<path opacity="0.2" d="M447.115 107.645H443.504V111.259H447.115V107.645Z" fill="#E7EFF7"/>
<path opacity="0.2" d="M459.101 107.645H455.49V111.259H459.101V107.645Z" fill="#E7EFF7"/>
<path opacity="0.2" d="M471.088 107.645H467.477V111.259H471.088V107.645Z" fill="#E7EFF7"/>
<path opacity="0.2" d="M477.082 107.645H473.471V111.259H477.082V107.645Z" fill="#E7EFF7"/>
<path opacity="0.2" d="M495.06 107.645H491.449V111.259H495.06V107.645Z" fill="#E7EFF7"/>
<path opacity="0.2" d="M513.041 107.645H509.43V111.259H513.041V107.645Z" fill="#E7EFF7"/>
<path opacity="0.2" d="M519.033 107.645H515.422V111.259H519.033V107.645Z" fill="#E7EFF7"/>
<path opacity="0.2" d="M525.027 107.645H521.416V111.259H525.027V107.645Z" fill="#E7EFF7"/>
<path opacity="0.2" d="M537.014 107.645H533.402V111.259H537.014V107.645Z" fill="#E7EFF7"/>
<path opacity="0.2" d="M543.008 107.645H539.396V111.259H543.008V107.645Z" fill="#E7EFF7"/>
<path opacity="0.2" d="M279.301 101.665H275.689V105.279H279.301V101.665Z" fill="#E7EFF7"/>
<path opacity="0.2" d="M315.26 101.665H311.648V105.279H315.26V101.665Z" fill="#E7EFF7"/>
<path opacity="0.2" d="M327.248 101.665H323.637V105.279H327.248V101.665Z" fill="#E7EFF7"/>
<path opacity="0.2" d="M333.24 101.665H329.629V105.279H333.24V101.665Z" fill="#E7EFF7"/>
<path opacity="0.2" d="M351.221 101.665H347.609V105.279H351.221V101.665Z" fill="#E7EFF7"/>
<path opacity="0.2" d="M369.199 101.665H365.588V105.279H369.199V101.665Z" fill="#E7EFF7"/>
<path opacity="0.2" d="M375.193 101.665H371.582V105.279H375.193V101.665Z" fill="#E7EFF7"/>
<path opacity="0.2" d="M387.18 101.665H383.568V105.279H387.18V101.665Z" fill="#E7EFF7"/>
<path opacity="0.2" d="M405.158 101.665H401.547V105.279H405.158V101.665Z" fill="#E7EFF7"/>
<path opacity="0.2" d="M411.152 101.665H407.541V105.279H411.152V101.665Z" fill="#E7EFF7"/>
<path opacity="0.2" d="M417.146 101.665H413.535V105.279H417.146V101.665Z" fill="#E7EFF7"/>
<path opacity="0.2" d="M447.115 101.665H443.504V105.279H447.115V101.665Z" fill="#E7EFF7"/>
<path opacity="0.2" d="M459.101 101.665H455.49V105.279H459.101V101.665Z" fill="#E7EFF7"/>
<path opacity="0.2" d="M489.068 101.665H485.457V105.279H489.068V101.665Z" fill="#E7EFF7"/>
<path opacity="0.2" d="M501.053 101.665H497.441V105.279H501.053V101.665Z" fill="#E7EFF7"/>
<path opacity="0.2" d="M507.047 101.665H503.436V105.279H507.047V101.665Z" fill="#E7EFF7"/>
<path opacity="0.2" d="M513.041 101.665H509.43V105.279H513.041V101.665Z" fill="#E7EFF7"/>
<path opacity="0.2" d="M519.033 101.665H515.422V105.279H519.033V101.665Z" fill="#E7EFF7"/>
<path opacity="0.2" d="M537.014 101.665H533.402V105.279H537.014V101.665Z" fill="#E7EFF7"/>
<path opacity="0.2" d="M549 101.665H545.389V105.279H549V101.665Z" fill="#E7EFF7"/>
<path opacity="0.1" d="M297.279 95.6846H293.668V99.2988H297.279V95.6846Z" fill="#E7EFF7"/>
<path opacity="0.2" d="M303.273 95.6846H299.662V99.2988H303.273V95.6846Z" fill="#E7EFF7"/>
<path opacity="0.2" d="M309.267 95.6846H305.656V99.2988H309.267V95.6846Z" fill="#E7EFF7"/>
<path opacity="0.2" d="M327.248 95.6846H323.637V99.2988H327.248V95.6846Z" fill="#E7EFF7"/>
<path opacity="0.2" d="M351.221 95.6846H347.609V99.2988H351.221V95.6846Z" fill="#E7EFF7"/>
<path opacity="0.2" d="M357.213 95.6846H353.602V99.2988H357.213V95.6846Z" fill="#E7EFF7"/>
<path opacity="0.2" d="M381.185 95.6846H377.574V99.2988H381.185V95.6846Z" fill="#E7EFF7"/>
<path opacity="0.2" d="M387.18 95.6846H383.568V99.2988H387.18V95.6846Z" fill="#E7EFF7"/>
<path opacity="0.2" d="M399.166 95.6846H395.555V99.2988H399.166V95.6846Z" fill="#E7EFF7"/>
<path opacity="0.2" d="M435.127 95.6846H431.516V99.2988H435.127V95.6846Z" fill="#E7EFF7"/>
<path opacity="0.2" d="M441.123 95.6846H437.512V99.2988H441.123V95.6846Z" fill="#E7EFF7"/>
<path opacity="0.2" d="M465.094 95.6846H461.482V99.2988H465.094V95.6846Z" fill="#E7EFF7"/>
<path opacity="0.2" d="M471.088 95.6846H467.477V99.2988H471.088V95.6846Z" fill="#E7EFF7"/>
<path opacity="0.2" d="M513.041 95.6846H509.43V99.2988H513.041V95.6846Z" fill="#E7EFF7"/>
<path opacity="0.2" d="M519.033 95.6846H515.422V99.2988H519.033V95.6846Z" fill="#E7EFF7"/>
<path opacity="0.2" d="M525.027 95.6846H521.416V99.2988H525.027V95.6846Z" fill="#E7EFF7"/>
<path opacity="0.2" d="M549 95.6846H545.389V99.2988H549V95.6846Z" fill="#E7EFF7"/>
<path opacity="0.2" d="M303.273 89.7046H299.662V93.3188H303.273V89.7046Z" fill="#E7EFF7"/>
<path opacity="0.2" d="M333.24 89.7046H329.629V93.3188H333.24V89.7046Z" fill="#E7EFF7"/>
<path opacity="0.2" d="M357.213 89.7046H353.602V93.3188H357.213V89.7046Z" fill="#E7EFF7"/>
<path opacity="0.2" d="M369.199 89.7046H365.588V93.3188H369.199V89.7046Z" fill="#E7EFF7"/>
<path opacity="0.2" d="M381.185 89.7046H377.574V93.3188H381.185V89.7046Z" fill="#E7EFF7"/>
<path opacity="0.2" d="M387.18 89.7046H383.568V93.3188H387.18V89.7046Z" fill="#E7EFF7"/>
<path opacity="0.2" d="M405.158 89.7046H401.547V93.3188H405.158V89.7046Z" fill="#E7EFF7"/>
<path opacity="0.2" d="M423.139 89.7046H419.527V93.3188H423.139V89.7046Z" fill="#E7EFF7"/>
<path opacity="0.2" d="M441.123 89.7046H437.512V93.3188H441.123V89.7046Z" fill="#E7EFF7"/>
<path opacity="0.2" d="M453.107 89.7046H449.496V93.3188H453.107V89.7046Z" fill="#E7EFF7"/>
<path opacity="0.2" d="M471.088 89.7046H467.477V93.3188H471.088V89.7046Z" fill="#E7EFF7"/>
<path opacity="0.2" d="M501.053 89.7046H497.441V93.3188H501.053V89.7046Z" fill="#E7EFF7"/>
<path opacity="0.2" d="M507.047 89.7046H503.436V93.3188H507.047V89.7046Z" fill="#E7EFF7"/>
<path opacity="0.2" d="M519.033 89.7046H515.422V93.3188H519.033V89.7046Z" fill="#E7EFF7"/>
<path opacity="0.2" d="M537.014 89.7046H533.402V93.3188H537.014V89.7046Z" fill="#E7EFF7"/>
<path opacity="0.2" d="M543.008 89.7046H539.396V93.3188H543.008V89.7046Z" fill="#E7EFF7"/>
<path opacity="0.2" d="M549 89.7046H545.389V93.3188H549V89.7046Z" fill="#E7EFF7"/>
<path opacity="0.15" d="M375.193 83.7241H371.582V87.3384H375.193V83.7241Z" fill="#E7EFF7"/>
<path opacity="0.15" d="M381.185 83.7241H377.574V87.3384H381.185V83.7241Z" fill="#E7EFF7"/>
<path opacity="0.15" d="M399.166 83.7241H395.555V87.3384H399.166V83.7241Z" fill="#E7EFF7"/>
<path opacity="0.15" d="M423.139 83.7241H419.527V87.3384H423.139V83.7241Z" fill="#E7EFF7"/>
<path opacity="0.15" d="M441.123 83.7241H437.512V87.3384H441.123V83.7241Z" fill="#E7EFF7"/>
<path opacity="0.15" d="M453.107 83.7241H449.496V87.3384H453.107V83.7241Z" fill="#E7EFF7"/>
<path opacity="0.15" d="M471.088 83.7241H467.477V87.3384H471.088V83.7241Z" fill="#E7EFF7"/>
<path opacity="0.15" d="M477.082 83.7241H473.471V87.3384H477.082V83.7241Z" fill="#E7EFF7"/>
<path opacity="0.15" d="M489.068 83.7241H485.457V87.3384H489.068V83.7241Z" fill="#E7EFF7"/>
<path opacity="0.15" d="M495.06 83.7241H491.449V87.3384H495.06V83.7241Z" fill="#E7EFF7"/>
<path opacity="0.15" d="M507.047 83.7241H503.436V87.3384H507.047V83.7241Z" fill="#E7EFF7"/>
<path opacity="0.15" d="M513.041 83.7241H509.43V87.3384H513.041V83.7241Z" fill="#E7EFF7"/>
<path opacity="0.15" d="M519.033 83.7241H515.422V87.3384H519.033V83.7241Z" fill="#E7EFF7"/>
<path opacity="0.15" d="M525.027 83.7241H521.416V87.3384H525.027V83.7241Z" fill="#E7EFF7"/>
<path opacity="0.15" d="M339.232 77.7441H335.621V81.3584H339.232V77.7441Z" fill="#E7EFF7"/>
<path opacity="0.15" d="M345.226 77.7441H341.615V81.3584H345.226V77.7441Z" fill="#E7EFF7"/>
<path opacity="0.05" d="M351.221 77.7441H347.609V81.3584H351.221V77.7441Z" fill="#E7EFF7"/>
<path opacity="0.1" d="M369.199 77.7441H365.588V81.3584H369.199V77.7441Z" fill="#E7EFF7"/>
<path opacity="0.15" d="M381.185 77.7441H377.574V81.3584H381.185V77.7441Z" fill="#E7EFF7"/>
<path opacity="0.15" d="M399.166 77.7441H395.555V81.3584H399.166V77.7441Z" fill="#E7EFF7"/>
<path opacity="0.15" d="M447.115 77.7441H443.504V81.3584H447.115V77.7441Z" fill="#E7EFF7"/>
<path opacity="0.15" d="M453.107 77.7441H449.496V81.3584H453.107V77.7441Z" fill="#E7EFF7"/>
<path opacity="0.15" d="M459.101 77.7441H455.49V81.3584H459.101V77.7441Z" fill="#E7EFF7"/>
<path opacity="0.15" d="M513.041 77.7441H509.43V81.3584H513.041V77.7441Z" fill="#E7EFF7"/>
<path opacity="0.15" d="M519.033 77.7441H515.422V81.3584H519.033V77.7441Z" fill="#E7EFF7"/>
<path opacity="0.15" d="M549 77.7441H545.389V81.3584H549V77.7441Z" fill="#E7EFF7"/>
<path opacity="0.05" d="M321.254 71.7642H317.643V75.3784H321.254V71.7642Z" fill="#E7EFF7"/>
<path opacity="0.05" d="M327.248 71.7642H323.637V75.3784H327.248V71.7642Z" fill="#E7EFF7"/>
<path opacity="0.05" d="M345.226 71.7642H341.615V75.3784H345.226V71.7642Z" fill="#E7EFF7"/>
<path opacity="0.15" d="M357.213 71.7642H353.602V75.3784H357.213V71.7642Z" fill="#E7EFF7"/>
<path opacity="0.05" d="M375.193 71.7642H371.582V75.3784H375.193V71.7642Z" fill="#E7EFF7"/>
<path opacity="0.15" d="M399.166 71.7642H395.555V75.3784H399.166V71.7642Z" fill="#E7EFF7"/>
<path opacity="0.15" d="M411.152 71.7642H407.541V75.3784H411.152V71.7642Z" fill="#E7EFF7"/>
<path opacity="0.15" d="M423.139 71.7642H419.527V75.3784H423.139V71.7642Z" fill="#E7EFF7"/>
<path opacity="0.15" d="M459.101 71.7642H455.49V75.3784H459.101V71.7642Z" fill="#E7EFF7"/>
<path opacity="0.15" d="M465.094 71.7642H461.482V75.3784H465.094V71.7642Z" fill="#E7EFF7"/>
<path opacity="0.15" d="M501.053 71.7642H497.441V75.3784H501.053V71.7642Z" fill="#E7EFF7"/>
<path opacity="0.15" d="M507.047 71.7642H503.436V75.3784H507.047V71.7642Z" fill="#E7EFF7"/>
<path opacity="0.15" d="M513.041 71.7642H509.43V75.3784H513.041V71.7642Z" fill="#E7EFF7"/>
<path opacity="0.15" d="M525.027 71.7642H521.416V75.3784H525.027V71.7642Z" fill="#E7EFF7"/>
<path opacity="0.15" d="M543.008 71.7642H539.396V75.3784H543.008V71.7642Z" fill="#E7EFF7"/>
<path opacity="0.15" d="M549 71.7642H545.389V75.3784H549V71.7642Z" fill="#E7EFF7"/>
<path opacity="0.05" d="M369.199 65.7808H365.588V69.395H369.199V65.7808Z" fill="#E7EFF7"/>
<path opacity="0.15" d="M381.185 65.7808H377.574V69.395H381.185V65.7808Z" fill="#E7EFF7"/>
<path opacity="0.15" d="M387.18 65.7808H383.568V69.395H387.18V65.7808Z" fill="#E7EFF7"/>
<path opacity="0.15" d="M411.152 65.7808H407.541V69.395H411.152V65.7808Z" fill="#E7EFF7"/>
<path opacity="0.15" d="M447.115 65.7808H443.504V69.395H447.115V65.7808Z" fill="#E7EFF7"/>
<path opacity="0.15" d="M471.088 65.7808H467.477V69.395H471.088V65.7808Z" fill="#E7EFF7"/>
<path opacity="0.15" d="M477.082 65.7808H473.471V69.395H477.082V65.7808Z" fill="#E7EFF7"/>
<path opacity="0.15" d="M483.074 65.7808H479.463V69.395H483.074V65.7808Z" fill="#E7EFF7"/>
<path opacity="0.15" d="M489.068 65.7808H485.457V69.395H489.068V65.7808Z" fill="#E7EFF7"/>
<path opacity="0.15" d="M549 65.7808H545.389V69.395H549V65.7808Z" fill="#E7EFF7"/>
<path opacity="0.05" d="M345.226 59.8008H341.615V63.415H345.226V59.8008Z" fill="#E7EFF7"/>
<path opacity="0.15" d="M399.166 59.8008H395.555V63.415H399.166V59.8008Z" fill="#E7EFF7"/>
<path opacity="0.15" d="M447.115 59.8008H443.504V63.415H447.115V59.8008Z" fill="#E7EFF7"/>
<path opacity="0.15" d="M459.101 59.8008H455.49V63.415H459.101V59.8008Z" fill="#E7EFF7"/>
<path opacity="0.15" d="M465.094 59.8008H461.482V63.415H465.094V59.8008Z" fill="#E7EFF7"/>
<path opacity="0.15" d="M471.088 59.8008H467.477V63.415H471.088V59.8008Z" fill="#E7EFF7"/>
<path opacity="0.15" d="M489.068 59.8008H485.457V63.415H489.068V59.8008Z" fill="#E7EFF7"/>
<path opacity="0.15" d="M501.053 59.8008H497.441V63.415H501.053V59.8008Z" fill="#E7EFF7"/>
<path opacity="0.15" d="M507.047 59.8008H503.436V63.415H507.047V59.8008Z" fill="#E7EFF7"/>
<path opacity="0.15" d="M513.041 59.8008H509.43V63.415H513.041V59.8008Z" fill="#E7EFF7"/>
<path opacity="0.15" d="M525.027 59.8008H521.416V63.415H525.027V59.8008Z" fill="#E7EFF7"/>
<path opacity="0.15" d="M537.014 59.8008H533.402V63.415H537.014V59.8008Z" fill="#E7EFF7"/>
<path opacity="0.15" d="M549 59.8008H545.389V63.415H549V59.8008Z" fill="#E7EFF7"/>
<path opacity="0.05" d="M399.166 53.8208H395.555V57.435H399.166V53.8208Z" fill="#E7EFF7"/>
<path opacity="0.1" d="M417.146 53.8208H413.535V57.435H417.146V53.8208Z" fill="#E7EFF7"/>
<path opacity="0.1" d="M441.123 53.8208H437.512V57.435H441.123V53.8208Z" fill="#E7EFF7"/>
<path opacity="0.1" d="M465.094 53.8208H461.482V57.435H465.094V53.8208Z" fill="#E7EFF7"/>
<path opacity="0.1" d="M477.082 53.8208H473.471V57.435H477.082V53.8208Z" fill="#E7EFF7"/>
<path opacity="0.1" d="M489.068 53.8208H485.457V57.435H489.068V53.8208Z" fill="#E7EFF7"/>
<path opacity="0.1" d="M507.047 53.8208H503.436V57.435H507.047V53.8208Z" fill="#E7EFF7"/>
<path opacity="0.1" d="M525.027 53.8208H521.416V57.435H525.027V53.8208Z" fill="#E7EFF7"/>
<path opacity="0.1" d="M543.008 53.8208H539.396V57.435H543.008V53.8208Z" fill="#E7EFF7"/>
<path opacity="0.05" d="M351.221 47.8408H347.609V51.4551H351.221V47.8408Z" fill="#E7EFF7"/>
<path opacity="0.1" d="M387.18 47.8408H383.568V51.4551H387.18V47.8408Z" fill="#E7EFF7"/>
<path opacity="0.1" d="M441.123 47.8408H437.512V51.4551H441.123V47.8408Z" fill="#E7EFF7"/>
<path opacity="0.1" d="M447.115 47.8408H443.504V51.4551H447.115V47.8408Z" fill="#E7EFF7"/>
<path opacity="0.1" d="M483.074 47.8408H479.463V51.4551H483.074V47.8408Z" fill="#E7EFF7"/>
<path opacity="0.1" d="M501.053 47.8408H497.441V51.4551H501.053V47.8408Z" fill="#E7EFF7"/>
<path opacity="0.1" d="M549 47.8408H545.389V51.4551H549V47.8408Z" fill="#E7EFF7"/>
<path opacity="0.1" d="M369.199 41.8608H365.588V45.4751H369.199V41.8608Z" fill="#E7EFF7"/>
<path opacity="0.05" d="M387.18 41.8608H383.568V45.4751H387.18V41.8608Z" fill="#E7EFF7"/>
<path opacity="0.1" d="M423.139 41.8608H419.527V45.4751H423.139V41.8608Z" fill="#E7EFF7"/>
<path opacity="0.1" d="M489.068 41.8608H485.457V45.4751H489.068V41.8608Z" fill="#E7EFF7"/>
<path opacity="0.1" d="M507.047 41.8608H503.436V45.4751H507.047V41.8608Z" fill="#E7EFF7"/>
<path opacity="0.1" d="M513.041 41.8608H509.43V45.4751H513.041V41.8608Z" fill="#E7EFF7"/>
<path opacity="0.1" d="M525.027 41.8608H521.416V45.4751H525.027V41.8608Z" fill="#E7EFF7"/>
<path opacity="0.1" d="M537.014 41.8608H533.402V45.4751H537.014V41.8608Z" fill="#E7EFF7"/>
<path opacity="0.1" d="M549 41.8608H545.389V45.4751H549V41.8608Z" fill="#E7EFF7"/>
<path opacity="0.1" d="M483.074 35.8804H479.463V39.4946H483.074V35.8804Z" fill="#E7EFF7"/>
<path opacity="0.1" d="M525.027 35.8804H521.416V39.4946H525.027V35.8804Z" fill="#E7EFF7"/>
<path opacity="0.1" d="M543.008 35.8804H539.396V39.4946H543.008V35.8804Z" fill="#E7EFF7"/>
<path opacity="0.1" d="M549 35.8804H545.389V39.4946H549V35.8804Z" fill="#E7EFF7"/>
<path opacity="0.1" d="M423.139 29.9004H419.527V33.5146H423.139V29.9004Z" fill="#E7EFF7"/>
<path opacity="0.1" d="M507.047 29.9004H503.436V33.5146H507.047V29.9004Z" fill="#E7EFF7"/>
<path opacity="0.05" d="M381.185 23.9204H377.574V27.5346H381.185V23.9204Z" fill="#E7EFF7"/>
<path opacity="0.1" d="M507.047 23.9204H503.436V27.5346H507.047V23.9204Z" fill="#E7EFF7"/>
<path opacity="0.1" d="M513.041 23.9204H509.43V27.5346H513.041V23.9204Z" fill="#E7EFF7"/>
<path opacity="0.1" d="M543.008 23.9204H539.396V27.5346H543.008V23.9204Z" fill="#E7EFF7"/>
<path opacity="0.1" d="M549 23.9204H545.389V27.5346H549V23.9204Z" fill="#E7EFF7"/>
<path opacity="0.1" d="M507.047 11.96H503.436V15.5742H507.047V11.96Z" fill="#E7EFF7"/>
<path opacity="0.1" d="M537.014 11.96H533.402V15.5742H537.014V11.96Z" fill="#E7EFF7"/>
<path opacity="0.1" d="M549 11.96H545.389V15.5742H549V11.96Z" fill="#E7EFF7"/>
<path opacity="0.1" d="M549 0H545.389V3.61424H549V0Z" fill="#E7EFF7"/>
</g>
</g>
<defs>
<clipPath id="clip0_36988_1947">
<rect width="549" height="189" fill="white"/>
</clipPath>
</defs>
</svg>
