<svg width="24" height="24" viewBox="0 0 24 24" fill="none" xmlns="http://www.w3.org/2000/svg">
<mask id="mask0_34887_118272" style="mask-type:luminance" maskUnits="userSpaceOnUse" x="2" y="0" width="36" height="24">
<path d="M37.4783 0H2V24H37.4783V0Z" fill="white"/>
</mask>
<g mask="url(#mask0_34887_118272)">
<path d="M20.4012 8.3243C19.5355 4.69197 16.5478 2 13 2C9.45217 2 6.46451 4.69197 5.59876 8.3243C3.83334 10.0206 2.57716 12.2516 2 14.7224C3.25618 14.243 4.54629 13.8557 5.87037 13.5976C6.99075 16.769 9.75773 19 13 19C16.2593 19 19.0263 16.769 20.1297 13.5976C21.5556 13.8927 22.8457 14.2614 24 14.7224C23.4229 12.2516 22.1666 10.0206 20.4012 8.3243ZM10.6404 8.17678C10.3009 9.37527 9.29938 10.0759 8.41667 9.76247C7.51698 9.44902 7.07562 8.25055 7.39815 7.05207C7.72068 5.85358 8.7392 5.15293 9.62192 5.46638C10.5046 5.76139 10.963 6.99675 10.6404 8.17678ZM17.5494 9.76247C16.6497 10.0759 15.6652 9.35683 15.3256 8.17678C14.9861 6.97831 15.4444 5.77983 16.3442 5.46638C17.2439 5.15293 18.2284 5.87202 18.5679 7.05207C18.9244 8.25055 18.4661 9.44902 17.5494 9.76247Z" fill="#F12742"/>
</g>
</svg>
