<svg width="23" height="22" viewBox="0 0 23 22" fill="none" xmlns="http://www.w3.org/2000/svg">
<path d="M11.5002 14.208C13.526 14.208 15.1668 12.5672 15.1668 10.5413V5.49967C15.1668 3.47384 13.526 1.83301 11.5002 1.83301C9.47433 1.83301 7.8335 3.47384 7.8335 5.49967V10.5413C7.8335 12.5672 9.47433 14.208 11.5002 14.208Z" stroke="#67707E" stroke-width="1.375" stroke-linecap="round" stroke-linejoin="round"/>
<path d="M4.48779 8.8457V10.404C4.48779 14.2724 7.63196 17.4165 11.5003 17.4165C15.3686 17.4165 18.5128 14.2724 18.5128 10.404V8.8457" stroke="#67707E" stroke-width="1.375" stroke-linecap="round" stroke-linejoin="round"/>
<path d="M10.2256 5.89387C11.0506 5.59137 11.9489 5.59137 12.7739 5.89387" stroke="#67707E" stroke-width="1.375" stroke-linecap="round" stroke-linejoin="round"/>
<path d="M10.7666 7.83746C11.2524 7.70913 11.7566 7.70913 12.2424 7.83746" stroke="#67707E" stroke-width="1.375" stroke-linecap="round" stroke-linejoin="round"/>
<path d="M11.5 17.417V20.167" stroke="#67707E" stroke-width="1.375" stroke-linecap="round" stroke-linejoin="round"/>
</svg>
