<svg width="18" height="12" viewBox="0 0 18 12" fill="none" xmlns="http://www.w3.org/2000/svg">
<path d="M0.25 6.22C0.25 5.428 0.323333 4.68733 0.47 3.998C0.616667 3.30867 0.858667 2.70733 1.196 2.194C1.53333 1.666 1.966 1.25533 2.494 0.962001C3.03667 0.654 3.704 0.5 4.496 0.5C5.00933 0.5 5.52267 0.529333 6.036 0.588C6.564 0.646667 7.12867 0.727334 7.73 0.830001L7.664 1.996C7.62 1.996 7.50267 1.98867 7.312 1.974C7.136 1.94467 6.92333 1.92267 6.674 1.908C6.42467 1.87867 6.16067 1.85667 5.882 1.842C5.618 1.82733 5.376 1.82 5.156 1.82C4.452 1.82 3.88 1.92267 3.44 2.128C3 2.31867 2.648 2.60467 2.384 2.986C2.13467 3.35267 1.966 3.81467 1.878 4.372C1.79 4.92933 1.746 5.56 1.746 6.264C1.746 6.80667 1.76067 7.342 1.79 7.87C1.834 8.398 1.95867 8.86733 2.164 9.278C2.384 9.68867 2.714 10.0187 3.154 10.268C3.60867 10.5173 4.254 10.642 5.09 10.642L7.708 10.444L7.752 11.654C7.048 11.7567 6.43933 11.83 5.926 11.874C5.42733 11.9327 5.00933 11.962 4.672 11.962C3.836 11.962 3.132 11.8593 2.56 11.654C2.00267 11.434 1.548 11.0967 1.196 10.642C0.858667 10.1727 0.616667 9.57867 0.47 8.86C0.323333 8.12667 0.25 7.24667 0.25 6.22Z" fill="#67707E"/>
<path d="M9.96094 6.22C9.96094 5.428 10.0343 4.68733 10.1809 3.998C10.3276 3.30867 10.5696 2.70733 10.9069 2.194C11.2443 1.666 11.6769 1.25533 12.2049 0.962001C12.7476 0.654 13.4149 0.5 14.2069 0.5C14.7203 0.5 15.2336 0.529333 15.7469 0.588C16.2749 0.646667 16.8396 0.727334 17.4409 0.830001L17.3749 1.996C17.3309 1.996 17.2136 1.98867 17.0229 1.974C16.8469 1.94467 16.6343 1.92267 16.3849 1.908C16.1356 1.87867 15.8716 1.85667 15.5929 1.842C15.3289 1.82733 15.0869 1.82 14.8669 1.82C14.1629 1.82 13.5909 1.92267 13.1509 2.128C12.7109 2.31867 12.3589 2.60467 12.0949 2.986C11.8456 3.35267 11.6769 3.81467 11.5889 4.372C11.5009 4.92933 11.4569 5.56 11.4569 6.264C11.4569 6.80667 11.4716 7.342 11.5009 7.87C11.5449 8.398 11.6696 8.86733 11.8749 9.278C12.0949 9.68867 12.4249 10.0187 12.8649 10.268C13.3196 10.5173 13.9649 10.642 14.8009 10.642L17.4189 10.444L17.4629 11.654C16.7589 11.7567 16.1503 11.83 15.6369 11.874C15.1383 11.9327 14.7203 11.962 14.3829 11.962C13.5469 11.962 12.8429 11.8593 12.2709 11.654C11.7136 11.434 11.2589 11.0967 10.9069 10.642C10.5696 10.1727 10.3276 9.57867 10.1809 8.86C10.0343 8.12667 9.96094 7.24667 9.96094 6.22Z" fill="#67707E"/>
</svg>
