<?xml version="1.0" encoding="utf-8"?>
<!-- Generator: Adobe Illustrator 28.0.0, SVG Export Plug-In . SVG Version: 6.00 Build 0)  -->
<svg version="1.1" id="Layer_1" xmlns="http://www.w3.org/2000/svg" xmlns:xlink="http://www.w3.org/1999/xlink" x="0px" y="0px"
	 viewBox="0 0 524.1 1080" style="enable-background:new 0 0 524.1 1080;" xml:space="preserve">
<style type="text/css">
	.st0{opacity:0.7;}
	.st1{fill:#FFFFFF;}
	.st2{fill:#1A1A1A;}
	.st3{opacity:0.5;}
	.st4{fill:url(#SVGID_1_);}
	.st5{fill:url(#SVGID_00000060730639331642535590000010452608170178600846_);}
	.st6{fill:url(#SVGID_00000127025874177890678390000015281696625790436770_);}
	.st7{fill:url(#SVGID_00000056418600148806907110000006543883974284741033_);}
	.st8{fill:url(#SVGID_00000037655774937823123450000013621371381262324357_);}
	.st9{fill:url(#SVGID_00000113340165043125505430000018042661605623673252_);}
	.st10{fill:url(#SVGID_00000017488631303025676730000015980711048052859058_);}
	.st11{fill:url(#SVGID_00000042709636073386378740000006225592428816481970_);}
	.st12{fill:url(#SVGID_00000026853444310050099420000011325562020027310738_);}
	.st13{fill:url(#SVGID_00000100358036499134757570000013182387184957991072_);}
	.st14{fill:url(#SVGID_00000078734750358841705180000009149607377826899366_);}
	.st15{fill:url(#SVGID_00000113341029080028385980000012757090129355293881_);}
	.st16{fill:url(#SVGID_00000145741606954820570840000001998294339136545209_);}
	.st17{fill:url(#SVGID_00000071544733869603173160000001941582355598330004_);}
	.st18{fill:url(#SVGID_00000005980049599235533610000012787771355616631981_);}
	.st19{fill:url(#SVGID_00000041276405369738932790000005076022127450474663_);}
</style>
<g>
	<path d="M448.4,0H77.5C37,0,4.3,32.8,4.3,73.2c0,14.9,0,920.4,0,933.6c0,40.4,32.8,73.2,73.2,73.2h370.9
		c40.4,0,73.2-32.8,73.2-73.2c0-13.2,0-918.7,0-933.6C521.6,32.8,488.8,0,448.4,0z M514.5,1004.2c0,37.9-30.7,68.7-68.7,68.7H80
		c-37.9,0-68.7-30.7-68.7-68.7c0-13.2,0-913.6,0-928.5C11.4,37.8,42.1,7.1,80,7.1h365.8c37.9,0,68.7,30.7,68.7,68.7
		C514.5,90.6,514.5,991.1,514.5,1004.2z"/>
	<g class="st0">
		<path class="st1" d="M23.8,25.3C38.7,11.9,58,1.6,80.6,1.9l351.7,0.7c45.8,2.8,86,27.8,87.6,81c0,5.9,3.2-44.6-29.5-66.7
			c-15.5-11.1-38.5-16-52.3-16.3C415.5,0.2,117.5-0.3,81,0.6C50.4,1.3,36.1,13.7,23.8,25.3z"/>
	</g>
	<g>
		<path class="st2" d="M445.8,7.1H80c-37.9,0-68.7,30.7-68.7,68.7c0,14.8,0,915.3,0,928.5c0,37.9,30.7,68.7,68.7,68.7h365.8
			c37.9,0,68.7-30.7,68.7-68.7c0-13.2,0-913.6,0-928.5C514.5,37.8,483.7,7.1,445.8,7.1z M510.9,1002.2c0,37.1-30.1,67.2-67.2,67.2
			H82.1c-37.1,0-67.2-30.1-67.2-67.2c0-13.1,0-909.6,0-924.3c0-37.1,30.1-67.2,67.2-67.2h361.6c37.1,0,67.2,30.1,67.2,67.2
			C510.9,92.6,510.9,989.1,510.9,1002.2z"/>
		<path d="M445.8,1073.2H80c-38.1,0-69-31-69-69V75.8c0-38.1,31-69,69-69h365.8c38.1,0,69,31,69,69v928.5
			C514.8,1042.3,483.9,1073.2,445.8,1073.2z M80,7.5c-37.7,0-68.3,30.6-68.3,68.3v928.5c0,37.7,30.6,68.3,68.3,68.3h365.8
			c37.7,0,68.3-30.6,68.3-68.3V75.8c0-37.7-30.6-68.3-68.3-68.3H80z M443.7,1069.7H82.1c-37.2,0-67.5-30.3-67.5-67.5V77.8
			c0-37.2,30.3-67.5,67.5-67.5h361.6c37.2,0,67.5,30.3,67.5,67.5v924.3C511.3,1039.4,481,1069.7,443.7,1069.7z M82.1,11
			c-36.9,0-66.8,30-66.8,66.8v924.3c0,36.8,30,66.8,66.8,66.8h361.6c36.9,0,66.8-30,66.8-66.8V77.8c0-36.9-30-66.8-66.8-66.8H82.1z"
			/>
	</g>
	<g class="st3">
		<path class="st1" d="M23.8,1054.7c14.9,13.3,34.2,23.7,56.8,23.4l351.7-0.7c45.8-2.8,86-27.8,87.6-81c0-5.9,3.2,44.6-29.5,66.7
			c-15.5,11.1-38.5,16-52.3,16.3c-22.6,0.4-320.6,0.9-357.1,0C50.4,1078.7,36.1,1066.3,23.8,1054.7z"/>
	</g>
	<g>
		
			<linearGradient id="SVGID_1_" gradientUnits="userSpaceOnUse" x1="521.5854" y1="1636.292" x2="637.1223" y2="1636.292" gradientTransform="matrix(0 1 -1 0 2158.6946 -295.6622)">
			<stop  offset="0" style="stop-color:#3B3B3B"/>
			<stop  offset="1.850530e-02" style="stop-color:#E6E6E6"/>
			<stop  offset="3.819530e-02" style="stop-color:#333333"/>
			<stop  offset="8.205520e-02" style="stop-color:#000000"/>
			<stop  offset="0.1053" style="stop-color:#666666"/>
			<stop  offset="0.9049" style="stop-color:#313131"/>
			<stop  offset="0.9391" style="stop-color:#000000"/>
			<stop  offset="0.9646" style="stop-color:#333333"/>
			<stop  offset="0.9829" style="stop-color:#CCCCCC"/>
			<stop  offset="1" style="stop-color:#2C2C2C"/>
		</linearGradient>
		<rect x="521.6" y="225.9" class="st4" width="1.7" height="115.5"/>
		
			<linearGradient id="SVGID_00000006669953856179550810000005227208979920777639_" gradientUnits="userSpaceOnUse" x1="521.6055" y1="1635.0491" x2="637.1262" y2="1635.0491" gradientTransform="matrix(0 1 -1 0 2158.6946 -295.6622)">
			<stop  offset="0" style="stop-color:#A0A0A0"/>
			<stop  offset="6.402420e-02" style="stop-color:#333333"/>
			<stop  offset="0.186" style="stop-color:#8A8A8A"/>
			<stop  offset="0.8064" style="stop-color:#8A8A8A"/>
			<stop  offset="0.9191" style="stop-color:#333333"/>
			<stop  offset="1" style="stop-color:#A0A0A0"/>
		</linearGradient>
		<path style="fill:url(#SVGID_00000006669953856179550810000005227208979920777639_);" d="M523.2,341.5V225.9l0.8,1
			c-0.4,8.3-0.4,105.3,0,113.5L523.2,341.5z"/>
	</g>
	<g>
		
			<linearGradient id="SVGID_00000071519335591192770140000004730365050293955005_" gradientUnits="userSpaceOnUse" x1="521.5854" y1="3.7945" x2="599.2412" y2="3.7945" gradientTransform="matrix(0 1 1 0 -2.1372 -295.6622)">
			<stop  offset="0" style="stop-color:#3B3B3B"/>
			<stop  offset="1.850530e-02" style="stop-color:#E6E6E6"/>
			<stop  offset="3.819530e-02" style="stop-color:#333333"/>
			<stop  offset="8.205520e-02" style="stop-color:#000000"/>
			<stop  offset="0.1053" style="stop-color:#666666"/>
			<stop  offset="0.9049" style="stop-color:#313131"/>
			<stop  offset="0.9391" style="stop-color:#000000"/>
			<stop  offset="0.9646" style="stop-color:#333333"/>
			<stop  offset="0.9829" style="stop-color:#CCCCCC"/>
			<stop  offset="1" style="stop-color:#2C2C2C"/>
		</linearGradient>
		
			<rect x="0.8" y="225.9" style="fill:url(#SVGID_00000071519335591192770140000004730365050293955005_);" width="1.7" height="77.7"/>
		
			<linearGradient id="SVGID_00000136411715134392808170000007846510950054906045_" gradientUnits="userSpaceOnUse" x1="521.6055" y1="2.5515" x2="599.2451" y2="2.5515" gradientTransform="matrix(0 1 1 0 -2.1372 -295.6622)">
			<stop  offset="0" style="stop-color:#A0A0A0"/>
			<stop  offset="6.402420e-02" style="stop-color:#333333"/>
			<stop  offset="0.186" style="stop-color:#8A8A8A"/>
			<stop  offset="0.8064" style="stop-color:#8A8A8A"/>
			<stop  offset="0.9191" style="stop-color:#333333"/>
			<stop  offset="1" style="stop-color:#A0A0A0"/>
		</linearGradient>
		<path style="fill:url(#SVGID_00000136411715134392808170000007846510950054906045_);" d="M0.8,303.6v-77.6L0,227
			c0.4,8.3,0.4,67.4,0,75.6L0.8,303.6z"/>
		
			<linearGradient id="SVGID_00000168103703368048810550000014488988643603649937_" gradientUnits="userSpaceOnUse" x1="3.3738" y1="303.603" x2="3.3738" y2="225.9433">
			<stop  offset="0" style="stop-color:#353540"/>
			<stop  offset="5.306120e-02" style="stop-color:#000000"/>
			<stop  offset="0.5184" style="stop-color:#333333"/>
			<stop  offset="0.9646" style="stop-color:#000000"/>
			<stop  offset="1" style="stop-color:#262C31"/>
		</linearGradient>
		
			<rect x="2.5" y="225.9" style="fill:url(#SVGID_00000168103703368048810550000014488988643603649937_);" width="1.8" height="77.7"/>
	</g>
	<g>
		
			<linearGradient id="SVGID_00000032628709283790640090000003330501642037686162_" gradientUnits="userSpaceOnUse" x1="618.9514" y1="3.7945" x2="696.6074" y2="3.7945" gradientTransform="matrix(0 1 1 0 -2.1372 -295.6622)">
			<stop  offset="0" style="stop-color:#3B3B3B"/>
			<stop  offset="1.850530e-02" style="stop-color:#E6E6E6"/>
			<stop  offset="3.819530e-02" style="stop-color:#333333"/>
			<stop  offset="8.205520e-02" style="stop-color:#000000"/>
			<stop  offset="0.1053" style="stop-color:#666666"/>
			<stop  offset="0.9049" style="stop-color:#313131"/>
			<stop  offset="0.9391" style="stop-color:#000000"/>
			<stop  offset="0.9646" style="stop-color:#333333"/>
			<stop  offset="0.9829" style="stop-color:#CCCCCC"/>
			<stop  offset="1" style="stop-color:#2C2C2C"/>
		</linearGradient>
		
			<rect x="0.8" y="323.3" style="fill:url(#SVGID_00000032628709283790640090000003330501642037686162_);" width="1.7" height="77.7"/>
		
			<linearGradient id="SVGID_00000172432240676721662700000017878115641000479108_" gradientUnits="userSpaceOnUse" x1="618.9717" y1="2.5515" x2="696.611" y2="2.5515" gradientTransform="matrix(0 1 1 0 -2.1372 -295.6622)">
			<stop  offset="0" style="stop-color:#A0A0A0"/>
			<stop  offset="6.402420e-02" style="stop-color:#333333"/>
			<stop  offset="0.186" style="stop-color:#8A8A8A"/>
			<stop  offset="0.8064" style="stop-color:#8A8A8A"/>
			<stop  offset="0.9191" style="stop-color:#333333"/>
			<stop  offset="1" style="stop-color:#A0A0A0"/>
		</linearGradient>
		<path style="fill:url(#SVGID_00000172432240676721662700000017878115641000479108_);" d="M0.8,400.9v-77.6l-0.8,1
			c0.4,8.3,0.4,67.4,0,75.6L0.8,400.9z"/>
		
			<linearGradient id="SVGID_00000071561796891078960570000001409738525412065452_" gradientUnits="userSpaceOnUse" x1="3.3738" y1="400.9691" x2="3.3738" y2="323.3094">
			<stop  offset="0" style="stop-color:#353540"/>
			<stop  offset="5.306120e-02" style="stop-color:#000000"/>
			<stop  offset="0.5184" style="stop-color:#333333"/>
			<stop  offset="0.9646" style="stop-color:#000000"/>
			<stop  offset="1" style="stop-color:#262C31"/>
		</linearGradient>
		
			<rect x="2.5" y="323.3" style="fill:url(#SVGID_00000071561796891078960570000001409738525412065452_);" width="1.8" height="77.7"/>
	</g>
	<g>
		
			<linearGradient id="SVGID_00000106855386528525477050000010138939112721979582_" gradientUnits="userSpaceOnUse" x1="429.6449" y1="3.7945" x2="471.7875" y2="3.7945" gradientTransform="matrix(0 1 1 0 -2.1372 -295.6622)">
			<stop  offset="0" style="stop-color:#3B3B3B"/>
			<stop  offset="1.850530e-02" style="stop-color:#E6E6E6"/>
			<stop  offset="3.819530e-02" style="stop-color:#333333"/>
			<stop  offset="8.205520e-02" style="stop-color:#000000"/>
			<stop  offset="0.1053" style="stop-color:#666666"/>
			<stop  offset="0.9049" style="stop-color:#313131"/>
			<stop  offset="0.9391" style="stop-color:#000000"/>
			<stop  offset="0.9646" style="stop-color:#333333"/>
			<stop  offset="0.9829" style="stop-color:#CCCCCC"/>
			<stop  offset="1" style="stop-color:#2C2C2C"/>
		</linearGradient>
		
			<rect x="0.8" y="134" style="fill:url(#SVGID_00000106855386528525477050000010138939112721979582_);" width="1.7" height="42.1"/>
		
			<linearGradient id="SVGID_00000074426294631493164450000016348524368981742507_" gradientUnits="userSpaceOnUse" x1="429.6652" y1="2.5515" x2="471.7911" y2="2.5515" gradientTransform="matrix(0 1 1 0 -2.1372 -295.6622)">
			<stop  offset="0" style="stop-color:#A0A0A0"/>
			<stop  offset="6.402420e-02" style="stop-color:#333333"/>
			<stop  offset="0.186" style="stop-color:#8A8A8A"/>
			<stop  offset="0.8064" style="stop-color:#8A8A8A"/>
			<stop  offset="0.9191" style="stop-color:#333333"/>
			<stop  offset="1" style="stop-color:#A0A0A0"/>
		</linearGradient>
		<path style="fill:url(#SVGID_00000074426294631493164450000016348524368981742507_);" d="M0.8,176.1V134L0,135
			c0.4,8.3,0.4,31.9,0,40.1L0.8,176.1z"/>
		
			<linearGradient id="SVGID_00000091729386969734578820000010368542232707024545_" gradientUnits="userSpaceOnUse" x1="3.3738" y1="176.1492" x2="3.3738" y2="134.003">
			<stop  offset="0" style="stop-color:#353540"/>
			<stop  offset="5.306120e-02" style="stop-color:#000000"/>
			<stop  offset="0.5184" style="stop-color:#333333"/>
			<stop  offset="0.9646" style="stop-color:#000000"/>
			<stop  offset="1" style="stop-color:#262C31"/>
		</linearGradient>
		
			<rect x="2.5" y="134" style="fill:url(#SVGID_00000091729386969734578820000010368542232707024545_);" width="1.8" height="42.1"/>
	</g>
	<path d="M288.5,1078.1h-51.2c-1,0-1.9,0.1-2.2,0.3l-2.3,1c-0.4,0.3,0.7,0.6,2.2,0.6h55.7c1.5,0,2.7-0.3,2.2-0.6l-2.3-1
		C290.5,1078.2,289.6,1078.1,288.5,1078.1z"/>
	<path d="M308.6,59.9h-93.2c-10.5,0-19-8.5-19-19l0,0c0-10.5,8.5-19,19-19h93.2c10.5,0,19,8.5,19,19l0,0
		C327.6,51.4,319.1,59.9,308.6,59.9z"/>
	<g>
		
			<linearGradient id="SVGID_00000051373709695905742450000012070054202480833943_" gradientUnits="userSpaceOnUse" x1="303.369" y1="48.6791" x2="303.369" y2="32.3532">
			<stop  offset="0" style="stop-color:#666666"/>
			<stop  offset="1" style="stop-color:#010104"/>
		</linearGradient>
		<circle style="fill:url(#SVGID_00000051373709695905742450000012070054202480833943_);" cx="303.4" cy="40.9" r="8.3"/>
		
			<image style="overflow:visible;" width="65" height="65" xlink:href="41527CC.png"  transform="matrix(0.24 0 0 0.24 295.522 33.12)">
		</image>
		
			<linearGradient id="SVGID_00000129920058567533768870000004899538021969572778_" gradientUnits="userSpaceOnUse" x1="2332.8167" y1="270.3526" x2="2332.8167" y2="261.0241" gradientTransform="matrix(-1 0 0 -1 2636.1858 306.8135)">
			<stop  offset="0" style="stop-color:#0B131C"/>
			<stop  offset="1" style="stop-color:#354039"/>
		</linearGradient>
		<circle style="fill:url(#SVGID_00000129920058567533768870000004899538021969572778_);" cx="303.4" cy="40.9" r="4.7"/>
		<g id="Camera_1_">
			
				<linearGradient id="SVGID_00000005229406340208044380000002288499804712344739_" gradientUnits="userSpaceOnUse" x1="306.296" y1="43.8374" x2="300.4324" y2="37.9738">
				<stop  offset="0" style="stop-color:#231F20"/>
				<stop  offset="8.317667e-02" style="stop-color:#222326"/>
				<stop  offset="0.1958" style="stop-color:#1F2C37"/>
				<stop  offset="0.3254" style="stop-color:#1A3D54"/>
				<stop  offset="0.4675" style="stop-color:#13537C"/>
				<stop  offset="0.62" style="stop-color:#0B71AE"/>
				<stop  offset="0.7788" style="stop-color:#0094EC"/>
				<stop  offset="0.7847" style="stop-color:#0095EE"/>
				<stop  offset="0.7998" style="stop-color:#0488D6"/>
				<stop  offset="0.8384" style="stop-color:#0D689F"/>
				<stop  offset="0.8761" style="stop-color:#154E72"/>
				<stop  offset="0.912" style="stop-color:#1B394E"/>
				<stop  offset="0.9455" style="stop-color:#1F2B35"/>
				<stop  offset="0.9758" style="stop-color:#222225"/>
				<stop  offset="1" style="stop-color:#231F20"/>
			</linearGradient>
			<path style="fill:url(#SVGID_00000005229406340208044380000002288499804712344739_);" d="M307.5,40.9c0,2.3-1.9,4.1-4.1,4.1
				c-2.3,0-4.1-1.9-4.1-4.1c0-2.3,1.8-4.1,4.1-4.1C305.7,36.8,307.5,38.6,307.5,40.9z"/>
			
				<radialGradient id="SVGID_00000096756933465263804160000014316537207992959123_" cx="303.3668" cy="40.9059" r="4.1434" gradientUnits="userSpaceOnUse">
				<stop  offset="0" style="stop-color:#231F20"/>
				<stop  offset="0.2019" style="stop-color:#175168"/>
				<stop  offset="0.3838" style="stop-color:#0D78A2"/>
				<stop  offset="0.5384" style="stop-color:#0695CB"/>
				<stop  offset="0.6597" style="stop-color:#02A7E5"/>
				<stop  offset="0.7326" style="stop-color:#00ADEE"/>
				<stop  offset="0.7594" style="stop-color:#02A6E4"/>
				<stop  offset="0.8055" style="stop-color:#0693C8"/>
				<stop  offset="0.8651" style="stop-color:#0E749C"/>
				<stop  offset="0.9352" style="stop-color:#184A5F"/>
				<stop  offset="1" style="stop-color:#231F20"/>
			</radialGradient>
			<path style="fill:url(#SVGID_00000096756933465263804160000014316537207992959123_);" d="M307.5,40.9c0,2.3-1.9,4.1-4.1,4.1
				c-2.3,0-4.1-1.9-4.1-4.1c0-2.3,1.8-4.1,4.1-4.1C305.7,36.8,307.5,38.6,307.5,40.9z"/>
		</g>
		
			<radialGradient id="SVGID_00000177473050169682426760000002322279760502752906_" cx="305.6428" cy="43.0675" r="1.4797" gradientUnits="userSpaceOnUse">
			<stop  offset="0" style="stop-color:#CCCCCC"/>
			<stop  offset="2.412361e-02" style="stop-color:#C4C4C4"/>
			<stop  offset="0.2198" style="stop-color:#898989"/>
			<stop  offset="0.4085" style="stop-color:#585858"/>
			<stop  offset="0.5855" style="stop-color:#323232"/>
			<stop  offset="0.7482" style="stop-color:#161616"/>
			<stop  offset="0.8915" style="stop-color:#060606"/>
			<stop  offset="1" style="stop-color:#000000"/>
		</radialGradient>
		<path style="fill:url(#SVGID_00000177473050169682426760000002322279760502752906_);" d="M307.1,43.1c0-0.8-0.7-1.5-1.5-1.5
			c-0.8,0-1.5,0.7-1.5,1.5s0.7,1.5,1.5,1.5C306.5,44.5,307.1,43.9,307.1,43.1z"/>
	</g>
</g>
</svg>
