<svg width="72" height="72" viewBox="0 0 72 72" fill="none" xmlns="http://www.w3.org/2000/svg">
<rect x="1" y="1" width="70" height="70" rx="35" fill="white"/>
<rect x="1" y="1" width="70" height="70" rx="35" stroke="#F6F8FF" stroke-width="2"/>
<path fill-rule="evenodd" clip-rule="evenodd" d="M26 16C31.5228 16 36 20.4771 36 26V16H46C51.5228 16 56 20.4771 56 26C56 31.5228 51.5228 36 46 36C51.5228 36 56 40.4772 56 46C56 48.7423 54.8961 51.2268 53.1085 53.0334L53.0711 53.0711L53.0379 53.1041C51.2309 54.8943 48.7446 56 46 56C43.2741 56 40.8029 54.9093 38.999 53.1405C38.9756 53.1175 38.9522 53.0943 38.9289 53.0711C38.907 53.0492 38.8852 53.0272 38.8635 53.0051C37.0924 51.2009 36 48.728 36 46C36 51.5228 31.5228 56 26 56C20.4771 56 16 51.5228 16 46V36H26C20.4771 36 16 31.5228 16 26C16 20.4771 20.4771 16 26 16ZM34 26C34 30.4183 30.4183 34 26 34V18C30.4183 18 34 21.5817 34 26ZM54 46C54 41.5817 50.4183 38 46 38C41.5817 38 38 41.5817 38 46H54ZM18 38V46C18 50.4183 21.5817 54 26 54C30.4183 54 34 50.4183 34 46V38H18ZM38 34V18H46C50.4183 18 54 21.5817 54 26C54 30.4183 50.4183 34 46 34H38Z" fill="black"/>
</svg>
