<svg width="56" height="56" viewBox="0 0 56 56" fill="none" xmlns="http://www.w3.org/2000/svg">
<rect width="56" height="56" rx="28" fill="white"/>
<rect x="0.5" y="0.5" width="55" height="55" rx="27.5" stroke="#80BBFF" stroke-opacity="0.2"/>
<path fill-rule="evenodd" clip-rule="evenodd" d="M32.4446 21.3482C31.129 20.4692 29.5822 20 28 20V12C31.1645 12 34.2579 12.9384 36.8891 14.6965C39.5203 16.4546 41.571 18.9534 42.7821 21.877C43.993 24.8006 44.3099 28.0178 43.6926 31.1214C43.0752 34.2251 41.5514 37.0761 39.3137 39.3137C37.0761 41.5514 34.2251 43.0752 31.1214 43.6926C28.0178 44.3099 24.8006 43.993 21.877 42.7821C18.9534 41.571 16.4546 39.5203 14.6965 36.8891C12.9384 34.2579 12 31.1645 12 28H20C20 29.5822 20.4692 31.129 21.3482 32.4446C22.2273 33.7602 23.4767 34.7855 24.9386 35.391C26.4003 35.9966 28.0089 36.155 29.5607 35.8462C31.1126 35.5376 32.538 34.7757 33.6569 33.6569C34.7757 32.538 35.5376 31.1126 35.8462 29.5607C36.155 28.0089 35.9966 26.4003 35.391 24.9386C34.7855 23.4767 33.7602 22.2273 32.4446 21.3482Z" fill="url(#paint0_linear_4390_6081)"/>
<path fill-rule="evenodd" clip-rule="evenodd" d="M20 12C20 13.0506 19.7931 14.0909 19.391 15.0615C18.989 16.0321 18.3997 16.914 17.6569 17.6569C16.914 18.3997 16.0321 18.989 15.0615 19.391C14.0909 19.7931 13.0506 20 12 20L12 28C14.1011 28 16.1817 27.5862 18.1229 26.7821C20.0642 25.978 21.828 24.7994 23.3137 23.3137C24.7994 21.828 25.978 20.0642 26.7821 18.1229C27.5862 16.1817 28 14.1011 28 12L20 12Z" fill="url(#paint1_linear_4390_6081)"/>
<defs>
<linearGradient id="paint0_linear_4390_6081" x1="12" y1="12" x2="44" y2="44" gradientUnits="userSpaceOnUse">
<stop stop-color="#CC39A5"/>
<stop offset="0.5" stop-color="#F9514D"/>
<stop offset="1" stop-color="#FFC451"/>
</linearGradient>
<linearGradient id="paint1_linear_4390_6081" x1="12" y1="12" x2="44" y2="44" gradientUnits="userSpaceOnUse">
<stop stop-color="#CC39A5"/>
<stop offset="0.5" stop-color="#F9514D"/>
<stop offset="1" stop-color="#FFC451"/>
</linearGradient>
</defs>
</svg>
