<svg width="64" height="64" viewBox="0 0 64 64" fill="none" xmlns="http://www.w3.org/2000/svg">
<rect x="1" y="1" width="62" height="62" rx="31" fill="white"/>
<rect x="1" y="1" width="62" height="62" rx="31" stroke="#F6F8FF" stroke-width="2"/>
<path d="M32 23C32 27.9706 27.9706 32 23 32H14V23C14 18.0294 18.0294 14 23 14C27.9706 14 32 18.0294 32 23Z" fill="#1976D2"/>
<path d="M32 41C32 36.0294 36.0294 32 41 32H50V41C50 45.9706 45.9706 50 41 50C36.0294 50 32 45.9706 32 41Z" fill="#1976D2"/>
<path d="M14 41C14 45.9706 18.0294 50 23 50H32V41C32 36.0294 27.9706 32 23 32C18.0294 32 14 36.0294 14 41Z" fill="#1976D2"/>
<path d="M50 23C50 18.0294 45.9706 14 41 14H32V23C32 27.9706 36.0294 32 41 32C45.9706 32 50 27.9706 50 23Z" fill="#1976D2"/>
</svg>
