<svg width="48" height="48" viewBox="0 0 48 48" fill="none" xmlns="http://www.w3.org/2000/svg">
<rect x="1" y="1" width="46" height="46" rx="23" fill="white"/>
<rect x="1" y="1" width="46" height="46" rx="23" stroke="#F6F8FF" stroke-width="2"/>
<path d="M38 25.0529H32.9849C28.6041 25.0529 25.0529 28.6042 25.0529 32.9849V38C31.967 37.4873 37.4873 31.967 38 25.0529Z" fill="#00A9F0"/>
<path d="M22.9471 38V32.9849C22.9471 28.6042 19.3958 25.0529 15.0151 25.0529H10C10.5127 31.967 16.033 37.4873 22.9471 38Z" fill="#00A9F0"/>
<path d="M38 22.9471C37.4873 16.033 31.967 10.5127 25.0529 10V15.0151C25.0529 19.3958 28.6041 22.9471 32.9849 22.9471H38Z" fill="#00A9F0"/>
<path d="M22.9471 10C16.033 10.5127 10.5127 16.033 10 22.9471H15.0151C19.3958 22.9471 22.9471 19.3958 22.9471 15.0151V10Z" fill="#00A9F0"/>
<path d="M19.4953 24C21.4414 23.0276 23.0274 21.4415 23.9998 19.4954C24.9722 21.4415 26.5582 23.0276 28.5044 24C26.5582 24.9723 24.9722 26.5584 23.9998 28.5045C23.0274 26.5584 21.4414 24.9723 19.4953 24Z" fill="#00A9F0"/>
</svg>
