<svg width="64" height="64" viewBox="0 0 64 64" fill="none" xmlns="http://www.w3.org/2000/svg">
<rect x="1" y="1" width="62" height="62" rx="31" fill="white"/>
<rect x="1" y="1" width="62" height="62" rx="31" stroke="#F6F8FF" stroke-width="2"/>
<path d="M33.9398 43.5167C33.9746 39.9248 33.0715 37.0039 31.9227 36.9925C30.7738 36.9812 29.8142 39.8839 29.7795 43.4757C29.7446 47.0677 30.6477 49.9887 31.7966 50C32.9454 50.0113 33.905 47.1087 33.9398 43.5167Z" fill="#FF4340"/>
<path d="M27.2768 42.701C29.2322 39.6983 30.0388 36.7487 29.0785 36.1129C28.118 35.477 25.7544 37.3957 23.7991 40.3983C21.8437 43.401 21.0371 46.3505 21.9974 46.9864C22.9579 47.6223 25.3215 45.7036 27.2768 42.701Z" fill="#FF4340"/>
<path d="M22.1011 38.393C25.3562 36.9331 27.6163 34.8916 27.1493 33.8331C26.6824 32.7746 23.6652 33.1 20.4102 34.56C17.1552 36.0198 14.8951 38.0613 15.362 39.1198C15.829 40.1783 18.8462 39.8529 22.1011 38.393Z" fill="#FF4340"/>
<path d="M26.7586 30.8648C26.9334 29.7198 24.2208 28.3486 20.6998 27.8022C17.1788 27.2557 14.1828 27.741 14.008 28.8859C13.8332 30.0309 16.5459 31.402 20.0669 31.9485C23.5878 32.4949 26.5839 32.0097 26.7586 30.8648Z" fill="#36C6FF"/>
<path d="M28.023 28.1371C28.7838 27.2691 27.2366 24.6371 24.5673 22.2583C21.8979 19.8795 19.1172 18.6548 18.3564 19.5229C17.5955 20.3909 19.1427 23.023 21.8121 25.4018C24.4814 27.7805 27.2622 29.0052 28.023 28.1371Z" fill="#36C6FF"/>
<path d="M30.5403 26.543C31.6458 26.2276 31.7556 23.1699 30.7856 19.7136C29.8157 16.2572 28.1331 13.711 27.0276 14.0264C25.9221 14.3418 25.8123 17.3995 26.7823 20.8559C27.7522 24.3122 29.4348 26.8585 30.5403 26.543Z" fill="#36C6FF"/>
<path d="M37.3766 20.9635C38.414 17.527 38.364 14.4678 37.2649 14.1305C36.1658 13.7931 34.4338 16.3054 33.3964 19.7418C32.359 23.1782 32.409 26.2374 33.5081 26.5748C34.6073 26.9121 36.3393 24.3999 37.3766 20.9635Z" fill="#0DC46E"/>
<path d="M42.2614 25.6068C44.9764 23.281 46.5743 20.68 45.8304 19.7971C45.0865 18.9143 42.2826 20.084 39.5676 22.4096C36.8526 24.7353 35.2548 27.3364 35.9986 28.2193C36.7425 29.1021 39.5464 27.9325 42.2614 25.6068Z" fill="#0DC46E"/>
<path d="M43.8764 32.1777C47.4074 31.7013 50.1463 30.3844 49.9939 29.2361C49.8416 28.0879 46.8557 27.5433 43.3246 28.0195C39.7937 28.4959 37.0547 29.8128 37.2071 30.9611C37.3594 32.1093 40.3453 32.654 43.8764 32.1777Z" fill="#0DC46E"/>
<path d="M48.4316 39.448C48.9191 38.3991 46.6993 36.313 43.4735 34.7887C40.2478 33.2643 37.2375 32.879 36.7499 33.9279C36.2624 34.977 38.4822 37.063 41.708 38.5874C44.9337 40.1116 47.944 40.497 48.4316 39.448Z" fill="#FDCB02"/>
<path d="M41.6462 47.1878C42.6188 46.5712 41.8701 43.6061 39.9738 40.5652C38.0776 37.5243 35.7519 35.559 34.7793 36.1756C33.8067 36.7922 34.5554 39.7573 36.4516 42.7983C38.3479 45.8392 40.6736 47.8045 41.6462 47.1878Z" fill="#FDCB02"/>
</svg>
