<svg width="56" height="56" viewBox="0 0 56 56" fill="none" xmlns="http://www.w3.org/2000/svg">
<rect x="1" y="1" width="54" height="54" rx="27" fill="white"/>
<rect x="1" y="1" width="54" height="54" rx="27" stroke="#F6F8FF" stroke-width="2"/>
<path fill-rule="evenodd" clip-rule="evenodd" d="M22.9717 12C21.1666 12 19.4354 12.7171 18.159 13.9935L12 20.1525V22.9717C12 24.9634 12.8556 26.7554 14.2192 28C12.8556 29.2446 12 31.0366 12 33.0283V35.8475L18.159 42.0066C19.4354 43.283 21.1666 44 22.9717 44C24.9634 44 26.7554 43.1445 28 41.7808C29.2446 43.1445 31.0366 44 33.0283 44C34.8334 44 36.5646 43.283 37.841 42.0066L44 35.8475V33.0283C44 31.0366 43.1445 29.2446 41.7808 28C43.1445 26.7554 44 24.9634 44 22.9717V20.1525L37.841 13.9935C36.5646 12.7171 34.8334 12 33.0283 12C31.0366 12 29.2446 12.8555 28 14.2192C26.7554 12.8555 24.9634 12 22.9717 12ZM32.607 28C32.5303 27.93 32.455 27.8581 32.3813 27.7843L28 23.403L23.6187 27.7843C23.545 27.8581 23.4697 27.93 23.393 28C23.4697 28.07 23.545 28.1419 23.6187 28.2157L28 32.597L32.3813 28.2157C32.455 28.1419 32.5303 28.07 32.607 28ZM29.7778 35.8475V37.1939C29.7778 38.9891 31.2331 40.4445 33.0283 40.4445C33.8904 40.4445 34.7172 40.102 35.3268 39.4924L40.4445 34.3747V33.0283C40.4445 31.2331 38.9891 29.7778 37.1939 29.7778C36.3318 29.7778 35.505 30.1202 34.8954 30.7298L29.7778 35.8475ZM26.2222 35.8475L21.1046 30.7298C20.495 30.1202 19.6682 29.7778 18.8061 29.7778C17.0109 29.7778 15.5556 31.2331 15.5556 33.0283V34.3747L20.6732 39.4924C21.2828 40.102 22.1096 40.4445 22.9717 40.4445C24.7669 40.4445 26.2222 38.9891 26.2222 37.1939V35.8475ZM26.2222 18.8061V20.1525L21.1046 25.2702C20.495 25.8798 19.6682 26.2222 18.8061 26.2222C17.0109 26.2222 15.5556 24.7669 15.5556 22.9717V21.6253L20.6732 16.5076C21.2828 15.898 22.1096 15.5556 22.9717 15.5556C24.7669 15.5556 26.2222 17.0109 26.2222 18.8061ZM34.8954 25.2702L29.7778 20.1525V18.8061C29.7778 17.0109 31.2331 15.5556 33.0283 15.5556C33.8904 15.5556 34.7172 15.898 35.3268 16.5076L40.4445 21.6253V22.9717C40.4445 24.7669 38.9891 26.2222 37.1939 26.2222C36.3318 26.2222 35.505 25.8798 34.8954 25.2702Z" fill="black"/>
</svg>
