<svg width="156" height="33" viewBox="0 0 156 33" fill="none" xmlns="http://www.w3.org/2000/svg">
<g clip-path="url(#clip0_4066_843)">
<path d="M65.7602 22.2409V25.6173H52.0352V22.9521L60.3045 13.4075H52.0352V10.0322H65.52V12.8252L57.5572 22.2409H65.7602Z" fill="#9CA3AF"/>
<path d="M81.5759 15.5552V25.6211H77.5041V23.4725H77.4149C76.9048 24.3008 75.4076 25.7746 72.4407 25.7746C69.4738 25.7746 67.4082 24.0559 67.4082 21.2934C67.4082 18.2861 69.6248 15.9851 76.0058 15.9851H77.5041V15.5247C77.5041 13.8365 76.4862 12.8243 74.838 12.8243C73.2196 12.8243 72.2314 13.7135 72.1113 15.0643H68.0967C68.1562 11.5661 70.9127 9.63184 74.838 9.63184C79.182 9.63184 81.5759 11.8133 81.5759 15.5552ZM77.5041 19.7282V18.6235H76.0367C72.5906 18.6235 71.6023 19.6978 71.6023 20.9865C71.6023 22.1229 72.5013 22.8258 73.9127 22.8258C75.9166 22.8258 77.5041 21.4469 77.5041 19.7282Z" fill="#9CA3AF"/>
<path d="M99.5552 16.0465V25.6215H95.3301V16.9685C95.3301 14.7894 94.2813 13.4386 92.6343 13.4386C90.5069 13.4386 89.0383 14.9429 89.0383 17.7042V25.6227H84.8145V10.0317H89.0383V12.9161C89.998 10.6761 91.7353 9.63575 93.9222 9.63575C97.5479 9.63223 99.5552 12.2413 99.5552 16.0465Z" fill="#9CA3AF"/>
<path d="M107.795 13.4069V19.8212C107.795 21.4168 108.724 22.2814 110.252 22.2814C110.881 22.2814 111.66 22.1889 112.739 21.6054V25.2571C111.779 25.7797 110.582 25.9331 109.592 25.9331C105.968 25.9331 103.57 23.754 103.57 20.4397V13.4105H100.844V10.0317H100.904C102.734 10.0317 103.57 9.26434 103.57 7.4543V5.37012H107.795V10.0352H113.038V13.4069H107.795Z" fill="#9CA3AF"/>
<path d="M117.032 2.5H117.17C117.831 2.5 118.465 2.76908 118.933 3.24804C119.4 3.727 119.663 4.37662 119.663 5.05397C119.663 5.38931 119.599 5.72136 119.473 6.03116C119.348 6.34096 119.164 6.62243 118.933 6.85949C118.701 7.09656 118.426 7.28457 118.124 7.41279C117.821 7.54101 117.497 7.60693 117.17 7.60678H117.032C116.705 7.60693 116.381 7.54101 116.078 7.41279C115.776 7.28457 115.501 7.09656 115.269 6.85949C115.038 6.62243 114.854 6.34096 114.729 6.03116C114.604 5.72136 114.539 5.38931 114.539 5.05397C114.539 4.37662 114.802 3.727 115.269 3.24804C115.737 2.76908 116.371 2.5 117.032 2.5ZM114.989 10.0319H119.206V25.6217H114.985L114.989 10.0319Z" fill="#9CA3AF"/>
<path d="M129.485 26.0194C124.632 26.0194 121.605 22.6747 121.605 17.7952C121.605 12.9766 124.632 9.63184 129.485 9.63184C133.59 9.63184 136.435 12.0569 136.855 15.9582H132.691C132.391 14.1786 131.313 13.0129 129.425 13.0129C127.058 13.0129 125.68 14.946 125.68 17.7999C125.68 20.6538 127.058 22.5868 129.425 22.5868C131.403 22.5868 132.481 21.3602 132.781 19.4236H136.915C136.59 23.4116 133.74 26.0194 129.485 26.0194Z" fill="#9CA3AF"/>
<path d="M41.2001 7.46596C41.5818 7.8653 41.8698 8.34839 42.0423 8.87863C42.2147 9.40886 42.2671 9.97234 42.1955 10.5264C42.1239 11.0804 41.9301 11.6105 41.6288 12.0765C41.3276 12.5425 40.9267 12.9321 40.4567 13.2159C37.0682 15.2565 33.1142 16.0868 29.2152 15.5767C25.3162 15.0665 21.6929 13.2447 18.9141 10.3972L23.9294 5.15332C25.5901 6.85391 27.7529 7.94466 30.0814 8.25591C32.4099 8.56715 34.7736 8.08144 36.8047 6.87432C37.4961 6.45701 38.3037 6.28802 39.0995 6.39413C39.8953 6.50024 40.6338 6.87539 41.1978 7.4601L41.2001 7.46596Z" fill="#9CA3AF"/>
<path d="M41.1787 7.44289C40.5066 6.75474 39.5951 6.36816 38.6448 6.36816C37.6944 6.36816 36.7829 6.75474 36.1108 7.44289L20.8988 23.0245C20.227 23.713 19.8496 24.6466 19.8496 25.62C19.8496 26.5935 20.227 27.5271 20.8988 28.2156C21.2315 28.5566 21.6265 28.8272 22.0613 29.0117C22.4961 29.1963 22.9622 29.2913 23.4328 29.2913C23.9035 29.2913 24.3695 29.1963 24.8043 29.0117C25.2391 28.8272 25.6341 28.5566 25.9668 28.2156L41.1787 12.634C41.5117 12.2933 41.7758 11.8886 41.956 11.4433C42.1362 10.9979 42.2289 10.5205 42.2289 10.0385C42.2289 9.55636 42.1362 9.07899 41.956 8.63363C41.7758 8.18827 41.5117 7.78365 41.1787 7.44289Z" fill="#9CA3AF"/>
<path d="M20.8804 28.1864C20.4987 27.7872 20.2106 27.3043 20.0381 26.7742C19.8655 26.2441 19.813 25.6808 19.8846 25.1268C19.9561 24.5729 20.1498 24.0428 20.4509 23.5769C20.7521 23.111 21.1528 22.7214 21.6227 22.4376C25.0114 20.3974 28.9654 19.5672 32.8644 20.0771C36.7635 20.587 40.387 22.4083 43.1665 25.2552L38.1488 30.5002C36.4881 28.7996 34.3253 27.7089 31.9968 27.3976C29.6683 27.0864 27.3047 27.5721 25.2736 28.7792C24.5814 29.1954 23.7734 29.3631 22.9776 29.2558C22.1818 29.1484 21.4438 28.772 20.8804 28.1864Z" fill="#9CA3AF"/>
</g>
<defs>
<clipPath id="clip0_4066_843">
<rect width="118" height="28" fill="white" transform="translate(18.916 2.5)"/>
</clipPath>
</defs>
</svg>
