<svg width="157" height="29" viewBox="0 0 157 29" fill="none" xmlns="http://www.w3.org/2000/svg">
<g clip-path="url(#clip0_4089_1007)">
<path d="M61.5953 16.304C61.5953 17.3786 61.3216 18.1994 60.7749 18.7668C60.2279 19.3343 59.452 19.618 58.447 19.618C57.4565 19.618 56.6877 19.3343 56.1412 18.7668C55.5941 18.1994 55.3208 17.3786 55.3208 16.304V6.49805H52.2168V16.2813C52.2168 17.6283 52.4901 18.7668 53.0372 19.6974C53.5838 20.628 54.3266 21.3282 55.2654 21.7971C56.2038 22.2663 57.2498 22.5009 58.4026 22.5009C59.57 22.5009 60.6308 22.2664 61.5842 21.7971C62.5376 21.3282 63.2986 20.628 63.8678 19.6974C64.4366 18.7668 64.7215 17.6283 64.7215 16.2813V6.49805H61.5953V16.304Z" fill="#9CA3AF"/>
<path d="M74.5194 9.58508C73.7507 9.58508 73.0451 9.74036 72.4021 10.0503C71.7592 10.3606 71.2304 10.7881 70.8168 11.3329V9.76664H67.7129V22.3417H70.8168V15.396C70.8168 14.3972 71.0642 13.6293 71.5596 13.0921C72.0546 12.5552 72.7307 12.2863 73.5882 12.2863C74.4307 12.2863 75.096 12.5552 75.5837 13.0921C76.0714 13.6294 76.3153 14.3972 76.3153 15.396V22.3417H79.4192V14.9646C79.4192 13.27 78.9683 11.9496 78.0668 11.0036C77.165 10.058 75.9827 9.58496 74.5194 9.58496V9.58508Z" fill="#9CA3AF"/>
<path d="M83.9439 4.5459C83.3969 4.5459 82.9422 4.72398 82.5803 5.07942C82.218 5.4351 82.0371 5.87778 82.0371 6.40722C82.0371 6.93666 82.218 7.3797 82.5803 7.73514C82.9423 8.09082 83.3969 8.26854 83.9439 8.26854C84.4909 8.26854 84.945 8.09082 85.3074 7.73514C85.6695 7.3797 85.8506 6.93714 85.8506 6.40722C85.8506 5.8773 85.6695 5.4351 85.3074 5.07942C84.945 4.7241 84.4906 4.5459 83.9439 4.5459Z" fill="#9CA3AF"/>
<path d="M85.475 9.7666H82.3711V22.3416H85.475V9.7666Z" fill="#9CA3AF"/>
<path d="M93.7872 12.2636C94.4078 12.2636 94.9289 12.419 95.3502 12.7289C95.7716 13.0393 96.0707 13.4666 96.2482 14.0114H99.5961C99.2559 12.604 98.5873 11.5109 97.5895 10.7314C96.5917 9.95214 95.3316 9.5625 93.8094 9.5625C92.6267 9.5625 91.5774 9.8313 90.661 10.3683C89.7443 10.9055 89.0276 11.662 88.5103 12.6381C87.9928 13.6141 87.7344 14.753 87.7344 16.0543C87.7344 17.3555 87.9928 18.4943 88.5103 19.4704C89.0276 20.4465 89.7443 21.2033 90.661 21.7403C91.5774 22.2777 92.6267 22.5461 93.8094 22.5461C95.3169 22.5461 96.5731 22.1455 97.5786 21.3431C98.5835 20.5413 99.2559 19.4591 99.5961 18.0973H96.2482C95.8636 19.2475 95.0434 19.8223 93.7873 19.8223C92.9004 19.8223 92.1982 19.4931 91.681 18.8348C91.1634 18.1766 90.905 17.2498 90.905 16.0543C90.905 14.8438 91.1634 13.9093 91.681 13.2509C92.1982 12.5926 92.9004 12.2636 93.7873 12.2636H93.7872Z" fill="#9CA3AF"/>
<path d="M110.637 10.3683C109.676 9.8313 108.605 9.5625 107.422 9.5625C106.24 9.5625 105.168 9.8313 104.208 10.3683C103.247 10.9055 102.489 11.666 101.935 12.6494C101.381 13.6333 101.104 14.7682 101.104 16.0543C101.104 17.3403 101.373 18.4755 101.913 19.459C102.452 20.4429 103.195 21.2032 104.141 21.7402C105.087 22.2776 106.151 22.546 107.334 22.546C108.531 22.546 109.613 22.2776 110.582 21.7402C111.55 21.2032 112.318 20.4429 112.887 19.459C113.456 18.4755 113.741 17.3405 113.741 16.0543C113.741 14.768 113.464 13.6333 112.91 12.6494C112.355 11.666 111.598 10.9055 110.637 10.3683ZM110.105 18.0971C109.809 18.6572 109.414 19.0772 108.919 19.3569C108.423 19.6371 107.895 19.7768 107.334 19.7768C106.447 19.7768 105.711 19.4555 105.127 18.8121C104.543 18.169 104.252 17.2498 104.252 16.0543C104.252 14.8587 104.551 13.9396 105.15 13.2964C105.748 12.6535 106.491 12.3317 107.378 12.3317C108.264 12.3317 109.015 12.6535 109.628 13.2964C110.241 13.9397 110.548 14.8591 110.548 16.0543C110.548 16.8566 110.4 17.5375 110.105 18.0971Z" fill="#9CA3AF"/>
<path d="M117.6 4.5459C117.053 4.5459 116.599 4.72398 116.237 5.07942C115.874 5.4351 115.693 5.87778 115.693 6.40722C115.693 6.93666 115.874 7.3797 116.237 7.73514C116.599 8.09082 117.053 8.26854 117.6 8.26854C118.147 8.26854 118.601 8.09082 118.964 7.73514C119.326 7.3797 119.507 6.93714 119.507 6.40722C119.507 5.8773 119.326 5.4351 118.964 5.07942C118.601 4.7241 118.147 4.5459 117.6 4.5459Z" fill="#9CA3AF"/>
<path d="M119.129 9.7666H116.025V22.3416H119.129V9.7666Z" fill="#9CA3AF"/>
<path d="M132.561 11.0036C131.659 10.058 130.477 9.58496 129.014 9.58496C128.245 9.58496 127.539 9.74024 126.896 10.0502C126.253 10.3605 125.725 10.788 125.311 11.3328V9.76652H122.207V22.3416H125.311V15.3958C125.311 14.3971 125.558 13.6292 126.054 13.092C126.549 12.5551 127.225 12.2862 128.082 12.2862C128.925 12.2862 129.59 12.5551 130.078 13.092C130.566 13.6293 130.809 14.3971 130.809 15.3958V22.3416H133.913V14.9644C133.913 13.2699 133.462 11.9494 132.561 11.0035V11.0036Z" fill="#9CA3AF"/>
<path d="M34.6372 2.5C31.6065 2.5 28.8445 3.67768 26.7637 5.6104L32.1778 8.16856C32.6397 8.38684 33.1425 8.49988 33.6514 8.49988H39.3257C39.9731 8.49988 40.4979 9.03712 40.4979 9.69988V19.2999C40.4979 19.9626 39.9731 20.4999 39.3257 20.4999H29.9488C29.3014 20.4999 28.7766 19.9626 28.7766 19.2999V13.4906C28.7766 12.9696 28.6662 12.455 28.453 11.9819L25.9542 6.43936C24.0663 8.56948 22.916 11.3972 22.916 14.5C22.916 21.1275 28.1637 26.5 34.6372 26.5C41.1108 26.5 46.3585 21.1275 46.3585 14.5C46.3585 7.87252 41.1108 2.5 34.6372 2.5Z" fill="#9CA3AF"/>
</g>
<defs>
<clipPath id="clip0_4089_1007">
<rect width="111" height="24" fill="white" transform="translate(22.916 2.5)"/>
</clipPath>
</defs>
</svg>
