<svg width="157" height="33" viewBox="0 0 157 33" fill="none" xmlns="http://www.w3.org/2000/svg">
<g clip-path="url(#clip0_4066_850)">
<path d="M83.6836 9.2998L81.4516 17.3346C81.2331 18.1863 80.994 19.037 80.755 20.3242C80.5711 19.3104 80.3387 18.3067 80.0585 17.3171L77.8265 9.30271H75.0048L72.7161 17.3171C72.4194 18.302 72.1866 19.3067 72.0195 20.3242C71.7805 18.9963 71.562 18.1446 71.3425 17.3171L69.1728 9.30271H66.3828L70.7454 24.4769H73.2332L76.3952 14.0336L79.5005 24.4769H81.9687L86.3871 9.2998H83.6836Z" fill="#9CA3AF"/>
<path d="M90.6283 13.9092C88.0801 13.9092 86.3289 15.3827 86.3503 17.5837H88.4205C88.401 16.5254 89.1766 15.8813 90.5102 15.8813C91.7053 15.8813 92.5413 16.4216 92.5413 17.833V18.0609L89.7346 18.2899C87.5249 18.4761 86.0918 19.5509 86.0918 21.5492C86.0918 23.4592 87.3454 24.7503 89.4556 24.7503C91.0078 24.7503 92.1824 24.0237 92.6009 22.9644L92.7794 24.4806H94.9091V18.2462C94.9073 15.5301 93.3951 13.9092 90.6283 13.9092ZM92.559 20.324C92.559 22.234 91.2849 22.8364 90.2498 22.8364C89.1552 22.8364 88.5582 22.3388 88.5582 21.4454C88.5582 20.615 89.0752 20.1164 90.5112 19.9709L92.5572 19.7847L92.559 20.324Z" fill="#9CA3AF"/>
<path d="M104.345 15.6105C103.748 14.5308 102.514 13.8867 101.062 13.8867C98.2549 13.8867 96.3633 16.1081 96.3633 19.1191C96.3633 22.1087 98.2149 24.268 100.982 24.268C102.415 24.268 103.649 23.6656 104.266 22.6694V24.4155C104.266 26.0965 103.251 27.2179 101.559 27.2179C100.046 27.2179 99.011 26.4496 98.8715 25.1003H96.4219C96.7399 27.7786 98.7106 29.5227 101.418 29.5227C104.602 29.5227 106.633 27.343 106.633 23.9586V14.2194H104.483L104.345 15.6105ZM101.4 22.067C99.887 22.067 98.8324 20.7798 98.8324 19.0599C98.8324 17.3575 99.8666 16.111 101.4 16.111C103.074 16.111 104.19 17.3779 104.19 19.0599C104.185 20.7594 103.07 22.067 101.398 22.067H101.4Z" fill="#9CA3AF"/>
<path d="M112.763 22.6104C111.29 22.6104 110.374 21.717 110.314 20.0776H117.321V19.3094C117.321 16.0491 115.589 13.9111 112.723 13.9111C109.896 13.9111 107.965 16.0452 107.965 19.3501C107.965 22.6104 109.876 24.7483 112.723 24.7483C115.091 24.7483 116.942 23.2749 117.361 21.0942H115.111C114.872 21.9847 113.936 22.6104 112.763 22.6104ZM112.643 16.0074C113.957 16.0074 114.892 16.8591 114.912 18.4577H110.355C110.374 16.8979 111.309 16.0045 112.643 16.0045V16.0074Z" fill="#9CA3AF"/>
<path d="M121.303 15.423L121.164 14.2396H118.932V24.4754H121.365V19.4923C121.365 17.4989 122.38 16.3785 124.132 16.3785H125.085V14.1775C123.597 13.8244 121.9 14.1775 121.303 15.423Z" fill="#9CA3AF"/>
<path d="M52.3593 16.3452L48.3984 20.4766L52.3593 24.6021C53.4092 25.6968 54.8329 26.3117 56.3174 26.3117C57.8019 26.3117 59.2256 25.6968 60.2755 24.6021C60.7954 24.06 61.2078 23.4164 61.4891 22.708C61.7705 21.9997 61.9153 21.2404 61.9153 20.4736C61.9153 19.7069 61.7705 18.9476 61.4891 18.2393C61.2078 17.5309 60.7954 16.8873 60.2755 16.3452C59.7557 15.8029 59.1387 15.3728 58.4596 15.0793C57.7804 14.7858 57.0525 14.6348 56.3174 14.6348C55.5823 14.6348 54.8544 14.7858 54.1752 15.0793C53.4961 15.3728 52.879 15.8029 52.3593 16.3452Z" fill="#9CA3AF"/>
<path d="M43.0383 14.8854L46.9964 19.0138L50.9544 14.8854C51.4743 14.3433 51.8867 13.6997 52.1681 12.9913C52.4494 12.2829 52.5943 11.5237 52.5943 10.7569C52.5943 9.99016 52.4494 9.23092 52.1681 8.52255C51.8867 7.81418 51.4743 7.17056 50.9544 6.62846L46.9964 2.5L43.0383 6.62846C42.5184 7.17056 42.106 7.81418 41.8246 8.52255C41.5433 9.23092 41.3984 9.99016 41.3984 10.7569C41.3984 11.5237 41.5433 12.2829 41.8246 12.9913C42.106 13.6997 42.5184 14.3433 43.0383 14.8854Z" fill="#9CA3AF"/>
<path d="M41.64 16.3447L45.5981 20.4761L41.64 24.6045C40.5901 25.6992 39.1664 26.3142 37.6819 26.3142C36.1974 26.3142 34.7737 25.6992 33.7238 24.6045C33.2039 24.0624 32.7915 23.4188 32.5102 22.7105C32.2288 22.0021 32.084 21.2428 32.084 20.4761C32.084 19.7093 32.2288 18.9501 32.5102 18.2417C32.7915 17.5333 33.2039 16.8897 33.7238 16.3476C34.2434 15.8052 34.8603 15.3748 35.5393 15.0811C36.2183 14.7873 36.9462 14.636 37.6813 14.6357C38.4164 14.6355 39.1444 14.7863 39.8236 15.0795C40.5029 15.3727 41.1201 15.8026 41.64 16.3447Z" fill="#9CA3AF"/>
<path d="M51.6353 30.5008L46.9983 21.4766L42.3613 30.5008H51.6353Z" fill="#9CA3AF"/>
</g>
<defs>
<clipPath id="clip0_4066_850">
<rect width="93" height="28" fill="white" transform="translate(32.082 2.5)"/>
</clipPath>
</defs>
</svg>
