<svg width="157" height="33" viewBox="0 0 157 33" fill="none" xmlns="http://www.w3.org/2000/svg">
<g clip-path="url(#clip0_4066_847)">
<path d="M26.2012 8.96191V10.3978L34.3286 14.4661L26.2012 18.5345V30.5003L35.7628 25.714V13.7482L26.2012 8.96191Z" fill="#9CA3AF"/>
<path d="M14.248 19.2521L23.8097 24.0384V22.6026L15.6823 18.5342L23.8097 14.4658V2.5L14.248 7.2863V19.2521Z" fill="#9CA3AF"/>
<path d="M51.3437 24.0231H45.3242V8.98242H50.8884C54.3281 8.98242 55.9721 10.527 55.9721 12.9071C55.9721 14.5784 55.0362 15.743 53.6705 16.1989C55.4409 16.6294 56.6549 17.9207 56.6549 19.7944C56.6549 22.2759 54.8592 24.0229 51.3436 24.0229L51.3437 24.0231ZM50.6103 11.0082H47.7523V15.5153H50.762C52.6589 15.5153 53.5441 14.6037 53.5441 13.2364C53.5441 11.8438 52.6589 11.0082 50.6103 11.0082ZM51.0656 17.3638H47.7523V21.9976H51.0403C53.0889 21.9976 54.1764 21.1873 54.1764 19.592C54.1764 18.174 53.19 17.3638 51.0655 17.3638H51.0656Z" fill="#9CA3AF"/>
<path d="M63.2055 24.2008C59.867 24.2008 57.3125 21.8206 57.3125 18.4529C57.3125 15.0852 59.867 12.7051 63.2055 12.7051C66.5693 12.7051 69.0985 15.0852 69.0985 18.4529C69.0985 21.8206 66.5693 24.2008 63.2055 24.2008ZM63.2055 14.7814C61.2581 14.7814 59.7658 16.2754 59.7658 18.4529C59.7658 20.6305 61.2834 22.1244 63.2055 22.1244C65.1529 22.1244 66.6452 20.6305 66.6452 18.4529C66.6452 16.2754 65.1277 14.7814 63.2055 14.7814Z" fill="#9CA3AF"/>
<path d="M75.5727 24.2008C72.2342 24.2008 69.6797 21.8206 69.6797 18.4529C69.6797 15.0852 72.2342 12.7051 75.5727 12.7051C78.9365 12.7051 81.4657 15.0852 81.4657 18.4529C81.4657 21.8206 78.9365 24.2008 75.5727 24.2008ZM75.5727 14.7814C73.6252 14.7814 72.133 16.2754 72.133 18.4529C72.133 20.6305 73.6504 22.1244 75.5727 22.1244C77.5201 22.1244 79.0124 20.6305 79.0124 18.4529C79.0124 16.2754 77.4949 14.7814 75.5727 14.7814Z" fill="#9CA3AF"/>
<path d="M88.5715 17.6929L93.301 24.0231H90.4936L86.7756 19.3641L85.2075 21.0606V24.0231H82.8301V8.09627L85.2075 7.96973V18.7564H85.3087C85.688 18.1234 86.2698 17.3131 87.0032 16.4015L90.3417 12.8314L92.9721 12.9327L88.5713 17.693L88.5715 17.6929Z" fill="#9CA3AF"/>
<path d="M103.442 11.7926C102.607 11.3115 100.989 10.9823 99.724 10.9823C97.7513 10.9823 96.6637 11.7166 96.6637 12.9827C96.6637 15.9959 104.555 14.5273 104.555 19.7181C104.555 22.478 102.557 24.1999 98.7123 24.1999C96.8913 24.1999 95.1209 23.7947 94.084 23.2377L94.3369 20.9335C95.3233 21.5159 97.119 22.0223 98.7883 22.0223C101.014 22.0223 102.051 21.288 102.051 19.946C102.051 16.8315 94.1346 18.3761 94.1346 13.1852C94.1346 10.6026 96.1833 8.80469 99.6736 8.80469C101.191 8.80469 102.886 9.08327 103.923 9.61494L103.442 11.7925L103.442 11.7926Z" fill="#9CA3AF"/>
<path d="M112.216 14.9325H108.979V20.3258C108.979 21.5919 109.662 22.1236 110.775 22.1236C111.407 22.1236 111.989 21.8957 112.393 21.5919L112.52 23.6175C111.989 23.9973 111.205 24.1999 110.269 24.1999C107.815 24.1999 106.627 22.9339 106.627 20.6044V14.9325H105.059V12.8815H106.627V10.4507L108.979 9.91895V12.8815H112.393L112.216 14.9325H112.216Z" fill="#9CA3AF"/>
<path d="M118.944 24.2008C115.605 24.2008 113.051 21.8206 113.051 18.4529C113.051 15.0852 115.605 12.7051 118.944 12.7051C122.308 12.7051 124.837 15.0852 124.837 18.4529C124.837 21.8206 122.308 24.2008 118.944 24.2008ZM118.944 14.7814C116.996 14.7814 115.504 16.2754 115.504 18.4529C115.504 20.6305 117.022 22.1244 118.944 22.1244C120.891 22.1244 122.383 20.6305 122.383 18.4529C122.383 16.2754 120.866 14.7814 118.944 14.7814Z" fill="#9CA3AF"/>
<path d="M132.627 15.1107C132.374 15.0094 131.868 14.9081 131.489 14.9081C130.401 14.9081 129.365 15.4399 128.581 16.2501V24.0236H126.203V12.9331L128.581 12.8317V14.3256C129.516 13.2621 130.68 12.7051 131.869 12.7051C132.172 12.7051 132.526 12.7558 132.703 12.8317L132.627 15.1106L132.627 15.1107Z" fill="#9CA3AF"/>
<path d="M135.408 19.0098C135.661 20.9343 137.179 22.1243 139.531 22.1243C140.795 22.1243 142.262 21.7192 143.148 21.0862L143.249 23.1878C142.389 23.8208 140.72 24.2006 139.379 24.2006C135.358 24.2006 132.93 21.947 132.93 18.3516C132.93 14.9586 135.257 12.7051 138.367 12.7051C141.2 12.7051 143.249 14.5536 143.249 17.4906C143.249 17.9211 143.223 18.5288 143.148 19.0098H135.408ZM135.332 17.5666H140.998C141.023 17.4653 141.023 17.288 141.023 17.1615C141.023 15.5662 139.961 14.4521 138.367 14.4521C136.698 14.4521 135.509 15.6675 135.332 17.5666Z" fill="#9CA3AF"/>
</g>
<defs>
<clipPath id="clip0_4066_847">
<rect width="129" height="28" fill="white" transform="translate(14.25 2.5)"/>
</clipPath>
</defs>
</svg>
