<svg width="157" height="33" viewBox="0 0 157 33" fill="none" xmlns="http://www.w3.org/2000/svg">
<path fill-rule="evenodd" clip-rule="evenodd" d="M37.3811 20.4992L49.129 30.5L60.877 20.4992C60.3694 18.8847 59.5174 17.5248 58.4296 16.4196C59.4622 15.3258 60.2673 13.9932 60.7452 12.4223L48.9028 2.5L37.2501 12.5787C37.7629 14.1588 38.6058 15.4917 39.6759 16.578C38.6609 17.6539 37.8647 18.961 37.3811 20.4992ZM58.4296 16.4196C53.7646 21.361 44.4549 21.4294 39.6759 16.578C44.3488 11.6244 53.6578 11.5716 58.4296 16.4196Z" fill="#9CA3AF"/>
<path d="M67.9648 16.5538C67.9648 15.3316 68.2412 14.2398 68.7939 13.2786C69.3586 12.3056 70.1216 11.552 71.0828 11.018C72.056 10.4722 73.1434 10.1992 74.3449 10.1992C75.7506 10.1992 76.9822 10.5552 78.0395 11.2672C79.0969 11.9792 79.8358 12.9642 80.2563 14.222H77.3547C77.0663 13.6287 76.6578 13.1837 76.1291 12.887C75.6125 12.5904 75.0117 12.442 74.3268 12.442C73.5939 12.442 72.9391 12.6141 72.3624 12.9582C71.7977 13.2905 71.3531 13.7652 71.0287 14.3822C70.7163 14.9993 70.5601 15.7232 70.5601 16.5538C70.5601 17.3726 70.7163 18.0965 71.0287 18.7254C71.3531 19.3425 71.7977 19.8231 72.3624 20.1672C72.9391 20.4995 73.5939 20.6656 74.3268 20.6656C75.0117 20.6656 75.6125 20.5173 76.1291 20.2206C76.6578 19.9121 77.0663 19.4611 77.3547 18.8678H80.2563C79.8358 20.1375 79.0969 21.1284 78.0395 21.8404C76.9942 22.5405 75.7627 22.8906 74.3449 22.8906C73.1434 22.8906 72.056 22.6236 71.0828 22.0896C70.1216 21.5437 69.3586 20.7902 68.7939 19.829C68.2412 18.8678 67.9648 17.7761 67.9648 16.5538Z" fill="#9CA3AF"/>
<path d="M84.0335 14.4534C84.3579 13.9313 84.7784 13.5219 85.2951 13.2252C85.8237 12.9286 86.4245 12.7802 87.0973 12.7802V15.3968H86.4305C85.6375 15.3968 85.0367 15.5808 84.6282 15.9486C84.2317 16.3165 84.0335 16.9573 84.0335 17.871V22.7838H81.5103V12.9226H84.0335V14.4534Z" fill="#9CA3AF"/>
<path d="M92.3293 22.944C91.368 22.944 90.503 22.7363 89.734 22.321C88.965 21.8938 88.3583 21.2945 87.9137 20.5232C87.4812 19.7519 87.2649 18.8619 87.2649 17.8532C87.2649 16.8446 87.4872 15.9546 87.9317 15.1832C88.3883 14.4119 89.0071 13.8186 89.7881 13.4032C90.569 12.976 91.4401 12.7624 92.4013 12.7624C93.3626 12.7624 94.2337 12.976 95.0146 13.4032C95.7956 13.8186 96.4084 14.4119 96.8529 15.1832C97.3095 15.9546 97.5378 16.8446 97.5378 17.8532C97.5378 18.8619 97.3035 19.7519 96.8349 20.5232C96.3783 21.2945 95.7536 21.8938 94.9606 22.321C94.1796 22.7363 93.3025 22.944 92.3293 22.944ZM92.3293 20.7724C92.7858 20.7724 93.2124 20.6656 93.6089 20.452C94.0174 20.2265 94.3418 19.8943 94.5821 19.4552C94.8224 19.0162 94.9425 18.4822 94.9425 17.8532C94.9425 16.9158 94.6902 16.1978 94.1856 15.6994C93.693 15.1892 93.0862 14.934 92.3653 14.934C91.6444 14.934 91.0376 15.1892 90.545 15.6994C90.0644 16.1978 89.8241 16.9158 89.8241 17.8532C89.8241 18.7907 90.0584 19.5145 90.527 20.0248C91.0076 20.5232 91.6083 20.7724 92.3293 20.7724Z" fill="#9CA3AF"/>
<path d="M104.02 12.7802C105.21 12.7802 106.171 13.154 106.904 13.9016C107.637 14.6374 108.003 15.6698 108.003 16.9988V22.7838H105.48V17.337C105.48 16.5538 105.282 15.9546 104.886 15.5392C104.489 15.112 103.948 14.8984 103.264 14.8984C102.567 14.8984 102.014 15.112 101.605 15.5392C101.209 15.9546 101.011 16.5538 101.011 17.337V22.7838H98.4875V12.9226H101.011V14.1508C101.347 13.7236 101.774 13.3914 102.29 13.154C102.819 12.9048 103.396 12.7802 104.02 12.7802Z" fill="#9CA3AF"/>
<path d="M108.853 17.8176C108.853 16.8208 109.051 15.9368 109.448 15.1654C109.856 14.3941 110.403 13.8008 111.088 13.3854C111.785 12.9701 112.56 12.7624 113.413 12.7624C114.158 12.7624 114.806 12.9108 115.359 13.2074C115.924 13.5041 116.374 13.8779 116.711 14.3288V12.9226H119.252V22.7838H116.711V21.342C116.386 21.8048 115.936 22.1905 115.359 22.499C114.794 22.7957 114.14 22.944 113.395 22.944C112.554 22.944 111.785 22.7304 111.088 22.3032C110.403 21.876 109.856 21.2767 109.448 20.5054C109.051 19.7222 108.853 18.8263 108.853 17.8176ZM116.711 17.8532C116.711 17.248 116.591 16.7318 116.35 16.3046C116.11 15.8656 115.786 15.5333 115.377 15.3078C114.969 15.0705 114.53 14.9518 114.062 14.9518C113.593 14.9518 113.16 15.0646 112.764 15.29C112.367 15.5155 112.043 15.8478 111.791 16.2868C111.55 16.714 111.43 17.2243 111.43 17.8176C111.43 18.4109 111.55 18.9331 111.791 19.384C112.043 19.8231 112.367 20.1613 112.764 20.3986C113.172 20.636 113.605 20.7546 114.062 20.7546C114.53 20.7546 114.969 20.6419 115.377 20.4164C115.786 20.1791 116.11 19.8468 116.35 19.4196C116.591 18.9805 116.711 18.4584 116.711 17.8532Z" fill="#9CA3AF"/>
</svg>
