<svg width="156" height="33" viewBox="0 0 156 33" fill="none" xmlns="http://www.w3.org/2000/svg">
<g clip-path="url(#clip0_4089_1006)">
<path d="M36.3845 21.167C31.2471 21.167 27.0801 25.3469 27.0801 30.5003H45.6889C45.6889 25.3469 41.5219 21.167 36.3845 21.167H36.3845Z" fill="#9CA3AF"/>
<path d="M36.3845 11.8334C36.3845 6.67994 32.2175 2.5 27.0801 2.5V21.1666C32.2175 21.1666 36.3845 16.9868 36.3845 11.8333V11.8334Z" fill="#9CA3AF"/>
<path d="M45.6891 11.8334C50.8266 11.8334 54.9936 7.65349 54.9936 2.5H36.3848C36.3848 7.65342 40.5517 11.8333 45.6892 11.8333L45.6891 11.8334Z" fill="#9CA3AF"/>
<path d="M45.6875 21.1663C45.6875 26.3197 49.8544 30.4997 54.9919 30.4997V11.833C49.8544 11.833 45.6875 16.0129 45.6875 21.1664V21.1663Z" fill="#9CA3AF"/>
<path d="M73.5285 26.7203C72.0308 26.7203 70.7095 26.4717 69.5641 25.9738C68.4182 25.4763 67.4576 24.7931 66.6822 23.9244C65.9063 23.0558 65.3156 22.0243 64.9096 20.83C64.5037 19.6356 64.3008 18.3327 64.3008 16.9211C64.3008 15.4918 64.508 14.1753 64.9231 12.9715C65.338 11.7682 65.9379 10.7321 66.7227 9.86347C67.5074 8.99483 68.4723 8.31624 69.6182 7.82762C70.7635 7.339 72.076 7.09473 73.5555 7.09473C75.035 7.09473 76.3469 7.33482 77.4928 7.81408C78.6382 8.29376 79.6035 8.96768 80.3883 9.83632C81.173 10.705 81.7684 11.7411 82.1743 12.9444C82.5802 14.148 82.7832 15.4646 82.7832 16.8939C82.7832 18.3055 82.5802 19.6131 82.1743 20.8164C81.7684 22.02 81.1731 23.0558 80.3883 23.9244C79.6035 24.7931 78.6336 25.4764 77.4793 25.9738C76.3245 26.4717 75.0075 26.7203 73.5284 26.7203H73.5285ZM73.5556 9.91776C72.5272 9.91776 71.6385 10.1078 70.8901 10.4878C70.1413 10.8679 69.5142 11.3747 69.0094 12.0079C68.5041 12.6416 68.1299 13.3834 67.8863 14.2337C67.6427 15.0846 67.521 15.971 67.521 16.8939C67.521 17.8169 67.6427 18.6991 67.8863 19.5406C68.1298 20.382 68.4994 21.1285 68.9958 21.78C69.4918 22.4314 70.1188 22.9473 70.8765 23.3272C71.6342 23.7072 72.5272 23.8973 73.5556 23.8973C74.5657 23.8973 75.4498 23.7119 76.2074 23.3408C76.9651 22.9701 77.5917 22.4679 78.0882 21.8342C78.5842 21.201 78.9541 20.4634 79.1977 19.622C79.4412 18.7805 79.563 17.8805 79.563 16.9211C79.563 15.9804 79.4412 15.0888 79.1977 14.2473C78.9541 13.4059 78.5842 12.664 78.0882 12.0215C77.5918 11.3793 76.9694 10.8679 76.221 10.4878C75.4722 10.1077 74.5839 9.91769 73.5556 9.91769V9.91776Z" fill="#9CA3AF"/>
<path d="M85.623 26.53V12.2248H88.5185L88.6809 14.2607C89.7811 12.7406 91.2788 11.9805 93.1729 11.9805C93.353 11.9805 93.5289 11.9851 93.7007 11.994C93.8719 12.0033 94.0296 12.0169 94.1742 12.0347V14.912C93.9577 14.912 93.7455 14.9166 93.5383 14.9256C93.3306 14.9349 93.1277 14.9391 92.9294 14.9391C92.1354 14.9573 91.4724 15.0978 90.9404 15.3599C90.4081 15.6225 89.9751 15.9706 89.6415 16.405C89.3075 16.8393 89.0686 17.3508 88.9244 17.9387C88.7798 18.5269 88.708 19.1559 88.708 19.8252V26.5299H85.623V26.53Z" fill="#9CA3AF"/>
<path d="M96.1777 26.5301V7.33887H99.2626V14.2336C99.7856 13.51 100.476 12.9535 101.333 12.5642C102.189 12.1753 103.06 11.9806 103.944 11.9806C104.936 11.9806 105.82 12.1571 106.596 12.5099C107.371 12.8628 108.03 13.3607 108.571 14.0029C109.113 14.6454 109.523 15.4144 109.803 16.3101C110.082 17.2059 110.222 18.215 110.222 19.3368C110.222 20.3683 110.096 21.3319 109.843 22.2276C109.591 23.1234 109.203 23.9064 108.68 24.5757C108.156 25.2453 107.503 25.7701 106.718 26.15C105.933 26.5301 105.008 26.7201 103.944 26.7201C101.905 26.7201 100.345 26.0597 99.2626 24.7386C99.2444 25.0465 99.2309 25.3451 99.222 25.6343C99.2127 25.9241 99.2086 26.2226 99.2086 26.5301H96.1777ZM103.295 24.0329C103.962 24.0329 104.539 23.9107 105.027 23.6664C105.514 23.4221 105.915 23.0921 106.231 22.6756C106.546 22.2595 106.781 21.7709 106.934 21.2098C107.087 20.6491 107.164 20.0426 107.164 19.3911C107.164 18.7395 107.087 18.1288 106.934 17.5588C106.781 16.9887 106.546 16.4959 106.231 16.0794C105.915 15.6633 105.509 15.3376 105.013 15.1022C104.517 14.8673 103.926 14.7493 103.241 14.7493C102.537 14.7493 101.937 14.885 101.441 15.1565C100.945 15.4279 100.535 15.7854 100.21 16.2287C99.885 16.6723 99.6415 17.1745 99.4791 17.7352C99.3167 18.2963 99.2356 18.8574 99.2356 19.4181C99.2356 20.0336 99.3167 20.6172 99.4791 21.169C99.6415 21.7212 99.885 22.2052 100.21 22.6212C100.535 23.0377 100.949 23.377 101.455 23.6391C101.959 23.9016 102.573 24.0327 103.295 24.0327V24.0329Z" fill="#9CA3AF"/>
<path d="M114.796 6.28027C115.355 6.28027 115.819 6.45246 116.189 6.79597C116.559 7.13998 116.744 7.61031 116.744 8.20752C116.744 8.78688 116.559 9.24834 116.189 9.59193C115.819 9.93594 115.355 10.1077 114.796 10.1077C114.2 10.1077 113.722 9.93594 113.361 9.59193C113 9.24834 112.82 8.78695 112.82 8.20752C112.82 7.61038 113 7.13998 113.361 6.79597C113.722 6.45246 114.2 6.28027 114.796 6.28027ZM113.226 26.5302V12.225H116.311V26.5302H113.226V26.5302Z" fill="#9CA3AF"/>
<path d="M124.157 12.225H128.433V14.9124H124.157V21.21C124.157 21.5721 124.18 21.9157 124.225 22.2414C124.27 22.5672 124.36 22.8615 124.496 23.1236C124.631 23.3862 124.825 23.5987 125.077 23.7615C125.33 23.9244 125.673 24.0058 126.106 24.0058C126.863 24.0058 127.513 23.7798 128.054 23.3272L129.082 25.6345C128.613 25.9967 128.072 26.2635 127.459 26.4353C126.845 26.6071 126.241 26.6932 125.646 26.6932C124.094 26.6932 122.948 26.2996 122.209 25.5124C121.469 24.7253 121.1 23.4902 121.1 21.8071V14.9124H118.854V12.225H121.1V8.15332H124.157V12.225H124.157Z" fill="#9CA3AF"/>
</g>
<defs>
<clipPath id="clip0_4089_1006">
<rect width="102" height="28" fill="white" transform="translate(27.082 2.5)"/>
</clipPath>
</defs>
</svg>
