<svg width="40" height="40" viewBox="0 0 40 40" fill="none" xmlns="http://www.w3.org/2000/svg">
<path d="M28.332 5.8335H11.6654C6.66536 5.8335 3.33203 8.3335 3.33203 14.1668V25.8335C3.33203 31.6668 6.66536 34.1668 11.6654 34.1668H28.332C33.332 34.1668 36.6654 31.6668 36.6654 25.8335V14.1668C36.6654 8.3335 33.332 5.8335 28.332 5.8335ZM29.1154 15.9835L23.8987 20.1502C22.7987 21.0335 21.3987 21.4668 19.9987 21.4668C18.5987 21.4668 17.182 21.0335 16.0987 20.1502L10.882 15.9835C10.3487 15.5502 10.2654 14.7502 10.682 14.2168C11.1154 13.6835 11.8987 13.5835 12.432 14.0168L17.6487 18.1835C18.9154 19.2002 21.0654 19.2002 22.332 18.1835L27.5487 14.0168C28.082 13.5835 28.882 13.6668 29.2987 14.2168C29.732 14.7502 29.6487 15.5502 29.1154 15.9835Z" fill="url(#paint0_linear_34790_68614)"/>
<defs>
<linearGradient id="paint0_linear_34790_68614" x1="19.9987" y1="5.8335" x2="19.9987" y2="34.1668" gradientUnits="userSpaceOnUse">
<stop stop-color="#085BC5"/>
<stop offset="0.5" stop-color="#1EA9FF"/>
<stop offset="1" stop-color="#80BBFF"/>
</linearGradient>
</defs>
</svg>
