<svg width="18" height="18" viewBox="0 0 18 18" fill="none" xmlns="http://www.w3.org/2000/svg">
<path d="M16.0817 1.59669C16.3571 1.87241 16.565 2.20594 16.6894 2.57203C16.8138 2.93811 16.8516 3.32715 16.8 3.70967C16.7483 4.0922 16.6084 4.45818 16.391 4.7799C16.1736 5.10162 15.8844 5.37064 15.5452 5.56658C13.1001 6.97542 10.2469 7.54871 7.43333 7.19648C4.6198 6.84425 2.00524 5.58644 0 3.62046L3.6191 0C4.81745 1.17412 6.37814 1.9272 8.05839 2.14209C9.73864 2.35698 11.4443 2.02163 12.9099 1.18822C13.4088 0.900097 13.9916 0.783422 14.5659 0.856683C15.1401 0.929944 15.673 1.18895 16.08 1.59265L16.0817 1.59669Z" fill="url(#paint0_linear_34786_16679)"/>
<path d="M16.0662 1.58077C15.5811 1.10565 14.9234 0.838753 14.2376 0.838753C13.5519 0.838753 12.8942 1.10565 12.4091 1.58077L1.43213 12.3386C0.947339 12.814 0.675005 13.4586 0.675005 14.1306C0.675005 14.8027 0.947339 15.4473 1.43213 15.9227C1.67219 16.1581 1.95724 16.3449 2.27099 16.4723C2.58474 16.5998 2.92104 16.6653 3.26067 16.6653C3.60029 16.6653 3.93659 16.5998 4.25034 16.4723C4.56409 16.3449 4.84914 16.1581 5.0892 15.9227L16.0662 5.16483C16.3064 4.92956 16.497 4.6502 16.627 4.34271C16.7571 4.03523 16.824 3.70564 16.824 3.3728C16.824 3.03995 16.7571 2.71036 16.627 2.40288C16.497 2.09539 16.3064 1.81603 16.0662 1.58077Z" fill="url(#paint1_linear_34786_16679)"/>
<path d="M1.41831 15.9025C1.14283 15.6269 0.934968 15.2935 0.810462 14.9275C0.685956 14.5615 0.648076 14.1726 0.699691 13.7901C0.751306 13.4076 0.891062 13.0417 1.10837 12.72C1.32568 12.3983 1.61484 12.1293 1.95395 11.9334C4.39924 10.5248 7.25246 9.95161 10.066 10.3037C12.8796 10.6557 15.4943 11.9132 17.5 13.8787L13.8792 17.5C12.6809 16.3259 11.1202 15.5728 9.43996 15.3579C7.75971 15.143 6.05409 15.4784 4.58843 16.3118C4.08894 16.5992 3.50588 16.715 2.93164 16.6408C2.3574 16.5667 1.82482 16.3068 1.41831 15.9025Z" fill="url(#paint2_linear_34786_16679)"/>
<defs>
<linearGradient id="paint0_linear_34786_16679" x1="0" y1="0" x2="17.5" y2="17.5" gradientUnits="userSpaceOnUse">
<stop stop-color="#085BC5"/>
<stop offset="0.55" stop-color="#1EA9FF"/>
<stop offset="1" stop-color="#80BBFF"/>
</linearGradient>
<linearGradient id="paint1_linear_34786_16679" x1="0" y1="0" x2="17.5" y2="17.5" gradientUnits="userSpaceOnUse">
<stop stop-color="#085BC5"/>
<stop offset="0.55" stop-color="#1EA9FF"/>
<stop offset="1" stop-color="#80BBFF"/>
</linearGradient>
<linearGradient id="paint2_linear_34786_16679" x1="0" y1="0" x2="17.5" y2="17.5" gradientUnits="userSpaceOnUse">
<stop stop-color="#085BC5"/>
<stop offset="0.55" stop-color="#1EA9FF"/>
<stop offset="1" stop-color="#80BBFF"/>
</linearGradient>
</defs>
</svg>
