<svg width="18" height="18" viewBox="0 0 18 18" fill="none" xmlns="http://www.w3.org/2000/svg">
<path d="M9.69295 14.3484C9.70989 12.6023 9.27087 11.1824 8.71242 11.1769C8.15393 11.1714 7.68748 12.5824 7.67057 14.3285C7.65363 16.0746 8.09266 17.4945 8.6511 17.5C9.20959 17.5055 9.67605 16.0945 9.69295 14.3484Z" fill="url(#paint0_linear_34786_16669)"/>
<path d="M6.45402 13.9519C7.40456 12.4922 7.79664 11.0584 7.32981 10.7493C6.86293 10.4402 5.71392 11.3729 4.76343 12.8325C3.8129 14.2921 3.42081 15.7259 3.88764 16.0351C4.35452 16.3442 5.50349 15.4115 6.45402 13.9519Z" fill="url(#paint1_linear_34786_16669)"/>
<path d="M3.93806 11.8577C5.52035 11.148 6.61903 10.1556 6.39203 9.64108C6.16506 9.12654 4.69838 9.28474 3.11608 9.99442C1.5338 10.7041 0.43511 11.6965 0.662094 12.211C0.889073 12.7256 2.35577 12.5674 3.93806 11.8577Z" fill="url(#paint2_linear_34786_16669)"/>
<path d="M6.20212 8.19816C6.28709 7.64157 4.96843 6.97503 3.25686 6.70939C1.54524 6.44375 0.0888452 6.67964 0.00388541 7.23622C-0.0810744 7.79281 1.23758 8.45931 2.94918 8.72496C4.66076 8.9906 6.11718 8.75471 6.20212 8.19816Z" fill="url(#paint3_linear_34786_16669)"/>
<path d="M6.81672 6.87221C7.18658 6.45028 6.43448 5.1708 5.13688 4.01445C3.83928 2.8581 2.48753 2.26276 2.11768 2.68472C1.74783 3.10669 2.49993 4.38616 3.79754 5.54252C5.09515 6.69887 6.4469 7.29419 6.81672 6.87221Z" fill="url(#paint4_linear_34786_16669)"/>
<path d="M8.04041 6.09731C8.57781 5.94398 8.6312 4.45761 8.15969 2.77744C7.68817 1.09726 6.87027 -0.140493 6.33288 0.0128392C5.79548 0.166171 5.74209 1.65252 6.2136 3.33272C6.68512 5.01286 7.50302 6.25064 8.04041 6.09731Z" fill="url(#paint5_linear_34786_16669)"/>
<path d="M11.3636 3.38502C11.8679 1.71454 11.8436 0.227409 11.3093 0.0634236C10.775 -0.100565 9.93309 1.12068 9.42878 2.79116C8.92452 4.46163 8.94882 5.94876 9.48312 6.11274C10.0174 6.27672 10.8594 5.0555 11.3636 3.38502Z" fill="url(#paint6_linear_34786_16669)"/>
<path d="M13.7382 5.64218C15.058 4.51162 15.8347 3.24721 15.4731 2.81805C15.1115 2.38889 13.7485 2.95748 12.4287 4.08801C11.1089 5.21857 10.3322 6.48297 10.6938 6.91214C11.0554 7.34131 12.4184 6.77274 13.7382 5.64218Z" fill="url(#paint7_linear_34786_16669)"/>
<path d="M14.5232 8.83636C16.2397 8.60481 17.5711 7.96464 17.4971 7.40645C17.423 6.84831 15.9715 6.58354 14.255 6.81505C12.5386 7.04661 11.2071 7.68678 11.2812 8.24497C11.3553 8.80311 12.8068 9.06792 14.5232 8.83636Z" fill="url(#paint8_linear_34786_16669)"/>
<path d="M16.7376 12.3706C16.9746 11.8607 15.8955 10.8466 14.3274 10.1056C12.7593 9.3646 11.296 9.17729 11.059 9.6872C10.822 10.1971 11.9011 11.2112 13.4692 11.9522C15.0372 12.6932 16.5006 12.8805 16.7376 12.3706Z" fill="url(#paint9_linear_34786_16669)"/>
<path d="M13.4391 16.133C13.9119 15.8332 13.548 14.3919 12.6262 12.9136C11.7044 11.4354 10.5738 10.4801 10.101 10.7798C9.62824 11.0796 9.99221 12.5209 10.914 13.9991C11.8358 15.4774 12.9663 16.4327 13.4391 16.133Z" fill="url(#paint10_linear_34786_16669)"/>
<defs>
<linearGradient id="paint0_linear_34786_16669" x1="0" y1="0" x2="17.5" y2="17.5" gradientUnits="userSpaceOnUse">
<stop stop-color="#085BC5"/>
<stop offset="0.55" stop-color="#1EA9FF"/>
<stop offset="1" stop-color="#80BBFF"/>
</linearGradient>
<linearGradient id="paint1_linear_34786_16669" x1="0" y1="0" x2="17.5" y2="17.5" gradientUnits="userSpaceOnUse">
<stop stop-color="#085BC5"/>
<stop offset="0.55" stop-color="#1EA9FF"/>
<stop offset="1" stop-color="#80BBFF"/>
</linearGradient>
<linearGradient id="paint2_linear_34786_16669" x1="0" y1="0" x2="17.5" y2="17.5" gradientUnits="userSpaceOnUse">
<stop stop-color="#085BC5"/>
<stop offset="0.55" stop-color="#1EA9FF"/>
<stop offset="1" stop-color="#80BBFF"/>
</linearGradient>
<linearGradient id="paint3_linear_34786_16669" x1="0" y1="0" x2="17.5" y2="17.5" gradientUnits="userSpaceOnUse">
<stop stop-color="#085BC5"/>
<stop offset="0.55" stop-color="#1EA9FF"/>
<stop offset="1" stop-color="#80BBFF"/>
</linearGradient>
<linearGradient id="paint4_linear_34786_16669" x1="0" y1="0" x2="17.5" y2="17.5" gradientUnits="userSpaceOnUse">
<stop stop-color="#085BC5"/>
<stop offset="0.55" stop-color="#1EA9FF"/>
<stop offset="1" stop-color="#80BBFF"/>
</linearGradient>
<linearGradient id="paint5_linear_34786_16669" x1="0" y1="0" x2="17.5" y2="17.5" gradientUnits="userSpaceOnUse">
<stop stop-color="#085BC5"/>
<stop offset="0.55" stop-color="#1EA9FF"/>
<stop offset="1" stop-color="#80BBFF"/>
</linearGradient>
<linearGradient id="paint6_linear_34786_16669" x1="0" y1="0" x2="17.5" y2="17.5" gradientUnits="userSpaceOnUse">
<stop stop-color="#085BC5"/>
<stop offset="0.55" stop-color="#1EA9FF"/>
<stop offset="1" stop-color="#80BBFF"/>
</linearGradient>
<linearGradient id="paint7_linear_34786_16669" x1="0" y1="0" x2="17.5" y2="17.5" gradientUnits="userSpaceOnUse">
<stop stop-color="#085BC5"/>
<stop offset="0.55" stop-color="#1EA9FF"/>
<stop offset="1" stop-color="#80BBFF"/>
</linearGradient>
<linearGradient id="paint8_linear_34786_16669" x1="0" y1="0" x2="17.5" y2="17.5" gradientUnits="userSpaceOnUse">
<stop stop-color="#085BC5"/>
<stop offset="0.55" stop-color="#1EA9FF"/>
<stop offset="1" stop-color="#80BBFF"/>
</linearGradient>
<linearGradient id="paint9_linear_34786_16669" x1="0" y1="0" x2="17.5" y2="17.5" gradientUnits="userSpaceOnUse">
<stop stop-color="#085BC5"/>
<stop offset="0.55" stop-color="#1EA9FF"/>
<stop offset="1" stop-color="#80BBFF"/>
</linearGradient>
<linearGradient id="paint10_linear_34786_16669" x1="0" y1="0" x2="17.5" y2="17.5" gradientUnits="userSpaceOnUse">
<stop stop-color="#085BC5"/>
<stop offset="0.55" stop-color="#1EA9FF"/>
<stop offset="1" stop-color="#80BBFF"/>
</linearGradient>
</defs>
</svg>
