<svg width="18" height="18" viewBox="0 0 18 18" fill="none" xmlns="http://www.w3.org/2000/svg">
<path fill-rule="evenodd" clip-rule="evenodd" d="M6.00014 0C5.01296 0 4.06626 0.392148 3.36823 1.09017L0 4.45838V6.00013C0 7.08938 0.46788 8.06933 1.21363 8.75C0.46788 9.43066 0 10.4106 0 11.4999V13.0416L3.36823 16.4098C4.06626 17.1079 5.01296 17.5 6.00014 17.5C7.08938 17.5 8.06934 17.0321 8.75 16.2864C9.43066 17.0321 10.4106 17.5 11.4999 17.5C12.487 17.5 13.4337 17.1079 14.1318 16.4098L17.5 13.0416V11.4999C17.5 10.4106 17.0321 9.43066 16.2864 8.75C17.0321 8.06933 17.5 7.08938 17.5 6.00013V4.45838L14.1318 1.09017C13.4337 0.392148 12.487 0 11.4999 0C10.4106 0 9.43066 0.467879 8.75 1.21363C8.06934 0.467879 7.08938 0 6.00014 0ZM11.2695 8.75C11.2275 8.71171 11.1863 8.67238 11.146 8.63205L8.75 6.23603L6.35399 8.63205C6.31365 8.67238 6.27248 8.71171 6.23053 8.75C6.27248 8.78828 6.31365 8.82761 6.35399 8.86795L8.75 11.264L11.146 8.86795C11.1863 8.82761 11.2275 8.78828 11.2695 8.75ZM9.72221 13.0416V13.7779C9.72221 14.7597 10.5181 15.5556 11.4999 15.5556C11.9713 15.5556 12.4235 15.3683 12.7568 15.0349L15.5556 12.2362V11.4999C15.5556 10.5181 14.7597 9.72221 13.7779 9.72221C13.3065 9.72221 12.8543 9.9095 12.5209 10.2429L9.72221 13.0416ZM7.77779 13.0416L4.97906 10.2429C4.64568 9.9095 4.19354 9.72221 3.72208 9.72221C2.74032 9.72221 1.94444 10.5181 1.94444 11.4999V12.2362L4.74316 15.0349C5.07653 15.3683 5.52869 15.5556 6.00014 15.5556C6.98189 15.5556 7.77779 14.7597 7.77779 13.7779V13.0416ZM7.77779 3.72208V4.45838L4.97906 7.25711C4.64568 7.59049 4.19354 7.77778 3.72208 7.77778C2.74032 7.77778 1.94444 6.98188 1.94444 6.00013V5.26382L4.74316 2.4651C5.07653 2.13173 5.52869 1.94445 6.00014 1.94445C6.98189 1.94445 7.77779 2.74032 7.77779 3.72208ZM12.5209 7.25711L9.72221 4.45838V3.72208C9.72221 2.74032 10.5181 1.94445 11.4999 1.94445C11.9713 1.94445 12.4235 2.13173 12.7568 2.4651L15.5556 5.26382V6.00013C15.5556 6.98188 14.7597 7.77778 13.7779 7.77778C13.3065 7.77778 12.8543 7.59049 12.5209 7.25711Z" fill="url(#paint0_linear_34786_16673)"/>
<defs>
<linearGradient id="paint0_linear_34786_16673" x1="0" y1="0" x2="17.5" y2="17.5" gradientUnits="userSpaceOnUse">
<stop stop-color="#085BC5"/>
<stop offset="0.55" stop-color="#1EA9FF"/>
<stop offset="1" stop-color="#80BBFF"/>
</linearGradient>
</defs>
</svg>
